<?xml version="1.0" encoding="UTF-8" standalone="no"?>
<!DOCTYPE svg PUBLIC "-//W3C//DTD SVG 1.1//EN"
 "http://www.w3.org/Graphics/SVG/1.1/DTD/svg11.dtd">
<!-- Generated by graphviz version 2.40.1 (20161225.0304)
 -->
<!-- Title: Tree Pages: 1 -->
<svg width="882pt" height="671pt"
 viewBox="0.00 0.00 881.50 671.00" xmlns="http://www.w3.org/2000/svg" xmlns:xlink="http://www.w3.org/1999/xlink">
<g id="graph0" class="graph" transform="scale(1 1) rotate(0) translate(4 667)">
<title>Tree</title>
<polygon fill="#ffffff" stroke="transparent" points="-4,4 -4,-667 877.5,-667 877.5,4 -4,4"/>
<!-- 0 -->
<g id="node1" class="node">
<title>0</title>
<path fill="#ffffff" stroke="#000000" d="M568.5,-663C568.5,-663 452.5,-663 452.5,-663 446.5,-663 440.5,-657 440.5,-651 440.5,-651 440.5,-592 440.5,-592 440.5,-586 446.5,-580 452.5,-580 452.5,-580 568.5,-580 568.5,-580 574.5,-580 580.5,-586 580.5,-592 580.5,-592 580.5,-651 580.5,-651 580.5,-657 574.5,-663 568.5,-663"/>
<text text-anchor="start" x="451" y="-647.8" font-family="Helvetica,sans-Serif" font-size="14.00" fill="#000000">petal.length ≤ 2.45</text>
<text text-anchor="start" x="459.5" y="-632.8" font-family="Helvetica,sans-Serif" font-size="14.00" fill="#000000">entropy = 1.585</text>
<text text-anchor="start" x="462.5" y="-617.8" font-family="Helvetica,sans-Serif" font-size="14.00" fill="#000000">samples = 149</text>
<text text-anchor="start" x="448.5" y="-602.8" font-family="Helvetica,sans-Serif" font-size="14.00" fill="#000000">value = [49, 50, 50]</text>
<text text-anchor="start" x="457.5" y="-587.8" font-family="Helvetica,sans-Serif" font-size="14.00" fill="#000000">class = Virginica</text>
</g>
<!-- 1 -->
<g id="node2" class="node">
<title>1</title>
<path fill="#e58139" stroke="#000000" d="M488,-536.5C488,-536.5 389,-536.5 389,-536.5 383,-536.5 377,-530.5 377,-524.5 377,-524.5 377,-480.5 377,-480.5 377,-474.5 383,-468.5 389,-468.5 389,-468.5 488,-468.5 488,-468.5 494,-468.5 500,-474.5 500,-480.5 500,-480.5 500,-524.5 500,-524.5 500,-530.5 494,-536.5 488,-536.5"/>
<text text-anchor="start" x="396" y="-521.3" font-family="Helvetica,sans-Serif" font-size="14.00" fill="#000000">entropy = 0.0</text>
<text text-anchor="start" x="394.5" y="-506.3" font-family="Helvetica,sans-Serif" font-size="14.00" fill="#000000">samples = 49</text>
<text text-anchor="start" x="385" y="-491.3" font-family="Helvetica,sans-Serif" font-size="14.00" fill="#000000">value = [49, 0, 0]</text>
<text text-anchor="start" x="390.5" y="-476.3" font-family="Helvetica,sans-Serif" font-size="14.00" fill="#000000">class = Setosa</text>
</g>
<!-- 0&#45;&gt;1 -->
<g id="edge1" class="edge">
<title>0&#45;&gt;1</title>
<path fill="none" stroke="#000000" d="M485.3179,-579.8796C478.5983,-568.7735 471.3243,-556.7513 464.5586,-545.5691"/>
<polygon fill="#000000" stroke="#000000" points="467.4332,-543.5589 459.262,-536.8149 461.4441,-547.1826 467.4332,-543.5589"/>
<text text-anchor="middle" x="453.2883" y="-557.3908" font-family="Helvetica,sans-Serif" font-size="14.00" fill="#000000">True</text>
</g>
<!-- 2 -->
<g id="node3" class="node">
<title>2</title>
<path fill="#ffffff" stroke="#000000" d="M637,-544C637,-544 530,-544 530,-544 524,-544 518,-538 518,-532 518,-532 518,-473 518,-473 518,-467 524,-461 530,-461 530,-461 637,-461 637,-461 643,-461 649,-467 649,-473 649,-473 649,-532 649,-532 649,-538 643,-544 637,-544"/>
<text text-anchor="start" x="527" y="-528.8" font-family="Helvetica,sans-Serif" font-size="14.00" fill="#000000">petal.width ≤ 1.75</text>
<text text-anchor="start" x="541" y="-513.8" font-family="Helvetica,sans-Serif" font-size="14.00" fill="#000000">entropy = 1.0</text>
<text text-anchor="start" x="535.5" y="-498.8" font-family="Helvetica,sans-Serif" font-size="14.00" fill="#000000">samples = 100</text>
<text text-anchor="start" x="526" y="-483.8" font-family="Helvetica,sans-Serif" font-size="14.00" fill="#000000">value = [0, 50, 50]</text>
<text text-anchor="start" x="530.5" y="-468.8" font-family="Helvetica,sans-Serif" font-size="14.00" fill="#000000">class = Virginica</text>
</g>
<!-- 0&#45;&gt;2 -->
<g id="edge2" class="edge">
<title>0&#45;&gt;2</title>
<path fill="none" stroke="#000000" d="M536.0319,-579.8796C541.391,-571.1434 547.0979,-561.8404 552.6282,-552.8253"/>
<polygon fill="#000000" stroke="#000000" points="555.6135,-554.6522 557.8592,-544.2981 549.6467,-550.9919 555.6135,-554.6522"/>
<text text-anchor="middle" x="563.6839" y="-564.9101" font-family="Helvetica,sans-Serif" font-size="14.00" fill="#000000">False</text>
</g>
<!-- 3 -->
<g id="node4" class="node">
<title>3</title>
<path fill="#4de88e" stroke="#000000" d="M486,-425C486,-425 375,-425 375,-425 369,-425 363,-419 363,-413 363,-413 363,-354 363,-354 363,-348 369,-342 375,-342 375,-342 486,-342 486,-342 492,-342 498,-348 498,-354 498,-354 498,-413 498,-413 498,-419 492,-425 486,-425"/>
<text text-anchor="start" x="371" y="-409.8" font-family="Helvetica,sans-Serif" font-size="14.00" fill="#000000">petal.length ≤ 4.95</text>
<text text-anchor="start" x="379.5" y="-394.8" font-family="Helvetica,sans-Serif" font-size="14.00" fill="#000000">entropy = 0.445</text>
<text text-anchor="start" x="386.5" y="-379.8" font-family="Helvetica,sans-Serif" font-size="14.00" fill="#000000">samples = 54</text>
<text text-anchor="start" x="377" y="-364.8" font-family="Helvetica,sans-Serif" font-size="14.00" fill="#000000">value = [0, 49, 5]</text>
<text text-anchor="start" x="377.5" y="-349.8" font-family="Helvetica,sans-Serif" font-size="14.00" fill="#000000">class = Virginica</text>
</g>
<!-- 2&#45;&gt;3 -->
<g id="edge3" class="edge">
<title>2&#45;&gt;3</title>
<path fill="none" stroke="#000000" d="M529.988,-460.8796C517.7588,-451.368 504.6656,-441.1843 492.1268,-431.432"/>
<polygon fill="#000000" stroke="#000000" points="494.0241,-428.4736 483.9818,-425.0969 489.7265,-433.9991 494.0241,-428.4736"/>
</g>
<!-- 12 -->
<g id="node13" class="node">
<title>12</title>
<path fill="#843de6" stroke="#000000" d="M716,-425C716,-425 605,-425 605,-425 599,-425 593,-419 593,-413 593,-413 593,-354 593,-354 593,-348 599,-342 605,-342 605,-342 716,-342 716,-342 722,-342 728,-348 728,-354 728,-354 728,-413 728,-413 728,-419 722,-425 716,-425"/>
<text text-anchor="start" x="601" y="-409.8" font-family="Helvetica,sans-Serif" font-size="14.00" fill="#000000">petal.length ≤ 4.85</text>
<text text-anchor="start" x="609.5" y="-394.8" font-family="Helvetica,sans-Serif" font-size="14.00" fill="#000000">entropy = 0.151</text>
<text text-anchor="start" x="616.5" y="-379.8" font-family="Helvetica,sans-Serif" font-size="14.00" fill="#000000">samples = 46</text>
<text text-anchor="start" x="607" y="-364.8" font-family="Helvetica,sans-Serif" font-size="14.00" fill="#000000">value = [0, 1, 45]</text>
<text text-anchor="start" x="603.5" y="-349.8" font-family="Helvetica,sans-Serif" font-size="14.00" fill="#000000">class = Versicolor</text>
</g>
<!-- 2&#45;&gt;12 -->
<g id="edge12" class="edge">
<title>2&#45;&gt;12</title>
<path fill="none" stroke="#000000" d="M610.4309,-460.8796C616.0837,-452.1434 622.1033,-442.8404 627.9366,-433.8253"/>
<polygon fill="#000000" stroke="#000000" points="630.9601,-435.5952 633.4542,-425.2981 625.0831,-431.7924 630.9601,-435.5952"/>
</g>
<!-- 4 -->
<g id="node5" class="node">
<title>4</title>
<path fill="#3de684" stroke="#000000" d="M259,-306C259,-306 154,-306 154,-306 148,-306 142,-300 142,-294 142,-294 142,-235 142,-235 142,-229 148,-223 154,-223 154,-223 259,-223 259,-223 265,-223 271,-229 271,-235 271,-235 271,-294 271,-294 271,-300 265,-306 259,-306"/>
<text text-anchor="start" x="150" y="-290.8" font-family="Helvetica,sans-Serif" font-size="14.00" fill="#000000">petal.width ≤ 1.65</text>
<text text-anchor="start" x="155.5" y="-275.8" font-family="Helvetica,sans-Serif" font-size="14.00" fill="#000000">entropy = 0.146</text>
<text text-anchor="start" x="162.5" y="-260.8" font-family="Helvetica,sans-Serif" font-size="14.00" fill="#000000">samples = 48</text>
<text text-anchor="start" x="153" y="-245.8" font-family="Helvetica,sans-Serif" font-size="14.00" fill="#000000">value = [0, 47, 1]</text>
<text text-anchor="start" x="153.5" y="-230.8" font-family="Helvetica,sans-Serif" font-size="14.00" fill="#000000">class = Virginica</text>
</g>
<!-- 3&#45;&gt;4 -->
<g id="edge4" class="edge">
<title>3&#45;&gt;4</title>
<path fill="none" stroke="#000000" d="M362.9888,-347.6347C336.8326,-333.7392 306.8109,-317.7901 280.1032,-303.6017"/>
<polygon fill="#000000" stroke="#000000" points="281.6564,-300.4637 271.1832,-298.863 278.3723,-306.6455 281.6564,-300.4637"/>
</g>
<!-- 7 -->
<g id="node8" class="node">
<title>7</title>
<path fill="#c09cf2" stroke="#000000" d="M483.5,-306C483.5,-306 377.5,-306 377.5,-306 371.5,-306 365.5,-300 365.5,-294 365.5,-294 365.5,-235 365.5,-235 365.5,-229 371.5,-223 377.5,-223 377.5,-223 483.5,-223 483.5,-223 489.5,-223 495.5,-229 495.5,-235 495.5,-235 495.5,-294 495.5,-294 495.5,-300 489.5,-306 483.5,-306"/>
<text text-anchor="start" x="374" y="-290.8" font-family="Helvetica,sans-Serif" font-size="14.00" fill="#000000">petal.width ≤ 1.55</text>
<text text-anchor="start" x="379.5" y="-275.8" font-family="Helvetica,sans-Serif" font-size="14.00" fill="#000000">entropy = 0.918</text>
<text text-anchor="start" x="391" y="-260.8" font-family="Helvetica,sans-Serif" font-size="14.00" fill="#000000">samples = 6</text>
<text text-anchor="start" x="381" y="-245.8" font-family="Helvetica,sans-Serif" font-size="14.00" fill="#000000">value = [0, 2, 4]</text>
<text text-anchor="start" x="373.5" y="-230.8" font-family="Helvetica,sans-Serif" font-size="14.00" fill="#000000">class = Versicolor</text>
</g>
<!-- 3&#45;&gt;7 -->
<g id="edge7" class="edge">
<title>3&#45;&gt;7</title>
<path fill="none" stroke="#000000" d="M430.5,-341.8796C430.5,-333.6838 430.5,-324.9891 430.5,-316.5013"/>
<polygon fill="#000000" stroke="#000000" points="434.0001,-316.298 430.5,-306.2981 427.0001,-316.2981 434.0001,-316.298"/>
</g>
<!-- 5 -->
<g id="node6" class="node">
<title>5</title>
<path fill="#39e581" stroke="#000000" d="M111,-179.5C111,-179.5 12,-179.5 12,-179.5 6,-179.5 0,-173.5 0,-167.5 0,-167.5 0,-123.5 0,-123.5 0,-117.5 6,-111.5 12,-111.5 12,-111.5 111,-111.5 111,-111.5 117,-111.5 123,-117.5 123,-123.5 123,-123.5 123,-167.5 123,-167.5 123,-173.5 117,-179.5 111,-179.5"/>
<text text-anchor="start" x="19" y="-164.3" font-family="Helvetica,sans-Serif" font-size="14.00" fill="#000000">entropy = 0.0</text>
<text text-anchor="start" x="17.5" y="-149.3" font-family="Helvetica,sans-Serif" font-size="14.00" fill="#000000">samples = 47</text>
<text text-anchor="start" x="8" y="-134.3" font-family="Helvetica,sans-Serif" font-size="14.00" fill="#000000">value = [0, 47, 0]</text>
<text text-anchor="start" x="8.5" y="-119.3" font-family="Helvetica,sans-Serif" font-size="14.00" fill="#000000">class = Virginica</text>
</g>
<!-- 4&#45;&gt;5 -->
<g id="edge5" class="edge">
<title>4&#45;&gt;5</title>
<path fill="none" stroke="#000000" d="M155.786,-222.8796C141.3156,-211.0038 125.5686,-198.0804 111.1617,-186.2568"/>
<polygon fill="#000000" stroke="#000000" points="113.2628,-183.4534 103.3123,-179.8149 108.822,-188.8645 113.2628,-183.4534"/>
</g>
<!-- 6 -->
<g id="node7" class="node">
<title>6</title>
<path fill="#8139e5" stroke="#000000" d="M259.5,-179.5C259.5,-179.5 153.5,-179.5 153.5,-179.5 147.5,-179.5 141.5,-173.5 141.5,-167.5 141.5,-167.5 141.5,-123.5 141.5,-123.5 141.5,-117.5 147.5,-111.5 153.5,-111.5 153.5,-111.5 259.5,-111.5 259.5,-111.5 265.5,-111.5 271.5,-117.5 271.5,-123.5 271.5,-123.5 271.5,-167.5 271.5,-167.5 271.5,-173.5 265.5,-179.5 259.5,-179.5"/>
<text text-anchor="start" x="164" y="-164.3" font-family="Helvetica,sans-Serif" font-size="14.00" fill="#000000">entropy = 0.0</text>
<text text-anchor="start" x="167" y="-149.3" font-family="Helvetica,sans-Serif" font-size="14.00" fill="#000000">samples = 1</text>
<text text-anchor="start" x="157" y="-134.3" font-family="Helvetica,sans-Serif" font-size="14.00" fill="#000000">value = [0, 0, 1]</text>
<text text-anchor="start" x="149.5" y="-119.3" font-family="Helvetica,sans-Serif" font-size="14.00" fill="#000000">class = Versicolor</text>
</g>
<!-- 4&#45;&gt;6 -->
<g id="edge6" class="edge">
<title>4&#45;&gt;6</title>
<path fill="none" stroke="#000000" d="M206.5,-222.8796C206.5,-212.2134 206.5,-200.7021 206.5,-189.9015"/>
<polygon fill="#000000" stroke="#000000" points="210.0001,-189.8149 206.5,-179.8149 203.0001,-189.815 210.0001,-189.8149"/>
</g>
<!-- 8 -->
<g id="node9" class="node">
<title>8</title>
<path fill="#8139e5" stroke="#000000" d="M407.5,-179.5C407.5,-179.5 301.5,-179.5 301.5,-179.5 295.5,-179.5 289.5,-173.5 289.5,-167.5 289.5,-167.5 289.5,-123.5 289.5,-123.5 289.5,-117.5 295.5,-111.5 301.5,-111.5 301.5,-111.5 407.5,-111.5 407.5,-111.5 413.5,-111.5 419.5,-117.5 419.5,-123.5 419.5,-123.5 419.5,-167.5 419.5,-167.5 419.5,-173.5 413.5,-179.5 407.5,-179.5"/>
<text text-anchor="start" x="312" y="-164.3" font-family="Helvetica,sans-Serif" font-size="14.00" fill="#000000">entropy = 0.0</text>
<text text-anchor="start" x="315" y="-149.3" font-family="Helvetica,sans-Serif" font-size="14.00" fill="#000000">samples = 3</text>
<text text-anchor="start" x="305" y="-134.3" font-family="Helvetica,sans-Serif" font-size="14.00" fill="#000000">value = [0, 0, 3]</text>
<text text-anchor="start" x="297.5" y="-119.3" font-family="Helvetica,sans-Serif" font-size="14.00" fill="#000000">class = Versicolor</text>
</g>
<!-- 7&#45;&gt;8 -->
<g id="edge8" class="edge">
<title>7&#45;&gt;8</title>
<path fill="none" stroke="#000000" d="M403.9189,-222.8796C396.826,-211.7735 389.1479,-199.7513 382.0063,-188.5691"/>
<polygon fill="#000000" stroke="#000000" points="384.7477,-186.3589 376.4154,-179.8149 378.8482,-190.1267 384.7477,-186.3589"/>
</g>
<!-- 9 -->
<g id="node10" class="node">
<title>9</title>
<path fill="#9cf2c0" stroke="#000000" d="M565,-187C565,-187 450,-187 450,-187 444,-187 438,-181 438,-175 438,-175 438,-116 438,-116 438,-110 444,-104 450,-104 450,-104 565,-104 565,-104 571,-104 577,-110 577,-116 577,-116 577,-175 577,-175 577,-181 571,-187 565,-187"/>
<text text-anchor="start" x="446" y="-171.8" font-family="Helvetica,sans-Serif" font-size="14.00" fill="#000000">sepal.length ≤ 6.95</text>
<text text-anchor="start" x="456.5" y="-156.8" font-family="Helvetica,sans-Serif" font-size="14.00" fill="#000000">entropy = 0.918</text>
<text text-anchor="start" x="468" y="-141.8" font-family="Helvetica,sans-Serif" font-size="14.00" fill="#000000">samples = 3</text>
<text text-anchor="start" x="458" y="-126.8" font-family="Helvetica,sans-Serif" font-size="14.00" fill="#000000">value = [0, 2, 1]</text>
<text text-anchor="start" x="454.5" y="-111.8" font-family="Helvetica,sans-Serif" font-size="14.00" fill="#000000">class = Virginica</text>
</g>
<!-- 7&#45;&gt;9 -->
<g id="edge9" class="edge">
<title>7&#45;&gt;9</title>
<path fill="none" stroke="#000000" d="M457.4309,-222.8796C463.0837,-214.1434 469.1033,-204.8404 474.9366,-195.8253"/>
<polygon fill="#000000" stroke="#000000" points="477.9601,-197.5952 480.4542,-187.2981 472.0831,-193.7924 477.9601,-197.5952"/>
</g>
<!-- 10 -->
<g id="node11" class="node">
<title>10</title>
<path fill="#39e581" stroke="#000000" d="M484.5,-68C484.5,-68 386.5,-68 386.5,-68 380.5,-68 374.5,-62 374.5,-56 374.5,-56 374.5,-12 374.5,-12 374.5,-6 380.5,0 386.5,0 386.5,0 484.5,0 484.5,0 490.5,0 496.5,-6 496.5,-12 496.5,-12 496.5,-56 496.5,-56 496.5,-62 490.5,-68 484.5,-68"/>
<text text-anchor="start" x="393" y="-52.8" font-family="Helvetica,sans-Serif" font-size="14.00" fill="#000000">entropy = 0.0</text>
<text text-anchor="start" x="396" y="-37.8" font-family="Helvetica,sans-Serif" font-size="14.00" fill="#000000">samples = 2</text>
<text text-anchor="start" x="386" y="-22.8" font-family="Helvetica,sans-Serif" font-size="14.00" fill="#000000">value = [0, 2, 0]</text>
<text text-anchor="start" x="382.5" y="-7.8" font-family="Helvetica,sans-Serif" font-size="14.00" fill="#000000">class = Virginica</text>
</g>
<!-- 9&#45;&gt;10 -->
<g id="edge10" class="edge">
<title>9&#45;&gt;10</title>
<path fill="none" stroke="#000000" d="M480.6899,-103.9815C474.9331,-95.0666 468.8404,-85.6313 463.0559,-76.6734"/>
<polygon fill="#000000" stroke="#000000" points="465.9904,-74.7658 457.6254,-68.2637 460.1099,-78.5631 465.9904,-74.7658"/>
</g>
<!-- 11 -->
<g id="node12" class="node">
<title>11</title>
<path fill="#8139e5" stroke="#000000" d="M632.5,-68C632.5,-68 526.5,-68 526.5,-68 520.5,-68 514.5,-62 514.5,-56 514.5,-56 514.5,-12 514.5,-12 514.5,-6 520.5,0 526.5,0 526.5,0 632.5,0 632.5,0 638.5,0 644.5,-6 644.5,-12 644.5,-12 644.5,-56 644.5,-56 644.5,-62 638.5,-68 632.5,-68"/>
<text text-anchor="start" x="537" y="-52.8" font-family="Helvetica,sans-Serif" font-size="14.00" fill="#000000">entropy = 0.0</text>
<text text-anchor="start" x="540" y="-37.8" font-family="Helvetica,sans-Serif" font-size="14.00" fill="#000000">samples = 1</text>
<text text-anchor="start" x="530" y="-22.8" font-family="Helvetica,sans-Serif" font-size="14.00" fill="#000000">value = [0, 0, 1]</text>
<text text-anchor="start" x="522.5" y="-7.8" font-family="Helvetica,sans-Serif" font-size="14.00" fill="#000000">class = Versicolor</text>
</g>
<!-- 9&#45;&gt;11 -->
<g id="edge11" class="edge">
<title>9&#45;&gt;11</title>
<path fill="none" stroke="#000000" d="M534.3101,-103.9815C540.0669,-95.0666 546.1596,-85.6313 551.9441,-76.6734"/>
<polygon fill="#000000" stroke="#000000" points="554.8901,-78.5631 557.3746,-68.2637 549.0096,-74.7658 554.8901,-78.5631"/>
</g>
<!-- 13 -->
<g id="node14" class="node">
<title>13</title>
<path fill="#c09cf2" stroke="#000000" d="M713.5,-306C713.5,-306 607.5,-306 607.5,-306 601.5,-306 595.5,-300 595.5,-294 595.5,-294 595.5,-235 595.5,-235 595.5,-229 601.5,-223 607.5,-223 607.5,-223 713.5,-223 713.5,-223 719.5,-223 725.5,-229 725.5,-235 725.5,-235 725.5,-294 725.5,-294 725.5,-300 719.5,-306 713.5,-306"/>
<text text-anchor="start" x="606" y="-290.8" font-family="Helvetica,sans-Serif" font-size="14.00" fill="#000000">sepal.width ≤ 3.1</text>
<text text-anchor="start" x="609.5" y="-275.8" font-family="Helvetica,sans-Serif" font-size="14.00" fill="#000000">entropy = 0.918</text>
<text text-anchor="start" x="621" y="-260.8" font-family="Helvetica,sans-Serif" font-size="14.00" fill="#000000">samples = 3</text>
<text text-anchor="start" x="611" y="-245.8" font-family="Helvetica,sans-Serif" font-size="14.00" fill="#000000">value = [0, 1, 2]</text>
<text text-anchor="start" x="603.5" y="-230.8" font-family="Helvetica,sans-Serif" font-size="14.00" fill="#000000">class = Versicolor</text>
</g>
<!-- 12&#45;&gt;13 -->
<g id="edge13" class="edge">
<title>12&#45;&gt;13</title>
<path fill="none" stroke="#000000" d="M660.5,-341.8796C660.5,-333.6838 660.5,-324.9891 660.5,-316.5013"/>
<polygon fill="#000000" stroke="#000000" points="664.0001,-316.298 660.5,-306.2981 657.0001,-316.2981 664.0001,-316.298"/>
</g>
<!-- 16 -->
<g id="node17" class="node">
<title>16</title>
<path fill="#8139e5" stroke="#000000" d="M861.5,-298.5C861.5,-298.5 755.5,-298.5 755.5,-298.5 749.5,-298.5 743.5,-292.5 743.5,-286.5 743.5,-286.5 743.5,-242.5 743.5,-242.5 743.5,-236.5 749.5,-230.5 755.5,-230.5 755.5,-230.5 861.5,-230.5 861.5,-230.5 867.5,-230.5 873.5,-236.5 873.5,-242.5 873.5,-242.5 873.5,-286.5 873.5,-286.5 873.5,-292.5 867.5,-298.5 861.5,-298.5"/>
<text text-anchor="start" x="766" y="-283.3" font-family="Helvetica,sans-Serif" font-size="14.00" fill="#000000">entropy = 0.0</text>
<text text-anchor="start" x="764.5" y="-268.3" font-family="Helvetica,sans-Serif" font-size="14.00" fill="#000000">samples = 43</text>
<text text-anchor="start" x="755" y="-253.3" font-family="Helvetica,sans-Serif" font-size="14.00" fill="#000000">value = [0, 0, 43]</text>
<text text-anchor="start" x="751.5" y="-238.3" font-family="Helvetica,sans-Serif" font-size="14.00" fill="#000000">class = Versicolor</text>
</g>
<!-- 12&#45;&gt;16 -->
<g id="edge16" class="edge">
<title>12&#45;&gt;16</title>
<path fill="none" stroke="#000000" d="M712.2632,-341.8796C727.0331,-330.0038 743.1059,-317.0804 757.8108,-305.2568"/>
<polygon fill="#000000" stroke="#000000" points="760.2225,-307.8088 765.8226,-298.8149 755.8361,-302.3535 760.2225,-307.8088"/>
</g>
<!-- 14 -->
<g id="node15" class="node">
<title>14</title>
<path fill="#8139e5" stroke="#000000" d="M713.5,-179.5C713.5,-179.5 607.5,-179.5 607.5,-179.5 601.5,-179.5 595.5,-173.5 595.5,-167.5 595.5,-167.5 595.5,-123.5 595.5,-123.5 595.5,-117.5 601.5,-111.5 607.5,-111.5 607.5,-111.5 713.5,-111.5 713.5,-111.5 719.5,-111.5 725.5,-117.5 725.5,-123.5 725.5,-123.5 725.5,-167.5 725.5,-167.5 725.5,-173.5 719.5,-179.5 713.5,-179.5"/>
<text text-anchor="start" x="618" y="-164.3" font-family="Helvetica,sans-Serif" font-size="14.00" fill="#000000">entropy = 0.0</text>
<text text-anchor="start" x="621" y="-149.3" font-family="Helvetica,sans-Serif" font-size="14.00" fill="#000000">samples = 2</text>
<text text-anchor="start" x="611" y="-134.3" font-family="Helvetica,sans-Serif" font-size="14.00" fill="#000000">value = [0, 0, 2]</text>
<text text-anchor="start" x="603.5" y="-119.3" font-family="Helvetica,sans-Serif" font-size="14.00" fill="#000000">class = Versicolor</text>
</g>
<!-- 13&#45;&gt;14 -->
<g id="edge14" class="edge">
<title>13&#45;&gt;14</title>
<path fill="none" stroke="#000000" d="M660.5,-222.8796C660.5,-212.2134 660.5,-200.7021 660.5,-189.9015"/>
<polygon fill="#000000" stroke="#000000" points="664.0001,-189.8149 660.5,-179.8149 657.0001,-189.815 664.0001,-189.8149"/>
</g>
<!-- 15 -->
<g id="node16" class="node">
<title>15</title>
<path fill="#39e581" stroke="#000000" d="M853.5,-179.5C853.5,-179.5 755.5,-179.5 755.5,-179.5 749.5,-179.5 743.5,-173.5 743.5,-167.5 743.5,-167.5 743.5,-123.5 743.5,-123.5 743.5,-117.5 749.5,-111.5 755.5,-111.5 755.5,-111.5 853.5,-111.5 853.5,-111.5 859.5,-111.5 865.5,-117.5 865.5,-123.5 865.5,-123.5 865.5,-167.5 865.5,-167.5 865.5,-173.5 859.5,-179.5 853.5,-179.5"/>
<text text-anchor="start" x="762" y="-164.3" font-family="Helvetica,sans-Serif" font-size="14.00" fill="#000000">entropy = 0.0</text>
<text text-anchor="start" x="765" y="-149.3" font-family="Helvetica,sans-Serif" font-size="14.00" fill="#000000">samples = 1</text>
<text text-anchor="start" x="755" y="-134.3" font-family="Helvetica,sans-Serif" font-size="14.00" fill="#000000">value = [0, 1, 0]</text>
<text text-anchor="start" x="751.5" y="-119.3" font-family="Helvetica,sans-Serif" font-size="14.00" fill="#000000">class = Virginica</text>
</g>
<!-- 13&#45;&gt;15 -->
<g id="edge15" class="edge">
<title>13&#45;&gt;15</title>
<path fill="none" stroke="#000000" d="M710.8642,-222.8796C725.2349,-211.0038 740.8733,-198.0804 755.1808,-186.2568"/>
<polygon fill="#000000" stroke="#000000" points="757.4971,-188.8831 762.976,-179.8149 753.038,-183.4872 757.4971,-188.8831"/>
</g>
</g>
</svg>
