<?xml version="1.0" encoding="UTF-8" standalone="no"?>
<!DOCTYPE svg PUBLIC "-//W3C//DTD SVG 1.1//EN"
 "http://www.w3.org/Graphics/SVG/1.1/DTD/svg11.dtd">
<!-- Generated by graphviz version 2.40.1 (20161225.0304)
 -->
<!-- Title: Tree Pages: 1 -->
<svg width="585pt" height="552pt"
 viewBox="0.00 0.00 584.50 552.00" xmlns="http://www.w3.org/2000/svg" xmlns:xlink="http://www.w3.org/1999/xlink">
<g id="graph0" class="graph" transform="scale(1 1) rotate(0) translate(4 548)">
<title>Tree</title>
<polygon fill="#ffffff" stroke="transparent" points="-4,4 -4,-548 580.5,-548 580.5,4 -4,4"/>
<!-- 0 -->
<g id="node1" class="node">
<title>0</title>
<path fill="#fdfcff" stroke="#000000" d="M271.5,-544C271.5,-544 155.5,-544 155.5,-544 149.5,-544 143.5,-538 143.5,-532 143.5,-532 143.5,-473 143.5,-473 143.5,-467 149.5,-461 155.5,-461 155.5,-461 271.5,-461 271.5,-461 277.5,-461 283.5,-467 283.5,-473 283.5,-473 283.5,-532 283.5,-532 283.5,-538 277.5,-544 271.5,-544"/>
<text text-anchor="start" x="158" y="-528.8" font-family="Helvetica,sans-Serif" font-size="14.00" fill="#000000">petal.length ≤ 2.6</text>
<text text-anchor="start" x="175.5" y="-513.8" font-family="Helvetica,sans-Serif" font-size="14.00" fill="#000000">gini = 0.665</text>
<text text-anchor="start" x="165.5" y="-498.8" font-family="Helvetica,sans-Serif" font-size="14.00" fill="#000000">samples = 105</text>
<text text-anchor="start" x="151.5" y="-483.8" font-family="Helvetica,sans-Serif" font-size="14.00" fill="#000000">value = [36, 32, 37]</text>
<text text-anchor="start" x="156.5" y="-468.8" font-family="Helvetica,sans-Serif" font-size="14.00" fill="#000000">class = Versicolor</text>
</g>
<!-- 1 -->
<g id="node2" class="node">
<title>1</title>
<path fill="#e58139" stroke="#000000" d="M191,-417.5C191,-417.5 92,-417.5 92,-417.5 86,-417.5 80,-411.5 80,-405.5 80,-405.5 80,-361.5 80,-361.5 80,-355.5 86,-349.5 92,-349.5 92,-349.5 191,-349.5 191,-349.5 197,-349.5 203,-355.5 203,-361.5 203,-361.5 203,-405.5 203,-405.5 203,-411.5 197,-417.5 191,-417.5"/>
<text text-anchor="start" x="112" y="-402.3" font-family="Helvetica,sans-Serif" font-size="14.00" fill="#000000">gini = 0.0</text>
<text text-anchor="start" x="97.5" y="-387.3" font-family="Helvetica,sans-Serif" font-size="14.00" fill="#000000">samples = 36</text>
<text text-anchor="start" x="88" y="-372.3" font-family="Helvetica,sans-Serif" font-size="14.00" fill="#000000">value = [36, 0, 0]</text>
<text text-anchor="start" x="93.5" y="-357.3" font-family="Helvetica,sans-Serif" font-size="14.00" fill="#000000">class = Setosa</text>
</g>
<!-- 0&#45;&gt;1 -->
<g id="edge1" class="edge">
<title>0&#45;&gt;1</title>
<path fill="none" stroke="#000000" d="M188.3179,-460.8796C181.5983,-449.7735 174.3243,-437.7513 167.5586,-426.5691"/>
<polygon fill="#000000" stroke="#000000" points="170.4332,-424.5589 162.262,-417.8149 164.4441,-428.1826 170.4332,-424.5589"/>
<text text-anchor="middle" x="156.2883" y="-438.3908" font-family="Helvetica,sans-Serif" font-size="14.00" fill="#000000">True</text>
</g>
<!-- 2 -->
<g id="node3" class="node">
<title>2</title>
<path fill="#eee4fb" stroke="#000000" d="M340,-425C340,-425 233,-425 233,-425 227,-425 221,-419 221,-413 221,-413 221,-354 221,-354 221,-348 227,-342 233,-342 233,-342 340,-342 340,-342 346,-342 352,-348 352,-354 352,-354 352,-413 352,-413 352,-419 346,-425 340,-425"/>
<text text-anchor="start" x="230" y="-409.8" font-family="Helvetica,sans-Serif" font-size="14.00" fill="#000000">petal.width ≤ 1.65</text>
<text text-anchor="start" x="248.5" y="-394.8" font-family="Helvetica,sans-Serif" font-size="14.00" fill="#000000">gini = 0.497</text>
<text text-anchor="start" x="242.5" y="-379.8" font-family="Helvetica,sans-Serif" font-size="14.00" fill="#000000">samples = 69</text>
<text text-anchor="start" x="229" y="-364.8" font-family="Helvetica,sans-Serif" font-size="14.00" fill="#000000">value = [0, 32, 37]</text>
<text text-anchor="start" x="229.5" y="-349.8" font-family="Helvetica,sans-Serif" font-size="14.00" fill="#000000">class = Versicolor</text>
</g>
<!-- 0&#45;&gt;2 -->
<g id="edge2" class="edge">
<title>0&#45;&gt;2</title>
<path fill="none" stroke="#000000" d="M239.0319,-460.8796C244.391,-452.1434 250.0979,-442.8404 255.6282,-433.8253"/>
<polygon fill="#000000" stroke="#000000" points="258.6135,-435.6522 260.8592,-425.2981 252.6467,-431.9919 258.6135,-435.6522"/>
<text text-anchor="middle" x="266.6839" y="-445.9101" font-family="Helvetica,sans-Serif" font-size="14.00" fill="#000000">False</text>
</g>
<!-- 3 -->
<g id="node4" class="node">
<title>3</title>
<path fill="#4ce88d" stroke="#000000" d="M262,-306C262,-306 159,-306 159,-306 153,-306 147,-300 147,-294 147,-294 147,-235 147,-235 147,-229 153,-223 159,-223 159,-223 262,-223 262,-223 268,-223 274,-229 274,-235 274,-235 274,-294 274,-294 274,-300 268,-306 262,-306"/>
<text text-anchor="start" x="155" y="-290.8" font-family="Helvetica,sans-Serif" font-size="14.00" fill="#000000">petal.length ≤ 5.0</text>
<text text-anchor="start" x="172.5" y="-275.8" font-family="Helvetica,sans-Serif" font-size="14.00" fill="#000000">gini = 0.161</text>
<text text-anchor="start" x="166.5" y="-260.8" font-family="Helvetica,sans-Serif" font-size="14.00" fill="#000000">samples = 34</text>
<text text-anchor="start" x="157" y="-245.8" font-family="Helvetica,sans-Serif" font-size="14.00" fill="#000000">value = [0, 31, 3]</text>
<text text-anchor="start" x="157.5" y="-230.8" font-family="Helvetica,sans-Serif" font-size="14.00" fill="#000000">class = Virginica</text>
</g>
<!-- 2&#45;&gt;3 -->
<g id="edge3" class="edge">
<title>2&#45;&gt;3</title>
<path fill="none" stroke="#000000" d="M259.9189,-341.8796C254.3395,-333.1434 248.3981,-323.8404 242.6405,-314.8253"/>
<polygon fill="#000000" stroke="#000000" points="245.5269,-312.8421 237.1946,-306.2981 239.6274,-316.6098 245.5269,-312.8421"/>
</g>
<!-- 8 -->
<g id="node9" class="node">
<title>8</title>
<path fill="#853fe6" stroke="#000000" d="M419,-306C419,-306 308,-306 308,-306 302,-306 296,-300 296,-294 296,-294 296,-235 296,-235 296,-229 302,-223 308,-223 308,-223 419,-223 419,-223 425,-223 431,-229 431,-235 431,-235 431,-294 431,-294 431,-300 425,-306 419,-306"/>
<text text-anchor="start" x="304" y="-290.8" font-family="Helvetica,sans-Serif" font-size="14.00" fill="#000000">petal.length ≤ 4.85</text>
<text text-anchor="start" x="325.5" y="-275.8" font-family="Helvetica,sans-Serif" font-size="14.00" fill="#000000">gini = 0.056</text>
<text text-anchor="start" x="319.5" y="-260.8" font-family="Helvetica,sans-Serif" font-size="14.00" fill="#000000">samples = 35</text>
<text text-anchor="start" x="310" y="-245.8" font-family="Helvetica,sans-Serif" font-size="14.00" fill="#000000">value = [0, 1, 34]</text>
<text text-anchor="start" x="306.5" y="-230.8" font-family="Helvetica,sans-Serif" font-size="14.00" fill="#000000">class = Versicolor</text>
</g>
<!-- 2&#45;&gt;8 -->
<g id="edge8" class="edge">
<title>2&#45;&gt;8</title>
<path fill="none" stroke="#000000" d="M313.4309,-341.8796C319.0837,-333.1434 325.1033,-323.8404 330.9366,-314.8253"/>
<polygon fill="#000000" stroke="#000000" points="333.9601,-316.5952 336.4542,-306.2981 328.0831,-312.7924 333.9601,-316.5952"/>
</g>
<!-- 4 -->
<g id="node5" class="node">
<title>4</title>
<path fill="#39e581" stroke="#000000" d="M111,-179.5C111,-179.5 12,-179.5 12,-179.5 6,-179.5 0,-173.5 0,-167.5 0,-167.5 0,-123.5 0,-123.5 0,-117.5 6,-111.5 12,-111.5 12,-111.5 111,-111.5 111,-111.5 117,-111.5 123,-117.5 123,-123.5 123,-123.5 123,-167.5 123,-167.5 123,-173.5 117,-179.5 111,-179.5"/>
<text text-anchor="start" x="32" y="-164.3" font-family="Helvetica,sans-Serif" font-size="14.00" fill="#000000">gini = 0.0</text>
<text text-anchor="start" x="17.5" y="-149.3" font-family="Helvetica,sans-Serif" font-size="14.00" fill="#000000">samples = 30</text>
<text text-anchor="start" x="8" y="-134.3" font-family="Helvetica,sans-Serif" font-size="14.00" fill="#000000">value = [0, 30, 0]</text>
<text text-anchor="start" x="8.5" y="-119.3" font-family="Helvetica,sans-Serif" font-size="14.00" fill="#000000">class = Virginica</text>
</g>
<!-- 3&#45;&gt;4 -->
<g id="edge4" class="edge">
<title>3&#45;&gt;4</title>
<path fill="none" stroke="#000000" d="M158.387,-222.8796C143.5174,-211.0038 127.336,-198.0804 112.5317,-186.2568"/>
<polygon fill="#000000" stroke="#000000" points="114.4638,-183.3207 104.4658,-179.8149 110.0954,-188.7904 114.4638,-183.3207"/>
</g>
<!-- 5 -->
<g id="node6" class="node">
<title>5</title>
<path fill="#ab7bee" stroke="#000000" d="M268,-187C268,-187 153,-187 153,-187 147,-187 141,-181 141,-175 141,-175 141,-116 141,-116 141,-110 147,-104 153,-104 153,-104 268,-104 268,-104 274,-104 280,-110 280,-116 280,-116 280,-175 280,-175 280,-181 274,-187 268,-187"/>
<text text-anchor="start" x="149" y="-171.8" font-family="Helvetica,sans-Serif" font-size="14.00" fill="#000000">sepal.length ≤ 6.05</text>
<text text-anchor="start" x="172.5" y="-156.8" font-family="Helvetica,sans-Serif" font-size="14.00" fill="#000000">gini = 0.375</text>
<text text-anchor="start" x="171" y="-141.8" font-family="Helvetica,sans-Serif" font-size="14.00" fill="#000000">samples = 4</text>
<text text-anchor="start" x="161" y="-126.8" font-family="Helvetica,sans-Serif" font-size="14.00" fill="#000000">value = [0, 1, 3]</text>
<text text-anchor="start" x="153.5" y="-111.8" font-family="Helvetica,sans-Serif" font-size="14.00" fill="#000000">class = Versicolor</text>
</g>
<!-- 3&#45;&gt;5 -->
<g id="edge5" class="edge">
<title>3&#45;&gt;5</title>
<path fill="none" stroke="#000000" d="M210.5,-222.8796C210.5,-214.6838 210.5,-205.9891 210.5,-197.5013"/>
<polygon fill="#000000" stroke="#000000" points="214.0001,-197.298 210.5,-187.2981 207.0001,-197.2981 214.0001,-197.298"/>
</g>
<!-- 6 -->
<g id="node7" class="node">
<title>6</title>
<path fill="#39e581" stroke="#000000" d="M116.5,-68C116.5,-68 18.5,-68 18.5,-68 12.5,-68 6.5,-62 6.5,-56 6.5,-56 6.5,-12 6.5,-12 6.5,-6 12.5,0 18.5,0 18.5,0 116.5,0 116.5,0 122.5,0 128.5,-6 128.5,-12 128.5,-12 128.5,-56 128.5,-56 128.5,-62 122.5,-68 116.5,-68"/>
<text text-anchor="start" x="38" y="-52.8" font-family="Helvetica,sans-Serif" font-size="14.00" fill="#000000">gini = 0.0</text>
<text text-anchor="start" x="28" y="-37.8" font-family="Helvetica,sans-Serif" font-size="14.00" fill="#000000">samples = 1</text>
<text text-anchor="start" x="18" y="-22.8" font-family="Helvetica,sans-Serif" font-size="14.00" fill="#000000">value = [0, 1, 0]</text>
<text text-anchor="start" x="14.5" y="-7.8" font-family="Helvetica,sans-Serif" font-size="14.00" fill="#000000">class = Virginica</text>
</g>
<!-- 5&#45;&gt;6 -->
<g id="edge6" class="edge">
<title>5&#45;&gt;6</title>
<path fill="none" stroke="#000000" d="M157.2521,-103.9815C144.8756,-94.3313 131.7172,-84.0714 119.3997,-74.4673"/>
<polygon fill="#000000" stroke="#000000" points="121.4818,-71.6525 111.4435,-68.2637 117.1775,-77.1728 121.4818,-71.6525"/>
</g>
<!-- 7 -->
<g id="node8" class="node">
<title>7</title>
<path fill="#8139e5" stroke="#000000" d="M264.5,-68C264.5,-68 158.5,-68 158.5,-68 152.5,-68 146.5,-62 146.5,-56 146.5,-56 146.5,-12 146.5,-12 146.5,-6 152.5,0 158.5,0 158.5,0 264.5,0 264.5,0 270.5,0 276.5,-6 276.5,-12 276.5,-12 276.5,-56 276.5,-56 276.5,-62 270.5,-68 264.5,-68"/>
<text text-anchor="start" x="182" y="-52.8" font-family="Helvetica,sans-Serif" font-size="14.00" fill="#000000">gini = 0.0</text>
<text text-anchor="start" x="172" y="-37.8" font-family="Helvetica,sans-Serif" font-size="14.00" fill="#000000">samples = 3</text>
<text text-anchor="start" x="162" y="-22.8" font-family="Helvetica,sans-Serif" font-size="14.00" fill="#000000">value = [0, 0, 3]</text>
<text text-anchor="start" x="154.5" y="-7.8" font-family="Helvetica,sans-Serif" font-size="14.00" fill="#000000">class = Versicolor</text>
</g>
<!-- 5&#45;&gt;7 -->
<g id="edge7" class="edge">
<title>5&#45;&gt;7</title>
<path fill="none" stroke="#000000" d="M210.8724,-103.9815C210.9474,-95.618 211.0265,-86.7965 211.1023,-78.3409"/>
<polygon fill="#000000" stroke="#000000" points="214.6028,-78.2947 211.1927,-68.2637 207.6031,-78.2318 214.6028,-78.2947"/>
</g>
<!-- 9 -->
<g id="node10" class="node">
<title>9</title>
<path fill="#ab7bee" stroke="#000000" d="M416.5,-187C416.5,-187 310.5,-187 310.5,-187 304.5,-187 298.5,-181 298.5,-175 298.5,-175 298.5,-116 298.5,-116 298.5,-110 304.5,-104 310.5,-104 310.5,-104 416.5,-104 416.5,-104 422.5,-104 428.5,-110 428.5,-116 428.5,-116 428.5,-175 428.5,-175 428.5,-181 422.5,-187 416.5,-187"/>
<text text-anchor="start" x="309" y="-171.8" font-family="Helvetica,sans-Serif" font-size="14.00" fill="#000000">sepal.width ≤ 3.1</text>
<text text-anchor="start" x="325.5" y="-156.8" font-family="Helvetica,sans-Serif" font-size="14.00" fill="#000000">gini = 0.375</text>
<text text-anchor="start" x="324" y="-141.8" font-family="Helvetica,sans-Serif" font-size="14.00" fill="#000000">samples = 4</text>
<text text-anchor="start" x="314" y="-126.8" font-family="Helvetica,sans-Serif" font-size="14.00" fill="#000000">value = [0, 1, 3]</text>
<text text-anchor="start" x="306.5" y="-111.8" font-family="Helvetica,sans-Serif" font-size="14.00" fill="#000000">class = Versicolor</text>
</g>
<!-- 8&#45;&gt;9 -->
<g id="edge9" class="edge">
<title>8&#45;&gt;9</title>
<path fill="none" stroke="#000000" d="M363.5,-222.8796C363.5,-214.6838 363.5,-205.9891 363.5,-197.5013"/>
<polygon fill="#000000" stroke="#000000" points="367.0001,-197.298 363.5,-187.2981 360.0001,-197.2981 367.0001,-197.298"/>
</g>
<!-- 12 -->
<g id="node13" class="node">
<title>12</title>
<path fill="#8139e5" stroke="#000000" d="M564.5,-179.5C564.5,-179.5 458.5,-179.5 458.5,-179.5 452.5,-179.5 446.5,-173.5 446.5,-167.5 446.5,-167.5 446.5,-123.5 446.5,-123.5 446.5,-117.5 452.5,-111.5 458.5,-111.5 458.5,-111.5 564.5,-111.5 564.5,-111.5 570.5,-111.5 576.5,-117.5 576.5,-123.5 576.5,-123.5 576.5,-167.5 576.5,-167.5 576.5,-173.5 570.5,-179.5 564.5,-179.5"/>
<text text-anchor="start" x="482" y="-164.3" font-family="Helvetica,sans-Serif" font-size="14.00" fill="#000000">gini = 0.0</text>
<text text-anchor="start" x="467.5" y="-149.3" font-family="Helvetica,sans-Serif" font-size="14.00" fill="#000000">samples = 31</text>
<text text-anchor="start" x="458" y="-134.3" font-family="Helvetica,sans-Serif" font-size="14.00" fill="#000000">value = [0, 0, 31]</text>
<text text-anchor="start" x="454.5" y="-119.3" font-family="Helvetica,sans-Serif" font-size="14.00" fill="#000000">class = Versicolor</text>
</g>
<!-- 8&#45;&gt;12 -->
<g id="edge12" class="edge">
<title>8&#45;&gt;12</title>
<path fill="none" stroke="#000000" d="M415.2632,-222.8796C430.0331,-211.0038 446.1059,-198.0804 460.8108,-186.2568"/>
<polygon fill="#000000" stroke="#000000" points="463.2225,-188.8088 468.8226,-179.8149 458.8361,-183.3535 463.2225,-188.8088"/>
</g>
<!-- 10 -->
<g id="node11" class="node">
<title>10</title>
<path fill="#8139e5" stroke="#000000" d="M414.5,-68C414.5,-68 308.5,-68 308.5,-68 302.5,-68 296.5,-62 296.5,-56 296.5,-56 296.5,-12 296.5,-12 296.5,-6 302.5,0 308.5,0 308.5,0 414.5,0 414.5,0 420.5,0 426.5,-6 426.5,-12 426.5,-12 426.5,-56 426.5,-56 426.5,-62 420.5,-68 414.5,-68"/>
<text text-anchor="start" x="332" y="-52.8" font-family="Helvetica,sans-Serif" font-size="14.00" fill="#000000">gini = 0.0</text>
<text text-anchor="start" x="322" y="-37.8" font-family="Helvetica,sans-Serif" font-size="14.00" fill="#000000">samples = 3</text>
<text text-anchor="start" x="312" y="-22.8" font-family="Helvetica,sans-Serif" font-size="14.00" fill="#000000">value = [0, 0, 3]</text>
<text text-anchor="start" x="304.5" y="-7.8" font-family="Helvetica,sans-Serif" font-size="14.00" fill="#000000">class = Versicolor</text>
</g>
<!-- 9&#45;&gt;10 -->
<g id="edge10" class="edge">
<title>9&#45;&gt;10</title>
<path fill="none" stroke="#000000" d="M362.7553,-103.9815C362.6053,-95.618 362.447,-86.7965 362.2954,-78.3409"/>
<polygon fill="#000000" stroke="#000000" points="365.7935,-78.1993 362.1146,-68.2637 358.7946,-78.3249 365.7935,-78.1993"/>
</g>
<!-- 11 -->
<g id="node12" class="node">
<title>11</title>
<path fill="#39e581" stroke="#000000" d="M554.5,-68C554.5,-68 456.5,-68 456.5,-68 450.5,-68 444.5,-62 444.5,-56 444.5,-56 444.5,-12 444.5,-12 444.5,-6 450.5,0 456.5,0 456.5,0 554.5,0 554.5,0 560.5,0 566.5,-6 566.5,-12 566.5,-12 566.5,-56 566.5,-56 566.5,-62 560.5,-68 554.5,-68"/>
<text text-anchor="start" x="476" y="-52.8" font-family="Helvetica,sans-Serif" font-size="14.00" fill="#000000">gini = 0.0</text>
<text text-anchor="start" x="466" y="-37.8" font-family="Helvetica,sans-Serif" font-size="14.00" fill="#000000">samples = 1</text>
<text text-anchor="start" x="456" y="-22.8" font-family="Helvetica,sans-Serif" font-size="14.00" fill="#000000">value = [0, 1, 0]</text>
<text text-anchor="start" x="452.5" y="-7.8" font-family="Helvetica,sans-Serif" font-size="14.00" fill="#000000">class = Virginica</text>
</g>
<!-- 9&#45;&gt;11 -->
<g id="edge11" class="edge">
<title>9&#45;&gt;11</title>
<path fill="none" stroke="#000000" d="M416.3756,-103.9815C428.6655,-94.3313 441.7319,-84.0714 453.9632,-74.4673"/>
<polygon fill="#000000" stroke="#000000" points="456.1602,-77.1923 461.8638,-68.2637 451.8371,-71.6867 456.1602,-77.1923"/>
</g>
</g>
</svg>
