<?xml version="1.0" encoding="UTF-8" standalone="no"?>
<!DOCTYPE svg PUBLIC "-//W3C//DTD SVG 1.1//EN"
 "http://www.w3.org/Graphics/SVG/1.1/DTD/svg11.dtd">
<!-- Generated by graphviz version 2.40.1 (20161225.0304)
 -->
<!-- Title: Tree Pages: 1 -->
<svg width="883pt" height="671pt"
 viewBox="0.00 0.00 882.50 671.00" xmlns="http://www.w3.org/2000/svg" xmlns:xlink="http://www.w3.org/1999/xlink">
<g id="graph0" class="graph" transform="scale(1 1) rotate(0) translate(4 667)">
<title>Tree</title>
<polygon fill="#ffffff" stroke="transparent" points="-4,4 -4,-667 878.5,-667 878.5,4 -4,4"/>
<!-- 0 -->
<g id="node1" class="node">
<title>0</title>
<path fill="#ffffff" stroke="#000000" d="M564.5,-663C564.5,-663 448.5,-663 448.5,-663 442.5,-663 436.5,-657 436.5,-651 436.5,-651 436.5,-592 436.5,-592 436.5,-586 442.5,-580 448.5,-580 448.5,-580 564.5,-580 564.5,-580 570.5,-580 576.5,-586 576.5,-592 576.5,-592 576.5,-651 576.5,-651 576.5,-657 570.5,-663 564.5,-663"/>
<text text-anchor="start" x="454" y="-647.8" font-family="Helvetica,sans-Serif" font-size="14.00" fill="#000000">petal.width ≤ 0.8</text>
<text text-anchor="start" x="455.5" y="-632.8" font-family="Helvetica,sans-Serif" font-size="14.00" fill="#000000">entropy = 1.585</text>
<text text-anchor="start" x="458.5" y="-617.8" font-family="Helvetica,sans-Serif" font-size="14.00" fill="#000000">samples = 149</text>
<text text-anchor="start" x="444.5" y="-602.8" font-family="Helvetica,sans-Serif" font-size="14.00" fill="#000000">value = [49, 50, 50]</text>
<text text-anchor="start" x="453.5" y="-587.8" font-family="Helvetica,sans-Serif" font-size="14.00" fill="#000000">class = Virginica</text>
</g>
<!-- 1 -->
<g id="node2" class="node">
<title>1</title>
<path fill="#e58139" stroke="#000000" d="M484,-536.5C484,-536.5 385,-536.5 385,-536.5 379,-536.5 373,-530.5 373,-524.5 373,-524.5 373,-480.5 373,-480.5 373,-474.5 379,-468.5 385,-468.5 385,-468.5 484,-468.5 484,-468.5 490,-468.5 496,-474.5 496,-480.5 496,-480.5 496,-524.5 496,-524.5 496,-530.5 490,-536.5 484,-536.5"/>
<text text-anchor="start" x="392" y="-521.3" font-family="Helvetica,sans-Serif" font-size="14.00" fill="#000000">entropy = 0.0</text>
<text text-anchor="start" x="390.5" y="-506.3" font-family="Helvetica,sans-Serif" font-size="14.00" fill="#000000">samples = 49</text>
<text text-anchor="start" x="381" y="-491.3" font-family="Helvetica,sans-Serif" font-size="14.00" fill="#000000">value = [49, 0, 0]</text>
<text text-anchor="start" x="386.5" y="-476.3" font-family="Helvetica,sans-Serif" font-size="14.00" fill="#000000">class = Setosa</text>
</g>
<!-- 0&#45;&gt;1 -->
<g id="edge1" class="edge">
<title>0&#45;&gt;1</title>
<path fill="none" stroke="#000000" d="M481.3179,-579.8796C474.5983,-568.7735 467.3243,-556.7513 460.5586,-545.5691"/>
<polygon fill="#000000" stroke="#000000" points="463.4332,-543.5589 455.262,-536.8149 457.4441,-547.1826 463.4332,-543.5589"/>
<text text-anchor="middle" x="449.2883" y="-557.3908" font-family="Helvetica,sans-Serif" font-size="14.00" fill="#000000">True</text>
</g>
<!-- 2 -->
<g id="node3" class="node">
<title>2</title>
<path fill="#ffffff" stroke="#000000" d="M633,-544C633,-544 526,-544 526,-544 520,-544 514,-538 514,-532 514,-532 514,-473 514,-473 514,-467 520,-461 526,-461 526,-461 633,-461 633,-461 639,-461 645,-467 645,-473 645,-473 645,-532 645,-532 645,-538 639,-544 633,-544"/>
<text text-anchor="start" x="523" y="-528.8" font-family="Helvetica,sans-Serif" font-size="14.00" fill="#000000">petal.width ≤ 1.75</text>
<text text-anchor="start" x="537" y="-513.8" font-family="Helvetica,sans-Serif" font-size="14.00" fill="#000000">entropy = 1.0</text>
<text text-anchor="start" x="531.5" y="-498.8" font-family="Helvetica,sans-Serif" font-size="14.00" fill="#000000">samples = 100</text>
<text text-anchor="start" x="522" y="-483.8" font-family="Helvetica,sans-Serif" font-size="14.00" fill="#000000">value = [0, 50, 50]</text>
<text text-anchor="start" x="526.5" y="-468.8" font-family="Helvetica,sans-Serif" font-size="14.00" fill="#000000">class = Virginica</text>
</g>
<!-- 0&#45;&gt;2 -->
<g id="edge2" class="edge">
<title>0&#45;&gt;2</title>
<path fill="none" stroke="#000000" d="M532.0319,-579.8796C537.391,-571.1434 543.0979,-561.8404 548.6282,-552.8253"/>
<polygon fill="#000000" stroke="#000000" points="551.6135,-554.6522 553.8592,-544.2981 545.6467,-550.9919 551.6135,-554.6522"/>
<text text-anchor="middle" x="559.6839" y="-564.9101" font-family="Helvetica,sans-Serif" font-size="14.00" fill="#000000">False</text>
</g>
<!-- 3 -->
<g id="node4" class="node">
<title>3</title>
<path fill="#4de88e" stroke="#000000" d="M484,-425C484,-425 373,-425 373,-425 367,-425 361,-419 361,-413 361,-413 361,-354 361,-354 361,-348 367,-342 373,-342 373,-342 484,-342 484,-342 490,-342 496,-348 496,-354 496,-354 496,-413 496,-413 496,-419 490,-425 484,-425"/>
<text text-anchor="start" x="369" y="-409.8" font-family="Helvetica,sans-Serif" font-size="14.00" fill="#000000">petal.length ≤ 4.95</text>
<text text-anchor="start" x="377.5" y="-394.8" font-family="Helvetica,sans-Serif" font-size="14.00" fill="#000000">entropy = 0.445</text>
<text text-anchor="start" x="384.5" y="-379.8" font-family="Helvetica,sans-Serif" font-size="14.00" fill="#000000">samples = 54</text>
<text text-anchor="start" x="375" y="-364.8" font-family="Helvetica,sans-Serif" font-size="14.00" fill="#000000">value = [0, 49, 5]</text>
<text text-anchor="start" x="375.5" y="-349.8" font-family="Helvetica,sans-Serif" font-size="14.00" fill="#000000">class = Virginica</text>
</g>
<!-- 2&#45;&gt;3 -->
<g id="edge3" class="edge">
<title>2&#45;&gt;3</title>
<path fill="none" stroke="#000000" d="M526.6875,-460.8796C514.6182,-451.368 501.6961,-441.1843 489.3212,-431.432"/>
<polygon fill="#000000" stroke="#000000" points="491.3032,-428.5377 481.2827,-425.0969 486.9704,-434.0356 491.3032,-428.5377"/>
</g>
<!-- 12 -->
<g id="node13" class="node">
<title>12</title>
<path fill="#843de6" stroke="#000000" d="M712,-425C712,-425 601,-425 601,-425 595,-425 589,-419 589,-413 589,-413 589,-354 589,-354 589,-348 595,-342 601,-342 601,-342 712,-342 712,-342 718,-342 724,-348 724,-354 724,-354 724,-413 724,-413 724,-419 718,-425 712,-425"/>
<text text-anchor="start" x="597" y="-409.8" font-family="Helvetica,sans-Serif" font-size="14.00" fill="#000000">petal.length ≤ 4.85</text>
<text text-anchor="start" x="605.5" y="-394.8" font-family="Helvetica,sans-Serif" font-size="14.00" fill="#000000">entropy = 0.151</text>
<text text-anchor="start" x="612.5" y="-379.8" font-family="Helvetica,sans-Serif" font-size="14.00" fill="#000000">samples = 46</text>
<text text-anchor="start" x="603" y="-364.8" font-family="Helvetica,sans-Serif" font-size="14.00" fill="#000000">value = [0, 1, 45]</text>
<text text-anchor="start" x="599.5" y="-349.8" font-family="Helvetica,sans-Serif" font-size="14.00" fill="#000000">class = Versicolor</text>
</g>
<!-- 2&#45;&gt;12 -->
<g id="edge12" class="edge">
<title>2&#45;&gt;12</title>
<path fill="none" stroke="#000000" d="M606.4309,-460.8796C612.0837,-452.1434 618.1033,-442.8404 623.9366,-433.8253"/>
<polygon fill="#000000" stroke="#000000" points="626.9601,-435.5952 629.4542,-425.2981 621.0831,-431.7924 626.9601,-435.5952"/>
</g>
<!-- 4 -->
<g id="node5" class="node">
<title>4</title>
<path fill="#3de684" stroke="#000000" d="M259,-306C259,-306 154,-306 154,-306 148,-306 142,-300 142,-294 142,-294 142,-235 142,-235 142,-229 148,-223 154,-223 154,-223 259,-223 259,-223 265,-223 271,-229 271,-235 271,-235 271,-294 271,-294 271,-300 265,-306 259,-306"/>
<text text-anchor="start" x="150" y="-290.8" font-family="Helvetica,sans-Serif" font-size="14.00" fill="#000000">petal.width ≤ 1.65</text>
<text text-anchor="start" x="155.5" y="-275.8" font-family="Helvetica,sans-Serif" font-size="14.00" fill="#000000">entropy = 0.146</text>
<text text-anchor="start" x="162.5" y="-260.8" font-family="Helvetica,sans-Serif" font-size="14.00" fill="#000000">samples = 48</text>
<text text-anchor="start" x="153" y="-245.8" font-family="Helvetica,sans-Serif" font-size="14.00" fill="#000000">value = [0, 47, 1]</text>
<text text-anchor="start" x="153.5" y="-230.8" font-family="Helvetica,sans-Serif" font-size="14.00" fill="#000000">class = Virginica</text>
</g>
<!-- 3&#45;&gt;4 -->
<g id="edge4" class="edge">
<title>3&#45;&gt;4</title>
<path fill="none" stroke="#000000" d="M360.9885,-347.3114C335.4275,-333.6098 306.2119,-317.9492 280.1172,-303.9615"/>
<polygon fill="#000000" stroke="#000000" points="281.4956,-300.7293 271.0285,-299.0896 278.1885,-306.8988 281.4956,-300.7293"/>
</g>
<!-- 7 -->
<g id="node8" class="node">
<title>7</title>
<path fill="#c09cf2" stroke="#000000" d="M481.5,-306C481.5,-306 375.5,-306 375.5,-306 369.5,-306 363.5,-300 363.5,-294 363.5,-294 363.5,-235 363.5,-235 363.5,-229 369.5,-223 375.5,-223 375.5,-223 481.5,-223 481.5,-223 487.5,-223 493.5,-229 493.5,-235 493.5,-235 493.5,-294 493.5,-294 493.5,-300 487.5,-306 481.5,-306"/>
<text text-anchor="start" x="372" y="-290.8" font-family="Helvetica,sans-Serif" font-size="14.00" fill="#000000">petal.width ≤ 1.55</text>
<text text-anchor="start" x="377.5" y="-275.8" font-family="Helvetica,sans-Serif" font-size="14.00" fill="#000000">entropy = 0.918</text>
<text text-anchor="start" x="389" y="-260.8" font-family="Helvetica,sans-Serif" font-size="14.00" fill="#000000">samples = 6</text>
<text text-anchor="start" x="379" y="-245.8" font-family="Helvetica,sans-Serif" font-size="14.00" fill="#000000">value = [0, 2, 4]</text>
<text text-anchor="start" x="371.5" y="-230.8" font-family="Helvetica,sans-Serif" font-size="14.00" fill="#000000">class = Versicolor</text>
</g>
<!-- 3&#45;&gt;7 -->
<g id="edge7" class="edge">
<title>3&#45;&gt;7</title>
<path fill="none" stroke="#000000" d="M428.5,-341.8796C428.5,-333.6838 428.5,-324.9891 428.5,-316.5013"/>
<polygon fill="#000000" stroke="#000000" points="432.0001,-316.298 428.5,-306.2981 425.0001,-316.2981 432.0001,-316.298"/>
</g>
<!-- 5 -->
<g id="node6" class="node">
<title>5</title>
<path fill="#39e581" stroke="#000000" d="M111,-179.5C111,-179.5 12,-179.5 12,-179.5 6,-179.5 0,-173.5 0,-167.5 0,-167.5 0,-123.5 0,-123.5 0,-117.5 6,-111.5 12,-111.5 12,-111.5 111,-111.5 111,-111.5 117,-111.5 123,-117.5 123,-123.5 123,-123.5 123,-167.5 123,-167.5 123,-173.5 117,-179.5 111,-179.5"/>
<text text-anchor="start" x="19" y="-164.3" font-family="Helvetica,sans-Serif" font-size="14.00" fill="#000000">entropy = 0.0</text>
<text text-anchor="start" x="17.5" y="-149.3" font-family="Helvetica,sans-Serif" font-size="14.00" fill="#000000">samples = 47</text>
<text text-anchor="start" x="8" y="-134.3" font-family="Helvetica,sans-Serif" font-size="14.00" fill="#000000">value = [0, 47, 0]</text>
<text text-anchor="start" x="8.5" y="-119.3" font-family="Helvetica,sans-Serif" font-size="14.00" fill="#000000">class = Virginica</text>
</g>
<!-- 4&#45;&gt;5 -->
<g id="edge5" class="edge">
<title>4&#45;&gt;5</title>
<path fill="none" stroke="#000000" d="M155.786,-222.8796C141.3156,-211.0038 125.5686,-198.0804 111.1617,-186.2568"/>
<polygon fill="#000000" stroke="#000000" points="113.2628,-183.4534 103.3123,-179.8149 108.822,-188.8645 113.2628,-183.4534"/>
</g>
<!-- 6 -->
<g id="node7" class="node">
<title>6</title>
<path fill="#8139e5" stroke="#000000" d="M259.5,-179.5C259.5,-179.5 153.5,-179.5 153.5,-179.5 147.5,-179.5 141.5,-173.5 141.5,-167.5 141.5,-167.5 141.5,-123.5 141.5,-123.5 141.5,-117.5 147.5,-111.5 153.5,-111.5 153.5,-111.5 259.5,-111.5 259.5,-111.5 265.5,-111.5 271.5,-117.5 271.5,-123.5 271.5,-123.5 271.5,-167.5 271.5,-167.5 271.5,-173.5 265.5,-179.5 259.5,-179.5"/>
<text text-anchor="start" x="164" y="-164.3" font-family="Helvetica,sans-Serif" font-size="14.00" fill="#000000">entropy = 0.0</text>
<text text-anchor="start" x="167" y="-149.3" font-family="Helvetica,sans-Serif" font-size="14.00" fill="#000000">samples = 1</text>
<text text-anchor="start" x="157" y="-134.3" font-family="Helvetica,sans-Serif" font-size="14.00" fill="#000000">value = [0, 0, 1]</text>
<text text-anchor="start" x="149.5" y="-119.3" font-family="Helvetica,sans-Serif" font-size="14.00" fill="#000000">class = Versicolor</text>
</g>
<!-- 4&#45;&gt;6 -->
<g id="edge6" class="edge">
<title>4&#45;&gt;6</title>
<path fill="none" stroke="#000000" d="M206.5,-222.8796C206.5,-212.2134 206.5,-200.7021 206.5,-189.9015"/>
<polygon fill="#000000" stroke="#000000" points="210.0001,-189.8149 206.5,-179.8149 203.0001,-189.815 210.0001,-189.8149"/>
</g>
<!-- 8 -->
<g id="node9" class="node">
<title>8</title>
<path fill="#8139e5" stroke="#000000" d="M407.5,-179.5C407.5,-179.5 301.5,-179.5 301.5,-179.5 295.5,-179.5 289.5,-173.5 289.5,-167.5 289.5,-167.5 289.5,-123.5 289.5,-123.5 289.5,-117.5 295.5,-111.5 301.5,-111.5 301.5,-111.5 407.5,-111.5 407.5,-111.5 413.5,-111.5 419.5,-117.5 419.5,-123.5 419.5,-123.5 419.5,-167.5 419.5,-167.5 419.5,-173.5 413.5,-179.5 407.5,-179.5"/>
<text text-anchor="start" x="312" y="-164.3" font-family="Helvetica,sans-Serif" font-size="14.00" fill="#000000">entropy = 0.0</text>
<text text-anchor="start" x="315" y="-149.3" font-family="Helvetica,sans-Serif" font-size="14.00" fill="#000000">samples = 3</text>
<text text-anchor="start" x="305" y="-134.3" font-family="Helvetica,sans-Serif" font-size="14.00" fill="#000000">value = [0, 0, 3]</text>
<text text-anchor="start" x="297.5" y="-119.3" font-family="Helvetica,sans-Serif" font-size="14.00" fill="#000000">class = Versicolor</text>
</g>
<!-- 7&#45;&gt;8 -->
<g id="edge8" class="edge">
<title>7&#45;&gt;8</title>
<path fill="none" stroke="#000000" d="M402.6184,-222.8796C395.7121,-211.7735 388.2361,-199.7513 381.2825,-188.5691"/>
<polygon fill="#000000" stroke="#000000" points="384.0917,-186.4587 375.8387,-179.8149 378.1473,-190.1552 384.0917,-186.4587"/>
</g>
<!-- 9 -->
<g id="node10" class="node">
<title>9</title>
<path fill="#9cf2c0" stroke="#000000" d="M565,-187C565,-187 450,-187 450,-187 444,-187 438,-181 438,-175 438,-175 438,-116 438,-116 438,-110 444,-104 450,-104 450,-104 565,-104 565,-104 571,-104 577,-110 577,-116 577,-116 577,-175 577,-175 577,-181 571,-187 565,-187"/>
<text text-anchor="start" x="446" y="-171.8" font-family="Helvetica,sans-Serif" font-size="14.00" fill="#000000">sepal.length ≤ 6.95</text>
<text text-anchor="start" x="456.5" y="-156.8" font-family="Helvetica,sans-Serif" font-size="14.00" fill="#000000">entropy = 0.918</text>
<text text-anchor="start" x="468" y="-141.8" font-family="Helvetica,sans-Serif" font-size="14.00" fill="#000000">samples = 3</text>
<text text-anchor="start" x="458" y="-126.8" font-family="Helvetica,sans-Serif" font-size="14.00" fill="#000000">value = [0, 2, 1]</text>
<text text-anchor="start" x="454.5" y="-111.8" font-family="Helvetica,sans-Serif" font-size="14.00" fill="#000000">class = Virginica</text>
</g>
<!-- 7&#45;&gt;9 -->
<g id="edge9" class="edge">
<title>7&#45;&gt;9</title>
<path fill="none" stroke="#000000" d="M456.1304,-222.8796C461.93,-214.1434 468.1059,-204.8404 474.0908,-195.8253"/>
<polygon fill="#000000" stroke="#000000" points="477.1368,-197.5652 479.7517,-187.2981 471.3049,-193.6935 477.1368,-197.5652"/>
</g>
<!-- 10 -->
<g id="node11" class="node">
<title>10</title>
<path fill="#39e581" stroke="#000000" d="M484.5,-68C484.5,-68 386.5,-68 386.5,-68 380.5,-68 374.5,-62 374.5,-56 374.5,-56 374.5,-12 374.5,-12 374.5,-6 380.5,0 386.5,0 386.5,0 484.5,0 484.5,0 490.5,0 496.5,-6 496.5,-12 496.5,-12 496.5,-56 496.5,-56 496.5,-62 490.5,-68 484.5,-68"/>
<text text-anchor="start" x="393" y="-52.8" font-family="Helvetica,sans-Serif" font-size="14.00" fill="#000000">entropy = 0.0</text>
<text text-anchor="start" x="396" y="-37.8" font-family="Helvetica,sans-Serif" font-size="14.00" fill="#000000">samples = 2</text>
<text text-anchor="start" x="386" y="-22.8" font-family="Helvetica,sans-Serif" font-size="14.00" fill="#000000">value = [0, 2, 0]</text>
<text text-anchor="start" x="382.5" y="-7.8" font-family="Helvetica,sans-Serif" font-size="14.00" fill="#000000">class = Virginica</text>
</g>
<!-- 9&#45;&gt;10 -->
<g id="edge10" class="edge">
<title>9&#45;&gt;10</title>
<path fill="none" stroke="#000000" d="M480.6899,-103.9815C474.9331,-95.0666 468.8404,-85.6313 463.0559,-76.6734"/>
<polygon fill="#000000" stroke="#000000" points="465.9904,-74.7658 457.6254,-68.2637 460.1099,-78.5631 465.9904,-74.7658"/>
</g>
<!-- 11 -->
<g id="node12" class="node">
<title>11</title>
<path fill="#8139e5" stroke="#000000" d="M632.5,-68C632.5,-68 526.5,-68 526.5,-68 520.5,-68 514.5,-62 514.5,-56 514.5,-56 514.5,-12 514.5,-12 514.5,-6 520.5,0 526.5,0 526.5,0 632.5,0 632.5,0 638.5,0 644.5,-6 644.5,-12 644.5,-12 644.5,-56 644.5,-56 644.5,-62 638.5,-68 632.5,-68"/>
<text text-anchor="start" x="537" y="-52.8" font-family="Helvetica,sans-Serif" font-size="14.00" fill="#000000">entropy = 0.0</text>
<text text-anchor="start" x="540" y="-37.8" font-family="Helvetica,sans-Serif" font-size="14.00" fill="#000000">samples = 1</text>
<text text-anchor="start" x="530" y="-22.8" font-family="Helvetica,sans-Serif" font-size="14.00" fill="#000000">value = [0, 0, 1]</text>
<text text-anchor="start" x="522.5" y="-7.8" font-family="Helvetica,sans-Serif" font-size="14.00" fill="#000000">class = Versicolor</text>
</g>
<!-- 9&#45;&gt;11 -->
<g id="edge11" class="edge">
<title>9&#45;&gt;11</title>
<path fill="none" stroke="#000000" d="M534.3101,-103.9815C540.0669,-95.0666 546.1596,-85.6313 551.9441,-76.6734"/>
<polygon fill="#000000" stroke="#000000" points="554.8901,-78.5631 557.3746,-68.2637 549.0096,-74.7658 554.8901,-78.5631"/>
</g>
<!-- 13 -->
<g id="node14" class="node">
<title>13</title>
<path fill="#c09cf2" stroke="#000000" d="M714,-306C714,-306 599,-306 599,-306 593,-306 587,-300 587,-294 587,-294 587,-235 587,-235 587,-229 593,-223 599,-223 599,-223 714,-223 714,-223 720,-223 726,-229 726,-235 726,-235 726,-294 726,-294 726,-300 720,-306 714,-306"/>
<text text-anchor="start" x="595" y="-290.8" font-family="Helvetica,sans-Serif" font-size="14.00" fill="#000000">sepal.length ≤ 5.95</text>
<text text-anchor="start" x="605.5" y="-275.8" font-family="Helvetica,sans-Serif" font-size="14.00" fill="#000000">entropy = 0.918</text>
<text text-anchor="start" x="617" y="-260.8" font-family="Helvetica,sans-Serif" font-size="14.00" fill="#000000">samples = 3</text>
<text text-anchor="start" x="607" y="-245.8" font-family="Helvetica,sans-Serif" font-size="14.00" fill="#000000">value = [0, 1, 2]</text>
<text text-anchor="start" x="599.5" y="-230.8" font-family="Helvetica,sans-Serif" font-size="14.00" fill="#000000">class = Versicolor</text>
</g>
<!-- 12&#45;&gt;13 -->
<g id="edge13" class="edge">
<title>12&#45;&gt;13</title>
<path fill="none" stroke="#000000" d="M656.5,-341.8796C656.5,-333.6838 656.5,-324.9891 656.5,-316.5013"/>
<polygon fill="#000000" stroke="#000000" points="660.0001,-316.298 656.5,-306.2981 653.0001,-316.2981 660.0001,-316.298"/>
</g>
<!-- 16 -->
<g id="node17" class="node">
<title>16</title>
<path fill="#8139e5" stroke="#000000" d="M862.5,-298.5C862.5,-298.5 756.5,-298.5 756.5,-298.5 750.5,-298.5 744.5,-292.5 744.5,-286.5 744.5,-286.5 744.5,-242.5 744.5,-242.5 744.5,-236.5 750.5,-230.5 756.5,-230.5 756.5,-230.5 862.5,-230.5 862.5,-230.5 868.5,-230.5 874.5,-236.5 874.5,-242.5 874.5,-242.5 874.5,-286.5 874.5,-286.5 874.5,-292.5 868.5,-298.5 862.5,-298.5"/>
<text text-anchor="start" x="767" y="-283.3" font-family="Helvetica,sans-Serif" font-size="14.00" fill="#000000">entropy = 0.0</text>
<text text-anchor="start" x="765.5" y="-268.3" font-family="Helvetica,sans-Serif" font-size="14.00" fill="#000000">samples = 43</text>
<text text-anchor="start" x="756" y="-253.3" font-family="Helvetica,sans-Serif" font-size="14.00" fill="#000000">value = [0, 0, 43]</text>
<text text-anchor="start" x="752.5" y="-238.3" font-family="Helvetica,sans-Serif" font-size="14.00" fill="#000000">class = Versicolor</text>
</g>
<!-- 12&#45;&gt;16 -->
<g id="edge16" class="edge">
<title>12&#45;&gt;16</title>
<path fill="none" stroke="#000000" d="M710.012,-341.8796C725.2808,-330.0038 741.8966,-317.0804 757.0984,-305.2568"/>
<polygon fill="#000000" stroke="#000000" points="759.6361,-307.7171 765.3808,-298.8149 755.3384,-302.1916 759.6361,-307.7171"/>
</g>
<!-- 14 -->
<g id="node15" class="node">
<title>14</title>
<path fill="#39e581" stroke="#000000" d="M705.5,-179.5C705.5,-179.5 607.5,-179.5 607.5,-179.5 601.5,-179.5 595.5,-173.5 595.5,-167.5 595.5,-167.5 595.5,-123.5 595.5,-123.5 595.5,-117.5 601.5,-111.5 607.5,-111.5 607.5,-111.5 705.5,-111.5 705.5,-111.5 711.5,-111.5 717.5,-117.5 717.5,-123.5 717.5,-123.5 717.5,-167.5 717.5,-167.5 717.5,-173.5 711.5,-179.5 705.5,-179.5"/>
<text text-anchor="start" x="614" y="-164.3" font-family="Helvetica,sans-Serif" font-size="14.00" fill="#000000">entropy = 0.0</text>
<text text-anchor="start" x="617" y="-149.3" font-family="Helvetica,sans-Serif" font-size="14.00" fill="#000000">samples = 1</text>
<text text-anchor="start" x="607" y="-134.3" font-family="Helvetica,sans-Serif" font-size="14.00" fill="#000000">value = [0, 1, 0]</text>
<text text-anchor="start" x="603.5" y="-119.3" font-family="Helvetica,sans-Serif" font-size="14.00" fill="#000000">class = Virginica</text>
</g>
<!-- 13&#45;&gt;14 -->
<g id="edge14" class="edge">
<title>13&#45;&gt;14</title>
<path fill="none" stroke="#000000" d="M656.5,-222.8796C656.5,-212.2134 656.5,-200.7021 656.5,-189.9015"/>
<polygon fill="#000000" stroke="#000000" points="660.0001,-189.8149 656.5,-179.8149 653.0001,-189.815 660.0001,-189.8149"/>
</g>
<!-- 15 -->
<g id="node16" class="node">
<title>15</title>
<path fill="#8139e5" stroke="#000000" d="M853.5,-179.5C853.5,-179.5 747.5,-179.5 747.5,-179.5 741.5,-179.5 735.5,-173.5 735.5,-167.5 735.5,-167.5 735.5,-123.5 735.5,-123.5 735.5,-117.5 741.5,-111.5 747.5,-111.5 747.5,-111.5 853.5,-111.5 853.5,-111.5 859.5,-111.5 865.5,-117.5 865.5,-123.5 865.5,-123.5 865.5,-167.5 865.5,-167.5 865.5,-173.5 859.5,-179.5 853.5,-179.5"/>
<text text-anchor="start" x="758" y="-164.3" font-family="Helvetica,sans-Serif" font-size="14.00" fill="#000000">entropy = 0.0</text>
<text text-anchor="start" x="761" y="-149.3" font-family="Helvetica,sans-Serif" font-size="14.00" fill="#000000">samples = 2</text>
<text text-anchor="start" x="751" y="-134.3" font-family="Helvetica,sans-Serif" font-size="14.00" fill="#000000">value = [0, 0, 2]</text>
<text text-anchor="start" x="743.5" y="-119.3" font-family="Helvetica,sans-Serif" font-size="14.00" fill="#000000">class = Versicolor</text>
</g>
<!-- 13&#45;&gt;15 -->
<g id="edge15" class="edge">
<title>13&#45;&gt;15</title>
<path fill="none" stroke="#000000" d="M706.8642,-222.8796C721.2349,-211.0038 736.8733,-198.0804 751.1808,-186.2568"/>
<polygon fill="#000000" stroke="#000000" points="753.4971,-188.8831 758.976,-179.8149 749.038,-183.4872 753.4971,-188.8831"/>
</g>
</g>
</svg>
