<?xml version="1.0" encoding="UTF-8" standalone="no"?>
<!DOCTYPE svg PUBLIC "-//W3C//DTD SVG 1.1//EN"
 "http://www.w3.org/Graphics/SVG/1.1/DTD/svg11.dtd">
<!-- Generated by graphviz version 2.40.1 (20161225.0304)
 -->
<!-- Title: Tree Pages: 1 -->
<svg width="879pt" height="671pt"
 viewBox="0.00 0.00 878.50 671.00" xmlns="http://www.w3.org/2000/svg" xmlns:xlink="http://www.w3.org/1999/xlink">
<g id="graph0" class="graph" transform="scale(1 1) rotate(0) translate(4 667)">
<title>Tree</title>
<polygon fill="#ffffff" stroke="transparent" points="-4,4 -4,-667 874.5,-667 874.5,4 -4,4"/>
<!-- 0 -->
<g id="node1" class="node">
<title>0</title>
<path fill="#ffffff" stroke="#000000" d="M560.5,-663C560.5,-663 444.5,-663 444.5,-663 438.5,-663 432.5,-657 432.5,-651 432.5,-651 432.5,-592 432.5,-592 432.5,-586 438.5,-580 444.5,-580 444.5,-580 560.5,-580 560.5,-580 566.5,-580 572.5,-586 572.5,-592 572.5,-592 572.5,-651 572.5,-651 572.5,-657 566.5,-663 560.5,-663"/>
<text text-anchor="start" x="450" y="-647.8" font-family="Helvetica,sans-Serif" font-size="14.00" fill="#000000">petal.width ≤ 0.8</text>
<text text-anchor="start" x="451.5" y="-632.8" font-family="Helvetica,sans-Serif" font-size="14.00" fill="#000000">entropy = 1.585</text>
<text text-anchor="start" x="454.5" y="-617.8" font-family="Helvetica,sans-Serif" font-size="14.00" fill="#000000">samples = 149</text>
<text text-anchor="start" x="440.5" y="-602.8" font-family="Helvetica,sans-Serif" font-size="14.00" fill="#000000">value = [49, 50, 50]</text>
<text text-anchor="start" x="449.5" y="-587.8" font-family="Helvetica,sans-Serif" font-size="14.00" fill="#000000">class = Virginica</text>
</g>
<!-- 1 -->
<g id="node2" class="node">
<title>1</title>
<path fill="#e58139" stroke="#000000" d="M480,-536.5C480,-536.5 381,-536.5 381,-536.5 375,-536.5 369,-530.5 369,-524.5 369,-524.5 369,-480.5 369,-480.5 369,-474.5 375,-468.5 381,-468.5 381,-468.5 480,-468.5 480,-468.5 486,-468.5 492,-474.5 492,-480.5 492,-480.5 492,-524.5 492,-524.5 492,-530.5 486,-536.5 480,-536.5"/>
<text text-anchor="start" x="388" y="-521.3" font-family="Helvetica,sans-Serif" font-size="14.00" fill="#000000">entropy = 0.0</text>
<text text-anchor="start" x="386.5" y="-506.3" font-family="Helvetica,sans-Serif" font-size="14.00" fill="#000000">samples = 49</text>
<text text-anchor="start" x="377" y="-491.3" font-family="Helvetica,sans-Serif" font-size="14.00" fill="#000000">value = [49, 0, 0]</text>
<text text-anchor="start" x="382.5" y="-476.3" font-family="Helvetica,sans-Serif" font-size="14.00" fill="#000000">class = Setosa</text>
</g>
<!-- 0&#45;&gt;1 -->
<g id="edge1" class="edge">
<title>0&#45;&gt;1</title>
<path fill="none" stroke="#000000" d="M477.3179,-579.8796C470.5983,-568.7735 463.3243,-556.7513 456.5586,-545.5691"/>
<polygon fill="#000000" stroke="#000000" points="459.4332,-543.5589 451.262,-536.8149 453.4441,-547.1826 459.4332,-543.5589"/>
<text text-anchor="middle" x="445.2883" y="-557.3908" font-family="Helvetica,sans-Serif" font-size="14.00" fill="#000000">True</text>
</g>
<!-- 2 -->
<g id="node3" class="node">
<title>2</title>
<path fill="#ffffff" stroke="#000000" d="M629,-544C629,-544 522,-544 522,-544 516,-544 510,-538 510,-532 510,-532 510,-473 510,-473 510,-467 516,-461 522,-461 522,-461 629,-461 629,-461 635,-461 641,-467 641,-473 641,-473 641,-532 641,-532 641,-538 635,-544 629,-544"/>
<text text-anchor="start" x="519" y="-528.8" font-family="Helvetica,sans-Serif" font-size="14.00" fill="#000000">petal.width ≤ 1.75</text>
<text text-anchor="start" x="533" y="-513.8" font-family="Helvetica,sans-Serif" font-size="14.00" fill="#000000">entropy = 1.0</text>
<text text-anchor="start" x="527.5" y="-498.8" font-family="Helvetica,sans-Serif" font-size="14.00" fill="#000000">samples = 100</text>
<text text-anchor="start" x="518" y="-483.8" font-family="Helvetica,sans-Serif" font-size="14.00" fill="#000000">value = [0, 50, 50]</text>
<text text-anchor="start" x="522.5" y="-468.8" font-family="Helvetica,sans-Serif" font-size="14.00" fill="#000000">class = Virginica</text>
</g>
<!-- 0&#45;&gt;2 -->
<g id="edge2" class="edge">
<title>0&#45;&gt;2</title>
<path fill="none" stroke="#000000" d="M528.0319,-579.8796C533.391,-571.1434 539.0979,-561.8404 544.6282,-552.8253"/>
<polygon fill="#000000" stroke="#000000" points="547.6135,-554.6522 549.8592,-544.2981 541.6467,-550.9919 547.6135,-554.6522"/>
<text text-anchor="middle" x="555.6839" y="-564.9101" font-family="Helvetica,sans-Serif" font-size="14.00" fill="#000000">False</text>
</g>
<!-- 3 -->
<g id="node4" class="node">
<title>3</title>
<path fill="#4de88e" stroke="#000000" d="M482,-425C482,-425 371,-425 371,-425 365,-425 359,-419 359,-413 359,-413 359,-354 359,-354 359,-348 365,-342 371,-342 371,-342 482,-342 482,-342 488,-342 494,-348 494,-354 494,-354 494,-413 494,-413 494,-419 488,-425 482,-425"/>
<text text-anchor="start" x="367" y="-409.8" font-family="Helvetica,sans-Serif" font-size="14.00" fill="#000000">petal.length ≤ 4.95</text>
<text text-anchor="start" x="375.5" y="-394.8" font-family="Helvetica,sans-Serif" font-size="14.00" fill="#000000">entropy = 0.445</text>
<text text-anchor="start" x="382.5" y="-379.8" font-family="Helvetica,sans-Serif" font-size="14.00" fill="#000000">samples = 54</text>
<text text-anchor="start" x="373" y="-364.8" font-family="Helvetica,sans-Serif" font-size="14.00" fill="#000000">value = [0, 49, 5]</text>
<text text-anchor="start" x="373.5" y="-349.8" font-family="Helvetica,sans-Serif" font-size="14.00" fill="#000000">class = Virginica</text>
</g>
<!-- 2&#45;&gt;3 -->
<g id="edge3" class="edge">
<title>2&#45;&gt;3</title>
<path fill="none" stroke="#000000" d="M523.387,-460.8796C511.4775,-451.368 498.7266,-441.1843 486.5156,-431.432"/>
<polygon fill="#000000" stroke="#000000" points="488.5816,-428.6027 478.5835,-425.0969 484.2132,-434.0724 488.5816,-428.6027"/>
</g>
<!-- 12 -->
<g id="node13" class="node">
<title>12</title>
<path fill="#843de6" stroke="#000000" d="M708,-425C708,-425 597,-425 597,-425 591,-425 585,-419 585,-413 585,-413 585,-354 585,-354 585,-348 591,-342 597,-342 597,-342 708,-342 708,-342 714,-342 720,-348 720,-354 720,-354 720,-413 720,-413 720,-419 714,-425 708,-425"/>
<text text-anchor="start" x="593" y="-409.8" font-family="Helvetica,sans-Serif" font-size="14.00" fill="#000000">petal.length ≤ 4.85</text>
<text text-anchor="start" x="601.5" y="-394.8" font-family="Helvetica,sans-Serif" font-size="14.00" fill="#000000">entropy = 0.151</text>
<text text-anchor="start" x="608.5" y="-379.8" font-family="Helvetica,sans-Serif" font-size="14.00" fill="#000000">samples = 46</text>
<text text-anchor="start" x="599" y="-364.8" font-family="Helvetica,sans-Serif" font-size="14.00" fill="#000000">value = [0, 1, 45]</text>
<text text-anchor="start" x="595.5" y="-349.8" font-family="Helvetica,sans-Serif" font-size="14.00" fill="#000000">class = Versicolor</text>
</g>
<!-- 2&#45;&gt;12 -->
<g id="edge12" class="edge">
<title>2&#45;&gt;12</title>
<path fill="none" stroke="#000000" d="M602.4309,-460.8796C608.0837,-452.1434 614.1033,-442.8404 619.9366,-433.8253"/>
<polygon fill="#000000" stroke="#000000" points="622.9601,-435.5952 625.4542,-425.2981 617.0831,-431.7924 622.9601,-435.5952"/>
</g>
<!-- 4 -->
<g id="node5" class="node">
<title>4</title>
<path fill="#3de684" stroke="#000000" d="M259,-306C259,-306 154,-306 154,-306 148,-306 142,-300 142,-294 142,-294 142,-235 142,-235 142,-229 148,-223 154,-223 154,-223 259,-223 259,-223 265,-223 271,-229 271,-235 271,-235 271,-294 271,-294 271,-300 265,-306 259,-306"/>
<text text-anchor="start" x="150" y="-290.8" font-family="Helvetica,sans-Serif" font-size="14.00" fill="#000000">petal.width ≤ 1.65</text>
<text text-anchor="start" x="155.5" y="-275.8" font-family="Helvetica,sans-Serif" font-size="14.00" fill="#000000">entropy = 0.146</text>
<text text-anchor="start" x="162.5" y="-260.8" font-family="Helvetica,sans-Serif" font-size="14.00" fill="#000000">samples = 48</text>
<text text-anchor="start" x="153" y="-245.8" font-family="Helvetica,sans-Serif" font-size="14.00" fill="#000000">value = [0, 47, 1]</text>
<text text-anchor="start" x="153.5" y="-230.8" font-family="Helvetica,sans-Serif" font-size="14.00" fill="#000000">class = Virginica</text>
</g>
<!-- 3&#45;&gt;4 -->
<g id="edge4" class="edge">
<title>3&#45;&gt;4</title>
<path fill="none" stroke="#000000" d="M358.9976,-346.9874C334.0275,-333.4808 305.6049,-318.1068 280.1187,-304.321"/>
<polygon fill="#000000" stroke="#000000" points="281.6977,-301.1959 271.2368,-299.5167 278.3673,-307.353 281.6977,-301.1959"/>
</g>
<!-- 7 -->
<g id="node8" class="node">
<title>7</title>
<path fill="#c09cf2" stroke="#000000" d="M479.5,-306C479.5,-306 373.5,-306 373.5,-306 367.5,-306 361.5,-300 361.5,-294 361.5,-294 361.5,-235 361.5,-235 361.5,-229 367.5,-223 373.5,-223 373.5,-223 479.5,-223 479.5,-223 485.5,-223 491.5,-229 491.5,-235 491.5,-235 491.5,-294 491.5,-294 491.5,-300 485.5,-306 479.5,-306"/>
<text text-anchor="start" x="370" y="-290.8" font-family="Helvetica,sans-Serif" font-size="14.00" fill="#000000">petal.width ≤ 1.55</text>
<text text-anchor="start" x="375.5" y="-275.8" font-family="Helvetica,sans-Serif" font-size="14.00" fill="#000000">entropy = 0.918</text>
<text text-anchor="start" x="387" y="-260.8" font-family="Helvetica,sans-Serif" font-size="14.00" fill="#000000">samples = 6</text>
<text text-anchor="start" x="377" y="-245.8" font-family="Helvetica,sans-Serif" font-size="14.00" fill="#000000">value = [0, 2, 4]</text>
<text text-anchor="start" x="369.5" y="-230.8" font-family="Helvetica,sans-Serif" font-size="14.00" fill="#000000">class = Versicolor</text>
</g>
<!-- 3&#45;&gt;7 -->
<g id="edge7" class="edge">
<title>3&#45;&gt;7</title>
<path fill="none" stroke="#000000" d="M426.5,-341.8796C426.5,-333.6838 426.5,-324.9891 426.5,-316.5013"/>
<polygon fill="#000000" stroke="#000000" points="430.0001,-316.298 426.5,-306.2981 423.0001,-316.2981 430.0001,-316.298"/>
</g>
<!-- 5 -->
<g id="node6" class="node">
<title>5</title>
<path fill="#39e581" stroke="#000000" d="M111,-179.5C111,-179.5 12,-179.5 12,-179.5 6,-179.5 0,-173.5 0,-167.5 0,-167.5 0,-123.5 0,-123.5 0,-117.5 6,-111.5 12,-111.5 12,-111.5 111,-111.5 111,-111.5 117,-111.5 123,-117.5 123,-123.5 123,-123.5 123,-167.5 123,-167.5 123,-173.5 117,-179.5 111,-179.5"/>
<text text-anchor="start" x="19" y="-164.3" font-family="Helvetica,sans-Serif" font-size="14.00" fill="#000000">entropy = 0.0</text>
<text text-anchor="start" x="17.5" y="-149.3" font-family="Helvetica,sans-Serif" font-size="14.00" fill="#000000">samples = 47</text>
<text text-anchor="start" x="8" y="-134.3" font-family="Helvetica,sans-Serif" font-size="14.00" fill="#000000">value = [0, 47, 0]</text>
<text text-anchor="start" x="8.5" y="-119.3" font-family="Helvetica,sans-Serif" font-size="14.00" fill="#000000">class = Virginica</text>
</g>
<!-- 4&#45;&gt;5 -->
<g id="edge5" class="edge">
<title>4&#45;&gt;5</title>
<path fill="none" stroke="#000000" d="M155.786,-222.8796C141.3156,-211.0038 125.5686,-198.0804 111.1617,-186.2568"/>
<polygon fill="#000000" stroke="#000000" points="113.2628,-183.4534 103.3123,-179.8149 108.822,-188.8645 113.2628,-183.4534"/>
</g>
<!-- 6 -->
<g id="node7" class="node">
<title>6</title>
<path fill="#8139e5" stroke="#000000" d="M259.5,-179.5C259.5,-179.5 153.5,-179.5 153.5,-179.5 147.5,-179.5 141.5,-173.5 141.5,-167.5 141.5,-167.5 141.5,-123.5 141.5,-123.5 141.5,-117.5 147.5,-111.5 153.5,-111.5 153.5,-111.5 259.5,-111.5 259.5,-111.5 265.5,-111.5 271.5,-117.5 271.5,-123.5 271.5,-123.5 271.5,-167.5 271.5,-167.5 271.5,-173.5 265.5,-179.5 259.5,-179.5"/>
<text text-anchor="start" x="164" y="-164.3" font-family="Helvetica,sans-Serif" font-size="14.00" fill="#000000">entropy = 0.0</text>
<text text-anchor="start" x="167" y="-149.3" font-family="Helvetica,sans-Serif" font-size="14.00" fill="#000000">samples = 1</text>
<text text-anchor="start" x="157" y="-134.3" font-family="Helvetica,sans-Serif" font-size="14.00" fill="#000000">value = [0, 0, 1]</text>
<text text-anchor="start" x="149.5" y="-119.3" font-family="Helvetica,sans-Serif" font-size="14.00" fill="#000000">class = Versicolor</text>
</g>
<!-- 4&#45;&gt;6 -->
<g id="edge6" class="edge">
<title>4&#45;&gt;6</title>
<path fill="none" stroke="#000000" d="M206.5,-222.8796C206.5,-212.2134 206.5,-200.7021 206.5,-189.9015"/>
<polygon fill="#000000" stroke="#000000" points="210.0001,-189.8149 206.5,-179.8149 203.0001,-189.815 210.0001,-189.8149"/>
</g>
<!-- 8 -->
<g id="node9" class="node">
<title>8</title>
<path fill="#8139e5" stroke="#000000" d="M407.5,-179.5C407.5,-179.5 301.5,-179.5 301.5,-179.5 295.5,-179.5 289.5,-173.5 289.5,-167.5 289.5,-167.5 289.5,-123.5 289.5,-123.5 289.5,-117.5 295.5,-111.5 301.5,-111.5 301.5,-111.5 407.5,-111.5 407.5,-111.5 413.5,-111.5 419.5,-117.5 419.5,-123.5 419.5,-123.5 419.5,-167.5 419.5,-167.5 419.5,-173.5 413.5,-179.5 407.5,-179.5"/>
<text text-anchor="start" x="312" y="-164.3" font-family="Helvetica,sans-Serif" font-size="14.00" fill="#000000">entropy = 0.0</text>
<text text-anchor="start" x="315" y="-149.3" font-family="Helvetica,sans-Serif" font-size="14.00" fill="#000000">samples = 3</text>
<text text-anchor="start" x="305" y="-134.3" font-family="Helvetica,sans-Serif" font-size="14.00" fill="#000000">value = [0, 0, 3]</text>
<text text-anchor="start" x="297.5" y="-119.3" font-family="Helvetica,sans-Serif" font-size="14.00" fill="#000000">class = Versicolor</text>
</g>
<!-- 7&#45;&gt;8 -->
<g id="edge8" class="edge">
<title>7&#45;&gt;8</title>
<path fill="none" stroke="#000000" d="M401.3179,-222.8796C394.5983,-211.7735 387.3243,-199.7513 380.5586,-188.5691"/>
<polygon fill="#000000" stroke="#000000" points="383.4332,-186.5589 375.262,-179.8149 377.4441,-190.1826 383.4332,-186.5589"/>
</g>
<!-- 9 -->
<g id="node10" class="node">
<title>9</title>
<path fill="#9cf2c0" stroke="#000000" d="M561,-187C561,-187 450,-187 450,-187 444,-187 438,-181 438,-175 438,-175 438,-116 438,-116 438,-110 444,-104 450,-104 450,-104 561,-104 561,-104 567,-104 573,-110 573,-116 573,-116 573,-175 573,-175 573,-181 567,-187 561,-187"/>
<text text-anchor="start" x="446" y="-171.8" font-family="Helvetica,sans-Serif" font-size="14.00" fill="#000000">petal.length ≤ 5.45</text>
<text text-anchor="start" x="454.5" y="-156.8" font-family="Helvetica,sans-Serif" font-size="14.00" fill="#000000">entropy = 0.918</text>
<text text-anchor="start" x="466" y="-141.8" font-family="Helvetica,sans-Serif" font-size="14.00" fill="#000000">samples = 3</text>
<text text-anchor="start" x="456" y="-126.8" font-family="Helvetica,sans-Serif" font-size="14.00" fill="#000000">value = [0, 2, 1]</text>
<text text-anchor="start" x="452.5" y="-111.8" font-family="Helvetica,sans-Serif" font-size="14.00" fill="#000000">class = Virginica</text>
</g>
<!-- 7&#45;&gt;9 -->
<g id="edge9" class="edge">
<title>7&#45;&gt;9</title>
<path fill="none" stroke="#000000" d="M454.1304,-222.8796C459.93,-214.1434 466.1059,-204.8404 472.0908,-195.8253"/>
<polygon fill="#000000" stroke="#000000" points="475.1368,-197.5652 477.7517,-187.2981 469.3049,-193.6935 475.1368,-197.5652"/>
</g>
<!-- 10 -->
<g id="node11" class="node">
<title>10</title>
<path fill="#39e581" stroke="#000000" d="M482.5,-68C482.5,-68 384.5,-68 384.5,-68 378.5,-68 372.5,-62 372.5,-56 372.5,-56 372.5,-12 372.5,-12 372.5,-6 378.5,0 384.5,0 384.5,0 482.5,0 482.5,0 488.5,0 494.5,-6 494.5,-12 494.5,-12 494.5,-56 494.5,-56 494.5,-62 488.5,-68 482.5,-68"/>
<text text-anchor="start" x="391" y="-52.8" font-family="Helvetica,sans-Serif" font-size="14.00" fill="#000000">entropy = 0.0</text>
<text text-anchor="start" x="394" y="-37.8" font-family="Helvetica,sans-Serif" font-size="14.00" fill="#000000">samples = 2</text>
<text text-anchor="start" x="384" y="-22.8" font-family="Helvetica,sans-Serif" font-size="14.00" fill="#000000">value = [0, 2, 0]</text>
<text text-anchor="start" x="380.5" y="-7.8" font-family="Helvetica,sans-Serif" font-size="14.00" fill="#000000">class = Virginica</text>
</g>
<!-- 9&#45;&gt;10 -->
<g id="edge10" class="edge">
<title>9&#45;&gt;10</title>
<path fill="none" stroke="#000000" d="M478.6899,-103.9815C472.9331,-95.0666 466.8404,-85.6313 461.0559,-76.6734"/>
<polygon fill="#000000" stroke="#000000" points="463.9904,-74.7658 455.6254,-68.2637 458.1099,-78.5631 463.9904,-74.7658"/>
</g>
<!-- 11 -->
<g id="node12" class="node">
<title>11</title>
<path fill="#8139e5" stroke="#000000" d="M630.5,-68C630.5,-68 524.5,-68 524.5,-68 518.5,-68 512.5,-62 512.5,-56 512.5,-56 512.5,-12 512.5,-12 512.5,-6 518.5,0 524.5,0 524.5,0 630.5,0 630.5,0 636.5,0 642.5,-6 642.5,-12 642.5,-12 642.5,-56 642.5,-56 642.5,-62 636.5,-68 630.5,-68"/>
<text text-anchor="start" x="535" y="-52.8" font-family="Helvetica,sans-Serif" font-size="14.00" fill="#000000">entropy = 0.0</text>
<text text-anchor="start" x="538" y="-37.8" font-family="Helvetica,sans-Serif" font-size="14.00" fill="#000000">samples = 1</text>
<text text-anchor="start" x="528" y="-22.8" font-family="Helvetica,sans-Serif" font-size="14.00" fill="#000000">value = [0, 0, 1]</text>
<text text-anchor="start" x="520.5" y="-7.8" font-family="Helvetica,sans-Serif" font-size="14.00" fill="#000000">class = Versicolor</text>
</g>
<!-- 9&#45;&gt;11 -->
<g id="edge11" class="edge">
<title>9&#45;&gt;11</title>
<path fill="none" stroke="#000000" d="M532.3101,-103.9815C538.0669,-95.0666 544.1596,-85.6313 549.9441,-76.6734"/>
<polygon fill="#000000" stroke="#000000" points="552.8901,-78.5631 555.3746,-68.2637 547.0096,-74.7658 552.8901,-78.5631"/>
</g>
<!-- 13 -->
<g id="node14" class="node">
<title>13</title>
<path fill="#c09cf2" stroke="#000000" d="M710,-306C710,-306 595,-306 595,-306 589,-306 583,-300 583,-294 583,-294 583,-235 583,-235 583,-229 589,-223 595,-223 595,-223 710,-223 710,-223 716,-223 722,-229 722,-235 722,-235 722,-294 722,-294 722,-300 716,-306 710,-306"/>
<text text-anchor="start" x="591" y="-290.8" font-family="Helvetica,sans-Serif" font-size="14.00" fill="#000000">sepal.length ≤ 5.95</text>
<text text-anchor="start" x="601.5" y="-275.8" font-family="Helvetica,sans-Serif" font-size="14.00" fill="#000000">entropy = 0.918</text>
<text text-anchor="start" x="613" y="-260.8" font-family="Helvetica,sans-Serif" font-size="14.00" fill="#000000">samples = 3</text>
<text text-anchor="start" x="603" y="-245.8" font-family="Helvetica,sans-Serif" font-size="14.00" fill="#000000">value = [0, 1, 2]</text>
<text text-anchor="start" x="595.5" y="-230.8" font-family="Helvetica,sans-Serif" font-size="14.00" fill="#000000">class = Versicolor</text>
</g>
<!-- 12&#45;&gt;13 -->
<g id="edge13" class="edge">
<title>12&#45;&gt;13</title>
<path fill="none" stroke="#000000" d="M652.5,-341.8796C652.5,-333.6838 652.5,-324.9891 652.5,-316.5013"/>
<polygon fill="#000000" stroke="#000000" points="656.0001,-316.298 652.5,-306.2981 649.0001,-316.2981 656.0001,-316.298"/>
</g>
<!-- 16 -->
<g id="node17" class="node">
<title>16</title>
<path fill="#8139e5" stroke="#000000" d="M858.5,-298.5C858.5,-298.5 752.5,-298.5 752.5,-298.5 746.5,-298.5 740.5,-292.5 740.5,-286.5 740.5,-286.5 740.5,-242.5 740.5,-242.5 740.5,-236.5 746.5,-230.5 752.5,-230.5 752.5,-230.5 858.5,-230.5 858.5,-230.5 864.5,-230.5 870.5,-236.5 870.5,-242.5 870.5,-242.5 870.5,-286.5 870.5,-286.5 870.5,-292.5 864.5,-298.5 858.5,-298.5"/>
<text text-anchor="start" x="763" y="-283.3" font-family="Helvetica,sans-Serif" font-size="14.00" fill="#000000">entropy = 0.0</text>
<text text-anchor="start" x="761.5" y="-268.3" font-family="Helvetica,sans-Serif" font-size="14.00" fill="#000000">samples = 43</text>
<text text-anchor="start" x="752" y="-253.3" font-family="Helvetica,sans-Serif" font-size="14.00" fill="#000000">value = [0, 0, 43]</text>
<text text-anchor="start" x="748.5" y="-238.3" font-family="Helvetica,sans-Serif" font-size="14.00" fill="#000000">class = Versicolor</text>
</g>
<!-- 12&#45;&gt;16 -->
<g id="edge16" class="edge">
<title>12&#45;&gt;16</title>
<path fill="none" stroke="#000000" d="M706.012,-341.8796C721.2808,-330.0038 737.8966,-317.0804 753.0984,-305.2568"/>
<polygon fill="#000000" stroke="#000000" points="755.6361,-307.7171 761.3808,-298.8149 751.3384,-302.1916 755.6361,-307.7171"/>
</g>
<!-- 14 -->
<g id="node15" class="node">
<title>14</title>
<path fill="#39e581" stroke="#000000" d="M701.5,-179.5C701.5,-179.5 603.5,-179.5 603.5,-179.5 597.5,-179.5 591.5,-173.5 591.5,-167.5 591.5,-167.5 591.5,-123.5 591.5,-123.5 591.5,-117.5 597.5,-111.5 603.5,-111.5 603.5,-111.5 701.5,-111.5 701.5,-111.5 707.5,-111.5 713.5,-117.5 713.5,-123.5 713.5,-123.5 713.5,-167.5 713.5,-167.5 713.5,-173.5 707.5,-179.5 701.5,-179.5"/>
<text text-anchor="start" x="610" y="-164.3" font-family="Helvetica,sans-Serif" font-size="14.00" fill="#000000">entropy = 0.0</text>
<text text-anchor="start" x="613" y="-149.3" font-family="Helvetica,sans-Serif" font-size="14.00" fill="#000000">samples = 1</text>
<text text-anchor="start" x="603" y="-134.3" font-family="Helvetica,sans-Serif" font-size="14.00" fill="#000000">value = [0, 1, 0]</text>
<text text-anchor="start" x="599.5" y="-119.3" font-family="Helvetica,sans-Serif" font-size="14.00" fill="#000000">class = Virginica</text>
</g>
<!-- 13&#45;&gt;14 -->
<g id="edge14" class="edge">
<title>13&#45;&gt;14</title>
<path fill="none" stroke="#000000" d="M652.5,-222.8796C652.5,-212.2134 652.5,-200.7021 652.5,-189.9015"/>
<polygon fill="#000000" stroke="#000000" points="656.0001,-189.8149 652.5,-179.8149 649.0001,-189.815 656.0001,-189.8149"/>
</g>
<!-- 15 -->
<g id="node16" class="node">
<title>15</title>
<path fill="#8139e5" stroke="#000000" d="M849.5,-179.5C849.5,-179.5 743.5,-179.5 743.5,-179.5 737.5,-179.5 731.5,-173.5 731.5,-167.5 731.5,-167.5 731.5,-123.5 731.5,-123.5 731.5,-117.5 737.5,-111.5 743.5,-111.5 743.5,-111.5 849.5,-111.5 849.5,-111.5 855.5,-111.5 861.5,-117.5 861.5,-123.5 861.5,-123.5 861.5,-167.5 861.5,-167.5 861.5,-173.5 855.5,-179.5 849.5,-179.5"/>
<text text-anchor="start" x="754" y="-164.3" font-family="Helvetica,sans-Serif" font-size="14.00" fill="#000000">entropy = 0.0</text>
<text text-anchor="start" x="757" y="-149.3" font-family="Helvetica,sans-Serif" font-size="14.00" fill="#000000">samples = 2</text>
<text text-anchor="start" x="747" y="-134.3" font-family="Helvetica,sans-Serif" font-size="14.00" fill="#000000">value = [0, 0, 2]</text>
<text text-anchor="start" x="739.5" y="-119.3" font-family="Helvetica,sans-Serif" font-size="14.00" fill="#000000">class = Versicolor</text>
</g>
<!-- 13&#45;&gt;15 -->
<g id="edge15" class="edge">
<title>13&#45;&gt;15</title>
<path fill="none" stroke="#000000" d="M702.8642,-222.8796C717.2349,-211.0038 732.8733,-198.0804 747.1808,-186.2568"/>
<polygon fill="#000000" stroke="#000000" points="749.4971,-188.8831 754.976,-179.8149 745.038,-183.4872 749.4971,-188.8831"/>
</g>
</g>
</svg>
