<?xml version="1.0" encoding="UTF-8" standalone="no"?>
<!DOCTYPE svg PUBLIC "-//W3C//DTD SVG 1.1//EN"
 "http://www.w3.org/Graphics/SVG/1.1/DTD/svg11.dtd">
<!-- Generated by graphviz version 2.40.1 (20161225.0304)
 -->
<!-- Title: Tree Pages: 1 -->
<svg width="1096pt" height="1147pt"
 viewBox="0.00 0.00 1096.00 1147.00" xmlns="http://www.w3.org/2000/svg" xmlns:xlink="http://www.w3.org/1999/xlink">
<g id="graph0" class="graph" transform="scale(1 1) rotate(0) translate(4 1143)">
<title>Tree</title>
<polygon fill="#ffffff" stroke="transparent" points="-4,4 -4,-1143 1092,-1143 1092,4 -4,4"/>
<!-- 0 -->
<g id="node1" class="node">
<title>0</title>
<path fill="#fafdfe" stroke="#000000" d="M738.5,-1139C738.5,-1139 646.5,-1139 646.5,-1139 640.5,-1139 634.5,-1133 634.5,-1127 634.5,-1127 634.5,-1068 634.5,-1068 634.5,-1062 640.5,-1056 646.5,-1056 646.5,-1056 738.5,-1056 738.5,-1056 744.5,-1056 750.5,-1062 750.5,-1068 750.5,-1068 750.5,-1127 750.5,-1127 750.5,-1133 744.5,-1139 738.5,-1139"/>
<text text-anchor="start" x="643.5" y="-1123.8" font-family="Helvetica,sans-Serif" font-size="14.00" fill="#000000">Glucose ≤ 96.5</text>
<text text-anchor="start" x="650" y="-1108.8" font-family="Helvetica,sans-Serif" font-size="14.00" fill="#000000">entropy = 1.0</text>
<text text-anchor="start" x="648.5" y="-1093.8" font-family="Helvetica,sans-Serif" font-size="14.00" fill="#000000">samples = 81</text>
<text text-anchor="start" x="642.5" y="-1078.8" font-family="Helvetica,sans-Serif" font-size="14.00" fill="#000000">value = [40, 41]</text>
<text text-anchor="start" x="663.5" y="-1063.8" font-family="Helvetica,sans-Serif" font-size="14.00" fill="#000000">class = 2</text>
</g>
<!-- 1 -->
<g id="node2" class="node">
<title>1</title>
<path fill="#f0b990" stroke="#000000" d="M672,-1020C672,-1020 577,-1020 577,-1020 571,-1020 565,-1014 565,-1008 565,-1008 565,-949 565,-949 565,-943 571,-937 577,-937 577,-937 672,-937 672,-937 678,-937 684,-943 684,-949 684,-949 684,-1008 684,-1008 684,-1014 678,-1020 672,-1020"/>
<text text-anchor="start" x="573" y="-1004.8" font-family="Helvetica,sans-Serif" font-size="14.00" fill="#000000">Insulin ≤ 14.359</text>
<text text-anchor="start" x="573.5" y="-989.8" font-family="Helvetica,sans-Serif" font-size="14.00" fill="#000000">entropy = 0.889</text>
<text text-anchor="start" x="580.5" y="-974.8" font-family="Helvetica,sans-Serif" font-size="14.00" fill="#000000">samples = 49</text>
<text text-anchor="start" x="574.5" y="-959.8" font-family="Helvetica,sans-Serif" font-size="14.00" fill="#000000">value = [34, 15]</text>
<text text-anchor="start" x="595.5" y="-944.8" font-family="Helvetica,sans-Serif" font-size="14.00" fill="#000000">class = 1</text>
</g>
<!-- 0&#45;&gt;1 -->
<g id="edge1" class="edge">
<title>0&#45;&gt;1</title>
<path fill="none" stroke="#000000" d="M668.7169,-1055.8796C663.7763,-1047.2335 658.5184,-1038.0322 653.4167,-1029.1042"/>
<polygon fill="#000000" stroke="#000000" points="656.3849,-1027.244 648.3846,-1020.2981 650.3072,-1030.717 656.3849,-1027.244"/>
<text text-anchor="middle" x="641.8067" y="-1040.7172" font-family="Helvetica,sans-Serif" font-size="14.00" fill="#000000">True</text>
</g>
<!-- 26 -->
<g id="node27" class="node">
<title>26</title>
<path fill="#67b4eb" stroke="#000000" d="M808.5,-1020C808.5,-1020 714.5,-1020 714.5,-1020 708.5,-1020 702.5,-1014 702.5,-1008 702.5,-1008 702.5,-949 702.5,-949 702.5,-943 708.5,-937 714.5,-937 714.5,-937 808.5,-937 808.5,-937 814.5,-937 820.5,-943 820.5,-949 820.5,-949 820.5,-1008 820.5,-1008 820.5,-1014 814.5,-1020 808.5,-1020"/>
<text text-anchor="start" x="715.5" y="-1004.8" font-family="Helvetica,sans-Serif" font-size="14.00" fill="#000000">Leptin ≤ 6.059</text>
<text text-anchor="start" x="710.5" y="-989.8" font-family="Helvetica,sans-Serif" font-size="14.00" fill="#000000">entropy = 0.696</text>
<text text-anchor="start" x="717.5" y="-974.8" font-family="Helvetica,sans-Serif" font-size="14.00" fill="#000000">samples = 32</text>
<text text-anchor="start" x="716" y="-959.8" font-family="Helvetica,sans-Serif" font-size="14.00" fill="#000000">value = [6, 26]</text>
<text text-anchor="start" x="732.5" y="-944.8" font-family="Helvetica,sans-Serif" font-size="14.00" fill="#000000">class = 2</text>
</g>
<!-- 0&#45;&gt;26 -->
<g id="edge26" class="edge">
<title>0&#45;&gt;26</title>
<path fill="none" stroke="#000000" d="M716.6329,-1055.8796C721.6461,-1047.2335 726.9813,-1038.0322 732.1581,-1029.1042"/>
<polygon fill="#000000" stroke="#000000" points="735.2758,-1030.7047 737.2641,-1020.2981 729.2202,-1027.1934 735.2758,-1030.7047"/>
<text text-anchor="middle" x="743.6897" y="-1040.7582" font-family="Helvetica,sans-Serif" font-size="14.00" fill="#000000">False</text>
</g>
<!-- 2 -->
<g id="node3" class="node">
<title>2</title>
<path fill="#eead7f" stroke="#000000" d="M543.5,-901C543.5,-901 449.5,-901 449.5,-901 443.5,-901 437.5,-895 437.5,-889 437.5,-889 437.5,-830 437.5,-830 437.5,-824 443.5,-818 449.5,-818 449.5,-818 543.5,-818 543.5,-818 549.5,-818 555.5,-824 555.5,-830 555.5,-830 555.5,-889 555.5,-889 555.5,-895 549.5,-901 543.5,-901"/>
<text text-anchor="start" x="448.5" y="-885.8" font-family="Helvetica,sans-Serif" font-size="14.00" fill="#000000">Resistin ≤ 7.74</text>
<text text-anchor="start" x="445.5" y="-870.8" font-family="Helvetica,sans-Serif" font-size="14.00" fill="#000000">entropy = 0.828</text>
<text text-anchor="start" x="452.5" y="-855.8" font-family="Helvetica,sans-Serif" font-size="14.00" fill="#000000">samples = 46</text>
<text text-anchor="start" x="446.5" y="-840.8" font-family="Helvetica,sans-Serif" font-size="14.00" fill="#000000">value = [34, 12]</text>
<text text-anchor="start" x="467.5" y="-825.8" font-family="Helvetica,sans-Serif" font-size="14.00" fill="#000000">class = 1</text>
</g>
<!-- 1&#45;&gt;2 -->
<g id="edge2" class="edge">
<title>1&#45;&gt;2</title>
<path fill="none" stroke="#000000" d="M579.7318,-936.8796C569.7537,-927.6031 559.0881,-917.6874 548.8358,-908.1559"/>
<polygon fill="#000000" stroke="#000000" points="551.1663,-905.5436 541.4593,-901.2981 546.4,-910.6704 551.1663,-905.5436"/>
</g>
<!-- 25 -->
<g id="node26" class="node">
<title>25</title>
<path fill="#399de5" stroke="#000000" d="M663,-893.5C663,-893.5 586,-893.5 586,-893.5 580,-893.5 574,-887.5 574,-881.5 574,-881.5 574,-837.5 574,-837.5 574,-831.5 580,-825.5 586,-825.5 586,-825.5 663,-825.5 663,-825.5 669,-825.5 675,-831.5 675,-837.5 675,-837.5 675,-881.5 675,-881.5 675,-887.5 669,-893.5 663,-893.5"/>
<text text-anchor="start" x="582" y="-878.3" font-family="Helvetica,sans-Serif" font-size="14.00" fill="#000000">entropy = 0.0</text>
<text text-anchor="start" x="585" y="-863.3" font-family="Helvetica,sans-Serif" font-size="14.00" fill="#000000">samples = 3</text>
<text text-anchor="start" x="583" y="-848.3" font-family="Helvetica,sans-Serif" font-size="14.00" fill="#000000">value = [0, 3]</text>
<text text-anchor="start" x="595.5" y="-833.3" font-family="Helvetica,sans-Serif" font-size="14.00" fill="#000000">class = 2</text>
</g>
<!-- 1&#45;&gt;25 -->
<g id="edge25" class="edge">
<title>1&#45;&gt;25</title>
<path fill="none" stroke="#000000" d="M624.5,-936.8796C624.5,-926.2134 624.5,-914.7021 624.5,-903.9015"/>
<polygon fill="#000000" stroke="#000000" points="628.0001,-903.8149 624.5,-893.8149 621.0001,-903.815 628.0001,-903.8149"/>
</g>
<!-- 3 -->
<g id="node4" class="node">
<title>3</title>
<path fill="#e58139" stroke="#000000" d="M403,-774.5C403,-774.5 320,-774.5 320,-774.5 314,-774.5 308,-768.5 308,-762.5 308,-762.5 308,-718.5 308,-718.5 308,-712.5 314,-706.5 320,-706.5 320,-706.5 403,-706.5 403,-706.5 409,-706.5 415,-712.5 415,-718.5 415,-718.5 415,-762.5 415,-762.5 415,-768.5 409,-774.5 403,-774.5"/>
<text text-anchor="start" x="319" y="-759.3" font-family="Helvetica,sans-Serif" font-size="14.00" fill="#000000">entropy = 0.0</text>
<text text-anchor="start" x="317.5" y="-744.3" font-family="Helvetica,sans-Serif" font-size="14.00" fill="#000000">samples = 12</text>
<text text-anchor="start" x="316" y="-729.3" font-family="Helvetica,sans-Serif" font-size="14.00" fill="#000000">value = [12, 0]</text>
<text text-anchor="start" x="332.5" y="-714.3" font-family="Helvetica,sans-Serif" font-size="14.00" fill="#000000">class = 1</text>
</g>
<!-- 2&#45;&gt;3 -->
<g id="edge3" class="edge">
<title>2&#45;&gt;3</title>
<path fill="none" stroke="#000000" d="M449.2836,-817.8796C435.9358,-806.1138 421.4215,-793.3197 408.1096,-781.5855"/>
<polygon fill="#000000" stroke="#000000" points="410.2448,-778.8019 400.4287,-774.8149 405.616,-784.0531 410.2448,-778.8019"/>
</g>
<!-- 4 -->
<g id="node5" class="node">
<title>4</title>
<path fill="#f3c6a5" stroke="#000000" d="M549.5,-782C549.5,-782 445.5,-782 445.5,-782 439.5,-782 433.5,-776 433.5,-770 433.5,-770 433.5,-711 433.5,-711 433.5,-705 439.5,-699 445.5,-699 445.5,-699 549.5,-699 549.5,-699 555.5,-699 561.5,-705 561.5,-711 561.5,-711 561.5,-770 561.5,-770 561.5,-776 555.5,-782 549.5,-782"/>
<text text-anchor="start" x="441.5" y="-766.8" font-family="Helvetica,sans-Serif" font-size="14.00" fill="#000000">MCP.1 ≤ 339.218</text>
<text text-anchor="start" x="446.5" y="-751.8" font-family="Helvetica,sans-Serif" font-size="14.00" fill="#000000">entropy = 0.937</text>
<text text-anchor="start" x="453.5" y="-736.8" font-family="Helvetica,sans-Serif" font-size="14.00" fill="#000000">samples = 34</text>
<text text-anchor="start" x="447.5" y="-721.8" font-family="Helvetica,sans-Serif" font-size="14.00" fill="#000000">value = [22, 12]</text>
<text text-anchor="start" x="468.5" y="-706.8" font-family="Helvetica,sans-Serif" font-size="14.00" fill="#000000">class = 1</text>
</g>
<!-- 2&#45;&gt;4 -->
<g id="edge4" class="edge">
<title>2&#45;&gt;4</title>
<path fill="none" stroke="#000000" d="M496.8498,-817.8796C496.9186,-809.6838 496.9917,-800.9891 497.063,-792.5013"/>
<polygon fill="#000000" stroke="#000000" points="500.5645,-792.3272 497.1488,-782.2981 493.5648,-792.2683 500.5645,-792.3272"/>
</g>
<!-- 5 -->
<g id="node6" class="node">
<title>5</title>
<path fill="#8ec7f0" stroke="#000000" d="M410.5,-663C410.5,-663 306.5,-663 306.5,-663 300.5,-663 294.5,-657 294.5,-651 294.5,-651 294.5,-592 294.5,-592 294.5,-586 300.5,-580 306.5,-580 306.5,-580 410.5,-580 410.5,-580 416.5,-580 422.5,-586 422.5,-592 422.5,-592 422.5,-651 422.5,-651 422.5,-657 416.5,-663 410.5,-663"/>
<text text-anchor="start" x="302.5" y="-647.8" font-family="Helvetica,sans-Serif" font-size="14.00" fill="#000000">Resistin ≤ 12.674</text>
<text text-anchor="start" x="307.5" y="-632.8" font-family="Helvetica,sans-Serif" font-size="14.00" fill="#000000">entropy = 0.881</text>
<text text-anchor="start" x="314.5" y="-617.8" font-family="Helvetica,sans-Serif" font-size="14.00" fill="#000000">samples = 10</text>
<text text-anchor="start" x="317" y="-602.8" font-family="Helvetica,sans-Serif" font-size="14.00" fill="#000000">value = [3, 7]</text>
<text text-anchor="start" x="329.5" y="-587.8" font-family="Helvetica,sans-Serif" font-size="14.00" fill="#000000">class = 2</text>
</g>
<!-- 4&#45;&gt;5 -->
<g id="edge5" class="edge">
<title>4&#45;&gt;5</title>
<path fill="none" stroke="#000000" d="M448.8845,-698.8796C437.9438,-689.513 426.2418,-679.4948 415.0092,-669.8784"/>
<polygon fill="#000000" stroke="#000000" points="417.1956,-667.1428 407.323,-663.2981 412.6432,-672.4603 417.1956,-667.1428"/>
</g>
<!-- 12 -->
<g id="node13" class="node">
<title>12</title>
<path fill="#eca26d" stroke="#000000" d="M546.5,-663C546.5,-663 452.5,-663 452.5,-663 446.5,-663 440.5,-657 440.5,-651 440.5,-651 440.5,-592 440.5,-592 440.5,-586 446.5,-580 452.5,-580 452.5,-580 546.5,-580 546.5,-580 552.5,-580 558.5,-586 558.5,-592 558.5,-592 558.5,-651 558.5,-651 558.5,-657 552.5,-663 546.5,-663"/>
<text text-anchor="start" x="452.5" y="-647.8" font-family="Helvetica,sans-Serif" font-size="14.00" fill="#000000">Insulin ≤ 3.119</text>
<text text-anchor="start" x="448.5" y="-632.8" font-family="Helvetica,sans-Serif" font-size="14.00" fill="#000000">entropy = 0.738</text>
<text text-anchor="start" x="455.5" y="-617.8" font-family="Helvetica,sans-Serif" font-size="14.00" fill="#000000">samples = 24</text>
<text text-anchor="start" x="454" y="-602.8" font-family="Helvetica,sans-Serif" font-size="14.00" fill="#000000">value = [19, 5]</text>
<text text-anchor="start" x="470.5" y="-587.8" font-family="Helvetica,sans-Serif" font-size="14.00" fill="#000000">class = 1</text>
</g>
<!-- 4&#45;&gt;12 -->
<g id="edge12" class="edge">
<title>4&#45;&gt;12</title>
<path fill="none" stroke="#000000" d="M498.1995,-698.8796C498.3372,-690.6838 498.4834,-681.9891 498.626,-673.5013"/>
<polygon fill="#000000" stroke="#000000" points="502.1289,-673.3555 498.7975,-663.2981 495.1299,-673.2378 502.1289,-673.3555"/>
</g>
<!-- 6 -->
<g id="node7" class="node">
<title>6</title>
<path fill="#ffffff" stroke="#000000" d="M281.5,-544C281.5,-544 191.5,-544 191.5,-544 185.5,-544 179.5,-538 179.5,-532 179.5,-532 179.5,-473 179.5,-473 179.5,-467 185.5,-461 191.5,-461 191.5,-461 281.5,-461 281.5,-461 287.5,-461 293.5,-467 293.5,-473 293.5,-473 293.5,-532 293.5,-532 293.5,-538 287.5,-544 281.5,-544"/>
<text text-anchor="start" x="187.5" y="-528.8" font-family="Helvetica,sans-Serif" font-size="14.00" fill="#000000">Glucose ≤ 92.5</text>
<text text-anchor="start" x="194" y="-513.8" font-family="Helvetica,sans-Serif" font-size="14.00" fill="#000000">entropy = 1.0</text>
<text text-anchor="start" x="197" y="-498.8" font-family="Helvetica,sans-Serif" font-size="14.00" fill="#000000">samples = 6</text>
<text text-anchor="start" x="195" y="-483.8" font-family="Helvetica,sans-Serif" font-size="14.00" fill="#000000">value = [3, 3]</text>
<text text-anchor="start" x="207.5" y="-468.8" font-family="Helvetica,sans-Serif" font-size="14.00" fill="#000000">class = 1</text>
</g>
<!-- 5&#45;&gt;6 -->
<g id="edge6" class="edge">
<title>5&#45;&gt;6</title>
<path fill="none" stroke="#000000" d="M315.8303,-579.8796C306.4123,-570.6931 296.3516,-560.8798 286.6672,-551.4336"/>
<polygon fill="#000000" stroke="#000000" points="288.9543,-548.7751 279.3518,-544.2981 284.0665,-553.7861 288.9543,-548.7751"/>
</g>
<!-- 11 -->
<g id="node12" class="node">
<title>11</title>
<path fill="#399de5" stroke="#000000" d="M401,-536.5C401,-536.5 324,-536.5 324,-536.5 318,-536.5 312,-530.5 312,-524.5 312,-524.5 312,-480.5 312,-480.5 312,-474.5 318,-468.5 324,-468.5 324,-468.5 401,-468.5 401,-468.5 407,-468.5 413,-474.5 413,-480.5 413,-480.5 413,-524.5 413,-524.5 413,-530.5 407,-536.5 401,-536.5"/>
<text text-anchor="start" x="320" y="-521.3" font-family="Helvetica,sans-Serif" font-size="14.00" fill="#000000">entropy = 0.0</text>
<text text-anchor="start" x="323" y="-506.3" font-family="Helvetica,sans-Serif" font-size="14.00" fill="#000000">samples = 4</text>
<text text-anchor="start" x="321" y="-491.3" font-family="Helvetica,sans-Serif" font-size="14.00" fill="#000000">value = [0, 4]</text>
<text text-anchor="start" x="333.5" y="-476.3" font-family="Helvetica,sans-Serif" font-size="14.00" fill="#000000">class = 2</text>
</g>
<!-- 5&#45;&gt;11 -->
<g id="edge11" class="edge">
<title>5&#45;&gt;11</title>
<path fill="none" stroke="#000000" d="M359.899,-579.8796C360.2575,-569.2134 360.6445,-557.7021 361.0075,-546.9015"/>
<polygon fill="#000000" stroke="#000000" points="364.5085,-546.9269 361.3466,-536.8149 357.5125,-546.6917 364.5085,-546.9269"/>
</g>
<!-- 7 -->
<g id="node8" class="node">
<title>7</title>
<path fill="#7bbeee" stroke="#000000" d="M161.5,-425C161.5,-425 57.5,-425 57.5,-425 51.5,-425 45.5,-419 45.5,-413 45.5,-413 45.5,-354 45.5,-354 45.5,-348 51.5,-342 57.5,-342 57.5,-342 161.5,-342 161.5,-342 167.5,-342 173.5,-348 173.5,-354 173.5,-354 173.5,-413 173.5,-413 173.5,-419 167.5,-425 161.5,-425"/>
<text text-anchor="start" x="53.5" y="-409.8" font-family="Helvetica,sans-Serif" font-size="14.00" fill="#000000">MCP.1 ≤ 179.445</text>
<text text-anchor="start" x="58.5" y="-394.8" font-family="Helvetica,sans-Serif" font-size="14.00" fill="#000000">entropy = 0.811</text>
<text text-anchor="start" x="70" y="-379.8" font-family="Helvetica,sans-Serif" font-size="14.00" fill="#000000">samples = 4</text>
<text text-anchor="start" x="68" y="-364.8" font-family="Helvetica,sans-Serif" font-size="14.00" fill="#000000">value = [1, 3]</text>
<text text-anchor="start" x="80.5" y="-349.8" font-family="Helvetica,sans-Serif" font-size="14.00" fill="#000000">class = 2</text>
</g>
<!-- 6&#45;&gt;7 -->
<g id="edge7" class="edge">
<title>6&#45;&gt;7</title>
<path fill="none" stroke="#000000" d="M192.0816,-460.8796C182.1814,-451.6031 171.5991,-441.6874 161.4269,-432.1559"/>
<polygon fill="#000000" stroke="#000000" points="163.7984,-429.5816 154.108,-425.2981 159.0121,-434.6896 163.7984,-429.5816"/>
</g>
<!-- 10 -->
<g id="node11" class="node">
<title>10</title>
<path fill="#e58139" stroke="#000000" d="M281,-417.5C281,-417.5 204,-417.5 204,-417.5 198,-417.5 192,-411.5 192,-405.5 192,-405.5 192,-361.5 192,-361.5 192,-355.5 198,-349.5 204,-349.5 204,-349.5 281,-349.5 281,-349.5 287,-349.5 293,-355.5 293,-361.5 293,-361.5 293,-405.5 293,-405.5 293,-411.5 287,-417.5 281,-417.5"/>
<text text-anchor="start" x="200" y="-402.3" font-family="Helvetica,sans-Serif" font-size="14.00" fill="#000000">entropy = 0.0</text>
<text text-anchor="start" x="203" y="-387.3" font-family="Helvetica,sans-Serif" font-size="14.00" fill="#000000">samples = 2</text>
<text text-anchor="start" x="201" y="-372.3" font-family="Helvetica,sans-Serif" font-size="14.00" fill="#000000">value = [2, 0]</text>
<text text-anchor="start" x="213.5" y="-357.3" font-family="Helvetica,sans-Serif" font-size="14.00" fill="#000000">class = 1</text>
</g>
<!-- 6&#45;&gt;10 -->
<g id="edge10" class="edge">
<title>6&#45;&gt;10</title>
<path fill="none" stroke="#000000" d="M238.5985,-460.8796C239.1363,-450.2134 239.7167,-438.7021 240.2613,-427.9015"/>
<polygon fill="#000000" stroke="#000000" points="243.7617,-427.9785 240.7698,-417.8149 236.7706,-427.626 243.7617,-427.9785"/>
</g>
<!-- 8 -->
<g id="node9" class="node">
<title>8</title>
<path fill="#e58139" stroke="#000000" d="M89,-298.5C89,-298.5 12,-298.5 12,-298.5 6,-298.5 0,-292.5 0,-286.5 0,-286.5 0,-242.5 0,-242.5 0,-236.5 6,-230.5 12,-230.5 12,-230.5 89,-230.5 89,-230.5 95,-230.5 101,-236.5 101,-242.5 101,-242.5 101,-286.5 101,-286.5 101,-292.5 95,-298.5 89,-298.5"/>
<text text-anchor="start" x="8" y="-283.3" font-family="Helvetica,sans-Serif" font-size="14.00" fill="#000000">entropy = 0.0</text>
<text text-anchor="start" x="11" y="-268.3" font-family="Helvetica,sans-Serif" font-size="14.00" fill="#000000">samples = 1</text>
<text text-anchor="start" x="9" y="-253.3" font-family="Helvetica,sans-Serif" font-size="14.00" fill="#000000">value = [1, 0]</text>
<text text-anchor="start" x="21.5" y="-238.3" font-family="Helvetica,sans-Serif" font-size="14.00" fill="#000000">class = 1</text>
</g>
<!-- 7&#45;&gt;8 -->
<g id="edge8" class="edge">
<title>7&#45;&gt;8</title>
<path fill="none" stroke="#000000" d="M88.8647,-341.8796C83.4128,-330.8835 77.5157,-318.9893 72.0184,-307.9015"/>
<polygon fill="#000000" stroke="#000000" points="75.0911,-306.2195 67.5133,-298.8149 68.8196,-309.3289 75.0911,-306.2195"/>
</g>
<!-- 9 -->
<g id="node10" class="node">
<title>9</title>
<path fill="#399de5" stroke="#000000" d="M208,-298.5C208,-298.5 131,-298.5 131,-298.5 125,-298.5 119,-292.5 119,-286.5 119,-286.5 119,-242.5 119,-242.5 119,-236.5 125,-230.5 131,-230.5 131,-230.5 208,-230.5 208,-230.5 214,-230.5 220,-236.5 220,-242.5 220,-242.5 220,-286.5 220,-286.5 220,-292.5 214,-298.5 208,-298.5"/>
<text text-anchor="start" x="127" y="-283.3" font-family="Helvetica,sans-Serif" font-size="14.00" fill="#000000">entropy = 0.0</text>
<text text-anchor="start" x="130" y="-268.3" font-family="Helvetica,sans-Serif" font-size="14.00" fill="#000000">samples = 3</text>
<text text-anchor="start" x="128" y="-253.3" font-family="Helvetica,sans-Serif" font-size="14.00" fill="#000000">value = [0, 3]</text>
<text text-anchor="start" x="140.5" y="-238.3" font-family="Helvetica,sans-Serif" font-size="14.00" fill="#000000">class = 2</text>
</g>
<!-- 7&#45;&gt;9 -->
<g id="edge9" class="edge">
<title>7&#45;&gt;9</title>
<path fill="none" stroke="#000000" d="M130.4851,-341.8796C136.0293,-330.8835 142.0264,-318.9893 147.6169,-307.9015"/>
<polygon fill="#000000" stroke="#000000" points="150.8214,-309.3199 152.1984,-298.8149 144.5709,-306.1684 150.8214,-309.3199"/>
</g>
<!-- 13 -->
<g id="node14" class="node">
<title>13</title>
<path fill="#7bbeee" stroke="#000000" d="M543.5,-544C543.5,-544 449.5,-544 449.5,-544 443.5,-544 437.5,-538 437.5,-532 437.5,-532 437.5,-473 437.5,-473 437.5,-467 443.5,-461 449.5,-461 449.5,-461 543.5,-461 543.5,-461 549.5,-461 555.5,-467 555.5,-473 555.5,-473 555.5,-532 555.5,-532 555.5,-538 549.5,-544 543.5,-544"/>
<text text-anchor="start" x="449" y="-528.8" font-family="Helvetica,sans-Serif" font-size="14.00" fill="#000000">HOMA ≤ 0.488</text>
<text text-anchor="start" x="445.5" y="-513.8" font-family="Helvetica,sans-Serif" font-size="14.00" fill="#000000">entropy = 0.811</text>
<text text-anchor="start" x="457" y="-498.8" font-family="Helvetica,sans-Serif" font-size="14.00" fill="#000000">samples = 4</text>
<text text-anchor="start" x="455" y="-483.8" font-family="Helvetica,sans-Serif" font-size="14.00" fill="#000000">value = [1, 3]</text>
<text text-anchor="start" x="467.5" y="-468.8" font-family="Helvetica,sans-Serif" font-size="14.00" fill="#000000">class = 2</text>
</g>
<!-- 12&#45;&gt;13 -->
<g id="edge13" class="edge">
<title>12&#45;&gt;13</title>
<path fill="none" stroke="#000000" d="M498.4507,-579.8796C498.2441,-571.6838 498.0249,-562.9891 497.811,-554.5013"/>
<polygon fill="#000000" stroke="#000000" points="501.3047,-554.2067 497.5537,-544.2981 494.307,-554.3831 501.3047,-554.2067"/>
</g>
<!-- 16 -->
<g id="node17" class="node">
<title>16</title>
<path fill="#e88f4f" stroke="#000000" d="M707,-544C707,-544 586,-544 586,-544 580,-544 574,-538 574,-532 574,-532 574,-473 574,-473 574,-467 580,-461 586,-461 586,-461 707,-461 707,-461 713,-461 719,-467 719,-473 719,-473 719,-532 719,-532 719,-538 713,-544 707,-544"/>
<text text-anchor="start" x="582" y="-528.8" font-family="Helvetica,sans-Serif" font-size="14.00" fill="#000000">Adiponectin ≤ 6.806</text>
<text text-anchor="start" x="595.5" y="-513.8" font-family="Helvetica,sans-Serif" font-size="14.00" fill="#000000">entropy = 0.469</text>
<text text-anchor="start" x="602.5" y="-498.8" font-family="Helvetica,sans-Serif" font-size="14.00" fill="#000000">samples = 20</text>
<text text-anchor="start" x="601" y="-483.8" font-family="Helvetica,sans-Serif" font-size="14.00" fill="#000000">value = [18, 2]</text>
<text text-anchor="start" x="617.5" y="-468.8" font-family="Helvetica,sans-Serif" font-size="14.00" fill="#000000">class = 1</text>
</g>
<!-- 12&#45;&gt;16 -->
<g id="edge16" class="edge">
<title>12&#45;&gt;16</title>
<path fill="none" stroke="#000000" d="M550.9135,-579.8796C562.5952,-570.4229 575.0975,-560.302 587.081,-550.6011"/>
<polygon fill="#000000" stroke="#000000" points="589.2968,-553.3105 594.8671,-544.2981 584.8924,-547.8697 589.2968,-553.3105"/>
</g>
<!-- 14 -->
<g id="node15" class="node">
<title>14</title>
<path fill="#e58139" stroke="#000000" d="M422,-417.5C422,-417.5 345,-417.5 345,-417.5 339,-417.5 333,-411.5 333,-405.5 333,-405.5 333,-361.5 333,-361.5 333,-355.5 339,-349.5 345,-349.5 345,-349.5 422,-349.5 422,-349.5 428,-349.5 434,-355.5 434,-361.5 434,-361.5 434,-405.5 434,-405.5 434,-411.5 428,-417.5 422,-417.5"/>
<text text-anchor="start" x="341" y="-402.3" font-family="Helvetica,sans-Serif" font-size="14.00" fill="#000000">entropy = 0.0</text>
<text text-anchor="start" x="344" y="-387.3" font-family="Helvetica,sans-Serif" font-size="14.00" fill="#000000">samples = 1</text>
<text text-anchor="start" x="342" y="-372.3" font-family="Helvetica,sans-Serif" font-size="14.00" fill="#000000">value = [1, 0]</text>
<text text-anchor="start" x="354.5" y="-357.3" font-family="Helvetica,sans-Serif" font-size="14.00" fill="#000000">class = 1</text>
</g>
<!-- 13&#45;&gt;14 -->
<g id="edge14" class="edge">
<title>13&#45;&gt;14</title>
<path fill="none" stroke="#000000" d="M456.9781,-460.8796C446.0143,-449.3337 434.1103,-436.7976 423.1399,-425.2446"/>
<polygon fill="#000000" stroke="#000000" points="425.5087,-422.6564 416.0848,-417.8149 420.4327,-427.4766 425.5087,-422.6564"/>
</g>
<!-- 15 -->
<g id="node16" class="node">
<title>15</title>
<path fill="#399de5" stroke="#000000" d="M541,-417.5C541,-417.5 464,-417.5 464,-417.5 458,-417.5 452,-411.5 452,-405.5 452,-405.5 452,-361.5 452,-361.5 452,-355.5 458,-349.5 464,-349.5 464,-349.5 541,-349.5 541,-349.5 547,-349.5 553,-355.5 553,-361.5 553,-361.5 553,-405.5 553,-405.5 553,-411.5 547,-417.5 541,-417.5"/>
<text text-anchor="start" x="460" y="-402.3" font-family="Helvetica,sans-Serif" font-size="14.00" fill="#000000">entropy = 0.0</text>
<text text-anchor="start" x="463" y="-387.3" font-family="Helvetica,sans-Serif" font-size="14.00" fill="#000000">samples = 3</text>
<text text-anchor="start" x="461" y="-372.3" font-family="Helvetica,sans-Serif" font-size="14.00" fill="#000000">value = [0, 3]</text>
<text text-anchor="start" x="473.5" y="-357.3" font-family="Helvetica,sans-Serif" font-size="14.00" fill="#000000">class = 2</text>
</g>
<!-- 13&#45;&gt;15 -->
<g id="edge15" class="edge">
<title>13&#45;&gt;15</title>
<path fill="none" stroke="#000000" d="M498.5985,-460.8796C499.1363,-450.2134 499.7167,-438.7021 500.2613,-427.9015"/>
<polygon fill="#000000" stroke="#000000" points="503.7617,-427.9785 500.7698,-417.8149 496.7706,-427.626 503.7617,-427.9785"/>
</g>
<!-- 17 -->
<g id="node18" class="node">
<title>17</title>
<path fill="#eca572" stroke="#000000" d="M688.5,-425C688.5,-425 594.5,-425 594.5,-425 588.5,-425 582.5,-419 582.5,-413 582.5,-413 582.5,-354 582.5,-354 582.5,-348 588.5,-342 594.5,-342 594.5,-342 688.5,-342 688.5,-342 694.5,-342 700.5,-348 700.5,-354 700.5,-354 700.5,-413 700.5,-413 700.5,-419 694.5,-425 688.5,-425"/>
<text text-anchor="start" x="592.5" y="-409.8" font-family="Helvetica,sans-Serif" font-size="14.00" fill="#000000">Glucose ≤ 85.0</text>
<text text-anchor="start" x="590.5" y="-394.8" font-family="Helvetica,sans-Serif" font-size="14.00" fill="#000000">entropy = 0.764</text>
<text text-anchor="start" x="602" y="-379.8" font-family="Helvetica,sans-Serif" font-size="14.00" fill="#000000">samples = 9</text>
<text text-anchor="start" x="600" y="-364.8" font-family="Helvetica,sans-Serif" font-size="14.00" fill="#000000">value = [7, 2]</text>
<text text-anchor="start" x="612.5" y="-349.8" font-family="Helvetica,sans-Serif" font-size="14.00" fill="#000000">class = 1</text>
</g>
<!-- 16&#45;&gt;17 -->
<g id="edge17" class="edge">
<title>16&#45;&gt;17</title>
<path fill="none" stroke="#000000" d="M644.7512,-460.8796C644.4069,-452.6838 644.0416,-443.9891 643.6849,-435.5013"/>
<polygon fill="#000000" stroke="#000000" points="647.173,-435.1423 643.2562,-425.2981 640.1792,-435.4362 647.173,-435.1423"/>
</g>
<!-- 24 -->
<g id="node25" class="node">
<title>24</title>
<path fill="#e58139" stroke="#000000" d="M814,-417.5C814,-417.5 731,-417.5 731,-417.5 725,-417.5 719,-411.5 719,-405.5 719,-405.5 719,-361.5 719,-361.5 719,-355.5 725,-349.5 731,-349.5 731,-349.5 814,-349.5 814,-349.5 820,-349.5 826,-355.5 826,-361.5 826,-361.5 826,-405.5 826,-405.5 826,-411.5 820,-417.5 814,-417.5"/>
<text text-anchor="start" x="730" y="-402.3" font-family="Helvetica,sans-Serif" font-size="14.00" fill="#000000">entropy = 0.0</text>
<text text-anchor="start" x="728.5" y="-387.3" font-family="Helvetica,sans-Serif" font-size="14.00" fill="#000000">samples = 11</text>
<text text-anchor="start" x="727" y="-372.3" font-family="Helvetica,sans-Serif" font-size="14.00" fill="#000000">value = [11, 0]</text>
<text text-anchor="start" x="743.5" y="-357.3" font-family="Helvetica,sans-Serif" font-size="14.00" fill="#000000">class = 1</text>
</g>
<!-- 16&#45;&gt;24 -->
<g id="edge24" class="edge">
<title>16&#45;&gt;24</title>
<path fill="none" stroke="#000000" d="M690.5687,-460.8796C702.9102,-449.2237 716.3202,-436.5587 728.649,-424.9148"/>
<polygon fill="#000000" stroke="#000000" points="731.2996,-427.2258 736.1665,-417.8149 726.4932,-422.1366 731.2996,-427.2258"/>
</g>
<!-- 18 -->
<g id="node19" class="node">
<title>18</title>
<path fill="#e58139" stroke="#000000" d="M618,-298.5C618,-298.5 541,-298.5 541,-298.5 535,-298.5 529,-292.5 529,-286.5 529,-286.5 529,-242.5 529,-242.5 529,-236.5 535,-230.5 541,-230.5 541,-230.5 618,-230.5 618,-230.5 624,-230.5 630,-236.5 630,-242.5 630,-242.5 630,-286.5 630,-286.5 630,-292.5 624,-298.5 618,-298.5"/>
<text text-anchor="start" x="537" y="-283.3" font-family="Helvetica,sans-Serif" font-size="14.00" fill="#000000">entropy = 0.0</text>
<text text-anchor="start" x="540" y="-268.3" font-family="Helvetica,sans-Serif" font-size="14.00" fill="#000000">samples = 5</text>
<text text-anchor="start" x="538" y="-253.3" font-family="Helvetica,sans-Serif" font-size="14.00" fill="#000000">value = [5, 0]</text>
<text text-anchor="start" x="550.5" y="-238.3" font-family="Helvetica,sans-Serif" font-size="14.00" fill="#000000">class = 1</text>
</g>
<!-- 17&#45;&gt;18 -->
<g id="edge18" class="edge">
<title>17&#45;&gt;18</title>
<path fill="none" stroke="#000000" d="M619.8154,-341.8796C614.0864,-330.8835 607.8894,-318.9893 602.1126,-307.9015"/>
<polygon fill="#000000" stroke="#000000" points="605.103,-306.0662 597.3784,-298.8149 598.895,-309.3007 605.103,-306.0662"/>
</g>
<!-- 19 -->
<g id="node20" class="node">
<title>19</title>
<path fill="#ffffff" stroke="#000000" d="M744.5,-306C744.5,-306 660.5,-306 660.5,-306 654.5,-306 648.5,-300 648.5,-294 648.5,-294 648.5,-235 648.5,-235 648.5,-229 654.5,-223 660.5,-223 660.5,-223 744.5,-223 744.5,-223 750.5,-223 756.5,-229 756.5,-235 756.5,-235 756.5,-294 756.5,-294 756.5,-300 750.5,-306 744.5,-306"/>
<text text-anchor="start" x="656.5" y="-290.8" font-family="Helvetica,sans-Serif" font-size="14.00" fill="#000000">Leptin ≤ 7.693</text>
<text text-anchor="start" x="660" y="-275.8" font-family="Helvetica,sans-Serif" font-size="14.00" fill="#000000">entropy = 1.0</text>
<text text-anchor="start" x="663" y="-260.8" font-family="Helvetica,sans-Serif" font-size="14.00" fill="#000000">samples = 4</text>
<text text-anchor="start" x="661" y="-245.8" font-family="Helvetica,sans-Serif" font-size="14.00" fill="#000000">value = [2, 2]</text>
<text text-anchor="start" x="673.5" y="-230.8" font-family="Helvetica,sans-Serif" font-size="14.00" fill="#000000">class = 1</text>
</g>
<!-- 17&#45;&gt;19 -->
<g id="edge19" class="edge">
<title>17&#45;&gt;19</title>
<path fill="none" stroke="#000000" d="M662.8348,-341.8796C667.2207,-333.3236 671.8853,-324.2238 676.417,-315.3833"/>
<polygon fill="#000000" stroke="#000000" points="679.627,-316.7936 681.0741,-306.2981 673.3978,-313.6004 679.627,-316.7936"/>
</g>
<!-- 20 -->
<g id="node21" class="node">
<title>20</title>
<path fill="#e58139" stroke="#000000" d="M677,-179.5C677,-179.5 600,-179.5 600,-179.5 594,-179.5 588,-173.5 588,-167.5 588,-167.5 588,-123.5 588,-123.5 588,-117.5 594,-111.5 600,-111.5 600,-111.5 677,-111.5 677,-111.5 683,-111.5 689,-117.5 689,-123.5 689,-123.5 689,-167.5 689,-167.5 689,-173.5 683,-179.5 677,-179.5"/>
<text text-anchor="start" x="596" y="-164.3" font-family="Helvetica,sans-Serif" font-size="14.00" fill="#000000">entropy = 0.0</text>
<text text-anchor="start" x="599" y="-149.3" font-family="Helvetica,sans-Serif" font-size="14.00" fill="#000000">samples = 1</text>
<text text-anchor="start" x="597" y="-134.3" font-family="Helvetica,sans-Serif" font-size="14.00" fill="#000000">value = [1, 0]</text>
<text text-anchor="start" x="609.5" y="-119.3" font-family="Helvetica,sans-Serif" font-size="14.00" fill="#000000">class = 1</text>
</g>
<!-- 19&#45;&gt;20 -->
<g id="edge20" class="edge">
<title>19&#45;&gt;20</title>
<path fill="none" stroke="#000000" d="M680.1159,-222.8796C674.202,-211.8835 667.8051,-199.9893 661.842,-188.9015"/>
<polygon fill="#000000" stroke="#000000" points="664.7742,-186.9642 656.9551,-179.8149 658.6092,-190.2799 664.7742,-186.9642"/>
</g>
<!-- 21 -->
<g id="node22" class="node">
<title>21</title>
<path fill="#9ccef2" stroke="#000000" d="M813.5,-187C813.5,-187 719.5,-187 719.5,-187 713.5,-187 707.5,-181 707.5,-175 707.5,-175 707.5,-116 707.5,-116 707.5,-110 713.5,-104 719.5,-104 719.5,-104 813.5,-104 813.5,-104 819.5,-104 825.5,-110 825.5,-116 825.5,-116 825.5,-175 825.5,-175 825.5,-181 819.5,-187 813.5,-187"/>
<text text-anchor="start" x="723.5" y="-171.8" font-family="Helvetica,sans-Serif" font-size="14.00" fill="#000000">BMI ≤ 32.949</text>
<text text-anchor="start" x="715.5" y="-156.8" font-family="Helvetica,sans-Serif" font-size="14.00" fill="#000000">entropy = 0.918</text>
<text text-anchor="start" x="727" y="-141.8" font-family="Helvetica,sans-Serif" font-size="14.00" fill="#000000">samples = 3</text>
<text text-anchor="start" x="725" y="-126.8" font-family="Helvetica,sans-Serif" font-size="14.00" fill="#000000">value = [1, 2]</text>
<text text-anchor="start" x="737.5" y="-111.8" font-family="Helvetica,sans-Serif" font-size="14.00" fill="#000000">class = 2</text>
</g>
<!-- 19&#45;&gt;21 -->
<g id="edge21" class="edge">
<title>19&#45;&gt;21</title>
<path fill="none" stroke="#000000" d="M724.8841,-222.8796C729.4856,-214.3236 734.3796,-205.2238 739.1342,-196.3833"/>
<polygon fill="#000000" stroke="#000000" points="742.3662,-197.763 744.0204,-187.2981 736.2012,-194.4473 742.3662,-197.763"/>
</g>
<!-- 22 -->
<g id="node23" class="node">
<title>22</title>
<path fill="#399de5" stroke="#000000" d="M746,-68C746,-68 669,-68 669,-68 663,-68 657,-62 657,-56 657,-56 657,-12 657,-12 657,-6 663,0 669,0 669,0 746,0 746,0 752,0 758,-6 758,-12 758,-12 758,-56 758,-56 758,-62 752,-68 746,-68"/>
<text text-anchor="start" x="665" y="-52.8" font-family="Helvetica,sans-Serif" font-size="14.00" fill="#000000">entropy = 0.0</text>
<text text-anchor="start" x="668" y="-37.8" font-family="Helvetica,sans-Serif" font-size="14.00" fill="#000000">samples = 2</text>
<text text-anchor="start" x="666" y="-22.8" font-family="Helvetica,sans-Serif" font-size="14.00" fill="#000000">value = [0, 2]</text>
<text text-anchor="start" x="678.5" y="-7.8" font-family="Helvetica,sans-Serif" font-size="14.00" fill="#000000">class = 2</text>
</g>
<!-- 21&#45;&gt;22 -->
<g id="edge22" class="edge">
<title>21&#45;&gt;22</title>
<path fill="none" stroke="#000000" d="M744.5306,-103.9815C739.9105,-95.2504 735.0264,-86.0202 730.374,-77.2281"/>
<polygon fill="#000000" stroke="#000000" points="733.4013,-75.4655 725.6306,-68.2637 727.2141,-78.7395 733.4013,-75.4655"/>
</g>
<!-- 23 -->
<g id="node24" class="node">
<title>23</title>
<path fill="#e58139" stroke="#000000" d="M865,-68C865,-68 788,-68 788,-68 782,-68 776,-62 776,-56 776,-56 776,-12 776,-12 776,-6 782,0 788,0 788,0 865,0 865,0 871,0 877,-6 877,-12 877,-12 877,-56 877,-56 877,-62 871,-68 865,-68"/>
<text text-anchor="start" x="784" y="-52.8" font-family="Helvetica,sans-Serif" font-size="14.00" fill="#000000">entropy = 0.0</text>
<text text-anchor="start" x="787" y="-37.8" font-family="Helvetica,sans-Serif" font-size="14.00" fill="#000000">samples = 1</text>
<text text-anchor="start" x="785" y="-22.8" font-family="Helvetica,sans-Serif" font-size="14.00" fill="#000000">value = [1, 0]</text>
<text text-anchor="start" x="797.5" y="-7.8" font-family="Helvetica,sans-Serif" font-size="14.00" fill="#000000">class = 1</text>
</g>
<!-- 21&#45;&gt;23 -->
<g id="edge23" class="edge">
<title>21&#45;&gt;23</title>
<path fill="none" stroke="#000000" d="M788.8418,-103.9815C793.5402,-95.2504 798.5071,-86.0202 803.2383,-77.2281"/>
<polygon fill="#000000" stroke="#000000" points="806.4056,-78.7282 808.0621,-68.2637 800.2414,-75.4111 806.4056,-78.7282"/>
</g>
<!-- 27 -->
<g id="node28" class="node">
<title>27</title>
<path fill="#e58139" stroke="#000000" d="M800,-893.5C800,-893.5 723,-893.5 723,-893.5 717,-893.5 711,-887.5 711,-881.5 711,-881.5 711,-837.5 711,-837.5 711,-831.5 717,-825.5 723,-825.5 723,-825.5 800,-825.5 800,-825.5 806,-825.5 812,-831.5 812,-837.5 812,-837.5 812,-881.5 812,-881.5 812,-887.5 806,-893.5 800,-893.5"/>
<text text-anchor="start" x="719" y="-878.3" font-family="Helvetica,sans-Serif" font-size="14.00" fill="#000000">entropy = 0.0</text>
<text text-anchor="start" x="722" y="-863.3" font-family="Helvetica,sans-Serif" font-size="14.00" fill="#000000">samples = 2</text>
<text text-anchor="start" x="720" y="-848.3" font-family="Helvetica,sans-Serif" font-size="14.00" fill="#000000">value = [2, 0]</text>
<text text-anchor="start" x="732.5" y="-833.3" font-family="Helvetica,sans-Serif" font-size="14.00" fill="#000000">class = 1</text>
</g>
<!-- 26&#45;&gt;27 -->
<g id="edge27" class="edge">
<title>26&#45;&gt;27</title>
<path fill="none" stroke="#000000" d="M761.5,-936.8796C761.5,-926.2134 761.5,-914.7021 761.5,-903.9015"/>
<polygon fill="#000000" stroke="#000000" points="765.0001,-903.8149 761.5,-893.8149 758.0001,-903.815 765.0001,-903.8149"/>
</g>
<!-- 28 -->
<g id="node29" class="node">
<title>28</title>
<path fill="#57ace9" stroke="#000000" d="M963,-901C963,-901 842,-901 842,-901 836,-901 830,-895 830,-889 830,-889 830,-830 830,-830 830,-824 836,-818 842,-818 842,-818 963,-818 963,-818 969,-818 975,-824 975,-830 975,-830 975,-889 975,-889 975,-895 969,-901 963,-901"/>
<text text-anchor="start" x="838" y="-885.8" font-family="Helvetica,sans-Serif" font-size="14.00" fill="#000000">Adiponectin ≤ 7.721</text>
<text text-anchor="start" x="851.5" y="-870.8" font-family="Helvetica,sans-Serif" font-size="14.00" fill="#000000">entropy = 0.567</text>
<text text-anchor="start" x="858.5" y="-855.8" font-family="Helvetica,sans-Serif" font-size="14.00" fill="#000000">samples = 30</text>
<text text-anchor="start" x="857" y="-840.8" font-family="Helvetica,sans-Serif" font-size="14.00" fill="#000000">value = [4, 26]</text>
<text text-anchor="start" x="873.5" y="-825.8" font-family="Helvetica,sans-Serif" font-size="14.00" fill="#000000">class = 2</text>
</g>
<!-- 26&#45;&gt;28 -->
<g id="edge28" class="edge">
<title>26&#45;&gt;28</title>
<path fill="none" stroke="#000000" d="M810.815,-936.8796C821.9132,-927.513 833.7835,-917.4948 845.1777,-907.8784"/>
<polygon fill="#000000" stroke="#000000" points="847.5899,-910.4225 852.9746,-901.2981 843.075,-905.0731 847.5899,-910.4225"/>
</g>
<!-- 29 -->
<g id="node30" class="node">
<title>29</title>
<path fill="#91c9f1" stroke="#000000" d="M948.5,-782C948.5,-782 856.5,-782 856.5,-782 850.5,-782 844.5,-776 844.5,-770 844.5,-770 844.5,-711 844.5,-711 844.5,-705 850.5,-699 856.5,-699 856.5,-699 948.5,-699 948.5,-699 954.5,-699 960.5,-705 960.5,-711 960.5,-711 960.5,-770 960.5,-770 960.5,-776 954.5,-782 948.5,-782"/>
<text text-anchor="start" x="852.5" y="-766.8" font-family="Helvetica,sans-Serif" font-size="14.00" fill="#000000">Leptin ≤ 64.103</text>
<text text-anchor="start" x="855.5" y="-751.8" font-family="Helvetica,sans-Serif" font-size="14.00" fill="#000000">entropy = 0.89</text>
<text text-anchor="start" x="858.5" y="-736.8" font-family="Helvetica,sans-Serif" font-size="14.00" fill="#000000">samples = 13</text>
<text text-anchor="start" x="861" y="-721.8" font-family="Helvetica,sans-Serif" font-size="14.00" fill="#000000">value = [4, 9]</text>
<text text-anchor="start" x="873.5" y="-706.8" font-family="Helvetica,sans-Serif" font-size="14.00" fill="#000000">class = 2</text>
</g>
<!-- 28&#45;&gt;29 -->
<g id="edge29" class="edge">
<title>28&#45;&gt;29</title>
<path fill="none" stroke="#000000" d="M902.5,-817.8796C902.5,-809.6838 902.5,-800.9891 902.5,-792.5013"/>
<polygon fill="#000000" stroke="#000000" points="906.0001,-792.298 902.5,-782.2981 899.0001,-792.2981 906.0001,-792.298"/>
</g>
<!-- 36 -->
<g id="node37" class="node">
<title>36</title>
<path fill="#399de5" stroke="#000000" d="M1074,-774.5C1074,-774.5 991,-774.5 991,-774.5 985,-774.5 979,-768.5 979,-762.5 979,-762.5 979,-718.5 979,-718.5 979,-712.5 985,-706.5 991,-706.5 991,-706.5 1074,-706.5 1074,-706.5 1080,-706.5 1086,-712.5 1086,-718.5 1086,-718.5 1086,-762.5 1086,-762.5 1086,-768.5 1080,-774.5 1074,-774.5"/>
<text text-anchor="start" x="990" y="-759.3" font-family="Helvetica,sans-Serif" font-size="14.00" fill="#000000">entropy = 0.0</text>
<text text-anchor="start" x="988.5" y="-744.3" font-family="Helvetica,sans-Serif" font-size="14.00" fill="#000000">samples = 17</text>
<text text-anchor="start" x="987" y="-729.3" font-family="Helvetica,sans-Serif" font-size="14.00" fill="#000000">value = [0, 17]</text>
<text text-anchor="start" x="1003.5" y="-714.3" font-family="Helvetica,sans-Serif" font-size="14.00" fill="#000000">class = 2</text>
</g>
<!-- 28&#45;&gt;36 -->
<g id="edge36" class="edge">
<title>28&#45;&gt;36</title>
<path fill="none" stroke="#000000" d="M947.9677,-817.8796C960.8211,-806.1138 974.7979,-793.3197 987.6166,-781.5855"/>
<polygon fill="#000000" stroke="#000000" points="990.0001,-784.1488 995.0131,-774.8149 985.2736,-778.9854 990.0001,-784.1488"/>
</g>
<!-- 30 -->
<g id="node31" class="node">
<title>30</title>
<path fill="#65b3eb" stroke="#000000" d="M950.5,-663C950.5,-663 846.5,-663 846.5,-663 840.5,-663 834.5,-657 834.5,-651 834.5,-651 834.5,-592 834.5,-592 834.5,-586 840.5,-580 846.5,-580 846.5,-580 950.5,-580 950.5,-580 956.5,-580 962.5,-586 962.5,-592 962.5,-592 962.5,-651 962.5,-651 962.5,-657 956.5,-663 950.5,-663"/>
<text text-anchor="start" x="842.5" y="-647.8" font-family="Helvetica,sans-Serif" font-size="14.00" fill="#000000">Resistin ≤ 13.741</text>
<text text-anchor="start" x="847.5" y="-632.8" font-family="Helvetica,sans-Serif" font-size="14.00" fill="#000000">entropy = 0.684</text>
<text text-anchor="start" x="854.5" y="-617.8" font-family="Helvetica,sans-Serif" font-size="14.00" fill="#000000">samples = 11</text>
<text text-anchor="start" x="857" y="-602.8" font-family="Helvetica,sans-Serif" font-size="14.00" fill="#000000">value = [2, 9]</text>
<text text-anchor="start" x="869.5" y="-587.8" font-family="Helvetica,sans-Serif" font-size="14.00" fill="#000000">class = 2</text>
</g>
<!-- 29&#45;&gt;30 -->
<g id="edge30" class="edge">
<title>29&#45;&gt;30</title>
<path fill="none" stroke="#000000" d="M901.101,-698.8796C900.8255,-690.6838 900.5332,-681.9891 900.2479,-673.5013"/>
<polygon fill="#000000" stroke="#000000" points="903.739,-673.1748 899.905,-663.2981 896.743,-673.41 903.739,-673.1748"/>
</g>
<!-- 35 -->
<g id="node36" class="node">
<title>35</title>
<path fill="#e58139" stroke="#000000" d="M1070,-655.5C1070,-655.5 993,-655.5 993,-655.5 987,-655.5 981,-649.5 981,-643.5 981,-643.5 981,-599.5 981,-599.5 981,-593.5 987,-587.5 993,-587.5 993,-587.5 1070,-587.5 1070,-587.5 1076,-587.5 1082,-593.5 1082,-599.5 1082,-599.5 1082,-643.5 1082,-643.5 1082,-649.5 1076,-655.5 1070,-655.5"/>
<text text-anchor="start" x="989" y="-640.3" font-family="Helvetica,sans-Serif" font-size="14.00" fill="#000000">entropy = 0.0</text>
<text text-anchor="start" x="992" y="-625.3" font-family="Helvetica,sans-Serif" font-size="14.00" fill="#000000">samples = 2</text>
<text text-anchor="start" x="990" y="-610.3" font-family="Helvetica,sans-Serif" font-size="14.00" fill="#000000">value = [2, 0]</text>
<text text-anchor="start" x="1002.5" y="-595.3" font-family="Helvetica,sans-Serif" font-size="14.00" fill="#000000">class = 1</text>
</g>
<!-- 29&#45;&gt;35 -->
<g id="edge35" class="edge">
<title>29&#45;&gt;35</title>
<path fill="none" stroke="#000000" d="M947.6179,-698.8796C960.2533,-687.2237 973.9826,-674.5587 986.605,-662.9148"/>
<polygon fill="#000000" stroke="#000000" points="989.3244,-665.168 994.3015,-655.8149 984.578,-660.0228 989.3244,-665.168"/>
</g>
<!-- 31 -->
<g id="node32" class="node">
<title>31</title>
<path fill="#ffffff" stroke="#000000" d="M957,-544C957,-544 836,-544 836,-544 830,-544 824,-538 824,-532 824,-532 824,-473 824,-473 824,-467 830,-461 836,-461 836,-461 957,-461 957,-461 963,-461 969,-467 969,-473 969,-473 969,-532 969,-532 969,-538 963,-544 957,-544"/>
<text text-anchor="start" x="832" y="-528.8" font-family="Helvetica,sans-Serif" font-size="14.00" fill="#000000">Adiponectin ≤ 4.449</text>
<text text-anchor="start" x="854" y="-513.8" font-family="Helvetica,sans-Serif" font-size="14.00" fill="#000000">entropy = 1.0</text>
<text text-anchor="start" x="857" y="-498.8" font-family="Helvetica,sans-Serif" font-size="14.00" fill="#000000">samples = 4</text>
<text text-anchor="start" x="855" y="-483.8" font-family="Helvetica,sans-Serif" font-size="14.00" fill="#000000">value = [2, 2]</text>
<text text-anchor="start" x="867.5" y="-468.8" font-family="Helvetica,sans-Serif" font-size="14.00" fill="#000000">class = 1</text>
</g>
<!-- 30&#45;&gt;31 -->
<g id="edge31" class="edge">
<title>30&#45;&gt;31</title>
<path fill="none" stroke="#000000" d="M897.8005,-579.8796C897.6628,-571.6838 897.5166,-562.9891 897.374,-554.5013"/>
<polygon fill="#000000" stroke="#000000" points="900.8701,-554.2378 897.2025,-544.2981 893.8711,-554.3555 900.8701,-554.2378"/>
</g>
<!-- 34 -->
<g id="node35" class="node">
<title>34</title>
<path fill="#399de5" stroke="#000000" d="M1076,-536.5C1076,-536.5 999,-536.5 999,-536.5 993,-536.5 987,-530.5 987,-524.5 987,-524.5 987,-480.5 987,-480.5 987,-474.5 993,-468.5 999,-468.5 999,-468.5 1076,-468.5 1076,-468.5 1082,-468.5 1088,-474.5 1088,-480.5 1088,-480.5 1088,-524.5 1088,-524.5 1088,-530.5 1082,-536.5 1076,-536.5"/>
<text text-anchor="start" x="995" y="-521.3" font-family="Helvetica,sans-Serif" font-size="14.00" fill="#000000">entropy = 0.0</text>
<text text-anchor="start" x="998" y="-506.3" font-family="Helvetica,sans-Serif" font-size="14.00" fill="#000000">samples = 7</text>
<text text-anchor="start" x="996" y="-491.3" font-family="Helvetica,sans-Serif" font-size="14.00" fill="#000000">value = [0, 7]</text>
<text text-anchor="start" x="1008.5" y="-476.3" font-family="Helvetica,sans-Serif" font-size="14.00" fill="#000000">class = 2</text>
</g>
<!-- 30&#45;&gt;34 -->
<g id="edge34" class="edge">
<title>30&#45;&gt;34</title>
<path fill="none" stroke="#000000" d="M947.1155,-579.8796C960.8587,-568.1138 975.8031,-555.3197 989.5093,-543.5855"/>
<polygon fill="#000000" stroke="#000000" points="992.0976,-545.9771 997.4178,-536.8149 987.5452,-540.6596 992.0976,-545.9771"/>
</g>
<!-- 32 -->
<g id="node33" class="node">
<title>32</title>
<path fill="#399de5" stroke="#000000" d="M934,-417.5C934,-417.5 857,-417.5 857,-417.5 851,-417.5 845,-411.5 845,-405.5 845,-405.5 845,-361.5 845,-361.5 845,-355.5 851,-349.5 857,-349.5 857,-349.5 934,-349.5 934,-349.5 940,-349.5 946,-355.5 946,-361.5 946,-361.5 946,-405.5 946,-405.5 946,-411.5 940,-417.5 934,-417.5"/>
<text text-anchor="start" x="853" y="-402.3" font-family="Helvetica,sans-Serif" font-size="14.00" fill="#000000">entropy = 0.0</text>
<text text-anchor="start" x="856" y="-387.3" font-family="Helvetica,sans-Serif" font-size="14.00" fill="#000000">samples = 2</text>
<text text-anchor="start" x="854" y="-372.3" font-family="Helvetica,sans-Serif" font-size="14.00" fill="#000000">value = [0, 2]</text>
<text text-anchor="start" x="866.5" y="-357.3" font-family="Helvetica,sans-Serif" font-size="14.00" fill="#000000">class = 2</text>
</g>
<!-- 31&#45;&gt;32 -->
<g id="edge32" class="edge">
<title>31&#45;&gt;32</title>
<path fill="none" stroke="#000000" d="M896.1502,-460.8796C896.0606,-450.2134 895.9639,-438.7021 895.8731,-427.9015"/>
<polygon fill="#000000" stroke="#000000" points="899.3724,-427.7851 895.7884,-417.8149 892.3726,-427.844 899.3724,-427.7851"/>
</g>
<!-- 33 -->
<g id="node34" class="node">
<title>33</title>
<path fill="#e58139" stroke="#000000" d="M1053,-417.5C1053,-417.5 976,-417.5 976,-417.5 970,-417.5 964,-411.5 964,-405.5 964,-405.5 964,-361.5 964,-361.5 964,-355.5 970,-349.5 976,-349.5 976,-349.5 1053,-349.5 1053,-349.5 1059,-349.5 1065,-355.5 1065,-361.5 1065,-361.5 1065,-405.5 1065,-405.5 1065,-411.5 1059,-417.5 1053,-417.5"/>
<text text-anchor="start" x="972" y="-402.3" font-family="Helvetica,sans-Serif" font-size="14.00" fill="#000000">entropy = 0.0</text>
<text text-anchor="start" x="975" y="-387.3" font-family="Helvetica,sans-Serif" font-size="14.00" fill="#000000">samples = 2</text>
<text text-anchor="start" x="973" y="-372.3" font-family="Helvetica,sans-Serif" font-size="14.00" fill="#000000">value = [2, 0]</text>
<text text-anchor="start" x="985.5" y="-357.3" font-family="Helvetica,sans-Serif" font-size="14.00" fill="#000000">class = 1</text>
</g>
<!-- 31&#45;&gt;33 -->
<g id="edge33" class="edge">
<title>31&#45;&gt;33</title>
<path fill="none" stroke="#000000" d="M937.7707,-460.8796C949.2195,-449.3337 961.6503,-436.7976 973.1062,-425.2446"/>
<polygon fill="#000000" stroke="#000000" points="975.9175,-427.3802 980.4734,-417.8149 970.9469,-422.4514 975.9175,-427.3802"/>
</g>
</g>
</svg>
