<?xml version="1.0" encoding="UTF-8" standalone="no"?>
<!DOCTYPE svg PUBLIC "-//W3C//DTD SVG 1.1//EN"
 "http://www.w3.org/Graphics/SVG/1.1/DTD/svg11.dtd">
<!-- Generated by graphviz version 2.40.1 (20161225.0304)
 -->
<!-- Title: Tree Pages: 1 -->
<svg width="1106pt" height="909pt"
 viewBox="0.00 0.00 1106.00 909.00" xmlns="http://www.w3.org/2000/svg" xmlns:xlink="http://www.w3.org/1999/xlink">
<g id="graph0" class="graph" transform="scale(1 1) rotate(0) translate(4 905)">
<title>Tree</title>
<polygon fill="#ffffff" stroke="transparent" points="-4,4 -4,-905 1102,-905 1102,4 -4,4"/>
<!-- 0 -->
<g id="node1" class="node">
<title>0</title>
<path fill="#fafdfe" stroke="#000000" d="M662.5,-901C662.5,-901 570.5,-901 570.5,-901 564.5,-901 558.5,-895 558.5,-889 558.5,-889 558.5,-830 558.5,-830 558.5,-824 564.5,-818 570.5,-818 570.5,-818 662.5,-818 662.5,-818 668.5,-818 674.5,-824 674.5,-830 674.5,-830 674.5,-889 674.5,-889 674.5,-895 668.5,-901 662.5,-901"/>
<text text-anchor="start" x="567.5" y="-885.8" font-family="Helvetica,sans-Serif" font-size="14.00" fill="#000000">Glucose ≤ 96.5</text>
<text text-anchor="start" x="587" y="-870.8" font-family="Helvetica,sans-Serif" font-size="14.00" fill="#000000">gini = 0.5</text>
<text text-anchor="start" x="572.5" y="-855.8" font-family="Helvetica,sans-Serif" font-size="14.00" fill="#000000">samples = 81</text>
<text text-anchor="start" x="566.5" y="-840.8" font-family="Helvetica,sans-Serif" font-size="14.00" fill="#000000">value = [40, 41]</text>
<text text-anchor="start" x="587.5" y="-825.8" font-family="Helvetica,sans-Serif" font-size="14.00" fill="#000000">class = 2</text>
</g>
<!-- 1 -->
<g id="node2" class="node">
<title>1</title>
<path fill="#f0b990" stroke="#000000" d="M600.5,-782C600.5,-782 496.5,-782 496.5,-782 490.5,-782 484.5,-776 484.5,-770 484.5,-770 484.5,-711 484.5,-711 484.5,-705 490.5,-699 496.5,-699 496.5,-699 600.5,-699 600.5,-699 606.5,-699 612.5,-705 612.5,-711 612.5,-711 612.5,-770 612.5,-770 612.5,-776 606.5,-782 600.5,-782"/>
<text text-anchor="start" x="492.5" y="-766.8" font-family="Helvetica,sans-Serif" font-size="14.00" fill="#000000">Resistin ≤ 13.248</text>
<text text-anchor="start" x="510.5" y="-751.8" font-family="Helvetica,sans-Serif" font-size="14.00" fill="#000000">gini = 0.425</text>
<text text-anchor="start" x="504.5" y="-736.8" font-family="Helvetica,sans-Serif" font-size="14.00" fill="#000000">samples = 49</text>
<text text-anchor="start" x="498.5" y="-721.8" font-family="Helvetica,sans-Serif" font-size="14.00" fill="#000000">value = [34, 15]</text>
<text text-anchor="start" x="519.5" y="-706.8" font-family="Helvetica,sans-Serif" font-size="14.00" fill="#000000">class = 1</text>
</g>
<!-- 0&#45;&gt;1 -->
<g id="edge1" class="edge">
<title>0&#45;&gt;1</title>
<path fill="none" stroke="#000000" d="M592.7169,-817.8796C587.7763,-809.2335 582.5184,-800.0322 577.4167,-791.1042"/>
<polygon fill="#000000" stroke="#000000" points="580.3849,-789.244 572.3846,-782.2981 574.3072,-792.717 580.3849,-789.244"/>
<text text-anchor="middle" x="565.8067" y="-802.7172" font-family="Helvetica,sans-Serif" font-size="14.00" fill="#000000">True</text>
</g>
<!-- 18 -->
<g id="node19" class="node">
<title>18</title>
<path fill="#67b4eb" stroke="#000000" d="M726.5,-782C726.5,-782 642.5,-782 642.5,-782 636.5,-782 630.5,-776 630.5,-770 630.5,-770 630.5,-711 630.5,-711 630.5,-705 636.5,-699 642.5,-699 642.5,-699 726.5,-699 726.5,-699 732.5,-699 738.5,-705 738.5,-711 738.5,-711 738.5,-770 738.5,-770 738.5,-776 732.5,-782 726.5,-782"/>
<text text-anchor="start" x="638.5" y="-766.8" font-family="Helvetica,sans-Serif" font-size="14.00" fill="#000000">Leptin ≤ 6.059</text>
<text text-anchor="start" x="646.5" y="-751.8" font-family="Helvetica,sans-Serif" font-size="14.00" fill="#000000">gini = 0.305</text>
<text text-anchor="start" x="640.5" y="-736.8" font-family="Helvetica,sans-Serif" font-size="14.00" fill="#000000">samples = 32</text>
<text text-anchor="start" x="639" y="-721.8" font-family="Helvetica,sans-Serif" font-size="14.00" fill="#000000">value = [6, 26]</text>
<text text-anchor="start" x="655.5" y="-706.8" font-family="Helvetica,sans-Serif" font-size="14.00" fill="#000000">class = 2</text>
</g>
<!-- 0&#45;&gt;18 -->
<g id="edge18" class="edge">
<title>0&#45;&gt;18</title>
<path fill="none" stroke="#000000" d="M640.2831,-817.8796C645.2237,-809.2335 650.4816,-800.0322 655.5833,-791.1042"/>
<polygon fill="#000000" stroke="#000000" points="658.6928,-792.717 660.6154,-782.2981 652.6151,-789.244 658.6928,-792.717"/>
<text text-anchor="middle" x="667.1933" y="-802.7172" font-family="Helvetica,sans-Serif" font-size="14.00" fill="#000000">False</text>
</g>
<!-- 2 -->
<g id="node3" class="node">
<title>2</title>
<path fill="#eb9d65" stroke="#000000" d="M469,-663C469,-663 374,-663 374,-663 368,-663 362,-657 362,-651 362,-651 362,-592 362,-592 362,-586 368,-580 374,-580 374,-580 469,-580 469,-580 475,-580 481,-586 481,-592 481,-592 481,-651 481,-651 481,-657 475,-663 469,-663"/>
<text text-anchor="start" x="370" y="-647.8" font-family="Helvetica,sans-Serif" font-size="14.00" fill="#000000">Insulin ≤ 15.352</text>
<text text-anchor="start" x="383.5" y="-632.8" font-family="Helvetica,sans-Serif" font-size="14.00" fill="#000000">gini = 0.298</text>
<text text-anchor="start" x="377.5" y="-617.8" font-family="Helvetica,sans-Serif" font-size="14.00" fill="#000000">samples = 33</text>
<text text-anchor="start" x="376" y="-602.8" font-family="Helvetica,sans-Serif" font-size="14.00" fill="#000000">value = [27, 6]</text>
<text text-anchor="start" x="392.5" y="-587.8" font-family="Helvetica,sans-Serif" font-size="14.00" fill="#000000">class = 1</text>
</g>
<!-- 1&#45;&gt;2 -->
<g id="edge2" class="edge">
<title>1&#45;&gt;2</title>
<path fill="none" stroke="#000000" d="M504.0816,-698.8796C494.1814,-689.6031 483.5991,-679.6874 473.4269,-670.1559"/>
<polygon fill="#000000" stroke="#000000" points="475.7984,-667.5816 466.108,-663.2981 471.0121,-672.6896 475.7984,-667.5816"/>
</g>
<!-- 15 -->
<g id="node16" class="node">
<title>15</title>
<path fill="#d3e9f9" stroke="#000000" d="M591.5,-663C591.5,-663 511.5,-663 511.5,-663 505.5,-663 499.5,-657 499.5,-651 499.5,-651 499.5,-592 499.5,-592 499.5,-586 505.5,-580 511.5,-580 511.5,-580 591.5,-580 591.5,-580 597.5,-580 603.5,-586 603.5,-592 603.5,-592 603.5,-651 603.5,-651 603.5,-657 597.5,-663 591.5,-663"/>
<text text-anchor="start" x="508.5" y="-647.8" font-family="Helvetica,sans-Serif" font-size="14.00" fill="#000000">BMI ≤ 29.972</text>
<text text-anchor="start" x="513.5" y="-632.8" font-family="Helvetica,sans-Serif" font-size="14.00" fill="#000000">gini = 0.492</text>
<text text-anchor="start" x="507.5" y="-617.8" font-family="Helvetica,sans-Serif" font-size="14.00" fill="#000000">samples = 16</text>
<text text-anchor="start" x="510" y="-602.8" font-family="Helvetica,sans-Serif" font-size="14.00" fill="#000000">value = [7, 9]</text>
<text text-anchor="start" x="522.5" y="-587.8" font-family="Helvetica,sans-Serif" font-size="14.00" fill="#000000">class = 2</text>
</g>
<!-- 1&#45;&gt;15 -->
<g id="edge15" class="edge">
<title>1&#45;&gt;15</title>
<path fill="none" stroke="#000000" d="M549.5493,-698.8796C549.7559,-690.6838 549.9751,-681.9891 550.189,-673.5013"/>
<polygon fill="#000000" stroke="#000000" points="553.693,-673.3831 550.4463,-663.2981 546.6953,-673.2067 553.693,-673.3831"/>
</g>
<!-- 3 -->
<g id="node4" class="node">
<title>3</title>
<path fill="#e99456" stroke="#000000" d="M345.5,-544C345.5,-544 261.5,-544 261.5,-544 255.5,-544 249.5,-538 249.5,-532 249.5,-532 249.5,-473 249.5,-473 249.5,-467 255.5,-461 261.5,-461 261.5,-461 345.5,-461 345.5,-461 351.5,-461 357.5,-467 357.5,-473 357.5,-473 357.5,-532 357.5,-532 357.5,-538 351.5,-544 345.5,-544"/>
<text text-anchor="start" x="257.5" y="-528.8" font-family="Helvetica,sans-Serif" font-size="14.00" fill="#000000">Leptin ≤ 47.33</text>
<text text-anchor="start" x="265.5" y="-513.8" font-family="Helvetica,sans-Serif" font-size="14.00" fill="#000000">gini = 0.225</text>
<text text-anchor="start" x="259.5" y="-498.8" font-family="Helvetica,sans-Serif" font-size="14.00" fill="#000000">samples = 31</text>
<text text-anchor="start" x="258" y="-483.8" font-family="Helvetica,sans-Serif" font-size="14.00" fill="#000000">value = [27, 4]</text>
<text text-anchor="start" x="274.5" y="-468.8" font-family="Helvetica,sans-Serif" font-size="14.00" fill="#000000">class = 1</text>
</g>
<!-- 2&#45;&gt;3 -->
<g id="edge3" class="edge">
<title>2&#45;&gt;3</title>
<path fill="none" stroke="#000000" d="M380.2293,-579.8796C371.1201,-570.6931 361.3892,-560.8798 352.0224,-551.4336"/>
<polygon fill="#000000" stroke="#000000" points="354.4733,-548.9345 344.9468,-544.2981 349.5027,-553.8634 354.4733,-548.9345"/>
</g>
<!-- 14 -->
<g id="node15" class="node">
<title>14</title>
<path fill="#399de5" stroke="#000000" d="M463,-536.5C463,-536.5 388,-536.5 388,-536.5 382,-536.5 376,-530.5 376,-524.5 376,-524.5 376,-480.5 376,-480.5 376,-474.5 382,-468.5 388,-468.5 388,-468.5 463,-468.5 463,-468.5 469,-468.5 475,-474.5 475,-480.5 475,-480.5 475,-524.5 475,-524.5 475,-530.5 469,-536.5 463,-536.5"/>
<text text-anchor="start" x="396" y="-521.3" font-family="Helvetica,sans-Serif" font-size="14.00" fill="#000000">gini = 0.0</text>
<text text-anchor="start" x="386" y="-506.3" font-family="Helvetica,sans-Serif" font-size="14.00" fill="#000000">samples = 2</text>
<text text-anchor="start" x="384" y="-491.3" font-family="Helvetica,sans-Serif" font-size="14.00" fill="#000000">value = [0, 2]</text>
<text text-anchor="start" x="396.5" y="-476.3" font-family="Helvetica,sans-Serif" font-size="14.00" fill="#000000">class = 2</text>
</g>
<!-- 2&#45;&gt;14 -->
<g id="edge14" class="edge">
<title>2&#45;&gt;14</title>
<path fill="none" stroke="#000000" d="M422.899,-579.8796C423.2575,-569.2134 423.6445,-557.7021 424.0075,-546.9015"/>
<polygon fill="#000000" stroke="#000000" points="427.5085,-546.9269 424.3466,-536.8149 420.5125,-546.6917 427.5085,-546.9269"/>
</g>
<!-- 4 -->
<g id="node5" class="node">
<title>4</title>
<path fill="#e88f4f" stroke="#000000" d="M289.5,-425C289.5,-425 185.5,-425 185.5,-425 179.5,-425 173.5,-419 173.5,-413 173.5,-413 173.5,-354 173.5,-354 173.5,-348 179.5,-342 185.5,-342 185.5,-342 289.5,-342 289.5,-342 295.5,-342 301.5,-348 301.5,-354 301.5,-354 301.5,-413 301.5,-413 301.5,-419 295.5,-425 289.5,-425"/>
<text text-anchor="start" x="181.5" y="-409.8" font-family="Helvetica,sans-Serif" font-size="14.00" fill="#000000">MCP.1 ≤ 209.469</text>
<text text-anchor="start" x="204" y="-394.8" font-family="Helvetica,sans-Serif" font-size="14.00" fill="#000000">gini = 0.18</text>
<text text-anchor="start" x="193.5" y="-379.8" font-family="Helvetica,sans-Serif" font-size="14.00" fill="#000000">samples = 30</text>
<text text-anchor="start" x="192" y="-364.8" font-family="Helvetica,sans-Serif" font-size="14.00" fill="#000000">value = [27, 3]</text>
<text text-anchor="start" x="208.5" y="-349.8" font-family="Helvetica,sans-Serif" font-size="14.00" fill="#000000">class = 1</text>
</g>
<!-- 3&#45;&gt;4 -->
<g id="edge4" class="edge">
<title>3&#45;&gt;4</title>
<path fill="none" stroke="#000000" d="M280.4164,-460.8796C275.6211,-452.2335 270.5178,-443.0322 265.5662,-434.1042"/>
<polygon fill="#000000" stroke="#000000" points="268.5931,-432.3455 260.6821,-425.2981 262.4716,-435.7407 268.5931,-432.3455"/>
</g>
<!-- 13 -->
<g id="node14" class="node">
<title>13</title>
<path fill="#399de5" stroke="#000000" d="M407,-417.5C407,-417.5 332,-417.5 332,-417.5 326,-417.5 320,-411.5 320,-405.5 320,-405.5 320,-361.5 320,-361.5 320,-355.5 326,-349.5 332,-349.5 332,-349.5 407,-349.5 407,-349.5 413,-349.5 419,-355.5 419,-361.5 419,-361.5 419,-405.5 419,-405.5 419,-411.5 413,-417.5 407,-417.5"/>
<text text-anchor="start" x="340" y="-402.3" font-family="Helvetica,sans-Serif" font-size="14.00" fill="#000000">gini = 0.0</text>
<text text-anchor="start" x="330" y="-387.3" font-family="Helvetica,sans-Serif" font-size="14.00" fill="#000000">samples = 1</text>
<text text-anchor="start" x="328" y="-372.3" font-family="Helvetica,sans-Serif" font-size="14.00" fill="#000000">value = [0, 1]</text>
<text text-anchor="start" x="340.5" y="-357.3" font-family="Helvetica,sans-Serif" font-size="14.00" fill="#000000">class = 2</text>
</g>
<!-- 3&#45;&gt;13 -->
<g id="edge13" class="edge">
<title>3&#45;&gt;13</title>
<path fill="none" stroke="#000000" d="M326.5836,-460.8796C332.7433,-449.7735 339.4111,-437.7513 345.6129,-426.5691"/>
<polygon fill="#000000" stroke="#000000" points="348.6787,-428.2576 350.4682,-417.8149 342.5572,-424.8624 348.6787,-428.2576"/>
</g>
<!-- 5 -->
<g id="node6" class="node">
<title>5</title>
<path fill="#f2c09c" stroke="#000000" d="M217,-306C217,-306 96,-306 96,-306 90,-306 84,-300 84,-294 84,-294 84,-235 84,-235 84,-229 90,-223 96,-223 96,-223 217,-223 217,-223 223,-223 229,-229 229,-235 229,-235 229,-294 229,-294 229,-300 223,-306 217,-306"/>
<text text-anchor="start" x="92" y="-290.8" font-family="Helvetica,sans-Serif" font-size="14.00" fill="#000000">Adiponectin ≤ 17.31</text>
<text text-anchor="start" x="118.5" y="-275.8" font-family="Helvetica,sans-Serif" font-size="14.00" fill="#000000">gini = 0.444</text>
<text text-anchor="start" x="117" y="-260.8" font-family="Helvetica,sans-Serif" font-size="14.00" fill="#000000">samples = 6</text>
<text text-anchor="start" x="115" y="-245.8" font-family="Helvetica,sans-Serif" font-size="14.00" fill="#000000">value = [4, 2]</text>
<text text-anchor="start" x="127.5" y="-230.8" font-family="Helvetica,sans-Serif" font-size="14.00" fill="#000000">class = 1</text>
</g>
<!-- 4&#45;&gt;5 -->
<g id="edge5" class="edge">
<title>4&#45;&gt;5</title>
<path fill="none" stroke="#000000" d="M209.1701,-341.8796C203.2237,-333.1434 196.8914,-323.8404 190.755,-314.8253"/>
<polygon fill="#000000" stroke="#000000" points="193.4711,-312.5953 184.9508,-306.2981 187.6844,-316.5342 193.4711,-312.5953"/>
</g>
<!-- 8 -->
<g id="node9" class="node">
<title>8</title>
<path fill="#e68642" stroke="#000000" d="M380,-306C380,-306 259,-306 259,-306 253,-306 247,-300 247,-294 247,-294 247,-235 247,-235 247,-229 253,-223 259,-223 259,-223 380,-223 380,-223 386,-223 392,-229 392,-235 392,-235 392,-294 392,-294 392,-300 386,-306 380,-306"/>
<text text-anchor="start" x="255" y="-290.8" font-family="Helvetica,sans-Serif" font-size="14.00" fill="#000000">Adiponectin ≤ 3.986</text>
<text text-anchor="start" x="286" y="-275.8" font-family="Helvetica,sans-Serif" font-size="14.00" fill="#000000">gini = 0.08</text>
<text text-anchor="start" x="275.5" y="-260.8" font-family="Helvetica,sans-Serif" font-size="14.00" fill="#000000">samples = 24</text>
<text text-anchor="start" x="274" y="-245.8" font-family="Helvetica,sans-Serif" font-size="14.00" fill="#000000">value = [23, 1]</text>
<text text-anchor="start" x="290.5" y="-230.8" font-family="Helvetica,sans-Serif" font-size="14.00" fill="#000000">class = 1</text>
</g>
<!-- 4&#45;&gt;8 -->
<g id="edge8" class="edge">
<title>4&#45;&gt;8</title>
<path fill="none" stroke="#000000" d="M266.1796,-341.8796C272.2615,-333.0534 278.7422,-323.6485 285.0141,-314.5466"/>
<polygon fill="#000000" stroke="#000000" points="287.9059,-316.5184 290.698,-306.2981 282.1418,-312.5465 287.9059,-316.5184"/>
</g>
<!-- 6 -->
<g id="node7" class="node">
<title>6</title>
<path fill="#399de5" stroke="#000000" d="M87,-179.5C87,-179.5 12,-179.5 12,-179.5 6,-179.5 0,-173.5 0,-167.5 0,-167.5 0,-123.5 0,-123.5 0,-117.5 6,-111.5 12,-111.5 12,-111.5 87,-111.5 87,-111.5 93,-111.5 99,-117.5 99,-123.5 99,-123.5 99,-167.5 99,-167.5 99,-173.5 93,-179.5 87,-179.5"/>
<text text-anchor="start" x="20" y="-164.3" font-family="Helvetica,sans-Serif" font-size="14.00" fill="#000000">gini = 0.0</text>
<text text-anchor="start" x="10" y="-149.3" font-family="Helvetica,sans-Serif" font-size="14.00" fill="#000000">samples = 2</text>
<text text-anchor="start" x="8" y="-134.3" font-family="Helvetica,sans-Serif" font-size="14.00" fill="#000000">value = [0, 2]</text>
<text text-anchor="start" x="20.5" y="-119.3" font-family="Helvetica,sans-Serif" font-size="14.00" fill="#000000">class = 2</text>
</g>
<!-- 5&#45;&gt;6 -->
<g id="edge6" class="edge">
<title>5&#45;&gt;6</title>
<path fill="none" stroke="#000000" d="M119.0766,-222.8796C108.7939,-211.4436 97.6377,-199.0363 87.3321,-187.575"/>
<polygon fill="#000000" stroke="#000000" points="89.6435,-184.9108 80.3546,-179.8149 84.4382,-189.5912 89.6435,-184.9108"/>
</g>
<!-- 7 -->
<g id="node8" class="node">
<title>7</title>
<path fill="#e58139" stroke="#000000" d="M204,-179.5C204,-179.5 129,-179.5 129,-179.5 123,-179.5 117,-173.5 117,-167.5 117,-167.5 117,-123.5 117,-123.5 117,-117.5 123,-111.5 129,-111.5 129,-111.5 204,-111.5 204,-111.5 210,-111.5 216,-117.5 216,-123.5 216,-123.5 216,-167.5 216,-167.5 216,-173.5 210,-179.5 204,-179.5"/>
<text text-anchor="start" x="137" y="-164.3" font-family="Helvetica,sans-Serif" font-size="14.00" fill="#000000">gini = 0.0</text>
<text text-anchor="start" x="127" y="-149.3" font-family="Helvetica,sans-Serif" font-size="14.00" fill="#000000">samples = 4</text>
<text text-anchor="start" x="125" y="-134.3" font-family="Helvetica,sans-Serif" font-size="14.00" fill="#000000">value = [4, 0]</text>
<text text-anchor="start" x="137.5" y="-119.3" font-family="Helvetica,sans-Serif" font-size="14.00" fill="#000000">class = 1</text>
</g>
<!-- 5&#45;&gt;7 -->
<g id="edge7" class="edge">
<title>5&#45;&gt;7</title>
<path fill="none" stroke="#000000" d="M159.9975,-222.8796C160.8938,-212.2134 161.8612,-200.7021 162.7688,-189.9015"/>
<polygon fill="#000000" stroke="#000000" points="166.2666,-190.0729 163.6164,-179.8149 159.2912,-189.4867 166.2666,-190.0729"/>
</g>
<!-- 9 -->
<g id="node10" class="node">
<title>9</title>
<path fill="#ffffff" stroke="#000000" d="M352.5,-187C352.5,-187 266.5,-187 266.5,-187 260.5,-187 254.5,-181 254.5,-175 254.5,-175 254.5,-116 254.5,-116 254.5,-110 260.5,-104 266.5,-104 266.5,-104 352.5,-104 352.5,-104 358.5,-104 364.5,-110 364.5,-116 364.5,-116 364.5,-175 364.5,-175 364.5,-181 358.5,-187 352.5,-187"/>
<text text-anchor="start" x="262.5" y="-171.8" font-family="Helvetica,sans-Serif" font-size="14.00" fill="#000000">Insulin ≤ 3.793</text>
<text text-anchor="start" x="280" y="-156.8" font-family="Helvetica,sans-Serif" font-size="14.00" fill="#000000">gini = 0.5</text>
<text text-anchor="start" x="270" y="-141.8" font-family="Helvetica,sans-Serif" font-size="14.00" fill="#000000">samples = 2</text>
<text text-anchor="start" x="268" y="-126.8" font-family="Helvetica,sans-Serif" font-size="14.00" fill="#000000">value = [1, 1]</text>
<text text-anchor="start" x="280.5" y="-111.8" font-family="Helvetica,sans-Serif" font-size="14.00" fill="#000000">class = 1</text>
</g>
<!-- 8&#45;&gt;9 -->
<g id="edge9" class="edge">
<title>8&#45;&gt;9</title>
<path fill="none" stroke="#000000" d="M316.0025,-222.8796C315.3138,-214.6838 314.5831,-205.9891 313.8699,-197.5013"/>
<polygon fill="#000000" stroke="#000000" points="317.3376,-196.9698 313.0124,-187.2981 310.3622,-197.5561 317.3376,-196.9698"/>
</g>
<!-- 12 -->
<g id="node13" class="node">
<title>12</title>
<path fill="#e58139" stroke="#000000" d="M478,-179.5C478,-179.5 395,-179.5 395,-179.5 389,-179.5 383,-173.5 383,-167.5 383,-167.5 383,-123.5 383,-123.5 383,-117.5 389,-111.5 395,-111.5 395,-111.5 478,-111.5 478,-111.5 484,-111.5 490,-117.5 490,-123.5 490,-123.5 490,-167.5 490,-167.5 490,-173.5 484,-179.5 478,-179.5"/>
<text text-anchor="start" x="407" y="-164.3" font-family="Helvetica,sans-Serif" font-size="14.00" fill="#000000">gini = 0.0</text>
<text text-anchor="start" x="392.5" y="-149.3" font-family="Helvetica,sans-Serif" font-size="14.00" fill="#000000">samples = 22</text>
<text text-anchor="start" x="391" y="-134.3" font-family="Helvetica,sans-Serif" font-size="14.00" fill="#000000">value = [22, 0]</text>
<text text-anchor="start" x="407.5" y="-119.3" font-family="Helvetica,sans-Serif" font-size="14.00" fill="#000000">class = 1</text>
</g>
<!-- 8&#45;&gt;12 -->
<g id="edge12" class="edge">
<title>8&#45;&gt;12</title>
<path fill="none" stroke="#000000" d="M360.4209,-222.8796C371.7728,-211.3337 384.0982,-198.7976 395.457,-187.2446"/>
<polygon fill="#000000" stroke="#000000" points="398.2466,-189.3995 402.7618,-179.8149 393.2551,-184.4919 398.2466,-189.3995"/>
</g>
<!-- 10 -->
<g id="node11" class="node">
<title>10</title>
<path fill="#399de5" stroke="#000000" d="M289,-68C289,-68 214,-68 214,-68 208,-68 202,-62 202,-56 202,-56 202,-12 202,-12 202,-6 208,0 214,0 214,0 289,0 289,0 295,0 301,-6 301,-12 301,-12 301,-56 301,-56 301,-62 295,-68 289,-68"/>
<text text-anchor="start" x="222" y="-52.8" font-family="Helvetica,sans-Serif" font-size="14.00" fill="#000000">gini = 0.0</text>
<text text-anchor="start" x="212" y="-37.8" font-family="Helvetica,sans-Serif" font-size="14.00" fill="#000000">samples = 1</text>
<text text-anchor="start" x="210" y="-22.8" font-family="Helvetica,sans-Serif" font-size="14.00" fill="#000000">value = [0, 1]</text>
<text text-anchor="start" x="222.5" y="-7.8" font-family="Helvetica,sans-Serif" font-size="14.00" fill="#000000">class = 2</text>
</g>
<!-- 9&#45;&gt;10 -->
<g id="edge10" class="edge">
<title>9&#45;&gt;10</title>
<path fill="none" stroke="#000000" d="M287.9029,-103.9815C283.3612,-95.2504 278.5598,-86.0202 273.9863,-77.2281"/>
<polygon fill="#000000" stroke="#000000" points="277.0431,-75.52 269.3233,-68.2637 270.8331,-78.7504 277.0431,-75.52"/>
</g>
<!-- 11 -->
<g id="node12" class="node">
<title>11</title>
<path fill="#e58139" stroke="#000000" d="M406,-68C406,-68 331,-68 331,-68 325,-68 319,-62 319,-56 319,-56 319,-12 319,-12 319,-6 325,0 331,0 331,0 406,0 406,0 412,0 418,-6 418,-12 418,-12 418,-56 418,-56 418,-62 412,-68 406,-68"/>
<text text-anchor="start" x="339" y="-52.8" font-family="Helvetica,sans-Serif" font-size="14.00" fill="#000000">gini = 0.0</text>
<text text-anchor="start" x="329" y="-37.8" font-family="Helvetica,sans-Serif" font-size="14.00" fill="#000000">samples = 1</text>
<text text-anchor="start" x="327" y="-22.8" font-family="Helvetica,sans-Serif" font-size="14.00" fill="#000000">value = [1, 0]</text>
<text text-anchor="start" x="339.5" y="-7.8" font-family="Helvetica,sans-Serif" font-size="14.00" fill="#000000">class = 1</text>
</g>
<!-- 9&#45;&gt;11 -->
<g id="edge11" class="edge">
<title>9&#45;&gt;11</title>
<path fill="none" stroke="#000000" d="M331.4694,-103.9815C336.0895,-95.2504 340.9736,-86.0202 345.626,-77.2281"/>
<polygon fill="#000000" stroke="#000000" points="348.7859,-78.7395 350.3694,-68.2637 342.5987,-75.4655 348.7859,-78.7395"/>
</g>
<!-- 16 -->
<g id="node17" class="node">
<title>16</title>
<path fill="#399de5" stroke="#000000" d="M586,-536.5C586,-536.5 511,-536.5 511,-536.5 505,-536.5 499,-530.5 499,-524.5 499,-524.5 499,-480.5 499,-480.5 499,-474.5 505,-468.5 511,-468.5 511,-468.5 586,-468.5 586,-468.5 592,-468.5 598,-474.5 598,-480.5 598,-480.5 598,-524.5 598,-524.5 598,-530.5 592,-536.5 586,-536.5"/>
<text text-anchor="start" x="519" y="-521.3" font-family="Helvetica,sans-Serif" font-size="14.00" fill="#000000">gini = 0.0</text>
<text text-anchor="start" x="509" y="-506.3" font-family="Helvetica,sans-Serif" font-size="14.00" fill="#000000">samples = 9</text>
<text text-anchor="start" x="507" y="-491.3" font-family="Helvetica,sans-Serif" font-size="14.00" fill="#000000">value = [0, 9]</text>
<text text-anchor="start" x="519.5" y="-476.3" font-family="Helvetica,sans-Serif" font-size="14.00" fill="#000000">class = 2</text>
</g>
<!-- 15&#45;&gt;16 -->
<g id="edge16" class="edge">
<title>15&#45;&gt;16</title>
<path fill="none" stroke="#000000" d="M550.4507,-579.8796C550.1818,-569.2134 549.8916,-557.7021 549.6194,-546.9015"/>
<polygon fill="#000000" stroke="#000000" points="553.1161,-546.7235 549.3651,-536.8149 546.1183,-546.9 553.1161,-546.7235"/>
</g>
<!-- 17 -->
<g id="node18" class="node">
<title>17</title>
<path fill="#e58139" stroke="#000000" d="M703,-536.5C703,-536.5 628,-536.5 628,-536.5 622,-536.5 616,-530.5 616,-524.5 616,-524.5 616,-480.5 616,-480.5 616,-474.5 622,-468.5 628,-468.5 628,-468.5 703,-468.5 703,-468.5 709,-468.5 715,-474.5 715,-480.5 715,-480.5 715,-524.5 715,-524.5 715,-530.5 709,-536.5 703,-536.5"/>
<text text-anchor="start" x="636" y="-521.3" font-family="Helvetica,sans-Serif" font-size="14.00" fill="#000000">gini = 0.0</text>
<text text-anchor="start" x="626" y="-506.3" font-family="Helvetica,sans-Serif" font-size="14.00" fill="#000000">samples = 7</text>
<text text-anchor="start" x="624" y="-491.3" font-family="Helvetica,sans-Serif" font-size="14.00" fill="#000000">value = [7, 0]</text>
<text text-anchor="start" x="636.5" y="-476.3" font-family="Helvetica,sans-Serif" font-size="14.00" fill="#000000">class = 1</text>
</g>
<!-- 15&#45;&gt;17 -->
<g id="edge17" class="edge">
<title>15&#45;&gt;17</title>
<path fill="none" stroke="#000000" d="M591.3717,-579.8796C602.4324,-568.3337 614.4418,-555.7976 625.5094,-544.2446"/>
<polygon fill="#000000" stroke="#000000" points="628.2365,-546.4573 632.6269,-536.8149 623.1817,-541.6149 628.2365,-546.4573"/>
</g>
<!-- 19 -->
<g id="node20" class="node">
<title>19</title>
<path fill="#e58139" stroke="#000000" d="M717,-655.5C717,-655.5 642,-655.5 642,-655.5 636,-655.5 630,-649.5 630,-643.5 630,-643.5 630,-599.5 630,-599.5 630,-593.5 636,-587.5 642,-587.5 642,-587.5 717,-587.5 717,-587.5 723,-587.5 729,-593.5 729,-599.5 729,-599.5 729,-643.5 729,-643.5 729,-649.5 723,-655.5 717,-655.5"/>
<text text-anchor="start" x="650" y="-640.3" font-family="Helvetica,sans-Serif" font-size="14.00" fill="#000000">gini = 0.0</text>
<text text-anchor="start" x="640" y="-625.3" font-family="Helvetica,sans-Serif" font-size="14.00" fill="#000000">samples = 2</text>
<text text-anchor="start" x="638" y="-610.3" font-family="Helvetica,sans-Serif" font-size="14.00" fill="#000000">value = [2, 0]</text>
<text text-anchor="start" x="650.5" y="-595.3" font-family="Helvetica,sans-Serif" font-size="14.00" fill="#000000">class = 1</text>
</g>
<!-- 18&#45;&gt;19 -->
<g id="edge19" class="edge">
<title>18&#45;&gt;19</title>
<path fill="none" stroke="#000000" d="M682.7512,-698.8796C682.3031,-688.2134 681.8194,-676.7021 681.3656,-665.9015"/>
<polygon fill="#000000" stroke="#000000" points="684.8586,-665.6592 680.9418,-655.8149 677.8648,-665.9531 684.8586,-665.6592"/>
</g>
<!-- 20 -->
<g id="node21" class="node">
<title>20</title>
<path fill="#57ace9" stroke="#000000" d="M842,-663C842,-663 759,-663 759,-663 753,-663 747,-657 747,-651 747,-651 747,-592 747,-592 747,-586 753,-580 759,-580 759,-580 842,-580 842,-580 848,-580 854,-586 854,-592 854,-592 854,-651 854,-651 854,-657 848,-663 842,-663"/>
<text text-anchor="start" x="757.5" y="-647.8" font-family="Helvetica,sans-Serif" font-size="14.00" fill="#000000">BMI ≤ 33.777</text>
<text text-anchor="start" x="762.5" y="-632.8" font-family="Helvetica,sans-Serif" font-size="14.00" fill="#000000">gini = 0.231</text>
<text text-anchor="start" x="756.5" y="-617.8" font-family="Helvetica,sans-Serif" font-size="14.00" fill="#000000">samples = 30</text>
<text text-anchor="start" x="755" y="-602.8" font-family="Helvetica,sans-Serif" font-size="14.00" fill="#000000">value = [4, 26]</text>
<text text-anchor="start" x="771.5" y="-587.8" font-family="Helvetica,sans-Serif" font-size="14.00" fill="#000000">class = 2</text>
</g>
<!-- 18&#45;&gt;20 -->
<g id="edge20" class="edge">
<title>18&#45;&gt;20</title>
<path fill="none" stroke="#000000" d="M725.0712,-698.8796C733.9382,-689.7832 743.4044,-680.0722 752.5291,-670.7116"/>
<polygon fill="#000000" stroke="#000000" points="755.2817,-672.9019 759.7557,-663.2981 750.2691,-668.0158 755.2817,-672.9019"/>
</g>
<!-- 21 -->
<g id="node22" class="node">
<title>21</title>
<path fill="#42a1e6" stroke="#000000" d="M846,-544C846,-544 751,-544 751,-544 745,-544 739,-538 739,-532 739,-532 739,-473 739,-473 739,-467 745,-461 751,-461 751,-461 846,-461 846,-461 852,-461 858,-467 858,-473 858,-473 858,-532 858,-532 858,-538 852,-544 846,-544"/>
<text text-anchor="start" x="747" y="-528.8" font-family="Helvetica,sans-Serif" font-size="14.00" fill="#000000">MCP.1 ≤ 67.966</text>
<text text-anchor="start" x="765" y="-513.8" font-family="Helvetica,sans-Serif" font-size="14.00" fill="#000000">gini = 0.08</text>
<text text-anchor="start" x="754.5" y="-498.8" font-family="Helvetica,sans-Serif" font-size="14.00" fill="#000000">samples = 24</text>
<text text-anchor="start" x="753" y="-483.8" font-family="Helvetica,sans-Serif" font-size="14.00" fill="#000000">value = [1, 23]</text>
<text text-anchor="start" x="769.5" y="-468.8" font-family="Helvetica,sans-Serif" font-size="14.00" fill="#000000">class = 2</text>
</g>
<!-- 20&#45;&gt;21 -->
<g id="edge21" class="edge">
<title>20&#45;&gt;21</title>
<path fill="none" stroke="#000000" d="M799.8005,-579.8796C799.6628,-571.6838 799.5166,-562.9891 799.374,-554.5013"/>
<polygon fill="#000000" stroke="#000000" points="802.8701,-554.2378 799.2025,-544.2981 795.8711,-554.3555 802.8701,-554.2378"/>
</g>
<!-- 24 -->
<g id="node25" class="node">
<title>24</title>
<path fill="#ffffff" stroke="#000000" d="M984.5,-544C984.5,-544 888.5,-544 888.5,-544 882.5,-544 876.5,-538 876.5,-532 876.5,-532 876.5,-473 876.5,-473 876.5,-467 882.5,-461 888.5,-461 888.5,-461 984.5,-461 984.5,-461 990.5,-461 996.5,-467 996.5,-473 996.5,-473 996.5,-532 996.5,-532 996.5,-538 990.5,-544 984.5,-544"/>
<text text-anchor="start" x="884.5" y="-528.8" font-family="Helvetica,sans-Serif" font-size="14.00" fill="#000000">Resistin ≤ 9.338</text>
<text text-anchor="start" x="907" y="-513.8" font-family="Helvetica,sans-Serif" font-size="14.00" fill="#000000">gini = 0.5</text>
<text text-anchor="start" x="897" y="-498.8" font-family="Helvetica,sans-Serif" font-size="14.00" fill="#000000">samples = 6</text>
<text text-anchor="start" x="895" y="-483.8" font-family="Helvetica,sans-Serif" font-size="14.00" fill="#000000">value = [3, 3]</text>
<text text-anchor="start" x="907.5" y="-468.8" font-family="Helvetica,sans-Serif" font-size="14.00" fill="#000000">class = 1</text>
</g>
<!-- 20&#45;&gt;24 -->
<g id="edge24" class="edge">
<title>20&#45;&gt;24</title>
<path fill="none" stroke="#000000" d="M848.0662,-579.8796C858.6679,-570.6031 870.0002,-560.6874 880.8933,-551.1559"/>
<polygon fill="#000000" stroke="#000000" points="883.5098,-553.5172 888.7308,-544.2981 878.9002,-548.2491 883.5098,-553.5172"/>
</g>
<!-- 22 -->
<g id="node23" class="node">
<title>22</title>
<path fill="#e58139" stroke="#000000" d="M719,-417.5C719,-417.5 644,-417.5 644,-417.5 638,-417.5 632,-411.5 632,-405.5 632,-405.5 632,-361.5 632,-361.5 632,-355.5 638,-349.5 644,-349.5 644,-349.5 719,-349.5 719,-349.5 725,-349.5 731,-355.5 731,-361.5 731,-361.5 731,-405.5 731,-405.5 731,-411.5 725,-417.5 719,-417.5"/>
<text text-anchor="start" x="652" y="-402.3" font-family="Helvetica,sans-Serif" font-size="14.00" fill="#000000">gini = 0.0</text>
<text text-anchor="start" x="642" y="-387.3" font-family="Helvetica,sans-Serif" font-size="14.00" fill="#000000">samples = 1</text>
<text text-anchor="start" x="640" y="-372.3" font-family="Helvetica,sans-Serif" font-size="14.00" fill="#000000">value = [1, 0]</text>
<text text-anchor="start" x="652.5" y="-357.3" font-family="Helvetica,sans-Serif" font-size="14.00" fill="#000000">class = 1</text>
</g>
<!-- 21&#45;&gt;22 -->
<g id="edge22" class="edge">
<title>21&#45;&gt;22</title>
<path fill="none" stroke="#000000" d="M757.5791,-460.8796C746.2272,-449.3337 733.9018,-436.7976 722.543,-425.2446"/>
<polygon fill="#000000" stroke="#000000" points="724.7449,-422.4919 715.2382,-417.8149 719.7534,-427.3995 724.7449,-422.4919"/>
</g>
<!-- 23 -->
<g id="node24" class="node">
<title>23</title>
<path fill="#399de5" stroke="#000000" d="M844,-417.5C844,-417.5 761,-417.5 761,-417.5 755,-417.5 749,-411.5 749,-405.5 749,-405.5 749,-361.5 749,-361.5 749,-355.5 755,-349.5 761,-349.5 761,-349.5 844,-349.5 844,-349.5 850,-349.5 856,-355.5 856,-361.5 856,-361.5 856,-405.5 856,-405.5 856,-411.5 850,-417.5 844,-417.5"/>
<text text-anchor="start" x="773" y="-402.3" font-family="Helvetica,sans-Serif" font-size="14.00" fill="#000000">gini = 0.0</text>
<text text-anchor="start" x="758.5" y="-387.3" font-family="Helvetica,sans-Serif" font-size="14.00" fill="#000000">samples = 23</text>
<text text-anchor="start" x="757" y="-372.3" font-family="Helvetica,sans-Serif" font-size="14.00" fill="#000000">value = [0, 23]</text>
<text text-anchor="start" x="773.5" y="-357.3" font-family="Helvetica,sans-Serif" font-size="14.00" fill="#000000">class = 2</text>
</g>
<!-- 21&#45;&gt;23 -->
<g id="edge23" class="edge">
<title>21&#45;&gt;23</title>
<path fill="none" stroke="#000000" d="M799.899,-460.8796C800.2575,-450.2134 800.6445,-438.7021 801.0075,-427.9015"/>
<polygon fill="#000000" stroke="#000000" points="804.5085,-427.9269 801.3466,-417.8149 797.5125,-427.6917 804.5085,-427.9269"/>
</g>
<!-- 25 -->
<g id="node26" class="node">
<title>25</title>
<path fill="#399de5" stroke="#000000" d="M969,-417.5C969,-417.5 894,-417.5 894,-417.5 888,-417.5 882,-411.5 882,-405.5 882,-405.5 882,-361.5 882,-361.5 882,-355.5 888,-349.5 894,-349.5 894,-349.5 969,-349.5 969,-349.5 975,-349.5 981,-355.5 981,-361.5 981,-361.5 981,-405.5 981,-405.5 981,-411.5 975,-417.5 969,-417.5"/>
<text text-anchor="start" x="902" y="-402.3" font-family="Helvetica,sans-Serif" font-size="14.00" fill="#000000">gini = 0.0</text>
<text text-anchor="start" x="892" y="-387.3" font-family="Helvetica,sans-Serif" font-size="14.00" fill="#000000">samples = 3</text>
<text text-anchor="start" x="890" y="-372.3" font-family="Helvetica,sans-Serif" font-size="14.00" fill="#000000">value = [0, 3]</text>
<text text-anchor="start" x="902.5" y="-357.3" font-family="Helvetica,sans-Serif" font-size="14.00" fill="#000000">class = 2</text>
</g>
<!-- 24&#45;&gt;25 -->
<g id="edge25" class="edge">
<title>24&#45;&gt;25</title>
<path fill="none" stroke="#000000" d="M934.7512,-460.8796C934.3031,-450.2134 933.8194,-438.7021 933.3656,-427.9015"/>
<polygon fill="#000000" stroke="#000000" points="936.8586,-427.6592 932.9418,-417.8149 929.8648,-427.9531 936.8586,-427.6592"/>
</g>
<!-- 26 -->
<g id="node27" class="node">
<title>26</title>
<path fill="#e58139" stroke="#000000" d="M1086,-417.5C1086,-417.5 1011,-417.5 1011,-417.5 1005,-417.5 999,-411.5 999,-405.5 999,-405.5 999,-361.5 999,-361.5 999,-355.5 1005,-349.5 1011,-349.5 1011,-349.5 1086,-349.5 1086,-349.5 1092,-349.5 1098,-355.5 1098,-361.5 1098,-361.5 1098,-405.5 1098,-405.5 1098,-411.5 1092,-417.5 1086,-417.5"/>
<text text-anchor="start" x="1019" y="-402.3" font-family="Helvetica,sans-Serif" font-size="14.00" fill="#000000">gini = 0.0</text>
<text text-anchor="start" x="1009" y="-387.3" font-family="Helvetica,sans-Serif" font-size="14.00" fill="#000000">samples = 3</text>
<text text-anchor="start" x="1007" y="-372.3" font-family="Helvetica,sans-Serif" font-size="14.00" fill="#000000">value = [3, 0]</text>
<text text-anchor="start" x="1019.5" y="-357.3" font-family="Helvetica,sans-Serif" font-size="14.00" fill="#000000">class = 1</text>
</g>
<!-- 24&#45;&gt;26 -->
<g id="edge26" class="edge">
<title>24&#45;&gt;26</title>
<path fill="none" stroke="#000000" d="M975.6722,-460.8796C986.5389,-449.3337 998.3376,-436.7976 1009.2109,-425.2446"/>
<polygon fill="#000000" stroke="#000000" points="1011.8986,-427.4958 1016.2036,-417.8149 1006.8012,-422.6982 1011.8986,-427.4958"/>
</g>
</g>
</svg>
