<?xml version="1.0" encoding="UTF-8" standalone="no"?>
<!DOCTYPE svg PUBLIC "-//W3C//DTD SVG 1.1//EN"
 "http://www.w3.org/Graphics/SVG/1.1/DTD/svg11.dtd">
<!-- Generated by graphviz version 2.40.1 (20161225.0304)
 -->
<!-- Title: Tree Pages: 1 -->
<svg width="1101pt" height="909pt"
 viewBox="0.00 0.00 1101.00 909.00" xmlns="http://www.w3.org/2000/svg" xmlns:xlink="http://www.w3.org/1999/xlink">
<g id="graph0" class="graph" transform="scale(1 1) rotate(0) translate(4 905)">
<title>Tree</title>
<polygon fill="#ffffff" stroke="transparent" points="-4,4 -4,-905 1097,-905 1097,4 -4,4"/>
<!-- 0 -->
<g id="node1" class="node">
<title>0</title>
<path fill="#fafdfe" stroke="#000000" d="M656.5,-901C656.5,-901 564.5,-901 564.5,-901 558.5,-901 552.5,-895 552.5,-889 552.5,-889 552.5,-830 552.5,-830 552.5,-824 558.5,-818 564.5,-818 564.5,-818 656.5,-818 656.5,-818 662.5,-818 668.5,-824 668.5,-830 668.5,-830 668.5,-889 668.5,-889 668.5,-895 662.5,-901 656.5,-901"/>
<text text-anchor="start" x="561.5" y="-885.8" font-family="Helvetica,sans-Serif" font-size="14.00" fill="#000000">Glucose ≤ 96.5</text>
<text text-anchor="start" x="581" y="-870.8" font-family="Helvetica,sans-Serif" font-size="14.00" fill="#000000">gini = 0.5</text>
<text text-anchor="start" x="566.5" y="-855.8" font-family="Helvetica,sans-Serif" font-size="14.00" fill="#000000">samples = 81</text>
<text text-anchor="start" x="560.5" y="-840.8" font-family="Helvetica,sans-Serif" font-size="14.00" fill="#000000">value = [40, 41]</text>
<text text-anchor="start" x="581.5" y="-825.8" font-family="Helvetica,sans-Serif" font-size="14.00" fill="#000000">class = 2</text>
</g>
<!-- 1 -->
<g id="node2" class="node">
<title>1</title>
<path fill="#f0b990" stroke="#000000" d="M594.5,-782C594.5,-782 490.5,-782 490.5,-782 484.5,-782 478.5,-776 478.5,-770 478.5,-770 478.5,-711 478.5,-711 478.5,-705 484.5,-699 490.5,-699 490.5,-699 594.5,-699 594.5,-699 600.5,-699 606.5,-705 606.5,-711 606.5,-711 606.5,-770 606.5,-770 606.5,-776 600.5,-782 594.5,-782"/>
<text text-anchor="start" x="486.5" y="-766.8" font-family="Helvetica,sans-Serif" font-size="14.00" fill="#000000">Resistin ≤ 13.248</text>
<text text-anchor="start" x="504.5" y="-751.8" font-family="Helvetica,sans-Serif" font-size="14.00" fill="#000000">gini = 0.425</text>
<text text-anchor="start" x="498.5" y="-736.8" font-family="Helvetica,sans-Serif" font-size="14.00" fill="#000000">samples = 49</text>
<text text-anchor="start" x="492.5" y="-721.8" font-family="Helvetica,sans-Serif" font-size="14.00" fill="#000000">value = [34, 15]</text>
<text text-anchor="start" x="513.5" y="-706.8" font-family="Helvetica,sans-Serif" font-size="14.00" fill="#000000">class = 1</text>
</g>
<!-- 0&#45;&gt;1 -->
<g id="edge1" class="edge">
<title>0&#45;&gt;1</title>
<path fill="none" stroke="#000000" d="M586.7169,-817.8796C581.7763,-809.2335 576.5184,-800.0322 571.4167,-791.1042"/>
<polygon fill="#000000" stroke="#000000" points="574.3849,-789.244 566.3846,-782.2981 568.3072,-792.717 574.3849,-789.244"/>
<text text-anchor="middle" x="559.8067" y="-802.7172" font-family="Helvetica,sans-Serif" font-size="14.00" fill="#000000">True</text>
</g>
<!-- 18 -->
<g id="node19" class="node">
<title>18</title>
<path fill="#67b4eb" stroke="#000000" d="M720.5,-782C720.5,-782 636.5,-782 636.5,-782 630.5,-782 624.5,-776 624.5,-770 624.5,-770 624.5,-711 624.5,-711 624.5,-705 630.5,-699 636.5,-699 636.5,-699 720.5,-699 720.5,-699 726.5,-699 732.5,-705 732.5,-711 732.5,-711 732.5,-770 732.5,-770 732.5,-776 726.5,-782 720.5,-782"/>
<text text-anchor="start" x="632.5" y="-766.8" font-family="Helvetica,sans-Serif" font-size="14.00" fill="#000000">Leptin ≤ 6.059</text>
<text text-anchor="start" x="640.5" y="-751.8" font-family="Helvetica,sans-Serif" font-size="14.00" fill="#000000">gini = 0.305</text>
<text text-anchor="start" x="634.5" y="-736.8" font-family="Helvetica,sans-Serif" font-size="14.00" fill="#000000">samples = 32</text>
<text text-anchor="start" x="633" y="-721.8" font-family="Helvetica,sans-Serif" font-size="14.00" fill="#000000">value = [6, 26]</text>
<text text-anchor="start" x="649.5" y="-706.8" font-family="Helvetica,sans-Serif" font-size="14.00" fill="#000000">class = 2</text>
</g>
<!-- 0&#45;&gt;18 -->
<g id="edge18" class="edge">
<title>0&#45;&gt;18</title>
<path fill="none" stroke="#000000" d="M634.2831,-817.8796C639.2237,-809.2335 644.4816,-800.0322 649.5833,-791.1042"/>
<polygon fill="#000000" stroke="#000000" points="652.6928,-792.717 654.6154,-782.2981 646.6151,-789.244 652.6928,-792.717"/>
<text text-anchor="middle" x="661.1933" y="-802.7172" font-family="Helvetica,sans-Serif" font-size="14.00" fill="#000000">False</text>
</g>
<!-- 2 -->
<g id="node3" class="node">
<title>2</title>
<path fill="#eb9d65" stroke="#000000" d="M463,-663C463,-663 376,-663 376,-663 370,-663 364,-657 364,-651 364,-651 364,-592 364,-592 364,-586 370,-580 376,-580 376,-580 463,-580 463,-580 469,-580 475,-586 475,-592 475,-592 475,-651 475,-651 475,-657 469,-663 463,-663"/>
<text text-anchor="start" x="372" y="-647.8" font-family="Helvetica,sans-Serif" font-size="14.00" fill="#000000">HOMA ≤ 3.519</text>
<text text-anchor="start" x="381.5" y="-632.8" font-family="Helvetica,sans-Serif" font-size="14.00" fill="#000000">gini = 0.298</text>
<text text-anchor="start" x="375.5" y="-617.8" font-family="Helvetica,sans-Serif" font-size="14.00" fill="#000000">samples = 33</text>
<text text-anchor="start" x="374" y="-602.8" font-family="Helvetica,sans-Serif" font-size="14.00" fill="#000000">value = [27, 6]</text>
<text text-anchor="start" x="390.5" y="-587.8" font-family="Helvetica,sans-Serif" font-size="14.00" fill="#000000">class = 1</text>
</g>
<!-- 1&#45;&gt;2 -->
<g id="edge2" class="edge">
<title>1&#45;&gt;2</title>
<path fill="none" stroke="#000000" d="M499.4806,-698.8796C489.9853,-689.6931 479.8422,-679.8798 470.0785,-670.4336"/>
<polygon fill="#000000" stroke="#000000" points="472.3237,-667.7359 462.703,-663.2981 467.4564,-672.7668 472.3237,-667.7359"/>
</g>
<!-- 15 -->
<g id="node16" class="node">
<title>15</title>
<path fill="#d3e9f9" stroke="#000000" d="M585.5,-663C585.5,-663 505.5,-663 505.5,-663 499.5,-663 493.5,-657 493.5,-651 493.5,-651 493.5,-592 493.5,-592 493.5,-586 499.5,-580 505.5,-580 505.5,-580 585.5,-580 585.5,-580 591.5,-580 597.5,-586 597.5,-592 597.5,-592 597.5,-651 597.5,-651 597.5,-657 591.5,-663 585.5,-663"/>
<text text-anchor="start" x="502.5" y="-647.8" font-family="Helvetica,sans-Serif" font-size="14.00" fill="#000000">BMI ≤ 29.972</text>
<text text-anchor="start" x="507.5" y="-632.8" font-family="Helvetica,sans-Serif" font-size="14.00" fill="#000000">gini = 0.492</text>
<text text-anchor="start" x="501.5" y="-617.8" font-family="Helvetica,sans-Serif" font-size="14.00" fill="#000000">samples = 16</text>
<text text-anchor="start" x="504" y="-602.8" font-family="Helvetica,sans-Serif" font-size="14.00" fill="#000000">value = [7, 9]</text>
<text text-anchor="start" x="516.5" y="-587.8" font-family="Helvetica,sans-Serif" font-size="14.00" fill="#000000">class = 2</text>
</g>
<!-- 1&#45;&gt;15 -->
<g id="edge15" class="edge">
<title>1&#45;&gt;15</title>
<path fill="none" stroke="#000000" d="M543.5493,-698.8796C543.7559,-690.6838 543.9751,-681.9891 544.189,-673.5013"/>
<polygon fill="#000000" stroke="#000000" points="547.693,-673.3831 544.4463,-663.2981 540.6953,-673.2067 547.693,-673.3831"/>
</g>
<!-- 3 -->
<g id="node4" class="node">
<title>3</title>
<path fill="#e99456" stroke="#000000" d="M342.5,-544C342.5,-544 258.5,-544 258.5,-544 252.5,-544 246.5,-538 246.5,-532 246.5,-532 246.5,-473 246.5,-473 246.5,-467 252.5,-461 258.5,-461 258.5,-461 342.5,-461 342.5,-461 348.5,-461 354.5,-467 354.5,-473 354.5,-473 354.5,-532 354.5,-532 354.5,-538 348.5,-544 342.5,-544"/>
<text text-anchor="start" x="254.5" y="-528.8" font-family="Helvetica,sans-Serif" font-size="14.00" fill="#000000">Leptin ≤ 47.33</text>
<text text-anchor="start" x="262.5" y="-513.8" font-family="Helvetica,sans-Serif" font-size="14.00" fill="#000000">gini = 0.225</text>
<text text-anchor="start" x="256.5" y="-498.8" font-family="Helvetica,sans-Serif" font-size="14.00" fill="#000000">samples = 31</text>
<text text-anchor="start" x="255" y="-483.8" font-family="Helvetica,sans-Serif" font-size="14.00" fill="#000000">value = [27, 4]</text>
<text text-anchor="start" x="271.5" y="-468.8" font-family="Helvetica,sans-Serif" font-size="14.00" fill="#000000">class = 1</text>
</g>
<!-- 2&#45;&gt;3 -->
<g id="edge3" class="edge">
<title>2&#45;&gt;3</title>
<path fill="none" stroke="#000000" d="M377.8796,-579.8796C368.6931,-570.6931 358.8798,-560.8798 349.4336,-551.4336"/>
<polygon fill="#000000" stroke="#000000" points="351.8441,-548.8943 342.2981,-544.2981 346.8943,-553.8441 351.8441,-548.8943"/>
</g>
<!-- 14 -->
<g id="node15" class="node">
<title>14</title>
<path fill="#399de5" stroke="#000000" d="M460,-536.5C460,-536.5 385,-536.5 385,-536.5 379,-536.5 373,-530.5 373,-524.5 373,-524.5 373,-480.5 373,-480.5 373,-474.5 379,-468.5 385,-468.5 385,-468.5 460,-468.5 460,-468.5 466,-468.5 472,-474.5 472,-480.5 472,-480.5 472,-524.5 472,-524.5 472,-530.5 466,-536.5 460,-536.5"/>
<text text-anchor="start" x="393" y="-521.3" font-family="Helvetica,sans-Serif" font-size="14.00" fill="#000000">gini = 0.0</text>
<text text-anchor="start" x="383" y="-506.3" font-family="Helvetica,sans-Serif" font-size="14.00" fill="#000000">samples = 2</text>
<text text-anchor="start" x="381" y="-491.3" font-family="Helvetica,sans-Serif" font-size="14.00" fill="#000000">value = [0, 2]</text>
<text text-anchor="start" x="393.5" y="-476.3" font-family="Helvetica,sans-Serif" font-size="14.00" fill="#000000">class = 2</text>
</g>
<!-- 2&#45;&gt;14 -->
<g id="edge14" class="edge">
<title>2&#45;&gt;14</title>
<path fill="none" stroke="#000000" d="M420.5493,-579.8796C420.8182,-569.2134 421.1084,-557.7021 421.3806,-546.9015"/>
<polygon fill="#000000" stroke="#000000" points="424.8817,-546.9 421.6349,-536.8149 417.8839,-546.7235 424.8817,-546.9"/>
</g>
<!-- 4 -->
<g id="node5" class="node">
<title>4</title>
<path fill="#e88f4f" stroke="#000000" d="M286.5,-425C286.5,-425 182.5,-425 182.5,-425 176.5,-425 170.5,-419 170.5,-413 170.5,-413 170.5,-354 170.5,-354 170.5,-348 176.5,-342 182.5,-342 182.5,-342 286.5,-342 286.5,-342 292.5,-342 298.5,-348 298.5,-354 298.5,-354 298.5,-413 298.5,-413 298.5,-419 292.5,-425 286.5,-425"/>
<text text-anchor="start" x="178.5" y="-409.8" font-family="Helvetica,sans-Serif" font-size="14.00" fill="#000000">MCP.1 ≤ 209.469</text>
<text text-anchor="start" x="201" y="-394.8" font-family="Helvetica,sans-Serif" font-size="14.00" fill="#000000">gini = 0.18</text>
<text text-anchor="start" x="190.5" y="-379.8" font-family="Helvetica,sans-Serif" font-size="14.00" fill="#000000">samples = 30</text>
<text text-anchor="start" x="189" y="-364.8" font-family="Helvetica,sans-Serif" font-size="14.00" fill="#000000">value = [27, 3]</text>
<text text-anchor="start" x="205.5" y="-349.8" font-family="Helvetica,sans-Serif" font-size="14.00" fill="#000000">class = 1</text>
</g>
<!-- 3&#45;&gt;4 -->
<g id="edge4" class="edge">
<title>3&#45;&gt;4</title>
<path fill="none" stroke="#000000" d="M277.4164,-460.8796C272.6211,-452.2335 267.5178,-443.0322 262.5662,-434.1042"/>
<polygon fill="#000000" stroke="#000000" points="265.5931,-432.3455 257.6821,-425.2981 259.4716,-435.7407 265.5931,-432.3455"/>
</g>
<!-- 13 -->
<g id="node14" class="node">
<title>13</title>
<path fill="#399de5" stroke="#000000" d="M404,-417.5C404,-417.5 329,-417.5 329,-417.5 323,-417.5 317,-411.5 317,-405.5 317,-405.5 317,-361.5 317,-361.5 317,-355.5 323,-349.5 329,-349.5 329,-349.5 404,-349.5 404,-349.5 410,-349.5 416,-355.5 416,-361.5 416,-361.5 416,-405.5 416,-405.5 416,-411.5 410,-417.5 404,-417.5"/>
<text text-anchor="start" x="337" y="-402.3" font-family="Helvetica,sans-Serif" font-size="14.00" fill="#000000">gini = 0.0</text>
<text text-anchor="start" x="327" y="-387.3" font-family="Helvetica,sans-Serif" font-size="14.00" fill="#000000">samples = 1</text>
<text text-anchor="start" x="325" y="-372.3" font-family="Helvetica,sans-Serif" font-size="14.00" fill="#000000">value = [0, 1]</text>
<text text-anchor="start" x="337.5" y="-357.3" font-family="Helvetica,sans-Serif" font-size="14.00" fill="#000000">class = 2</text>
</g>
<!-- 3&#45;&gt;13 -->
<g id="edge13" class="edge">
<title>3&#45;&gt;13</title>
<path fill="none" stroke="#000000" d="M323.5836,-460.8796C329.7433,-449.7735 336.4111,-437.7513 342.6129,-426.5691"/>
<polygon fill="#000000" stroke="#000000" points="345.6787,-428.2576 347.4682,-417.8149 339.5572,-424.8624 345.6787,-428.2576"/>
</g>
<!-- 5 -->
<g id="node6" class="node">
<title>5</title>
<path fill="#f2c09c" stroke="#000000" d="M205.5,-306C205.5,-306 115.5,-306 115.5,-306 109.5,-306 103.5,-300 103.5,-294 103.5,-294 103.5,-235 103.5,-235 103.5,-229 109.5,-223 115.5,-223 115.5,-223 205.5,-223 205.5,-223 211.5,-223 217.5,-229 217.5,-235 217.5,-235 217.5,-294 217.5,-294 217.5,-300 211.5,-306 205.5,-306"/>
<text text-anchor="start" x="111.5" y="-290.8" font-family="Helvetica,sans-Serif" font-size="14.00" fill="#000000">Glucose ≤ 89.0</text>
<text text-anchor="start" x="122.5" y="-275.8" font-family="Helvetica,sans-Serif" font-size="14.00" fill="#000000">gini = 0.444</text>
<text text-anchor="start" x="121" y="-260.8" font-family="Helvetica,sans-Serif" font-size="14.00" fill="#000000">samples = 6</text>
<text text-anchor="start" x="119" y="-245.8" font-family="Helvetica,sans-Serif" font-size="14.00" fill="#000000">value = [4, 2]</text>
<text text-anchor="start" x="131.5" y="-230.8" font-family="Helvetica,sans-Serif" font-size="14.00" fill="#000000">class = 1</text>
</g>
<!-- 4&#45;&gt;5 -->
<g id="edge5" class="edge">
<title>4&#45;&gt;5</title>
<path fill="none" stroke="#000000" d="M208.6184,-341.8796C203.1858,-333.1434 197.4008,-323.8404 191.7947,-314.8253"/>
<polygon fill="#000000" stroke="#000000" points="194.7451,-312.9418 186.4921,-306.2981 188.8007,-316.6383 194.7451,-312.9418"/>
</g>
<!-- 8 -->
<g id="node9" class="node">
<title>8</title>
<path fill="#e68642" stroke="#000000" d="M369,-306C369,-306 248,-306 248,-306 242,-306 236,-300 236,-294 236,-294 236,-235 236,-235 236,-229 242,-223 248,-223 248,-223 369,-223 369,-223 375,-223 381,-229 381,-235 381,-235 381,-294 381,-294 381,-300 375,-306 369,-306"/>
<text text-anchor="start" x="244" y="-290.8" font-family="Helvetica,sans-Serif" font-size="14.00" fill="#000000">Adiponectin ≤ 3.986</text>
<text text-anchor="start" x="275" y="-275.8" font-family="Helvetica,sans-Serif" font-size="14.00" fill="#000000">gini = 0.08</text>
<text text-anchor="start" x="264.5" y="-260.8" font-family="Helvetica,sans-Serif" font-size="14.00" fill="#000000">samples = 24</text>
<text text-anchor="start" x="263" y="-245.8" font-family="Helvetica,sans-Serif" font-size="14.00" fill="#000000">value = [23, 1]</text>
<text text-anchor="start" x="279.5" y="-230.8" font-family="Helvetica,sans-Serif" font-size="14.00" fill="#000000">class = 1</text>
</g>
<!-- 4&#45;&gt;8 -->
<g id="edge8" class="edge">
<title>4&#45;&gt;8</title>
<path fill="none" stroke="#000000" d="M260.3816,-341.8796C265.8142,-333.1434 271.5992,-323.8404 277.2053,-314.8253"/>
<polygon fill="#000000" stroke="#000000" points="280.1993,-316.6383 282.5079,-306.2981 274.2549,-312.9418 280.1993,-316.6383"/>
</g>
<!-- 6 -->
<g id="node7" class="node">
<title>6</title>
<path fill="#e58139" stroke="#000000" d="M87,-179.5C87,-179.5 12,-179.5 12,-179.5 6,-179.5 0,-173.5 0,-167.5 0,-167.5 0,-123.5 0,-123.5 0,-117.5 6,-111.5 12,-111.5 12,-111.5 87,-111.5 87,-111.5 93,-111.5 99,-117.5 99,-123.5 99,-123.5 99,-167.5 99,-167.5 99,-173.5 93,-179.5 87,-179.5"/>
<text text-anchor="start" x="20" y="-164.3" font-family="Helvetica,sans-Serif" font-size="14.00" fill="#000000">gini = 0.0</text>
<text text-anchor="start" x="10" y="-149.3" font-family="Helvetica,sans-Serif" font-size="14.00" fill="#000000">samples = 4</text>
<text text-anchor="start" x="8" y="-134.3" font-family="Helvetica,sans-Serif" font-size="14.00" fill="#000000">value = [4, 0]</text>
<text text-anchor="start" x="20.5" y="-119.3" font-family="Helvetica,sans-Serif" font-size="14.00" fill="#000000">class = 1</text>
</g>
<!-- 5&#45;&gt;6 -->
<g id="edge6" class="edge">
<title>5&#45;&gt;6</title>
<path fill="none" stroke="#000000" d="M121.6776,-222.8796C110.9079,-211.3337 99.2146,-198.7976 88.4383,-187.2446"/>
<polygon fill="#000000" stroke="#000000" points="90.8885,-184.7402 81.508,-179.8149 85.7697,-189.5149 90.8885,-184.7402"/>
</g>
<!-- 7 -->
<g id="node8" class="node">
<title>7</title>
<path fill="#399de5" stroke="#000000" d="M204,-179.5C204,-179.5 129,-179.5 129,-179.5 123,-179.5 117,-173.5 117,-167.5 117,-167.5 117,-123.5 117,-123.5 117,-117.5 123,-111.5 129,-111.5 129,-111.5 204,-111.5 204,-111.5 210,-111.5 216,-117.5 216,-123.5 216,-123.5 216,-167.5 216,-167.5 216,-173.5 210,-179.5 204,-179.5"/>
<text text-anchor="start" x="137" y="-164.3" font-family="Helvetica,sans-Serif" font-size="14.00" fill="#000000">gini = 0.0</text>
<text text-anchor="start" x="127" y="-149.3" font-family="Helvetica,sans-Serif" font-size="14.00" fill="#000000">samples = 2</text>
<text text-anchor="start" x="125" y="-134.3" font-family="Helvetica,sans-Serif" font-size="14.00" fill="#000000">value = [0, 2]</text>
<text text-anchor="start" x="137.5" y="-119.3" font-family="Helvetica,sans-Serif" font-size="14.00" fill="#000000">class = 2</text>
</g>
<!-- 5&#45;&gt;7 -->
<g id="edge7" class="edge">
<title>5&#45;&gt;7</title>
<path fill="none" stroke="#000000" d="M162.5985,-222.8796C163.1363,-212.2134 163.7167,-200.7021 164.2613,-189.9015"/>
<polygon fill="#000000" stroke="#000000" points="167.7617,-189.9785 164.7698,-179.8149 160.7706,-189.626 167.7617,-189.9785"/>
</g>
<!-- 9 -->
<g id="node10" class="node">
<title>9</title>
<path fill="#ffffff" stroke="#000000" d="M347.5,-187C347.5,-187 257.5,-187 257.5,-187 251.5,-187 245.5,-181 245.5,-175 245.5,-175 245.5,-116 245.5,-116 245.5,-110 251.5,-104 257.5,-104 257.5,-104 347.5,-104 347.5,-104 353.5,-104 359.5,-110 359.5,-116 359.5,-116 359.5,-175 359.5,-175 359.5,-181 353.5,-187 347.5,-187"/>
<text text-anchor="start" x="253.5" y="-171.8" font-family="Helvetica,sans-Serif" font-size="14.00" fill="#000000">Glucose ≤ 81.5</text>
<text text-anchor="start" x="273" y="-156.8" font-family="Helvetica,sans-Serif" font-size="14.00" fill="#000000">gini = 0.5</text>
<text text-anchor="start" x="263" y="-141.8" font-family="Helvetica,sans-Serif" font-size="14.00" fill="#000000">samples = 2</text>
<text text-anchor="start" x="261" y="-126.8" font-family="Helvetica,sans-Serif" font-size="14.00" fill="#000000">value = [1, 1]</text>
<text text-anchor="start" x="273.5" y="-111.8" font-family="Helvetica,sans-Serif" font-size="14.00" fill="#000000">class = 1</text>
</g>
<!-- 8&#45;&gt;9 -->
<g id="edge9" class="edge">
<title>8&#45;&gt;9</title>
<path fill="none" stroke="#000000" d="M306.4015,-222.8796C305.9883,-214.6838 305.5499,-205.9891 305.1219,-197.5013"/>
<polygon fill="#000000" stroke="#000000" points="308.6067,-197.1091 304.6075,-187.2981 301.6156,-197.4617 308.6067,-197.1091"/>
</g>
<!-- 12 -->
<g id="node13" class="node">
<title>12</title>
<path fill="#e58139" stroke="#000000" d="M473,-179.5C473,-179.5 390,-179.5 390,-179.5 384,-179.5 378,-173.5 378,-167.5 378,-167.5 378,-123.5 378,-123.5 378,-117.5 384,-111.5 390,-111.5 390,-111.5 473,-111.5 473,-111.5 479,-111.5 485,-117.5 485,-123.5 485,-123.5 485,-167.5 485,-167.5 485,-173.5 479,-179.5 473,-179.5"/>
<text text-anchor="start" x="402" y="-164.3" font-family="Helvetica,sans-Serif" font-size="14.00" fill="#000000">gini = 0.0</text>
<text text-anchor="start" x="387.5" y="-149.3" font-family="Helvetica,sans-Serif" font-size="14.00" fill="#000000">samples = 22</text>
<text text-anchor="start" x="386" y="-134.3" font-family="Helvetica,sans-Serif" font-size="14.00" fill="#000000">value = [22, 0]</text>
<text text-anchor="start" x="402.5" y="-119.3" font-family="Helvetica,sans-Serif" font-size="14.00" fill="#000000">class = 1</text>
</g>
<!-- 8&#45;&gt;12 -->
<g id="edge12" class="edge">
<title>8&#45;&gt;12</title>
<path fill="none" stroke="#000000" d="M351.5194,-222.8796C363.5671,-211.2237 376.6578,-198.5587 388.6931,-186.9148"/>
<polygon fill="#000000" stroke="#000000" points="391.2783,-189.2837 396.0316,-179.8149 386.411,-184.2528 391.2783,-189.2837"/>
</g>
<!-- 10 -->
<g id="node11" class="node">
<title>10</title>
<path fill="#e58139" stroke="#000000" d="M282,-68C282,-68 207,-68 207,-68 201,-68 195,-62 195,-56 195,-56 195,-12 195,-12 195,-6 201,0 207,0 207,0 282,0 282,0 288,0 294,-6 294,-12 294,-12 294,-56 294,-56 294,-62 288,-68 282,-68"/>
<text text-anchor="start" x="215" y="-52.8" font-family="Helvetica,sans-Serif" font-size="14.00" fill="#000000">gini = 0.0</text>
<text text-anchor="start" x="205" y="-37.8" font-family="Helvetica,sans-Serif" font-size="14.00" fill="#000000">samples = 1</text>
<text text-anchor="start" x="203" y="-22.8" font-family="Helvetica,sans-Serif" font-size="14.00" fill="#000000">value = [1, 0]</text>
<text text-anchor="start" x="215.5" y="-7.8" font-family="Helvetica,sans-Serif" font-size="14.00" fill="#000000">class = 1</text>
</g>
<!-- 9&#45;&gt;10 -->
<g id="edge10" class="edge">
<title>9&#45;&gt;10</title>
<path fill="none" stroke="#000000" d="M280.9029,-103.9815C276.3612,-95.2504 271.5598,-86.0202 266.9863,-77.2281"/>
<polygon fill="#000000" stroke="#000000" points="270.0431,-75.52 262.3233,-68.2637 263.8331,-78.7504 270.0431,-75.52"/>
</g>
<!-- 11 -->
<g id="node12" class="node">
<title>11</title>
<path fill="#399de5" stroke="#000000" d="M399,-68C399,-68 324,-68 324,-68 318,-68 312,-62 312,-56 312,-56 312,-12 312,-12 312,-6 318,0 324,0 324,0 399,0 399,0 405,0 411,-6 411,-12 411,-12 411,-56 411,-56 411,-62 405,-68 399,-68"/>
<text text-anchor="start" x="332" y="-52.8" font-family="Helvetica,sans-Serif" font-size="14.00" fill="#000000">gini = 0.0</text>
<text text-anchor="start" x="322" y="-37.8" font-family="Helvetica,sans-Serif" font-size="14.00" fill="#000000">samples = 1</text>
<text text-anchor="start" x="320" y="-22.8" font-family="Helvetica,sans-Serif" font-size="14.00" fill="#000000">value = [0, 1]</text>
<text text-anchor="start" x="332.5" y="-7.8" font-family="Helvetica,sans-Serif" font-size="14.00" fill="#000000">class = 2</text>
</g>
<!-- 9&#45;&gt;11 -->
<g id="edge11" class="edge">
<title>9&#45;&gt;11</title>
<path fill="none" stroke="#000000" d="M324.4694,-103.9815C329.0895,-95.2504 333.9736,-86.0202 338.626,-77.2281"/>
<polygon fill="#000000" stroke="#000000" points="341.7859,-78.7395 343.3694,-68.2637 335.5987,-75.4655 341.7859,-78.7395"/>
</g>
<!-- 16 -->
<g id="node17" class="node">
<title>16</title>
<path fill="#399de5" stroke="#000000" d="M581,-536.5C581,-536.5 506,-536.5 506,-536.5 500,-536.5 494,-530.5 494,-524.5 494,-524.5 494,-480.5 494,-480.5 494,-474.5 500,-468.5 506,-468.5 506,-468.5 581,-468.5 581,-468.5 587,-468.5 593,-474.5 593,-480.5 593,-480.5 593,-524.5 593,-524.5 593,-530.5 587,-536.5 581,-536.5"/>
<text text-anchor="start" x="514" y="-521.3" font-family="Helvetica,sans-Serif" font-size="14.00" fill="#000000">gini = 0.0</text>
<text text-anchor="start" x="504" y="-506.3" font-family="Helvetica,sans-Serif" font-size="14.00" fill="#000000">samples = 9</text>
<text text-anchor="start" x="502" y="-491.3" font-family="Helvetica,sans-Serif" font-size="14.00" fill="#000000">value = [0, 9]</text>
<text text-anchor="start" x="514.5" y="-476.3" font-family="Helvetica,sans-Serif" font-size="14.00" fill="#000000">class = 2</text>
</g>
<!-- 15&#45;&gt;16 -->
<g id="edge16" class="edge">
<title>15&#45;&gt;16</title>
<path fill="none" stroke="#000000" d="M544.8005,-579.8796C544.6212,-569.2134 544.4278,-557.7021 544.2462,-546.9015"/>
<polygon fill="#000000" stroke="#000000" points="547.7444,-546.7547 544.0767,-536.8149 540.7454,-546.8724 547.7444,-546.7547"/>
</g>
<!-- 17 -->
<g id="node18" class="node">
<title>17</title>
<path fill="#e58139" stroke="#000000" d="M698,-536.5C698,-536.5 623,-536.5 623,-536.5 617,-536.5 611,-530.5 611,-524.5 611,-524.5 611,-480.5 611,-480.5 611,-474.5 617,-468.5 623,-468.5 623,-468.5 698,-468.5 698,-468.5 704,-468.5 710,-474.5 710,-480.5 710,-480.5 710,-524.5 710,-524.5 710,-530.5 704,-536.5 698,-536.5"/>
<text text-anchor="start" x="631" y="-521.3" font-family="Helvetica,sans-Serif" font-size="14.00" fill="#000000">gini = 0.0</text>
<text text-anchor="start" x="621" y="-506.3" font-family="Helvetica,sans-Serif" font-size="14.00" fill="#000000">samples = 7</text>
<text text-anchor="start" x="619" y="-491.3" font-family="Helvetica,sans-Serif" font-size="14.00" fill="#000000">value = [7, 0]</text>
<text text-anchor="start" x="631.5" y="-476.3" font-family="Helvetica,sans-Serif" font-size="14.00" fill="#000000">class = 1</text>
</g>
<!-- 15&#45;&gt;17 -->
<g id="edge17" class="edge">
<title>15&#45;&gt;17</title>
<path fill="none" stroke="#000000" d="M585.7214,-579.8796C596.8792,-568.3337 608.9939,-555.7976 620.1586,-544.2446"/>
<polygon fill="#000000" stroke="#000000" points="622.9061,-546.4381 627.3385,-536.8149 617.8725,-541.5736 622.9061,-546.4381"/>
</g>
<!-- 19 -->
<g id="node20" class="node">
<title>19</title>
<path fill="#e58139" stroke="#000000" d="M712,-655.5C712,-655.5 637,-655.5 637,-655.5 631,-655.5 625,-649.5 625,-643.5 625,-643.5 625,-599.5 625,-599.5 625,-593.5 631,-587.5 637,-587.5 637,-587.5 712,-587.5 712,-587.5 718,-587.5 724,-593.5 724,-599.5 724,-599.5 724,-643.5 724,-643.5 724,-649.5 718,-655.5 712,-655.5"/>
<text text-anchor="start" x="645" y="-640.3" font-family="Helvetica,sans-Serif" font-size="14.00" fill="#000000">gini = 0.0</text>
<text text-anchor="start" x="635" y="-625.3" font-family="Helvetica,sans-Serif" font-size="14.00" fill="#000000">samples = 2</text>
<text text-anchor="start" x="633" y="-610.3" font-family="Helvetica,sans-Serif" font-size="14.00" fill="#000000">value = [2, 0]</text>
<text text-anchor="start" x="645.5" y="-595.3" font-family="Helvetica,sans-Serif" font-size="14.00" fill="#000000">class = 1</text>
</g>
<!-- 18&#45;&gt;19 -->
<g id="edge19" class="edge">
<title>18&#45;&gt;19</title>
<path fill="none" stroke="#000000" d="M677.101,-698.8796C676.7425,-688.2134 676.3555,-676.7021 675.9925,-665.9015"/>
<polygon fill="#000000" stroke="#000000" points="679.4875,-665.6917 675.6534,-655.8149 672.4915,-665.9269 679.4875,-665.6917"/>
</g>
<!-- 20 -->
<g id="node21" class="node">
<title>20</title>
<path fill="#57ace9" stroke="#000000" d="M837,-663C837,-663 754,-663 754,-663 748,-663 742,-657 742,-651 742,-651 742,-592 742,-592 742,-586 748,-580 754,-580 754,-580 837,-580 837,-580 843,-580 849,-586 849,-592 849,-592 849,-651 849,-651 849,-657 843,-663 837,-663"/>
<text text-anchor="start" x="752.5" y="-647.8" font-family="Helvetica,sans-Serif" font-size="14.00" fill="#000000">BMI ≤ 33.777</text>
<text text-anchor="start" x="757.5" y="-632.8" font-family="Helvetica,sans-Serif" font-size="14.00" fill="#000000">gini = 0.231</text>
<text text-anchor="start" x="751.5" y="-617.8" font-family="Helvetica,sans-Serif" font-size="14.00" fill="#000000">samples = 30</text>
<text text-anchor="start" x="750" y="-602.8" font-family="Helvetica,sans-Serif" font-size="14.00" fill="#000000">value = [4, 26]</text>
<text text-anchor="start" x="766.5" y="-587.8" font-family="Helvetica,sans-Serif" font-size="14.00" fill="#000000">class = 2</text>
</g>
<!-- 18&#45;&gt;20 -->
<g id="edge20" class="edge">
<title>18&#45;&gt;20</title>
<path fill="none" stroke="#000000" d="M719.4209,-698.8796C728.453,-689.6931 738.1013,-679.8798 747.3888,-670.4336"/>
<polygon fill="#000000" stroke="#000000" points="749.8893,-672.8827 754.4044,-663.2981 744.8977,-667.975 749.8893,-672.8827"/>
</g>
<!-- 21 -->
<g id="node22" class="node">
<title>21</title>
<path fill="#42a1e6" stroke="#000000" d="M841,-544C841,-544 746,-544 746,-544 740,-544 734,-538 734,-532 734,-532 734,-473 734,-473 734,-467 740,-461 746,-461 746,-461 841,-461 841,-461 847,-461 853,-467 853,-473 853,-473 853,-532 853,-532 853,-538 847,-544 841,-544"/>
<text text-anchor="start" x="742" y="-528.8" font-family="Helvetica,sans-Serif" font-size="14.00" fill="#000000">MCP.1 ≤ 67.966</text>
<text text-anchor="start" x="760" y="-513.8" font-family="Helvetica,sans-Serif" font-size="14.00" fill="#000000">gini = 0.08</text>
<text text-anchor="start" x="749.5" y="-498.8" font-family="Helvetica,sans-Serif" font-size="14.00" fill="#000000">samples = 24</text>
<text text-anchor="start" x="748" y="-483.8" font-family="Helvetica,sans-Serif" font-size="14.00" fill="#000000">value = [1, 23]</text>
<text text-anchor="start" x="764.5" y="-468.8" font-family="Helvetica,sans-Serif" font-size="14.00" fill="#000000">class = 2</text>
</g>
<!-- 20&#45;&gt;21 -->
<g id="edge21" class="edge">
<title>20&#45;&gt;21</title>
<path fill="none" stroke="#000000" d="M794.8005,-579.8796C794.6628,-571.6838 794.5166,-562.9891 794.374,-554.5013"/>
<polygon fill="#000000" stroke="#000000" points="797.8701,-554.2378 794.2025,-544.2981 790.8711,-554.3555 797.8701,-554.2378"/>
</g>
<!-- 24 -->
<g id="node25" class="node">
<title>24</title>
<path fill="#ffffff" stroke="#000000" d="M979.5,-544C979.5,-544 883.5,-544 883.5,-544 877.5,-544 871.5,-538 871.5,-532 871.5,-532 871.5,-473 871.5,-473 871.5,-467 877.5,-461 883.5,-461 883.5,-461 979.5,-461 979.5,-461 985.5,-461 991.5,-467 991.5,-473 991.5,-473 991.5,-532 991.5,-532 991.5,-538 985.5,-544 979.5,-544"/>
<text text-anchor="start" x="879.5" y="-528.8" font-family="Helvetica,sans-Serif" font-size="14.00" fill="#000000">Resistin ≤ 9.338</text>
<text text-anchor="start" x="902" y="-513.8" font-family="Helvetica,sans-Serif" font-size="14.00" fill="#000000">gini = 0.5</text>
<text text-anchor="start" x="892" y="-498.8" font-family="Helvetica,sans-Serif" font-size="14.00" fill="#000000">samples = 6</text>
<text text-anchor="start" x="890" y="-483.8" font-family="Helvetica,sans-Serif" font-size="14.00" fill="#000000">value = [3, 3]</text>
<text text-anchor="start" x="902.5" y="-468.8" font-family="Helvetica,sans-Serif" font-size="14.00" fill="#000000">class = 1</text>
</g>
<!-- 20&#45;&gt;24 -->
<g id="edge24" class="edge">
<title>20&#45;&gt;24</title>
<path fill="none" stroke="#000000" d="M843.0662,-579.8796C853.6679,-570.6031 865.0002,-560.6874 875.8933,-551.1559"/>
<polygon fill="#000000" stroke="#000000" points="878.5098,-553.5172 883.7308,-544.2981 873.9002,-548.2491 878.5098,-553.5172"/>
</g>
<!-- 22 -->
<g id="node23" class="node">
<title>22</title>
<path fill="#e58139" stroke="#000000" d="M714,-417.5C714,-417.5 639,-417.5 639,-417.5 633,-417.5 627,-411.5 627,-405.5 627,-405.5 627,-361.5 627,-361.5 627,-355.5 633,-349.5 639,-349.5 639,-349.5 714,-349.5 714,-349.5 720,-349.5 726,-355.5 726,-361.5 726,-361.5 726,-405.5 726,-405.5 726,-411.5 720,-417.5 714,-417.5"/>
<text text-anchor="start" x="647" y="-402.3" font-family="Helvetica,sans-Serif" font-size="14.00" fill="#000000">gini = 0.0</text>
<text text-anchor="start" x="637" y="-387.3" font-family="Helvetica,sans-Serif" font-size="14.00" fill="#000000">samples = 1</text>
<text text-anchor="start" x="635" y="-372.3" font-family="Helvetica,sans-Serif" font-size="14.00" fill="#000000">value = [1, 0]</text>
<text text-anchor="start" x="647.5" y="-357.3" font-family="Helvetica,sans-Serif" font-size="14.00" fill="#000000">class = 1</text>
</g>
<!-- 21&#45;&gt;22 -->
<g id="edge22" class="edge">
<title>21&#45;&gt;22</title>
<path fill="none" stroke="#000000" d="M752.5791,-460.8796C741.2272,-449.3337 728.9018,-436.7976 717.543,-425.2446"/>
<polygon fill="#000000" stroke="#000000" points="719.7449,-422.4919 710.2382,-417.8149 714.7534,-427.3995 719.7449,-422.4919"/>
</g>
<!-- 23 -->
<g id="node24" class="node">
<title>23</title>
<path fill="#399de5" stroke="#000000" d="M839,-417.5C839,-417.5 756,-417.5 756,-417.5 750,-417.5 744,-411.5 744,-405.5 744,-405.5 744,-361.5 744,-361.5 744,-355.5 750,-349.5 756,-349.5 756,-349.5 839,-349.5 839,-349.5 845,-349.5 851,-355.5 851,-361.5 851,-361.5 851,-405.5 851,-405.5 851,-411.5 845,-417.5 839,-417.5"/>
<text text-anchor="start" x="768" y="-402.3" font-family="Helvetica,sans-Serif" font-size="14.00" fill="#000000">gini = 0.0</text>
<text text-anchor="start" x="753.5" y="-387.3" font-family="Helvetica,sans-Serif" font-size="14.00" fill="#000000">samples = 23</text>
<text text-anchor="start" x="752" y="-372.3" font-family="Helvetica,sans-Serif" font-size="14.00" fill="#000000">value = [0, 23]</text>
<text text-anchor="start" x="768.5" y="-357.3" font-family="Helvetica,sans-Serif" font-size="14.00" fill="#000000">class = 2</text>
</g>
<!-- 21&#45;&gt;23 -->
<g id="edge23" class="edge">
<title>21&#45;&gt;23</title>
<path fill="none" stroke="#000000" d="M794.899,-460.8796C795.2575,-450.2134 795.6445,-438.7021 796.0075,-427.9015"/>
<polygon fill="#000000" stroke="#000000" points="799.5085,-427.9269 796.3466,-417.8149 792.5125,-427.6917 799.5085,-427.9269"/>
</g>
<!-- 25 -->
<g id="node26" class="node">
<title>25</title>
<path fill="#399de5" stroke="#000000" d="M964,-417.5C964,-417.5 889,-417.5 889,-417.5 883,-417.5 877,-411.5 877,-405.5 877,-405.5 877,-361.5 877,-361.5 877,-355.5 883,-349.5 889,-349.5 889,-349.5 964,-349.5 964,-349.5 970,-349.5 976,-355.5 976,-361.5 976,-361.5 976,-405.5 976,-405.5 976,-411.5 970,-417.5 964,-417.5"/>
<text text-anchor="start" x="897" y="-402.3" font-family="Helvetica,sans-Serif" font-size="14.00" fill="#000000">gini = 0.0</text>
<text text-anchor="start" x="887" y="-387.3" font-family="Helvetica,sans-Serif" font-size="14.00" fill="#000000">samples = 3</text>
<text text-anchor="start" x="885" y="-372.3" font-family="Helvetica,sans-Serif" font-size="14.00" fill="#000000">value = [0, 3]</text>
<text text-anchor="start" x="897.5" y="-357.3" font-family="Helvetica,sans-Serif" font-size="14.00" fill="#000000">class = 2</text>
</g>
<!-- 24&#45;&gt;25 -->
<g id="edge25" class="edge">
<title>24&#45;&gt;25</title>
<path fill="none" stroke="#000000" d="M929.7512,-460.8796C929.3031,-450.2134 928.8194,-438.7021 928.3656,-427.9015"/>
<polygon fill="#000000" stroke="#000000" points="931.8586,-427.6592 927.9418,-417.8149 924.8648,-427.9531 931.8586,-427.6592"/>
</g>
<!-- 26 -->
<g id="node27" class="node">
<title>26</title>
<path fill="#e58139" stroke="#000000" d="M1081,-417.5C1081,-417.5 1006,-417.5 1006,-417.5 1000,-417.5 994,-411.5 994,-405.5 994,-405.5 994,-361.5 994,-361.5 994,-355.5 1000,-349.5 1006,-349.5 1006,-349.5 1081,-349.5 1081,-349.5 1087,-349.5 1093,-355.5 1093,-361.5 1093,-361.5 1093,-405.5 1093,-405.5 1093,-411.5 1087,-417.5 1081,-417.5"/>
<text text-anchor="start" x="1014" y="-402.3" font-family="Helvetica,sans-Serif" font-size="14.00" fill="#000000">gini = 0.0</text>
<text text-anchor="start" x="1004" y="-387.3" font-family="Helvetica,sans-Serif" font-size="14.00" fill="#000000">samples = 3</text>
<text text-anchor="start" x="1002" y="-372.3" font-family="Helvetica,sans-Serif" font-size="14.00" fill="#000000">value = [3, 0]</text>
<text text-anchor="start" x="1014.5" y="-357.3" font-family="Helvetica,sans-Serif" font-size="14.00" fill="#000000">class = 1</text>
</g>
<!-- 24&#45;&gt;26 -->
<g id="edge26" class="edge">
<title>24&#45;&gt;26</title>
<path fill="none" stroke="#000000" d="M970.6722,-460.8796C981.5389,-449.3337 993.3376,-436.7976 1004.2109,-425.2446"/>
<polygon fill="#000000" stroke="#000000" points="1006.8986,-427.4958 1011.2036,-417.8149 1001.8012,-422.6982 1006.8986,-427.4958"/>
</g>
</g>
</svg>
