<?xml version="1.0" encoding="UTF-8" standalone="no"?>
<!DOCTYPE svg PUBLIC "-//W3C//DTD SVG 1.1//EN"
 "http://www.w3.org/Graphics/SVG/1.1/DTD/svg11.dtd">
<!-- Generated by graphviz version 2.40.1 (20161225.0304)
 -->
<!-- Title: Tree Pages: 1 -->
<svg width="1029pt" height="1147pt"
 viewBox="0.00 0.00 1029.00 1147.00" xmlns="http://www.w3.org/2000/svg" xmlns:xlink="http://www.w3.org/1999/xlink">
<g id="graph0" class="graph" transform="scale(1 1) rotate(0) translate(4 1143)">
<title>Tree</title>
<polygon fill="#ffffff" stroke="transparent" points="-4,4 -4,-1143 1025,-1143 1025,4 -4,4"/>
<!-- 0 -->
<g id="node1" class="node">
<title>0</title>
<path fill="#fafdfe" stroke="#000000" d="M672.5,-1139C672.5,-1139 580.5,-1139 580.5,-1139 574.5,-1139 568.5,-1133 568.5,-1127 568.5,-1127 568.5,-1068 568.5,-1068 568.5,-1062 574.5,-1056 580.5,-1056 580.5,-1056 672.5,-1056 672.5,-1056 678.5,-1056 684.5,-1062 684.5,-1068 684.5,-1068 684.5,-1127 684.5,-1127 684.5,-1133 678.5,-1139 672.5,-1139"/>
<text text-anchor="start" x="577.5" y="-1123.8" font-family="Helvetica,sans-Serif" font-size="14.00" fill="#000000">Glucose ≤ 96.5</text>
<text text-anchor="start" x="584" y="-1108.8" font-family="Helvetica,sans-Serif" font-size="14.00" fill="#000000">entropy = 1.0</text>
<text text-anchor="start" x="582.5" y="-1093.8" font-family="Helvetica,sans-Serif" font-size="14.00" fill="#000000">samples = 81</text>
<text text-anchor="start" x="576.5" y="-1078.8" font-family="Helvetica,sans-Serif" font-size="14.00" fill="#000000">value = [40, 41]</text>
<text text-anchor="start" x="597.5" y="-1063.8" font-family="Helvetica,sans-Serif" font-size="14.00" fill="#000000">class = 2</text>
</g>
<!-- 1 -->
<g id="node2" class="node">
<title>1</title>
<path fill="#f0b990" stroke="#000000" d="M606,-1020C606,-1020 511,-1020 511,-1020 505,-1020 499,-1014 499,-1008 499,-1008 499,-949 499,-949 499,-943 505,-937 511,-937 511,-937 606,-937 606,-937 612,-937 618,-943 618,-949 618,-949 618,-1008 618,-1008 618,-1014 612,-1020 606,-1020"/>
<text text-anchor="start" x="507" y="-1004.8" font-family="Helvetica,sans-Serif" font-size="14.00" fill="#000000">Insulin ≤ 14.359</text>
<text text-anchor="start" x="507.5" y="-989.8" font-family="Helvetica,sans-Serif" font-size="14.00" fill="#000000">entropy = 0.889</text>
<text text-anchor="start" x="514.5" y="-974.8" font-family="Helvetica,sans-Serif" font-size="14.00" fill="#000000">samples = 49</text>
<text text-anchor="start" x="508.5" y="-959.8" font-family="Helvetica,sans-Serif" font-size="14.00" fill="#000000">value = [34, 15]</text>
<text text-anchor="start" x="529.5" y="-944.8" font-family="Helvetica,sans-Serif" font-size="14.00" fill="#000000">class = 1</text>
</g>
<!-- 0&#45;&gt;1 -->
<g id="edge1" class="edge">
<title>0&#45;&gt;1</title>
<path fill="none" stroke="#000000" d="M602.7169,-1055.8796C597.7763,-1047.2335 592.5184,-1038.0322 587.4167,-1029.1042"/>
<polygon fill="#000000" stroke="#000000" points="590.3849,-1027.244 582.3846,-1020.2981 584.3072,-1030.717 590.3849,-1027.244"/>
<text text-anchor="middle" x="575.8067" y="-1040.7172" font-family="Helvetica,sans-Serif" font-size="14.00" fill="#000000">True</text>
</g>
<!-- 26 -->
<g id="node27" class="node">
<title>26</title>
<path fill="#67b4eb" stroke="#000000" d="M742.5,-1020C742.5,-1020 648.5,-1020 648.5,-1020 642.5,-1020 636.5,-1014 636.5,-1008 636.5,-1008 636.5,-949 636.5,-949 636.5,-943 642.5,-937 648.5,-937 648.5,-937 742.5,-937 742.5,-937 748.5,-937 754.5,-943 754.5,-949 754.5,-949 754.5,-1008 754.5,-1008 754.5,-1014 748.5,-1020 742.5,-1020"/>
<text text-anchor="start" x="649.5" y="-1004.8" font-family="Helvetica,sans-Serif" font-size="14.00" fill="#000000">Leptin ≤ 6.059</text>
<text text-anchor="start" x="644.5" y="-989.8" font-family="Helvetica,sans-Serif" font-size="14.00" fill="#000000">entropy = 0.696</text>
<text text-anchor="start" x="651.5" y="-974.8" font-family="Helvetica,sans-Serif" font-size="14.00" fill="#000000">samples = 32</text>
<text text-anchor="start" x="650" y="-959.8" font-family="Helvetica,sans-Serif" font-size="14.00" fill="#000000">value = [6, 26]</text>
<text text-anchor="start" x="666.5" y="-944.8" font-family="Helvetica,sans-Serif" font-size="14.00" fill="#000000">class = 2</text>
</g>
<!-- 0&#45;&gt;26 -->
<g id="edge26" class="edge">
<title>0&#45;&gt;26</title>
<path fill="none" stroke="#000000" d="M650.6329,-1055.8796C655.6461,-1047.2335 660.9813,-1038.0322 666.1581,-1029.1042"/>
<polygon fill="#000000" stroke="#000000" points="669.2758,-1030.7047 671.2641,-1020.2981 663.2202,-1027.1934 669.2758,-1030.7047"/>
<text text-anchor="middle" x="677.6897" y="-1040.7582" font-family="Helvetica,sans-Serif" font-size="14.00" fill="#000000">False</text>
</g>
<!-- 2 -->
<g id="node3" class="node">
<title>2</title>
<path fill="#eead7f" stroke="#000000" d="M477.5,-901C477.5,-901 383.5,-901 383.5,-901 377.5,-901 371.5,-895 371.5,-889 371.5,-889 371.5,-830 371.5,-830 371.5,-824 377.5,-818 383.5,-818 383.5,-818 477.5,-818 477.5,-818 483.5,-818 489.5,-824 489.5,-830 489.5,-830 489.5,-889 489.5,-889 489.5,-895 483.5,-901 477.5,-901"/>
<text text-anchor="start" x="382.5" y="-885.8" font-family="Helvetica,sans-Serif" font-size="14.00" fill="#000000">Resistin ≤ 7.74</text>
<text text-anchor="start" x="379.5" y="-870.8" font-family="Helvetica,sans-Serif" font-size="14.00" fill="#000000">entropy = 0.828</text>
<text text-anchor="start" x="386.5" y="-855.8" font-family="Helvetica,sans-Serif" font-size="14.00" fill="#000000">samples = 46</text>
<text text-anchor="start" x="380.5" y="-840.8" font-family="Helvetica,sans-Serif" font-size="14.00" fill="#000000">value = [34, 12]</text>
<text text-anchor="start" x="401.5" y="-825.8" font-family="Helvetica,sans-Serif" font-size="14.00" fill="#000000">class = 1</text>
</g>
<!-- 1&#45;&gt;2 -->
<g id="edge2" class="edge">
<title>1&#45;&gt;2</title>
<path fill="none" stroke="#000000" d="M513.7318,-936.8796C503.7537,-927.6031 493.0881,-917.6874 482.8358,-908.1559"/>
<polygon fill="#000000" stroke="#000000" points="485.1663,-905.5436 475.4593,-901.2981 480.4,-910.6704 485.1663,-905.5436"/>
</g>
<!-- 25 -->
<g id="node26" class="node">
<title>25</title>
<path fill="#399de5" stroke="#000000" d="M597,-893.5C597,-893.5 520,-893.5 520,-893.5 514,-893.5 508,-887.5 508,-881.5 508,-881.5 508,-837.5 508,-837.5 508,-831.5 514,-825.5 520,-825.5 520,-825.5 597,-825.5 597,-825.5 603,-825.5 609,-831.5 609,-837.5 609,-837.5 609,-881.5 609,-881.5 609,-887.5 603,-893.5 597,-893.5"/>
<text text-anchor="start" x="516" y="-878.3" font-family="Helvetica,sans-Serif" font-size="14.00" fill="#000000">entropy = 0.0</text>
<text text-anchor="start" x="519" y="-863.3" font-family="Helvetica,sans-Serif" font-size="14.00" fill="#000000">samples = 3</text>
<text text-anchor="start" x="517" y="-848.3" font-family="Helvetica,sans-Serif" font-size="14.00" fill="#000000">value = [0, 3]</text>
<text text-anchor="start" x="529.5" y="-833.3" font-family="Helvetica,sans-Serif" font-size="14.00" fill="#000000">class = 2</text>
</g>
<!-- 1&#45;&gt;25 -->
<g id="edge25" class="edge">
<title>1&#45;&gt;25</title>
<path fill="none" stroke="#000000" d="M558.5,-936.8796C558.5,-926.2134 558.5,-914.7021 558.5,-903.9015"/>
<polygon fill="#000000" stroke="#000000" points="562.0001,-903.8149 558.5,-893.8149 555.0001,-903.815 562.0001,-903.8149"/>
</g>
<!-- 3 -->
<g id="node4" class="node">
<title>3</title>
<path fill="#e58139" stroke="#000000" d="M337,-774.5C337,-774.5 254,-774.5 254,-774.5 248,-774.5 242,-768.5 242,-762.5 242,-762.5 242,-718.5 242,-718.5 242,-712.5 248,-706.5 254,-706.5 254,-706.5 337,-706.5 337,-706.5 343,-706.5 349,-712.5 349,-718.5 349,-718.5 349,-762.5 349,-762.5 349,-768.5 343,-774.5 337,-774.5"/>
<text text-anchor="start" x="253" y="-759.3" font-family="Helvetica,sans-Serif" font-size="14.00" fill="#000000">entropy = 0.0</text>
<text text-anchor="start" x="251.5" y="-744.3" font-family="Helvetica,sans-Serif" font-size="14.00" fill="#000000">samples = 12</text>
<text text-anchor="start" x="250" y="-729.3" font-family="Helvetica,sans-Serif" font-size="14.00" fill="#000000">value = [12, 0]</text>
<text text-anchor="start" x="266.5" y="-714.3" font-family="Helvetica,sans-Serif" font-size="14.00" fill="#000000">class = 1</text>
</g>
<!-- 2&#45;&gt;3 -->
<g id="edge3" class="edge">
<title>2&#45;&gt;3</title>
<path fill="none" stroke="#000000" d="M383.2836,-817.8796C369.9358,-806.1138 355.4215,-793.3197 342.1096,-781.5855"/>
<polygon fill="#000000" stroke="#000000" points="344.2448,-778.8019 334.4287,-774.8149 339.616,-784.0531 344.2448,-778.8019"/>
</g>
<!-- 4 -->
<g id="node5" class="node">
<title>4</title>
<path fill="#f3c6a5" stroke="#000000" d="M483.5,-782C483.5,-782 379.5,-782 379.5,-782 373.5,-782 367.5,-776 367.5,-770 367.5,-770 367.5,-711 367.5,-711 367.5,-705 373.5,-699 379.5,-699 379.5,-699 483.5,-699 483.5,-699 489.5,-699 495.5,-705 495.5,-711 495.5,-711 495.5,-770 495.5,-770 495.5,-776 489.5,-782 483.5,-782"/>
<text text-anchor="start" x="375.5" y="-766.8" font-family="Helvetica,sans-Serif" font-size="14.00" fill="#000000">MCP.1 ≤ 339.218</text>
<text text-anchor="start" x="380.5" y="-751.8" font-family="Helvetica,sans-Serif" font-size="14.00" fill="#000000">entropy = 0.937</text>
<text text-anchor="start" x="387.5" y="-736.8" font-family="Helvetica,sans-Serif" font-size="14.00" fill="#000000">samples = 34</text>
<text text-anchor="start" x="381.5" y="-721.8" font-family="Helvetica,sans-Serif" font-size="14.00" fill="#000000">value = [22, 12]</text>
<text text-anchor="start" x="402.5" y="-706.8" font-family="Helvetica,sans-Serif" font-size="14.00" fill="#000000">class = 1</text>
</g>
<!-- 2&#45;&gt;4 -->
<g id="edge4" class="edge">
<title>2&#45;&gt;4</title>
<path fill="none" stroke="#000000" d="M430.8498,-817.8796C430.9186,-809.6838 430.9917,-800.9891 431.063,-792.5013"/>
<polygon fill="#000000" stroke="#000000" points="434.5645,-792.3272 431.1488,-782.2981 427.5648,-792.2683 434.5645,-792.3272"/>
</g>
<!-- 5 -->
<g id="node6" class="node">
<title>5</title>
<path fill="#8ec7f0" stroke="#000000" d="M344.5,-663C344.5,-663 240.5,-663 240.5,-663 234.5,-663 228.5,-657 228.5,-651 228.5,-651 228.5,-592 228.5,-592 228.5,-586 234.5,-580 240.5,-580 240.5,-580 344.5,-580 344.5,-580 350.5,-580 356.5,-586 356.5,-592 356.5,-592 356.5,-651 356.5,-651 356.5,-657 350.5,-663 344.5,-663"/>
<text text-anchor="start" x="236.5" y="-647.8" font-family="Helvetica,sans-Serif" font-size="14.00" fill="#000000">Resistin ≤ 12.674</text>
<text text-anchor="start" x="241.5" y="-632.8" font-family="Helvetica,sans-Serif" font-size="14.00" fill="#000000">entropy = 0.881</text>
<text text-anchor="start" x="248.5" y="-617.8" font-family="Helvetica,sans-Serif" font-size="14.00" fill="#000000">samples = 10</text>
<text text-anchor="start" x="251" y="-602.8" font-family="Helvetica,sans-Serif" font-size="14.00" fill="#000000">value = [3, 7]</text>
<text text-anchor="start" x="263.5" y="-587.8" font-family="Helvetica,sans-Serif" font-size="14.00" fill="#000000">class = 2</text>
</g>
<!-- 4&#45;&gt;5 -->
<g id="edge5" class="edge">
<title>4&#45;&gt;5</title>
<path fill="none" stroke="#000000" d="M382.8845,-698.8796C371.9438,-689.513 360.2418,-679.4948 349.0092,-669.8784"/>
<polygon fill="#000000" stroke="#000000" points="351.1956,-667.1428 341.323,-663.2981 346.6432,-672.4603 351.1956,-667.1428"/>
</g>
<!-- 12 -->
<g id="node13" class="node">
<title>12</title>
<path fill="#eca26d" stroke="#000000" d="M480.5,-663C480.5,-663 386.5,-663 386.5,-663 380.5,-663 374.5,-657 374.5,-651 374.5,-651 374.5,-592 374.5,-592 374.5,-586 380.5,-580 386.5,-580 386.5,-580 480.5,-580 480.5,-580 486.5,-580 492.5,-586 492.5,-592 492.5,-592 492.5,-651 492.5,-651 492.5,-657 486.5,-663 480.5,-663"/>
<text text-anchor="start" x="386.5" y="-647.8" font-family="Helvetica,sans-Serif" font-size="14.00" fill="#000000">Insulin ≤ 3.119</text>
<text text-anchor="start" x="382.5" y="-632.8" font-family="Helvetica,sans-Serif" font-size="14.00" fill="#000000">entropy = 0.738</text>
<text text-anchor="start" x="389.5" y="-617.8" font-family="Helvetica,sans-Serif" font-size="14.00" fill="#000000">samples = 24</text>
<text text-anchor="start" x="388" y="-602.8" font-family="Helvetica,sans-Serif" font-size="14.00" fill="#000000">value = [19, 5]</text>
<text text-anchor="start" x="404.5" y="-587.8" font-family="Helvetica,sans-Serif" font-size="14.00" fill="#000000">class = 1</text>
</g>
<!-- 4&#45;&gt;12 -->
<g id="edge12" class="edge">
<title>4&#45;&gt;12</title>
<path fill="none" stroke="#000000" d="M432.1995,-698.8796C432.3372,-690.6838 432.4834,-681.9891 432.626,-673.5013"/>
<polygon fill="#000000" stroke="#000000" points="436.1289,-673.3555 432.7975,-663.2981 429.1299,-673.2378 436.1289,-673.3555"/>
</g>
<!-- 6 -->
<g id="node7" class="node">
<title>6</title>
<path fill="#ffffff" stroke="#000000" d="M215.5,-544C215.5,-544 127.5,-544 127.5,-544 121.5,-544 115.5,-538 115.5,-532 115.5,-532 115.5,-473 115.5,-473 115.5,-467 121.5,-461 127.5,-461 127.5,-461 215.5,-461 215.5,-461 221.5,-461 227.5,-467 227.5,-473 227.5,-473 227.5,-532 227.5,-532 227.5,-538 221.5,-544 215.5,-544"/>
<text text-anchor="start" x="123.5" y="-528.8" font-family="Helvetica,sans-Serif" font-size="14.00" fill="#000000">Resistin ≤ 9.12</text>
<text text-anchor="start" x="129" y="-513.8" font-family="Helvetica,sans-Serif" font-size="14.00" fill="#000000">entropy = 1.0</text>
<text text-anchor="start" x="132" y="-498.8" font-family="Helvetica,sans-Serif" font-size="14.00" fill="#000000">samples = 6</text>
<text text-anchor="start" x="130" y="-483.8" font-family="Helvetica,sans-Serif" font-size="14.00" fill="#000000">value = [3, 3]</text>
<text text-anchor="start" x="142.5" y="-468.8" font-family="Helvetica,sans-Serif" font-size="14.00" fill="#000000">class = 1</text>
</g>
<!-- 5&#45;&gt;6 -->
<g id="edge6" class="edge">
<title>5&#45;&gt;6</title>
<path fill="none" stroke="#000000" d="M250.1801,-579.8796C240.8392,-570.6931 230.861,-560.8798 221.256,-551.4336"/>
<polygon fill="#000000" stroke="#000000" points="223.5845,-548.8146 214.0006,-544.2981 218.6762,-553.8054 223.5845,-548.8146"/>
</g>
<!-- 11 -->
<g id="node12" class="node">
<title>11</title>
<path fill="#399de5" stroke="#000000" d="M335,-536.5C335,-536.5 258,-536.5 258,-536.5 252,-536.5 246,-530.5 246,-524.5 246,-524.5 246,-480.5 246,-480.5 246,-474.5 252,-468.5 258,-468.5 258,-468.5 335,-468.5 335,-468.5 341,-468.5 347,-474.5 347,-480.5 347,-480.5 347,-524.5 347,-524.5 347,-530.5 341,-536.5 335,-536.5"/>
<text text-anchor="start" x="254" y="-521.3" font-family="Helvetica,sans-Serif" font-size="14.00" fill="#000000">entropy = 0.0</text>
<text text-anchor="start" x="257" y="-506.3" font-family="Helvetica,sans-Serif" font-size="14.00" fill="#000000">samples = 4</text>
<text text-anchor="start" x="255" y="-491.3" font-family="Helvetica,sans-Serif" font-size="14.00" fill="#000000">value = [0, 4]</text>
<text text-anchor="start" x="267.5" y="-476.3" font-family="Helvetica,sans-Serif" font-size="14.00" fill="#000000">class = 2</text>
</g>
<!-- 5&#45;&gt;11 -->
<g id="edge11" class="edge">
<title>5&#45;&gt;11</title>
<path fill="none" stroke="#000000" d="M293.899,-579.8796C294.2575,-569.2134 294.6445,-557.7021 295.0075,-546.9015"/>
<polygon fill="#000000" stroke="#000000" points="298.5085,-546.9269 295.3466,-536.8149 291.5125,-546.6917 298.5085,-546.9269"/>
</g>
<!-- 7 -->
<g id="node8" class="node">
<title>7</title>
<path fill="#399de5" stroke="#000000" d="M89,-417.5C89,-417.5 12,-417.5 12,-417.5 6,-417.5 0,-411.5 0,-405.5 0,-405.5 0,-361.5 0,-361.5 0,-355.5 6,-349.5 12,-349.5 12,-349.5 89,-349.5 89,-349.5 95,-349.5 101,-355.5 101,-361.5 101,-361.5 101,-405.5 101,-405.5 101,-411.5 95,-417.5 89,-417.5"/>
<text text-anchor="start" x="8" y="-402.3" font-family="Helvetica,sans-Serif" font-size="14.00" fill="#000000">entropy = 0.0</text>
<text text-anchor="start" x="11" y="-387.3" font-family="Helvetica,sans-Serif" font-size="14.00" fill="#000000">samples = 2</text>
<text text-anchor="start" x="9" y="-372.3" font-family="Helvetica,sans-Serif" font-size="14.00" fill="#000000">value = [0, 2]</text>
<text text-anchor="start" x="21.5" y="-357.3" font-family="Helvetica,sans-Serif" font-size="14.00" fill="#000000">class = 2</text>
</g>
<!-- 6&#45;&gt;7 -->
<g id="edge7" class="edge">
<title>6&#45;&gt;7</title>
<path fill="none" stroke="#000000" d="M129.1801,-460.8796C117.3283,-449.2237 104.4505,-436.5587 92.6109,-424.9148"/>
<polygon fill="#000000" stroke="#000000" points="94.9756,-422.3314 85.3917,-417.8149 90.0673,-427.3223 94.9756,-422.3314"/>
</g>
<!-- 8 -->
<g id="node9" class="node">
<title>8</title>
<path fill="#eeab7b" stroke="#000000" d="M225.5,-425C225.5,-425 131.5,-425 131.5,-425 125.5,-425 119.5,-419 119.5,-413 119.5,-413 119.5,-354 119.5,-354 119.5,-348 125.5,-342 131.5,-342 131.5,-342 225.5,-342 225.5,-342 231.5,-342 237.5,-348 237.5,-354 237.5,-354 237.5,-413 237.5,-413 237.5,-419 231.5,-425 225.5,-425"/>
<text text-anchor="start" x="132.5" y="-409.8" font-family="Helvetica,sans-Serif" font-size="14.00" fill="#000000">Leptin ≤ 34.97</text>
<text text-anchor="start" x="127.5" y="-394.8" font-family="Helvetica,sans-Serif" font-size="14.00" fill="#000000">entropy = 0.811</text>
<text text-anchor="start" x="139" y="-379.8" font-family="Helvetica,sans-Serif" font-size="14.00" fill="#000000">samples = 4</text>
<text text-anchor="start" x="137" y="-364.8" font-family="Helvetica,sans-Serif" font-size="14.00" fill="#000000">value = [3, 1]</text>
<text text-anchor="start" x="149.5" y="-349.8" font-family="Helvetica,sans-Serif" font-size="14.00" fill="#000000">class = 1</text>
</g>
<!-- 6&#45;&gt;8 -->
<g id="edge8" class="edge">
<title>6&#45;&gt;8</title>
<path fill="none" stroke="#000000" d="M173.9483,-460.8796C174.4304,-452.6838 174.9418,-443.9891 175.4411,-435.5013"/>
<polygon fill="#000000" stroke="#000000" points="178.9479,-435.4864 176.0413,-425.2981 171.96,-435.0753 178.9479,-435.4864"/>
</g>
<!-- 9 -->
<g id="node10" class="node">
<title>9</title>
<path fill="#e58139" stroke="#000000" d="M157,-298.5C157,-298.5 80,-298.5 80,-298.5 74,-298.5 68,-292.5 68,-286.5 68,-286.5 68,-242.5 68,-242.5 68,-236.5 74,-230.5 80,-230.5 80,-230.5 157,-230.5 157,-230.5 163,-230.5 169,-236.5 169,-242.5 169,-242.5 169,-286.5 169,-286.5 169,-292.5 163,-298.5 157,-298.5"/>
<text text-anchor="start" x="76" y="-283.3" font-family="Helvetica,sans-Serif" font-size="14.00" fill="#000000">entropy = 0.0</text>
<text text-anchor="start" x="79" y="-268.3" font-family="Helvetica,sans-Serif" font-size="14.00" fill="#000000">samples = 3</text>
<text text-anchor="start" x="77" y="-253.3" font-family="Helvetica,sans-Serif" font-size="14.00" fill="#000000">value = [3, 0]</text>
<text text-anchor="start" x="89.5" y="-238.3" font-family="Helvetica,sans-Serif" font-size="14.00" fill="#000000">class = 1</text>
</g>
<!-- 8&#45;&gt;9 -->
<g id="edge9" class="edge">
<title>8&#45;&gt;9</title>
<path fill="none" stroke="#000000" d="M157.5149,-341.8796C151.9707,-330.8835 145.9736,-318.9893 140.3831,-307.9015"/>
<polygon fill="#000000" stroke="#000000" points="143.4291,-306.1684 135.8016,-298.8149 137.1786,-309.3199 143.4291,-306.1684"/>
</g>
<!-- 10 -->
<g id="node11" class="node">
<title>10</title>
<path fill="#399de5" stroke="#000000" d="M276,-298.5C276,-298.5 199,-298.5 199,-298.5 193,-298.5 187,-292.5 187,-286.5 187,-286.5 187,-242.5 187,-242.5 187,-236.5 193,-230.5 199,-230.5 199,-230.5 276,-230.5 276,-230.5 282,-230.5 288,-236.5 288,-242.5 288,-242.5 288,-286.5 288,-286.5 288,-292.5 282,-298.5 276,-298.5"/>
<text text-anchor="start" x="195" y="-283.3" font-family="Helvetica,sans-Serif" font-size="14.00" fill="#000000">entropy = 0.0</text>
<text text-anchor="start" x="198" y="-268.3" font-family="Helvetica,sans-Serif" font-size="14.00" fill="#000000">samples = 1</text>
<text text-anchor="start" x="196" y="-253.3" font-family="Helvetica,sans-Serif" font-size="14.00" fill="#000000">value = [0, 1]</text>
<text text-anchor="start" x="208.5" y="-238.3" font-family="Helvetica,sans-Serif" font-size="14.00" fill="#000000">class = 2</text>
</g>
<!-- 8&#45;&gt;10 -->
<g id="edge10" class="edge">
<title>8&#45;&gt;10</title>
<path fill="none" stroke="#000000" d="M199.1353,-341.8796C204.5872,-330.8835 210.4843,-318.9893 215.9816,-307.9015"/>
<polygon fill="#000000" stroke="#000000" points="219.1804,-309.3289 220.4867,-298.8149 212.9089,-306.2195 219.1804,-309.3289"/>
</g>
<!-- 13 -->
<g id="node14" class="node">
<title>13</title>
<path fill="#7bbeee" stroke="#000000" d="M477.5,-544C477.5,-544 383.5,-544 383.5,-544 377.5,-544 371.5,-538 371.5,-532 371.5,-532 371.5,-473 371.5,-473 371.5,-467 377.5,-461 383.5,-461 383.5,-461 477.5,-461 477.5,-461 483.5,-461 489.5,-467 489.5,-473 489.5,-473 489.5,-532 489.5,-532 489.5,-538 483.5,-544 477.5,-544"/>
<text text-anchor="start" x="381.5" y="-528.8" font-family="Helvetica,sans-Serif" font-size="14.00" fill="#000000">Glucose ≤ 74.0</text>
<text text-anchor="start" x="379.5" y="-513.8" font-family="Helvetica,sans-Serif" font-size="14.00" fill="#000000">entropy = 0.811</text>
<text text-anchor="start" x="391" y="-498.8" font-family="Helvetica,sans-Serif" font-size="14.00" fill="#000000">samples = 4</text>
<text text-anchor="start" x="389" y="-483.8" font-family="Helvetica,sans-Serif" font-size="14.00" fill="#000000">value = [1, 3]</text>
<text text-anchor="start" x="401.5" y="-468.8" font-family="Helvetica,sans-Serif" font-size="14.00" fill="#000000">class = 2</text>
</g>
<!-- 12&#45;&gt;13 -->
<g id="edge13" class="edge">
<title>12&#45;&gt;13</title>
<path fill="none" stroke="#000000" d="M432.4507,-579.8796C432.2441,-571.6838 432.0249,-562.9891 431.811,-554.5013"/>
<polygon fill="#000000" stroke="#000000" points="435.3047,-554.2067 431.5537,-544.2981 428.307,-554.3831 435.3047,-554.2067"/>
</g>
<!-- 16 -->
<g id="node17" class="node">
<title>16</title>
<path fill="#e88f4f" stroke="#000000" d="M641,-544C641,-544 520,-544 520,-544 514,-544 508,-538 508,-532 508,-532 508,-473 508,-473 508,-467 514,-461 520,-461 520,-461 641,-461 641,-461 647,-461 653,-467 653,-473 653,-473 653,-532 653,-532 653,-538 647,-544 641,-544"/>
<text text-anchor="start" x="516" y="-528.8" font-family="Helvetica,sans-Serif" font-size="14.00" fill="#000000">Adiponectin ≤ 6.806</text>
<text text-anchor="start" x="529.5" y="-513.8" font-family="Helvetica,sans-Serif" font-size="14.00" fill="#000000">entropy = 0.469</text>
<text text-anchor="start" x="536.5" y="-498.8" font-family="Helvetica,sans-Serif" font-size="14.00" fill="#000000">samples = 20</text>
<text text-anchor="start" x="535" y="-483.8" font-family="Helvetica,sans-Serif" font-size="14.00" fill="#000000">value = [18, 2]</text>
<text text-anchor="start" x="551.5" y="-468.8" font-family="Helvetica,sans-Serif" font-size="14.00" fill="#000000">class = 1</text>
</g>
<!-- 12&#45;&gt;16 -->
<g id="edge16" class="edge">
<title>12&#45;&gt;16</title>
<path fill="none" stroke="#000000" d="M484.9135,-579.8796C496.5952,-570.4229 509.0975,-560.302 521.081,-550.6011"/>
<polygon fill="#000000" stroke="#000000" points="523.2968,-553.3105 528.8671,-544.2981 518.8924,-547.8697 523.2968,-553.3105"/>
</g>
<!-- 14 -->
<g id="node15" class="node">
<title>14</title>
<path fill="#e58139" stroke="#000000" d="M359,-417.5C359,-417.5 282,-417.5 282,-417.5 276,-417.5 270,-411.5 270,-405.5 270,-405.5 270,-361.5 270,-361.5 270,-355.5 276,-349.5 282,-349.5 282,-349.5 359,-349.5 359,-349.5 365,-349.5 371,-355.5 371,-361.5 371,-361.5 371,-405.5 371,-405.5 371,-411.5 365,-417.5 359,-417.5"/>
<text text-anchor="start" x="278" y="-402.3" font-family="Helvetica,sans-Serif" font-size="14.00" fill="#000000">entropy = 0.0</text>
<text text-anchor="start" x="281" y="-387.3" font-family="Helvetica,sans-Serif" font-size="14.00" fill="#000000">samples = 1</text>
<text text-anchor="start" x="279" y="-372.3" font-family="Helvetica,sans-Serif" font-size="14.00" fill="#000000">value = [1, 0]</text>
<text text-anchor="start" x="291.5" y="-357.3" font-family="Helvetica,sans-Serif" font-size="14.00" fill="#000000">class = 1</text>
</g>
<!-- 13&#45;&gt;14 -->
<g id="edge14" class="edge">
<title>13&#45;&gt;14</title>
<path fill="none" stroke="#000000" d="M392.0273,-460.8796C381.3547,-449.3337 369.7667,-436.7976 359.0875,-425.2446"/>
<polygon fill="#000000" stroke="#000000" points="361.5778,-422.7825 352.2197,-417.8149 356.4375,-427.534 361.5778,-422.7825"/>
</g>
<!-- 15 -->
<g id="node16" class="node">
<title>15</title>
<path fill="#399de5" stroke="#000000" d="M478,-417.5C478,-417.5 401,-417.5 401,-417.5 395,-417.5 389,-411.5 389,-405.5 389,-405.5 389,-361.5 389,-361.5 389,-355.5 395,-349.5 401,-349.5 401,-349.5 478,-349.5 478,-349.5 484,-349.5 490,-355.5 490,-361.5 490,-361.5 490,-405.5 490,-405.5 490,-411.5 484,-417.5 478,-417.5"/>
<text text-anchor="start" x="397" y="-402.3" font-family="Helvetica,sans-Serif" font-size="14.00" fill="#000000">entropy = 0.0</text>
<text text-anchor="start" x="400" y="-387.3" font-family="Helvetica,sans-Serif" font-size="14.00" fill="#000000">samples = 3</text>
<text text-anchor="start" x="398" y="-372.3" font-family="Helvetica,sans-Serif" font-size="14.00" fill="#000000">value = [0, 3]</text>
<text text-anchor="start" x="410.5" y="-357.3" font-family="Helvetica,sans-Serif" font-size="14.00" fill="#000000">class = 2</text>
</g>
<!-- 13&#45;&gt;15 -->
<g id="edge15" class="edge">
<title>13&#45;&gt;15</title>
<path fill="none" stroke="#000000" d="M433.6478,-460.8796C434.4545,-450.2134 435.3251,-438.7021 436.1419,-427.9015"/>
<polygon fill="#000000" stroke="#000000" points="439.6405,-428.0504 436.9048,-417.8149 432.6605,-427.5225 439.6405,-428.0504"/>
</g>
<!-- 17 -->
<g id="node18" class="node">
<title>17</title>
<path fill="#eca572" stroke="#000000" d="M621.5,-425C621.5,-425 527.5,-425 527.5,-425 521.5,-425 515.5,-419 515.5,-413 515.5,-413 515.5,-354 515.5,-354 515.5,-348 521.5,-342 527.5,-342 527.5,-342 621.5,-342 621.5,-342 627.5,-342 633.5,-348 633.5,-354 633.5,-354 633.5,-413 633.5,-413 633.5,-419 627.5,-425 621.5,-425"/>
<text text-anchor="start" x="525.5" y="-409.8" font-family="Helvetica,sans-Serif" font-size="14.00" fill="#000000">Glucose ≤ 85.0</text>
<text text-anchor="start" x="523.5" y="-394.8" font-family="Helvetica,sans-Serif" font-size="14.00" fill="#000000">entropy = 0.764</text>
<text text-anchor="start" x="535" y="-379.8" font-family="Helvetica,sans-Serif" font-size="14.00" fill="#000000">samples = 9</text>
<text text-anchor="start" x="533" y="-364.8" font-family="Helvetica,sans-Serif" font-size="14.00" fill="#000000">value = [7, 2]</text>
<text text-anchor="start" x="545.5" y="-349.8" font-family="Helvetica,sans-Serif" font-size="14.00" fill="#000000">class = 1</text>
</g>
<!-- 16&#45;&gt;17 -->
<g id="edge17" class="edge">
<title>16&#45;&gt;17</title>
<path fill="none" stroke="#000000" d="M578.4015,-460.8796C577.9883,-452.6838 577.5499,-443.9891 577.1219,-435.5013"/>
<polygon fill="#000000" stroke="#000000" points="580.6067,-435.1091 576.6075,-425.2981 573.6156,-435.4617 580.6067,-435.1091"/>
</g>
<!-- 24 -->
<g id="node25" class="node">
<title>24</title>
<path fill="#e58139" stroke="#000000" d="M747,-417.5C747,-417.5 664,-417.5 664,-417.5 658,-417.5 652,-411.5 652,-405.5 652,-405.5 652,-361.5 652,-361.5 652,-355.5 658,-349.5 664,-349.5 664,-349.5 747,-349.5 747,-349.5 753,-349.5 759,-355.5 759,-361.5 759,-361.5 759,-405.5 759,-405.5 759,-411.5 753,-417.5 747,-417.5"/>
<text text-anchor="start" x="663" y="-402.3" font-family="Helvetica,sans-Serif" font-size="14.00" fill="#000000">entropy = 0.0</text>
<text text-anchor="start" x="661.5" y="-387.3" font-family="Helvetica,sans-Serif" font-size="14.00" fill="#000000">samples = 11</text>
<text text-anchor="start" x="660" y="-372.3" font-family="Helvetica,sans-Serif" font-size="14.00" fill="#000000">value = [11, 0]</text>
<text text-anchor="start" x="676.5" y="-357.3" font-family="Helvetica,sans-Serif" font-size="14.00" fill="#000000">class = 1</text>
</g>
<!-- 16&#45;&gt;24 -->
<g id="edge24" class="edge">
<title>16&#45;&gt;24</title>
<path fill="none" stroke="#000000" d="M624.2189,-460.8796C636.4625,-449.2237 649.7661,-436.5587 661.9971,-424.9148"/>
<polygon fill="#000000" stroke="#000000" points="664.6254,-427.245 669.4549,-417.8149 659.7988,-422.1751 664.6254,-427.245"/>
</g>
<!-- 18 -->
<g id="node19" class="node">
<title>18</title>
<path fill="#e58139" stroke="#000000" d="M550,-298.5C550,-298.5 473,-298.5 473,-298.5 467,-298.5 461,-292.5 461,-286.5 461,-286.5 461,-242.5 461,-242.5 461,-236.5 467,-230.5 473,-230.5 473,-230.5 550,-230.5 550,-230.5 556,-230.5 562,-236.5 562,-242.5 562,-242.5 562,-286.5 562,-286.5 562,-292.5 556,-298.5 550,-298.5"/>
<text text-anchor="start" x="469" y="-283.3" font-family="Helvetica,sans-Serif" font-size="14.00" fill="#000000">entropy = 0.0</text>
<text text-anchor="start" x="472" y="-268.3" font-family="Helvetica,sans-Serif" font-size="14.00" fill="#000000">samples = 5</text>
<text text-anchor="start" x="470" y="-253.3" font-family="Helvetica,sans-Serif" font-size="14.00" fill="#000000">value = [5, 0]</text>
<text text-anchor="start" x="482.5" y="-238.3" font-family="Helvetica,sans-Serif" font-size="14.00" fill="#000000">class = 1</text>
</g>
<!-- 17&#45;&gt;18 -->
<g id="edge18" class="edge">
<title>17&#45;&gt;18</title>
<path fill="none" stroke="#000000" d="M552.4657,-341.8796C546.6442,-330.8835 540.3473,-318.9893 534.4773,-307.9015"/>
<polygon fill="#000000" stroke="#000000" points="537.4389,-306.0152 529.6667,-298.8149 531.2524,-309.2905 537.4389,-306.0152"/>
</g>
<!-- 19 -->
<g id="node20" class="node">
<title>19</title>
<path fill="#ffffff" stroke="#000000" d="M682.5,-306C682.5,-306 592.5,-306 592.5,-306 586.5,-306 580.5,-300 580.5,-294 580.5,-294 580.5,-235 580.5,-235 580.5,-229 586.5,-223 592.5,-223 592.5,-223 682.5,-223 682.5,-223 688.5,-223 694.5,-229 694.5,-235 694.5,-235 694.5,-294 694.5,-294 694.5,-300 688.5,-306 682.5,-306"/>
<text text-anchor="start" x="588.5" y="-290.8" font-family="Helvetica,sans-Serif" font-size="14.00" fill="#000000">Glucose ≤ 86.5</text>
<text text-anchor="start" x="595" y="-275.8" font-family="Helvetica,sans-Serif" font-size="14.00" fill="#000000">entropy = 1.0</text>
<text text-anchor="start" x="598" y="-260.8" font-family="Helvetica,sans-Serif" font-size="14.00" fill="#000000">samples = 4</text>
<text text-anchor="start" x="596" y="-245.8" font-family="Helvetica,sans-Serif" font-size="14.00" fill="#000000">value = [2, 2]</text>
<text text-anchor="start" x="608.5" y="-230.8" font-family="Helvetica,sans-Serif" font-size="14.00" fill="#000000">class = 1</text>
</g>
<!-- 17&#45;&gt;19 -->
<g id="edge19" class="edge">
<title>17&#45;&gt;19</title>
<path fill="none" stroke="#000000" d="M596.5343,-341.8796C601.064,-333.3236 605.8815,-324.2238 610.5618,-315.3833"/>
<polygon fill="#000000" stroke="#000000" points="613.7859,-316.7736 615.3716,-306.2981 607.5994,-313.4983 613.7859,-316.7736"/>
</g>
<!-- 20 -->
<g id="node21" class="node">
<title>20</title>
<path fill="#399de5" stroke="#000000" d="M606,-179.5C606,-179.5 529,-179.5 529,-179.5 523,-179.5 517,-173.5 517,-167.5 517,-167.5 517,-123.5 517,-123.5 517,-117.5 523,-111.5 529,-111.5 529,-111.5 606,-111.5 606,-111.5 612,-111.5 618,-117.5 618,-123.5 618,-123.5 618,-167.5 618,-167.5 618,-173.5 612,-179.5 606,-179.5"/>
<text text-anchor="start" x="525" y="-164.3" font-family="Helvetica,sans-Serif" font-size="14.00" fill="#000000">entropy = 0.0</text>
<text text-anchor="start" x="528" y="-149.3" font-family="Helvetica,sans-Serif" font-size="14.00" fill="#000000">samples = 1</text>
<text text-anchor="start" x="526" y="-134.3" font-family="Helvetica,sans-Serif" font-size="14.00" fill="#000000">value = [0, 1]</text>
<text text-anchor="start" x="538.5" y="-119.3" font-family="Helvetica,sans-Serif" font-size="14.00" fill="#000000">class = 2</text>
</g>
<!-- 19&#45;&gt;20 -->
<g id="edge20" class="edge">
<title>19&#45;&gt;20</title>
<path fill="none" stroke="#000000" d="M613.0174,-222.8796C606.4844,-211.7735 599.4125,-199.7513 592.8348,-188.5691"/>
<polygon fill="#000000" stroke="#000000" points="595.7723,-186.6597 587.6853,-179.8149 589.7387,-190.2089 595.7723,-186.6597"/>
</g>
<!-- 21 -->
<g id="node22" class="node">
<title>21</title>
<path fill="#f2c09c" stroke="#000000" d="M769,-187C769,-187 648,-187 648,-187 642,-187 636,-181 636,-175 636,-175 636,-116 636,-116 636,-110 642,-104 648,-104 648,-104 769,-104 769,-104 775,-104 781,-110 781,-116 781,-116 781,-175 781,-175 781,-181 775,-187 769,-187"/>
<text text-anchor="start" x="644" y="-171.8" font-family="Helvetica,sans-Serif" font-size="14.00" fill="#000000">Adiponectin ≤ 5.872</text>
<text text-anchor="start" x="657.5" y="-156.8" font-family="Helvetica,sans-Serif" font-size="14.00" fill="#000000">entropy = 0.918</text>
<text text-anchor="start" x="669" y="-141.8" font-family="Helvetica,sans-Serif" font-size="14.00" fill="#000000">samples = 3</text>
<text text-anchor="start" x="667" y="-126.8" font-family="Helvetica,sans-Serif" font-size="14.00" fill="#000000">value = [2, 1]</text>
<text text-anchor="start" x="679.5" y="-111.8" font-family="Helvetica,sans-Serif" font-size="14.00" fill="#000000">class = 1</text>
</g>
<!-- 19&#45;&gt;21 -->
<g id="edge21" class="edge">
<title>19&#45;&gt;21</title>
<path fill="none" stroke="#000000" d="M662.3324,-222.8796C667.4909,-214.2335 672.9808,-205.0322 678.3076,-196.1042"/>
<polygon fill="#000000" stroke="#000000" points="681.4436,-197.679 683.5617,-187.2981 675.4322,-194.0924 681.4436,-197.679"/>
</g>
<!-- 22 -->
<g id="node23" class="node">
<title>22</title>
<path fill="#e58139" stroke="#000000" d="M688,-68C688,-68 611,-68 611,-68 605,-68 599,-62 599,-56 599,-56 599,-12 599,-12 599,-6 605,0 611,0 611,0 688,0 688,0 694,0 700,-6 700,-12 700,-12 700,-56 700,-56 700,-62 694,-68 688,-68"/>
<text text-anchor="start" x="607" y="-52.8" font-family="Helvetica,sans-Serif" font-size="14.00" fill="#000000">entropy = 0.0</text>
<text text-anchor="start" x="610" y="-37.8" font-family="Helvetica,sans-Serif" font-size="14.00" fill="#000000">samples = 2</text>
<text text-anchor="start" x="608" y="-22.8" font-family="Helvetica,sans-Serif" font-size="14.00" fill="#000000">value = [2, 0]</text>
<text text-anchor="start" x="620.5" y="-7.8" font-family="Helvetica,sans-Serif" font-size="14.00" fill="#000000">class = 1</text>
</g>
<!-- 21&#45;&gt;22 -->
<g id="edge22" class="edge">
<title>21&#45;&gt;22</title>
<path fill="none" stroke="#000000" d="M686.5306,-103.9815C681.9105,-95.2504 677.0264,-86.0202 672.374,-77.2281"/>
<polygon fill="#000000" stroke="#000000" points="675.4013,-75.4655 667.6306,-68.2637 669.2141,-78.7395 675.4013,-75.4655"/>
</g>
<!-- 23 -->
<g id="node24" class="node">
<title>23</title>
<path fill="#399de5" stroke="#000000" d="M807,-68C807,-68 730,-68 730,-68 724,-68 718,-62 718,-56 718,-56 718,-12 718,-12 718,-6 724,0 730,0 730,0 807,0 807,0 813,0 819,-6 819,-12 819,-12 819,-56 819,-56 819,-62 813,-68 807,-68"/>
<text text-anchor="start" x="726" y="-52.8" font-family="Helvetica,sans-Serif" font-size="14.00" fill="#000000">entropy = 0.0</text>
<text text-anchor="start" x="729" y="-37.8" font-family="Helvetica,sans-Serif" font-size="14.00" fill="#000000">samples = 1</text>
<text text-anchor="start" x="727" y="-22.8" font-family="Helvetica,sans-Serif" font-size="14.00" fill="#000000">value = [0, 1]</text>
<text text-anchor="start" x="739.5" y="-7.8" font-family="Helvetica,sans-Serif" font-size="14.00" fill="#000000">class = 2</text>
</g>
<!-- 21&#45;&gt;23 -->
<g id="edge23" class="edge">
<title>21&#45;&gt;23</title>
<path fill="none" stroke="#000000" d="M730.8418,-103.9815C735.5402,-95.2504 740.5071,-86.0202 745.2383,-77.2281"/>
<polygon fill="#000000" stroke="#000000" points="748.4056,-78.7282 750.0621,-68.2637 742.2414,-75.4111 748.4056,-78.7282"/>
</g>
<!-- 27 -->
<g id="node28" class="node">
<title>27</title>
<path fill="#e58139" stroke="#000000" d="M734,-893.5C734,-893.5 657,-893.5 657,-893.5 651,-893.5 645,-887.5 645,-881.5 645,-881.5 645,-837.5 645,-837.5 645,-831.5 651,-825.5 657,-825.5 657,-825.5 734,-825.5 734,-825.5 740,-825.5 746,-831.5 746,-837.5 746,-837.5 746,-881.5 746,-881.5 746,-887.5 740,-893.5 734,-893.5"/>
<text text-anchor="start" x="653" y="-878.3" font-family="Helvetica,sans-Serif" font-size="14.00" fill="#000000">entropy = 0.0</text>
<text text-anchor="start" x="656" y="-863.3" font-family="Helvetica,sans-Serif" font-size="14.00" fill="#000000">samples = 2</text>
<text text-anchor="start" x="654" y="-848.3" font-family="Helvetica,sans-Serif" font-size="14.00" fill="#000000">value = [2, 0]</text>
<text text-anchor="start" x="666.5" y="-833.3" font-family="Helvetica,sans-Serif" font-size="14.00" fill="#000000">class = 1</text>
</g>
<!-- 26&#45;&gt;27 -->
<g id="edge27" class="edge">
<title>26&#45;&gt;27</title>
<path fill="none" stroke="#000000" d="M695.5,-936.8796C695.5,-926.2134 695.5,-914.7021 695.5,-903.9015"/>
<polygon fill="#000000" stroke="#000000" points="699.0001,-903.8149 695.5,-893.8149 692.0001,-903.815 699.0001,-903.8149"/>
</g>
<!-- 28 -->
<g id="node29" class="node">
<title>28</title>
<path fill="#57ace9" stroke="#000000" d="M897,-901C897,-901 776,-901 776,-901 770,-901 764,-895 764,-889 764,-889 764,-830 764,-830 764,-824 770,-818 776,-818 776,-818 897,-818 897,-818 903,-818 909,-824 909,-830 909,-830 909,-889 909,-889 909,-895 903,-901 897,-901"/>
<text text-anchor="start" x="772" y="-885.8" font-family="Helvetica,sans-Serif" font-size="14.00" fill="#000000">Adiponectin ≤ 7.721</text>
<text text-anchor="start" x="785.5" y="-870.8" font-family="Helvetica,sans-Serif" font-size="14.00" fill="#000000">entropy = 0.567</text>
<text text-anchor="start" x="792.5" y="-855.8" font-family="Helvetica,sans-Serif" font-size="14.00" fill="#000000">samples = 30</text>
<text text-anchor="start" x="791" y="-840.8" font-family="Helvetica,sans-Serif" font-size="14.00" fill="#000000">value = [4, 26]</text>
<text text-anchor="start" x="807.5" y="-825.8" font-family="Helvetica,sans-Serif" font-size="14.00" fill="#000000">class = 2</text>
</g>
<!-- 26&#45;&gt;28 -->
<g id="edge28" class="edge">
<title>26&#45;&gt;28</title>
<path fill="none" stroke="#000000" d="M744.815,-936.8796C755.9132,-927.513 767.7835,-917.4948 779.1777,-907.8784"/>
<polygon fill="#000000" stroke="#000000" points="781.5899,-910.4225 786.9746,-901.2981 777.075,-905.0731 781.5899,-910.4225"/>
</g>
<!-- 29 -->
<g id="node30" class="node">
<title>29</title>
<path fill="#91c9f1" stroke="#000000" d="M882.5,-782C882.5,-782 790.5,-782 790.5,-782 784.5,-782 778.5,-776 778.5,-770 778.5,-770 778.5,-711 778.5,-711 778.5,-705 784.5,-699 790.5,-699 790.5,-699 882.5,-699 882.5,-699 888.5,-699 894.5,-705 894.5,-711 894.5,-711 894.5,-770 894.5,-770 894.5,-776 888.5,-782 882.5,-782"/>
<text text-anchor="start" x="786.5" y="-766.8" font-family="Helvetica,sans-Serif" font-size="14.00" fill="#000000">Leptin ≤ 64.103</text>
<text text-anchor="start" x="789.5" y="-751.8" font-family="Helvetica,sans-Serif" font-size="14.00" fill="#000000">entropy = 0.89</text>
<text text-anchor="start" x="792.5" y="-736.8" font-family="Helvetica,sans-Serif" font-size="14.00" fill="#000000">samples = 13</text>
<text text-anchor="start" x="795" y="-721.8" font-family="Helvetica,sans-Serif" font-size="14.00" fill="#000000">value = [4, 9]</text>
<text text-anchor="start" x="807.5" y="-706.8" font-family="Helvetica,sans-Serif" font-size="14.00" fill="#000000">class = 2</text>
</g>
<!-- 28&#45;&gt;29 -->
<g id="edge29" class="edge">
<title>28&#45;&gt;29</title>
<path fill="none" stroke="#000000" d="M836.5,-817.8796C836.5,-809.6838 836.5,-800.9891 836.5,-792.5013"/>
<polygon fill="#000000" stroke="#000000" points="840.0001,-792.298 836.5,-782.2981 833.0001,-792.2981 840.0001,-792.298"/>
</g>
<!-- 36 -->
<g id="node37" class="node">
<title>36</title>
<path fill="#399de5" stroke="#000000" d="M1008,-774.5C1008,-774.5 925,-774.5 925,-774.5 919,-774.5 913,-768.5 913,-762.5 913,-762.5 913,-718.5 913,-718.5 913,-712.5 919,-706.5 925,-706.5 925,-706.5 1008,-706.5 1008,-706.5 1014,-706.5 1020,-712.5 1020,-718.5 1020,-718.5 1020,-762.5 1020,-762.5 1020,-768.5 1014,-774.5 1008,-774.5"/>
<text text-anchor="start" x="924" y="-759.3" font-family="Helvetica,sans-Serif" font-size="14.00" fill="#000000">entropy = 0.0</text>
<text text-anchor="start" x="922.5" y="-744.3" font-family="Helvetica,sans-Serif" font-size="14.00" fill="#000000">samples = 17</text>
<text text-anchor="start" x="921" y="-729.3" font-family="Helvetica,sans-Serif" font-size="14.00" fill="#000000">value = [0, 17]</text>
<text text-anchor="start" x="937.5" y="-714.3" font-family="Helvetica,sans-Serif" font-size="14.00" fill="#000000">class = 2</text>
</g>
<!-- 28&#45;&gt;36 -->
<g id="edge36" class="edge">
<title>28&#45;&gt;36</title>
<path fill="none" stroke="#000000" d="M881.9677,-817.8796C894.8211,-806.1138 908.7979,-793.3197 921.6166,-781.5855"/>
<polygon fill="#000000" stroke="#000000" points="924.0001,-784.1488 929.0131,-774.8149 919.2736,-778.9854 924.0001,-784.1488"/>
</g>
<!-- 30 -->
<g id="node31" class="node">
<title>30</title>
<path fill="#65b3eb" stroke="#000000" d="M883.5,-663C883.5,-663 779.5,-663 779.5,-663 773.5,-663 767.5,-657 767.5,-651 767.5,-651 767.5,-592 767.5,-592 767.5,-586 773.5,-580 779.5,-580 779.5,-580 883.5,-580 883.5,-580 889.5,-580 895.5,-586 895.5,-592 895.5,-592 895.5,-651 895.5,-651 895.5,-657 889.5,-663 883.5,-663"/>
<text text-anchor="start" x="775.5" y="-647.8" font-family="Helvetica,sans-Serif" font-size="14.00" fill="#000000">Resistin ≤ 13.741</text>
<text text-anchor="start" x="780.5" y="-632.8" font-family="Helvetica,sans-Serif" font-size="14.00" fill="#000000">entropy = 0.684</text>
<text text-anchor="start" x="787.5" y="-617.8" font-family="Helvetica,sans-Serif" font-size="14.00" fill="#000000">samples = 11</text>
<text text-anchor="start" x="790" y="-602.8" font-family="Helvetica,sans-Serif" font-size="14.00" fill="#000000">value = [2, 9]</text>
<text text-anchor="start" x="802.5" y="-587.8" font-family="Helvetica,sans-Serif" font-size="14.00" fill="#000000">class = 2</text>
</g>
<!-- 29&#45;&gt;30 -->
<g id="edge30" class="edge">
<title>29&#45;&gt;30</title>
<path fill="none" stroke="#000000" d="M834.7512,-698.8796C834.4069,-690.6838 834.0416,-681.9891 833.6849,-673.5013"/>
<polygon fill="#000000" stroke="#000000" points="837.173,-673.1423 833.2562,-663.2981 830.1792,-673.4362 837.173,-673.1423"/>
</g>
<!-- 35 -->
<g id="node36" class="node">
<title>35</title>
<path fill="#e58139" stroke="#000000" d="M1003,-655.5C1003,-655.5 926,-655.5 926,-655.5 920,-655.5 914,-649.5 914,-643.5 914,-643.5 914,-599.5 914,-599.5 914,-593.5 920,-587.5 926,-587.5 926,-587.5 1003,-587.5 1003,-587.5 1009,-587.5 1015,-593.5 1015,-599.5 1015,-599.5 1015,-643.5 1015,-643.5 1015,-649.5 1009,-655.5 1003,-655.5"/>
<text text-anchor="start" x="922" y="-640.3" font-family="Helvetica,sans-Serif" font-size="14.00" fill="#000000">entropy = 0.0</text>
<text text-anchor="start" x="925" y="-625.3" font-family="Helvetica,sans-Serif" font-size="14.00" fill="#000000">samples = 2</text>
<text text-anchor="start" x="923" y="-610.3" font-family="Helvetica,sans-Serif" font-size="14.00" fill="#000000">value = [2, 0]</text>
<text text-anchor="start" x="935.5" y="-595.3" font-family="Helvetica,sans-Serif" font-size="14.00" fill="#000000">class = 1</text>
</g>
<!-- 29&#45;&gt;35 -->
<g id="edge35" class="edge">
<title>29&#45;&gt;35</title>
<path fill="none" stroke="#000000" d="M881.2682,-698.8796C893.8056,-687.2237 907.4284,-674.5587 919.953,-662.9148"/>
<polygon fill="#000000" stroke="#000000" points="922.6491,-665.1872 927.5898,-655.8149 917.8828,-660.0605 922.6491,-665.1872"/>
</g>
<!-- 31 -->
<g id="node32" class="node">
<title>31</title>
<path fill="#ffffff" stroke="#000000" d="M890,-544C890,-544 769,-544 769,-544 763,-544 757,-538 757,-532 757,-532 757,-473 757,-473 757,-467 763,-461 769,-461 769,-461 890,-461 890,-461 896,-461 902,-467 902,-473 902,-473 902,-532 902,-532 902,-538 896,-544 890,-544"/>
<text text-anchor="start" x="765" y="-528.8" font-family="Helvetica,sans-Serif" font-size="14.00" fill="#000000">Adiponectin ≤ 4.449</text>
<text text-anchor="start" x="787" y="-513.8" font-family="Helvetica,sans-Serif" font-size="14.00" fill="#000000">entropy = 1.0</text>
<text text-anchor="start" x="790" y="-498.8" font-family="Helvetica,sans-Serif" font-size="14.00" fill="#000000">samples = 4</text>
<text text-anchor="start" x="788" y="-483.8" font-family="Helvetica,sans-Serif" font-size="14.00" fill="#000000">value = [2, 2]</text>
<text text-anchor="start" x="800.5" y="-468.8" font-family="Helvetica,sans-Serif" font-size="14.00" fill="#000000">class = 1</text>
</g>
<!-- 30&#45;&gt;31 -->
<g id="edge31" class="edge">
<title>30&#45;&gt;31</title>
<path fill="none" stroke="#000000" d="M830.8005,-579.8796C830.6628,-571.6838 830.5166,-562.9891 830.374,-554.5013"/>
<polygon fill="#000000" stroke="#000000" points="833.8701,-554.2378 830.2025,-544.2981 826.8711,-554.3555 833.8701,-554.2378"/>
</g>
<!-- 34 -->
<g id="node35" class="node">
<title>34</title>
<path fill="#399de5" stroke="#000000" d="M1009,-536.5C1009,-536.5 932,-536.5 932,-536.5 926,-536.5 920,-530.5 920,-524.5 920,-524.5 920,-480.5 920,-480.5 920,-474.5 926,-468.5 932,-468.5 932,-468.5 1009,-468.5 1009,-468.5 1015,-468.5 1021,-474.5 1021,-480.5 1021,-480.5 1021,-524.5 1021,-524.5 1021,-530.5 1015,-536.5 1009,-536.5"/>
<text text-anchor="start" x="928" y="-521.3" font-family="Helvetica,sans-Serif" font-size="14.00" fill="#000000">entropy = 0.0</text>
<text text-anchor="start" x="931" y="-506.3" font-family="Helvetica,sans-Serif" font-size="14.00" fill="#000000">samples = 7</text>
<text text-anchor="start" x="929" y="-491.3" font-family="Helvetica,sans-Serif" font-size="14.00" fill="#000000">value = [0, 7]</text>
<text text-anchor="start" x="941.5" y="-476.3" font-family="Helvetica,sans-Serif" font-size="14.00" fill="#000000">class = 2</text>
</g>
<!-- 30&#45;&gt;34 -->
<g id="edge34" class="edge">
<title>30&#45;&gt;34</title>
<path fill="none" stroke="#000000" d="M880.1155,-579.8796C893.8587,-568.1138 908.8031,-555.3197 922.5093,-543.5855"/>
<polygon fill="#000000" stroke="#000000" points="925.0976,-545.9771 930.4178,-536.8149 920.5452,-540.6596 925.0976,-545.9771"/>
</g>
<!-- 32 -->
<g id="node33" class="node">
<title>32</title>
<path fill="#399de5" stroke="#000000" d="M867,-417.5C867,-417.5 790,-417.5 790,-417.5 784,-417.5 778,-411.5 778,-405.5 778,-405.5 778,-361.5 778,-361.5 778,-355.5 784,-349.5 790,-349.5 790,-349.5 867,-349.5 867,-349.5 873,-349.5 879,-355.5 879,-361.5 879,-361.5 879,-405.5 879,-405.5 879,-411.5 873,-417.5 867,-417.5"/>
<text text-anchor="start" x="786" y="-402.3" font-family="Helvetica,sans-Serif" font-size="14.00" fill="#000000">entropy = 0.0</text>
<text text-anchor="start" x="789" y="-387.3" font-family="Helvetica,sans-Serif" font-size="14.00" fill="#000000">samples = 2</text>
<text text-anchor="start" x="787" y="-372.3" font-family="Helvetica,sans-Serif" font-size="14.00" fill="#000000">value = [0, 2]</text>
<text text-anchor="start" x="799.5" y="-357.3" font-family="Helvetica,sans-Serif" font-size="14.00" fill="#000000">class = 2</text>
</g>
<!-- 31&#45;&gt;32 -->
<g id="edge32" class="edge">
<title>31&#45;&gt;32</title>
<path fill="none" stroke="#000000" d="M829.1502,-460.8796C829.0606,-450.2134 828.9639,-438.7021 828.8731,-427.9015"/>
<polygon fill="#000000" stroke="#000000" points="832.3724,-427.7851 828.7884,-417.8149 825.3726,-427.844 832.3724,-427.7851"/>
</g>
<!-- 33 -->
<g id="node34" class="node">
<title>33</title>
<path fill="#e58139" stroke="#000000" d="M986,-417.5C986,-417.5 909,-417.5 909,-417.5 903,-417.5 897,-411.5 897,-405.5 897,-405.5 897,-361.5 897,-361.5 897,-355.5 903,-349.5 909,-349.5 909,-349.5 986,-349.5 986,-349.5 992,-349.5 998,-355.5 998,-361.5 998,-361.5 998,-405.5 998,-405.5 998,-411.5 992,-417.5 986,-417.5"/>
<text text-anchor="start" x="905" y="-402.3" font-family="Helvetica,sans-Serif" font-size="14.00" fill="#000000">entropy = 0.0</text>
<text text-anchor="start" x="908" y="-387.3" font-family="Helvetica,sans-Serif" font-size="14.00" fill="#000000">samples = 2</text>
<text text-anchor="start" x="906" y="-372.3" font-family="Helvetica,sans-Serif" font-size="14.00" fill="#000000">value = [2, 0]</text>
<text text-anchor="start" x="918.5" y="-357.3" font-family="Helvetica,sans-Serif" font-size="14.00" fill="#000000">class = 1</text>
</g>
<!-- 31&#45;&gt;33 -->
<g id="edge33" class="edge">
<title>31&#45;&gt;33</title>
<path fill="none" stroke="#000000" d="M870.7707,-460.8796C882.2195,-449.3337 894.6503,-436.7976 906.1062,-425.2446"/>
<polygon fill="#000000" stroke="#000000" points="908.9175,-427.3802 913.4734,-417.8149 903.9469,-422.4514 908.9175,-427.3802"/>
</g>
</g>
</svg>
