<?xml version="1.0" encoding="UTF-8" standalone="no"?>
<!DOCTYPE svg PUBLIC "-//W3C//DTD SVG 1.1//EN"
 "http://www.w3.org/Graphics/SVG/1.1/DTD/svg11.dtd">
<!-- Generated by graphviz version 2.40.1 (20161225.0304)
 -->
<!-- Title: Tree Pages: 1 -->
<svg width="1043pt" height="1147pt"
 viewBox="0.00 0.00 1043.00 1147.00" xmlns="http://www.w3.org/2000/svg" xmlns:xlink="http://www.w3.org/1999/xlink">
<g id="graph0" class="graph" transform="scale(1 1) rotate(0) translate(4 1143)">
<title>Tree</title>
<polygon fill="#ffffff" stroke="transparent" points="-4,4 -4,-1143 1039,-1143 1039,4 -4,4"/>
<!-- 0 -->
<g id="node1" class="node">
<title>0</title>
<path fill="#fafdfe" stroke="#000000" d="M673.5,-1139C673.5,-1139 581.5,-1139 581.5,-1139 575.5,-1139 569.5,-1133 569.5,-1127 569.5,-1127 569.5,-1068 569.5,-1068 569.5,-1062 575.5,-1056 581.5,-1056 581.5,-1056 673.5,-1056 673.5,-1056 679.5,-1056 685.5,-1062 685.5,-1068 685.5,-1068 685.5,-1127 685.5,-1127 685.5,-1133 679.5,-1139 673.5,-1139"/>
<text text-anchor="start" x="578.5" y="-1123.8" font-family="Helvetica,sans-Serif" font-size="14.00" fill="#000000">Glucose ≤ 96.5</text>
<text text-anchor="start" x="585" y="-1108.8" font-family="Helvetica,sans-Serif" font-size="14.00" fill="#000000">entropy = 1.0</text>
<text text-anchor="start" x="583.5" y="-1093.8" font-family="Helvetica,sans-Serif" font-size="14.00" fill="#000000">samples = 81</text>
<text text-anchor="start" x="577.5" y="-1078.8" font-family="Helvetica,sans-Serif" font-size="14.00" fill="#000000">value = [40, 41]</text>
<text text-anchor="start" x="598.5" y="-1063.8" font-family="Helvetica,sans-Serif" font-size="14.00" fill="#000000">class = 2</text>
</g>
<!-- 1 -->
<g id="node2" class="node">
<title>1</title>
<path fill="#f0b990" stroke="#000000" d="M607,-1020C607,-1020 512,-1020 512,-1020 506,-1020 500,-1014 500,-1008 500,-1008 500,-949 500,-949 500,-943 506,-937 512,-937 512,-937 607,-937 607,-937 613,-937 619,-943 619,-949 619,-949 619,-1008 619,-1008 619,-1014 613,-1020 607,-1020"/>
<text text-anchor="start" x="508" y="-1004.8" font-family="Helvetica,sans-Serif" font-size="14.00" fill="#000000">Insulin ≤ 14.359</text>
<text text-anchor="start" x="508.5" y="-989.8" font-family="Helvetica,sans-Serif" font-size="14.00" fill="#000000">entropy = 0.889</text>
<text text-anchor="start" x="515.5" y="-974.8" font-family="Helvetica,sans-Serif" font-size="14.00" fill="#000000">samples = 49</text>
<text text-anchor="start" x="509.5" y="-959.8" font-family="Helvetica,sans-Serif" font-size="14.00" fill="#000000">value = [34, 15]</text>
<text text-anchor="start" x="530.5" y="-944.8" font-family="Helvetica,sans-Serif" font-size="14.00" fill="#000000">class = 1</text>
</g>
<!-- 0&#45;&gt;1 -->
<g id="edge1" class="edge">
<title>0&#45;&gt;1</title>
<path fill="none" stroke="#000000" d="M603.7169,-1055.8796C598.7763,-1047.2335 593.5184,-1038.0322 588.4167,-1029.1042"/>
<polygon fill="#000000" stroke="#000000" points="591.3849,-1027.244 583.3846,-1020.2981 585.3072,-1030.717 591.3849,-1027.244"/>
<text text-anchor="middle" x="576.8067" y="-1040.7172" font-family="Helvetica,sans-Serif" font-size="14.00" fill="#000000">True</text>
</g>
<!-- 26 -->
<g id="node27" class="node">
<title>26</title>
<path fill="#67b4eb" stroke="#000000" d="M743.5,-1020C743.5,-1020 649.5,-1020 649.5,-1020 643.5,-1020 637.5,-1014 637.5,-1008 637.5,-1008 637.5,-949 637.5,-949 637.5,-943 643.5,-937 649.5,-937 649.5,-937 743.5,-937 743.5,-937 749.5,-937 755.5,-943 755.5,-949 755.5,-949 755.5,-1008 755.5,-1008 755.5,-1014 749.5,-1020 743.5,-1020"/>
<text text-anchor="start" x="650.5" y="-1004.8" font-family="Helvetica,sans-Serif" font-size="14.00" fill="#000000">Leptin ≤ 6.059</text>
<text text-anchor="start" x="645.5" y="-989.8" font-family="Helvetica,sans-Serif" font-size="14.00" fill="#000000">entropy = 0.696</text>
<text text-anchor="start" x="652.5" y="-974.8" font-family="Helvetica,sans-Serif" font-size="14.00" fill="#000000">samples = 32</text>
<text text-anchor="start" x="651" y="-959.8" font-family="Helvetica,sans-Serif" font-size="14.00" fill="#000000">value = [6, 26]</text>
<text text-anchor="start" x="667.5" y="-944.8" font-family="Helvetica,sans-Serif" font-size="14.00" fill="#000000">class = 2</text>
</g>
<!-- 0&#45;&gt;26 -->
<g id="edge26" class="edge">
<title>0&#45;&gt;26</title>
<path fill="none" stroke="#000000" d="M651.6329,-1055.8796C656.6461,-1047.2335 661.9813,-1038.0322 667.1581,-1029.1042"/>
<polygon fill="#000000" stroke="#000000" points="670.2758,-1030.7047 672.2641,-1020.2981 664.2202,-1027.1934 670.2758,-1030.7047"/>
<text text-anchor="middle" x="678.6897" y="-1040.7582" font-family="Helvetica,sans-Serif" font-size="14.00" fill="#000000">False</text>
</g>
<!-- 2 -->
<g id="node3" class="node">
<title>2</title>
<path fill="#eead7f" stroke="#000000" d="M478.5,-901C478.5,-901 384.5,-901 384.5,-901 378.5,-901 372.5,-895 372.5,-889 372.5,-889 372.5,-830 372.5,-830 372.5,-824 378.5,-818 384.5,-818 384.5,-818 478.5,-818 478.5,-818 484.5,-818 490.5,-824 490.5,-830 490.5,-830 490.5,-889 490.5,-889 490.5,-895 484.5,-901 478.5,-901"/>
<text text-anchor="start" x="383.5" y="-885.8" font-family="Helvetica,sans-Serif" font-size="14.00" fill="#000000">Resistin ≤ 7.74</text>
<text text-anchor="start" x="380.5" y="-870.8" font-family="Helvetica,sans-Serif" font-size="14.00" fill="#000000">entropy = 0.828</text>
<text text-anchor="start" x="387.5" y="-855.8" font-family="Helvetica,sans-Serif" font-size="14.00" fill="#000000">samples = 46</text>
<text text-anchor="start" x="381.5" y="-840.8" font-family="Helvetica,sans-Serif" font-size="14.00" fill="#000000">value = [34, 12]</text>
<text text-anchor="start" x="402.5" y="-825.8" font-family="Helvetica,sans-Serif" font-size="14.00" fill="#000000">class = 1</text>
</g>
<!-- 1&#45;&gt;2 -->
<g id="edge2" class="edge">
<title>1&#45;&gt;2</title>
<path fill="none" stroke="#000000" d="M514.7318,-936.8796C504.7537,-927.6031 494.0881,-917.6874 483.8358,-908.1559"/>
<polygon fill="#000000" stroke="#000000" points="486.1663,-905.5436 476.4593,-901.2981 481.4,-910.6704 486.1663,-905.5436"/>
</g>
<!-- 25 -->
<g id="node26" class="node">
<title>25</title>
<path fill="#399de5" stroke="#000000" d="M598,-893.5C598,-893.5 521,-893.5 521,-893.5 515,-893.5 509,-887.5 509,-881.5 509,-881.5 509,-837.5 509,-837.5 509,-831.5 515,-825.5 521,-825.5 521,-825.5 598,-825.5 598,-825.5 604,-825.5 610,-831.5 610,-837.5 610,-837.5 610,-881.5 610,-881.5 610,-887.5 604,-893.5 598,-893.5"/>
<text text-anchor="start" x="517" y="-878.3" font-family="Helvetica,sans-Serif" font-size="14.00" fill="#000000">entropy = 0.0</text>
<text text-anchor="start" x="520" y="-863.3" font-family="Helvetica,sans-Serif" font-size="14.00" fill="#000000">samples = 3</text>
<text text-anchor="start" x="518" y="-848.3" font-family="Helvetica,sans-Serif" font-size="14.00" fill="#000000">value = [0, 3]</text>
<text text-anchor="start" x="530.5" y="-833.3" font-family="Helvetica,sans-Serif" font-size="14.00" fill="#000000">class = 2</text>
</g>
<!-- 1&#45;&gt;25 -->
<g id="edge25" class="edge">
<title>1&#45;&gt;25</title>
<path fill="none" stroke="#000000" d="M559.5,-936.8796C559.5,-926.2134 559.5,-914.7021 559.5,-903.9015"/>
<polygon fill="#000000" stroke="#000000" points="563.0001,-903.8149 559.5,-893.8149 556.0001,-903.815 563.0001,-903.8149"/>
</g>
<!-- 3 -->
<g id="node4" class="node">
<title>3</title>
<path fill="#e58139" stroke="#000000" d="M340,-774.5C340,-774.5 257,-774.5 257,-774.5 251,-774.5 245,-768.5 245,-762.5 245,-762.5 245,-718.5 245,-718.5 245,-712.5 251,-706.5 257,-706.5 257,-706.5 340,-706.5 340,-706.5 346,-706.5 352,-712.5 352,-718.5 352,-718.5 352,-762.5 352,-762.5 352,-768.5 346,-774.5 340,-774.5"/>
<text text-anchor="start" x="256" y="-759.3" font-family="Helvetica,sans-Serif" font-size="14.00" fill="#000000">entropy = 0.0</text>
<text text-anchor="start" x="254.5" y="-744.3" font-family="Helvetica,sans-Serif" font-size="14.00" fill="#000000">samples = 12</text>
<text text-anchor="start" x="253" y="-729.3" font-family="Helvetica,sans-Serif" font-size="14.00" fill="#000000">value = [12, 0]</text>
<text text-anchor="start" x="269.5" y="-714.3" font-family="Helvetica,sans-Serif" font-size="14.00" fill="#000000">class = 1</text>
</g>
<!-- 2&#45;&gt;3 -->
<g id="edge3" class="edge">
<title>2&#45;&gt;3</title>
<path fill="none" stroke="#000000" d="M384.9831,-817.8796C371.833,-806.1138 357.5337,-793.3197 344.4191,-781.5855"/>
<polygon fill="#000000" stroke="#000000" points="346.6382,-778.8746 336.852,-774.8149 341.9706,-784.0913 346.6382,-778.8746"/>
</g>
<!-- 4 -->
<g id="node5" class="node">
<title>4</title>
<path fill="#f3c6a5" stroke="#000000" d="M486.5,-782C486.5,-782 382.5,-782 382.5,-782 376.5,-782 370.5,-776 370.5,-770 370.5,-770 370.5,-711 370.5,-711 370.5,-705 376.5,-699 382.5,-699 382.5,-699 486.5,-699 486.5,-699 492.5,-699 498.5,-705 498.5,-711 498.5,-711 498.5,-770 498.5,-770 498.5,-776 492.5,-782 486.5,-782"/>
<text text-anchor="start" x="378.5" y="-766.8" font-family="Helvetica,sans-Serif" font-size="14.00" fill="#000000">MCP.1 ≤ 339.218</text>
<text text-anchor="start" x="383.5" y="-751.8" font-family="Helvetica,sans-Serif" font-size="14.00" fill="#000000">entropy = 0.937</text>
<text text-anchor="start" x="390.5" y="-736.8" font-family="Helvetica,sans-Serif" font-size="14.00" fill="#000000">samples = 34</text>
<text text-anchor="start" x="384.5" y="-721.8" font-family="Helvetica,sans-Serif" font-size="14.00" fill="#000000">value = [22, 12]</text>
<text text-anchor="start" x="405.5" y="-706.8" font-family="Helvetica,sans-Serif" font-size="14.00" fill="#000000">class = 1</text>
</g>
<!-- 2&#45;&gt;4 -->
<g id="edge4" class="edge">
<title>2&#45;&gt;4</title>
<path fill="none" stroke="#000000" d="M432.5493,-817.8796C432.7559,-809.6838 432.9751,-800.9891 433.189,-792.5013"/>
<polygon fill="#000000" stroke="#000000" points="436.693,-792.3831 433.4463,-782.2981 429.6953,-792.2067 436.693,-792.3831"/>
</g>
<!-- 5 -->
<g id="node6" class="node">
<title>5</title>
<path fill="#8ec7f0" stroke="#000000" d="M345.5,-663C345.5,-663 241.5,-663 241.5,-663 235.5,-663 229.5,-657 229.5,-651 229.5,-651 229.5,-592 229.5,-592 229.5,-586 235.5,-580 241.5,-580 241.5,-580 345.5,-580 345.5,-580 351.5,-580 357.5,-586 357.5,-592 357.5,-592 357.5,-651 357.5,-651 357.5,-657 351.5,-663 345.5,-663"/>
<text text-anchor="start" x="237.5" y="-647.8" font-family="Helvetica,sans-Serif" font-size="14.00" fill="#000000">Resistin ≤ 12.674</text>
<text text-anchor="start" x="242.5" y="-632.8" font-family="Helvetica,sans-Serif" font-size="14.00" fill="#000000">entropy = 0.881</text>
<text text-anchor="start" x="249.5" y="-617.8" font-family="Helvetica,sans-Serif" font-size="14.00" fill="#000000">samples = 10</text>
<text text-anchor="start" x="252" y="-602.8" font-family="Helvetica,sans-Serif" font-size="14.00" fill="#000000">value = [3, 7]</text>
<text text-anchor="start" x="264.5" y="-587.8" font-family="Helvetica,sans-Serif" font-size="14.00" fill="#000000">class = 2</text>
</g>
<!-- 4&#45;&gt;5 -->
<g id="edge5" class="edge">
<title>4&#45;&gt;5</title>
<path fill="none" stroke="#000000" d="M385.185,-698.8796C374.0868,-689.513 362.2165,-679.4948 350.8223,-669.8784"/>
<polygon fill="#000000" stroke="#000000" points="352.925,-667.0731 343.0254,-663.2981 348.4101,-672.4225 352.925,-667.0731"/>
</g>
<!-- 12 -->
<g id="node13" class="node">
<title>12</title>
<path fill="#eca26d" stroke="#000000" d="M481.5,-663C481.5,-663 387.5,-663 387.5,-663 381.5,-663 375.5,-657 375.5,-651 375.5,-651 375.5,-592 375.5,-592 375.5,-586 381.5,-580 387.5,-580 387.5,-580 481.5,-580 481.5,-580 487.5,-580 493.5,-586 493.5,-592 493.5,-592 493.5,-651 493.5,-651 493.5,-657 487.5,-663 481.5,-663"/>
<text text-anchor="start" x="387.5" y="-647.8" font-family="Helvetica,sans-Serif" font-size="14.00" fill="#000000">Insulin ≤ 3.119</text>
<text text-anchor="start" x="383.5" y="-632.8" font-family="Helvetica,sans-Serif" font-size="14.00" fill="#000000">entropy = 0.738</text>
<text text-anchor="start" x="390.5" y="-617.8" font-family="Helvetica,sans-Serif" font-size="14.00" fill="#000000">samples = 24</text>
<text text-anchor="start" x="389" y="-602.8" font-family="Helvetica,sans-Serif" font-size="14.00" fill="#000000">value = [19, 5]</text>
<text text-anchor="start" x="405.5" y="-587.8" font-family="Helvetica,sans-Serif" font-size="14.00" fill="#000000">class = 1</text>
</g>
<!-- 4&#45;&gt;12 -->
<g id="edge12" class="edge">
<title>4&#45;&gt;12</title>
<path fill="none" stroke="#000000" d="M434.5,-698.8796C434.5,-690.6838 434.5,-681.9891 434.5,-673.5013"/>
<polygon fill="#000000" stroke="#000000" points="438.0001,-673.298 434.5,-663.2981 431.0001,-673.2981 438.0001,-673.298"/>
</g>
<!-- 6 -->
<g id="node7" class="node">
<title>6</title>
<path fill="#ffffff" stroke="#000000" d="M214,-544C214,-544 127,-544 127,-544 121,-544 115,-538 115,-532 115,-532 115,-473 115,-473 115,-467 121,-461 127,-461 127,-461 214,-461 214,-461 220,-461 226,-467 226,-473 226,-473 226,-532 226,-532 226,-538 220,-544 214,-544"/>
<text text-anchor="start" x="123" y="-528.8" font-family="Helvetica,sans-Serif" font-size="14.00" fill="#000000">HOMA ≤ 0.919</text>
<text text-anchor="start" x="128" y="-513.8" font-family="Helvetica,sans-Serif" font-size="14.00" fill="#000000">entropy = 1.0</text>
<text text-anchor="start" x="131" y="-498.8" font-family="Helvetica,sans-Serif" font-size="14.00" fill="#000000">samples = 6</text>
<text text-anchor="start" x="129" y="-483.8" font-family="Helvetica,sans-Serif" font-size="14.00" fill="#000000">value = [3, 3]</text>
<text text-anchor="start" x="141.5" y="-468.8" font-family="Helvetica,sans-Serif" font-size="14.00" fill="#000000">class = 1</text>
</g>
<!-- 5&#45;&gt;6 -->
<g id="edge6" class="edge">
<title>5&#45;&gt;6</title>
<path fill="none" stroke="#000000" d="M250.4806,-579.8796C240.9853,-570.6931 230.8422,-560.8798 221.0785,-551.4336"/>
<polygon fill="#000000" stroke="#000000" points="223.3237,-548.7359 213.703,-544.2981 218.4564,-553.7668 223.3237,-548.7359"/>
</g>
<!-- 11 -->
<g id="node12" class="node">
<title>11</title>
<path fill="#399de5" stroke="#000000" d="M333,-536.5C333,-536.5 256,-536.5 256,-536.5 250,-536.5 244,-530.5 244,-524.5 244,-524.5 244,-480.5 244,-480.5 244,-474.5 250,-468.5 256,-468.5 256,-468.5 333,-468.5 333,-468.5 339,-468.5 345,-474.5 345,-480.5 345,-480.5 345,-524.5 345,-524.5 345,-530.5 339,-536.5 333,-536.5"/>
<text text-anchor="start" x="252" y="-521.3" font-family="Helvetica,sans-Serif" font-size="14.00" fill="#000000">entropy = 0.0</text>
<text text-anchor="start" x="255" y="-506.3" font-family="Helvetica,sans-Serif" font-size="14.00" fill="#000000">samples = 4</text>
<text text-anchor="start" x="253" y="-491.3" font-family="Helvetica,sans-Serif" font-size="14.00" fill="#000000">value = [0, 4]</text>
<text text-anchor="start" x="265.5" y="-476.3" font-family="Helvetica,sans-Serif" font-size="14.00" fill="#000000">class = 2</text>
</g>
<!-- 5&#45;&gt;11 -->
<g id="edge11" class="edge">
<title>5&#45;&gt;11</title>
<path fill="none" stroke="#000000" d="M293.8498,-579.8796C293.9394,-569.2134 294.0361,-557.7021 294.1269,-546.9015"/>
<polygon fill="#000000" stroke="#000000" points="297.6274,-546.844 294.2116,-536.8149 290.6276,-546.7851 297.6274,-546.844"/>
</g>
<!-- 7 -->
<g id="node8" class="node">
<title>7</title>
<path fill="#399de5" stroke="#000000" d="M89,-417.5C89,-417.5 12,-417.5 12,-417.5 6,-417.5 0,-411.5 0,-405.5 0,-405.5 0,-361.5 0,-361.5 0,-355.5 6,-349.5 12,-349.5 12,-349.5 89,-349.5 89,-349.5 95,-349.5 101,-355.5 101,-361.5 101,-361.5 101,-405.5 101,-405.5 101,-411.5 95,-417.5 89,-417.5"/>
<text text-anchor="start" x="8" y="-402.3" font-family="Helvetica,sans-Serif" font-size="14.00" fill="#000000">entropy = 0.0</text>
<text text-anchor="start" x="11" y="-387.3" font-family="Helvetica,sans-Serif" font-size="14.00" fill="#000000">samples = 2</text>
<text text-anchor="start" x="9" y="-372.3" font-family="Helvetica,sans-Serif" font-size="14.00" fill="#000000">value = [0, 2]</text>
<text text-anchor="start" x="21.5" y="-357.3" font-family="Helvetica,sans-Serif" font-size="14.00" fill="#000000">class = 2</text>
</g>
<!-- 6&#45;&gt;7 -->
<g id="edge7" class="edge">
<title>6&#45;&gt;7</title>
<path fill="none" stroke="#000000" d="M128.5298,-460.8796C116.776,-449.2237 104.0046,-436.5587 92.2628,-424.9148"/>
<polygon fill="#000000" stroke="#000000" points="94.6684,-422.3712 85.1033,-417.8149 89.7394,-427.3416 94.6684,-422.3712"/>
</g>
<!-- 8 -->
<g id="node9" class="node">
<title>8</title>
<path fill="#eeab7b" stroke="#000000" d="M225.5,-425C225.5,-425 131.5,-425 131.5,-425 125.5,-425 119.5,-419 119.5,-413 119.5,-413 119.5,-354 119.5,-354 119.5,-348 125.5,-342 131.5,-342 131.5,-342 225.5,-342 225.5,-342 231.5,-342 237.5,-348 237.5,-354 237.5,-354 237.5,-413 237.5,-413 237.5,-419 231.5,-425 225.5,-425"/>
<text text-anchor="start" x="130.5" y="-409.8" font-family="Helvetica,sans-Serif" font-size="14.00" fill="#000000">Resistin ≤ 9.12</text>
<text text-anchor="start" x="127.5" y="-394.8" font-family="Helvetica,sans-Serif" font-size="14.00" fill="#000000">entropy = 0.811</text>
<text text-anchor="start" x="139" y="-379.8" font-family="Helvetica,sans-Serif" font-size="14.00" fill="#000000">samples = 4</text>
<text text-anchor="start" x="137" y="-364.8" font-family="Helvetica,sans-Serif" font-size="14.00" fill="#000000">value = [3, 1]</text>
<text text-anchor="start" x="149.5" y="-349.8" font-family="Helvetica,sans-Serif" font-size="14.00" fill="#000000">class = 1</text>
</g>
<!-- 6&#45;&gt;8 -->
<g id="edge8" class="edge">
<title>6&#45;&gt;8</title>
<path fill="none" stroke="#000000" d="M173.298,-460.8796C173.849,-452.6838 174.4335,-443.9891 175.0041,-435.5013"/>
<polygon fill="#000000" stroke="#000000" points="178.5113,-435.5103 175.69,-425.2981 171.5271,-435.0408 178.5113,-435.5103"/>
</g>
<!-- 9 -->
<g id="node10" class="node">
<title>9</title>
<path fill="#399de5" stroke="#000000" d="M157,-298.5C157,-298.5 80,-298.5 80,-298.5 74,-298.5 68,-292.5 68,-286.5 68,-286.5 68,-242.5 68,-242.5 68,-236.5 74,-230.5 80,-230.5 80,-230.5 157,-230.5 157,-230.5 163,-230.5 169,-236.5 169,-242.5 169,-242.5 169,-286.5 169,-286.5 169,-292.5 163,-298.5 157,-298.5"/>
<text text-anchor="start" x="76" y="-283.3" font-family="Helvetica,sans-Serif" font-size="14.00" fill="#000000">entropy = 0.0</text>
<text text-anchor="start" x="79" y="-268.3" font-family="Helvetica,sans-Serif" font-size="14.00" fill="#000000">samples = 1</text>
<text text-anchor="start" x="77" y="-253.3" font-family="Helvetica,sans-Serif" font-size="14.00" fill="#000000">value = [0, 1]</text>
<text text-anchor="start" x="89.5" y="-238.3" font-family="Helvetica,sans-Serif" font-size="14.00" fill="#000000">class = 2</text>
</g>
<!-- 8&#45;&gt;9 -->
<g id="edge9" class="edge">
<title>8&#45;&gt;9</title>
<path fill="none" stroke="#000000" d="M157.5149,-341.8796C151.9707,-330.8835 145.9736,-318.9893 140.3831,-307.9015"/>
<polygon fill="#000000" stroke="#000000" points="143.4291,-306.1684 135.8016,-298.8149 137.1786,-309.3199 143.4291,-306.1684"/>
</g>
<!-- 10 -->
<g id="node11" class="node">
<title>10</title>
<path fill="#e58139" stroke="#000000" d="M276,-298.5C276,-298.5 199,-298.5 199,-298.5 193,-298.5 187,-292.5 187,-286.5 187,-286.5 187,-242.5 187,-242.5 187,-236.5 193,-230.5 199,-230.5 199,-230.5 276,-230.5 276,-230.5 282,-230.5 288,-236.5 288,-242.5 288,-242.5 288,-286.5 288,-286.5 288,-292.5 282,-298.5 276,-298.5"/>
<text text-anchor="start" x="195" y="-283.3" font-family="Helvetica,sans-Serif" font-size="14.00" fill="#000000">entropy = 0.0</text>
<text text-anchor="start" x="198" y="-268.3" font-family="Helvetica,sans-Serif" font-size="14.00" fill="#000000">samples = 3</text>
<text text-anchor="start" x="196" y="-253.3" font-family="Helvetica,sans-Serif" font-size="14.00" fill="#000000">value = [3, 0]</text>
<text text-anchor="start" x="208.5" y="-238.3" font-family="Helvetica,sans-Serif" font-size="14.00" fill="#000000">class = 1</text>
</g>
<!-- 8&#45;&gt;10 -->
<g id="edge10" class="edge">
<title>8&#45;&gt;10</title>
<path fill="none" stroke="#000000" d="M199.1353,-341.8796C204.5872,-330.8835 210.4843,-318.9893 215.9816,-307.9015"/>
<polygon fill="#000000" stroke="#000000" points="219.1804,-309.3289 220.4867,-298.8149 212.9089,-306.2195 219.1804,-309.3289"/>
</g>
<!-- 13 -->
<g id="node14" class="node">
<title>13</title>
<path fill="#7bbeee" stroke="#000000" d="M480.5,-544C480.5,-544 376.5,-544 376.5,-544 370.5,-544 364.5,-538 364.5,-532 364.5,-532 364.5,-473 364.5,-473 364.5,-467 370.5,-461 376.5,-461 376.5,-461 480.5,-461 480.5,-461 486.5,-461 492.5,-467 492.5,-473 492.5,-473 492.5,-532 492.5,-532 492.5,-538 486.5,-544 480.5,-544"/>
<text text-anchor="start" x="372.5" y="-528.8" font-family="Helvetica,sans-Serif" font-size="14.00" fill="#000000">Resistin ≤ 12.053</text>
<text text-anchor="start" x="377.5" y="-513.8" font-family="Helvetica,sans-Serif" font-size="14.00" fill="#000000">entropy = 0.811</text>
<text text-anchor="start" x="389" y="-498.8" font-family="Helvetica,sans-Serif" font-size="14.00" fill="#000000">samples = 4</text>
<text text-anchor="start" x="387" y="-483.8" font-family="Helvetica,sans-Serif" font-size="14.00" fill="#000000">value = [1, 3]</text>
<text text-anchor="start" x="399.5" y="-468.8" font-family="Helvetica,sans-Serif" font-size="14.00" fill="#000000">class = 2</text>
</g>
<!-- 12&#45;&gt;13 -->
<g id="edge13" class="edge">
<title>12&#45;&gt;13</title>
<path fill="none" stroke="#000000" d="M432.4015,-579.8796C431.9883,-571.6838 431.5499,-562.9891 431.1219,-554.5013"/>
<polygon fill="#000000" stroke="#000000" points="434.6067,-554.1091 430.6075,-544.2981 427.6156,-554.4617 434.6067,-554.1091"/>
</g>
<!-- 16 -->
<g id="node17" class="node">
<title>16</title>
<path fill="#e88f4f" stroke="#000000" d="M644,-544C644,-544 523,-544 523,-544 517,-544 511,-538 511,-532 511,-532 511,-473 511,-473 511,-467 517,-461 523,-461 523,-461 644,-461 644,-461 650,-461 656,-467 656,-473 656,-473 656,-532 656,-532 656,-538 650,-544 644,-544"/>
<text text-anchor="start" x="519" y="-528.8" font-family="Helvetica,sans-Serif" font-size="14.00" fill="#000000">Adiponectin ≤ 6.806</text>
<text text-anchor="start" x="532.5" y="-513.8" font-family="Helvetica,sans-Serif" font-size="14.00" fill="#000000">entropy = 0.469</text>
<text text-anchor="start" x="539.5" y="-498.8" font-family="Helvetica,sans-Serif" font-size="14.00" fill="#000000">samples = 20</text>
<text text-anchor="start" x="538" y="-483.8" font-family="Helvetica,sans-Serif" font-size="14.00" fill="#000000">value = [18, 2]</text>
<text text-anchor="start" x="554.5" y="-468.8" font-family="Helvetica,sans-Serif" font-size="14.00" fill="#000000">class = 1</text>
</g>
<!-- 12&#45;&gt;16 -->
<g id="edge16" class="edge">
<title>12&#45;&gt;16</title>
<path fill="none" stroke="#000000" d="M486.613,-579.8796C498.5225,-570.368 511.2734,-560.1843 523.4844,-550.432"/>
<polygon fill="#000000" stroke="#000000" points="525.7868,-553.0724 531.4165,-544.0969 521.4184,-547.6027 525.7868,-553.0724"/>
</g>
<!-- 14 -->
<g id="node15" class="node">
<title>14</title>
<path fill="#e58139" stroke="#000000" d="M363,-417.5C363,-417.5 286,-417.5 286,-417.5 280,-417.5 274,-411.5 274,-405.5 274,-405.5 274,-361.5 274,-361.5 274,-355.5 280,-349.5 286,-349.5 286,-349.5 363,-349.5 363,-349.5 369,-349.5 375,-355.5 375,-361.5 375,-361.5 375,-405.5 375,-405.5 375,-411.5 369,-417.5 363,-417.5"/>
<text text-anchor="start" x="282" y="-402.3" font-family="Helvetica,sans-Serif" font-size="14.00" fill="#000000">entropy = 0.0</text>
<text text-anchor="start" x="285" y="-387.3" font-family="Helvetica,sans-Serif" font-size="14.00" fill="#000000">samples = 1</text>
<text text-anchor="start" x="283" y="-372.3" font-family="Helvetica,sans-Serif" font-size="14.00" fill="#000000">value = [1, 0]</text>
<text text-anchor="start" x="295.5" y="-357.3" font-family="Helvetica,sans-Serif" font-size="14.00" fill="#000000">class = 1</text>
</g>
<!-- 13&#45;&gt;14 -->
<g id="edge14" class="edge">
<title>13&#45;&gt;14</title>
<path fill="none" stroke="#000000" d="M392.1258,-460.8796C382.1314,-449.4436 371.288,-437.0363 361.2714,-425.575"/>
<polygon fill="#000000" stroke="#000000" points="363.7055,-423.0414 354.4895,-417.8149 358.4347,-427.6479 363.7055,-423.0414"/>
</g>
<!-- 15 -->
<g id="node16" class="node">
<title>15</title>
<path fill="#399de5" stroke="#000000" d="M482,-417.5C482,-417.5 405,-417.5 405,-417.5 399,-417.5 393,-411.5 393,-405.5 393,-405.5 393,-361.5 393,-361.5 393,-355.5 399,-349.5 405,-349.5 405,-349.5 482,-349.5 482,-349.5 488,-349.5 494,-355.5 494,-361.5 494,-361.5 494,-405.5 494,-405.5 494,-411.5 488,-417.5 482,-417.5"/>
<text text-anchor="start" x="401" y="-402.3" font-family="Helvetica,sans-Serif" font-size="14.00" fill="#000000">entropy = 0.0</text>
<text text-anchor="start" x="404" y="-387.3" font-family="Helvetica,sans-Serif" font-size="14.00" fill="#000000">samples = 3</text>
<text text-anchor="start" x="402" y="-372.3" font-family="Helvetica,sans-Serif" font-size="14.00" fill="#000000">value = [0, 3]</text>
<text text-anchor="start" x="414.5" y="-357.3" font-family="Helvetica,sans-Serif" font-size="14.00" fill="#000000">class = 2</text>
</g>
<!-- 13&#45;&gt;15 -->
<g id="edge15" class="edge">
<title>13&#45;&gt;15</title>
<path fill="none" stroke="#000000" d="M433.7463,-460.8796C435.0908,-450.2134 436.5418,-438.7021 437.9032,-427.9015"/>
<polygon fill="#000000" stroke="#000000" points="441.3964,-428.1742 439.1746,-417.8149 434.4514,-427.2987 441.3964,-428.1742"/>
</g>
<!-- 17 -->
<g id="node18" class="node">
<title>17</title>
<path fill="#eca572" stroke="#000000" d="M627.5,-425C627.5,-425 533.5,-425 533.5,-425 527.5,-425 521.5,-419 521.5,-413 521.5,-413 521.5,-354 521.5,-354 521.5,-348 527.5,-342 533.5,-342 533.5,-342 627.5,-342 627.5,-342 633.5,-342 639.5,-348 639.5,-354 639.5,-354 639.5,-413 639.5,-413 639.5,-419 633.5,-425 627.5,-425"/>
<text text-anchor="start" x="531.5" y="-409.8" font-family="Helvetica,sans-Serif" font-size="14.00" fill="#000000">Glucose ≤ 85.0</text>
<text text-anchor="start" x="529.5" y="-394.8" font-family="Helvetica,sans-Serif" font-size="14.00" fill="#000000">entropy = 0.764</text>
<text text-anchor="start" x="541" y="-379.8" font-family="Helvetica,sans-Serif" font-size="14.00" fill="#000000">samples = 9</text>
<text text-anchor="start" x="539" y="-364.8" font-family="Helvetica,sans-Serif" font-size="14.00" fill="#000000">value = [7, 2]</text>
<text text-anchor="start" x="551.5" y="-349.8" font-family="Helvetica,sans-Serif" font-size="14.00" fill="#000000">class = 1</text>
</g>
<!-- 16&#45;&gt;17 -->
<g id="edge17" class="edge">
<title>16&#45;&gt;17</title>
<path fill="none" stroke="#000000" d="M582.4507,-460.8796C582.2441,-452.6838 582.0249,-443.9891 581.811,-435.5013"/>
<polygon fill="#000000" stroke="#000000" points="585.3047,-435.2067 581.5537,-425.2981 578.307,-435.3831 585.3047,-435.2067"/>
</g>
<!-- 24 -->
<g id="node25" class="node">
<title>24</title>
<path fill="#e58139" stroke="#000000" d="M753,-417.5C753,-417.5 670,-417.5 670,-417.5 664,-417.5 658,-411.5 658,-405.5 658,-405.5 658,-361.5 658,-361.5 658,-355.5 664,-349.5 670,-349.5 670,-349.5 753,-349.5 753,-349.5 759,-349.5 765,-355.5 765,-361.5 765,-361.5 765,-405.5 765,-405.5 765,-411.5 759,-417.5 753,-417.5"/>
<text text-anchor="start" x="669" y="-402.3" font-family="Helvetica,sans-Serif" font-size="14.00" fill="#000000">entropy = 0.0</text>
<text text-anchor="start" x="667.5" y="-387.3" font-family="Helvetica,sans-Serif" font-size="14.00" fill="#000000">samples = 11</text>
<text text-anchor="start" x="666" y="-372.3" font-family="Helvetica,sans-Serif" font-size="14.00" fill="#000000">value = [11, 0]</text>
<text text-anchor="start" x="682.5" y="-357.3" font-family="Helvetica,sans-Serif" font-size="14.00" fill="#000000">class = 1</text>
</g>
<!-- 16&#45;&gt;24 -->
<g id="edge24" class="edge">
<title>16&#45;&gt;24</title>
<path fill="none" stroke="#000000" d="M628.2682,-460.8796C640.8056,-449.2237 654.4284,-436.5587 666.953,-424.9148"/>
<polygon fill="#000000" stroke="#000000" points="669.6491,-427.1872 674.5898,-417.8149 664.8828,-422.0605 669.6491,-427.1872"/>
</g>
<!-- 18 -->
<g id="node19" class="node">
<title>18</title>
<path fill="#e58139" stroke="#000000" d="M556,-298.5C556,-298.5 479,-298.5 479,-298.5 473,-298.5 467,-292.5 467,-286.5 467,-286.5 467,-242.5 467,-242.5 467,-236.5 473,-230.5 479,-230.5 479,-230.5 556,-230.5 556,-230.5 562,-230.5 568,-236.5 568,-242.5 568,-242.5 568,-286.5 568,-286.5 568,-292.5 562,-298.5 556,-298.5"/>
<text text-anchor="start" x="475" y="-283.3" font-family="Helvetica,sans-Serif" font-size="14.00" fill="#000000">entropy = 0.0</text>
<text text-anchor="start" x="478" y="-268.3" font-family="Helvetica,sans-Serif" font-size="14.00" fill="#000000">samples = 5</text>
<text text-anchor="start" x="476" y="-253.3" font-family="Helvetica,sans-Serif" font-size="14.00" fill="#000000">value = [5, 0]</text>
<text text-anchor="start" x="488.5" y="-238.3" font-family="Helvetica,sans-Serif" font-size="14.00" fill="#000000">class = 1</text>
</g>
<!-- 17&#45;&gt;18 -->
<g id="edge18" class="edge">
<title>17&#45;&gt;18</title>
<path fill="none" stroke="#000000" d="M558.4657,-341.8796C552.6442,-330.8835 546.3473,-318.9893 540.4773,-307.9015"/>
<polygon fill="#000000" stroke="#000000" points="543.4389,-306.0152 535.6667,-298.8149 537.2524,-309.2905 543.4389,-306.0152"/>
</g>
<!-- 19 -->
<g id="node20" class="node">
<title>19</title>
<path fill="#ffffff" stroke="#000000" d="M688.5,-306C688.5,-306 598.5,-306 598.5,-306 592.5,-306 586.5,-300 586.5,-294 586.5,-294 586.5,-235 586.5,-235 586.5,-229 592.5,-223 598.5,-223 598.5,-223 688.5,-223 688.5,-223 694.5,-223 700.5,-229 700.5,-235 700.5,-235 700.5,-294 700.5,-294 700.5,-300 694.5,-306 688.5,-306"/>
<text text-anchor="start" x="594.5" y="-290.8" font-family="Helvetica,sans-Serif" font-size="14.00" fill="#000000">Glucose ≤ 86.5</text>
<text text-anchor="start" x="601" y="-275.8" font-family="Helvetica,sans-Serif" font-size="14.00" fill="#000000">entropy = 1.0</text>
<text text-anchor="start" x="604" y="-260.8" font-family="Helvetica,sans-Serif" font-size="14.00" fill="#000000">samples = 4</text>
<text text-anchor="start" x="602" y="-245.8" font-family="Helvetica,sans-Serif" font-size="14.00" fill="#000000">value = [2, 2]</text>
<text text-anchor="start" x="614.5" y="-230.8" font-family="Helvetica,sans-Serif" font-size="14.00" fill="#000000">class = 1</text>
</g>
<!-- 17&#45;&gt;19 -->
<g id="edge19" class="edge">
<title>17&#45;&gt;19</title>
<path fill="none" stroke="#000000" d="M602.5343,-341.8796C607.064,-333.3236 611.8815,-324.2238 616.5618,-315.3833"/>
<polygon fill="#000000" stroke="#000000" points="619.7859,-316.7736 621.3716,-306.2981 613.5994,-313.4983 619.7859,-316.7736"/>
</g>
<!-- 20 -->
<g id="node21" class="node">
<title>20</title>
<path fill="#399de5" stroke="#000000" d="M612,-179.5C612,-179.5 535,-179.5 535,-179.5 529,-179.5 523,-173.5 523,-167.5 523,-167.5 523,-123.5 523,-123.5 523,-117.5 529,-111.5 535,-111.5 535,-111.5 612,-111.5 612,-111.5 618,-111.5 624,-117.5 624,-123.5 624,-123.5 624,-167.5 624,-167.5 624,-173.5 618,-179.5 612,-179.5"/>
<text text-anchor="start" x="531" y="-164.3" font-family="Helvetica,sans-Serif" font-size="14.00" fill="#000000">entropy = 0.0</text>
<text text-anchor="start" x="534" y="-149.3" font-family="Helvetica,sans-Serif" font-size="14.00" fill="#000000">samples = 1</text>
<text text-anchor="start" x="532" y="-134.3" font-family="Helvetica,sans-Serif" font-size="14.00" fill="#000000">value = [0, 1]</text>
<text text-anchor="start" x="544.5" y="-119.3" font-family="Helvetica,sans-Serif" font-size="14.00" fill="#000000">class = 2</text>
</g>
<!-- 19&#45;&gt;20 -->
<g id="edge20" class="edge">
<title>19&#45;&gt;20</title>
<path fill="none" stroke="#000000" d="M619.0174,-222.8796C612.4844,-211.7735 605.4125,-199.7513 598.8348,-188.5691"/>
<polygon fill="#000000" stroke="#000000" points="601.7723,-186.6597 593.6853,-179.8149 595.7387,-190.2089 601.7723,-186.6597"/>
</g>
<!-- 21 -->
<g id="node22" class="node">
<title>21</title>
<path fill="#f2c09c" stroke="#000000" d="M775,-187C775,-187 654,-187 654,-187 648,-187 642,-181 642,-175 642,-175 642,-116 642,-116 642,-110 648,-104 654,-104 654,-104 775,-104 775,-104 781,-104 787,-110 787,-116 787,-116 787,-175 787,-175 787,-181 781,-187 775,-187"/>
<text text-anchor="start" x="650" y="-171.8" font-family="Helvetica,sans-Serif" font-size="14.00" fill="#000000">Adiponectin ≤ 5.872</text>
<text text-anchor="start" x="663.5" y="-156.8" font-family="Helvetica,sans-Serif" font-size="14.00" fill="#000000">entropy = 0.918</text>
<text text-anchor="start" x="675" y="-141.8" font-family="Helvetica,sans-Serif" font-size="14.00" fill="#000000">samples = 3</text>
<text text-anchor="start" x="673" y="-126.8" font-family="Helvetica,sans-Serif" font-size="14.00" fill="#000000">value = [2, 1]</text>
<text text-anchor="start" x="685.5" y="-111.8" font-family="Helvetica,sans-Serif" font-size="14.00" fill="#000000">class = 1</text>
</g>
<!-- 19&#45;&gt;21 -->
<g id="edge21" class="edge">
<title>19&#45;&gt;21</title>
<path fill="none" stroke="#000000" d="M668.3324,-222.8796C673.4909,-214.2335 678.9808,-205.0322 684.3076,-196.1042"/>
<polygon fill="#000000" stroke="#000000" points="687.4436,-197.679 689.5617,-187.2981 681.4322,-194.0924 687.4436,-197.679"/>
</g>
<!-- 22 -->
<g id="node23" class="node">
<title>22</title>
<path fill="#e58139" stroke="#000000" d="M694,-68C694,-68 617,-68 617,-68 611,-68 605,-62 605,-56 605,-56 605,-12 605,-12 605,-6 611,0 617,0 617,0 694,0 694,0 700,0 706,-6 706,-12 706,-12 706,-56 706,-56 706,-62 700,-68 694,-68"/>
<text text-anchor="start" x="613" y="-52.8" font-family="Helvetica,sans-Serif" font-size="14.00" fill="#000000">entropy = 0.0</text>
<text text-anchor="start" x="616" y="-37.8" font-family="Helvetica,sans-Serif" font-size="14.00" fill="#000000">samples = 2</text>
<text text-anchor="start" x="614" y="-22.8" font-family="Helvetica,sans-Serif" font-size="14.00" fill="#000000">value = [2, 0]</text>
<text text-anchor="start" x="626.5" y="-7.8" font-family="Helvetica,sans-Serif" font-size="14.00" fill="#000000">class = 1</text>
</g>
<!-- 21&#45;&gt;22 -->
<g id="edge22" class="edge">
<title>21&#45;&gt;22</title>
<path fill="none" stroke="#000000" d="M692.5306,-103.9815C687.9105,-95.2504 683.0264,-86.0202 678.374,-77.2281"/>
<polygon fill="#000000" stroke="#000000" points="681.4013,-75.4655 673.6306,-68.2637 675.2141,-78.7395 681.4013,-75.4655"/>
</g>
<!-- 23 -->
<g id="node24" class="node">
<title>23</title>
<path fill="#399de5" stroke="#000000" d="M813,-68C813,-68 736,-68 736,-68 730,-68 724,-62 724,-56 724,-56 724,-12 724,-12 724,-6 730,0 736,0 736,0 813,0 813,0 819,0 825,-6 825,-12 825,-12 825,-56 825,-56 825,-62 819,-68 813,-68"/>
<text text-anchor="start" x="732" y="-52.8" font-family="Helvetica,sans-Serif" font-size="14.00" fill="#000000">entropy = 0.0</text>
<text text-anchor="start" x="735" y="-37.8" font-family="Helvetica,sans-Serif" font-size="14.00" fill="#000000">samples = 1</text>
<text text-anchor="start" x="733" y="-22.8" font-family="Helvetica,sans-Serif" font-size="14.00" fill="#000000">value = [0, 1]</text>
<text text-anchor="start" x="745.5" y="-7.8" font-family="Helvetica,sans-Serif" font-size="14.00" fill="#000000">class = 2</text>
</g>
<!-- 21&#45;&gt;23 -->
<g id="edge23" class="edge">
<title>21&#45;&gt;23</title>
<path fill="none" stroke="#000000" d="M736.8418,-103.9815C741.5402,-95.2504 746.5071,-86.0202 751.2383,-77.2281"/>
<polygon fill="#000000" stroke="#000000" points="754.4056,-78.7282 756.0621,-68.2637 748.2414,-75.4111 754.4056,-78.7282"/>
</g>
<!-- 27 -->
<g id="node28" class="node">
<title>27</title>
<path fill="#e58139" stroke="#000000" d="M735,-893.5C735,-893.5 658,-893.5 658,-893.5 652,-893.5 646,-887.5 646,-881.5 646,-881.5 646,-837.5 646,-837.5 646,-831.5 652,-825.5 658,-825.5 658,-825.5 735,-825.5 735,-825.5 741,-825.5 747,-831.5 747,-837.5 747,-837.5 747,-881.5 747,-881.5 747,-887.5 741,-893.5 735,-893.5"/>
<text text-anchor="start" x="654" y="-878.3" font-family="Helvetica,sans-Serif" font-size="14.00" fill="#000000">entropy = 0.0</text>
<text text-anchor="start" x="657" y="-863.3" font-family="Helvetica,sans-Serif" font-size="14.00" fill="#000000">samples = 2</text>
<text text-anchor="start" x="655" y="-848.3" font-family="Helvetica,sans-Serif" font-size="14.00" fill="#000000">value = [2, 0]</text>
<text text-anchor="start" x="667.5" y="-833.3" font-family="Helvetica,sans-Serif" font-size="14.00" fill="#000000">class = 1</text>
</g>
<!-- 26&#45;&gt;27 -->
<g id="edge27" class="edge">
<title>26&#45;&gt;27</title>
<path fill="none" stroke="#000000" d="M696.5,-936.8796C696.5,-926.2134 696.5,-914.7021 696.5,-903.9015"/>
<polygon fill="#000000" stroke="#000000" points="700.0001,-903.8149 696.5,-893.8149 693.0001,-903.815 700.0001,-903.8149"/>
</g>
<!-- 28 -->
<g id="node29" class="node">
<title>28</title>
<path fill="#57ace9" stroke="#000000" d="M898,-901C898,-901 777,-901 777,-901 771,-901 765,-895 765,-889 765,-889 765,-830 765,-830 765,-824 771,-818 777,-818 777,-818 898,-818 898,-818 904,-818 910,-824 910,-830 910,-830 910,-889 910,-889 910,-895 904,-901 898,-901"/>
<text text-anchor="start" x="773" y="-885.8" font-family="Helvetica,sans-Serif" font-size="14.00" fill="#000000">Adiponectin ≤ 7.721</text>
<text text-anchor="start" x="786.5" y="-870.8" font-family="Helvetica,sans-Serif" font-size="14.00" fill="#000000">entropy = 0.567</text>
<text text-anchor="start" x="793.5" y="-855.8" font-family="Helvetica,sans-Serif" font-size="14.00" fill="#000000">samples = 30</text>
<text text-anchor="start" x="792" y="-840.8" font-family="Helvetica,sans-Serif" font-size="14.00" fill="#000000">value = [4, 26]</text>
<text text-anchor="start" x="808.5" y="-825.8" font-family="Helvetica,sans-Serif" font-size="14.00" fill="#000000">class = 2</text>
</g>
<!-- 26&#45;&gt;28 -->
<g id="edge28" class="edge">
<title>26&#45;&gt;28</title>
<path fill="none" stroke="#000000" d="M745.815,-936.8796C756.9132,-927.513 768.7835,-917.4948 780.1777,-907.8784"/>
<polygon fill="#000000" stroke="#000000" points="782.5899,-910.4225 787.9746,-901.2981 778.075,-905.0731 782.5899,-910.4225"/>
</g>
<!-- 29 -->
<g id="node30" class="node">
<title>29</title>
<path fill="#91c9f1" stroke="#000000" d="M898,-782C898,-782 777,-782 777,-782 771,-782 765,-776 765,-770 765,-770 765,-711 765,-711 765,-705 771,-699 777,-699 777,-699 898,-699 898,-699 904,-699 910,-705 910,-711 910,-711 910,-770 910,-770 910,-776 904,-782 898,-782"/>
<text text-anchor="start" x="773" y="-766.8" font-family="Helvetica,sans-Serif" font-size="14.00" fill="#000000">Adiponectin ≤ 6.746</text>
<text text-anchor="start" x="790.5" y="-751.8" font-family="Helvetica,sans-Serif" font-size="14.00" fill="#000000">entropy = 0.89</text>
<text text-anchor="start" x="793.5" y="-736.8" font-family="Helvetica,sans-Serif" font-size="14.00" fill="#000000">samples = 13</text>
<text text-anchor="start" x="796" y="-721.8" font-family="Helvetica,sans-Serif" font-size="14.00" fill="#000000">value = [4, 9]</text>
<text text-anchor="start" x="808.5" y="-706.8" font-family="Helvetica,sans-Serif" font-size="14.00" fill="#000000">class = 2</text>
</g>
<!-- 28&#45;&gt;29 -->
<g id="edge29" class="edge">
<title>28&#45;&gt;29</title>
<path fill="none" stroke="#000000" d="M837.5,-817.8796C837.5,-809.6838 837.5,-800.9891 837.5,-792.5013"/>
<polygon fill="#000000" stroke="#000000" points="841.0001,-792.298 837.5,-782.2981 834.0001,-792.2981 841.0001,-792.298"/>
</g>
<!-- 36 -->
<g id="node37" class="node">
<title>36</title>
<path fill="#399de5" stroke="#000000" d="M1023,-774.5C1023,-774.5 940,-774.5 940,-774.5 934,-774.5 928,-768.5 928,-762.5 928,-762.5 928,-718.5 928,-718.5 928,-712.5 934,-706.5 940,-706.5 940,-706.5 1023,-706.5 1023,-706.5 1029,-706.5 1035,-712.5 1035,-718.5 1035,-718.5 1035,-762.5 1035,-762.5 1035,-768.5 1029,-774.5 1023,-774.5"/>
<text text-anchor="start" x="939" y="-759.3" font-family="Helvetica,sans-Serif" font-size="14.00" fill="#000000">entropy = 0.0</text>
<text text-anchor="start" x="937.5" y="-744.3" font-family="Helvetica,sans-Serif" font-size="14.00" fill="#000000">samples = 17</text>
<text text-anchor="start" x="936" y="-729.3" font-family="Helvetica,sans-Serif" font-size="14.00" fill="#000000">value = [0, 17]</text>
<text text-anchor="start" x="952.5" y="-714.3" font-family="Helvetica,sans-Serif" font-size="14.00" fill="#000000">class = 2</text>
</g>
<!-- 28&#45;&gt;36 -->
<g id="edge36" class="edge">
<title>28&#45;&gt;36</title>
<path fill="none" stroke="#000000" d="M887.8642,-817.8796C902.2349,-806.0038 917.8733,-793.0804 932.1808,-781.2568"/>
<polygon fill="#000000" stroke="#000000" points="934.4971,-783.8831 939.976,-774.8149 930.038,-778.4872 934.4971,-783.8831"/>
</g>
<!-- 30 -->
<g id="node31" class="node">
<title>30</title>
<path fill="#65b3eb" stroke="#000000" d="M887.5,-663C887.5,-663 783.5,-663 783.5,-663 777.5,-663 771.5,-657 771.5,-651 771.5,-651 771.5,-592 771.5,-592 771.5,-586 777.5,-580 783.5,-580 783.5,-580 887.5,-580 887.5,-580 893.5,-580 899.5,-586 899.5,-592 899.5,-592 899.5,-651 899.5,-651 899.5,-657 893.5,-663 887.5,-663"/>
<text text-anchor="start" x="779.5" y="-647.8" font-family="Helvetica,sans-Serif" font-size="14.00" fill="#000000">Resistin ≤ 13.741</text>
<text text-anchor="start" x="784.5" y="-632.8" font-family="Helvetica,sans-Serif" font-size="14.00" fill="#000000">entropy = 0.684</text>
<text text-anchor="start" x="791.5" y="-617.8" font-family="Helvetica,sans-Serif" font-size="14.00" fill="#000000">samples = 11</text>
<text text-anchor="start" x="794" y="-602.8" font-family="Helvetica,sans-Serif" font-size="14.00" fill="#000000">value = [2, 9]</text>
<text text-anchor="start" x="806.5" y="-587.8" font-family="Helvetica,sans-Serif" font-size="14.00" fill="#000000">class = 2</text>
</g>
<!-- 29&#45;&gt;30 -->
<g id="edge30" class="edge">
<title>29&#45;&gt;30</title>
<path fill="none" stroke="#000000" d="M836.8005,-698.8796C836.6628,-690.6838 836.5166,-681.9891 836.374,-673.5013"/>
<polygon fill="#000000" stroke="#000000" points="839.8701,-673.2378 836.2025,-663.2981 832.8711,-673.3555 839.8701,-673.2378"/>
</g>
<!-- 35 -->
<g id="node36" class="node">
<title>35</title>
<path fill="#e58139" stroke="#000000" d="M1007,-655.5C1007,-655.5 930,-655.5 930,-655.5 924,-655.5 918,-649.5 918,-643.5 918,-643.5 918,-599.5 918,-599.5 918,-593.5 924,-587.5 930,-587.5 930,-587.5 1007,-587.5 1007,-587.5 1013,-587.5 1019,-593.5 1019,-599.5 1019,-599.5 1019,-643.5 1019,-643.5 1019,-649.5 1013,-655.5 1007,-655.5"/>
<text text-anchor="start" x="926" y="-640.3" font-family="Helvetica,sans-Serif" font-size="14.00" fill="#000000">entropy = 0.0</text>
<text text-anchor="start" x="929" y="-625.3" font-family="Helvetica,sans-Serif" font-size="14.00" fill="#000000">samples = 2</text>
<text text-anchor="start" x="927" y="-610.3" font-family="Helvetica,sans-Serif" font-size="14.00" fill="#000000">value = [2, 0]</text>
<text text-anchor="start" x="939.5" y="-595.3" font-family="Helvetica,sans-Serif" font-size="14.00" fill="#000000">class = 1</text>
</g>
<!-- 29&#45;&gt;35 -->
<g id="edge35" class="edge">
<title>29&#45;&gt;35</title>
<path fill="none" stroke="#000000" d="M883.3174,-698.8796C896.2697,-687.1138 910.354,-674.3197 923.2714,-662.5855"/>
<polygon fill="#000000" stroke="#000000" points="925.6761,-665.1296 930.7247,-655.8149 920.9694,-659.9482 925.6761,-665.1296"/>
</g>
<!-- 31 -->
<g id="node32" class="node">
<title>31</title>
<path fill="#ffffff" stroke="#000000" d="M895,-544C895,-544 774,-544 774,-544 768,-544 762,-538 762,-532 762,-532 762,-473 762,-473 762,-467 768,-461 774,-461 774,-461 895,-461 895,-461 901,-461 907,-467 907,-473 907,-473 907,-532 907,-532 907,-538 901,-544 895,-544"/>
<text text-anchor="start" x="770" y="-528.8" font-family="Helvetica,sans-Serif" font-size="14.00" fill="#000000">Adiponectin ≤ 4.449</text>
<text text-anchor="start" x="792" y="-513.8" font-family="Helvetica,sans-Serif" font-size="14.00" fill="#000000">entropy = 1.0</text>
<text text-anchor="start" x="795" y="-498.8" font-family="Helvetica,sans-Serif" font-size="14.00" fill="#000000">samples = 4</text>
<text text-anchor="start" x="793" y="-483.8" font-family="Helvetica,sans-Serif" font-size="14.00" fill="#000000">value = [2, 2]</text>
<text text-anchor="start" x="805.5" y="-468.8" font-family="Helvetica,sans-Serif" font-size="14.00" fill="#000000">class = 1</text>
</g>
<!-- 30&#45;&gt;31 -->
<g id="edge31" class="edge">
<title>30&#45;&gt;31</title>
<path fill="none" stroke="#000000" d="M835.1502,-579.8796C835.0814,-571.6838 835.0083,-562.9891 834.937,-554.5013"/>
<polygon fill="#000000" stroke="#000000" points="838.4352,-554.2683 834.8512,-544.2981 831.4355,-554.3272 838.4352,-554.2683"/>
</g>
<!-- 34 -->
<g id="node35" class="node">
<title>34</title>
<path fill="#399de5" stroke="#000000" d="M1014,-536.5C1014,-536.5 937,-536.5 937,-536.5 931,-536.5 925,-530.5 925,-524.5 925,-524.5 925,-480.5 925,-480.5 925,-474.5 931,-468.5 937,-468.5 937,-468.5 1014,-468.5 1014,-468.5 1020,-468.5 1026,-474.5 1026,-480.5 1026,-480.5 1026,-524.5 1026,-524.5 1026,-530.5 1020,-536.5 1014,-536.5"/>
<text text-anchor="start" x="933" y="-521.3" font-family="Helvetica,sans-Serif" font-size="14.00" fill="#000000">entropy = 0.0</text>
<text text-anchor="start" x="936" y="-506.3" font-family="Helvetica,sans-Serif" font-size="14.00" fill="#000000">samples = 7</text>
<text text-anchor="start" x="934" y="-491.3" font-family="Helvetica,sans-Serif" font-size="14.00" fill="#000000">value = [0, 7]</text>
<text text-anchor="start" x="946.5" y="-476.3" font-family="Helvetica,sans-Serif" font-size="14.00" fill="#000000">class = 2</text>
</g>
<!-- 30&#45;&gt;34 -->
<g id="edge34" class="edge">
<title>30&#45;&gt;34</title>
<path fill="none" stroke="#000000" d="M884.4652,-579.8796C898.3073,-568.1138 913.3592,-555.3197 927.1641,-543.5855"/>
<polygon fill="#000000" stroke="#000000" points="929.7769,-545.9582 935.1295,-536.8149 925.2433,-540.6247 929.7769,-545.9582"/>
</g>
<!-- 32 -->
<g id="node33" class="node">
<title>32</title>
<path fill="#399de5" stroke="#000000" d="M873,-417.5C873,-417.5 796,-417.5 796,-417.5 790,-417.5 784,-411.5 784,-405.5 784,-405.5 784,-361.5 784,-361.5 784,-355.5 790,-349.5 796,-349.5 796,-349.5 873,-349.5 873,-349.5 879,-349.5 885,-355.5 885,-361.5 885,-361.5 885,-405.5 885,-405.5 885,-411.5 879,-417.5 873,-417.5"/>
<text text-anchor="start" x="792" y="-402.3" font-family="Helvetica,sans-Serif" font-size="14.00" fill="#000000">entropy = 0.0</text>
<text text-anchor="start" x="795" y="-387.3" font-family="Helvetica,sans-Serif" font-size="14.00" fill="#000000">samples = 2</text>
<text text-anchor="start" x="793" y="-372.3" font-family="Helvetica,sans-Serif" font-size="14.00" fill="#000000">value = [0, 2]</text>
<text text-anchor="start" x="805.5" y="-357.3" font-family="Helvetica,sans-Serif" font-size="14.00" fill="#000000">class = 2</text>
</g>
<!-- 31&#45;&gt;32 -->
<g id="edge32" class="edge">
<title>31&#45;&gt;32</title>
<path fill="none" stroke="#000000" d="M834.5,-460.8796C834.5,-450.2134 834.5,-438.7021 834.5,-427.9015"/>
<polygon fill="#000000" stroke="#000000" points="838.0001,-427.8149 834.5,-417.8149 831.0001,-427.815 838.0001,-427.8149"/>
</g>
<!-- 33 -->
<g id="node34" class="node">
<title>33</title>
<path fill="#e58139" stroke="#000000" d="M992,-417.5C992,-417.5 915,-417.5 915,-417.5 909,-417.5 903,-411.5 903,-405.5 903,-405.5 903,-361.5 903,-361.5 903,-355.5 909,-349.5 915,-349.5 915,-349.5 992,-349.5 992,-349.5 998,-349.5 1004,-355.5 1004,-361.5 1004,-361.5 1004,-405.5 1004,-405.5 1004,-411.5 998,-417.5 992,-417.5"/>
<text text-anchor="start" x="911" y="-402.3" font-family="Helvetica,sans-Serif" font-size="14.00" fill="#000000">entropy = 0.0</text>
<text text-anchor="start" x="914" y="-387.3" font-family="Helvetica,sans-Serif" font-size="14.00" fill="#000000">samples = 2</text>
<text text-anchor="start" x="912" y="-372.3" font-family="Helvetica,sans-Serif" font-size="14.00" fill="#000000">value = [2, 0]</text>
<text text-anchor="start" x="924.5" y="-357.3" font-family="Helvetica,sans-Serif" font-size="14.00" fill="#000000">class = 1</text>
</g>
<!-- 31&#45;&gt;33 -->
<g id="edge33" class="edge">
<title>31&#45;&gt;33</title>
<path fill="none" stroke="#000000" d="M876.1204,-460.8796C887.7763,-449.2237 900.4413,-436.5587 912.0852,-424.9148"/>
<polygon fill="#000000" stroke="#000000" points="914.5889,-427.3609 919.1851,-417.8149 909.6391,-422.4111 914.5889,-427.3609"/>
</g>
</g>
</svg>
