<?xml version="1.0" encoding="UTF-8" standalone="no"?>
<!DOCTYPE svg PUBLIC "-//W3C//DTD SVG 1.1//EN"
 "http://www.w3.org/Graphics/SVG/1.1/DTD/svg11.dtd">
<!-- Generated by graphviz version 2.40.1 (20161225.0304)
 -->
<!-- Title: Tree Pages: 1 -->
<svg width="1109pt" height="909pt"
 viewBox="0.00 0.00 1109.00 909.00" xmlns="http://www.w3.org/2000/svg" xmlns:xlink="http://www.w3.org/1999/xlink">
<g id="graph0" class="graph" transform="scale(1 1) rotate(0) translate(4 905)">
<title>Tree</title>
<polygon fill="#ffffff" stroke="transparent" points="-4,4 -4,-905 1105,-905 1105,4 -4,4"/>
<!-- 0 -->
<g id="node1" class="node">
<title>0</title>
<path fill="#fafdfe" stroke="#000000" d="M664.5,-901C664.5,-901 572.5,-901 572.5,-901 566.5,-901 560.5,-895 560.5,-889 560.5,-889 560.5,-830 560.5,-830 560.5,-824 566.5,-818 572.5,-818 572.5,-818 664.5,-818 664.5,-818 670.5,-818 676.5,-824 676.5,-830 676.5,-830 676.5,-889 676.5,-889 676.5,-895 670.5,-901 664.5,-901"/>
<text text-anchor="start" x="569.5" y="-885.8" font-family="Helvetica,sans-Serif" font-size="14.00" fill="#000000">Glucose ≤ 96.5</text>
<text text-anchor="start" x="589" y="-870.8" font-family="Helvetica,sans-Serif" font-size="14.00" fill="#000000">gini = 0.5</text>
<text text-anchor="start" x="574.5" y="-855.8" font-family="Helvetica,sans-Serif" font-size="14.00" fill="#000000">samples = 81</text>
<text text-anchor="start" x="568.5" y="-840.8" font-family="Helvetica,sans-Serif" font-size="14.00" fill="#000000">value = [40, 41]</text>
<text text-anchor="start" x="589.5" y="-825.8" font-family="Helvetica,sans-Serif" font-size="14.00" fill="#000000">class = 2</text>
</g>
<!-- 1 -->
<g id="node2" class="node">
<title>1</title>
<path fill="#f0b990" stroke="#000000" d="M602.5,-782C602.5,-782 498.5,-782 498.5,-782 492.5,-782 486.5,-776 486.5,-770 486.5,-770 486.5,-711 486.5,-711 486.5,-705 492.5,-699 498.5,-699 498.5,-699 602.5,-699 602.5,-699 608.5,-699 614.5,-705 614.5,-711 614.5,-711 614.5,-770 614.5,-770 614.5,-776 608.5,-782 602.5,-782"/>
<text text-anchor="start" x="494.5" y="-766.8" font-family="Helvetica,sans-Serif" font-size="14.00" fill="#000000">Resistin ≤ 13.248</text>
<text text-anchor="start" x="512.5" y="-751.8" font-family="Helvetica,sans-Serif" font-size="14.00" fill="#000000">gini = 0.425</text>
<text text-anchor="start" x="506.5" y="-736.8" font-family="Helvetica,sans-Serif" font-size="14.00" fill="#000000">samples = 49</text>
<text text-anchor="start" x="500.5" y="-721.8" font-family="Helvetica,sans-Serif" font-size="14.00" fill="#000000">value = [34, 15]</text>
<text text-anchor="start" x="521.5" y="-706.8" font-family="Helvetica,sans-Serif" font-size="14.00" fill="#000000">class = 1</text>
</g>
<!-- 0&#45;&gt;1 -->
<g id="edge1" class="edge">
<title>0&#45;&gt;1</title>
<path fill="none" stroke="#000000" d="M594.7169,-817.8796C589.7763,-809.2335 584.5184,-800.0322 579.4167,-791.1042"/>
<polygon fill="#000000" stroke="#000000" points="582.3849,-789.244 574.3846,-782.2981 576.3072,-792.717 582.3849,-789.244"/>
<text text-anchor="middle" x="567.8067" y="-802.7172" font-family="Helvetica,sans-Serif" font-size="14.00" fill="#000000">True</text>
</g>
<!-- 18 -->
<g id="node19" class="node">
<title>18</title>
<path fill="#67b4eb" stroke="#000000" d="M728.5,-782C728.5,-782 644.5,-782 644.5,-782 638.5,-782 632.5,-776 632.5,-770 632.5,-770 632.5,-711 632.5,-711 632.5,-705 638.5,-699 644.5,-699 644.5,-699 728.5,-699 728.5,-699 734.5,-699 740.5,-705 740.5,-711 740.5,-711 740.5,-770 740.5,-770 740.5,-776 734.5,-782 728.5,-782"/>
<text text-anchor="start" x="640.5" y="-766.8" font-family="Helvetica,sans-Serif" font-size="14.00" fill="#000000">Leptin ≤ 6.059</text>
<text text-anchor="start" x="648.5" y="-751.8" font-family="Helvetica,sans-Serif" font-size="14.00" fill="#000000">gini = 0.305</text>
<text text-anchor="start" x="642.5" y="-736.8" font-family="Helvetica,sans-Serif" font-size="14.00" fill="#000000">samples = 32</text>
<text text-anchor="start" x="641" y="-721.8" font-family="Helvetica,sans-Serif" font-size="14.00" fill="#000000">value = [6, 26]</text>
<text text-anchor="start" x="657.5" y="-706.8" font-family="Helvetica,sans-Serif" font-size="14.00" fill="#000000">class = 2</text>
</g>
<!-- 0&#45;&gt;18 -->
<g id="edge18" class="edge">
<title>0&#45;&gt;18</title>
<path fill="none" stroke="#000000" d="M642.2831,-817.8796C647.2237,-809.2335 652.4816,-800.0322 657.5833,-791.1042"/>
<polygon fill="#000000" stroke="#000000" points="660.6928,-792.717 662.6154,-782.2981 654.6151,-789.244 660.6928,-792.717"/>
<text text-anchor="middle" x="669.1933" y="-802.7172" font-family="Helvetica,sans-Serif" font-size="14.00" fill="#000000">False</text>
</g>
<!-- 2 -->
<g id="node3" class="node">
<title>2</title>
<path fill="#eb9d65" stroke="#000000" d="M471,-663C471,-663 376,-663 376,-663 370,-663 364,-657 364,-651 364,-651 364,-592 364,-592 364,-586 370,-580 376,-580 376,-580 471,-580 471,-580 477,-580 483,-586 483,-592 483,-592 483,-651 483,-651 483,-657 477,-663 471,-663"/>
<text text-anchor="start" x="372" y="-647.8" font-family="Helvetica,sans-Serif" font-size="14.00" fill="#000000">Insulin ≤ 15.352</text>
<text text-anchor="start" x="385.5" y="-632.8" font-family="Helvetica,sans-Serif" font-size="14.00" fill="#000000">gini = 0.298</text>
<text text-anchor="start" x="379.5" y="-617.8" font-family="Helvetica,sans-Serif" font-size="14.00" fill="#000000">samples = 33</text>
<text text-anchor="start" x="378" y="-602.8" font-family="Helvetica,sans-Serif" font-size="14.00" fill="#000000">value = [27, 6]</text>
<text text-anchor="start" x="394.5" y="-587.8" font-family="Helvetica,sans-Serif" font-size="14.00" fill="#000000">class = 1</text>
</g>
<!-- 1&#45;&gt;2 -->
<g id="edge2" class="edge">
<title>1&#45;&gt;2</title>
<path fill="none" stroke="#000000" d="M506.0816,-698.8796C496.1814,-689.6031 485.5991,-679.6874 475.4269,-670.1559"/>
<polygon fill="#000000" stroke="#000000" points="477.7984,-667.5816 468.108,-663.2981 473.0121,-672.6896 477.7984,-667.5816"/>
</g>
<!-- 15 -->
<g id="node16" class="node">
<title>15</title>
<path fill="#d3e9f9" stroke="#000000" d="M593.5,-663C593.5,-663 513.5,-663 513.5,-663 507.5,-663 501.5,-657 501.5,-651 501.5,-651 501.5,-592 501.5,-592 501.5,-586 507.5,-580 513.5,-580 513.5,-580 593.5,-580 593.5,-580 599.5,-580 605.5,-586 605.5,-592 605.5,-592 605.5,-651 605.5,-651 605.5,-657 599.5,-663 593.5,-663"/>
<text text-anchor="start" x="510.5" y="-647.8" font-family="Helvetica,sans-Serif" font-size="14.00" fill="#000000">BMI ≤ 29.972</text>
<text text-anchor="start" x="515.5" y="-632.8" font-family="Helvetica,sans-Serif" font-size="14.00" fill="#000000">gini = 0.492</text>
<text text-anchor="start" x="509.5" y="-617.8" font-family="Helvetica,sans-Serif" font-size="14.00" fill="#000000">samples = 16</text>
<text text-anchor="start" x="512" y="-602.8" font-family="Helvetica,sans-Serif" font-size="14.00" fill="#000000">value = [7, 9]</text>
<text text-anchor="start" x="524.5" y="-587.8" font-family="Helvetica,sans-Serif" font-size="14.00" fill="#000000">class = 2</text>
</g>
<!-- 1&#45;&gt;15 -->
<g id="edge15" class="edge">
<title>1&#45;&gt;15</title>
<path fill="none" stroke="#000000" d="M551.5493,-698.8796C551.7559,-690.6838 551.9751,-681.9891 552.189,-673.5013"/>
<polygon fill="#000000" stroke="#000000" points="555.693,-673.3831 552.4463,-663.2981 548.6953,-673.2067 555.693,-673.3831"/>
</g>
<!-- 3 -->
<g id="node4" class="node">
<title>3</title>
<path fill="#e99456" stroke="#000000" d="M347.5,-544C347.5,-544 263.5,-544 263.5,-544 257.5,-544 251.5,-538 251.5,-532 251.5,-532 251.5,-473 251.5,-473 251.5,-467 257.5,-461 263.5,-461 263.5,-461 347.5,-461 347.5,-461 353.5,-461 359.5,-467 359.5,-473 359.5,-473 359.5,-532 359.5,-532 359.5,-538 353.5,-544 347.5,-544"/>
<text text-anchor="start" x="259.5" y="-528.8" font-family="Helvetica,sans-Serif" font-size="14.00" fill="#000000">Leptin ≤ 47.33</text>
<text text-anchor="start" x="267.5" y="-513.8" font-family="Helvetica,sans-Serif" font-size="14.00" fill="#000000">gini = 0.225</text>
<text text-anchor="start" x="261.5" y="-498.8" font-family="Helvetica,sans-Serif" font-size="14.00" fill="#000000">samples = 31</text>
<text text-anchor="start" x="260" y="-483.8" font-family="Helvetica,sans-Serif" font-size="14.00" fill="#000000">value = [27, 4]</text>
<text text-anchor="start" x="276.5" y="-468.8" font-family="Helvetica,sans-Serif" font-size="14.00" fill="#000000">class = 1</text>
</g>
<!-- 2&#45;&gt;3 -->
<g id="edge3" class="edge">
<title>2&#45;&gt;3</title>
<path fill="none" stroke="#000000" d="M382.2293,-579.8796C373.1201,-570.6931 363.3892,-560.8798 354.0224,-551.4336"/>
<polygon fill="#000000" stroke="#000000" points="356.4733,-548.9345 346.9468,-544.2981 351.5027,-553.8634 356.4733,-548.9345"/>
</g>
<!-- 14 -->
<g id="node15" class="node">
<title>14</title>
<path fill="#399de5" stroke="#000000" d="M465,-536.5C465,-536.5 390,-536.5 390,-536.5 384,-536.5 378,-530.5 378,-524.5 378,-524.5 378,-480.5 378,-480.5 378,-474.5 384,-468.5 390,-468.5 390,-468.5 465,-468.5 465,-468.5 471,-468.5 477,-474.5 477,-480.5 477,-480.5 477,-524.5 477,-524.5 477,-530.5 471,-536.5 465,-536.5"/>
<text text-anchor="start" x="398" y="-521.3" font-family="Helvetica,sans-Serif" font-size="14.00" fill="#000000">gini = 0.0</text>
<text text-anchor="start" x="388" y="-506.3" font-family="Helvetica,sans-Serif" font-size="14.00" fill="#000000">samples = 2</text>
<text text-anchor="start" x="386" y="-491.3" font-family="Helvetica,sans-Serif" font-size="14.00" fill="#000000">value = [0, 2]</text>
<text text-anchor="start" x="398.5" y="-476.3" font-family="Helvetica,sans-Serif" font-size="14.00" fill="#000000">class = 2</text>
</g>
<!-- 2&#45;&gt;14 -->
<g id="edge14" class="edge">
<title>2&#45;&gt;14</title>
<path fill="none" stroke="#000000" d="M424.899,-579.8796C425.2575,-569.2134 425.6445,-557.7021 426.0075,-546.9015"/>
<polygon fill="#000000" stroke="#000000" points="429.5085,-546.9269 426.3466,-536.8149 422.5125,-546.6917 429.5085,-546.9269"/>
</g>
<!-- 4 -->
<g id="node5" class="node">
<title>4</title>
<path fill="#e88f4f" stroke="#000000" d="M291.5,-425C291.5,-425 187.5,-425 187.5,-425 181.5,-425 175.5,-419 175.5,-413 175.5,-413 175.5,-354 175.5,-354 175.5,-348 181.5,-342 187.5,-342 187.5,-342 291.5,-342 291.5,-342 297.5,-342 303.5,-348 303.5,-354 303.5,-354 303.5,-413 303.5,-413 303.5,-419 297.5,-425 291.5,-425"/>
<text text-anchor="start" x="183.5" y="-409.8" font-family="Helvetica,sans-Serif" font-size="14.00" fill="#000000">MCP.1 ≤ 209.469</text>
<text text-anchor="start" x="206" y="-394.8" font-family="Helvetica,sans-Serif" font-size="14.00" fill="#000000">gini = 0.18</text>
<text text-anchor="start" x="195.5" y="-379.8" font-family="Helvetica,sans-Serif" font-size="14.00" fill="#000000">samples = 30</text>
<text text-anchor="start" x="194" y="-364.8" font-family="Helvetica,sans-Serif" font-size="14.00" fill="#000000">value = [27, 3]</text>
<text text-anchor="start" x="210.5" y="-349.8" font-family="Helvetica,sans-Serif" font-size="14.00" fill="#000000">class = 1</text>
</g>
<!-- 3&#45;&gt;4 -->
<g id="edge4" class="edge">
<title>3&#45;&gt;4</title>
<path fill="none" stroke="#000000" d="M282.4164,-460.8796C277.6211,-452.2335 272.5178,-443.0322 267.5662,-434.1042"/>
<polygon fill="#000000" stroke="#000000" points="270.5931,-432.3455 262.6821,-425.2981 264.4716,-435.7407 270.5931,-432.3455"/>
</g>
<!-- 13 -->
<g id="node14" class="node">
<title>13</title>
<path fill="#399de5" stroke="#000000" d="M409,-417.5C409,-417.5 334,-417.5 334,-417.5 328,-417.5 322,-411.5 322,-405.5 322,-405.5 322,-361.5 322,-361.5 322,-355.5 328,-349.5 334,-349.5 334,-349.5 409,-349.5 409,-349.5 415,-349.5 421,-355.5 421,-361.5 421,-361.5 421,-405.5 421,-405.5 421,-411.5 415,-417.5 409,-417.5"/>
<text text-anchor="start" x="342" y="-402.3" font-family="Helvetica,sans-Serif" font-size="14.00" fill="#000000">gini = 0.0</text>
<text text-anchor="start" x="332" y="-387.3" font-family="Helvetica,sans-Serif" font-size="14.00" fill="#000000">samples = 1</text>
<text text-anchor="start" x="330" y="-372.3" font-family="Helvetica,sans-Serif" font-size="14.00" fill="#000000">value = [0, 1]</text>
<text text-anchor="start" x="342.5" y="-357.3" font-family="Helvetica,sans-Serif" font-size="14.00" fill="#000000">class = 2</text>
</g>
<!-- 3&#45;&gt;13 -->
<g id="edge13" class="edge">
<title>3&#45;&gt;13</title>
<path fill="none" stroke="#000000" d="M328.5836,-460.8796C334.7433,-449.7735 341.4111,-437.7513 347.6129,-426.5691"/>
<polygon fill="#000000" stroke="#000000" points="350.6787,-428.2576 352.4682,-417.8149 344.5572,-424.8624 350.6787,-428.2576"/>
</g>
<!-- 5 -->
<g id="node6" class="node">
<title>5</title>
<path fill="#f2c09c" stroke="#000000" d="M214.5,-306C214.5,-306 110.5,-306 110.5,-306 104.5,-306 98.5,-300 98.5,-294 98.5,-294 98.5,-235 98.5,-235 98.5,-229 104.5,-223 110.5,-223 110.5,-223 214.5,-223 214.5,-223 220.5,-223 226.5,-229 226.5,-235 226.5,-235 226.5,-294 226.5,-294 226.5,-300 220.5,-306 214.5,-306"/>
<text text-anchor="start" x="106.5" y="-290.8" font-family="Helvetica,sans-Serif" font-size="14.00" fill="#000000">MCP.1 ≤ 192.795</text>
<text text-anchor="start" x="124.5" y="-275.8" font-family="Helvetica,sans-Serif" font-size="14.00" fill="#000000">gini = 0.444</text>
<text text-anchor="start" x="123" y="-260.8" font-family="Helvetica,sans-Serif" font-size="14.00" fill="#000000">samples = 6</text>
<text text-anchor="start" x="121" y="-245.8" font-family="Helvetica,sans-Serif" font-size="14.00" fill="#000000">value = [4, 2]</text>
<text text-anchor="start" x="133.5" y="-230.8" font-family="Helvetica,sans-Serif" font-size="14.00" fill="#000000">class = 1</text>
</g>
<!-- 4&#45;&gt;5 -->
<g id="edge5" class="edge">
<title>4&#45;&gt;5</title>
<path fill="none" stroke="#000000" d="M212.5691,-341.8796C206.9163,-333.1434 200.8967,-323.8404 195.0634,-314.8253"/>
<polygon fill="#000000" stroke="#000000" points="197.9169,-312.7924 189.5458,-306.2981 192.0399,-316.5952 197.9169,-312.7924"/>
</g>
<!-- 8 -->
<g id="node9" class="node">
<title>8</title>
<path fill="#e68642" stroke="#000000" d="M378,-306C378,-306 257,-306 257,-306 251,-306 245,-300 245,-294 245,-294 245,-235 245,-235 245,-229 251,-223 257,-223 257,-223 378,-223 378,-223 384,-223 390,-229 390,-235 390,-235 390,-294 390,-294 390,-300 384,-306 378,-306"/>
<text text-anchor="start" x="253" y="-290.8" font-family="Helvetica,sans-Serif" font-size="14.00" fill="#000000">Adiponectin ≤ 3.986</text>
<text text-anchor="start" x="284" y="-275.8" font-family="Helvetica,sans-Serif" font-size="14.00" fill="#000000">gini = 0.08</text>
<text text-anchor="start" x="273.5" y="-260.8" font-family="Helvetica,sans-Serif" font-size="14.00" fill="#000000">samples = 24</text>
<text text-anchor="start" x="272" y="-245.8" font-family="Helvetica,sans-Serif" font-size="14.00" fill="#000000">value = [23, 1]</text>
<text text-anchor="start" x="288.5" y="-230.8" font-family="Helvetica,sans-Serif" font-size="14.00" fill="#000000">class = 1</text>
</g>
<!-- 4&#45;&gt;8 -->
<g id="edge8" class="edge">
<title>4&#45;&gt;8</title>
<path fill="none" stroke="#000000" d="M266.7806,-341.8796C272.5068,-333.1434 278.6046,-323.8404 284.5137,-314.8253"/>
<polygon fill="#000000" stroke="#000000" points="287.5482,-316.5803 290.1029,-306.2981 281.6937,-312.7429 287.5482,-316.5803"/>
</g>
<!-- 6 -->
<g id="node7" class="node">
<title>6</title>
<path fill="#e58139" stroke="#000000" d="M87,-179.5C87,-179.5 12,-179.5 12,-179.5 6,-179.5 0,-173.5 0,-167.5 0,-167.5 0,-123.5 0,-123.5 0,-117.5 6,-111.5 12,-111.5 12,-111.5 87,-111.5 87,-111.5 93,-111.5 99,-117.5 99,-123.5 99,-123.5 99,-167.5 99,-167.5 99,-173.5 93,-179.5 87,-179.5"/>
<text text-anchor="start" x="20" y="-164.3" font-family="Helvetica,sans-Serif" font-size="14.00" fill="#000000">gini = 0.0</text>
<text text-anchor="start" x="10" y="-149.3" font-family="Helvetica,sans-Serif" font-size="14.00" fill="#000000">samples = 4</text>
<text text-anchor="start" x="8" y="-134.3" font-family="Helvetica,sans-Serif" font-size="14.00" fill="#000000">value = [4, 0]</text>
<text text-anchor="start" x="20.5" y="-119.3" font-family="Helvetica,sans-Serif" font-size="14.00" fill="#000000">class = 1</text>
</g>
<!-- 5&#45;&gt;6 -->
<g id="edge6" class="edge">
<title>5&#45;&gt;6</title>
<path fill="none" stroke="#000000" d="M122.9781,-222.8796C112.0143,-211.3337 100.1103,-198.7976 89.1399,-187.2446"/>
<polygon fill="#000000" stroke="#000000" points="91.5087,-184.6564 82.0848,-179.8149 86.4327,-189.4766 91.5087,-184.6564"/>
</g>
<!-- 7 -->
<g id="node8" class="node">
<title>7</title>
<path fill="#399de5" stroke="#000000" d="M204,-179.5C204,-179.5 129,-179.5 129,-179.5 123,-179.5 117,-173.5 117,-167.5 117,-167.5 117,-123.5 117,-123.5 117,-117.5 123,-111.5 129,-111.5 129,-111.5 204,-111.5 204,-111.5 210,-111.5 216,-117.5 216,-123.5 216,-123.5 216,-167.5 216,-167.5 216,-173.5 210,-179.5 204,-179.5"/>
<text text-anchor="start" x="137" y="-164.3" font-family="Helvetica,sans-Serif" font-size="14.00" fill="#000000">gini = 0.0</text>
<text text-anchor="start" x="127" y="-149.3" font-family="Helvetica,sans-Serif" font-size="14.00" fill="#000000">samples = 2</text>
<text text-anchor="start" x="125" y="-134.3" font-family="Helvetica,sans-Serif" font-size="14.00" fill="#000000">value = [0, 2]</text>
<text text-anchor="start" x="137.5" y="-119.3" font-family="Helvetica,sans-Serif" font-size="14.00" fill="#000000">class = 2</text>
</g>
<!-- 5&#45;&gt;7 -->
<g id="edge7" class="edge">
<title>5&#45;&gt;7</title>
<path fill="none" stroke="#000000" d="M163.899,-222.8796C164.2575,-212.2134 164.6445,-200.7021 165.0075,-189.9015"/>
<polygon fill="#000000" stroke="#000000" points="168.5085,-189.9269 165.3466,-179.8149 161.5125,-189.6917 168.5085,-189.9269"/>
</g>
<!-- 9 -->
<g id="node10" class="node">
<title>9</title>
<path fill="#ffffff" stroke="#000000" d="M374,-187C374,-187 253,-187 253,-187 247,-187 241,-181 241,-175 241,-175 241,-116 241,-116 241,-110 247,-104 253,-104 253,-104 374,-104 374,-104 380,-104 386,-110 386,-116 386,-116 386,-175 386,-175 386,-181 380,-187 374,-187"/>
<text text-anchor="start" x="249" y="-171.8" font-family="Helvetica,sans-Serif" font-size="14.00" fill="#000000">Adiponectin ≤ 3.449</text>
<text text-anchor="start" x="284" y="-156.8" font-family="Helvetica,sans-Serif" font-size="14.00" fill="#000000">gini = 0.5</text>
<text text-anchor="start" x="274" y="-141.8" font-family="Helvetica,sans-Serif" font-size="14.00" fill="#000000">samples = 2</text>
<text text-anchor="start" x="272" y="-126.8" font-family="Helvetica,sans-Serif" font-size="14.00" fill="#000000">value = [1, 1]</text>
<text text-anchor="start" x="284.5" y="-111.8" font-family="Helvetica,sans-Serif" font-size="14.00" fill="#000000">class = 1</text>
</g>
<!-- 8&#45;&gt;9 -->
<g id="edge9" class="edge">
<title>8&#45;&gt;9</title>
<path fill="none" stroke="#000000" d="M316.101,-222.8796C315.8255,-214.6838 315.5332,-205.9891 315.2479,-197.5013"/>
<polygon fill="#000000" stroke="#000000" points="318.739,-197.1748 314.905,-187.2981 311.743,-197.41 318.739,-197.1748"/>
</g>
<!-- 12 -->
<g id="node13" class="node">
<title>12</title>
<path fill="#e58139" stroke="#000000" d="M499,-179.5C499,-179.5 416,-179.5 416,-179.5 410,-179.5 404,-173.5 404,-167.5 404,-167.5 404,-123.5 404,-123.5 404,-117.5 410,-111.5 416,-111.5 416,-111.5 499,-111.5 499,-111.5 505,-111.5 511,-117.5 511,-123.5 511,-123.5 511,-167.5 511,-167.5 511,-173.5 505,-179.5 499,-179.5"/>
<text text-anchor="start" x="428" y="-164.3" font-family="Helvetica,sans-Serif" font-size="14.00" fill="#000000">gini = 0.0</text>
<text text-anchor="start" x="413.5" y="-149.3" font-family="Helvetica,sans-Serif" font-size="14.00" fill="#000000">samples = 22</text>
<text text-anchor="start" x="412" y="-134.3" font-family="Helvetica,sans-Serif" font-size="14.00" fill="#000000">value = [22, 0]</text>
<text text-anchor="start" x="428.5" y="-119.3" font-family="Helvetica,sans-Serif" font-size="14.00" fill="#000000">class = 1</text>
</g>
<!-- 8&#45;&gt;12 -->
<g id="edge12" class="edge">
<title>8&#45;&gt;12</title>
<path fill="none" stroke="#000000" d="M366.4652,-222.8796C380.3073,-211.1138 395.3592,-198.3197 409.1641,-186.5855"/>
<polygon fill="#000000" stroke="#000000" points="411.7769,-188.9582 417.1295,-179.8149 407.2433,-183.6247 411.7769,-188.9582"/>
</g>
<!-- 10 -->
<g id="node11" class="node">
<title>10</title>
<path fill="#e58139" stroke="#000000" d="M292,-68C292,-68 217,-68 217,-68 211,-68 205,-62 205,-56 205,-56 205,-12 205,-12 205,-6 211,0 217,0 217,0 292,0 292,0 298,0 304,-6 304,-12 304,-12 304,-56 304,-56 304,-62 298,-68 292,-68"/>
<text text-anchor="start" x="225" y="-52.8" font-family="Helvetica,sans-Serif" font-size="14.00" fill="#000000">gini = 0.0</text>
<text text-anchor="start" x="215" y="-37.8" font-family="Helvetica,sans-Serif" font-size="14.00" fill="#000000">samples = 1</text>
<text text-anchor="start" x="213" y="-22.8" font-family="Helvetica,sans-Serif" font-size="14.00" fill="#000000">value = [1, 0]</text>
<text text-anchor="start" x="225.5" y="-7.8" font-family="Helvetica,sans-Serif" font-size="14.00" fill="#000000">class = 1</text>
</g>
<!-- 9&#45;&gt;10 -->
<g id="edge10" class="edge">
<title>9&#45;&gt;10</title>
<path fill="none" stroke="#000000" d="M291.5306,-103.9815C286.9105,-95.2504 282.0264,-86.0202 277.374,-77.2281"/>
<polygon fill="#000000" stroke="#000000" points="280.4013,-75.4655 272.6306,-68.2637 274.2141,-78.7395 280.4013,-75.4655"/>
</g>
<!-- 11 -->
<g id="node12" class="node">
<title>11</title>
<path fill="#399de5" stroke="#000000" d="M409,-68C409,-68 334,-68 334,-68 328,-68 322,-62 322,-56 322,-56 322,-12 322,-12 322,-6 328,0 334,0 334,0 409,0 409,0 415,0 421,-6 421,-12 421,-12 421,-56 421,-56 421,-62 415,-68 409,-68"/>
<text text-anchor="start" x="342" y="-52.8" font-family="Helvetica,sans-Serif" font-size="14.00" fill="#000000">gini = 0.0</text>
<text text-anchor="start" x="332" y="-37.8" font-family="Helvetica,sans-Serif" font-size="14.00" fill="#000000">samples = 1</text>
<text text-anchor="start" x="330" y="-22.8" font-family="Helvetica,sans-Serif" font-size="14.00" fill="#000000">value = [0, 1]</text>
<text text-anchor="start" x="342.5" y="-7.8" font-family="Helvetica,sans-Serif" font-size="14.00" fill="#000000">class = 2</text>
</g>
<!-- 9&#45;&gt;11 -->
<g id="edge11" class="edge">
<title>9&#45;&gt;11</title>
<path fill="none" stroke="#000000" d="M335.0971,-103.9815C339.6388,-95.2504 344.4402,-86.0202 349.0137,-77.2281"/>
<polygon fill="#000000" stroke="#000000" points="352.1669,-78.7504 353.6767,-68.2637 345.9569,-75.52 352.1669,-78.7504"/>
</g>
<!-- 16 -->
<g id="node17" class="node">
<title>16</title>
<path fill="#399de5" stroke="#000000" d="M588,-536.5C588,-536.5 513,-536.5 513,-536.5 507,-536.5 501,-530.5 501,-524.5 501,-524.5 501,-480.5 501,-480.5 501,-474.5 507,-468.5 513,-468.5 513,-468.5 588,-468.5 588,-468.5 594,-468.5 600,-474.5 600,-480.5 600,-480.5 600,-524.5 600,-524.5 600,-530.5 594,-536.5 588,-536.5"/>
<text text-anchor="start" x="521" y="-521.3" font-family="Helvetica,sans-Serif" font-size="14.00" fill="#000000">gini = 0.0</text>
<text text-anchor="start" x="511" y="-506.3" font-family="Helvetica,sans-Serif" font-size="14.00" fill="#000000">samples = 9</text>
<text text-anchor="start" x="509" y="-491.3" font-family="Helvetica,sans-Serif" font-size="14.00" fill="#000000">value = [0, 9]</text>
<text text-anchor="start" x="521.5" y="-476.3" font-family="Helvetica,sans-Serif" font-size="14.00" fill="#000000">class = 2</text>
</g>
<!-- 15&#45;&gt;16 -->
<g id="edge16" class="edge">
<title>15&#45;&gt;16</title>
<path fill="none" stroke="#000000" d="M552.4507,-579.8796C552.1818,-569.2134 551.8916,-557.7021 551.6194,-546.9015"/>
<polygon fill="#000000" stroke="#000000" points="555.1161,-546.7235 551.3651,-536.8149 548.1183,-546.9 555.1161,-546.7235"/>
</g>
<!-- 17 -->
<g id="node18" class="node">
<title>17</title>
<path fill="#e58139" stroke="#000000" d="M705,-536.5C705,-536.5 630,-536.5 630,-536.5 624,-536.5 618,-530.5 618,-524.5 618,-524.5 618,-480.5 618,-480.5 618,-474.5 624,-468.5 630,-468.5 630,-468.5 705,-468.5 705,-468.5 711,-468.5 717,-474.5 717,-480.5 717,-480.5 717,-524.5 717,-524.5 717,-530.5 711,-536.5 705,-536.5"/>
<text text-anchor="start" x="638" y="-521.3" font-family="Helvetica,sans-Serif" font-size="14.00" fill="#000000">gini = 0.0</text>
<text text-anchor="start" x="628" y="-506.3" font-family="Helvetica,sans-Serif" font-size="14.00" fill="#000000">samples = 7</text>
<text text-anchor="start" x="626" y="-491.3" font-family="Helvetica,sans-Serif" font-size="14.00" fill="#000000">value = [7, 0]</text>
<text text-anchor="start" x="638.5" y="-476.3" font-family="Helvetica,sans-Serif" font-size="14.00" fill="#000000">class = 1</text>
</g>
<!-- 15&#45;&gt;17 -->
<g id="edge17" class="edge">
<title>15&#45;&gt;17</title>
<path fill="none" stroke="#000000" d="M593.3717,-579.8796C604.4324,-568.3337 616.4418,-555.7976 627.5094,-544.2446"/>
<polygon fill="#000000" stroke="#000000" points="630.2365,-546.4573 634.6269,-536.8149 625.1817,-541.6149 630.2365,-546.4573"/>
</g>
<!-- 19 -->
<g id="node20" class="node">
<title>19</title>
<path fill="#e58139" stroke="#000000" d="M719,-655.5C719,-655.5 644,-655.5 644,-655.5 638,-655.5 632,-649.5 632,-643.5 632,-643.5 632,-599.5 632,-599.5 632,-593.5 638,-587.5 644,-587.5 644,-587.5 719,-587.5 719,-587.5 725,-587.5 731,-593.5 731,-599.5 731,-599.5 731,-643.5 731,-643.5 731,-649.5 725,-655.5 719,-655.5"/>
<text text-anchor="start" x="652" y="-640.3" font-family="Helvetica,sans-Serif" font-size="14.00" fill="#000000">gini = 0.0</text>
<text text-anchor="start" x="642" y="-625.3" font-family="Helvetica,sans-Serif" font-size="14.00" fill="#000000">samples = 2</text>
<text text-anchor="start" x="640" y="-610.3" font-family="Helvetica,sans-Serif" font-size="14.00" fill="#000000">value = [2, 0]</text>
<text text-anchor="start" x="652.5" y="-595.3" font-family="Helvetica,sans-Serif" font-size="14.00" fill="#000000">class = 1</text>
</g>
<!-- 18&#45;&gt;19 -->
<g id="edge19" class="edge">
<title>18&#45;&gt;19</title>
<path fill="none" stroke="#000000" d="M684.7512,-698.8796C684.3031,-688.2134 683.8194,-676.7021 683.3656,-665.9015"/>
<polygon fill="#000000" stroke="#000000" points="686.8586,-665.6592 682.9418,-655.8149 679.8648,-665.9531 686.8586,-665.6592"/>
</g>
<!-- 20 -->
<g id="node21" class="node">
<title>20</title>
<path fill="#57ace9" stroke="#000000" d="M844,-663C844,-663 761,-663 761,-663 755,-663 749,-657 749,-651 749,-651 749,-592 749,-592 749,-586 755,-580 761,-580 761,-580 844,-580 844,-580 850,-580 856,-586 856,-592 856,-592 856,-651 856,-651 856,-657 850,-663 844,-663"/>
<text text-anchor="start" x="759.5" y="-647.8" font-family="Helvetica,sans-Serif" font-size="14.00" fill="#000000">BMI ≤ 33.777</text>
<text text-anchor="start" x="764.5" y="-632.8" font-family="Helvetica,sans-Serif" font-size="14.00" fill="#000000">gini = 0.231</text>
<text text-anchor="start" x="758.5" y="-617.8" font-family="Helvetica,sans-Serif" font-size="14.00" fill="#000000">samples = 30</text>
<text text-anchor="start" x="757" y="-602.8" font-family="Helvetica,sans-Serif" font-size="14.00" fill="#000000">value = [4, 26]</text>
<text text-anchor="start" x="773.5" y="-587.8" font-family="Helvetica,sans-Serif" font-size="14.00" fill="#000000">class = 2</text>
</g>
<!-- 18&#45;&gt;20 -->
<g id="edge20" class="edge">
<title>18&#45;&gt;20</title>
<path fill="none" stroke="#000000" d="M727.0712,-698.8796C735.9382,-689.7832 745.4044,-680.0722 754.5291,-670.7116"/>
<polygon fill="#000000" stroke="#000000" points="757.2817,-672.9019 761.7557,-663.2981 752.2691,-668.0158 757.2817,-672.9019"/>
</g>
<!-- 21 -->
<g id="node22" class="node">
<title>21</title>
<path fill="#42a1e6" stroke="#000000" d="M848,-544C848,-544 753,-544 753,-544 747,-544 741,-538 741,-532 741,-532 741,-473 741,-473 741,-467 747,-461 753,-461 753,-461 848,-461 848,-461 854,-461 860,-467 860,-473 860,-473 860,-532 860,-532 860,-538 854,-544 848,-544"/>
<text text-anchor="start" x="749" y="-528.8" font-family="Helvetica,sans-Serif" font-size="14.00" fill="#000000">MCP.1 ≤ 67.966</text>
<text text-anchor="start" x="767" y="-513.8" font-family="Helvetica,sans-Serif" font-size="14.00" fill="#000000">gini = 0.08</text>
<text text-anchor="start" x="756.5" y="-498.8" font-family="Helvetica,sans-Serif" font-size="14.00" fill="#000000">samples = 24</text>
<text text-anchor="start" x="755" y="-483.8" font-family="Helvetica,sans-Serif" font-size="14.00" fill="#000000">value = [1, 23]</text>
<text text-anchor="start" x="771.5" y="-468.8" font-family="Helvetica,sans-Serif" font-size="14.00" fill="#000000">class = 2</text>
</g>
<!-- 20&#45;&gt;21 -->
<g id="edge21" class="edge">
<title>20&#45;&gt;21</title>
<path fill="none" stroke="#000000" d="M801.8005,-579.8796C801.6628,-571.6838 801.5166,-562.9891 801.374,-554.5013"/>
<polygon fill="#000000" stroke="#000000" points="804.8701,-554.2378 801.2025,-544.2981 797.8711,-554.3555 804.8701,-554.2378"/>
</g>
<!-- 24 -->
<g id="node25" class="node">
<title>24</title>
<path fill="#ffffff" stroke="#000000" d="M988.5,-544C988.5,-544 890.5,-544 890.5,-544 884.5,-544 878.5,-538 878.5,-532 878.5,-532 878.5,-473 878.5,-473 878.5,-467 884.5,-461 890.5,-461 890.5,-461 988.5,-461 988.5,-461 994.5,-461 1000.5,-467 1000.5,-473 1000.5,-473 1000.5,-532 1000.5,-532 1000.5,-538 994.5,-544 988.5,-544"/>
<text text-anchor="start" x="886.5" y="-528.8" font-family="Helvetica,sans-Serif" font-size="14.00" fill="#000000">Glucose ≤ 112.5</text>
<text text-anchor="start" x="910" y="-513.8" font-family="Helvetica,sans-Serif" font-size="14.00" fill="#000000">gini = 0.5</text>
<text text-anchor="start" x="900" y="-498.8" font-family="Helvetica,sans-Serif" font-size="14.00" fill="#000000">samples = 6</text>
<text text-anchor="start" x="898" y="-483.8" font-family="Helvetica,sans-Serif" font-size="14.00" fill="#000000">value = [3, 3]</text>
<text text-anchor="start" x="910.5" y="-468.8" font-family="Helvetica,sans-Serif" font-size="14.00" fill="#000000">class = 1</text>
</g>
<!-- 20&#45;&gt;24 -->
<g id="edge24" class="edge">
<title>20&#45;&gt;24</title>
<path fill="none" stroke="#000000" d="M850.416,-579.8796C861.1993,-570.513 872.7329,-560.4948 883.8039,-550.8784"/>
<polygon fill="#000000" stroke="#000000" points="886.1251,-553.4982 891.3795,-544.2981 881.5347,-548.2134 886.1251,-553.4982"/>
</g>
<!-- 22 -->
<g id="node23" class="node">
<title>22</title>
<path fill="#e58139" stroke="#000000" d="M721,-417.5C721,-417.5 646,-417.5 646,-417.5 640,-417.5 634,-411.5 634,-405.5 634,-405.5 634,-361.5 634,-361.5 634,-355.5 640,-349.5 646,-349.5 646,-349.5 721,-349.5 721,-349.5 727,-349.5 733,-355.5 733,-361.5 733,-361.5 733,-405.5 733,-405.5 733,-411.5 727,-417.5 721,-417.5"/>
<text text-anchor="start" x="654" y="-402.3" font-family="Helvetica,sans-Serif" font-size="14.00" fill="#000000">gini = 0.0</text>
<text text-anchor="start" x="644" y="-387.3" font-family="Helvetica,sans-Serif" font-size="14.00" fill="#000000">samples = 1</text>
<text text-anchor="start" x="642" y="-372.3" font-family="Helvetica,sans-Serif" font-size="14.00" fill="#000000">value = [1, 0]</text>
<text text-anchor="start" x="654.5" y="-357.3" font-family="Helvetica,sans-Serif" font-size="14.00" fill="#000000">class = 1</text>
</g>
<!-- 21&#45;&gt;22 -->
<g id="edge22" class="edge">
<title>21&#45;&gt;22</title>
<path fill="none" stroke="#000000" d="M759.5791,-460.8796C748.2272,-449.3337 735.9018,-436.7976 724.543,-425.2446"/>
<polygon fill="#000000" stroke="#000000" points="726.7449,-422.4919 717.2382,-417.8149 721.7534,-427.3995 726.7449,-422.4919"/>
</g>
<!-- 23 -->
<g id="node24" class="node">
<title>23</title>
<path fill="#399de5" stroke="#000000" d="M846,-417.5C846,-417.5 763,-417.5 763,-417.5 757,-417.5 751,-411.5 751,-405.5 751,-405.5 751,-361.5 751,-361.5 751,-355.5 757,-349.5 763,-349.5 763,-349.5 846,-349.5 846,-349.5 852,-349.5 858,-355.5 858,-361.5 858,-361.5 858,-405.5 858,-405.5 858,-411.5 852,-417.5 846,-417.5"/>
<text text-anchor="start" x="775" y="-402.3" font-family="Helvetica,sans-Serif" font-size="14.00" fill="#000000">gini = 0.0</text>
<text text-anchor="start" x="760.5" y="-387.3" font-family="Helvetica,sans-Serif" font-size="14.00" fill="#000000">samples = 23</text>
<text text-anchor="start" x="759" y="-372.3" font-family="Helvetica,sans-Serif" font-size="14.00" fill="#000000">value = [0, 23]</text>
<text text-anchor="start" x="775.5" y="-357.3" font-family="Helvetica,sans-Serif" font-size="14.00" fill="#000000">class = 2</text>
</g>
<!-- 21&#45;&gt;23 -->
<g id="edge23" class="edge">
<title>21&#45;&gt;23</title>
<path fill="none" stroke="#000000" d="M801.899,-460.8796C802.2575,-450.2134 802.6445,-438.7021 803.0075,-427.9015"/>
<polygon fill="#000000" stroke="#000000" points="806.5085,-427.9269 803.3466,-417.8149 799.5125,-427.6917 806.5085,-427.9269"/>
</g>
<!-- 25 -->
<g id="node26" class="node">
<title>25</title>
<path fill="#e58139" stroke="#000000" d="M972,-417.5C972,-417.5 897,-417.5 897,-417.5 891,-417.5 885,-411.5 885,-405.5 885,-405.5 885,-361.5 885,-361.5 885,-355.5 891,-349.5 897,-349.5 897,-349.5 972,-349.5 972,-349.5 978,-349.5 984,-355.5 984,-361.5 984,-361.5 984,-405.5 984,-405.5 984,-411.5 978,-417.5 972,-417.5"/>
<text text-anchor="start" x="905" y="-402.3" font-family="Helvetica,sans-Serif" font-size="14.00" fill="#000000">gini = 0.0</text>
<text text-anchor="start" x="895" y="-387.3" font-family="Helvetica,sans-Serif" font-size="14.00" fill="#000000">samples = 3</text>
<text text-anchor="start" x="893" y="-372.3" font-family="Helvetica,sans-Serif" font-size="14.00" fill="#000000">value = [3, 0]</text>
<text text-anchor="start" x="905.5" y="-357.3" font-family="Helvetica,sans-Serif" font-size="14.00" fill="#000000">class = 1</text>
</g>
<!-- 24&#45;&gt;25 -->
<g id="edge25" class="edge">
<title>24&#45;&gt;25</title>
<path fill="none" stroke="#000000" d="M937.7512,-460.8796C937.3031,-450.2134 936.8194,-438.7021 936.3656,-427.9015"/>
<polygon fill="#000000" stroke="#000000" points="939.8586,-427.6592 935.9418,-417.8149 932.8648,-427.9531 939.8586,-427.6592"/>
</g>
<!-- 26 -->
<g id="node27" class="node">
<title>26</title>
<path fill="#399de5" stroke="#000000" d="M1089,-417.5C1089,-417.5 1014,-417.5 1014,-417.5 1008,-417.5 1002,-411.5 1002,-405.5 1002,-405.5 1002,-361.5 1002,-361.5 1002,-355.5 1008,-349.5 1014,-349.5 1014,-349.5 1089,-349.5 1089,-349.5 1095,-349.5 1101,-355.5 1101,-361.5 1101,-361.5 1101,-405.5 1101,-405.5 1101,-411.5 1095,-417.5 1089,-417.5"/>
<text text-anchor="start" x="1022" y="-402.3" font-family="Helvetica,sans-Serif" font-size="14.00" fill="#000000">gini = 0.0</text>
<text text-anchor="start" x="1012" y="-387.3" font-family="Helvetica,sans-Serif" font-size="14.00" fill="#000000">samples = 3</text>
<text text-anchor="start" x="1010" y="-372.3" font-family="Helvetica,sans-Serif" font-size="14.00" fill="#000000">value = [0, 3]</text>
<text text-anchor="start" x="1022.5" y="-357.3" font-family="Helvetica,sans-Serif" font-size="14.00" fill="#000000">class = 2</text>
</g>
<!-- 24&#45;&gt;26 -->
<g id="edge26" class="edge">
<title>24&#45;&gt;26</title>
<path fill="none" stroke="#000000" d="M978.6722,-460.8796C989.5389,-449.3337 1001.3376,-436.7976 1012.2109,-425.2446"/>
<polygon fill="#000000" stroke="#000000" points="1014.8986,-427.4958 1019.2036,-417.8149 1009.8012,-422.6982 1014.8986,-427.4958"/>
</g>
</g>
</svg>
