<?xml version="1.0" encoding="UTF-8" standalone="no"?>
<!DOCTYPE svg PUBLIC "-//W3C//DTD SVG 1.1//EN"
 "http://www.w3.org/Graphics/SVG/1.1/DTD/svg11.dtd">
<!-- Generated by graphviz version 2.40.1 (20161225.0304)
 -->
<!-- Title: Tree Pages: 1 -->
<svg width="1088pt" height="1147pt"
 viewBox="0.00 0.00 1088.00 1147.00" xmlns="http://www.w3.org/2000/svg" xmlns:xlink="http://www.w3.org/1999/xlink">
<g id="graph0" class="graph" transform="scale(1 1) rotate(0) translate(4 1143)">
<title>Tree</title>
<polygon fill="#ffffff" stroke="transparent" points="-4,4 -4,-1143 1084,-1143 1084,4 -4,4"/>
<!-- 0 -->
<g id="node1" class="node">
<title>0</title>
<path fill="#fafdfe" stroke="#000000" d="M732.5,-1139C732.5,-1139 640.5,-1139 640.5,-1139 634.5,-1139 628.5,-1133 628.5,-1127 628.5,-1127 628.5,-1068 628.5,-1068 628.5,-1062 634.5,-1056 640.5,-1056 640.5,-1056 732.5,-1056 732.5,-1056 738.5,-1056 744.5,-1062 744.5,-1068 744.5,-1068 744.5,-1127 744.5,-1127 744.5,-1133 738.5,-1139 732.5,-1139"/>
<text text-anchor="start" x="637.5" y="-1123.8" font-family="Helvetica,sans-Serif" font-size="14.00" fill="#000000">Glucose ≤ 96.5</text>
<text text-anchor="start" x="644" y="-1108.8" font-family="Helvetica,sans-Serif" font-size="14.00" fill="#000000">entropy = 1.0</text>
<text text-anchor="start" x="642.5" y="-1093.8" font-family="Helvetica,sans-Serif" font-size="14.00" fill="#000000">samples = 81</text>
<text text-anchor="start" x="636.5" y="-1078.8" font-family="Helvetica,sans-Serif" font-size="14.00" fill="#000000">value = [40, 41]</text>
<text text-anchor="start" x="657.5" y="-1063.8" font-family="Helvetica,sans-Serif" font-size="14.00" fill="#000000">class = 2</text>
</g>
<!-- 1 -->
<g id="node2" class="node">
<title>1</title>
<path fill="#f0b990" stroke="#000000" d="M666,-1020C666,-1020 571,-1020 571,-1020 565,-1020 559,-1014 559,-1008 559,-1008 559,-949 559,-949 559,-943 565,-937 571,-937 571,-937 666,-937 666,-937 672,-937 678,-943 678,-949 678,-949 678,-1008 678,-1008 678,-1014 672,-1020 666,-1020"/>
<text text-anchor="start" x="567" y="-1004.8" font-family="Helvetica,sans-Serif" font-size="14.00" fill="#000000">Insulin ≤ 14.359</text>
<text text-anchor="start" x="567.5" y="-989.8" font-family="Helvetica,sans-Serif" font-size="14.00" fill="#000000">entropy = 0.889</text>
<text text-anchor="start" x="574.5" y="-974.8" font-family="Helvetica,sans-Serif" font-size="14.00" fill="#000000">samples = 49</text>
<text text-anchor="start" x="568.5" y="-959.8" font-family="Helvetica,sans-Serif" font-size="14.00" fill="#000000">value = [34, 15]</text>
<text text-anchor="start" x="589.5" y="-944.8" font-family="Helvetica,sans-Serif" font-size="14.00" fill="#000000">class = 1</text>
</g>
<!-- 0&#45;&gt;1 -->
<g id="edge1" class="edge">
<title>0&#45;&gt;1</title>
<path fill="none" stroke="#000000" d="M662.7169,-1055.8796C657.7763,-1047.2335 652.5184,-1038.0322 647.4167,-1029.1042"/>
<polygon fill="#000000" stroke="#000000" points="650.3849,-1027.244 642.3846,-1020.2981 644.3072,-1030.717 650.3849,-1027.244"/>
<text text-anchor="middle" x="635.8067" y="-1040.7172" font-family="Helvetica,sans-Serif" font-size="14.00" fill="#000000">True</text>
</g>
<!-- 26 -->
<g id="node27" class="node">
<title>26</title>
<path fill="#67b4eb" stroke="#000000" d="M802.5,-1020C802.5,-1020 708.5,-1020 708.5,-1020 702.5,-1020 696.5,-1014 696.5,-1008 696.5,-1008 696.5,-949 696.5,-949 696.5,-943 702.5,-937 708.5,-937 708.5,-937 802.5,-937 802.5,-937 808.5,-937 814.5,-943 814.5,-949 814.5,-949 814.5,-1008 814.5,-1008 814.5,-1014 808.5,-1020 802.5,-1020"/>
<text text-anchor="start" x="709.5" y="-1004.8" font-family="Helvetica,sans-Serif" font-size="14.00" fill="#000000">Leptin ≤ 6.059</text>
<text text-anchor="start" x="704.5" y="-989.8" font-family="Helvetica,sans-Serif" font-size="14.00" fill="#000000">entropy = 0.696</text>
<text text-anchor="start" x="711.5" y="-974.8" font-family="Helvetica,sans-Serif" font-size="14.00" fill="#000000">samples = 32</text>
<text text-anchor="start" x="710" y="-959.8" font-family="Helvetica,sans-Serif" font-size="14.00" fill="#000000">value = [6, 26]</text>
<text text-anchor="start" x="726.5" y="-944.8" font-family="Helvetica,sans-Serif" font-size="14.00" fill="#000000">class = 2</text>
</g>
<!-- 0&#45;&gt;26 -->
<g id="edge26" class="edge">
<title>0&#45;&gt;26</title>
<path fill="none" stroke="#000000" d="M710.6329,-1055.8796C715.6461,-1047.2335 720.9813,-1038.0322 726.1581,-1029.1042"/>
<polygon fill="#000000" stroke="#000000" points="729.2758,-1030.7047 731.2641,-1020.2981 723.2202,-1027.1934 729.2758,-1030.7047"/>
<text text-anchor="middle" x="737.6897" y="-1040.7582" font-family="Helvetica,sans-Serif" font-size="14.00" fill="#000000">False</text>
</g>
<!-- 2 -->
<g id="node3" class="node">
<title>2</title>
<path fill="#eead7f" stroke="#000000" d="M537.5,-901C537.5,-901 443.5,-901 443.5,-901 437.5,-901 431.5,-895 431.5,-889 431.5,-889 431.5,-830 431.5,-830 431.5,-824 437.5,-818 443.5,-818 443.5,-818 537.5,-818 537.5,-818 543.5,-818 549.5,-824 549.5,-830 549.5,-830 549.5,-889 549.5,-889 549.5,-895 543.5,-901 537.5,-901"/>
<text text-anchor="start" x="442.5" y="-885.8" font-family="Helvetica,sans-Serif" font-size="14.00" fill="#000000">Resistin ≤ 7.74</text>
<text text-anchor="start" x="439.5" y="-870.8" font-family="Helvetica,sans-Serif" font-size="14.00" fill="#000000">entropy = 0.828</text>
<text text-anchor="start" x="446.5" y="-855.8" font-family="Helvetica,sans-Serif" font-size="14.00" fill="#000000">samples = 46</text>
<text text-anchor="start" x="440.5" y="-840.8" font-family="Helvetica,sans-Serif" font-size="14.00" fill="#000000">value = [34, 12]</text>
<text text-anchor="start" x="461.5" y="-825.8" font-family="Helvetica,sans-Serif" font-size="14.00" fill="#000000">class = 1</text>
</g>
<!-- 1&#45;&gt;2 -->
<g id="edge2" class="edge">
<title>1&#45;&gt;2</title>
<path fill="none" stroke="#000000" d="M573.7318,-936.8796C563.7537,-927.6031 553.0881,-917.6874 542.8358,-908.1559"/>
<polygon fill="#000000" stroke="#000000" points="545.1663,-905.5436 535.4593,-901.2981 540.4,-910.6704 545.1663,-905.5436"/>
</g>
<!-- 25 -->
<g id="node26" class="node">
<title>25</title>
<path fill="#399de5" stroke="#000000" d="M657,-893.5C657,-893.5 580,-893.5 580,-893.5 574,-893.5 568,-887.5 568,-881.5 568,-881.5 568,-837.5 568,-837.5 568,-831.5 574,-825.5 580,-825.5 580,-825.5 657,-825.5 657,-825.5 663,-825.5 669,-831.5 669,-837.5 669,-837.5 669,-881.5 669,-881.5 669,-887.5 663,-893.5 657,-893.5"/>
<text text-anchor="start" x="576" y="-878.3" font-family="Helvetica,sans-Serif" font-size="14.00" fill="#000000">entropy = 0.0</text>
<text text-anchor="start" x="579" y="-863.3" font-family="Helvetica,sans-Serif" font-size="14.00" fill="#000000">samples = 3</text>
<text text-anchor="start" x="577" y="-848.3" font-family="Helvetica,sans-Serif" font-size="14.00" fill="#000000">value = [0, 3]</text>
<text text-anchor="start" x="589.5" y="-833.3" font-family="Helvetica,sans-Serif" font-size="14.00" fill="#000000">class = 2</text>
</g>
<!-- 1&#45;&gt;25 -->
<g id="edge25" class="edge">
<title>1&#45;&gt;25</title>
<path fill="none" stroke="#000000" d="M618.5,-936.8796C618.5,-926.2134 618.5,-914.7021 618.5,-903.9015"/>
<polygon fill="#000000" stroke="#000000" points="622.0001,-903.8149 618.5,-893.8149 615.0001,-903.815 622.0001,-903.8149"/>
</g>
<!-- 3 -->
<g id="node4" class="node">
<title>3</title>
<path fill="#e58139" stroke="#000000" d="M399,-774.5C399,-774.5 316,-774.5 316,-774.5 310,-774.5 304,-768.5 304,-762.5 304,-762.5 304,-718.5 304,-718.5 304,-712.5 310,-706.5 316,-706.5 316,-706.5 399,-706.5 399,-706.5 405,-706.5 411,-712.5 411,-718.5 411,-718.5 411,-762.5 411,-762.5 411,-768.5 405,-774.5 399,-774.5"/>
<text text-anchor="start" x="315" y="-759.3" font-family="Helvetica,sans-Serif" font-size="14.00" fill="#000000">entropy = 0.0</text>
<text text-anchor="start" x="313.5" y="-744.3" font-family="Helvetica,sans-Serif" font-size="14.00" fill="#000000">samples = 12</text>
<text text-anchor="start" x="312" y="-729.3" font-family="Helvetica,sans-Serif" font-size="14.00" fill="#000000">value = [12, 0]</text>
<text text-anchor="start" x="328.5" y="-714.3" font-family="Helvetica,sans-Serif" font-size="14.00" fill="#000000">class = 1</text>
</g>
<!-- 2&#45;&gt;3 -->
<g id="edge3" class="edge">
<title>2&#45;&gt;3</title>
<path fill="none" stroke="#000000" d="M443.9831,-817.8796C430.833,-806.1138 416.5337,-793.3197 403.4191,-781.5855"/>
<polygon fill="#000000" stroke="#000000" points="405.6382,-778.8746 395.852,-774.8149 400.9706,-784.0913 405.6382,-778.8746"/>
</g>
<!-- 4 -->
<g id="node5" class="node">
<title>4</title>
<path fill="#f3c6a5" stroke="#000000" d="M545.5,-782C545.5,-782 441.5,-782 441.5,-782 435.5,-782 429.5,-776 429.5,-770 429.5,-770 429.5,-711 429.5,-711 429.5,-705 435.5,-699 441.5,-699 441.5,-699 545.5,-699 545.5,-699 551.5,-699 557.5,-705 557.5,-711 557.5,-711 557.5,-770 557.5,-770 557.5,-776 551.5,-782 545.5,-782"/>
<text text-anchor="start" x="437.5" y="-766.8" font-family="Helvetica,sans-Serif" font-size="14.00" fill="#000000">MCP.1 ≤ 339.218</text>
<text text-anchor="start" x="442.5" y="-751.8" font-family="Helvetica,sans-Serif" font-size="14.00" fill="#000000">entropy = 0.937</text>
<text text-anchor="start" x="449.5" y="-736.8" font-family="Helvetica,sans-Serif" font-size="14.00" fill="#000000">samples = 34</text>
<text text-anchor="start" x="443.5" y="-721.8" font-family="Helvetica,sans-Serif" font-size="14.00" fill="#000000">value = [22, 12]</text>
<text text-anchor="start" x="464.5" y="-706.8" font-family="Helvetica,sans-Serif" font-size="14.00" fill="#000000">class = 1</text>
</g>
<!-- 2&#45;&gt;4 -->
<g id="edge4" class="edge">
<title>2&#45;&gt;4</title>
<path fill="none" stroke="#000000" d="M491.5493,-817.8796C491.7559,-809.6838 491.9751,-800.9891 492.189,-792.5013"/>
<polygon fill="#000000" stroke="#000000" points="495.693,-792.3831 492.4463,-782.2981 488.6953,-792.2067 495.693,-792.3831"/>
</g>
<!-- 5 -->
<g id="node6" class="node">
<title>5</title>
<path fill="#8ec7f0" stroke="#000000" d="M405.5,-663C405.5,-663 301.5,-663 301.5,-663 295.5,-663 289.5,-657 289.5,-651 289.5,-651 289.5,-592 289.5,-592 289.5,-586 295.5,-580 301.5,-580 301.5,-580 405.5,-580 405.5,-580 411.5,-580 417.5,-586 417.5,-592 417.5,-592 417.5,-651 417.5,-651 417.5,-657 411.5,-663 405.5,-663"/>
<text text-anchor="start" x="297.5" y="-647.8" font-family="Helvetica,sans-Serif" font-size="14.00" fill="#000000">Resistin ≤ 12.674</text>
<text text-anchor="start" x="302.5" y="-632.8" font-family="Helvetica,sans-Serif" font-size="14.00" fill="#000000">entropy = 0.881</text>
<text text-anchor="start" x="309.5" y="-617.8" font-family="Helvetica,sans-Serif" font-size="14.00" fill="#000000">samples = 10</text>
<text text-anchor="start" x="312" y="-602.8" font-family="Helvetica,sans-Serif" font-size="14.00" fill="#000000">value = [3, 7]</text>
<text text-anchor="start" x="324.5" y="-587.8" font-family="Helvetica,sans-Serif" font-size="14.00" fill="#000000">class = 2</text>
</g>
<!-- 4&#45;&gt;5 -->
<g id="edge5" class="edge">
<title>4&#45;&gt;5</title>
<path fill="none" stroke="#000000" d="M444.5348,-698.8796C433.5153,-689.513 421.7291,-679.4948 410.4158,-669.8784"/>
<polygon fill="#000000" stroke="#000000" points="412.5604,-667.1078 402.6742,-663.2981 408.0268,-672.4414 412.5604,-667.1078"/>
</g>
<!-- 12 -->
<g id="node13" class="node">
<title>12</title>
<path fill="#eca26d" stroke="#000000" d="M541.5,-663C541.5,-663 447.5,-663 447.5,-663 441.5,-663 435.5,-657 435.5,-651 435.5,-651 435.5,-592 435.5,-592 435.5,-586 441.5,-580 447.5,-580 447.5,-580 541.5,-580 541.5,-580 547.5,-580 553.5,-586 553.5,-592 553.5,-592 553.5,-651 553.5,-651 553.5,-657 547.5,-663 541.5,-663"/>
<text text-anchor="start" x="447.5" y="-647.8" font-family="Helvetica,sans-Serif" font-size="14.00" fill="#000000">Insulin ≤ 3.119</text>
<text text-anchor="start" x="443.5" y="-632.8" font-family="Helvetica,sans-Serif" font-size="14.00" fill="#000000">entropy = 0.738</text>
<text text-anchor="start" x="450.5" y="-617.8" font-family="Helvetica,sans-Serif" font-size="14.00" fill="#000000">samples = 24</text>
<text text-anchor="start" x="449" y="-602.8" font-family="Helvetica,sans-Serif" font-size="14.00" fill="#000000">value = [19, 5]</text>
<text text-anchor="start" x="465.5" y="-587.8" font-family="Helvetica,sans-Serif" font-size="14.00" fill="#000000">class = 1</text>
</g>
<!-- 4&#45;&gt;12 -->
<g id="edge12" class="edge">
<title>4&#45;&gt;12</title>
<path fill="none" stroke="#000000" d="M493.8498,-698.8796C493.9186,-690.6838 493.9917,-681.9891 494.063,-673.5013"/>
<polygon fill="#000000" stroke="#000000" points="497.5645,-673.3272 494.1488,-663.2981 490.5648,-673.2683 497.5645,-673.3272"/>
</g>
<!-- 6 -->
<g id="node7" class="node">
<title>6</title>
<path fill="#ffffff" stroke="#000000" d="M273.5,-544C273.5,-544 181.5,-544 181.5,-544 175.5,-544 169.5,-538 169.5,-532 169.5,-532 169.5,-473 169.5,-473 169.5,-467 175.5,-461 181.5,-461 181.5,-461 273.5,-461 273.5,-461 279.5,-461 285.5,-467 285.5,-473 285.5,-473 285.5,-532 285.5,-532 285.5,-538 279.5,-544 273.5,-544"/>
<text text-anchor="start" x="177.5" y="-528.8" font-family="Helvetica,sans-Serif" font-size="14.00" fill="#000000">Leptin ≤ 16.975</text>
<text text-anchor="start" x="185" y="-513.8" font-family="Helvetica,sans-Serif" font-size="14.00" fill="#000000">entropy = 1.0</text>
<text text-anchor="start" x="188" y="-498.8" font-family="Helvetica,sans-Serif" font-size="14.00" fill="#000000">samples = 6</text>
<text text-anchor="start" x="186" y="-483.8" font-family="Helvetica,sans-Serif" font-size="14.00" fill="#000000">value = [3, 3]</text>
<text text-anchor="start" x="198.5" y="-468.8" font-family="Helvetica,sans-Serif" font-size="14.00" fill="#000000">class = 1</text>
</g>
<!-- 5&#45;&gt;6 -->
<g id="edge6" class="edge">
<title>5&#45;&gt;6</title>
<path fill="none" stroke="#000000" d="M309.4313,-579.8796C299.7045,-570.6931 289.3139,-560.8798 279.3121,-551.4336"/>
<polygon fill="#000000" stroke="#000000" points="281.4301,-548.6198 271.7568,-544.2981 276.6237,-553.7089 281.4301,-548.6198"/>
</g>
<!-- 11 -->
<g id="node12" class="node">
<title>11</title>
<path fill="#399de5" stroke="#000000" d="M393,-536.5C393,-536.5 316,-536.5 316,-536.5 310,-536.5 304,-530.5 304,-524.5 304,-524.5 304,-480.5 304,-480.5 304,-474.5 310,-468.5 316,-468.5 316,-468.5 393,-468.5 393,-468.5 399,-468.5 405,-474.5 405,-480.5 405,-480.5 405,-524.5 405,-524.5 405,-530.5 399,-536.5 393,-536.5"/>
<text text-anchor="start" x="312" y="-521.3" font-family="Helvetica,sans-Serif" font-size="14.00" fill="#000000">entropy = 0.0</text>
<text text-anchor="start" x="315" y="-506.3" font-family="Helvetica,sans-Serif" font-size="14.00" fill="#000000">samples = 4</text>
<text text-anchor="start" x="313" y="-491.3" font-family="Helvetica,sans-Serif" font-size="14.00" fill="#000000">value = [0, 4]</text>
<text text-anchor="start" x="325.5" y="-476.3" font-family="Helvetica,sans-Serif" font-size="14.00" fill="#000000">class = 2</text>
</g>
<!-- 5&#45;&gt;11 -->
<g id="edge11" class="edge">
<title>5&#45;&gt;11</title>
<path fill="none" stroke="#000000" d="M353.8498,-579.8796C353.9394,-569.2134 354.0361,-557.7021 354.1269,-546.9015"/>
<polygon fill="#000000" stroke="#000000" points="357.6274,-546.844 354.2116,-536.8149 350.6276,-546.7851 357.6274,-546.844"/>
</g>
<!-- 7 -->
<g id="node8" class="node">
<title>7</title>
<path fill="#eeab7b" stroke="#000000" d="M156.5,-425C156.5,-425 62.5,-425 62.5,-425 56.5,-425 50.5,-419 50.5,-413 50.5,-413 50.5,-354 50.5,-354 50.5,-348 56.5,-342 62.5,-342 62.5,-342 156.5,-342 156.5,-342 162.5,-342 168.5,-348 168.5,-354 168.5,-354 168.5,-413 168.5,-413 168.5,-419 162.5,-425 156.5,-425"/>
<text text-anchor="start" x="62.5" y="-409.8" font-family="Helvetica,sans-Serif" font-size="14.00" fill="#000000">Insulin ≤ 3.951</text>
<text text-anchor="start" x="58.5" y="-394.8" font-family="Helvetica,sans-Serif" font-size="14.00" fill="#000000">entropy = 0.811</text>
<text text-anchor="start" x="70" y="-379.8" font-family="Helvetica,sans-Serif" font-size="14.00" fill="#000000">samples = 4</text>
<text text-anchor="start" x="68" y="-364.8" font-family="Helvetica,sans-Serif" font-size="14.00" fill="#000000">value = [3, 1]</text>
<text text-anchor="start" x="80.5" y="-349.8" font-family="Helvetica,sans-Serif" font-size="14.00" fill="#000000">class = 1</text>
</g>
<!-- 6&#45;&gt;7 -->
<g id="edge7" class="edge">
<title>6&#45;&gt;7</title>
<path fill="none" stroke="#000000" d="M186.2293,-460.8796C177.1201,-451.6931 167.3892,-441.8798 158.0224,-432.4336"/>
<polygon fill="#000000" stroke="#000000" points="160.4733,-429.9345 150.9468,-425.2981 155.5027,-434.8634 160.4733,-429.9345"/>
</g>
<!-- 10 -->
<g id="node11" class="node">
<title>10</title>
<path fill="#399de5" stroke="#000000" d="M276,-417.5C276,-417.5 199,-417.5 199,-417.5 193,-417.5 187,-411.5 187,-405.5 187,-405.5 187,-361.5 187,-361.5 187,-355.5 193,-349.5 199,-349.5 199,-349.5 276,-349.5 276,-349.5 282,-349.5 288,-355.5 288,-361.5 288,-361.5 288,-405.5 288,-405.5 288,-411.5 282,-417.5 276,-417.5"/>
<text text-anchor="start" x="195" y="-402.3" font-family="Helvetica,sans-Serif" font-size="14.00" fill="#000000">entropy = 0.0</text>
<text text-anchor="start" x="198" y="-387.3" font-family="Helvetica,sans-Serif" font-size="14.00" fill="#000000">samples = 2</text>
<text text-anchor="start" x="196" y="-372.3" font-family="Helvetica,sans-Serif" font-size="14.00" fill="#000000">value = [0, 2]</text>
<text text-anchor="start" x="208.5" y="-357.3" font-family="Helvetica,sans-Serif" font-size="14.00" fill="#000000">class = 2</text>
</g>
<!-- 6&#45;&gt;10 -->
<g id="edge10" class="edge">
<title>6&#45;&gt;10</title>
<path fill="none" stroke="#000000" d="M230.9975,-460.8796C231.8938,-450.2134 232.8612,-438.7021 233.7688,-427.9015"/>
<polygon fill="#000000" stroke="#000000" points="237.2666,-428.0729 234.6164,-417.8149 230.2912,-427.4867 237.2666,-428.0729"/>
</g>
<!-- 8 -->
<g id="node9" class="node">
<title>8</title>
<path fill="#399de5" stroke="#000000" d="M89,-298.5C89,-298.5 12,-298.5 12,-298.5 6,-298.5 0,-292.5 0,-286.5 0,-286.5 0,-242.5 0,-242.5 0,-236.5 6,-230.5 12,-230.5 12,-230.5 89,-230.5 89,-230.5 95,-230.5 101,-236.5 101,-242.5 101,-242.5 101,-286.5 101,-286.5 101,-292.5 95,-298.5 89,-298.5"/>
<text text-anchor="start" x="8" y="-283.3" font-family="Helvetica,sans-Serif" font-size="14.00" fill="#000000">entropy = 0.0</text>
<text text-anchor="start" x="11" y="-268.3" font-family="Helvetica,sans-Serif" font-size="14.00" fill="#000000">samples = 1</text>
<text text-anchor="start" x="9" y="-253.3" font-family="Helvetica,sans-Serif" font-size="14.00" fill="#000000">value = [0, 1]</text>
<text text-anchor="start" x="21.5" y="-238.3" font-family="Helvetica,sans-Serif" font-size="14.00" fill="#000000">class = 2</text>
</g>
<!-- 7&#45;&gt;8 -->
<g id="edge8" class="edge">
<title>7&#45;&gt;8</title>
<path fill="none" stroke="#000000" d="M88.8647,-341.8796C83.4128,-330.8835 77.5157,-318.9893 72.0184,-307.9015"/>
<polygon fill="#000000" stroke="#000000" points="75.0911,-306.2195 67.5133,-298.8149 68.8196,-309.3289 75.0911,-306.2195"/>
</g>
<!-- 9 -->
<g id="node10" class="node">
<title>9</title>
<path fill="#e58139" stroke="#000000" d="M208,-298.5C208,-298.5 131,-298.5 131,-298.5 125,-298.5 119,-292.5 119,-286.5 119,-286.5 119,-242.5 119,-242.5 119,-236.5 125,-230.5 131,-230.5 131,-230.5 208,-230.5 208,-230.5 214,-230.5 220,-236.5 220,-242.5 220,-242.5 220,-286.5 220,-286.5 220,-292.5 214,-298.5 208,-298.5"/>
<text text-anchor="start" x="127" y="-283.3" font-family="Helvetica,sans-Serif" font-size="14.00" fill="#000000">entropy = 0.0</text>
<text text-anchor="start" x="130" y="-268.3" font-family="Helvetica,sans-Serif" font-size="14.00" fill="#000000">samples = 3</text>
<text text-anchor="start" x="128" y="-253.3" font-family="Helvetica,sans-Serif" font-size="14.00" fill="#000000">value = [3, 0]</text>
<text text-anchor="start" x="140.5" y="-238.3" font-family="Helvetica,sans-Serif" font-size="14.00" fill="#000000">class = 1</text>
</g>
<!-- 7&#45;&gt;9 -->
<g id="edge9" class="edge">
<title>7&#45;&gt;9</title>
<path fill="none" stroke="#000000" d="M130.4851,-341.8796C136.0293,-330.8835 142.0264,-318.9893 147.6169,-307.9015"/>
<polygon fill="#000000" stroke="#000000" points="150.8214,-309.3199 152.1984,-298.8149 144.5709,-306.1684 150.8214,-309.3199"/>
</g>
<!-- 13 -->
<g id="node14" class="node">
<title>13</title>
<path fill="#7bbeee" stroke="#000000" d="M540.5,-544C540.5,-544 436.5,-544 436.5,-544 430.5,-544 424.5,-538 424.5,-532 424.5,-532 424.5,-473 424.5,-473 424.5,-467 430.5,-461 436.5,-461 436.5,-461 540.5,-461 540.5,-461 546.5,-461 552.5,-467 552.5,-473 552.5,-473 552.5,-532 552.5,-532 552.5,-538 546.5,-544 540.5,-544"/>
<text text-anchor="start" x="432.5" y="-528.8" font-family="Helvetica,sans-Serif" font-size="14.00" fill="#000000">MCP.1 ≤ 494.758</text>
<text text-anchor="start" x="437.5" y="-513.8" font-family="Helvetica,sans-Serif" font-size="14.00" fill="#000000">entropy = 0.811</text>
<text text-anchor="start" x="449" y="-498.8" font-family="Helvetica,sans-Serif" font-size="14.00" fill="#000000">samples = 4</text>
<text text-anchor="start" x="447" y="-483.8" font-family="Helvetica,sans-Serif" font-size="14.00" fill="#000000">value = [1, 3]</text>
<text text-anchor="start" x="459.5" y="-468.8" font-family="Helvetica,sans-Serif" font-size="14.00" fill="#000000">class = 2</text>
</g>
<!-- 12&#45;&gt;13 -->
<g id="edge13" class="edge">
<title>12&#45;&gt;13</title>
<path fill="none" stroke="#000000" d="M492.4015,-579.8796C491.9883,-571.6838 491.5499,-562.9891 491.1219,-554.5013"/>
<polygon fill="#000000" stroke="#000000" points="494.6067,-554.1091 490.6075,-544.2981 487.6156,-554.4617 494.6067,-554.1091"/>
</g>
<!-- 16 -->
<g id="node17" class="node">
<title>16</title>
<path fill="#e88f4f" stroke="#000000" d="M704,-544C704,-544 583,-544 583,-544 577,-544 571,-538 571,-532 571,-532 571,-473 571,-473 571,-467 577,-461 583,-461 583,-461 704,-461 704,-461 710,-461 716,-467 716,-473 716,-473 716,-532 716,-532 716,-538 710,-544 704,-544"/>
<text text-anchor="start" x="579" y="-528.8" font-family="Helvetica,sans-Serif" font-size="14.00" fill="#000000">Adiponectin ≤ 6.806</text>
<text text-anchor="start" x="592.5" y="-513.8" font-family="Helvetica,sans-Serif" font-size="14.00" fill="#000000">entropy = 0.469</text>
<text text-anchor="start" x="599.5" y="-498.8" font-family="Helvetica,sans-Serif" font-size="14.00" fill="#000000">samples = 20</text>
<text text-anchor="start" x="598" y="-483.8" font-family="Helvetica,sans-Serif" font-size="14.00" fill="#000000">value = [18, 2]</text>
<text text-anchor="start" x="614.5" y="-468.8" font-family="Helvetica,sans-Serif" font-size="14.00" fill="#000000">class = 1</text>
</g>
<!-- 12&#45;&gt;16 -->
<g id="edge16" class="edge">
<title>12&#45;&gt;16</title>
<path fill="none" stroke="#000000" d="M546.613,-579.8796C558.5225,-570.368 571.2734,-560.1843 583.4844,-550.432"/>
<polygon fill="#000000" stroke="#000000" points="585.7868,-553.0724 591.4165,-544.0969 581.4184,-547.6027 585.7868,-553.0724"/>
</g>
<!-- 14 -->
<g id="node15" class="node">
<title>14</title>
<path fill="#e58139" stroke="#000000" d="M420,-417.5C420,-417.5 343,-417.5 343,-417.5 337,-417.5 331,-411.5 331,-405.5 331,-405.5 331,-361.5 331,-361.5 331,-355.5 337,-349.5 343,-349.5 343,-349.5 420,-349.5 420,-349.5 426,-349.5 432,-355.5 432,-361.5 432,-361.5 432,-405.5 432,-405.5 432,-411.5 426,-417.5 420,-417.5"/>
<text text-anchor="start" x="339" y="-402.3" font-family="Helvetica,sans-Serif" font-size="14.00" fill="#000000">entropy = 0.0</text>
<text text-anchor="start" x="342" y="-387.3" font-family="Helvetica,sans-Serif" font-size="14.00" fill="#000000">samples = 1</text>
<text text-anchor="start" x="340" y="-372.3" font-family="Helvetica,sans-Serif" font-size="14.00" fill="#000000">value = [1, 0]</text>
<text text-anchor="start" x="352.5" y="-357.3" font-family="Helvetica,sans-Serif" font-size="14.00" fill="#000000">class = 1</text>
</g>
<!-- 13&#45;&gt;14 -->
<g id="edge14" class="edge">
<title>13&#45;&gt;14</title>
<path fill="none" stroke="#000000" d="M451.0766,-460.8796C440.7939,-449.4436 429.6377,-437.0363 419.3321,-425.575"/>
<polygon fill="#000000" stroke="#000000" points="421.6435,-422.9108 412.3546,-417.8149 416.4382,-427.5912 421.6435,-422.9108"/>
</g>
<!-- 15 -->
<g id="node16" class="node">
<title>15</title>
<path fill="#399de5" stroke="#000000" d="M539,-417.5C539,-417.5 462,-417.5 462,-417.5 456,-417.5 450,-411.5 450,-405.5 450,-405.5 450,-361.5 450,-361.5 450,-355.5 456,-349.5 462,-349.5 462,-349.5 539,-349.5 539,-349.5 545,-349.5 551,-355.5 551,-361.5 551,-361.5 551,-405.5 551,-405.5 551,-411.5 545,-417.5 539,-417.5"/>
<text text-anchor="start" x="458" y="-402.3" font-family="Helvetica,sans-Serif" font-size="14.00" fill="#000000">entropy = 0.0</text>
<text text-anchor="start" x="461" y="-387.3" font-family="Helvetica,sans-Serif" font-size="14.00" fill="#000000">samples = 3</text>
<text text-anchor="start" x="459" y="-372.3" font-family="Helvetica,sans-Serif" font-size="14.00" fill="#000000">value = [0, 3]</text>
<text text-anchor="start" x="471.5" y="-357.3" font-family="Helvetica,sans-Serif" font-size="14.00" fill="#000000">class = 2</text>
</g>
<!-- 13&#45;&gt;15 -->
<g id="edge15" class="edge">
<title>13&#45;&gt;15</title>
<path fill="none" stroke="#000000" d="M492.697,-460.8796C493.7726,-450.2134 494.9334,-438.7021 496.0225,-427.9015"/>
<polygon fill="#000000" stroke="#000000" points="499.5186,-428.1157 497.0397,-417.8149 492.5539,-427.4133 499.5186,-428.1157"/>
</g>
<!-- 17 -->
<g id="node18" class="node">
<title>17</title>
<path fill="#eca572" stroke="#000000" d="M687.5,-425C687.5,-425 593.5,-425 593.5,-425 587.5,-425 581.5,-419 581.5,-413 581.5,-413 581.5,-354 581.5,-354 581.5,-348 587.5,-342 593.5,-342 593.5,-342 687.5,-342 687.5,-342 693.5,-342 699.5,-348 699.5,-354 699.5,-354 699.5,-413 699.5,-413 699.5,-419 693.5,-425 687.5,-425"/>
<text text-anchor="start" x="591.5" y="-409.8" font-family="Helvetica,sans-Serif" font-size="14.00" fill="#000000">Glucose ≤ 85.0</text>
<text text-anchor="start" x="589.5" y="-394.8" font-family="Helvetica,sans-Serif" font-size="14.00" fill="#000000">entropy = 0.764</text>
<text text-anchor="start" x="601" y="-379.8" font-family="Helvetica,sans-Serif" font-size="14.00" fill="#000000">samples = 9</text>
<text text-anchor="start" x="599" y="-364.8" font-family="Helvetica,sans-Serif" font-size="14.00" fill="#000000">value = [7, 2]</text>
<text text-anchor="start" x="611.5" y="-349.8" font-family="Helvetica,sans-Serif" font-size="14.00" fill="#000000">class = 1</text>
</g>
<!-- 16&#45;&gt;17 -->
<g id="edge17" class="edge">
<title>16&#45;&gt;17</title>
<path fill="none" stroke="#000000" d="M642.4507,-460.8796C642.2441,-452.6838 642.0249,-443.9891 641.811,-435.5013"/>
<polygon fill="#000000" stroke="#000000" points="645.3047,-435.2067 641.5537,-425.2981 638.307,-435.3831 645.3047,-435.2067"/>
</g>
<!-- 24 -->
<g id="node25" class="node">
<title>24</title>
<path fill="#e58139" stroke="#000000" d="M813,-417.5C813,-417.5 730,-417.5 730,-417.5 724,-417.5 718,-411.5 718,-405.5 718,-405.5 718,-361.5 718,-361.5 718,-355.5 724,-349.5 730,-349.5 730,-349.5 813,-349.5 813,-349.5 819,-349.5 825,-355.5 825,-361.5 825,-361.5 825,-405.5 825,-405.5 825,-411.5 819,-417.5 813,-417.5"/>
<text text-anchor="start" x="729" y="-402.3" font-family="Helvetica,sans-Serif" font-size="14.00" fill="#000000">entropy = 0.0</text>
<text text-anchor="start" x="727.5" y="-387.3" font-family="Helvetica,sans-Serif" font-size="14.00" fill="#000000">samples = 11</text>
<text text-anchor="start" x="726" y="-372.3" font-family="Helvetica,sans-Serif" font-size="14.00" fill="#000000">value = [11, 0]</text>
<text text-anchor="start" x="742.5" y="-357.3" font-family="Helvetica,sans-Serif" font-size="14.00" fill="#000000">class = 1</text>
</g>
<!-- 16&#45;&gt;24 -->
<g id="edge24" class="edge">
<title>16&#45;&gt;24</title>
<path fill="none" stroke="#000000" d="M688.2682,-460.8796C700.8056,-449.2237 714.4284,-436.5587 726.953,-424.9148"/>
<polygon fill="#000000" stroke="#000000" points="729.6491,-427.1872 734.5898,-417.8149 724.8828,-422.0605 729.6491,-427.1872"/>
</g>
<!-- 18 -->
<g id="node19" class="node">
<title>18</title>
<path fill="#e58139" stroke="#000000" d="M617,-298.5C617,-298.5 540,-298.5 540,-298.5 534,-298.5 528,-292.5 528,-286.5 528,-286.5 528,-242.5 528,-242.5 528,-236.5 534,-230.5 540,-230.5 540,-230.5 617,-230.5 617,-230.5 623,-230.5 629,-236.5 629,-242.5 629,-242.5 629,-286.5 629,-286.5 629,-292.5 623,-298.5 617,-298.5"/>
<text text-anchor="start" x="536" y="-283.3" font-family="Helvetica,sans-Serif" font-size="14.00" fill="#000000">entropy = 0.0</text>
<text text-anchor="start" x="539" y="-268.3" font-family="Helvetica,sans-Serif" font-size="14.00" fill="#000000">samples = 5</text>
<text text-anchor="start" x="537" y="-253.3" font-family="Helvetica,sans-Serif" font-size="14.00" fill="#000000">value = [5, 0]</text>
<text text-anchor="start" x="549.5" y="-238.3" font-family="Helvetica,sans-Serif" font-size="14.00" fill="#000000">class = 1</text>
</g>
<!-- 17&#45;&gt;18 -->
<g id="edge18" class="edge">
<title>17&#45;&gt;18</title>
<path fill="none" stroke="#000000" d="M618.8154,-341.8796C613.0864,-330.8835 606.8894,-318.9893 601.1126,-307.9015"/>
<polygon fill="#000000" stroke="#000000" points="604.103,-306.0662 596.3784,-298.8149 597.895,-309.3007 604.103,-306.0662"/>
</g>
<!-- 19 -->
<g id="node20" class="node">
<title>19</title>
<path fill="#ffffff" stroke="#000000" d="M746,-306C746,-306 659,-306 659,-306 653,-306 647,-300 647,-294 647,-294 647,-235 647,-235 647,-229 653,-223 659,-223 659,-223 746,-223 746,-223 752,-223 758,-229 758,-235 758,-235 758,-294 758,-294 758,-300 752,-306 746,-306"/>
<text text-anchor="start" x="655" y="-290.8" font-family="Helvetica,sans-Serif" font-size="14.00" fill="#000000">HOMA ≤ 0.798</text>
<text text-anchor="start" x="660" y="-275.8" font-family="Helvetica,sans-Serif" font-size="14.00" fill="#000000">entropy = 1.0</text>
<text text-anchor="start" x="663" y="-260.8" font-family="Helvetica,sans-Serif" font-size="14.00" fill="#000000">samples = 4</text>
<text text-anchor="start" x="661" y="-245.8" font-family="Helvetica,sans-Serif" font-size="14.00" fill="#000000">value = [2, 2]</text>
<text text-anchor="start" x="673.5" y="-230.8" font-family="Helvetica,sans-Serif" font-size="14.00" fill="#000000">class = 1</text>
</g>
<!-- 17&#45;&gt;19 -->
<g id="edge19" class="edge">
<title>17&#45;&gt;19</title>
<path fill="none" stroke="#000000" d="M662.1846,-341.8796C666.6423,-333.3236 671.3834,-324.2238 675.9894,-315.3833"/>
<polygon fill="#000000" stroke="#000000" points="679.2062,-316.7838 680.7229,-306.2981 672.9983,-313.5494 679.2062,-316.7838"/>
</g>
<!-- 20 -->
<g id="node21" class="node">
<title>20</title>
<path fill="#399de5" stroke="#000000" d="M670,-179.5C670,-179.5 593,-179.5 593,-179.5 587,-179.5 581,-173.5 581,-167.5 581,-167.5 581,-123.5 581,-123.5 581,-117.5 587,-111.5 593,-111.5 593,-111.5 670,-111.5 670,-111.5 676,-111.5 682,-117.5 682,-123.5 682,-123.5 682,-167.5 682,-167.5 682,-173.5 676,-179.5 670,-179.5"/>
<text text-anchor="start" x="589" y="-164.3" font-family="Helvetica,sans-Serif" font-size="14.00" fill="#000000">entropy = 0.0</text>
<text text-anchor="start" x="592" y="-149.3" font-family="Helvetica,sans-Serif" font-size="14.00" fill="#000000">samples = 1</text>
<text text-anchor="start" x="590" y="-134.3" font-family="Helvetica,sans-Serif" font-size="14.00" fill="#000000">value = [0, 1]</text>
<text text-anchor="start" x="602.5" y="-119.3" font-family="Helvetica,sans-Serif" font-size="14.00" fill="#000000">class = 2</text>
</g>
<!-- 19&#45;&gt;20 -->
<g id="edge20" class="edge">
<title>19&#45;&gt;20</title>
<path fill="none" stroke="#000000" d="M677.6676,-222.8796C671.0413,-211.7735 663.8684,-199.7513 657.1967,-188.5691"/>
<polygon fill="#000000" stroke="#000000" points="660.1031,-186.6093 651.9736,-179.8149 654.0917,-190.1959 660.1031,-186.6093"/>
</g>
<!-- 21 -->
<g id="node22" class="node">
<title>21</title>
<path fill="#f2c09c" stroke="#000000" d="M833,-187C833,-187 712,-187 712,-187 706,-187 700,-181 700,-175 700,-175 700,-116 700,-116 700,-110 706,-104 712,-104 712,-104 833,-104 833,-104 839,-104 845,-110 845,-116 845,-116 845,-175 845,-175 845,-181 839,-187 833,-187"/>
<text text-anchor="start" x="708" y="-171.8" font-family="Helvetica,sans-Serif" font-size="14.00" fill="#000000">Adiponectin ≤ 5.872</text>
<text text-anchor="start" x="721.5" y="-156.8" font-family="Helvetica,sans-Serif" font-size="14.00" fill="#000000">entropy = 0.918</text>
<text text-anchor="start" x="733" y="-141.8" font-family="Helvetica,sans-Serif" font-size="14.00" fill="#000000">samples = 3</text>
<text text-anchor="start" x="731" y="-126.8" font-family="Helvetica,sans-Serif" font-size="14.00" fill="#000000">value = [2, 1]</text>
<text text-anchor="start" x="743.5" y="-111.8" font-family="Helvetica,sans-Serif" font-size="14.00" fill="#000000">class = 1</text>
</g>
<!-- 19&#45;&gt;21 -->
<g id="edge21" class="edge">
<title>19&#45;&gt;21</title>
<path fill="none" stroke="#000000" d="M726.9826,-222.8796C732.0685,-214.2335 737.4811,-205.0322 742.7328,-196.1042"/>
<polygon fill="#000000" stroke="#000000" points="745.8594,-197.692 747.9129,-187.2981 739.8259,-194.1428 745.8594,-197.692"/>
</g>
<!-- 22 -->
<g id="node23" class="node">
<title>22</title>
<path fill="#e58139" stroke="#000000" d="M752,-68C752,-68 675,-68 675,-68 669,-68 663,-62 663,-56 663,-56 663,-12 663,-12 663,-6 669,0 675,0 675,0 752,0 752,0 758,0 764,-6 764,-12 764,-12 764,-56 764,-56 764,-62 758,-68 752,-68"/>
<text text-anchor="start" x="671" y="-52.8" font-family="Helvetica,sans-Serif" font-size="14.00" fill="#000000">entropy = 0.0</text>
<text text-anchor="start" x="674" y="-37.8" font-family="Helvetica,sans-Serif" font-size="14.00" fill="#000000">samples = 2</text>
<text text-anchor="start" x="672" y="-22.8" font-family="Helvetica,sans-Serif" font-size="14.00" fill="#000000">value = [2, 0]</text>
<text text-anchor="start" x="684.5" y="-7.8" font-family="Helvetica,sans-Serif" font-size="14.00" fill="#000000">class = 1</text>
</g>
<!-- 21&#45;&gt;22 -->
<g id="edge22" class="edge">
<title>21&#45;&gt;22</title>
<path fill="none" stroke="#000000" d="M750.5306,-103.9815C745.9105,-95.2504 741.0264,-86.0202 736.374,-77.2281"/>
<polygon fill="#000000" stroke="#000000" points="739.4013,-75.4655 731.6306,-68.2637 733.2141,-78.7395 739.4013,-75.4655"/>
</g>
<!-- 23 -->
<g id="node24" class="node">
<title>23</title>
<path fill="#399de5" stroke="#000000" d="M871,-68C871,-68 794,-68 794,-68 788,-68 782,-62 782,-56 782,-56 782,-12 782,-12 782,-6 788,0 794,0 794,0 871,0 871,0 877,0 883,-6 883,-12 883,-12 883,-56 883,-56 883,-62 877,-68 871,-68"/>
<text text-anchor="start" x="790" y="-52.8" font-family="Helvetica,sans-Serif" font-size="14.00" fill="#000000">entropy = 0.0</text>
<text text-anchor="start" x="793" y="-37.8" font-family="Helvetica,sans-Serif" font-size="14.00" fill="#000000">samples = 1</text>
<text text-anchor="start" x="791" y="-22.8" font-family="Helvetica,sans-Serif" font-size="14.00" fill="#000000">value = [0, 1]</text>
<text text-anchor="start" x="803.5" y="-7.8" font-family="Helvetica,sans-Serif" font-size="14.00" fill="#000000">class = 2</text>
</g>
<!-- 21&#45;&gt;23 -->
<g id="edge23" class="edge">
<title>21&#45;&gt;23</title>
<path fill="none" stroke="#000000" d="M794.8418,-103.9815C799.5402,-95.2504 804.5071,-86.0202 809.2383,-77.2281"/>
<polygon fill="#000000" stroke="#000000" points="812.4056,-78.7282 814.0621,-68.2637 806.2414,-75.4111 812.4056,-78.7282"/>
</g>
<!-- 27 -->
<g id="node28" class="node">
<title>27</title>
<path fill="#e58139" stroke="#000000" d="M794,-893.5C794,-893.5 717,-893.5 717,-893.5 711,-893.5 705,-887.5 705,-881.5 705,-881.5 705,-837.5 705,-837.5 705,-831.5 711,-825.5 717,-825.5 717,-825.5 794,-825.5 794,-825.5 800,-825.5 806,-831.5 806,-837.5 806,-837.5 806,-881.5 806,-881.5 806,-887.5 800,-893.5 794,-893.5"/>
<text text-anchor="start" x="713" y="-878.3" font-family="Helvetica,sans-Serif" font-size="14.00" fill="#000000">entropy = 0.0</text>
<text text-anchor="start" x="716" y="-863.3" font-family="Helvetica,sans-Serif" font-size="14.00" fill="#000000">samples = 2</text>
<text text-anchor="start" x="714" y="-848.3" font-family="Helvetica,sans-Serif" font-size="14.00" fill="#000000">value = [2, 0]</text>
<text text-anchor="start" x="726.5" y="-833.3" font-family="Helvetica,sans-Serif" font-size="14.00" fill="#000000">class = 1</text>
</g>
<!-- 26&#45;&gt;27 -->
<g id="edge27" class="edge">
<title>26&#45;&gt;27</title>
<path fill="none" stroke="#000000" d="M755.5,-936.8796C755.5,-926.2134 755.5,-914.7021 755.5,-903.9015"/>
<polygon fill="#000000" stroke="#000000" points="759.0001,-903.8149 755.5,-893.8149 752.0001,-903.815 759.0001,-903.8149"/>
</g>
<!-- 28 -->
<g id="node29" class="node">
<title>28</title>
<path fill="#57ace9" stroke="#000000" d="M957,-901C957,-901 836,-901 836,-901 830,-901 824,-895 824,-889 824,-889 824,-830 824,-830 824,-824 830,-818 836,-818 836,-818 957,-818 957,-818 963,-818 969,-824 969,-830 969,-830 969,-889 969,-889 969,-895 963,-901 957,-901"/>
<text text-anchor="start" x="832" y="-885.8" font-family="Helvetica,sans-Serif" font-size="14.00" fill="#000000">Adiponectin ≤ 7.721</text>
<text text-anchor="start" x="845.5" y="-870.8" font-family="Helvetica,sans-Serif" font-size="14.00" fill="#000000">entropy = 0.567</text>
<text text-anchor="start" x="852.5" y="-855.8" font-family="Helvetica,sans-Serif" font-size="14.00" fill="#000000">samples = 30</text>
<text text-anchor="start" x="851" y="-840.8" font-family="Helvetica,sans-Serif" font-size="14.00" fill="#000000">value = [4, 26]</text>
<text text-anchor="start" x="867.5" y="-825.8" font-family="Helvetica,sans-Serif" font-size="14.00" fill="#000000">class = 2</text>
</g>
<!-- 26&#45;&gt;28 -->
<g id="edge28" class="edge">
<title>26&#45;&gt;28</title>
<path fill="none" stroke="#000000" d="M804.815,-936.8796C815.9132,-927.513 827.7835,-917.4948 839.1777,-907.8784"/>
<polygon fill="#000000" stroke="#000000" points="841.5899,-910.4225 846.9746,-901.2981 837.075,-905.0731 841.5899,-910.4225"/>
</g>
<!-- 29 -->
<g id="node30" class="node">
<title>29</title>
<path fill="#91c9f1" stroke="#000000" d="M942.5,-782C942.5,-782 850.5,-782 850.5,-782 844.5,-782 838.5,-776 838.5,-770 838.5,-770 838.5,-711 838.5,-711 838.5,-705 844.5,-699 850.5,-699 850.5,-699 942.5,-699 942.5,-699 948.5,-699 954.5,-705 954.5,-711 954.5,-711 954.5,-770 954.5,-770 954.5,-776 948.5,-782 942.5,-782"/>
<text text-anchor="start" x="846.5" y="-766.8" font-family="Helvetica,sans-Serif" font-size="14.00" fill="#000000">Leptin ≤ 64.103</text>
<text text-anchor="start" x="849.5" y="-751.8" font-family="Helvetica,sans-Serif" font-size="14.00" fill="#000000">entropy = 0.89</text>
<text text-anchor="start" x="852.5" y="-736.8" font-family="Helvetica,sans-Serif" font-size="14.00" fill="#000000">samples = 13</text>
<text text-anchor="start" x="855" y="-721.8" font-family="Helvetica,sans-Serif" font-size="14.00" fill="#000000">value = [4, 9]</text>
<text text-anchor="start" x="867.5" y="-706.8" font-family="Helvetica,sans-Serif" font-size="14.00" fill="#000000">class = 2</text>
</g>
<!-- 28&#45;&gt;29 -->
<g id="edge29" class="edge">
<title>28&#45;&gt;29</title>
<path fill="none" stroke="#000000" d="M896.5,-817.8796C896.5,-809.6838 896.5,-800.9891 896.5,-792.5013"/>
<polygon fill="#000000" stroke="#000000" points="900.0001,-792.298 896.5,-782.2981 893.0001,-792.2981 900.0001,-792.298"/>
</g>
<!-- 36 -->
<g id="node37" class="node">
<title>36</title>
<path fill="#399de5" stroke="#000000" d="M1068,-774.5C1068,-774.5 985,-774.5 985,-774.5 979,-774.5 973,-768.5 973,-762.5 973,-762.5 973,-718.5 973,-718.5 973,-712.5 979,-706.5 985,-706.5 985,-706.5 1068,-706.5 1068,-706.5 1074,-706.5 1080,-712.5 1080,-718.5 1080,-718.5 1080,-762.5 1080,-762.5 1080,-768.5 1074,-774.5 1068,-774.5"/>
<text text-anchor="start" x="984" y="-759.3" font-family="Helvetica,sans-Serif" font-size="14.00" fill="#000000">entropy = 0.0</text>
<text text-anchor="start" x="982.5" y="-744.3" font-family="Helvetica,sans-Serif" font-size="14.00" fill="#000000">samples = 17</text>
<text text-anchor="start" x="981" y="-729.3" font-family="Helvetica,sans-Serif" font-size="14.00" fill="#000000">value = [0, 17]</text>
<text text-anchor="start" x="997.5" y="-714.3" font-family="Helvetica,sans-Serif" font-size="14.00" fill="#000000">class = 2</text>
</g>
<!-- 28&#45;&gt;36 -->
<g id="edge36" class="edge">
<title>28&#45;&gt;36</title>
<path fill="none" stroke="#000000" d="M941.9677,-817.8796C954.8211,-806.1138 968.7979,-793.3197 981.6166,-781.5855"/>
<polygon fill="#000000" stroke="#000000" points="984.0001,-784.1488 989.0131,-774.8149 979.2736,-778.9854 984.0001,-784.1488"/>
</g>
<!-- 30 -->
<g id="node31" class="node">
<title>30</title>
<path fill="#65b3eb" stroke="#000000" d="M946.5,-663C946.5,-663 842.5,-663 842.5,-663 836.5,-663 830.5,-657 830.5,-651 830.5,-651 830.5,-592 830.5,-592 830.5,-586 836.5,-580 842.5,-580 842.5,-580 946.5,-580 946.5,-580 952.5,-580 958.5,-586 958.5,-592 958.5,-592 958.5,-651 958.5,-651 958.5,-657 952.5,-663 946.5,-663"/>
<text text-anchor="start" x="838.5" y="-647.8" font-family="Helvetica,sans-Serif" font-size="14.00" fill="#000000">Resistin ≤ 13.741</text>
<text text-anchor="start" x="843.5" y="-632.8" font-family="Helvetica,sans-Serif" font-size="14.00" fill="#000000">entropy = 0.684</text>
<text text-anchor="start" x="850.5" y="-617.8" font-family="Helvetica,sans-Serif" font-size="14.00" fill="#000000">samples = 11</text>
<text text-anchor="start" x="853" y="-602.8" font-family="Helvetica,sans-Serif" font-size="14.00" fill="#000000">value = [2, 9]</text>
<text text-anchor="start" x="865.5" y="-587.8" font-family="Helvetica,sans-Serif" font-size="14.00" fill="#000000">class = 2</text>
</g>
<!-- 29&#45;&gt;30 -->
<g id="edge30" class="edge">
<title>29&#45;&gt;30</title>
<path fill="none" stroke="#000000" d="M895.8005,-698.8796C895.6628,-690.6838 895.5166,-681.9891 895.374,-673.5013"/>
<polygon fill="#000000" stroke="#000000" points="898.8701,-673.2378 895.2025,-663.2981 891.8711,-673.3555 898.8701,-673.2378"/>
</g>
<!-- 35 -->
<g id="node36" class="node">
<title>35</title>
<path fill="#e58139" stroke="#000000" d="M1066,-655.5C1066,-655.5 989,-655.5 989,-655.5 983,-655.5 977,-649.5 977,-643.5 977,-643.5 977,-599.5 977,-599.5 977,-593.5 983,-587.5 989,-587.5 989,-587.5 1066,-587.5 1066,-587.5 1072,-587.5 1078,-593.5 1078,-599.5 1078,-599.5 1078,-643.5 1078,-643.5 1078,-649.5 1072,-655.5 1066,-655.5"/>
<text text-anchor="start" x="985" y="-640.3" font-family="Helvetica,sans-Serif" font-size="14.00" fill="#000000">entropy = 0.0</text>
<text text-anchor="start" x="988" y="-625.3" font-family="Helvetica,sans-Serif" font-size="14.00" fill="#000000">samples = 2</text>
<text text-anchor="start" x="986" y="-610.3" font-family="Helvetica,sans-Serif" font-size="14.00" fill="#000000">value = [2, 0]</text>
<text text-anchor="start" x="998.5" y="-595.3" font-family="Helvetica,sans-Serif" font-size="14.00" fill="#000000">class = 1</text>
</g>
<!-- 29&#45;&gt;35 -->
<g id="edge35" class="edge">
<title>29&#45;&gt;35</title>
<path fill="none" stroke="#000000" d="M942.3174,-698.8796C955.2697,-687.1138 969.354,-674.3197 982.2714,-662.5855"/>
<polygon fill="#000000" stroke="#000000" points="984.6761,-665.1296 989.7247,-655.8149 979.9694,-659.9482 984.6761,-665.1296"/>
</g>
<!-- 31 -->
<g id="node32" class="node">
<title>31</title>
<path fill="#ffffff" stroke="#000000" d="M941.5,-544C941.5,-544 845.5,-544 845.5,-544 839.5,-544 833.5,-538 833.5,-532 833.5,-532 833.5,-473 833.5,-473 833.5,-467 839.5,-461 845.5,-461 845.5,-461 941.5,-461 941.5,-461 947.5,-461 953.5,-467 953.5,-473 953.5,-473 953.5,-532 953.5,-532 953.5,-538 947.5,-544 941.5,-544"/>
<text text-anchor="start" x="841.5" y="-528.8" font-family="Helvetica,sans-Serif" font-size="14.00" fill="#000000">Resistin ≤ 8.349</text>
<text text-anchor="start" x="851" y="-513.8" font-family="Helvetica,sans-Serif" font-size="14.00" fill="#000000">entropy = 1.0</text>
<text text-anchor="start" x="854" y="-498.8" font-family="Helvetica,sans-Serif" font-size="14.00" fill="#000000">samples = 4</text>
<text text-anchor="start" x="852" y="-483.8" font-family="Helvetica,sans-Serif" font-size="14.00" fill="#000000">value = [2, 2]</text>
<text text-anchor="start" x="864.5" y="-468.8" font-family="Helvetica,sans-Serif" font-size="14.00" fill="#000000">class = 1</text>
</g>
<!-- 30&#45;&gt;31 -->
<g id="edge31" class="edge">
<title>30&#45;&gt;31</title>
<path fill="none" stroke="#000000" d="M894.1502,-579.8796C894.0814,-571.6838 894.0083,-562.9891 893.937,-554.5013"/>
<polygon fill="#000000" stroke="#000000" points="897.4352,-554.2683 893.8512,-544.2981 890.4355,-554.3272 897.4352,-554.2683"/>
</g>
<!-- 34 -->
<g id="node35" class="node">
<title>34</title>
<path fill="#399de5" stroke="#000000" d="M1061,-536.5C1061,-536.5 984,-536.5 984,-536.5 978,-536.5 972,-530.5 972,-524.5 972,-524.5 972,-480.5 972,-480.5 972,-474.5 978,-468.5 984,-468.5 984,-468.5 1061,-468.5 1061,-468.5 1067,-468.5 1073,-474.5 1073,-480.5 1073,-480.5 1073,-524.5 1073,-524.5 1073,-530.5 1067,-536.5 1061,-536.5"/>
<text text-anchor="start" x="980" y="-521.3" font-family="Helvetica,sans-Serif" font-size="14.00" fill="#000000">entropy = 0.0</text>
<text text-anchor="start" x="983" y="-506.3" font-family="Helvetica,sans-Serif" font-size="14.00" fill="#000000">samples = 7</text>
<text text-anchor="start" x="981" y="-491.3" font-family="Helvetica,sans-Serif" font-size="14.00" fill="#000000">value = [0, 7]</text>
<text text-anchor="start" x="993.5" y="-476.3" font-family="Helvetica,sans-Serif" font-size="14.00" fill="#000000">class = 2</text>
</g>
<!-- 30&#45;&gt;34 -->
<g id="edge34" class="edge">
<title>30&#45;&gt;34</title>
<path fill="none" stroke="#000000" d="M939.2682,-579.8796C951.8056,-568.2237 965.4284,-555.5587 977.953,-543.9148"/>
<polygon fill="#000000" stroke="#000000" points="980.6491,-546.1872 985.5898,-536.8149 975.8828,-541.0605 980.6491,-546.1872"/>
</g>
<!-- 32 -->
<g id="node33" class="node">
<title>32</title>
<path fill="#399de5" stroke="#000000" d="M932,-417.5C932,-417.5 855,-417.5 855,-417.5 849,-417.5 843,-411.5 843,-405.5 843,-405.5 843,-361.5 843,-361.5 843,-355.5 849,-349.5 855,-349.5 855,-349.5 932,-349.5 932,-349.5 938,-349.5 944,-355.5 944,-361.5 944,-361.5 944,-405.5 944,-405.5 944,-411.5 938,-417.5 932,-417.5"/>
<text text-anchor="start" x="851" y="-402.3" font-family="Helvetica,sans-Serif" font-size="14.00" fill="#000000">entropy = 0.0</text>
<text text-anchor="start" x="854" y="-387.3" font-family="Helvetica,sans-Serif" font-size="14.00" fill="#000000">samples = 2</text>
<text text-anchor="start" x="852" y="-372.3" font-family="Helvetica,sans-Serif" font-size="14.00" fill="#000000">value = [0, 2]</text>
<text text-anchor="start" x="864.5" y="-357.3" font-family="Helvetica,sans-Serif" font-size="14.00" fill="#000000">class = 2</text>
</g>
<!-- 31&#45;&gt;32 -->
<g id="edge32" class="edge">
<title>31&#45;&gt;32</title>
<path fill="none" stroke="#000000" d="M893.5,-460.8796C893.5,-450.2134 893.5,-438.7021 893.5,-427.9015"/>
<polygon fill="#000000" stroke="#000000" points="897.0001,-427.8149 893.5,-417.8149 890.0001,-427.815 897.0001,-427.8149"/>
</g>
<!-- 33 -->
<g id="node34" class="node">
<title>33</title>
<path fill="#e58139" stroke="#000000" d="M1051,-417.5C1051,-417.5 974,-417.5 974,-417.5 968,-417.5 962,-411.5 962,-405.5 962,-405.5 962,-361.5 962,-361.5 962,-355.5 968,-349.5 974,-349.5 974,-349.5 1051,-349.5 1051,-349.5 1057,-349.5 1063,-355.5 1063,-361.5 1063,-361.5 1063,-405.5 1063,-405.5 1063,-411.5 1057,-417.5 1051,-417.5"/>
<text text-anchor="start" x="970" y="-402.3" font-family="Helvetica,sans-Serif" font-size="14.00" fill="#000000">entropy = 0.0</text>
<text text-anchor="start" x="973" y="-387.3" font-family="Helvetica,sans-Serif" font-size="14.00" fill="#000000">samples = 2</text>
<text text-anchor="start" x="971" y="-372.3" font-family="Helvetica,sans-Serif" font-size="14.00" fill="#000000">value = [2, 0]</text>
<text text-anchor="start" x="983.5" y="-357.3" font-family="Helvetica,sans-Serif" font-size="14.00" fill="#000000">class = 1</text>
</g>
<!-- 31&#45;&gt;33 -->
<g id="edge33" class="edge">
<title>31&#45;&gt;33</title>
<path fill="none" stroke="#000000" d="M935.1204,-460.8796C946.7763,-449.2237 959.4413,-436.5587 971.0852,-424.9148"/>
<polygon fill="#000000" stroke="#000000" points="973.5889,-427.3609 978.1851,-417.8149 968.6391,-422.4111 973.5889,-427.3609"/>
</g>
</g>
</svg>
