<?xml version="1.0" encoding="UTF-8" standalone="no"?>
<!DOCTYPE svg PUBLIC "-//W3C//DTD SVG 1.1//EN"
 "http://www.w3.org/Graphics/SVG/1.1/DTD/svg11.dtd">
<!-- Generated by graphviz version 2.40.1 (20161225.0304)
 -->
<!-- Title: Tree Pages: 1 -->
<svg width="1101pt" height="909pt"
 viewBox="0.00 0.00 1101.00 909.00" xmlns="http://www.w3.org/2000/svg" xmlns:xlink="http://www.w3.org/1999/xlink">
<g id="graph0" class="graph" transform="scale(1 1) rotate(0) translate(4 905)">
<title>Tree</title>
<polygon fill="#ffffff" stroke="transparent" points="-4,4 -4,-905 1097,-905 1097,4 -4,4"/>
<!-- 0 -->
<g id="node1" class="node">
<title>0</title>
<path fill="#fafdfe" stroke="#000000" d="M657.5,-901C657.5,-901 565.5,-901 565.5,-901 559.5,-901 553.5,-895 553.5,-889 553.5,-889 553.5,-830 553.5,-830 553.5,-824 559.5,-818 565.5,-818 565.5,-818 657.5,-818 657.5,-818 663.5,-818 669.5,-824 669.5,-830 669.5,-830 669.5,-889 669.5,-889 669.5,-895 663.5,-901 657.5,-901"/>
<text text-anchor="start" x="562.5" y="-885.8" font-family="Helvetica,sans-Serif" font-size="14.00" fill="#000000">Glucose ≤ 96.5</text>
<text text-anchor="start" x="582" y="-870.8" font-family="Helvetica,sans-Serif" font-size="14.00" fill="#000000">gini = 0.5</text>
<text text-anchor="start" x="567.5" y="-855.8" font-family="Helvetica,sans-Serif" font-size="14.00" fill="#000000">samples = 81</text>
<text text-anchor="start" x="561.5" y="-840.8" font-family="Helvetica,sans-Serif" font-size="14.00" fill="#000000">value = [40, 41]</text>
<text text-anchor="start" x="582.5" y="-825.8" font-family="Helvetica,sans-Serif" font-size="14.00" fill="#000000">class = 2</text>
</g>
<!-- 1 -->
<g id="node2" class="node">
<title>1</title>
<path fill="#f0b990" stroke="#000000" d="M595.5,-782C595.5,-782 491.5,-782 491.5,-782 485.5,-782 479.5,-776 479.5,-770 479.5,-770 479.5,-711 479.5,-711 479.5,-705 485.5,-699 491.5,-699 491.5,-699 595.5,-699 595.5,-699 601.5,-699 607.5,-705 607.5,-711 607.5,-711 607.5,-770 607.5,-770 607.5,-776 601.5,-782 595.5,-782"/>
<text text-anchor="start" x="487.5" y="-766.8" font-family="Helvetica,sans-Serif" font-size="14.00" fill="#000000">Resistin ≤ 13.248</text>
<text text-anchor="start" x="505.5" y="-751.8" font-family="Helvetica,sans-Serif" font-size="14.00" fill="#000000">gini = 0.425</text>
<text text-anchor="start" x="499.5" y="-736.8" font-family="Helvetica,sans-Serif" font-size="14.00" fill="#000000">samples = 49</text>
<text text-anchor="start" x="493.5" y="-721.8" font-family="Helvetica,sans-Serif" font-size="14.00" fill="#000000">value = [34, 15]</text>
<text text-anchor="start" x="514.5" y="-706.8" font-family="Helvetica,sans-Serif" font-size="14.00" fill="#000000">class = 1</text>
</g>
<!-- 0&#45;&gt;1 -->
<g id="edge1" class="edge">
<title>0&#45;&gt;1</title>
<path fill="none" stroke="#000000" d="M587.7169,-817.8796C582.7763,-809.2335 577.5184,-800.0322 572.4167,-791.1042"/>
<polygon fill="#000000" stroke="#000000" points="575.3849,-789.244 567.3846,-782.2981 569.3072,-792.717 575.3849,-789.244"/>
<text text-anchor="middle" x="560.8067" y="-802.7172" font-family="Helvetica,sans-Serif" font-size="14.00" fill="#000000">True</text>
</g>
<!-- 18 -->
<g id="node19" class="node">
<title>18</title>
<path fill="#67b4eb" stroke="#000000" d="M721.5,-782C721.5,-782 637.5,-782 637.5,-782 631.5,-782 625.5,-776 625.5,-770 625.5,-770 625.5,-711 625.5,-711 625.5,-705 631.5,-699 637.5,-699 637.5,-699 721.5,-699 721.5,-699 727.5,-699 733.5,-705 733.5,-711 733.5,-711 733.5,-770 733.5,-770 733.5,-776 727.5,-782 721.5,-782"/>
<text text-anchor="start" x="633.5" y="-766.8" font-family="Helvetica,sans-Serif" font-size="14.00" fill="#000000">Leptin ≤ 6.059</text>
<text text-anchor="start" x="641.5" y="-751.8" font-family="Helvetica,sans-Serif" font-size="14.00" fill="#000000">gini = 0.305</text>
<text text-anchor="start" x="635.5" y="-736.8" font-family="Helvetica,sans-Serif" font-size="14.00" fill="#000000">samples = 32</text>
<text text-anchor="start" x="634" y="-721.8" font-family="Helvetica,sans-Serif" font-size="14.00" fill="#000000">value = [6, 26]</text>
<text text-anchor="start" x="650.5" y="-706.8" font-family="Helvetica,sans-Serif" font-size="14.00" fill="#000000">class = 2</text>
</g>
<!-- 0&#45;&gt;18 -->
<g id="edge18" class="edge">
<title>0&#45;&gt;18</title>
<path fill="none" stroke="#000000" d="M635.2831,-817.8796C640.2237,-809.2335 645.4816,-800.0322 650.5833,-791.1042"/>
<polygon fill="#000000" stroke="#000000" points="653.6928,-792.717 655.6154,-782.2981 647.6151,-789.244 653.6928,-792.717"/>
<text text-anchor="middle" x="662.1933" y="-802.7172" font-family="Helvetica,sans-Serif" font-size="14.00" fill="#000000">False</text>
</g>
<!-- 2 -->
<g id="node3" class="node">
<title>2</title>
<path fill="#eb9d65" stroke="#000000" d="M464,-663C464,-663 369,-663 369,-663 363,-663 357,-657 357,-651 357,-651 357,-592 357,-592 357,-586 363,-580 369,-580 369,-580 464,-580 464,-580 470,-580 476,-586 476,-592 476,-592 476,-651 476,-651 476,-657 470,-663 464,-663"/>
<text text-anchor="start" x="365" y="-647.8" font-family="Helvetica,sans-Serif" font-size="14.00" fill="#000000">Insulin ≤ 15.352</text>
<text text-anchor="start" x="378.5" y="-632.8" font-family="Helvetica,sans-Serif" font-size="14.00" fill="#000000">gini = 0.298</text>
<text text-anchor="start" x="372.5" y="-617.8" font-family="Helvetica,sans-Serif" font-size="14.00" fill="#000000">samples = 33</text>
<text text-anchor="start" x="371" y="-602.8" font-family="Helvetica,sans-Serif" font-size="14.00" fill="#000000">value = [27, 6]</text>
<text text-anchor="start" x="387.5" y="-587.8" font-family="Helvetica,sans-Serif" font-size="14.00" fill="#000000">class = 1</text>
</g>
<!-- 1&#45;&gt;2 -->
<g id="edge2" class="edge">
<title>1&#45;&gt;2</title>
<path fill="none" stroke="#000000" d="M499.0816,-698.8796C489.1814,-689.6031 478.5991,-679.6874 468.4269,-670.1559"/>
<polygon fill="#000000" stroke="#000000" points="470.7984,-667.5816 461.108,-663.2981 466.0121,-672.6896 470.7984,-667.5816"/>
</g>
<!-- 15 -->
<g id="node16" class="node">
<title>15</title>
<path fill="#d3e9f9" stroke="#000000" d="M586.5,-663C586.5,-663 506.5,-663 506.5,-663 500.5,-663 494.5,-657 494.5,-651 494.5,-651 494.5,-592 494.5,-592 494.5,-586 500.5,-580 506.5,-580 506.5,-580 586.5,-580 586.5,-580 592.5,-580 598.5,-586 598.5,-592 598.5,-592 598.5,-651 598.5,-651 598.5,-657 592.5,-663 586.5,-663"/>
<text text-anchor="start" x="503.5" y="-647.8" font-family="Helvetica,sans-Serif" font-size="14.00" fill="#000000">BMI ≤ 29.972</text>
<text text-anchor="start" x="508.5" y="-632.8" font-family="Helvetica,sans-Serif" font-size="14.00" fill="#000000">gini = 0.492</text>
<text text-anchor="start" x="502.5" y="-617.8" font-family="Helvetica,sans-Serif" font-size="14.00" fill="#000000">samples = 16</text>
<text text-anchor="start" x="505" y="-602.8" font-family="Helvetica,sans-Serif" font-size="14.00" fill="#000000">value = [7, 9]</text>
<text text-anchor="start" x="517.5" y="-587.8" font-family="Helvetica,sans-Serif" font-size="14.00" fill="#000000">class = 2</text>
</g>
<!-- 1&#45;&gt;15 -->
<g id="edge15" class="edge">
<title>1&#45;&gt;15</title>
<path fill="none" stroke="#000000" d="M544.5493,-698.8796C544.7559,-690.6838 544.9751,-681.9891 545.189,-673.5013"/>
<polygon fill="#000000" stroke="#000000" points="548.693,-673.3831 545.4463,-663.2981 541.6953,-673.2067 548.693,-673.3831"/>
</g>
<!-- 3 -->
<g id="node4" class="node">
<title>3</title>
<path fill="#e99456" stroke="#000000" d="M340.5,-544C340.5,-544 256.5,-544 256.5,-544 250.5,-544 244.5,-538 244.5,-532 244.5,-532 244.5,-473 244.5,-473 244.5,-467 250.5,-461 256.5,-461 256.5,-461 340.5,-461 340.5,-461 346.5,-461 352.5,-467 352.5,-473 352.5,-473 352.5,-532 352.5,-532 352.5,-538 346.5,-544 340.5,-544"/>
<text text-anchor="start" x="252.5" y="-528.8" font-family="Helvetica,sans-Serif" font-size="14.00" fill="#000000">Leptin ≤ 47.33</text>
<text text-anchor="start" x="260.5" y="-513.8" font-family="Helvetica,sans-Serif" font-size="14.00" fill="#000000">gini = 0.225</text>
<text text-anchor="start" x="254.5" y="-498.8" font-family="Helvetica,sans-Serif" font-size="14.00" fill="#000000">samples = 31</text>
<text text-anchor="start" x="253" y="-483.8" font-family="Helvetica,sans-Serif" font-size="14.00" fill="#000000">value = [27, 4]</text>
<text text-anchor="start" x="269.5" y="-468.8" font-family="Helvetica,sans-Serif" font-size="14.00" fill="#000000">class = 1</text>
</g>
<!-- 2&#45;&gt;3 -->
<g id="edge3" class="edge">
<title>2&#45;&gt;3</title>
<path fill="none" stroke="#000000" d="M375.2293,-579.8796C366.1201,-570.6931 356.3892,-560.8798 347.0224,-551.4336"/>
<polygon fill="#000000" stroke="#000000" points="349.4733,-548.9345 339.9468,-544.2981 344.5027,-553.8634 349.4733,-548.9345"/>
</g>
<!-- 14 -->
<g id="node15" class="node">
<title>14</title>
<path fill="#399de5" stroke="#000000" d="M458,-536.5C458,-536.5 383,-536.5 383,-536.5 377,-536.5 371,-530.5 371,-524.5 371,-524.5 371,-480.5 371,-480.5 371,-474.5 377,-468.5 383,-468.5 383,-468.5 458,-468.5 458,-468.5 464,-468.5 470,-474.5 470,-480.5 470,-480.5 470,-524.5 470,-524.5 470,-530.5 464,-536.5 458,-536.5"/>
<text text-anchor="start" x="391" y="-521.3" font-family="Helvetica,sans-Serif" font-size="14.00" fill="#000000">gini = 0.0</text>
<text text-anchor="start" x="381" y="-506.3" font-family="Helvetica,sans-Serif" font-size="14.00" fill="#000000">samples = 2</text>
<text text-anchor="start" x="379" y="-491.3" font-family="Helvetica,sans-Serif" font-size="14.00" fill="#000000">value = [0, 2]</text>
<text text-anchor="start" x="391.5" y="-476.3" font-family="Helvetica,sans-Serif" font-size="14.00" fill="#000000">class = 2</text>
</g>
<!-- 2&#45;&gt;14 -->
<g id="edge14" class="edge">
<title>2&#45;&gt;14</title>
<path fill="none" stroke="#000000" d="M417.899,-579.8796C418.2575,-569.2134 418.6445,-557.7021 419.0075,-546.9015"/>
<polygon fill="#000000" stroke="#000000" points="422.5085,-546.9269 419.3466,-536.8149 415.5125,-546.6917 422.5085,-546.9269"/>
</g>
<!-- 4 -->
<g id="node5" class="node">
<title>4</title>
<path fill="#e88f4f" stroke="#000000" d="M284.5,-425C284.5,-425 180.5,-425 180.5,-425 174.5,-425 168.5,-419 168.5,-413 168.5,-413 168.5,-354 168.5,-354 168.5,-348 174.5,-342 180.5,-342 180.5,-342 284.5,-342 284.5,-342 290.5,-342 296.5,-348 296.5,-354 296.5,-354 296.5,-413 296.5,-413 296.5,-419 290.5,-425 284.5,-425"/>
<text text-anchor="start" x="176.5" y="-409.8" font-family="Helvetica,sans-Serif" font-size="14.00" fill="#000000">MCP.1 ≤ 209.469</text>
<text text-anchor="start" x="199" y="-394.8" font-family="Helvetica,sans-Serif" font-size="14.00" fill="#000000">gini = 0.18</text>
<text text-anchor="start" x="188.5" y="-379.8" font-family="Helvetica,sans-Serif" font-size="14.00" fill="#000000">samples = 30</text>
<text text-anchor="start" x="187" y="-364.8" font-family="Helvetica,sans-Serif" font-size="14.00" fill="#000000">value = [27, 3]</text>
<text text-anchor="start" x="203.5" y="-349.8" font-family="Helvetica,sans-Serif" font-size="14.00" fill="#000000">class = 1</text>
</g>
<!-- 3&#45;&gt;4 -->
<g id="edge4" class="edge">
<title>3&#45;&gt;4</title>
<path fill="none" stroke="#000000" d="M275.4164,-460.8796C270.6211,-452.2335 265.5178,-443.0322 260.5662,-434.1042"/>
<polygon fill="#000000" stroke="#000000" points="263.5931,-432.3455 255.6821,-425.2981 257.4716,-435.7407 263.5931,-432.3455"/>
</g>
<!-- 13 -->
<g id="node14" class="node">
<title>13</title>
<path fill="#399de5" stroke="#000000" d="M402,-417.5C402,-417.5 327,-417.5 327,-417.5 321,-417.5 315,-411.5 315,-405.5 315,-405.5 315,-361.5 315,-361.5 315,-355.5 321,-349.5 327,-349.5 327,-349.5 402,-349.5 402,-349.5 408,-349.5 414,-355.5 414,-361.5 414,-361.5 414,-405.5 414,-405.5 414,-411.5 408,-417.5 402,-417.5"/>
<text text-anchor="start" x="335" y="-402.3" font-family="Helvetica,sans-Serif" font-size="14.00" fill="#000000">gini = 0.0</text>
<text text-anchor="start" x="325" y="-387.3" font-family="Helvetica,sans-Serif" font-size="14.00" fill="#000000">samples = 1</text>
<text text-anchor="start" x="323" y="-372.3" font-family="Helvetica,sans-Serif" font-size="14.00" fill="#000000">value = [0, 1]</text>
<text text-anchor="start" x="335.5" y="-357.3" font-family="Helvetica,sans-Serif" font-size="14.00" fill="#000000">class = 2</text>
</g>
<!-- 3&#45;&gt;13 -->
<g id="edge13" class="edge">
<title>3&#45;&gt;13</title>
<path fill="none" stroke="#000000" d="M321.5836,-460.8796C327.7433,-449.7735 334.4111,-437.7513 340.6129,-426.5691"/>
<polygon fill="#000000" stroke="#000000" points="343.6787,-428.2576 345.4682,-417.8149 337.5572,-424.8624 343.6787,-428.2576"/>
</g>
<!-- 5 -->
<g id="node6" class="node">
<title>5</title>
<path fill="#f2c09c" stroke="#000000" d="M203.5,-306C203.5,-306 113.5,-306 113.5,-306 107.5,-306 101.5,-300 101.5,-294 101.5,-294 101.5,-235 101.5,-235 101.5,-229 107.5,-223 113.5,-223 113.5,-223 203.5,-223 203.5,-223 209.5,-223 215.5,-229 215.5,-235 215.5,-235 215.5,-294 215.5,-294 215.5,-300 209.5,-306 203.5,-306"/>
<text text-anchor="start" x="109.5" y="-290.8" font-family="Helvetica,sans-Serif" font-size="14.00" fill="#000000">Glucose ≤ 89.0</text>
<text text-anchor="start" x="120.5" y="-275.8" font-family="Helvetica,sans-Serif" font-size="14.00" fill="#000000">gini = 0.444</text>
<text text-anchor="start" x="119" y="-260.8" font-family="Helvetica,sans-Serif" font-size="14.00" fill="#000000">samples = 6</text>
<text text-anchor="start" x="117" y="-245.8" font-family="Helvetica,sans-Serif" font-size="14.00" fill="#000000">value = [4, 2]</text>
<text text-anchor="start" x="129.5" y="-230.8" font-family="Helvetica,sans-Serif" font-size="14.00" fill="#000000">class = 1</text>
</g>
<!-- 4&#45;&gt;5 -->
<g id="edge5" class="edge">
<title>4&#45;&gt;5</title>
<path fill="none" stroke="#000000" d="M206.6184,-341.8796C201.1858,-333.1434 195.4008,-323.8404 189.7947,-314.8253"/>
<polygon fill="#000000" stroke="#000000" points="192.7451,-312.9418 184.4921,-306.2981 186.8007,-316.6383 192.7451,-312.9418"/>
</g>
<!-- 8 -->
<g id="node9" class="node">
<title>8</title>
<path fill="#e68642" stroke="#000000" d="M367,-306C367,-306 246,-306 246,-306 240,-306 234,-300 234,-294 234,-294 234,-235 234,-235 234,-229 240,-223 246,-223 246,-223 367,-223 367,-223 373,-223 379,-229 379,-235 379,-235 379,-294 379,-294 379,-300 373,-306 367,-306"/>
<text text-anchor="start" x="242" y="-290.8" font-family="Helvetica,sans-Serif" font-size="14.00" fill="#000000">Adiponectin ≤ 3.986</text>
<text text-anchor="start" x="273" y="-275.8" font-family="Helvetica,sans-Serif" font-size="14.00" fill="#000000">gini = 0.08</text>
<text text-anchor="start" x="262.5" y="-260.8" font-family="Helvetica,sans-Serif" font-size="14.00" fill="#000000">samples = 24</text>
<text text-anchor="start" x="261" y="-245.8" font-family="Helvetica,sans-Serif" font-size="14.00" fill="#000000">value = [23, 1]</text>
<text text-anchor="start" x="277.5" y="-230.8" font-family="Helvetica,sans-Serif" font-size="14.00" fill="#000000">class = 1</text>
</g>
<!-- 4&#45;&gt;8 -->
<g id="edge8" class="edge">
<title>4&#45;&gt;8</title>
<path fill="none" stroke="#000000" d="M258.3816,-341.8796C263.8142,-333.1434 269.5992,-323.8404 275.2053,-314.8253"/>
<polygon fill="#000000" stroke="#000000" points="278.1993,-316.6383 280.5079,-306.2981 272.2549,-312.9418 278.1993,-316.6383"/>
</g>
<!-- 6 -->
<g id="node7" class="node">
<title>6</title>
<path fill="#e58139" stroke="#000000" d="M87,-179.5C87,-179.5 12,-179.5 12,-179.5 6,-179.5 0,-173.5 0,-167.5 0,-167.5 0,-123.5 0,-123.5 0,-117.5 6,-111.5 12,-111.5 12,-111.5 87,-111.5 87,-111.5 93,-111.5 99,-117.5 99,-123.5 99,-123.5 99,-167.5 99,-167.5 99,-173.5 93,-179.5 87,-179.5"/>
<text text-anchor="start" x="20" y="-164.3" font-family="Helvetica,sans-Serif" font-size="14.00" fill="#000000">gini = 0.0</text>
<text text-anchor="start" x="10" y="-149.3" font-family="Helvetica,sans-Serif" font-size="14.00" fill="#000000">samples = 4</text>
<text text-anchor="start" x="8" y="-134.3" font-family="Helvetica,sans-Serif" font-size="14.00" fill="#000000">value = [4, 0]</text>
<text text-anchor="start" x="20.5" y="-119.3" font-family="Helvetica,sans-Serif" font-size="14.00" fill="#000000">class = 1</text>
</g>
<!-- 5&#45;&gt;6 -->
<g id="edge6" class="edge">
<title>5&#45;&gt;6</title>
<path fill="none" stroke="#000000" d="M120.3771,-222.8796C109.8014,-211.3337 98.3188,-198.7976 87.7367,-187.2446"/>
<polygon fill="#000000" stroke="#000000" points="90.2667,-184.825 80.9313,-179.8149 85.1049,-189.5531 90.2667,-184.825"/>
</g>
<!-- 7 -->
<g id="node8" class="node">
<title>7</title>
<path fill="#399de5" stroke="#000000" d="M204,-179.5C204,-179.5 129,-179.5 129,-179.5 123,-179.5 117,-173.5 117,-167.5 117,-167.5 117,-123.5 117,-123.5 117,-117.5 123,-111.5 129,-111.5 129,-111.5 204,-111.5 204,-111.5 210,-111.5 216,-117.5 216,-123.5 216,-123.5 216,-167.5 216,-167.5 216,-173.5 210,-179.5 204,-179.5"/>
<text text-anchor="start" x="137" y="-164.3" font-family="Helvetica,sans-Serif" font-size="14.00" fill="#000000">gini = 0.0</text>
<text text-anchor="start" x="127" y="-149.3" font-family="Helvetica,sans-Serif" font-size="14.00" fill="#000000">samples = 2</text>
<text text-anchor="start" x="125" y="-134.3" font-family="Helvetica,sans-Serif" font-size="14.00" fill="#000000">value = [0, 2]</text>
<text text-anchor="start" x="137.5" y="-119.3" font-family="Helvetica,sans-Serif" font-size="14.00" fill="#000000">class = 2</text>
</g>
<!-- 5&#45;&gt;7 -->
<g id="edge7" class="edge">
<title>5&#45;&gt;7</title>
<path fill="none" stroke="#000000" d="M161.298,-222.8796C162.0151,-212.2134 162.7889,-200.7021 163.515,-189.9015"/>
<polygon fill="#000000" stroke="#000000" points="167.0144,-190.0272 164.1931,-179.8149 160.0301,-189.5576 167.0144,-190.0272"/>
</g>
<!-- 9 -->
<g id="node10" class="node">
<title>9</title>
<path fill="#ffffff" stroke="#000000" d="M338.5,-187C338.5,-187 260.5,-187 260.5,-187 254.5,-187 248.5,-181 248.5,-175 248.5,-175 248.5,-116 248.5,-116 248.5,-110 254.5,-104 260.5,-104 260.5,-104 338.5,-104 338.5,-104 344.5,-104 350.5,-110 350.5,-116 350.5,-116 350.5,-175 350.5,-175 350.5,-181 344.5,-187 338.5,-187"/>
<text text-anchor="start" x="256.5" y="-171.8" font-family="Helvetica,sans-Serif" font-size="14.00" fill="#000000">BMI ≤ 25.954</text>
<text text-anchor="start" x="270" y="-156.8" font-family="Helvetica,sans-Serif" font-size="14.00" fill="#000000">gini = 0.5</text>
<text text-anchor="start" x="260" y="-141.8" font-family="Helvetica,sans-Serif" font-size="14.00" fill="#000000">samples = 2</text>
<text text-anchor="start" x="258" y="-126.8" font-family="Helvetica,sans-Serif" font-size="14.00" fill="#000000">value = [1, 1]</text>
<text text-anchor="start" x="270.5" y="-111.8" font-family="Helvetica,sans-Serif" font-size="14.00" fill="#000000">class = 1</text>
</g>
<!-- 8&#45;&gt;9 -->
<g id="edge9" class="edge">
<title>8&#45;&gt;9</title>
<path fill="none" stroke="#000000" d="M304.0517,-222.8796C303.5696,-214.6838 303.0582,-205.9891 302.5589,-197.5013"/>
<polygon fill="#000000" stroke="#000000" points="306.04,-197.0753 301.9587,-187.2981 299.0521,-197.4864 306.04,-197.0753"/>
</g>
<!-- 12 -->
<g id="node13" class="node">
<title>12</title>
<path fill="#e58139" stroke="#000000" d="M464,-179.5C464,-179.5 381,-179.5 381,-179.5 375,-179.5 369,-173.5 369,-167.5 369,-167.5 369,-123.5 369,-123.5 369,-117.5 375,-111.5 381,-111.5 381,-111.5 464,-111.5 464,-111.5 470,-111.5 476,-117.5 476,-123.5 476,-123.5 476,-167.5 476,-167.5 476,-173.5 470,-179.5 464,-179.5"/>
<text text-anchor="start" x="393" y="-164.3" font-family="Helvetica,sans-Serif" font-size="14.00" fill="#000000">gini = 0.0</text>
<text text-anchor="start" x="378.5" y="-149.3" font-family="Helvetica,sans-Serif" font-size="14.00" fill="#000000">samples = 22</text>
<text text-anchor="start" x="377" y="-134.3" font-family="Helvetica,sans-Serif" font-size="14.00" fill="#000000">value = [22, 0]</text>
<text text-anchor="start" x="393.5" y="-119.3" font-family="Helvetica,sans-Serif" font-size="14.00" fill="#000000">class = 1</text>
</g>
<!-- 8&#45;&gt;12 -->
<g id="edge12" class="edge">
<title>8&#45;&gt;12</title>
<path fill="none" stroke="#000000" d="M347.0712,-222.8796C358.326,-211.3337 370.5461,-198.7976 381.8078,-187.2446"/>
<polygon fill="#000000" stroke="#000000" points="384.5762,-189.4188 389.0501,-179.8149 379.5636,-184.5326 384.5762,-189.4188"/>
</g>
<!-- 10 -->
<g id="node11" class="node">
<title>10</title>
<path fill="#399de5" stroke="#000000" d="M279,-68C279,-68 204,-68 204,-68 198,-68 192,-62 192,-56 192,-56 192,-12 192,-12 192,-6 198,0 204,0 204,0 279,0 279,0 285,0 291,-6 291,-12 291,-12 291,-56 291,-56 291,-62 285,-68 279,-68"/>
<text text-anchor="start" x="212" y="-52.8" font-family="Helvetica,sans-Serif" font-size="14.00" fill="#000000">gini = 0.0</text>
<text text-anchor="start" x="202" y="-37.8" font-family="Helvetica,sans-Serif" font-size="14.00" fill="#000000">samples = 1</text>
<text text-anchor="start" x="200" y="-22.8" font-family="Helvetica,sans-Serif" font-size="14.00" fill="#000000">value = [0, 1]</text>
<text text-anchor="start" x="212.5" y="-7.8" font-family="Helvetica,sans-Serif" font-size="14.00" fill="#000000">class = 2</text>
</g>
<!-- 9&#45;&gt;10 -->
<g id="edge10" class="edge">
<title>9&#45;&gt;10</title>
<path fill="none" stroke="#000000" d="M277.9029,-103.9815C273.3612,-95.2504 268.5598,-86.0202 263.9863,-77.2281"/>
<polygon fill="#000000" stroke="#000000" points="267.0431,-75.52 259.3233,-68.2637 260.8331,-78.7504 267.0431,-75.52"/>
</g>
<!-- 11 -->
<g id="node12" class="node">
<title>11</title>
<path fill="#e58139" stroke="#000000" d="M396,-68C396,-68 321,-68 321,-68 315,-68 309,-62 309,-56 309,-56 309,-12 309,-12 309,-6 315,0 321,0 321,0 396,0 396,0 402,0 408,-6 408,-12 408,-12 408,-56 408,-56 408,-62 402,-68 396,-68"/>
<text text-anchor="start" x="329" y="-52.8" font-family="Helvetica,sans-Serif" font-size="14.00" fill="#000000">gini = 0.0</text>
<text text-anchor="start" x="319" y="-37.8" font-family="Helvetica,sans-Serif" font-size="14.00" fill="#000000">samples = 1</text>
<text text-anchor="start" x="317" y="-22.8" font-family="Helvetica,sans-Serif" font-size="14.00" fill="#000000">value = [1, 0]</text>
<text text-anchor="start" x="329.5" y="-7.8" font-family="Helvetica,sans-Serif" font-size="14.00" fill="#000000">class = 1</text>
</g>
<!-- 9&#45;&gt;11 -->
<g id="edge11" class="edge">
<title>9&#45;&gt;11</title>
<path fill="none" stroke="#000000" d="M321.4694,-103.9815C326.0895,-95.2504 330.9736,-86.0202 335.626,-77.2281"/>
<polygon fill="#000000" stroke="#000000" points="338.7859,-78.7395 340.3694,-68.2637 332.5987,-75.4655 338.7859,-78.7395"/>
</g>
<!-- 16 -->
<g id="node17" class="node">
<title>16</title>
<path fill="#399de5" stroke="#000000" d="M581,-536.5C581,-536.5 506,-536.5 506,-536.5 500,-536.5 494,-530.5 494,-524.5 494,-524.5 494,-480.5 494,-480.5 494,-474.5 500,-468.5 506,-468.5 506,-468.5 581,-468.5 581,-468.5 587,-468.5 593,-474.5 593,-480.5 593,-480.5 593,-524.5 593,-524.5 593,-530.5 587,-536.5 581,-536.5"/>
<text text-anchor="start" x="514" y="-521.3" font-family="Helvetica,sans-Serif" font-size="14.00" fill="#000000">gini = 0.0</text>
<text text-anchor="start" x="504" y="-506.3" font-family="Helvetica,sans-Serif" font-size="14.00" fill="#000000">samples = 9</text>
<text text-anchor="start" x="502" y="-491.3" font-family="Helvetica,sans-Serif" font-size="14.00" fill="#000000">value = [0, 9]</text>
<text text-anchor="start" x="514.5" y="-476.3" font-family="Helvetica,sans-Serif" font-size="14.00" fill="#000000">class = 2</text>
</g>
<!-- 15&#45;&gt;16 -->
<g id="edge16" class="edge">
<title>15&#45;&gt;16</title>
<path fill="none" stroke="#000000" d="M545.4507,-579.8796C545.1818,-569.2134 544.8916,-557.7021 544.6194,-546.9015"/>
<polygon fill="#000000" stroke="#000000" points="548.1161,-546.7235 544.3651,-536.8149 541.1183,-546.9 548.1161,-546.7235"/>
</g>
<!-- 17 -->
<g id="node18" class="node">
<title>17</title>
<path fill="#e58139" stroke="#000000" d="M698,-536.5C698,-536.5 623,-536.5 623,-536.5 617,-536.5 611,-530.5 611,-524.5 611,-524.5 611,-480.5 611,-480.5 611,-474.5 617,-468.5 623,-468.5 623,-468.5 698,-468.5 698,-468.5 704,-468.5 710,-474.5 710,-480.5 710,-480.5 710,-524.5 710,-524.5 710,-530.5 704,-536.5 698,-536.5"/>
<text text-anchor="start" x="631" y="-521.3" font-family="Helvetica,sans-Serif" font-size="14.00" fill="#000000">gini = 0.0</text>
<text text-anchor="start" x="621" y="-506.3" font-family="Helvetica,sans-Serif" font-size="14.00" fill="#000000">samples = 7</text>
<text text-anchor="start" x="619" y="-491.3" font-family="Helvetica,sans-Serif" font-size="14.00" fill="#000000">value = [7, 0]</text>
<text text-anchor="start" x="631.5" y="-476.3" font-family="Helvetica,sans-Serif" font-size="14.00" fill="#000000">class = 1</text>
</g>
<!-- 15&#45;&gt;17 -->
<g id="edge17" class="edge">
<title>15&#45;&gt;17</title>
<path fill="none" stroke="#000000" d="M586.3717,-579.8796C597.4324,-568.3337 609.4418,-555.7976 620.5094,-544.2446"/>
<polygon fill="#000000" stroke="#000000" points="623.2365,-546.4573 627.6269,-536.8149 618.1817,-541.6149 623.2365,-546.4573"/>
</g>
<!-- 19 -->
<g id="node20" class="node">
<title>19</title>
<path fill="#e58139" stroke="#000000" d="M712,-655.5C712,-655.5 637,-655.5 637,-655.5 631,-655.5 625,-649.5 625,-643.5 625,-643.5 625,-599.5 625,-599.5 625,-593.5 631,-587.5 637,-587.5 637,-587.5 712,-587.5 712,-587.5 718,-587.5 724,-593.5 724,-599.5 724,-599.5 724,-643.5 724,-643.5 724,-649.5 718,-655.5 712,-655.5"/>
<text text-anchor="start" x="645" y="-640.3" font-family="Helvetica,sans-Serif" font-size="14.00" fill="#000000">gini = 0.0</text>
<text text-anchor="start" x="635" y="-625.3" font-family="Helvetica,sans-Serif" font-size="14.00" fill="#000000">samples = 2</text>
<text text-anchor="start" x="633" y="-610.3" font-family="Helvetica,sans-Serif" font-size="14.00" fill="#000000">value = [2, 0]</text>
<text text-anchor="start" x="645.5" y="-595.3" font-family="Helvetica,sans-Serif" font-size="14.00" fill="#000000">class = 1</text>
</g>
<!-- 18&#45;&gt;19 -->
<g id="edge19" class="edge">
<title>18&#45;&gt;19</title>
<path fill="none" stroke="#000000" d="M677.7512,-698.8796C677.3031,-688.2134 676.8194,-676.7021 676.3656,-665.9015"/>
<polygon fill="#000000" stroke="#000000" points="679.8586,-665.6592 675.9418,-655.8149 672.8648,-665.9531 679.8586,-665.6592"/>
</g>
<!-- 20 -->
<g id="node21" class="node">
<title>20</title>
<path fill="#57ace9" stroke="#000000" d="M837,-663C837,-663 754,-663 754,-663 748,-663 742,-657 742,-651 742,-651 742,-592 742,-592 742,-586 748,-580 754,-580 754,-580 837,-580 837,-580 843,-580 849,-586 849,-592 849,-592 849,-651 849,-651 849,-657 843,-663 837,-663"/>
<text text-anchor="start" x="752.5" y="-647.8" font-family="Helvetica,sans-Serif" font-size="14.00" fill="#000000">BMI ≤ 33.777</text>
<text text-anchor="start" x="757.5" y="-632.8" font-family="Helvetica,sans-Serif" font-size="14.00" fill="#000000">gini = 0.231</text>
<text text-anchor="start" x="751.5" y="-617.8" font-family="Helvetica,sans-Serif" font-size="14.00" fill="#000000">samples = 30</text>
<text text-anchor="start" x="750" y="-602.8" font-family="Helvetica,sans-Serif" font-size="14.00" fill="#000000">value = [4, 26]</text>
<text text-anchor="start" x="766.5" y="-587.8" font-family="Helvetica,sans-Serif" font-size="14.00" fill="#000000">class = 2</text>
</g>
<!-- 18&#45;&gt;20 -->
<g id="edge20" class="edge">
<title>18&#45;&gt;20</title>
<path fill="none" stroke="#000000" d="M720.0712,-698.8796C728.9382,-689.7832 738.4044,-680.0722 747.5291,-670.7116"/>
<polygon fill="#000000" stroke="#000000" points="750.2817,-672.9019 754.7557,-663.2981 745.2691,-668.0158 750.2817,-672.9019"/>
</g>
<!-- 21 -->
<g id="node22" class="node">
<title>21</title>
<path fill="#42a1e6" stroke="#000000" d="M841,-544C841,-544 746,-544 746,-544 740,-544 734,-538 734,-532 734,-532 734,-473 734,-473 734,-467 740,-461 746,-461 746,-461 841,-461 841,-461 847,-461 853,-467 853,-473 853,-473 853,-532 853,-532 853,-538 847,-544 841,-544"/>
<text text-anchor="start" x="742" y="-528.8" font-family="Helvetica,sans-Serif" font-size="14.00" fill="#000000">MCP.1 ≤ 67.966</text>
<text text-anchor="start" x="760" y="-513.8" font-family="Helvetica,sans-Serif" font-size="14.00" fill="#000000">gini = 0.08</text>
<text text-anchor="start" x="749.5" y="-498.8" font-family="Helvetica,sans-Serif" font-size="14.00" fill="#000000">samples = 24</text>
<text text-anchor="start" x="748" y="-483.8" font-family="Helvetica,sans-Serif" font-size="14.00" fill="#000000">value = [1, 23]</text>
<text text-anchor="start" x="764.5" y="-468.8" font-family="Helvetica,sans-Serif" font-size="14.00" fill="#000000">class = 2</text>
</g>
<!-- 20&#45;&gt;21 -->
<g id="edge21" class="edge">
<title>20&#45;&gt;21</title>
<path fill="none" stroke="#000000" d="M794.8005,-579.8796C794.6628,-571.6838 794.5166,-562.9891 794.374,-554.5013"/>
<polygon fill="#000000" stroke="#000000" points="797.8701,-554.2378 794.2025,-544.2981 790.8711,-554.3555 797.8701,-554.2378"/>
</g>
<!-- 24 -->
<g id="node25" class="node">
<title>24</title>
<path fill="#ffffff" stroke="#000000" d="M979.5,-544C979.5,-544 883.5,-544 883.5,-544 877.5,-544 871.5,-538 871.5,-532 871.5,-532 871.5,-473 871.5,-473 871.5,-467 877.5,-461 883.5,-461 883.5,-461 979.5,-461 979.5,-461 985.5,-461 991.5,-467 991.5,-473 991.5,-473 991.5,-532 991.5,-532 991.5,-538 985.5,-544 979.5,-544"/>
<text text-anchor="start" x="879.5" y="-528.8" font-family="Helvetica,sans-Serif" font-size="14.00" fill="#000000">Resistin ≤ 9.338</text>
<text text-anchor="start" x="902" y="-513.8" font-family="Helvetica,sans-Serif" font-size="14.00" fill="#000000">gini = 0.5</text>
<text text-anchor="start" x="892" y="-498.8" font-family="Helvetica,sans-Serif" font-size="14.00" fill="#000000">samples = 6</text>
<text text-anchor="start" x="890" y="-483.8" font-family="Helvetica,sans-Serif" font-size="14.00" fill="#000000">value = [3, 3]</text>
<text text-anchor="start" x="902.5" y="-468.8" font-family="Helvetica,sans-Serif" font-size="14.00" fill="#000000">class = 1</text>
</g>
<!-- 20&#45;&gt;24 -->
<g id="edge24" class="edge">
<title>20&#45;&gt;24</title>
<path fill="none" stroke="#000000" d="M843.0662,-579.8796C853.6679,-570.6031 865.0002,-560.6874 875.8933,-551.1559"/>
<polygon fill="#000000" stroke="#000000" points="878.5098,-553.5172 883.7308,-544.2981 873.9002,-548.2491 878.5098,-553.5172"/>
</g>
<!-- 22 -->
<g id="node23" class="node">
<title>22</title>
<path fill="#e58139" stroke="#000000" d="M714,-417.5C714,-417.5 639,-417.5 639,-417.5 633,-417.5 627,-411.5 627,-405.5 627,-405.5 627,-361.5 627,-361.5 627,-355.5 633,-349.5 639,-349.5 639,-349.5 714,-349.5 714,-349.5 720,-349.5 726,-355.5 726,-361.5 726,-361.5 726,-405.5 726,-405.5 726,-411.5 720,-417.5 714,-417.5"/>
<text text-anchor="start" x="647" y="-402.3" font-family="Helvetica,sans-Serif" font-size="14.00" fill="#000000">gini = 0.0</text>
<text text-anchor="start" x="637" y="-387.3" font-family="Helvetica,sans-Serif" font-size="14.00" fill="#000000">samples = 1</text>
<text text-anchor="start" x="635" y="-372.3" font-family="Helvetica,sans-Serif" font-size="14.00" fill="#000000">value = [1, 0]</text>
<text text-anchor="start" x="647.5" y="-357.3" font-family="Helvetica,sans-Serif" font-size="14.00" fill="#000000">class = 1</text>
</g>
<!-- 21&#45;&gt;22 -->
<g id="edge22" class="edge">
<title>21&#45;&gt;22</title>
<path fill="none" stroke="#000000" d="M752.5791,-460.8796C741.2272,-449.3337 728.9018,-436.7976 717.543,-425.2446"/>
<polygon fill="#000000" stroke="#000000" points="719.7449,-422.4919 710.2382,-417.8149 714.7534,-427.3995 719.7449,-422.4919"/>
</g>
<!-- 23 -->
<g id="node24" class="node">
<title>23</title>
<path fill="#399de5" stroke="#000000" d="M839,-417.5C839,-417.5 756,-417.5 756,-417.5 750,-417.5 744,-411.5 744,-405.5 744,-405.5 744,-361.5 744,-361.5 744,-355.5 750,-349.5 756,-349.5 756,-349.5 839,-349.5 839,-349.5 845,-349.5 851,-355.5 851,-361.5 851,-361.5 851,-405.5 851,-405.5 851,-411.5 845,-417.5 839,-417.5"/>
<text text-anchor="start" x="768" y="-402.3" font-family="Helvetica,sans-Serif" font-size="14.00" fill="#000000">gini = 0.0</text>
<text text-anchor="start" x="753.5" y="-387.3" font-family="Helvetica,sans-Serif" font-size="14.00" fill="#000000">samples = 23</text>
<text text-anchor="start" x="752" y="-372.3" font-family="Helvetica,sans-Serif" font-size="14.00" fill="#000000">value = [0, 23]</text>
<text text-anchor="start" x="768.5" y="-357.3" font-family="Helvetica,sans-Serif" font-size="14.00" fill="#000000">class = 2</text>
</g>
<!-- 21&#45;&gt;23 -->
<g id="edge23" class="edge">
<title>21&#45;&gt;23</title>
<path fill="none" stroke="#000000" d="M794.899,-460.8796C795.2575,-450.2134 795.6445,-438.7021 796.0075,-427.9015"/>
<polygon fill="#000000" stroke="#000000" points="799.5085,-427.9269 796.3466,-417.8149 792.5125,-427.6917 799.5085,-427.9269"/>
</g>
<!-- 25 -->
<g id="node26" class="node">
<title>25</title>
<path fill="#399de5" stroke="#000000" d="M964,-417.5C964,-417.5 889,-417.5 889,-417.5 883,-417.5 877,-411.5 877,-405.5 877,-405.5 877,-361.5 877,-361.5 877,-355.5 883,-349.5 889,-349.5 889,-349.5 964,-349.5 964,-349.5 970,-349.5 976,-355.5 976,-361.5 976,-361.5 976,-405.5 976,-405.5 976,-411.5 970,-417.5 964,-417.5"/>
<text text-anchor="start" x="897" y="-402.3" font-family="Helvetica,sans-Serif" font-size="14.00" fill="#000000">gini = 0.0</text>
<text text-anchor="start" x="887" y="-387.3" font-family="Helvetica,sans-Serif" font-size="14.00" fill="#000000">samples = 3</text>
<text text-anchor="start" x="885" y="-372.3" font-family="Helvetica,sans-Serif" font-size="14.00" fill="#000000">value = [0, 3]</text>
<text text-anchor="start" x="897.5" y="-357.3" font-family="Helvetica,sans-Serif" font-size="14.00" fill="#000000">class = 2</text>
</g>
<!-- 24&#45;&gt;25 -->
<g id="edge25" class="edge">
<title>24&#45;&gt;25</title>
<path fill="none" stroke="#000000" d="M929.7512,-460.8796C929.3031,-450.2134 928.8194,-438.7021 928.3656,-427.9015"/>
<polygon fill="#000000" stroke="#000000" points="931.8586,-427.6592 927.9418,-417.8149 924.8648,-427.9531 931.8586,-427.6592"/>
</g>
<!-- 26 -->
<g id="node27" class="node">
<title>26</title>
<path fill="#e58139" stroke="#000000" d="M1081,-417.5C1081,-417.5 1006,-417.5 1006,-417.5 1000,-417.5 994,-411.5 994,-405.5 994,-405.5 994,-361.5 994,-361.5 994,-355.5 1000,-349.5 1006,-349.5 1006,-349.5 1081,-349.5 1081,-349.5 1087,-349.5 1093,-355.5 1093,-361.5 1093,-361.5 1093,-405.5 1093,-405.5 1093,-411.5 1087,-417.5 1081,-417.5"/>
<text text-anchor="start" x="1014" y="-402.3" font-family="Helvetica,sans-Serif" font-size="14.00" fill="#000000">gini = 0.0</text>
<text text-anchor="start" x="1004" y="-387.3" font-family="Helvetica,sans-Serif" font-size="14.00" fill="#000000">samples = 3</text>
<text text-anchor="start" x="1002" y="-372.3" font-family="Helvetica,sans-Serif" font-size="14.00" fill="#000000">value = [3, 0]</text>
<text text-anchor="start" x="1014.5" y="-357.3" font-family="Helvetica,sans-Serif" font-size="14.00" fill="#000000">class = 1</text>
</g>
<!-- 24&#45;&gt;26 -->
<g id="edge26" class="edge">
<title>24&#45;&gt;26</title>
<path fill="none" stroke="#000000" d="M970.6722,-460.8796C981.5389,-449.3337 993.3376,-436.7976 1004.2109,-425.2446"/>
<polygon fill="#000000" stroke="#000000" points="1006.8986,-427.4958 1011.2036,-417.8149 1001.8012,-422.6982 1006.8986,-427.4958"/>
</g>
</g>
</svg>
