<?xml version="1.0" encoding="UTF-8" standalone="no"?>
<!DOCTYPE svg PUBLIC "-//W3C//DTD SVG 1.1//EN"
 "http://www.w3.org/Graphics/SVG/1.1/DTD/svg11.dtd">
<!-- Generated by graphviz version 2.40.1 (20161225.0304)
 -->
<!-- Title: Tree Pages: 1 -->
<svg width="1087pt" height="1147pt"
 viewBox="0.00 0.00 1087.00 1147.00" xmlns="http://www.w3.org/2000/svg" xmlns:xlink="http://www.w3.org/1999/xlink">
<g id="graph0" class="graph" transform="scale(1 1) rotate(0) translate(4 1143)">
<title>Tree</title>
<polygon fill="#ffffff" stroke="transparent" points="-4,4 -4,-1143 1083,-1143 1083,4 -4,4"/>
<!-- 0 -->
<g id="node1" class="node">
<title>0</title>
<path fill="#fafdfe" stroke="#000000" d="M731.5,-1139C731.5,-1139 639.5,-1139 639.5,-1139 633.5,-1139 627.5,-1133 627.5,-1127 627.5,-1127 627.5,-1068 627.5,-1068 627.5,-1062 633.5,-1056 639.5,-1056 639.5,-1056 731.5,-1056 731.5,-1056 737.5,-1056 743.5,-1062 743.5,-1068 743.5,-1068 743.5,-1127 743.5,-1127 743.5,-1133 737.5,-1139 731.5,-1139"/>
<text text-anchor="start" x="636.5" y="-1123.8" font-family="Helvetica,sans-Serif" font-size="14.00" fill="#000000">Glucose ≤ 96.5</text>
<text text-anchor="start" x="643" y="-1108.8" font-family="Helvetica,sans-Serif" font-size="14.00" fill="#000000">entropy = 1.0</text>
<text text-anchor="start" x="641.5" y="-1093.8" font-family="Helvetica,sans-Serif" font-size="14.00" fill="#000000">samples = 81</text>
<text text-anchor="start" x="635.5" y="-1078.8" font-family="Helvetica,sans-Serif" font-size="14.00" fill="#000000">value = [40, 41]</text>
<text text-anchor="start" x="656.5" y="-1063.8" font-family="Helvetica,sans-Serif" font-size="14.00" fill="#000000">class = 2</text>
</g>
<!-- 1 -->
<g id="node2" class="node">
<title>1</title>
<path fill="#f0b990" stroke="#000000" d="M665,-1020C665,-1020 570,-1020 570,-1020 564,-1020 558,-1014 558,-1008 558,-1008 558,-949 558,-949 558,-943 564,-937 570,-937 570,-937 665,-937 665,-937 671,-937 677,-943 677,-949 677,-949 677,-1008 677,-1008 677,-1014 671,-1020 665,-1020"/>
<text text-anchor="start" x="566" y="-1004.8" font-family="Helvetica,sans-Serif" font-size="14.00" fill="#000000">Insulin ≤ 14.359</text>
<text text-anchor="start" x="566.5" y="-989.8" font-family="Helvetica,sans-Serif" font-size="14.00" fill="#000000">entropy = 0.889</text>
<text text-anchor="start" x="573.5" y="-974.8" font-family="Helvetica,sans-Serif" font-size="14.00" fill="#000000">samples = 49</text>
<text text-anchor="start" x="567.5" y="-959.8" font-family="Helvetica,sans-Serif" font-size="14.00" fill="#000000">value = [34, 15]</text>
<text text-anchor="start" x="588.5" y="-944.8" font-family="Helvetica,sans-Serif" font-size="14.00" fill="#000000">class = 1</text>
</g>
<!-- 0&#45;&gt;1 -->
<g id="edge1" class="edge">
<title>0&#45;&gt;1</title>
<path fill="none" stroke="#000000" d="M661.7169,-1055.8796C656.7763,-1047.2335 651.5184,-1038.0322 646.4167,-1029.1042"/>
<polygon fill="#000000" stroke="#000000" points="649.3849,-1027.244 641.3846,-1020.2981 643.3072,-1030.717 649.3849,-1027.244"/>
<text text-anchor="middle" x="634.8067" y="-1040.7172" font-family="Helvetica,sans-Serif" font-size="14.00" fill="#000000">True</text>
</g>
<!-- 26 -->
<g id="node27" class="node">
<title>26</title>
<path fill="#67b4eb" stroke="#000000" d="M801.5,-1020C801.5,-1020 707.5,-1020 707.5,-1020 701.5,-1020 695.5,-1014 695.5,-1008 695.5,-1008 695.5,-949 695.5,-949 695.5,-943 701.5,-937 707.5,-937 707.5,-937 801.5,-937 801.5,-937 807.5,-937 813.5,-943 813.5,-949 813.5,-949 813.5,-1008 813.5,-1008 813.5,-1014 807.5,-1020 801.5,-1020"/>
<text text-anchor="start" x="708.5" y="-1004.8" font-family="Helvetica,sans-Serif" font-size="14.00" fill="#000000">Leptin ≤ 6.059</text>
<text text-anchor="start" x="703.5" y="-989.8" font-family="Helvetica,sans-Serif" font-size="14.00" fill="#000000">entropy = 0.696</text>
<text text-anchor="start" x="710.5" y="-974.8" font-family="Helvetica,sans-Serif" font-size="14.00" fill="#000000">samples = 32</text>
<text text-anchor="start" x="709" y="-959.8" font-family="Helvetica,sans-Serif" font-size="14.00" fill="#000000">value = [6, 26]</text>
<text text-anchor="start" x="725.5" y="-944.8" font-family="Helvetica,sans-Serif" font-size="14.00" fill="#000000">class = 2</text>
</g>
<!-- 0&#45;&gt;26 -->
<g id="edge26" class="edge">
<title>0&#45;&gt;26</title>
<path fill="none" stroke="#000000" d="M709.6329,-1055.8796C714.6461,-1047.2335 719.9813,-1038.0322 725.1581,-1029.1042"/>
<polygon fill="#000000" stroke="#000000" points="728.2758,-1030.7047 730.2641,-1020.2981 722.2202,-1027.1934 728.2758,-1030.7047"/>
<text text-anchor="middle" x="736.6897" y="-1040.7582" font-family="Helvetica,sans-Serif" font-size="14.00" fill="#000000">False</text>
</g>
<!-- 2 -->
<g id="node3" class="node">
<title>2</title>
<path fill="#eead7f" stroke="#000000" d="M536.5,-901C536.5,-901 442.5,-901 442.5,-901 436.5,-901 430.5,-895 430.5,-889 430.5,-889 430.5,-830 430.5,-830 430.5,-824 436.5,-818 442.5,-818 442.5,-818 536.5,-818 536.5,-818 542.5,-818 548.5,-824 548.5,-830 548.5,-830 548.5,-889 548.5,-889 548.5,-895 542.5,-901 536.5,-901"/>
<text text-anchor="start" x="441.5" y="-885.8" font-family="Helvetica,sans-Serif" font-size="14.00" fill="#000000">Resistin ≤ 7.74</text>
<text text-anchor="start" x="438.5" y="-870.8" font-family="Helvetica,sans-Serif" font-size="14.00" fill="#000000">entropy = 0.828</text>
<text text-anchor="start" x="445.5" y="-855.8" font-family="Helvetica,sans-Serif" font-size="14.00" fill="#000000">samples = 46</text>
<text text-anchor="start" x="439.5" y="-840.8" font-family="Helvetica,sans-Serif" font-size="14.00" fill="#000000">value = [34, 12]</text>
<text text-anchor="start" x="460.5" y="-825.8" font-family="Helvetica,sans-Serif" font-size="14.00" fill="#000000">class = 1</text>
</g>
<!-- 1&#45;&gt;2 -->
<g id="edge2" class="edge">
<title>1&#45;&gt;2</title>
<path fill="none" stroke="#000000" d="M572.7318,-936.8796C562.7537,-927.6031 552.0881,-917.6874 541.8358,-908.1559"/>
<polygon fill="#000000" stroke="#000000" points="544.1663,-905.5436 534.4593,-901.2981 539.4,-910.6704 544.1663,-905.5436"/>
</g>
<!-- 25 -->
<g id="node26" class="node">
<title>25</title>
<path fill="#399de5" stroke="#000000" d="M656,-893.5C656,-893.5 579,-893.5 579,-893.5 573,-893.5 567,-887.5 567,-881.5 567,-881.5 567,-837.5 567,-837.5 567,-831.5 573,-825.5 579,-825.5 579,-825.5 656,-825.5 656,-825.5 662,-825.5 668,-831.5 668,-837.5 668,-837.5 668,-881.5 668,-881.5 668,-887.5 662,-893.5 656,-893.5"/>
<text text-anchor="start" x="575" y="-878.3" font-family="Helvetica,sans-Serif" font-size="14.00" fill="#000000">entropy = 0.0</text>
<text text-anchor="start" x="578" y="-863.3" font-family="Helvetica,sans-Serif" font-size="14.00" fill="#000000">samples = 3</text>
<text text-anchor="start" x="576" y="-848.3" font-family="Helvetica,sans-Serif" font-size="14.00" fill="#000000">value = [0, 3]</text>
<text text-anchor="start" x="588.5" y="-833.3" font-family="Helvetica,sans-Serif" font-size="14.00" fill="#000000">class = 2</text>
</g>
<!-- 1&#45;&gt;25 -->
<g id="edge25" class="edge">
<title>1&#45;&gt;25</title>
<path fill="none" stroke="#000000" d="M617.5,-936.8796C617.5,-926.2134 617.5,-914.7021 617.5,-903.9015"/>
<polygon fill="#000000" stroke="#000000" points="621.0001,-903.8149 617.5,-893.8149 614.0001,-903.815 621.0001,-903.8149"/>
</g>
<!-- 3 -->
<g id="node4" class="node">
<title>3</title>
<path fill="#e58139" stroke="#000000" d="M398,-774.5C398,-774.5 315,-774.5 315,-774.5 309,-774.5 303,-768.5 303,-762.5 303,-762.5 303,-718.5 303,-718.5 303,-712.5 309,-706.5 315,-706.5 315,-706.5 398,-706.5 398,-706.5 404,-706.5 410,-712.5 410,-718.5 410,-718.5 410,-762.5 410,-762.5 410,-768.5 404,-774.5 398,-774.5"/>
<text text-anchor="start" x="314" y="-759.3" font-family="Helvetica,sans-Serif" font-size="14.00" fill="#000000">entropy = 0.0</text>
<text text-anchor="start" x="312.5" y="-744.3" font-family="Helvetica,sans-Serif" font-size="14.00" fill="#000000">samples = 12</text>
<text text-anchor="start" x="311" y="-729.3" font-family="Helvetica,sans-Serif" font-size="14.00" fill="#000000">value = [12, 0]</text>
<text text-anchor="start" x="327.5" y="-714.3" font-family="Helvetica,sans-Serif" font-size="14.00" fill="#000000">class = 1</text>
</g>
<!-- 2&#45;&gt;3 -->
<g id="edge3" class="edge">
<title>2&#45;&gt;3</title>
<path fill="none" stroke="#000000" d="M442.9831,-817.8796C429.833,-806.1138 415.5337,-793.3197 402.4191,-781.5855"/>
<polygon fill="#000000" stroke="#000000" points="404.6382,-778.8746 394.852,-774.8149 399.9706,-784.0913 404.6382,-778.8746"/>
</g>
<!-- 4 -->
<g id="node5" class="node">
<title>4</title>
<path fill="#f3c6a5" stroke="#000000" d="M544.5,-782C544.5,-782 440.5,-782 440.5,-782 434.5,-782 428.5,-776 428.5,-770 428.5,-770 428.5,-711 428.5,-711 428.5,-705 434.5,-699 440.5,-699 440.5,-699 544.5,-699 544.5,-699 550.5,-699 556.5,-705 556.5,-711 556.5,-711 556.5,-770 556.5,-770 556.5,-776 550.5,-782 544.5,-782"/>
<text text-anchor="start" x="436.5" y="-766.8" font-family="Helvetica,sans-Serif" font-size="14.00" fill="#000000">MCP.1 ≤ 339.218</text>
<text text-anchor="start" x="441.5" y="-751.8" font-family="Helvetica,sans-Serif" font-size="14.00" fill="#000000">entropy = 0.937</text>
<text text-anchor="start" x="448.5" y="-736.8" font-family="Helvetica,sans-Serif" font-size="14.00" fill="#000000">samples = 34</text>
<text text-anchor="start" x="442.5" y="-721.8" font-family="Helvetica,sans-Serif" font-size="14.00" fill="#000000">value = [22, 12]</text>
<text text-anchor="start" x="463.5" y="-706.8" font-family="Helvetica,sans-Serif" font-size="14.00" fill="#000000">class = 1</text>
</g>
<!-- 2&#45;&gt;4 -->
<g id="edge4" class="edge">
<title>2&#45;&gt;4</title>
<path fill="none" stroke="#000000" d="M490.5493,-817.8796C490.7559,-809.6838 490.9751,-800.9891 491.189,-792.5013"/>
<polygon fill="#000000" stroke="#000000" points="494.693,-792.3831 491.4463,-782.2981 487.6953,-792.2067 494.693,-792.3831"/>
</g>
<!-- 5 -->
<g id="node6" class="node">
<title>5</title>
<path fill="#8ec7f0" stroke="#000000" d="M404.5,-663C404.5,-663 300.5,-663 300.5,-663 294.5,-663 288.5,-657 288.5,-651 288.5,-651 288.5,-592 288.5,-592 288.5,-586 294.5,-580 300.5,-580 300.5,-580 404.5,-580 404.5,-580 410.5,-580 416.5,-586 416.5,-592 416.5,-592 416.5,-651 416.5,-651 416.5,-657 410.5,-663 404.5,-663"/>
<text text-anchor="start" x="296.5" y="-647.8" font-family="Helvetica,sans-Serif" font-size="14.00" fill="#000000">Resistin ≤ 12.674</text>
<text text-anchor="start" x="301.5" y="-632.8" font-family="Helvetica,sans-Serif" font-size="14.00" fill="#000000">entropy = 0.881</text>
<text text-anchor="start" x="308.5" y="-617.8" font-family="Helvetica,sans-Serif" font-size="14.00" fill="#000000">samples = 10</text>
<text text-anchor="start" x="311" y="-602.8" font-family="Helvetica,sans-Serif" font-size="14.00" fill="#000000">value = [3, 7]</text>
<text text-anchor="start" x="323.5" y="-587.8" font-family="Helvetica,sans-Serif" font-size="14.00" fill="#000000">class = 2</text>
</g>
<!-- 4&#45;&gt;5 -->
<g id="edge5" class="edge">
<title>4&#45;&gt;5</title>
<path fill="none" stroke="#000000" d="M443.5348,-698.8796C432.5153,-689.513 420.7291,-679.4948 409.4158,-669.8784"/>
<polygon fill="#000000" stroke="#000000" points="411.5604,-667.1078 401.6742,-663.2981 407.0268,-672.4414 411.5604,-667.1078"/>
</g>
<!-- 12 -->
<g id="node13" class="node">
<title>12</title>
<path fill="#eca26d" stroke="#000000" d="M540.5,-663C540.5,-663 446.5,-663 446.5,-663 440.5,-663 434.5,-657 434.5,-651 434.5,-651 434.5,-592 434.5,-592 434.5,-586 440.5,-580 446.5,-580 446.5,-580 540.5,-580 540.5,-580 546.5,-580 552.5,-586 552.5,-592 552.5,-592 552.5,-651 552.5,-651 552.5,-657 546.5,-663 540.5,-663"/>
<text text-anchor="start" x="446.5" y="-647.8" font-family="Helvetica,sans-Serif" font-size="14.00" fill="#000000">Insulin ≤ 3.119</text>
<text text-anchor="start" x="442.5" y="-632.8" font-family="Helvetica,sans-Serif" font-size="14.00" fill="#000000">entropy = 0.738</text>
<text text-anchor="start" x="449.5" y="-617.8" font-family="Helvetica,sans-Serif" font-size="14.00" fill="#000000">samples = 24</text>
<text text-anchor="start" x="448" y="-602.8" font-family="Helvetica,sans-Serif" font-size="14.00" fill="#000000">value = [19, 5]</text>
<text text-anchor="start" x="464.5" y="-587.8" font-family="Helvetica,sans-Serif" font-size="14.00" fill="#000000">class = 1</text>
</g>
<!-- 4&#45;&gt;12 -->
<g id="edge12" class="edge">
<title>4&#45;&gt;12</title>
<path fill="none" stroke="#000000" d="M492.8498,-698.8796C492.9186,-690.6838 492.9917,-681.9891 493.063,-673.5013"/>
<polygon fill="#000000" stroke="#000000" points="496.5645,-673.3272 493.1488,-663.2981 489.5648,-673.2683 496.5645,-673.3272"/>
</g>
<!-- 6 -->
<g id="node7" class="node">
<title>6</title>
<path fill="#ffffff" stroke="#000000" d="M272.5,-544C272.5,-544 182.5,-544 182.5,-544 176.5,-544 170.5,-538 170.5,-532 170.5,-532 170.5,-473 170.5,-473 170.5,-467 176.5,-461 182.5,-461 182.5,-461 272.5,-461 272.5,-461 278.5,-461 284.5,-467 284.5,-473 284.5,-473 284.5,-532 284.5,-532 284.5,-538 278.5,-544 272.5,-544"/>
<text text-anchor="start" x="178.5" y="-528.8" font-family="Helvetica,sans-Serif" font-size="14.00" fill="#000000">Glucose ≤ 92.5</text>
<text text-anchor="start" x="185" y="-513.8" font-family="Helvetica,sans-Serif" font-size="14.00" fill="#000000">entropy = 1.0</text>
<text text-anchor="start" x="188" y="-498.8" font-family="Helvetica,sans-Serif" font-size="14.00" fill="#000000">samples = 6</text>
<text text-anchor="start" x="186" y="-483.8" font-family="Helvetica,sans-Serif" font-size="14.00" fill="#000000">value = [3, 3]</text>
<text text-anchor="start" x="198.5" y="-468.8" font-family="Helvetica,sans-Serif" font-size="14.00" fill="#000000">class = 1</text>
</g>
<!-- 5&#45;&gt;6 -->
<g id="edge6" class="edge">
<title>5&#45;&gt;6</title>
<path fill="none" stroke="#000000" d="M308.7811,-579.8796C299.1314,-570.6931 288.8234,-560.8798 278.9009,-551.4336"/>
<polygon fill="#000000" stroke="#000000" points="281.0616,-548.6582 271.4055,-544.2981 276.235,-553.7282 281.0616,-548.6582"/>
</g>
<!-- 11 -->
<g id="node12" class="node">
<title>11</title>
<path fill="#399de5" stroke="#000000" d="M392,-536.5C392,-536.5 315,-536.5 315,-536.5 309,-536.5 303,-530.5 303,-524.5 303,-524.5 303,-480.5 303,-480.5 303,-474.5 309,-468.5 315,-468.5 315,-468.5 392,-468.5 392,-468.5 398,-468.5 404,-474.5 404,-480.5 404,-480.5 404,-524.5 404,-524.5 404,-530.5 398,-536.5 392,-536.5"/>
<text text-anchor="start" x="311" y="-521.3" font-family="Helvetica,sans-Serif" font-size="14.00" fill="#000000">entropy = 0.0</text>
<text text-anchor="start" x="314" y="-506.3" font-family="Helvetica,sans-Serif" font-size="14.00" fill="#000000">samples = 4</text>
<text text-anchor="start" x="312" y="-491.3" font-family="Helvetica,sans-Serif" font-size="14.00" fill="#000000">value = [0, 4]</text>
<text text-anchor="start" x="324.5" y="-476.3" font-family="Helvetica,sans-Serif" font-size="14.00" fill="#000000">class = 2</text>
</g>
<!-- 5&#45;&gt;11 -->
<g id="edge11" class="edge">
<title>5&#45;&gt;11</title>
<path fill="none" stroke="#000000" d="M352.8498,-579.8796C352.9394,-569.2134 353.0361,-557.7021 353.1269,-546.9015"/>
<polygon fill="#000000" stroke="#000000" points="356.6274,-546.844 353.2116,-536.8149 349.6276,-546.7851 356.6274,-546.844"/>
</g>
<!-- 7 -->
<g id="node8" class="node">
<title>7</title>
<path fill="#7bbeee" stroke="#000000" d="M156.5,-425C156.5,-425 62.5,-425 62.5,-425 56.5,-425 50.5,-419 50.5,-413 50.5,-413 50.5,-354 50.5,-354 50.5,-348 56.5,-342 62.5,-342 62.5,-342 156.5,-342 156.5,-342 162.5,-342 168.5,-348 168.5,-354 168.5,-354 168.5,-413 168.5,-413 168.5,-419 162.5,-425 156.5,-425"/>
<text text-anchor="start" x="60.5" y="-409.8" font-family="Helvetica,sans-Serif" font-size="14.00" fill="#000000">Glucose ≤ 83.5</text>
<text text-anchor="start" x="58.5" y="-394.8" font-family="Helvetica,sans-Serif" font-size="14.00" fill="#000000">entropy = 0.811</text>
<text text-anchor="start" x="70" y="-379.8" font-family="Helvetica,sans-Serif" font-size="14.00" fill="#000000">samples = 4</text>
<text text-anchor="start" x="68" y="-364.8" font-family="Helvetica,sans-Serif" font-size="14.00" fill="#000000">value = [1, 3]</text>
<text text-anchor="start" x="80.5" y="-349.8" font-family="Helvetica,sans-Serif" font-size="14.00" fill="#000000">class = 2</text>
</g>
<!-- 6&#45;&gt;7 -->
<g id="edge7" class="edge">
<title>6&#45;&gt;7</title>
<path fill="none" stroke="#000000" d="M186.2293,-460.8796C177.1201,-451.6931 167.3892,-441.8798 158.0224,-432.4336"/>
<polygon fill="#000000" stroke="#000000" points="160.4733,-429.9345 150.9468,-425.2981 155.5027,-434.8634 160.4733,-429.9345"/>
</g>
<!-- 10 -->
<g id="node11" class="node">
<title>10</title>
<path fill="#e58139" stroke="#000000" d="M276,-417.5C276,-417.5 199,-417.5 199,-417.5 193,-417.5 187,-411.5 187,-405.5 187,-405.5 187,-361.5 187,-361.5 187,-355.5 193,-349.5 199,-349.5 199,-349.5 276,-349.5 276,-349.5 282,-349.5 288,-355.5 288,-361.5 288,-361.5 288,-405.5 288,-405.5 288,-411.5 282,-417.5 276,-417.5"/>
<text text-anchor="start" x="195" y="-402.3" font-family="Helvetica,sans-Serif" font-size="14.00" fill="#000000">entropy = 0.0</text>
<text text-anchor="start" x="198" y="-387.3" font-family="Helvetica,sans-Serif" font-size="14.00" fill="#000000">samples = 2</text>
<text text-anchor="start" x="196" y="-372.3" font-family="Helvetica,sans-Serif" font-size="14.00" fill="#000000">value = [2, 0]</text>
<text text-anchor="start" x="208.5" y="-357.3" font-family="Helvetica,sans-Serif" font-size="14.00" fill="#000000">class = 1</text>
</g>
<!-- 6&#45;&gt;10 -->
<g id="edge10" class="edge">
<title>6&#45;&gt;10</title>
<path fill="none" stroke="#000000" d="M230.9975,-460.8796C231.8938,-450.2134 232.8612,-438.7021 233.7688,-427.9015"/>
<polygon fill="#000000" stroke="#000000" points="237.2666,-428.0729 234.6164,-417.8149 230.2912,-427.4867 237.2666,-428.0729"/>
</g>
<!-- 8 -->
<g id="node9" class="node">
<title>8</title>
<path fill="#e58139" stroke="#000000" d="M89,-298.5C89,-298.5 12,-298.5 12,-298.5 6,-298.5 0,-292.5 0,-286.5 0,-286.5 0,-242.5 0,-242.5 0,-236.5 6,-230.5 12,-230.5 12,-230.5 89,-230.5 89,-230.5 95,-230.5 101,-236.5 101,-242.5 101,-242.5 101,-286.5 101,-286.5 101,-292.5 95,-298.5 89,-298.5"/>
<text text-anchor="start" x="8" y="-283.3" font-family="Helvetica,sans-Serif" font-size="14.00" fill="#000000">entropy = 0.0</text>
<text text-anchor="start" x="11" y="-268.3" font-family="Helvetica,sans-Serif" font-size="14.00" fill="#000000">samples = 1</text>
<text text-anchor="start" x="9" y="-253.3" font-family="Helvetica,sans-Serif" font-size="14.00" fill="#000000">value = [1, 0]</text>
<text text-anchor="start" x="21.5" y="-238.3" font-family="Helvetica,sans-Serif" font-size="14.00" fill="#000000">class = 1</text>
</g>
<!-- 7&#45;&gt;8 -->
<g id="edge8" class="edge">
<title>7&#45;&gt;8</title>
<path fill="none" stroke="#000000" d="M88.8647,-341.8796C83.4128,-330.8835 77.5157,-318.9893 72.0184,-307.9015"/>
<polygon fill="#000000" stroke="#000000" points="75.0911,-306.2195 67.5133,-298.8149 68.8196,-309.3289 75.0911,-306.2195"/>
</g>
<!-- 9 -->
<g id="node10" class="node">
<title>9</title>
<path fill="#399de5" stroke="#000000" d="M208,-298.5C208,-298.5 131,-298.5 131,-298.5 125,-298.5 119,-292.5 119,-286.5 119,-286.5 119,-242.5 119,-242.5 119,-236.5 125,-230.5 131,-230.5 131,-230.5 208,-230.5 208,-230.5 214,-230.5 220,-236.5 220,-242.5 220,-242.5 220,-286.5 220,-286.5 220,-292.5 214,-298.5 208,-298.5"/>
<text text-anchor="start" x="127" y="-283.3" font-family="Helvetica,sans-Serif" font-size="14.00" fill="#000000">entropy = 0.0</text>
<text text-anchor="start" x="130" y="-268.3" font-family="Helvetica,sans-Serif" font-size="14.00" fill="#000000">samples = 3</text>
<text text-anchor="start" x="128" y="-253.3" font-family="Helvetica,sans-Serif" font-size="14.00" fill="#000000">value = [0, 3]</text>
<text text-anchor="start" x="140.5" y="-238.3" font-family="Helvetica,sans-Serif" font-size="14.00" fill="#000000">class = 2</text>
</g>
<!-- 7&#45;&gt;9 -->
<g id="edge9" class="edge">
<title>7&#45;&gt;9</title>
<path fill="none" stroke="#000000" d="M130.4851,-341.8796C136.0293,-330.8835 142.0264,-318.9893 147.6169,-307.9015"/>
<polygon fill="#000000" stroke="#000000" points="150.8214,-309.3199 152.1984,-298.8149 144.5709,-306.1684 150.8214,-309.3199"/>
</g>
<!-- 13 -->
<g id="node14" class="node">
<title>13</title>
<path fill="#7bbeee" stroke="#000000" d="M539.5,-544C539.5,-544 435.5,-544 435.5,-544 429.5,-544 423.5,-538 423.5,-532 423.5,-532 423.5,-473 423.5,-473 423.5,-467 429.5,-461 435.5,-461 435.5,-461 539.5,-461 539.5,-461 545.5,-461 551.5,-467 551.5,-473 551.5,-473 551.5,-532 551.5,-532 551.5,-538 545.5,-544 539.5,-544"/>
<text text-anchor="start" x="431.5" y="-528.8" font-family="Helvetica,sans-Serif" font-size="14.00" fill="#000000">MCP.1 ≤ 494.758</text>
<text text-anchor="start" x="436.5" y="-513.8" font-family="Helvetica,sans-Serif" font-size="14.00" fill="#000000">entropy = 0.811</text>
<text text-anchor="start" x="448" y="-498.8" font-family="Helvetica,sans-Serif" font-size="14.00" fill="#000000">samples = 4</text>
<text text-anchor="start" x="446" y="-483.8" font-family="Helvetica,sans-Serif" font-size="14.00" fill="#000000">value = [1, 3]</text>
<text text-anchor="start" x="458.5" y="-468.8" font-family="Helvetica,sans-Serif" font-size="14.00" fill="#000000">class = 2</text>
</g>
<!-- 12&#45;&gt;13 -->
<g id="edge13" class="edge">
<title>12&#45;&gt;13</title>
<path fill="none" stroke="#000000" d="M491.4015,-579.8796C490.9883,-571.6838 490.5499,-562.9891 490.1219,-554.5013"/>
<polygon fill="#000000" stroke="#000000" points="493.6067,-554.1091 489.6075,-544.2981 486.6156,-554.4617 493.6067,-554.1091"/>
</g>
<!-- 16 -->
<g id="node17" class="node">
<title>16</title>
<path fill="#e88f4f" stroke="#000000" d="M703,-544C703,-544 582,-544 582,-544 576,-544 570,-538 570,-532 570,-532 570,-473 570,-473 570,-467 576,-461 582,-461 582,-461 703,-461 703,-461 709,-461 715,-467 715,-473 715,-473 715,-532 715,-532 715,-538 709,-544 703,-544"/>
<text text-anchor="start" x="578" y="-528.8" font-family="Helvetica,sans-Serif" font-size="14.00" fill="#000000">Adiponectin ≤ 6.806</text>
<text text-anchor="start" x="591.5" y="-513.8" font-family="Helvetica,sans-Serif" font-size="14.00" fill="#000000">entropy = 0.469</text>
<text text-anchor="start" x="598.5" y="-498.8" font-family="Helvetica,sans-Serif" font-size="14.00" fill="#000000">samples = 20</text>
<text text-anchor="start" x="597" y="-483.8" font-family="Helvetica,sans-Serif" font-size="14.00" fill="#000000">value = [18, 2]</text>
<text text-anchor="start" x="613.5" y="-468.8" font-family="Helvetica,sans-Serif" font-size="14.00" fill="#000000">class = 1</text>
</g>
<!-- 12&#45;&gt;16 -->
<g id="edge16" class="edge">
<title>12&#45;&gt;16</title>
<path fill="none" stroke="#000000" d="M545.613,-579.8796C557.5225,-570.368 570.2734,-560.1843 582.4844,-550.432"/>
<polygon fill="#000000" stroke="#000000" points="584.7868,-553.0724 590.4165,-544.0969 580.4184,-547.6027 584.7868,-553.0724"/>
</g>
<!-- 14 -->
<g id="node15" class="node">
<title>14</title>
<path fill="#e58139" stroke="#000000" d="M419,-417.5C419,-417.5 342,-417.5 342,-417.5 336,-417.5 330,-411.5 330,-405.5 330,-405.5 330,-361.5 330,-361.5 330,-355.5 336,-349.5 342,-349.5 342,-349.5 419,-349.5 419,-349.5 425,-349.5 431,-355.5 431,-361.5 431,-361.5 431,-405.5 431,-405.5 431,-411.5 425,-417.5 419,-417.5"/>
<text text-anchor="start" x="338" y="-402.3" font-family="Helvetica,sans-Serif" font-size="14.00" fill="#000000">entropy = 0.0</text>
<text text-anchor="start" x="341" y="-387.3" font-family="Helvetica,sans-Serif" font-size="14.00" fill="#000000">samples = 1</text>
<text text-anchor="start" x="339" y="-372.3" font-family="Helvetica,sans-Serif" font-size="14.00" fill="#000000">value = [1, 0]</text>
<text text-anchor="start" x="351.5" y="-357.3" font-family="Helvetica,sans-Serif" font-size="14.00" fill="#000000">class = 1</text>
</g>
<!-- 13&#45;&gt;14 -->
<g id="edge14" class="edge">
<title>13&#45;&gt;14</title>
<path fill="none" stroke="#000000" d="M450.0766,-460.8796C439.7939,-449.4436 428.6377,-437.0363 418.3321,-425.575"/>
<polygon fill="#000000" stroke="#000000" points="420.6435,-422.9108 411.3546,-417.8149 415.4382,-427.5912 420.6435,-422.9108"/>
</g>
<!-- 15 -->
<g id="node16" class="node">
<title>15</title>
<path fill="#399de5" stroke="#000000" d="M538,-417.5C538,-417.5 461,-417.5 461,-417.5 455,-417.5 449,-411.5 449,-405.5 449,-405.5 449,-361.5 449,-361.5 449,-355.5 455,-349.5 461,-349.5 461,-349.5 538,-349.5 538,-349.5 544,-349.5 550,-355.5 550,-361.5 550,-361.5 550,-405.5 550,-405.5 550,-411.5 544,-417.5 538,-417.5"/>
<text text-anchor="start" x="457" y="-402.3" font-family="Helvetica,sans-Serif" font-size="14.00" fill="#000000">entropy = 0.0</text>
<text text-anchor="start" x="460" y="-387.3" font-family="Helvetica,sans-Serif" font-size="14.00" fill="#000000">samples = 3</text>
<text text-anchor="start" x="458" y="-372.3" font-family="Helvetica,sans-Serif" font-size="14.00" fill="#000000">value = [0, 3]</text>
<text text-anchor="start" x="470.5" y="-357.3" font-family="Helvetica,sans-Serif" font-size="14.00" fill="#000000">class = 2</text>
</g>
<!-- 13&#45;&gt;15 -->
<g id="edge15" class="edge">
<title>13&#45;&gt;15</title>
<path fill="none" stroke="#000000" d="M491.697,-460.8796C492.7726,-450.2134 493.9334,-438.7021 495.0225,-427.9015"/>
<polygon fill="#000000" stroke="#000000" points="498.5186,-428.1157 496.0397,-417.8149 491.5539,-427.4133 498.5186,-428.1157"/>
</g>
<!-- 17 -->
<g id="node18" class="node">
<title>17</title>
<path fill="#eca572" stroke="#000000" d="M686.5,-425C686.5,-425 592.5,-425 592.5,-425 586.5,-425 580.5,-419 580.5,-413 580.5,-413 580.5,-354 580.5,-354 580.5,-348 586.5,-342 592.5,-342 592.5,-342 686.5,-342 686.5,-342 692.5,-342 698.5,-348 698.5,-354 698.5,-354 698.5,-413 698.5,-413 698.5,-419 692.5,-425 686.5,-425"/>
<text text-anchor="start" x="590.5" y="-409.8" font-family="Helvetica,sans-Serif" font-size="14.00" fill="#000000">Glucose ≤ 85.0</text>
<text text-anchor="start" x="588.5" y="-394.8" font-family="Helvetica,sans-Serif" font-size="14.00" fill="#000000">entropy = 0.764</text>
<text text-anchor="start" x="600" y="-379.8" font-family="Helvetica,sans-Serif" font-size="14.00" fill="#000000">samples = 9</text>
<text text-anchor="start" x="598" y="-364.8" font-family="Helvetica,sans-Serif" font-size="14.00" fill="#000000">value = [7, 2]</text>
<text text-anchor="start" x="610.5" y="-349.8" font-family="Helvetica,sans-Serif" font-size="14.00" fill="#000000">class = 1</text>
</g>
<!-- 16&#45;&gt;17 -->
<g id="edge17" class="edge">
<title>16&#45;&gt;17</title>
<path fill="none" stroke="#000000" d="M641.4507,-460.8796C641.2441,-452.6838 641.0249,-443.9891 640.811,-435.5013"/>
<polygon fill="#000000" stroke="#000000" points="644.3047,-435.2067 640.5537,-425.2981 637.307,-435.3831 644.3047,-435.2067"/>
</g>
<!-- 24 -->
<g id="node25" class="node">
<title>24</title>
<path fill="#e58139" stroke="#000000" d="M812,-417.5C812,-417.5 729,-417.5 729,-417.5 723,-417.5 717,-411.5 717,-405.5 717,-405.5 717,-361.5 717,-361.5 717,-355.5 723,-349.5 729,-349.5 729,-349.5 812,-349.5 812,-349.5 818,-349.5 824,-355.5 824,-361.5 824,-361.5 824,-405.5 824,-405.5 824,-411.5 818,-417.5 812,-417.5"/>
<text text-anchor="start" x="728" y="-402.3" font-family="Helvetica,sans-Serif" font-size="14.00" fill="#000000">entropy = 0.0</text>
<text text-anchor="start" x="726.5" y="-387.3" font-family="Helvetica,sans-Serif" font-size="14.00" fill="#000000">samples = 11</text>
<text text-anchor="start" x="725" y="-372.3" font-family="Helvetica,sans-Serif" font-size="14.00" fill="#000000">value = [11, 0]</text>
<text text-anchor="start" x="741.5" y="-357.3" font-family="Helvetica,sans-Serif" font-size="14.00" fill="#000000">class = 1</text>
</g>
<!-- 16&#45;&gt;24 -->
<g id="edge24" class="edge">
<title>16&#45;&gt;24</title>
<path fill="none" stroke="#000000" d="M687.2682,-460.8796C699.8056,-449.2237 713.4284,-436.5587 725.953,-424.9148"/>
<polygon fill="#000000" stroke="#000000" points="728.6491,-427.1872 733.5898,-417.8149 723.8828,-422.0605 728.6491,-427.1872"/>
</g>
<!-- 18 -->
<g id="node19" class="node">
<title>18</title>
<path fill="#e58139" stroke="#000000" d="M616,-298.5C616,-298.5 539,-298.5 539,-298.5 533,-298.5 527,-292.5 527,-286.5 527,-286.5 527,-242.5 527,-242.5 527,-236.5 533,-230.5 539,-230.5 539,-230.5 616,-230.5 616,-230.5 622,-230.5 628,-236.5 628,-242.5 628,-242.5 628,-286.5 628,-286.5 628,-292.5 622,-298.5 616,-298.5"/>
<text text-anchor="start" x="535" y="-283.3" font-family="Helvetica,sans-Serif" font-size="14.00" fill="#000000">entropy = 0.0</text>
<text text-anchor="start" x="538" y="-268.3" font-family="Helvetica,sans-Serif" font-size="14.00" fill="#000000">samples = 5</text>
<text text-anchor="start" x="536" y="-253.3" font-family="Helvetica,sans-Serif" font-size="14.00" fill="#000000">value = [5, 0]</text>
<text text-anchor="start" x="548.5" y="-238.3" font-family="Helvetica,sans-Serif" font-size="14.00" fill="#000000">class = 1</text>
</g>
<!-- 17&#45;&gt;18 -->
<g id="edge18" class="edge">
<title>17&#45;&gt;18</title>
<path fill="none" stroke="#000000" d="M617.8154,-341.8796C612.0864,-330.8835 605.8894,-318.9893 600.1126,-307.9015"/>
<polygon fill="#000000" stroke="#000000" points="603.103,-306.0662 595.3784,-298.8149 596.895,-309.3007 603.103,-306.0662"/>
</g>
<!-- 19 -->
<g id="node20" class="node">
<title>19</title>
<path fill="#ffffff" stroke="#000000" d="M745,-306C745,-306 658,-306 658,-306 652,-306 646,-300 646,-294 646,-294 646,-235 646,-235 646,-229 652,-223 658,-223 658,-223 745,-223 745,-223 751,-223 757,-229 757,-235 757,-235 757,-294 757,-294 757,-300 751,-306 745,-306"/>
<text text-anchor="start" x="654" y="-290.8" font-family="Helvetica,sans-Serif" font-size="14.00" fill="#000000">HOMA ≤ 0.798</text>
<text text-anchor="start" x="659" y="-275.8" font-family="Helvetica,sans-Serif" font-size="14.00" fill="#000000">entropy = 1.0</text>
<text text-anchor="start" x="662" y="-260.8" font-family="Helvetica,sans-Serif" font-size="14.00" fill="#000000">samples = 4</text>
<text text-anchor="start" x="660" y="-245.8" font-family="Helvetica,sans-Serif" font-size="14.00" fill="#000000">value = [2, 2]</text>
<text text-anchor="start" x="672.5" y="-230.8" font-family="Helvetica,sans-Serif" font-size="14.00" fill="#000000">class = 1</text>
</g>
<!-- 17&#45;&gt;19 -->
<g id="edge19" class="edge">
<title>17&#45;&gt;19</title>
<path fill="none" stroke="#000000" d="M661.1846,-341.8796C665.6423,-333.3236 670.3834,-324.2238 674.9894,-315.3833"/>
<polygon fill="#000000" stroke="#000000" points="678.2062,-316.7838 679.7229,-306.2981 671.9983,-313.5494 678.2062,-316.7838"/>
</g>
<!-- 20 -->
<g id="node21" class="node">
<title>20</title>
<path fill="#399de5" stroke="#000000" d="M669,-179.5C669,-179.5 592,-179.5 592,-179.5 586,-179.5 580,-173.5 580,-167.5 580,-167.5 580,-123.5 580,-123.5 580,-117.5 586,-111.5 592,-111.5 592,-111.5 669,-111.5 669,-111.5 675,-111.5 681,-117.5 681,-123.5 681,-123.5 681,-167.5 681,-167.5 681,-173.5 675,-179.5 669,-179.5"/>
<text text-anchor="start" x="588" y="-164.3" font-family="Helvetica,sans-Serif" font-size="14.00" fill="#000000">entropy = 0.0</text>
<text text-anchor="start" x="591" y="-149.3" font-family="Helvetica,sans-Serif" font-size="14.00" fill="#000000">samples = 1</text>
<text text-anchor="start" x="589" y="-134.3" font-family="Helvetica,sans-Serif" font-size="14.00" fill="#000000">value = [0, 1]</text>
<text text-anchor="start" x="601.5" y="-119.3" font-family="Helvetica,sans-Serif" font-size="14.00" fill="#000000">class = 2</text>
</g>
<!-- 19&#45;&gt;20 -->
<g id="edge20" class="edge">
<title>19&#45;&gt;20</title>
<path fill="none" stroke="#000000" d="M676.6676,-222.8796C670.0413,-211.7735 662.8684,-199.7513 656.1967,-188.5691"/>
<polygon fill="#000000" stroke="#000000" points="659.1031,-186.6093 650.9736,-179.8149 653.0917,-190.1959 659.1031,-186.6093"/>
</g>
<!-- 21 -->
<g id="node22" class="node">
<title>21</title>
<path fill="#f2c09c" stroke="#000000" d="M832,-187C832,-187 711,-187 711,-187 705,-187 699,-181 699,-175 699,-175 699,-116 699,-116 699,-110 705,-104 711,-104 711,-104 832,-104 832,-104 838,-104 844,-110 844,-116 844,-116 844,-175 844,-175 844,-181 838,-187 832,-187"/>
<text text-anchor="start" x="707" y="-171.8" font-family="Helvetica,sans-Serif" font-size="14.00" fill="#000000">Adiponectin ≤ 5.872</text>
<text text-anchor="start" x="720.5" y="-156.8" font-family="Helvetica,sans-Serif" font-size="14.00" fill="#000000">entropy = 0.918</text>
<text text-anchor="start" x="732" y="-141.8" font-family="Helvetica,sans-Serif" font-size="14.00" fill="#000000">samples = 3</text>
<text text-anchor="start" x="730" y="-126.8" font-family="Helvetica,sans-Serif" font-size="14.00" fill="#000000">value = [2, 1]</text>
<text text-anchor="start" x="742.5" y="-111.8" font-family="Helvetica,sans-Serif" font-size="14.00" fill="#000000">class = 1</text>
</g>
<!-- 19&#45;&gt;21 -->
<g id="edge21" class="edge">
<title>19&#45;&gt;21</title>
<path fill="none" stroke="#000000" d="M725.9826,-222.8796C731.0685,-214.2335 736.4811,-205.0322 741.7328,-196.1042"/>
<polygon fill="#000000" stroke="#000000" points="744.8594,-197.692 746.9129,-187.2981 738.8259,-194.1428 744.8594,-197.692"/>
</g>
<!-- 22 -->
<g id="node23" class="node">
<title>22</title>
<path fill="#e58139" stroke="#000000" d="M751,-68C751,-68 674,-68 674,-68 668,-68 662,-62 662,-56 662,-56 662,-12 662,-12 662,-6 668,0 674,0 674,0 751,0 751,0 757,0 763,-6 763,-12 763,-12 763,-56 763,-56 763,-62 757,-68 751,-68"/>
<text text-anchor="start" x="670" y="-52.8" font-family="Helvetica,sans-Serif" font-size="14.00" fill="#000000">entropy = 0.0</text>
<text text-anchor="start" x="673" y="-37.8" font-family="Helvetica,sans-Serif" font-size="14.00" fill="#000000">samples = 2</text>
<text text-anchor="start" x="671" y="-22.8" font-family="Helvetica,sans-Serif" font-size="14.00" fill="#000000">value = [2, 0]</text>
<text text-anchor="start" x="683.5" y="-7.8" font-family="Helvetica,sans-Serif" font-size="14.00" fill="#000000">class = 1</text>
</g>
<!-- 21&#45;&gt;22 -->
<g id="edge22" class="edge">
<title>21&#45;&gt;22</title>
<path fill="none" stroke="#000000" d="M749.5306,-103.9815C744.9105,-95.2504 740.0264,-86.0202 735.374,-77.2281"/>
<polygon fill="#000000" stroke="#000000" points="738.4013,-75.4655 730.6306,-68.2637 732.2141,-78.7395 738.4013,-75.4655"/>
</g>
<!-- 23 -->
<g id="node24" class="node">
<title>23</title>
<path fill="#399de5" stroke="#000000" d="M870,-68C870,-68 793,-68 793,-68 787,-68 781,-62 781,-56 781,-56 781,-12 781,-12 781,-6 787,0 793,0 793,0 870,0 870,0 876,0 882,-6 882,-12 882,-12 882,-56 882,-56 882,-62 876,-68 870,-68"/>
<text text-anchor="start" x="789" y="-52.8" font-family="Helvetica,sans-Serif" font-size="14.00" fill="#000000">entropy = 0.0</text>
<text text-anchor="start" x="792" y="-37.8" font-family="Helvetica,sans-Serif" font-size="14.00" fill="#000000">samples = 1</text>
<text text-anchor="start" x="790" y="-22.8" font-family="Helvetica,sans-Serif" font-size="14.00" fill="#000000">value = [0, 1]</text>
<text text-anchor="start" x="802.5" y="-7.8" font-family="Helvetica,sans-Serif" font-size="14.00" fill="#000000">class = 2</text>
</g>
<!-- 21&#45;&gt;23 -->
<g id="edge23" class="edge">
<title>21&#45;&gt;23</title>
<path fill="none" stroke="#000000" d="M793.8418,-103.9815C798.5402,-95.2504 803.5071,-86.0202 808.2383,-77.2281"/>
<polygon fill="#000000" stroke="#000000" points="811.4056,-78.7282 813.0621,-68.2637 805.2414,-75.4111 811.4056,-78.7282"/>
</g>
<!-- 27 -->
<g id="node28" class="node">
<title>27</title>
<path fill="#e58139" stroke="#000000" d="M793,-893.5C793,-893.5 716,-893.5 716,-893.5 710,-893.5 704,-887.5 704,-881.5 704,-881.5 704,-837.5 704,-837.5 704,-831.5 710,-825.5 716,-825.5 716,-825.5 793,-825.5 793,-825.5 799,-825.5 805,-831.5 805,-837.5 805,-837.5 805,-881.5 805,-881.5 805,-887.5 799,-893.5 793,-893.5"/>
<text text-anchor="start" x="712" y="-878.3" font-family="Helvetica,sans-Serif" font-size="14.00" fill="#000000">entropy = 0.0</text>
<text text-anchor="start" x="715" y="-863.3" font-family="Helvetica,sans-Serif" font-size="14.00" fill="#000000">samples = 2</text>
<text text-anchor="start" x="713" y="-848.3" font-family="Helvetica,sans-Serif" font-size="14.00" fill="#000000">value = [2, 0]</text>
<text text-anchor="start" x="725.5" y="-833.3" font-family="Helvetica,sans-Serif" font-size="14.00" fill="#000000">class = 1</text>
</g>
<!-- 26&#45;&gt;27 -->
<g id="edge27" class="edge">
<title>26&#45;&gt;27</title>
<path fill="none" stroke="#000000" d="M754.5,-936.8796C754.5,-926.2134 754.5,-914.7021 754.5,-903.9015"/>
<polygon fill="#000000" stroke="#000000" points="758.0001,-903.8149 754.5,-893.8149 751.0001,-903.815 758.0001,-903.8149"/>
</g>
<!-- 28 -->
<g id="node29" class="node">
<title>28</title>
<path fill="#57ace9" stroke="#000000" d="M956,-901C956,-901 835,-901 835,-901 829,-901 823,-895 823,-889 823,-889 823,-830 823,-830 823,-824 829,-818 835,-818 835,-818 956,-818 956,-818 962,-818 968,-824 968,-830 968,-830 968,-889 968,-889 968,-895 962,-901 956,-901"/>
<text text-anchor="start" x="831" y="-885.8" font-family="Helvetica,sans-Serif" font-size="14.00" fill="#000000">Adiponectin ≤ 7.721</text>
<text text-anchor="start" x="844.5" y="-870.8" font-family="Helvetica,sans-Serif" font-size="14.00" fill="#000000">entropy = 0.567</text>
<text text-anchor="start" x="851.5" y="-855.8" font-family="Helvetica,sans-Serif" font-size="14.00" fill="#000000">samples = 30</text>
<text text-anchor="start" x="850" y="-840.8" font-family="Helvetica,sans-Serif" font-size="14.00" fill="#000000">value = [4, 26]</text>
<text text-anchor="start" x="866.5" y="-825.8" font-family="Helvetica,sans-Serif" font-size="14.00" fill="#000000">class = 2</text>
</g>
<!-- 26&#45;&gt;28 -->
<g id="edge28" class="edge">
<title>26&#45;&gt;28</title>
<path fill="none" stroke="#000000" d="M803.815,-936.8796C814.9132,-927.513 826.7835,-917.4948 838.1777,-907.8784"/>
<polygon fill="#000000" stroke="#000000" points="840.5899,-910.4225 845.9746,-901.2981 836.075,-905.0731 840.5899,-910.4225"/>
</g>
<!-- 29 -->
<g id="node30" class="node">
<title>29</title>
<path fill="#91c9f1" stroke="#000000" d="M941.5,-782C941.5,-782 849.5,-782 849.5,-782 843.5,-782 837.5,-776 837.5,-770 837.5,-770 837.5,-711 837.5,-711 837.5,-705 843.5,-699 849.5,-699 849.5,-699 941.5,-699 941.5,-699 947.5,-699 953.5,-705 953.5,-711 953.5,-711 953.5,-770 953.5,-770 953.5,-776 947.5,-782 941.5,-782"/>
<text text-anchor="start" x="845.5" y="-766.8" font-family="Helvetica,sans-Serif" font-size="14.00" fill="#000000">Leptin ≤ 64.103</text>
<text text-anchor="start" x="848.5" y="-751.8" font-family="Helvetica,sans-Serif" font-size="14.00" fill="#000000">entropy = 0.89</text>
<text text-anchor="start" x="851.5" y="-736.8" font-family="Helvetica,sans-Serif" font-size="14.00" fill="#000000">samples = 13</text>
<text text-anchor="start" x="854" y="-721.8" font-family="Helvetica,sans-Serif" font-size="14.00" fill="#000000">value = [4, 9]</text>
<text text-anchor="start" x="866.5" y="-706.8" font-family="Helvetica,sans-Serif" font-size="14.00" fill="#000000">class = 2</text>
</g>
<!-- 28&#45;&gt;29 -->
<g id="edge29" class="edge">
<title>28&#45;&gt;29</title>
<path fill="none" stroke="#000000" d="M895.5,-817.8796C895.5,-809.6838 895.5,-800.9891 895.5,-792.5013"/>
<polygon fill="#000000" stroke="#000000" points="899.0001,-792.298 895.5,-782.2981 892.0001,-792.2981 899.0001,-792.298"/>
</g>
<!-- 36 -->
<g id="node37" class="node">
<title>36</title>
<path fill="#399de5" stroke="#000000" d="M1067,-774.5C1067,-774.5 984,-774.5 984,-774.5 978,-774.5 972,-768.5 972,-762.5 972,-762.5 972,-718.5 972,-718.5 972,-712.5 978,-706.5 984,-706.5 984,-706.5 1067,-706.5 1067,-706.5 1073,-706.5 1079,-712.5 1079,-718.5 1079,-718.5 1079,-762.5 1079,-762.5 1079,-768.5 1073,-774.5 1067,-774.5"/>
<text text-anchor="start" x="983" y="-759.3" font-family="Helvetica,sans-Serif" font-size="14.00" fill="#000000">entropy = 0.0</text>
<text text-anchor="start" x="981.5" y="-744.3" font-family="Helvetica,sans-Serif" font-size="14.00" fill="#000000">samples = 17</text>
<text text-anchor="start" x="980" y="-729.3" font-family="Helvetica,sans-Serif" font-size="14.00" fill="#000000">value = [0, 17]</text>
<text text-anchor="start" x="996.5" y="-714.3" font-family="Helvetica,sans-Serif" font-size="14.00" fill="#000000">class = 2</text>
</g>
<!-- 28&#45;&gt;36 -->
<g id="edge36" class="edge">
<title>28&#45;&gt;36</title>
<path fill="none" stroke="#000000" d="M940.9677,-817.8796C953.8211,-806.1138 967.7979,-793.3197 980.6166,-781.5855"/>
<polygon fill="#000000" stroke="#000000" points="983.0001,-784.1488 988.0131,-774.8149 978.2736,-778.9854 983.0001,-784.1488"/>
</g>
<!-- 30 -->
<g id="node31" class="node">
<title>30</title>
<path fill="#65b3eb" stroke="#000000" d="M945.5,-663C945.5,-663 841.5,-663 841.5,-663 835.5,-663 829.5,-657 829.5,-651 829.5,-651 829.5,-592 829.5,-592 829.5,-586 835.5,-580 841.5,-580 841.5,-580 945.5,-580 945.5,-580 951.5,-580 957.5,-586 957.5,-592 957.5,-592 957.5,-651 957.5,-651 957.5,-657 951.5,-663 945.5,-663"/>
<text text-anchor="start" x="837.5" y="-647.8" font-family="Helvetica,sans-Serif" font-size="14.00" fill="#000000">Resistin ≤ 13.741</text>
<text text-anchor="start" x="842.5" y="-632.8" font-family="Helvetica,sans-Serif" font-size="14.00" fill="#000000">entropy = 0.684</text>
<text text-anchor="start" x="849.5" y="-617.8" font-family="Helvetica,sans-Serif" font-size="14.00" fill="#000000">samples = 11</text>
<text text-anchor="start" x="852" y="-602.8" font-family="Helvetica,sans-Serif" font-size="14.00" fill="#000000">value = [2, 9]</text>
<text text-anchor="start" x="864.5" y="-587.8" font-family="Helvetica,sans-Serif" font-size="14.00" fill="#000000">class = 2</text>
</g>
<!-- 29&#45;&gt;30 -->
<g id="edge30" class="edge">
<title>29&#45;&gt;30</title>
<path fill="none" stroke="#000000" d="M894.8005,-698.8796C894.6628,-690.6838 894.5166,-681.9891 894.374,-673.5013"/>
<polygon fill="#000000" stroke="#000000" points="897.8701,-673.2378 894.2025,-663.2981 890.8711,-673.3555 897.8701,-673.2378"/>
</g>
<!-- 35 -->
<g id="node36" class="node">
<title>35</title>
<path fill="#e58139" stroke="#000000" d="M1065,-655.5C1065,-655.5 988,-655.5 988,-655.5 982,-655.5 976,-649.5 976,-643.5 976,-643.5 976,-599.5 976,-599.5 976,-593.5 982,-587.5 988,-587.5 988,-587.5 1065,-587.5 1065,-587.5 1071,-587.5 1077,-593.5 1077,-599.5 1077,-599.5 1077,-643.5 1077,-643.5 1077,-649.5 1071,-655.5 1065,-655.5"/>
<text text-anchor="start" x="984" y="-640.3" font-family="Helvetica,sans-Serif" font-size="14.00" fill="#000000">entropy = 0.0</text>
<text text-anchor="start" x="987" y="-625.3" font-family="Helvetica,sans-Serif" font-size="14.00" fill="#000000">samples = 2</text>
<text text-anchor="start" x="985" y="-610.3" font-family="Helvetica,sans-Serif" font-size="14.00" fill="#000000">value = [2, 0]</text>
<text text-anchor="start" x="997.5" y="-595.3" font-family="Helvetica,sans-Serif" font-size="14.00" fill="#000000">class = 1</text>
</g>
<!-- 29&#45;&gt;35 -->
<g id="edge35" class="edge">
<title>29&#45;&gt;35</title>
<path fill="none" stroke="#000000" d="M941.3174,-698.8796C954.2697,-687.1138 968.354,-674.3197 981.2714,-662.5855"/>
<polygon fill="#000000" stroke="#000000" points="983.6761,-665.1296 988.7247,-655.8149 978.9694,-659.9482 983.6761,-665.1296"/>
</g>
<!-- 31 -->
<g id="node32" class="node">
<title>31</title>
<path fill="#ffffff" stroke="#000000" d="M940.5,-544C940.5,-544 844.5,-544 844.5,-544 838.5,-544 832.5,-538 832.5,-532 832.5,-532 832.5,-473 832.5,-473 832.5,-467 838.5,-461 844.5,-461 844.5,-461 940.5,-461 940.5,-461 946.5,-461 952.5,-467 952.5,-473 952.5,-473 952.5,-532 952.5,-532 952.5,-538 946.5,-544 940.5,-544"/>
<text text-anchor="start" x="840.5" y="-528.8" font-family="Helvetica,sans-Serif" font-size="14.00" fill="#000000">Resistin ≤ 8.349</text>
<text text-anchor="start" x="850" y="-513.8" font-family="Helvetica,sans-Serif" font-size="14.00" fill="#000000">entropy = 1.0</text>
<text text-anchor="start" x="853" y="-498.8" font-family="Helvetica,sans-Serif" font-size="14.00" fill="#000000">samples = 4</text>
<text text-anchor="start" x="851" y="-483.8" font-family="Helvetica,sans-Serif" font-size="14.00" fill="#000000">value = [2, 2]</text>
<text text-anchor="start" x="863.5" y="-468.8" font-family="Helvetica,sans-Serif" font-size="14.00" fill="#000000">class = 1</text>
</g>
<!-- 30&#45;&gt;31 -->
<g id="edge31" class="edge">
<title>30&#45;&gt;31</title>
<path fill="none" stroke="#000000" d="M893.1502,-579.8796C893.0814,-571.6838 893.0083,-562.9891 892.937,-554.5013"/>
<polygon fill="#000000" stroke="#000000" points="896.4352,-554.2683 892.8512,-544.2981 889.4355,-554.3272 896.4352,-554.2683"/>
</g>
<!-- 34 -->
<g id="node35" class="node">
<title>34</title>
<path fill="#399de5" stroke="#000000" d="M1060,-536.5C1060,-536.5 983,-536.5 983,-536.5 977,-536.5 971,-530.5 971,-524.5 971,-524.5 971,-480.5 971,-480.5 971,-474.5 977,-468.5 983,-468.5 983,-468.5 1060,-468.5 1060,-468.5 1066,-468.5 1072,-474.5 1072,-480.5 1072,-480.5 1072,-524.5 1072,-524.5 1072,-530.5 1066,-536.5 1060,-536.5"/>
<text text-anchor="start" x="979" y="-521.3" font-family="Helvetica,sans-Serif" font-size="14.00" fill="#000000">entropy = 0.0</text>
<text text-anchor="start" x="982" y="-506.3" font-family="Helvetica,sans-Serif" font-size="14.00" fill="#000000">samples = 7</text>
<text text-anchor="start" x="980" y="-491.3" font-family="Helvetica,sans-Serif" font-size="14.00" fill="#000000">value = [0, 7]</text>
<text text-anchor="start" x="992.5" y="-476.3" font-family="Helvetica,sans-Serif" font-size="14.00" fill="#000000">class = 2</text>
</g>
<!-- 30&#45;&gt;34 -->
<g id="edge34" class="edge">
<title>30&#45;&gt;34</title>
<path fill="none" stroke="#000000" d="M938.2682,-579.8796C950.8056,-568.2237 964.4284,-555.5587 976.953,-543.9148"/>
<polygon fill="#000000" stroke="#000000" points="979.6491,-546.1872 984.5898,-536.8149 974.8828,-541.0605 979.6491,-546.1872"/>
</g>
<!-- 32 -->
<g id="node33" class="node">
<title>32</title>
<path fill="#399de5" stroke="#000000" d="M931,-417.5C931,-417.5 854,-417.5 854,-417.5 848,-417.5 842,-411.5 842,-405.5 842,-405.5 842,-361.5 842,-361.5 842,-355.5 848,-349.5 854,-349.5 854,-349.5 931,-349.5 931,-349.5 937,-349.5 943,-355.5 943,-361.5 943,-361.5 943,-405.5 943,-405.5 943,-411.5 937,-417.5 931,-417.5"/>
<text text-anchor="start" x="850" y="-402.3" font-family="Helvetica,sans-Serif" font-size="14.00" fill="#000000">entropy = 0.0</text>
<text text-anchor="start" x="853" y="-387.3" font-family="Helvetica,sans-Serif" font-size="14.00" fill="#000000">samples = 2</text>
<text text-anchor="start" x="851" y="-372.3" font-family="Helvetica,sans-Serif" font-size="14.00" fill="#000000">value = [0, 2]</text>
<text text-anchor="start" x="863.5" y="-357.3" font-family="Helvetica,sans-Serif" font-size="14.00" fill="#000000">class = 2</text>
</g>
<!-- 31&#45;&gt;32 -->
<g id="edge32" class="edge">
<title>31&#45;&gt;32</title>
<path fill="none" stroke="#000000" d="M892.5,-460.8796C892.5,-450.2134 892.5,-438.7021 892.5,-427.9015"/>
<polygon fill="#000000" stroke="#000000" points="896.0001,-427.8149 892.5,-417.8149 889.0001,-427.815 896.0001,-427.8149"/>
</g>
<!-- 33 -->
<g id="node34" class="node">
<title>33</title>
<path fill="#e58139" stroke="#000000" d="M1050,-417.5C1050,-417.5 973,-417.5 973,-417.5 967,-417.5 961,-411.5 961,-405.5 961,-405.5 961,-361.5 961,-361.5 961,-355.5 967,-349.5 973,-349.5 973,-349.5 1050,-349.5 1050,-349.5 1056,-349.5 1062,-355.5 1062,-361.5 1062,-361.5 1062,-405.5 1062,-405.5 1062,-411.5 1056,-417.5 1050,-417.5"/>
<text text-anchor="start" x="969" y="-402.3" font-family="Helvetica,sans-Serif" font-size="14.00" fill="#000000">entropy = 0.0</text>
<text text-anchor="start" x="972" y="-387.3" font-family="Helvetica,sans-Serif" font-size="14.00" fill="#000000">samples = 2</text>
<text text-anchor="start" x="970" y="-372.3" font-family="Helvetica,sans-Serif" font-size="14.00" fill="#000000">value = [2, 0]</text>
<text text-anchor="start" x="982.5" y="-357.3" font-family="Helvetica,sans-Serif" font-size="14.00" fill="#000000">class = 1</text>
</g>
<!-- 31&#45;&gt;33 -->
<g id="edge33" class="edge">
<title>31&#45;&gt;33</title>
<path fill="none" stroke="#000000" d="M934.1204,-460.8796C945.7763,-449.2237 958.4413,-436.5587 970.0852,-424.9148"/>
<polygon fill="#000000" stroke="#000000" points="972.5889,-427.3609 977.1851,-417.8149 967.6391,-422.4111 972.5889,-427.3609"/>
</g>
</g>
</svg>
