<?xml version="1.0" encoding="UTF-8" standalone="no"?>
<!DOCTYPE svg PUBLIC "-//W3C//DTD SVG 1.1//EN"
 "http://www.w3.org/Graphics/SVG/1.1/DTD/svg11.dtd">
<!-- Generated by graphviz version 2.40.1 (20161225.0304)
 -->
<!-- Title: Tree Pages: 1 -->
<svg width="1103pt" height="909pt"
 viewBox="0.00 0.00 1103.00 909.00" xmlns="http://www.w3.org/2000/svg" xmlns:xlink="http://www.w3.org/1999/xlink">
<g id="graph0" class="graph" transform="scale(1 1) rotate(0) translate(4 905)">
<title>Tree</title>
<polygon fill="#ffffff" stroke="transparent" points="-4,4 -4,-905 1099,-905 1099,4 -4,4"/>
<!-- 0 -->
<g id="node1" class="node">
<title>0</title>
<path fill="#fafdfe" stroke="#000000" d="M658.5,-901C658.5,-901 566.5,-901 566.5,-901 560.5,-901 554.5,-895 554.5,-889 554.5,-889 554.5,-830 554.5,-830 554.5,-824 560.5,-818 566.5,-818 566.5,-818 658.5,-818 658.5,-818 664.5,-818 670.5,-824 670.5,-830 670.5,-830 670.5,-889 670.5,-889 670.5,-895 664.5,-901 658.5,-901"/>
<text text-anchor="start" x="563.5" y="-885.8" font-family="Helvetica,sans-Serif" font-size="14.00" fill="#000000">Glucose ≤ 96.5</text>
<text text-anchor="start" x="583" y="-870.8" font-family="Helvetica,sans-Serif" font-size="14.00" fill="#000000">gini = 0.5</text>
<text text-anchor="start" x="568.5" y="-855.8" font-family="Helvetica,sans-Serif" font-size="14.00" fill="#000000">samples = 81</text>
<text text-anchor="start" x="562.5" y="-840.8" font-family="Helvetica,sans-Serif" font-size="14.00" fill="#000000">value = [40, 41]</text>
<text text-anchor="start" x="583.5" y="-825.8" font-family="Helvetica,sans-Serif" font-size="14.00" fill="#000000">class = 2</text>
</g>
<!-- 1 -->
<g id="node2" class="node">
<title>1</title>
<path fill="#f0b990" stroke="#000000" d="M596.5,-782C596.5,-782 492.5,-782 492.5,-782 486.5,-782 480.5,-776 480.5,-770 480.5,-770 480.5,-711 480.5,-711 480.5,-705 486.5,-699 492.5,-699 492.5,-699 596.5,-699 596.5,-699 602.5,-699 608.5,-705 608.5,-711 608.5,-711 608.5,-770 608.5,-770 608.5,-776 602.5,-782 596.5,-782"/>
<text text-anchor="start" x="488.5" y="-766.8" font-family="Helvetica,sans-Serif" font-size="14.00" fill="#000000">Resistin ≤ 13.248</text>
<text text-anchor="start" x="506.5" y="-751.8" font-family="Helvetica,sans-Serif" font-size="14.00" fill="#000000">gini = 0.425</text>
<text text-anchor="start" x="500.5" y="-736.8" font-family="Helvetica,sans-Serif" font-size="14.00" fill="#000000">samples = 49</text>
<text text-anchor="start" x="494.5" y="-721.8" font-family="Helvetica,sans-Serif" font-size="14.00" fill="#000000">value = [34, 15]</text>
<text text-anchor="start" x="515.5" y="-706.8" font-family="Helvetica,sans-Serif" font-size="14.00" fill="#000000">class = 1</text>
</g>
<!-- 0&#45;&gt;1 -->
<g id="edge1" class="edge">
<title>0&#45;&gt;1</title>
<path fill="none" stroke="#000000" d="M588.7169,-817.8796C583.7763,-809.2335 578.5184,-800.0322 573.4167,-791.1042"/>
<polygon fill="#000000" stroke="#000000" points="576.3849,-789.244 568.3846,-782.2981 570.3072,-792.717 576.3849,-789.244"/>
<text text-anchor="middle" x="561.8067" y="-802.7172" font-family="Helvetica,sans-Serif" font-size="14.00" fill="#000000">True</text>
</g>
<!-- 18 -->
<g id="node19" class="node">
<title>18</title>
<path fill="#67b4eb" stroke="#000000" d="M722.5,-782C722.5,-782 638.5,-782 638.5,-782 632.5,-782 626.5,-776 626.5,-770 626.5,-770 626.5,-711 626.5,-711 626.5,-705 632.5,-699 638.5,-699 638.5,-699 722.5,-699 722.5,-699 728.5,-699 734.5,-705 734.5,-711 734.5,-711 734.5,-770 734.5,-770 734.5,-776 728.5,-782 722.5,-782"/>
<text text-anchor="start" x="634.5" y="-766.8" font-family="Helvetica,sans-Serif" font-size="14.00" fill="#000000">Leptin ≤ 6.059</text>
<text text-anchor="start" x="642.5" y="-751.8" font-family="Helvetica,sans-Serif" font-size="14.00" fill="#000000">gini = 0.305</text>
<text text-anchor="start" x="636.5" y="-736.8" font-family="Helvetica,sans-Serif" font-size="14.00" fill="#000000">samples = 32</text>
<text text-anchor="start" x="635" y="-721.8" font-family="Helvetica,sans-Serif" font-size="14.00" fill="#000000">value = [6, 26]</text>
<text text-anchor="start" x="651.5" y="-706.8" font-family="Helvetica,sans-Serif" font-size="14.00" fill="#000000">class = 2</text>
</g>
<!-- 0&#45;&gt;18 -->
<g id="edge18" class="edge">
<title>0&#45;&gt;18</title>
<path fill="none" stroke="#000000" d="M636.2831,-817.8796C641.2237,-809.2335 646.4816,-800.0322 651.5833,-791.1042"/>
<polygon fill="#000000" stroke="#000000" points="654.6928,-792.717 656.6154,-782.2981 648.6151,-789.244 654.6928,-792.717"/>
<text text-anchor="middle" x="663.1933" y="-802.7172" font-family="Helvetica,sans-Serif" font-size="14.00" fill="#000000">False</text>
</g>
<!-- 2 -->
<g id="node3" class="node">
<title>2</title>
<path fill="#eb9d65" stroke="#000000" d="M465,-663C465,-663 378,-663 378,-663 372,-663 366,-657 366,-651 366,-651 366,-592 366,-592 366,-586 372,-580 378,-580 378,-580 465,-580 465,-580 471,-580 477,-586 477,-592 477,-592 477,-651 477,-651 477,-657 471,-663 465,-663"/>
<text text-anchor="start" x="374" y="-647.8" font-family="Helvetica,sans-Serif" font-size="14.00" fill="#000000">HOMA ≤ 3.519</text>
<text text-anchor="start" x="383.5" y="-632.8" font-family="Helvetica,sans-Serif" font-size="14.00" fill="#000000">gini = 0.298</text>
<text text-anchor="start" x="377.5" y="-617.8" font-family="Helvetica,sans-Serif" font-size="14.00" fill="#000000">samples = 33</text>
<text text-anchor="start" x="376" y="-602.8" font-family="Helvetica,sans-Serif" font-size="14.00" fill="#000000">value = [27, 6]</text>
<text text-anchor="start" x="392.5" y="-587.8" font-family="Helvetica,sans-Serif" font-size="14.00" fill="#000000">class = 1</text>
</g>
<!-- 1&#45;&gt;2 -->
<g id="edge2" class="edge">
<title>1&#45;&gt;2</title>
<path fill="none" stroke="#000000" d="M501.4806,-698.8796C491.9853,-689.6931 481.8422,-679.8798 472.0785,-670.4336"/>
<polygon fill="#000000" stroke="#000000" points="474.3237,-667.7359 464.703,-663.2981 469.4564,-672.7668 474.3237,-667.7359"/>
</g>
<!-- 15 -->
<g id="node16" class="node">
<title>15</title>
<path fill="#d3e9f9" stroke="#000000" d="M587.5,-663C587.5,-663 507.5,-663 507.5,-663 501.5,-663 495.5,-657 495.5,-651 495.5,-651 495.5,-592 495.5,-592 495.5,-586 501.5,-580 507.5,-580 507.5,-580 587.5,-580 587.5,-580 593.5,-580 599.5,-586 599.5,-592 599.5,-592 599.5,-651 599.5,-651 599.5,-657 593.5,-663 587.5,-663"/>
<text text-anchor="start" x="504.5" y="-647.8" font-family="Helvetica,sans-Serif" font-size="14.00" fill="#000000">BMI ≤ 29.972</text>
<text text-anchor="start" x="509.5" y="-632.8" font-family="Helvetica,sans-Serif" font-size="14.00" fill="#000000">gini = 0.492</text>
<text text-anchor="start" x="503.5" y="-617.8" font-family="Helvetica,sans-Serif" font-size="14.00" fill="#000000">samples = 16</text>
<text text-anchor="start" x="506" y="-602.8" font-family="Helvetica,sans-Serif" font-size="14.00" fill="#000000">value = [7, 9]</text>
<text text-anchor="start" x="518.5" y="-587.8" font-family="Helvetica,sans-Serif" font-size="14.00" fill="#000000">class = 2</text>
</g>
<!-- 1&#45;&gt;15 -->
<g id="edge15" class="edge">
<title>1&#45;&gt;15</title>
<path fill="none" stroke="#000000" d="M545.5493,-698.8796C545.7559,-690.6838 545.9751,-681.9891 546.189,-673.5013"/>
<polygon fill="#000000" stroke="#000000" points="549.693,-673.3831 546.4463,-663.2981 542.6953,-673.2067 549.693,-673.3831"/>
</g>
<!-- 3 -->
<g id="node4" class="node">
<title>3</title>
<path fill="#e99456" stroke="#000000" d="M344.5,-544C344.5,-544 260.5,-544 260.5,-544 254.5,-544 248.5,-538 248.5,-532 248.5,-532 248.5,-473 248.5,-473 248.5,-467 254.5,-461 260.5,-461 260.5,-461 344.5,-461 344.5,-461 350.5,-461 356.5,-467 356.5,-473 356.5,-473 356.5,-532 356.5,-532 356.5,-538 350.5,-544 344.5,-544"/>
<text text-anchor="start" x="256.5" y="-528.8" font-family="Helvetica,sans-Serif" font-size="14.00" fill="#000000">Leptin ≤ 47.33</text>
<text text-anchor="start" x="264.5" y="-513.8" font-family="Helvetica,sans-Serif" font-size="14.00" fill="#000000">gini = 0.225</text>
<text text-anchor="start" x="258.5" y="-498.8" font-family="Helvetica,sans-Serif" font-size="14.00" fill="#000000">samples = 31</text>
<text text-anchor="start" x="257" y="-483.8" font-family="Helvetica,sans-Serif" font-size="14.00" fill="#000000">value = [27, 4]</text>
<text text-anchor="start" x="273.5" y="-468.8" font-family="Helvetica,sans-Serif" font-size="14.00" fill="#000000">class = 1</text>
</g>
<!-- 2&#45;&gt;3 -->
<g id="edge3" class="edge">
<title>2&#45;&gt;3</title>
<path fill="none" stroke="#000000" d="M379.8796,-579.8796C370.6931,-570.6931 360.8798,-560.8798 351.4336,-551.4336"/>
<polygon fill="#000000" stroke="#000000" points="353.8441,-548.8943 344.2981,-544.2981 348.8943,-553.8441 353.8441,-548.8943"/>
</g>
<!-- 14 -->
<g id="node15" class="node">
<title>14</title>
<path fill="#399de5" stroke="#000000" d="M462,-536.5C462,-536.5 387,-536.5 387,-536.5 381,-536.5 375,-530.5 375,-524.5 375,-524.5 375,-480.5 375,-480.5 375,-474.5 381,-468.5 387,-468.5 387,-468.5 462,-468.5 462,-468.5 468,-468.5 474,-474.5 474,-480.5 474,-480.5 474,-524.5 474,-524.5 474,-530.5 468,-536.5 462,-536.5"/>
<text text-anchor="start" x="395" y="-521.3" font-family="Helvetica,sans-Serif" font-size="14.00" fill="#000000">gini = 0.0</text>
<text text-anchor="start" x="385" y="-506.3" font-family="Helvetica,sans-Serif" font-size="14.00" fill="#000000">samples = 2</text>
<text text-anchor="start" x="383" y="-491.3" font-family="Helvetica,sans-Serif" font-size="14.00" fill="#000000">value = [0, 2]</text>
<text text-anchor="start" x="395.5" y="-476.3" font-family="Helvetica,sans-Serif" font-size="14.00" fill="#000000">class = 2</text>
</g>
<!-- 2&#45;&gt;14 -->
<g id="edge14" class="edge">
<title>2&#45;&gt;14</title>
<path fill="none" stroke="#000000" d="M422.5493,-579.8796C422.8182,-569.2134 423.1084,-557.7021 423.3806,-546.9015"/>
<polygon fill="#000000" stroke="#000000" points="426.8817,-546.9 423.6349,-536.8149 419.8839,-546.7235 426.8817,-546.9"/>
</g>
<!-- 4 -->
<g id="node5" class="node">
<title>4</title>
<path fill="#e88f4f" stroke="#000000" d="M288.5,-425C288.5,-425 184.5,-425 184.5,-425 178.5,-425 172.5,-419 172.5,-413 172.5,-413 172.5,-354 172.5,-354 172.5,-348 178.5,-342 184.5,-342 184.5,-342 288.5,-342 288.5,-342 294.5,-342 300.5,-348 300.5,-354 300.5,-354 300.5,-413 300.5,-413 300.5,-419 294.5,-425 288.5,-425"/>
<text text-anchor="start" x="180.5" y="-409.8" font-family="Helvetica,sans-Serif" font-size="14.00" fill="#000000">MCP.1 ≤ 209.469</text>
<text text-anchor="start" x="203" y="-394.8" font-family="Helvetica,sans-Serif" font-size="14.00" fill="#000000">gini = 0.18</text>
<text text-anchor="start" x="192.5" y="-379.8" font-family="Helvetica,sans-Serif" font-size="14.00" fill="#000000">samples = 30</text>
<text text-anchor="start" x="191" y="-364.8" font-family="Helvetica,sans-Serif" font-size="14.00" fill="#000000">value = [27, 3]</text>
<text text-anchor="start" x="207.5" y="-349.8" font-family="Helvetica,sans-Serif" font-size="14.00" fill="#000000">class = 1</text>
</g>
<!-- 3&#45;&gt;4 -->
<g id="edge4" class="edge">
<title>3&#45;&gt;4</title>
<path fill="none" stroke="#000000" d="M279.4164,-460.8796C274.6211,-452.2335 269.5178,-443.0322 264.5662,-434.1042"/>
<polygon fill="#000000" stroke="#000000" points="267.5931,-432.3455 259.6821,-425.2981 261.4716,-435.7407 267.5931,-432.3455"/>
</g>
<!-- 13 -->
<g id="node14" class="node">
<title>13</title>
<path fill="#399de5" stroke="#000000" d="M406,-417.5C406,-417.5 331,-417.5 331,-417.5 325,-417.5 319,-411.5 319,-405.5 319,-405.5 319,-361.5 319,-361.5 319,-355.5 325,-349.5 331,-349.5 331,-349.5 406,-349.5 406,-349.5 412,-349.5 418,-355.5 418,-361.5 418,-361.5 418,-405.5 418,-405.5 418,-411.5 412,-417.5 406,-417.5"/>
<text text-anchor="start" x="339" y="-402.3" font-family="Helvetica,sans-Serif" font-size="14.00" fill="#000000">gini = 0.0</text>
<text text-anchor="start" x="329" y="-387.3" font-family="Helvetica,sans-Serif" font-size="14.00" fill="#000000">samples = 1</text>
<text text-anchor="start" x="327" y="-372.3" font-family="Helvetica,sans-Serif" font-size="14.00" fill="#000000">value = [0, 1]</text>
<text text-anchor="start" x="339.5" y="-357.3" font-family="Helvetica,sans-Serif" font-size="14.00" fill="#000000">class = 2</text>
</g>
<!-- 3&#45;&gt;13 -->
<g id="edge13" class="edge">
<title>3&#45;&gt;13</title>
<path fill="none" stroke="#000000" d="M325.5836,-460.8796C331.7433,-449.7735 338.4111,-437.7513 344.6129,-426.5691"/>
<polygon fill="#000000" stroke="#000000" points="347.6787,-428.2576 349.4682,-417.8149 341.5572,-424.8624 347.6787,-428.2576"/>
</g>
<!-- 5 -->
<g id="node6" class="node">
<title>5</title>
<path fill="#f2c09c" stroke="#000000" d="M216,-306C216,-306 95,-306 95,-306 89,-306 83,-300 83,-294 83,-294 83,-235 83,-235 83,-229 89,-223 95,-223 95,-223 216,-223 216,-223 222,-223 228,-229 228,-235 228,-235 228,-294 228,-294 228,-300 222,-306 216,-306"/>
<text text-anchor="start" x="91" y="-290.8" font-family="Helvetica,sans-Serif" font-size="14.00" fill="#000000">Adiponectin ≤ 17.31</text>
<text text-anchor="start" x="117.5" y="-275.8" font-family="Helvetica,sans-Serif" font-size="14.00" fill="#000000">gini = 0.444</text>
<text text-anchor="start" x="116" y="-260.8" font-family="Helvetica,sans-Serif" font-size="14.00" fill="#000000">samples = 6</text>
<text text-anchor="start" x="114" y="-245.8" font-family="Helvetica,sans-Serif" font-size="14.00" fill="#000000">value = [4, 2]</text>
<text text-anchor="start" x="126.5" y="-230.8" font-family="Helvetica,sans-Serif" font-size="14.00" fill="#000000">class = 1</text>
</g>
<!-- 4&#45;&gt;5 -->
<g id="edge5" class="edge">
<title>4&#45;&gt;5</title>
<path fill="none" stroke="#000000" d="M208.1701,-341.8796C202.2237,-333.1434 195.8914,-323.8404 189.755,-314.8253"/>
<polygon fill="#000000" stroke="#000000" points="192.4711,-312.5953 183.9508,-306.2981 186.6844,-316.5342 192.4711,-312.5953"/>
</g>
<!-- 8 -->
<g id="node9" class="node">
<title>8</title>
<path fill="#e68642" stroke="#000000" d="M379,-306C379,-306 258,-306 258,-306 252,-306 246,-300 246,-294 246,-294 246,-235 246,-235 246,-229 252,-223 258,-223 258,-223 379,-223 379,-223 385,-223 391,-229 391,-235 391,-235 391,-294 391,-294 391,-300 385,-306 379,-306"/>
<text text-anchor="start" x="254" y="-290.8" font-family="Helvetica,sans-Serif" font-size="14.00" fill="#000000">Adiponectin ≤ 3.986</text>
<text text-anchor="start" x="285" y="-275.8" font-family="Helvetica,sans-Serif" font-size="14.00" fill="#000000">gini = 0.08</text>
<text text-anchor="start" x="274.5" y="-260.8" font-family="Helvetica,sans-Serif" font-size="14.00" fill="#000000">samples = 24</text>
<text text-anchor="start" x="273" y="-245.8" font-family="Helvetica,sans-Serif" font-size="14.00" fill="#000000">value = [23, 1]</text>
<text text-anchor="start" x="289.5" y="-230.8" font-family="Helvetica,sans-Serif" font-size="14.00" fill="#000000">class = 1</text>
</g>
<!-- 4&#45;&gt;8 -->
<g id="edge8" class="edge">
<title>4&#45;&gt;8</title>
<path fill="none" stroke="#000000" d="M265.1796,-341.8796C271.2615,-333.0534 277.7422,-323.6485 284.0141,-314.5466"/>
<polygon fill="#000000" stroke="#000000" points="286.9059,-316.5184 289.698,-306.2981 281.1418,-312.5465 286.9059,-316.5184"/>
</g>
<!-- 6 -->
<g id="node7" class="node">
<title>6</title>
<path fill="#399de5" stroke="#000000" d="M87,-179.5C87,-179.5 12,-179.5 12,-179.5 6,-179.5 0,-173.5 0,-167.5 0,-167.5 0,-123.5 0,-123.5 0,-117.5 6,-111.5 12,-111.5 12,-111.5 87,-111.5 87,-111.5 93,-111.5 99,-117.5 99,-123.5 99,-123.5 99,-167.5 99,-167.5 99,-173.5 93,-179.5 87,-179.5"/>
<text text-anchor="start" x="20" y="-164.3" font-family="Helvetica,sans-Serif" font-size="14.00" fill="#000000">gini = 0.0</text>
<text text-anchor="start" x="10" y="-149.3" font-family="Helvetica,sans-Serif" font-size="14.00" fill="#000000">samples = 2</text>
<text text-anchor="start" x="8" y="-134.3" font-family="Helvetica,sans-Serif" font-size="14.00" fill="#000000">value = [0, 2]</text>
<text text-anchor="start" x="20.5" y="-119.3" font-family="Helvetica,sans-Serif" font-size="14.00" fill="#000000">class = 2</text>
</g>
<!-- 5&#45;&gt;6 -->
<g id="edge6" class="edge">
<title>5&#45;&gt;6</title>
<path fill="none" stroke="#000000" d="M118.4263,-222.8796C108.2397,-211.4436 97.1878,-199.0363 86.9785,-187.575"/>
<polygon fill="#000000" stroke="#000000" points="89.3312,-184.9541 80.0662,-179.8149 84.1042,-189.6101 89.3312,-184.9541"/>
</g>
<!-- 7 -->
<g id="node8" class="node">
<title>7</title>
<path fill="#e58139" stroke="#000000" d="M204,-179.5C204,-179.5 129,-179.5 129,-179.5 123,-179.5 117,-173.5 117,-167.5 117,-167.5 117,-123.5 117,-123.5 117,-117.5 123,-111.5 129,-111.5 129,-111.5 204,-111.5 204,-111.5 210,-111.5 216,-117.5 216,-123.5 216,-123.5 216,-167.5 216,-167.5 216,-173.5 210,-179.5 204,-179.5"/>
<text text-anchor="start" x="137" y="-164.3" font-family="Helvetica,sans-Serif" font-size="14.00" fill="#000000">gini = 0.0</text>
<text text-anchor="start" x="127" y="-149.3" font-family="Helvetica,sans-Serif" font-size="14.00" fill="#000000">samples = 4</text>
<text text-anchor="start" x="125" y="-134.3" font-family="Helvetica,sans-Serif" font-size="14.00" fill="#000000">value = [4, 0]</text>
<text text-anchor="start" x="137.5" y="-119.3" font-family="Helvetica,sans-Serif" font-size="14.00" fill="#000000">class = 1</text>
</g>
<!-- 5&#45;&gt;7 -->
<g id="edge7" class="edge">
<title>5&#45;&gt;7</title>
<path fill="none" stroke="#000000" d="M159.3473,-222.8796C160.3332,-212.2134 161.3973,-200.7021 162.3957,-189.9015"/>
<polygon fill="#000000" stroke="#000000" points="165.8926,-190.0947 163.328,-179.8149 158.9224,-189.4503 165.8926,-190.0947"/>
</g>
<!-- 9 -->
<g id="node10" class="node">
<title>9</title>
<path fill="#ffffff" stroke="#000000" d="M346.5,-187C346.5,-187 268.5,-187 268.5,-187 262.5,-187 256.5,-181 256.5,-175 256.5,-175 256.5,-116 256.5,-116 256.5,-110 262.5,-104 268.5,-104 268.5,-104 346.5,-104 346.5,-104 352.5,-104 358.5,-110 358.5,-116 358.5,-116 358.5,-175 358.5,-175 358.5,-181 352.5,-187 346.5,-187"/>
<text text-anchor="start" x="264.5" y="-171.8" font-family="Helvetica,sans-Serif" font-size="14.00" fill="#000000">BMI ≤ 25.954</text>
<text text-anchor="start" x="278" y="-156.8" font-family="Helvetica,sans-Serif" font-size="14.00" fill="#000000">gini = 0.5</text>
<text text-anchor="start" x="268" y="-141.8" font-family="Helvetica,sans-Serif" font-size="14.00" fill="#000000">samples = 2</text>
<text text-anchor="start" x="266" y="-126.8" font-family="Helvetica,sans-Serif" font-size="14.00" fill="#000000">value = [1, 1]</text>
<text text-anchor="start" x="278.5" y="-111.8" font-family="Helvetica,sans-Serif" font-size="14.00" fill="#000000">class = 1</text>
</g>
<!-- 8&#45;&gt;9 -->
<g id="edge9" class="edge">
<title>8&#45;&gt;9</title>
<path fill="none" stroke="#000000" d="M314.6527,-222.8796C313.8951,-214.6838 313.0914,-205.9891 312.3068,-197.5013"/>
<polygon fill="#000000" stroke="#000000" points="315.7694,-196.9334 311.3637,-187.2981 308.7991,-197.5778 315.7694,-196.9334"/>
</g>
<!-- 12 -->
<g id="node13" class="node">
<title>12</title>
<path fill="#e58139" stroke="#000000" d="M472,-179.5C472,-179.5 389,-179.5 389,-179.5 383,-179.5 377,-173.5 377,-167.5 377,-167.5 377,-123.5 377,-123.5 377,-117.5 383,-111.5 389,-111.5 389,-111.5 472,-111.5 472,-111.5 478,-111.5 484,-117.5 484,-123.5 484,-123.5 484,-167.5 484,-167.5 484,-173.5 478,-179.5 472,-179.5"/>
<text text-anchor="start" x="401" y="-164.3" font-family="Helvetica,sans-Serif" font-size="14.00" fill="#000000">gini = 0.0</text>
<text text-anchor="start" x="386.5" y="-149.3" font-family="Helvetica,sans-Serif" font-size="14.00" fill="#000000">samples = 22</text>
<text text-anchor="start" x="385" y="-134.3" font-family="Helvetica,sans-Serif" font-size="14.00" fill="#000000">value = [22, 0]</text>
<text text-anchor="start" x="401.5" y="-119.3" font-family="Helvetica,sans-Serif" font-size="14.00" fill="#000000">class = 1</text>
</g>
<!-- 8&#45;&gt;12 -->
<g id="edge12" class="edge">
<title>8&#45;&gt;12</title>
<path fill="none" stroke="#000000" d="M357.6722,-222.8796C368.5389,-211.3337 380.3376,-198.7976 391.2109,-187.2446"/>
<polygon fill="#000000" stroke="#000000" points="393.8986,-189.4958 398.2036,-179.8149 388.8012,-184.6982 393.8986,-189.4958"/>
</g>
<!-- 10 -->
<g id="node11" class="node">
<title>10</title>
<path fill="#399de5" stroke="#000000" d="M287,-68C287,-68 212,-68 212,-68 206,-68 200,-62 200,-56 200,-56 200,-12 200,-12 200,-6 206,0 212,0 212,0 287,0 287,0 293,0 299,-6 299,-12 299,-12 299,-56 299,-56 299,-62 293,-68 287,-68"/>
<text text-anchor="start" x="220" y="-52.8" font-family="Helvetica,sans-Serif" font-size="14.00" fill="#000000">gini = 0.0</text>
<text text-anchor="start" x="210" y="-37.8" font-family="Helvetica,sans-Serif" font-size="14.00" fill="#000000">samples = 1</text>
<text text-anchor="start" x="208" y="-22.8" font-family="Helvetica,sans-Serif" font-size="14.00" fill="#000000">value = [0, 1]</text>
<text text-anchor="start" x="220.5" y="-7.8" font-family="Helvetica,sans-Serif" font-size="14.00" fill="#000000">class = 2</text>
</g>
<!-- 9&#45;&gt;10 -->
<g id="edge10" class="edge">
<title>9&#45;&gt;10</title>
<path fill="none" stroke="#000000" d="M285.9029,-103.9815C281.3612,-95.2504 276.5598,-86.0202 271.9863,-77.2281"/>
<polygon fill="#000000" stroke="#000000" points="275.0431,-75.52 267.3233,-68.2637 268.8331,-78.7504 275.0431,-75.52"/>
</g>
<!-- 11 -->
<g id="node12" class="node">
<title>11</title>
<path fill="#e58139" stroke="#000000" d="M404,-68C404,-68 329,-68 329,-68 323,-68 317,-62 317,-56 317,-56 317,-12 317,-12 317,-6 323,0 329,0 329,0 404,0 404,0 410,0 416,-6 416,-12 416,-12 416,-56 416,-56 416,-62 410,-68 404,-68"/>
<text text-anchor="start" x="337" y="-52.8" font-family="Helvetica,sans-Serif" font-size="14.00" fill="#000000">gini = 0.0</text>
<text text-anchor="start" x="327" y="-37.8" font-family="Helvetica,sans-Serif" font-size="14.00" fill="#000000">samples = 1</text>
<text text-anchor="start" x="325" y="-22.8" font-family="Helvetica,sans-Serif" font-size="14.00" fill="#000000">value = [1, 0]</text>
<text text-anchor="start" x="337.5" y="-7.8" font-family="Helvetica,sans-Serif" font-size="14.00" fill="#000000">class = 1</text>
</g>
<!-- 9&#45;&gt;11 -->
<g id="edge11" class="edge">
<title>9&#45;&gt;11</title>
<path fill="none" stroke="#000000" d="M329.4694,-103.9815C334.0895,-95.2504 338.9736,-86.0202 343.626,-77.2281"/>
<polygon fill="#000000" stroke="#000000" points="346.7859,-78.7395 348.3694,-68.2637 340.5987,-75.4655 346.7859,-78.7395"/>
</g>
<!-- 16 -->
<g id="node17" class="node">
<title>16</title>
<path fill="#399de5" stroke="#000000" d="M583,-536.5C583,-536.5 508,-536.5 508,-536.5 502,-536.5 496,-530.5 496,-524.5 496,-524.5 496,-480.5 496,-480.5 496,-474.5 502,-468.5 508,-468.5 508,-468.5 583,-468.5 583,-468.5 589,-468.5 595,-474.5 595,-480.5 595,-480.5 595,-524.5 595,-524.5 595,-530.5 589,-536.5 583,-536.5"/>
<text text-anchor="start" x="516" y="-521.3" font-family="Helvetica,sans-Serif" font-size="14.00" fill="#000000">gini = 0.0</text>
<text text-anchor="start" x="506" y="-506.3" font-family="Helvetica,sans-Serif" font-size="14.00" fill="#000000">samples = 9</text>
<text text-anchor="start" x="504" y="-491.3" font-family="Helvetica,sans-Serif" font-size="14.00" fill="#000000">value = [0, 9]</text>
<text text-anchor="start" x="516.5" y="-476.3" font-family="Helvetica,sans-Serif" font-size="14.00" fill="#000000">class = 2</text>
</g>
<!-- 15&#45;&gt;16 -->
<g id="edge16" class="edge">
<title>15&#45;&gt;16</title>
<path fill="none" stroke="#000000" d="M546.8005,-579.8796C546.6212,-569.2134 546.4278,-557.7021 546.2462,-546.9015"/>
<polygon fill="#000000" stroke="#000000" points="549.7444,-546.7547 546.0767,-536.8149 542.7454,-546.8724 549.7444,-546.7547"/>
</g>
<!-- 17 -->
<g id="node18" class="node">
<title>17</title>
<path fill="#e58139" stroke="#000000" d="M700,-536.5C700,-536.5 625,-536.5 625,-536.5 619,-536.5 613,-530.5 613,-524.5 613,-524.5 613,-480.5 613,-480.5 613,-474.5 619,-468.5 625,-468.5 625,-468.5 700,-468.5 700,-468.5 706,-468.5 712,-474.5 712,-480.5 712,-480.5 712,-524.5 712,-524.5 712,-530.5 706,-536.5 700,-536.5"/>
<text text-anchor="start" x="633" y="-521.3" font-family="Helvetica,sans-Serif" font-size="14.00" fill="#000000">gini = 0.0</text>
<text text-anchor="start" x="623" y="-506.3" font-family="Helvetica,sans-Serif" font-size="14.00" fill="#000000">samples = 7</text>
<text text-anchor="start" x="621" y="-491.3" font-family="Helvetica,sans-Serif" font-size="14.00" fill="#000000">value = [7, 0]</text>
<text text-anchor="start" x="633.5" y="-476.3" font-family="Helvetica,sans-Serif" font-size="14.00" fill="#000000">class = 1</text>
</g>
<!-- 15&#45;&gt;17 -->
<g id="edge17" class="edge">
<title>15&#45;&gt;17</title>
<path fill="none" stroke="#000000" d="M587.7214,-579.8796C598.8792,-568.3337 610.9939,-555.7976 622.1586,-544.2446"/>
<polygon fill="#000000" stroke="#000000" points="624.9061,-546.4381 629.3385,-536.8149 619.8725,-541.5736 624.9061,-546.4381"/>
</g>
<!-- 19 -->
<g id="node20" class="node">
<title>19</title>
<path fill="#e58139" stroke="#000000" d="M714,-655.5C714,-655.5 639,-655.5 639,-655.5 633,-655.5 627,-649.5 627,-643.5 627,-643.5 627,-599.5 627,-599.5 627,-593.5 633,-587.5 639,-587.5 639,-587.5 714,-587.5 714,-587.5 720,-587.5 726,-593.5 726,-599.5 726,-599.5 726,-643.5 726,-643.5 726,-649.5 720,-655.5 714,-655.5"/>
<text text-anchor="start" x="647" y="-640.3" font-family="Helvetica,sans-Serif" font-size="14.00" fill="#000000">gini = 0.0</text>
<text text-anchor="start" x="637" y="-625.3" font-family="Helvetica,sans-Serif" font-size="14.00" fill="#000000">samples = 2</text>
<text text-anchor="start" x="635" y="-610.3" font-family="Helvetica,sans-Serif" font-size="14.00" fill="#000000">value = [2, 0]</text>
<text text-anchor="start" x="647.5" y="-595.3" font-family="Helvetica,sans-Serif" font-size="14.00" fill="#000000">class = 1</text>
</g>
<!-- 18&#45;&gt;19 -->
<g id="edge19" class="edge">
<title>18&#45;&gt;19</title>
<path fill="none" stroke="#000000" d="M679.101,-698.8796C678.7425,-688.2134 678.3555,-676.7021 677.9925,-665.9015"/>
<polygon fill="#000000" stroke="#000000" points="681.4875,-665.6917 677.6534,-655.8149 674.4915,-665.9269 681.4875,-665.6917"/>
</g>
<!-- 20 -->
<g id="node21" class="node">
<title>20</title>
<path fill="#57ace9" stroke="#000000" d="M839,-663C839,-663 756,-663 756,-663 750,-663 744,-657 744,-651 744,-651 744,-592 744,-592 744,-586 750,-580 756,-580 756,-580 839,-580 839,-580 845,-580 851,-586 851,-592 851,-592 851,-651 851,-651 851,-657 845,-663 839,-663"/>
<text text-anchor="start" x="754.5" y="-647.8" font-family="Helvetica,sans-Serif" font-size="14.00" fill="#000000">BMI ≤ 33.777</text>
<text text-anchor="start" x="759.5" y="-632.8" font-family="Helvetica,sans-Serif" font-size="14.00" fill="#000000">gini = 0.231</text>
<text text-anchor="start" x="753.5" y="-617.8" font-family="Helvetica,sans-Serif" font-size="14.00" fill="#000000">samples = 30</text>
<text text-anchor="start" x="752" y="-602.8" font-family="Helvetica,sans-Serif" font-size="14.00" fill="#000000">value = [4, 26]</text>
<text text-anchor="start" x="768.5" y="-587.8" font-family="Helvetica,sans-Serif" font-size="14.00" fill="#000000">class = 2</text>
</g>
<!-- 18&#45;&gt;20 -->
<g id="edge20" class="edge">
<title>18&#45;&gt;20</title>
<path fill="none" stroke="#000000" d="M721.4209,-698.8796C730.453,-689.6931 740.1013,-679.8798 749.3888,-670.4336"/>
<polygon fill="#000000" stroke="#000000" points="751.8893,-672.8827 756.4044,-663.2981 746.8977,-667.975 751.8893,-672.8827"/>
</g>
<!-- 21 -->
<g id="node22" class="node">
<title>21</title>
<path fill="#42a1e6" stroke="#000000" d="M843,-544C843,-544 748,-544 748,-544 742,-544 736,-538 736,-532 736,-532 736,-473 736,-473 736,-467 742,-461 748,-461 748,-461 843,-461 843,-461 849,-461 855,-467 855,-473 855,-473 855,-532 855,-532 855,-538 849,-544 843,-544"/>
<text text-anchor="start" x="744" y="-528.8" font-family="Helvetica,sans-Serif" font-size="14.00" fill="#000000">MCP.1 ≤ 67.966</text>
<text text-anchor="start" x="762" y="-513.8" font-family="Helvetica,sans-Serif" font-size="14.00" fill="#000000">gini = 0.08</text>
<text text-anchor="start" x="751.5" y="-498.8" font-family="Helvetica,sans-Serif" font-size="14.00" fill="#000000">samples = 24</text>
<text text-anchor="start" x="750" y="-483.8" font-family="Helvetica,sans-Serif" font-size="14.00" fill="#000000">value = [1, 23]</text>
<text text-anchor="start" x="766.5" y="-468.8" font-family="Helvetica,sans-Serif" font-size="14.00" fill="#000000">class = 2</text>
</g>
<!-- 20&#45;&gt;21 -->
<g id="edge21" class="edge">
<title>20&#45;&gt;21</title>
<path fill="none" stroke="#000000" d="M796.8005,-579.8796C796.6628,-571.6838 796.5166,-562.9891 796.374,-554.5013"/>
<polygon fill="#000000" stroke="#000000" points="799.8701,-554.2378 796.2025,-544.2981 792.8711,-554.3555 799.8701,-554.2378"/>
</g>
<!-- 24 -->
<g id="node25" class="node">
<title>24</title>
<path fill="#ffffff" stroke="#000000" d="M981.5,-544C981.5,-544 885.5,-544 885.5,-544 879.5,-544 873.5,-538 873.5,-532 873.5,-532 873.5,-473 873.5,-473 873.5,-467 879.5,-461 885.5,-461 885.5,-461 981.5,-461 981.5,-461 987.5,-461 993.5,-467 993.5,-473 993.5,-473 993.5,-532 993.5,-532 993.5,-538 987.5,-544 981.5,-544"/>
<text text-anchor="start" x="881.5" y="-528.8" font-family="Helvetica,sans-Serif" font-size="14.00" fill="#000000">Resistin ≤ 9.338</text>
<text text-anchor="start" x="904" y="-513.8" font-family="Helvetica,sans-Serif" font-size="14.00" fill="#000000">gini = 0.5</text>
<text text-anchor="start" x="894" y="-498.8" font-family="Helvetica,sans-Serif" font-size="14.00" fill="#000000">samples = 6</text>
<text text-anchor="start" x="892" y="-483.8" font-family="Helvetica,sans-Serif" font-size="14.00" fill="#000000">value = [3, 3]</text>
<text text-anchor="start" x="904.5" y="-468.8" font-family="Helvetica,sans-Serif" font-size="14.00" fill="#000000">class = 1</text>
</g>
<!-- 20&#45;&gt;24 -->
<g id="edge24" class="edge">
<title>20&#45;&gt;24</title>
<path fill="none" stroke="#000000" d="M845.0662,-579.8796C855.6679,-570.6031 867.0002,-560.6874 877.8933,-551.1559"/>
<polygon fill="#000000" stroke="#000000" points="880.5098,-553.5172 885.7308,-544.2981 875.9002,-548.2491 880.5098,-553.5172"/>
</g>
<!-- 22 -->
<g id="node23" class="node">
<title>22</title>
<path fill="#e58139" stroke="#000000" d="M716,-417.5C716,-417.5 641,-417.5 641,-417.5 635,-417.5 629,-411.5 629,-405.5 629,-405.5 629,-361.5 629,-361.5 629,-355.5 635,-349.5 641,-349.5 641,-349.5 716,-349.5 716,-349.5 722,-349.5 728,-355.5 728,-361.5 728,-361.5 728,-405.5 728,-405.5 728,-411.5 722,-417.5 716,-417.5"/>
<text text-anchor="start" x="649" y="-402.3" font-family="Helvetica,sans-Serif" font-size="14.00" fill="#000000">gini = 0.0</text>
<text text-anchor="start" x="639" y="-387.3" font-family="Helvetica,sans-Serif" font-size="14.00" fill="#000000">samples = 1</text>
<text text-anchor="start" x="637" y="-372.3" font-family="Helvetica,sans-Serif" font-size="14.00" fill="#000000">value = [1, 0]</text>
<text text-anchor="start" x="649.5" y="-357.3" font-family="Helvetica,sans-Serif" font-size="14.00" fill="#000000">class = 1</text>
</g>
<!-- 21&#45;&gt;22 -->
<g id="edge22" class="edge">
<title>21&#45;&gt;22</title>
<path fill="none" stroke="#000000" d="M754.5791,-460.8796C743.2272,-449.3337 730.9018,-436.7976 719.543,-425.2446"/>
<polygon fill="#000000" stroke="#000000" points="721.7449,-422.4919 712.2382,-417.8149 716.7534,-427.3995 721.7449,-422.4919"/>
</g>
<!-- 23 -->
<g id="node24" class="node">
<title>23</title>
<path fill="#399de5" stroke="#000000" d="M841,-417.5C841,-417.5 758,-417.5 758,-417.5 752,-417.5 746,-411.5 746,-405.5 746,-405.5 746,-361.5 746,-361.5 746,-355.5 752,-349.5 758,-349.5 758,-349.5 841,-349.5 841,-349.5 847,-349.5 853,-355.5 853,-361.5 853,-361.5 853,-405.5 853,-405.5 853,-411.5 847,-417.5 841,-417.5"/>
<text text-anchor="start" x="770" y="-402.3" font-family="Helvetica,sans-Serif" font-size="14.00" fill="#000000">gini = 0.0</text>
<text text-anchor="start" x="755.5" y="-387.3" font-family="Helvetica,sans-Serif" font-size="14.00" fill="#000000">samples = 23</text>
<text text-anchor="start" x="754" y="-372.3" font-family="Helvetica,sans-Serif" font-size="14.00" fill="#000000">value = [0, 23]</text>
<text text-anchor="start" x="770.5" y="-357.3" font-family="Helvetica,sans-Serif" font-size="14.00" fill="#000000">class = 2</text>
</g>
<!-- 21&#45;&gt;23 -->
<g id="edge23" class="edge">
<title>21&#45;&gt;23</title>
<path fill="none" stroke="#000000" d="M796.899,-460.8796C797.2575,-450.2134 797.6445,-438.7021 798.0075,-427.9015"/>
<polygon fill="#000000" stroke="#000000" points="801.5085,-427.9269 798.3466,-417.8149 794.5125,-427.6917 801.5085,-427.9269"/>
</g>
<!-- 25 -->
<g id="node26" class="node">
<title>25</title>
<path fill="#399de5" stroke="#000000" d="M966,-417.5C966,-417.5 891,-417.5 891,-417.5 885,-417.5 879,-411.5 879,-405.5 879,-405.5 879,-361.5 879,-361.5 879,-355.5 885,-349.5 891,-349.5 891,-349.5 966,-349.5 966,-349.5 972,-349.5 978,-355.5 978,-361.5 978,-361.5 978,-405.5 978,-405.5 978,-411.5 972,-417.5 966,-417.5"/>
<text text-anchor="start" x="899" y="-402.3" font-family="Helvetica,sans-Serif" font-size="14.00" fill="#000000">gini = 0.0</text>
<text text-anchor="start" x="889" y="-387.3" font-family="Helvetica,sans-Serif" font-size="14.00" fill="#000000">samples = 3</text>
<text text-anchor="start" x="887" y="-372.3" font-family="Helvetica,sans-Serif" font-size="14.00" fill="#000000">value = [0, 3]</text>
<text text-anchor="start" x="899.5" y="-357.3" font-family="Helvetica,sans-Serif" font-size="14.00" fill="#000000">class = 2</text>
</g>
<!-- 24&#45;&gt;25 -->
<g id="edge25" class="edge">
<title>24&#45;&gt;25</title>
<path fill="none" stroke="#000000" d="M931.7512,-460.8796C931.3031,-450.2134 930.8194,-438.7021 930.3656,-427.9015"/>
<polygon fill="#000000" stroke="#000000" points="933.8586,-427.6592 929.9418,-417.8149 926.8648,-427.9531 933.8586,-427.6592"/>
</g>
<!-- 26 -->
<g id="node27" class="node">
<title>26</title>
<path fill="#e58139" stroke="#000000" d="M1083,-417.5C1083,-417.5 1008,-417.5 1008,-417.5 1002,-417.5 996,-411.5 996,-405.5 996,-405.5 996,-361.5 996,-361.5 996,-355.5 1002,-349.5 1008,-349.5 1008,-349.5 1083,-349.5 1083,-349.5 1089,-349.5 1095,-355.5 1095,-361.5 1095,-361.5 1095,-405.5 1095,-405.5 1095,-411.5 1089,-417.5 1083,-417.5"/>
<text text-anchor="start" x="1016" y="-402.3" font-family="Helvetica,sans-Serif" font-size="14.00" fill="#000000">gini = 0.0</text>
<text text-anchor="start" x="1006" y="-387.3" font-family="Helvetica,sans-Serif" font-size="14.00" fill="#000000">samples = 3</text>
<text text-anchor="start" x="1004" y="-372.3" font-family="Helvetica,sans-Serif" font-size="14.00" fill="#000000">value = [3, 0]</text>
<text text-anchor="start" x="1016.5" y="-357.3" font-family="Helvetica,sans-Serif" font-size="14.00" fill="#000000">class = 1</text>
</g>
<!-- 24&#45;&gt;26 -->
<g id="edge26" class="edge">
<title>24&#45;&gt;26</title>
<path fill="none" stroke="#000000" d="M972.6722,-460.8796C983.5389,-449.3337 995.3376,-436.7976 1006.2109,-425.2446"/>
<polygon fill="#000000" stroke="#000000" points="1008.8986,-427.4958 1013.2036,-417.8149 1003.8012,-422.6982 1008.8986,-427.4958"/>
</g>
</g>
</svg>
