<?xml version="1.0" encoding="UTF-8" standalone="no"?>
<!DOCTYPE svg PUBLIC "-//W3C//DTD SVG 1.1//EN"
 "http://www.w3.org/Graphics/SVG/1.1/DTD/svg11.dtd">
<!-- Generated by graphviz version 2.40.1 (20161225.0304)
 -->
<!-- Title: Tree Pages: 1 -->
<svg width="1101pt" height="909pt"
 viewBox="0.00 0.00 1101.00 909.00" xmlns="http://www.w3.org/2000/svg" xmlns:xlink="http://www.w3.org/1999/xlink">
<g id="graph0" class="graph" transform="scale(1 1) rotate(0) translate(4 905)">
<title>Tree</title>
<polygon fill="#ffffff" stroke="transparent" points="-4,4 -4,-905 1097,-905 1097,4 -4,4"/>
<!-- 0 -->
<g id="node1" class="node">
<title>0</title>
<path fill="#fafdfe" stroke="#000000" d="M655.5,-901C655.5,-901 563.5,-901 563.5,-901 557.5,-901 551.5,-895 551.5,-889 551.5,-889 551.5,-830 551.5,-830 551.5,-824 557.5,-818 563.5,-818 563.5,-818 655.5,-818 655.5,-818 661.5,-818 667.5,-824 667.5,-830 667.5,-830 667.5,-889 667.5,-889 667.5,-895 661.5,-901 655.5,-901"/>
<text text-anchor="start" x="560.5" y="-885.8" font-family="Helvetica,sans-Serif" font-size="14.00" fill="#000000">Glucose ≤ 96.5</text>
<text text-anchor="start" x="580" y="-870.8" font-family="Helvetica,sans-Serif" font-size="14.00" fill="#000000">gini = 0.5</text>
<text text-anchor="start" x="565.5" y="-855.8" font-family="Helvetica,sans-Serif" font-size="14.00" fill="#000000">samples = 81</text>
<text text-anchor="start" x="559.5" y="-840.8" font-family="Helvetica,sans-Serif" font-size="14.00" fill="#000000">value = [40, 41]</text>
<text text-anchor="start" x="580.5" y="-825.8" font-family="Helvetica,sans-Serif" font-size="14.00" fill="#000000">class = 2</text>
</g>
<!-- 1 -->
<g id="node2" class="node">
<title>1</title>
<path fill="#f0b990" stroke="#000000" d="M593.5,-782C593.5,-782 489.5,-782 489.5,-782 483.5,-782 477.5,-776 477.5,-770 477.5,-770 477.5,-711 477.5,-711 477.5,-705 483.5,-699 489.5,-699 489.5,-699 593.5,-699 593.5,-699 599.5,-699 605.5,-705 605.5,-711 605.5,-711 605.5,-770 605.5,-770 605.5,-776 599.5,-782 593.5,-782"/>
<text text-anchor="start" x="485.5" y="-766.8" font-family="Helvetica,sans-Serif" font-size="14.00" fill="#000000">Resistin ≤ 13.248</text>
<text text-anchor="start" x="503.5" y="-751.8" font-family="Helvetica,sans-Serif" font-size="14.00" fill="#000000">gini = 0.425</text>
<text text-anchor="start" x="497.5" y="-736.8" font-family="Helvetica,sans-Serif" font-size="14.00" fill="#000000">samples = 49</text>
<text text-anchor="start" x="491.5" y="-721.8" font-family="Helvetica,sans-Serif" font-size="14.00" fill="#000000">value = [34, 15]</text>
<text text-anchor="start" x="512.5" y="-706.8" font-family="Helvetica,sans-Serif" font-size="14.00" fill="#000000">class = 1</text>
</g>
<!-- 0&#45;&gt;1 -->
<g id="edge1" class="edge">
<title>0&#45;&gt;1</title>
<path fill="none" stroke="#000000" d="M585.7169,-817.8796C580.7763,-809.2335 575.5184,-800.0322 570.4167,-791.1042"/>
<polygon fill="#000000" stroke="#000000" points="573.3849,-789.244 565.3846,-782.2981 567.3072,-792.717 573.3849,-789.244"/>
<text text-anchor="middle" x="558.8067" y="-802.7172" font-family="Helvetica,sans-Serif" font-size="14.00" fill="#000000">True</text>
</g>
<!-- 18 -->
<g id="node19" class="node">
<title>18</title>
<path fill="#67b4eb" stroke="#000000" d="M719.5,-782C719.5,-782 635.5,-782 635.5,-782 629.5,-782 623.5,-776 623.5,-770 623.5,-770 623.5,-711 623.5,-711 623.5,-705 629.5,-699 635.5,-699 635.5,-699 719.5,-699 719.5,-699 725.5,-699 731.5,-705 731.5,-711 731.5,-711 731.5,-770 731.5,-770 731.5,-776 725.5,-782 719.5,-782"/>
<text text-anchor="start" x="631.5" y="-766.8" font-family="Helvetica,sans-Serif" font-size="14.00" fill="#000000">Leptin ≤ 6.059</text>
<text text-anchor="start" x="639.5" y="-751.8" font-family="Helvetica,sans-Serif" font-size="14.00" fill="#000000">gini = 0.305</text>
<text text-anchor="start" x="633.5" y="-736.8" font-family="Helvetica,sans-Serif" font-size="14.00" fill="#000000">samples = 32</text>
<text text-anchor="start" x="632" y="-721.8" font-family="Helvetica,sans-Serif" font-size="14.00" fill="#000000">value = [6, 26]</text>
<text text-anchor="start" x="648.5" y="-706.8" font-family="Helvetica,sans-Serif" font-size="14.00" fill="#000000">class = 2</text>
</g>
<!-- 0&#45;&gt;18 -->
<g id="edge18" class="edge">
<title>0&#45;&gt;18</title>
<path fill="none" stroke="#000000" d="M633.2831,-817.8796C638.2237,-809.2335 643.4816,-800.0322 648.5833,-791.1042"/>
<polygon fill="#000000" stroke="#000000" points="651.6928,-792.717 653.6154,-782.2981 645.6151,-789.244 651.6928,-792.717"/>
<text text-anchor="middle" x="660.1933" y="-802.7172" font-family="Helvetica,sans-Serif" font-size="14.00" fill="#000000">False</text>
</g>
<!-- 2 -->
<g id="node3" class="node">
<title>2</title>
<path fill="#eb9d65" stroke="#000000" d="M462,-663C462,-663 375,-663 375,-663 369,-663 363,-657 363,-651 363,-651 363,-592 363,-592 363,-586 369,-580 375,-580 375,-580 462,-580 462,-580 468,-580 474,-586 474,-592 474,-592 474,-651 474,-651 474,-657 468,-663 462,-663"/>
<text text-anchor="start" x="371" y="-647.8" font-family="Helvetica,sans-Serif" font-size="14.00" fill="#000000">HOMA ≤ 3.519</text>
<text text-anchor="start" x="380.5" y="-632.8" font-family="Helvetica,sans-Serif" font-size="14.00" fill="#000000">gini = 0.298</text>
<text text-anchor="start" x="374.5" y="-617.8" font-family="Helvetica,sans-Serif" font-size="14.00" fill="#000000">samples = 33</text>
<text text-anchor="start" x="373" y="-602.8" font-family="Helvetica,sans-Serif" font-size="14.00" fill="#000000">value = [27, 6]</text>
<text text-anchor="start" x="389.5" y="-587.8" font-family="Helvetica,sans-Serif" font-size="14.00" fill="#000000">class = 1</text>
</g>
<!-- 1&#45;&gt;2 -->
<g id="edge2" class="edge">
<title>1&#45;&gt;2</title>
<path fill="none" stroke="#000000" d="M498.4806,-698.8796C488.9853,-689.6931 478.8422,-679.8798 469.0785,-670.4336"/>
<polygon fill="#000000" stroke="#000000" points="471.3237,-667.7359 461.703,-663.2981 466.4564,-672.7668 471.3237,-667.7359"/>
</g>
<!-- 15 -->
<g id="node16" class="node">
<title>15</title>
<path fill="#d3e9f9" stroke="#000000" d="M584.5,-663C584.5,-663 504.5,-663 504.5,-663 498.5,-663 492.5,-657 492.5,-651 492.5,-651 492.5,-592 492.5,-592 492.5,-586 498.5,-580 504.5,-580 504.5,-580 584.5,-580 584.5,-580 590.5,-580 596.5,-586 596.5,-592 596.5,-592 596.5,-651 596.5,-651 596.5,-657 590.5,-663 584.5,-663"/>
<text text-anchor="start" x="501.5" y="-647.8" font-family="Helvetica,sans-Serif" font-size="14.00" fill="#000000">BMI ≤ 29.972</text>
<text text-anchor="start" x="506.5" y="-632.8" font-family="Helvetica,sans-Serif" font-size="14.00" fill="#000000">gini = 0.492</text>
<text text-anchor="start" x="500.5" y="-617.8" font-family="Helvetica,sans-Serif" font-size="14.00" fill="#000000">samples = 16</text>
<text text-anchor="start" x="503" y="-602.8" font-family="Helvetica,sans-Serif" font-size="14.00" fill="#000000">value = [7, 9]</text>
<text text-anchor="start" x="515.5" y="-587.8" font-family="Helvetica,sans-Serif" font-size="14.00" fill="#000000">class = 2</text>
</g>
<!-- 1&#45;&gt;15 -->
<g id="edge15" class="edge">
<title>1&#45;&gt;15</title>
<path fill="none" stroke="#000000" d="M542.5493,-698.8796C542.7559,-690.6838 542.9751,-681.9891 543.189,-673.5013"/>
<polygon fill="#000000" stroke="#000000" points="546.693,-673.3831 543.4463,-663.2981 539.6953,-673.2067 546.693,-673.3831"/>
</g>
<!-- 3 -->
<g id="node4" class="node">
<title>3</title>
<path fill="#e99456" stroke="#000000" d="M341.5,-544C341.5,-544 257.5,-544 257.5,-544 251.5,-544 245.5,-538 245.5,-532 245.5,-532 245.5,-473 245.5,-473 245.5,-467 251.5,-461 257.5,-461 257.5,-461 341.5,-461 341.5,-461 347.5,-461 353.5,-467 353.5,-473 353.5,-473 353.5,-532 353.5,-532 353.5,-538 347.5,-544 341.5,-544"/>
<text text-anchor="start" x="253.5" y="-528.8" font-family="Helvetica,sans-Serif" font-size="14.00" fill="#000000">Leptin ≤ 47.33</text>
<text text-anchor="start" x="261.5" y="-513.8" font-family="Helvetica,sans-Serif" font-size="14.00" fill="#000000">gini = 0.225</text>
<text text-anchor="start" x="255.5" y="-498.8" font-family="Helvetica,sans-Serif" font-size="14.00" fill="#000000">samples = 31</text>
<text text-anchor="start" x="254" y="-483.8" font-family="Helvetica,sans-Serif" font-size="14.00" fill="#000000">value = [27, 4]</text>
<text text-anchor="start" x="270.5" y="-468.8" font-family="Helvetica,sans-Serif" font-size="14.00" fill="#000000">class = 1</text>
</g>
<!-- 2&#45;&gt;3 -->
<g id="edge3" class="edge">
<title>2&#45;&gt;3</title>
<path fill="none" stroke="#000000" d="M376.8796,-579.8796C367.6931,-570.6931 357.8798,-560.8798 348.4336,-551.4336"/>
<polygon fill="#000000" stroke="#000000" points="350.8441,-548.8943 341.2981,-544.2981 345.8943,-553.8441 350.8441,-548.8943"/>
</g>
<!-- 14 -->
<g id="node15" class="node">
<title>14</title>
<path fill="#399de5" stroke="#000000" d="M459,-536.5C459,-536.5 384,-536.5 384,-536.5 378,-536.5 372,-530.5 372,-524.5 372,-524.5 372,-480.5 372,-480.5 372,-474.5 378,-468.5 384,-468.5 384,-468.5 459,-468.5 459,-468.5 465,-468.5 471,-474.5 471,-480.5 471,-480.5 471,-524.5 471,-524.5 471,-530.5 465,-536.5 459,-536.5"/>
<text text-anchor="start" x="392" y="-521.3" font-family="Helvetica,sans-Serif" font-size="14.00" fill="#000000">gini = 0.0</text>
<text text-anchor="start" x="382" y="-506.3" font-family="Helvetica,sans-Serif" font-size="14.00" fill="#000000">samples = 2</text>
<text text-anchor="start" x="380" y="-491.3" font-family="Helvetica,sans-Serif" font-size="14.00" fill="#000000">value = [0, 2]</text>
<text text-anchor="start" x="392.5" y="-476.3" font-family="Helvetica,sans-Serif" font-size="14.00" fill="#000000">class = 2</text>
</g>
<!-- 2&#45;&gt;14 -->
<g id="edge14" class="edge">
<title>2&#45;&gt;14</title>
<path fill="none" stroke="#000000" d="M419.5493,-579.8796C419.8182,-569.2134 420.1084,-557.7021 420.3806,-546.9015"/>
<polygon fill="#000000" stroke="#000000" points="423.8817,-546.9 420.6349,-536.8149 416.8839,-546.7235 423.8817,-546.9"/>
</g>
<!-- 4 -->
<g id="node5" class="node">
<title>4</title>
<path fill="#e88f4f" stroke="#000000" d="M285.5,-425C285.5,-425 181.5,-425 181.5,-425 175.5,-425 169.5,-419 169.5,-413 169.5,-413 169.5,-354 169.5,-354 169.5,-348 175.5,-342 181.5,-342 181.5,-342 285.5,-342 285.5,-342 291.5,-342 297.5,-348 297.5,-354 297.5,-354 297.5,-413 297.5,-413 297.5,-419 291.5,-425 285.5,-425"/>
<text text-anchor="start" x="177.5" y="-409.8" font-family="Helvetica,sans-Serif" font-size="14.00" fill="#000000">MCP.1 ≤ 209.469</text>
<text text-anchor="start" x="200" y="-394.8" font-family="Helvetica,sans-Serif" font-size="14.00" fill="#000000">gini = 0.18</text>
<text text-anchor="start" x="189.5" y="-379.8" font-family="Helvetica,sans-Serif" font-size="14.00" fill="#000000">samples = 30</text>
<text text-anchor="start" x="188" y="-364.8" font-family="Helvetica,sans-Serif" font-size="14.00" fill="#000000">value = [27, 3]</text>
<text text-anchor="start" x="204.5" y="-349.8" font-family="Helvetica,sans-Serif" font-size="14.00" fill="#000000">class = 1</text>
</g>
<!-- 3&#45;&gt;4 -->
<g id="edge4" class="edge">
<title>3&#45;&gt;4</title>
<path fill="none" stroke="#000000" d="M276.4164,-460.8796C271.6211,-452.2335 266.5178,-443.0322 261.5662,-434.1042"/>
<polygon fill="#000000" stroke="#000000" points="264.5931,-432.3455 256.6821,-425.2981 258.4716,-435.7407 264.5931,-432.3455"/>
</g>
<!-- 13 -->
<g id="node14" class="node">
<title>13</title>
<path fill="#399de5" stroke="#000000" d="M403,-417.5C403,-417.5 328,-417.5 328,-417.5 322,-417.5 316,-411.5 316,-405.5 316,-405.5 316,-361.5 316,-361.5 316,-355.5 322,-349.5 328,-349.5 328,-349.5 403,-349.5 403,-349.5 409,-349.5 415,-355.5 415,-361.5 415,-361.5 415,-405.5 415,-405.5 415,-411.5 409,-417.5 403,-417.5"/>
<text text-anchor="start" x="336" y="-402.3" font-family="Helvetica,sans-Serif" font-size="14.00" fill="#000000">gini = 0.0</text>
<text text-anchor="start" x="326" y="-387.3" font-family="Helvetica,sans-Serif" font-size="14.00" fill="#000000">samples = 1</text>
<text text-anchor="start" x="324" y="-372.3" font-family="Helvetica,sans-Serif" font-size="14.00" fill="#000000">value = [0, 1]</text>
<text text-anchor="start" x="336.5" y="-357.3" font-family="Helvetica,sans-Serif" font-size="14.00" fill="#000000">class = 2</text>
</g>
<!-- 3&#45;&gt;13 -->
<g id="edge13" class="edge">
<title>3&#45;&gt;13</title>
<path fill="none" stroke="#000000" d="M322.5836,-460.8796C328.7433,-449.7735 335.4111,-437.7513 341.6129,-426.5691"/>
<polygon fill="#000000" stroke="#000000" points="344.6787,-428.2576 346.4682,-417.8149 338.5572,-424.8624 344.6787,-428.2576"/>
</g>
<!-- 5 -->
<g id="node6" class="node">
<title>5</title>
<path fill="#f2c09c" stroke="#000000" d="M204.5,-306C204.5,-306 114.5,-306 114.5,-306 108.5,-306 102.5,-300 102.5,-294 102.5,-294 102.5,-235 102.5,-235 102.5,-229 108.5,-223 114.5,-223 114.5,-223 204.5,-223 204.5,-223 210.5,-223 216.5,-229 216.5,-235 216.5,-235 216.5,-294 216.5,-294 216.5,-300 210.5,-306 204.5,-306"/>
<text text-anchor="start" x="110.5" y="-290.8" font-family="Helvetica,sans-Serif" font-size="14.00" fill="#000000">Glucose ≤ 89.0</text>
<text text-anchor="start" x="121.5" y="-275.8" font-family="Helvetica,sans-Serif" font-size="14.00" fill="#000000">gini = 0.444</text>
<text text-anchor="start" x="120" y="-260.8" font-family="Helvetica,sans-Serif" font-size="14.00" fill="#000000">samples = 6</text>
<text text-anchor="start" x="118" y="-245.8" font-family="Helvetica,sans-Serif" font-size="14.00" fill="#000000">value = [4, 2]</text>
<text text-anchor="start" x="130.5" y="-230.8" font-family="Helvetica,sans-Serif" font-size="14.00" fill="#000000">class = 1</text>
</g>
<!-- 4&#45;&gt;5 -->
<g id="edge5" class="edge">
<title>4&#45;&gt;5</title>
<path fill="none" stroke="#000000" d="M207.6184,-341.8796C202.1858,-333.1434 196.4008,-323.8404 190.7947,-314.8253"/>
<polygon fill="#000000" stroke="#000000" points="193.7451,-312.9418 185.4921,-306.2981 187.8007,-316.6383 193.7451,-312.9418"/>
</g>
<!-- 8 -->
<g id="node9" class="node">
<title>8</title>
<path fill="#e68642" stroke="#000000" d="M368,-306C368,-306 247,-306 247,-306 241,-306 235,-300 235,-294 235,-294 235,-235 235,-235 235,-229 241,-223 247,-223 247,-223 368,-223 368,-223 374,-223 380,-229 380,-235 380,-235 380,-294 380,-294 380,-300 374,-306 368,-306"/>
<text text-anchor="start" x="243" y="-290.8" font-family="Helvetica,sans-Serif" font-size="14.00" fill="#000000">Adiponectin ≤ 3.986</text>
<text text-anchor="start" x="274" y="-275.8" font-family="Helvetica,sans-Serif" font-size="14.00" fill="#000000">gini = 0.08</text>
<text text-anchor="start" x="263.5" y="-260.8" font-family="Helvetica,sans-Serif" font-size="14.00" fill="#000000">samples = 24</text>
<text text-anchor="start" x="262" y="-245.8" font-family="Helvetica,sans-Serif" font-size="14.00" fill="#000000">value = [23, 1]</text>
<text text-anchor="start" x="278.5" y="-230.8" font-family="Helvetica,sans-Serif" font-size="14.00" fill="#000000">class = 1</text>
</g>
<!-- 4&#45;&gt;8 -->
<g id="edge8" class="edge">
<title>4&#45;&gt;8</title>
<path fill="none" stroke="#000000" d="M259.3816,-341.8796C264.8142,-333.1434 270.5992,-323.8404 276.2053,-314.8253"/>
<polygon fill="#000000" stroke="#000000" points="279.1993,-316.6383 281.5079,-306.2981 273.2549,-312.9418 279.1993,-316.6383"/>
</g>
<!-- 6 -->
<g id="node7" class="node">
<title>6</title>
<path fill="#e58139" stroke="#000000" d="M87,-179.5C87,-179.5 12,-179.5 12,-179.5 6,-179.5 0,-173.5 0,-167.5 0,-167.5 0,-123.5 0,-123.5 0,-117.5 6,-111.5 12,-111.5 12,-111.5 87,-111.5 87,-111.5 93,-111.5 99,-117.5 99,-123.5 99,-123.5 99,-167.5 99,-167.5 99,-173.5 93,-179.5 87,-179.5"/>
<text text-anchor="start" x="20" y="-164.3" font-family="Helvetica,sans-Serif" font-size="14.00" fill="#000000">gini = 0.0</text>
<text text-anchor="start" x="10" y="-149.3" font-family="Helvetica,sans-Serif" font-size="14.00" fill="#000000">samples = 4</text>
<text text-anchor="start" x="8" y="-134.3" font-family="Helvetica,sans-Serif" font-size="14.00" fill="#000000">value = [4, 0]</text>
<text text-anchor="start" x="20.5" y="-119.3" font-family="Helvetica,sans-Serif" font-size="14.00" fill="#000000">class = 1</text>
</g>
<!-- 5&#45;&gt;6 -->
<g id="edge6" class="edge">
<title>5&#45;&gt;6</title>
<path fill="none" stroke="#000000" d="M121.0273,-222.8796C110.3547,-211.3337 98.7667,-198.7976 88.0875,-187.2446"/>
<polygon fill="#000000" stroke="#000000" points="90.5778,-184.7825 81.2197,-179.8149 85.4375,-189.534 90.5778,-184.7825"/>
</g>
<!-- 7 -->
<g id="node8" class="node">
<title>7</title>
<path fill="#399de5" stroke="#000000" d="M204,-179.5C204,-179.5 129,-179.5 129,-179.5 123,-179.5 117,-173.5 117,-167.5 117,-167.5 117,-123.5 117,-123.5 117,-117.5 123,-111.5 129,-111.5 129,-111.5 204,-111.5 204,-111.5 210,-111.5 216,-117.5 216,-123.5 216,-123.5 216,-167.5 216,-167.5 216,-173.5 210,-179.5 204,-179.5"/>
<text text-anchor="start" x="137" y="-164.3" font-family="Helvetica,sans-Serif" font-size="14.00" fill="#000000">gini = 0.0</text>
<text text-anchor="start" x="127" y="-149.3" font-family="Helvetica,sans-Serif" font-size="14.00" fill="#000000">samples = 2</text>
<text text-anchor="start" x="125" y="-134.3" font-family="Helvetica,sans-Serif" font-size="14.00" fill="#000000">value = [0, 2]</text>
<text text-anchor="start" x="137.5" y="-119.3" font-family="Helvetica,sans-Serif" font-size="14.00" fill="#000000">class = 2</text>
</g>
<!-- 5&#45;&gt;7 -->
<g id="edge7" class="edge">
<title>5&#45;&gt;7</title>
<path fill="none" stroke="#000000" d="M161.9483,-222.8796C162.5757,-212.2134 163.2528,-200.7021 163.8881,-189.9015"/>
<polygon fill="#000000" stroke="#000000" points="167.3881,-190.0032 164.4815,-179.8149 160.4002,-189.5921 167.3881,-190.0032"/>
</g>
<!-- 9 -->
<g id="node10" class="node">
<title>9</title>
<path fill="#ffffff" stroke="#000000" d="M343.5,-187C343.5,-187 259.5,-187 259.5,-187 253.5,-187 247.5,-181 247.5,-175 247.5,-175 247.5,-116 247.5,-116 247.5,-110 253.5,-104 259.5,-104 259.5,-104 343.5,-104 343.5,-104 349.5,-104 355.5,-110 355.5,-116 355.5,-116 355.5,-175 355.5,-175 355.5,-181 349.5,-187 343.5,-187"/>
<text text-anchor="start" x="255.5" y="-171.8" font-family="Helvetica,sans-Serif" font-size="14.00" fill="#000000">Leptin ≤ 14.39</text>
<text text-anchor="start" x="272" y="-156.8" font-family="Helvetica,sans-Serif" font-size="14.00" fill="#000000">gini = 0.5</text>
<text text-anchor="start" x="262" y="-141.8" font-family="Helvetica,sans-Serif" font-size="14.00" fill="#000000">samples = 2</text>
<text text-anchor="start" x="260" y="-126.8" font-family="Helvetica,sans-Serif" font-size="14.00" fill="#000000">value = [1, 1]</text>
<text text-anchor="start" x="272.5" y="-111.8" font-family="Helvetica,sans-Serif" font-size="14.00" fill="#000000">class = 1</text>
</g>
<!-- 8&#45;&gt;9 -->
<g id="edge9" class="edge">
<title>8&#45;&gt;9</title>
<path fill="none" stroke="#000000" d="M305.4015,-222.8796C304.9883,-214.6838 304.5499,-205.9891 304.1219,-197.5013"/>
<polygon fill="#000000" stroke="#000000" points="307.6067,-197.1091 303.6075,-187.2981 300.6156,-197.4617 307.6067,-197.1091"/>
</g>
<!-- 12 -->
<g id="node13" class="node">
<title>12</title>
<path fill="#e58139" stroke="#000000" d="M469,-179.5C469,-179.5 386,-179.5 386,-179.5 380,-179.5 374,-173.5 374,-167.5 374,-167.5 374,-123.5 374,-123.5 374,-117.5 380,-111.5 386,-111.5 386,-111.5 469,-111.5 469,-111.5 475,-111.5 481,-117.5 481,-123.5 481,-123.5 481,-167.5 481,-167.5 481,-173.5 475,-179.5 469,-179.5"/>
<text text-anchor="start" x="398" y="-164.3" font-family="Helvetica,sans-Serif" font-size="14.00" fill="#000000">gini = 0.0</text>
<text text-anchor="start" x="383.5" y="-149.3" font-family="Helvetica,sans-Serif" font-size="14.00" fill="#000000">samples = 22</text>
<text text-anchor="start" x="382" y="-134.3" font-family="Helvetica,sans-Serif" font-size="14.00" fill="#000000">value = [22, 0]</text>
<text text-anchor="start" x="398.5" y="-119.3" font-family="Helvetica,sans-Serif" font-size="14.00" fill="#000000">class = 1</text>
</g>
<!-- 8&#45;&gt;12 -->
<g id="edge12" class="edge">
<title>8&#45;&gt;12</title>
<path fill="none" stroke="#000000" d="M349.4702,-222.8796C361.224,-211.2237 373.9954,-198.5587 385.7372,-186.9148"/>
<polygon fill="#000000" stroke="#000000" points="388.2606,-189.3416 392.8967,-179.8149 383.3316,-184.3712 388.2606,-189.3416"/>
</g>
<!-- 10 -->
<g id="node11" class="node">
<title>10</title>
<path fill="#399de5" stroke="#000000" d="M281,-68C281,-68 206,-68 206,-68 200,-68 194,-62 194,-56 194,-56 194,-12 194,-12 194,-6 200,0 206,0 206,0 281,0 281,0 287,0 293,-6 293,-12 293,-12 293,-56 293,-56 293,-62 287,-68 281,-68"/>
<text text-anchor="start" x="214" y="-52.8" font-family="Helvetica,sans-Serif" font-size="14.00" fill="#000000">gini = 0.0</text>
<text text-anchor="start" x="204" y="-37.8" font-family="Helvetica,sans-Serif" font-size="14.00" fill="#000000">samples = 1</text>
<text text-anchor="start" x="202" y="-22.8" font-family="Helvetica,sans-Serif" font-size="14.00" fill="#000000">value = [0, 1]</text>
<text text-anchor="start" x="214.5" y="-7.8" font-family="Helvetica,sans-Serif" font-size="14.00" fill="#000000">class = 2</text>
</g>
<!-- 9&#45;&gt;10 -->
<g id="edge10" class="edge">
<title>9&#45;&gt;10</title>
<path fill="none" stroke="#000000" d="M279.9029,-103.9815C275.3612,-95.2504 270.5598,-86.0202 265.9863,-77.2281"/>
<polygon fill="#000000" stroke="#000000" points="269.0431,-75.52 261.3233,-68.2637 262.8331,-78.7504 269.0431,-75.52"/>
</g>
<!-- 11 -->
<g id="node12" class="node">
<title>11</title>
<path fill="#e58139" stroke="#000000" d="M398,-68C398,-68 323,-68 323,-68 317,-68 311,-62 311,-56 311,-56 311,-12 311,-12 311,-6 317,0 323,0 323,0 398,0 398,0 404,0 410,-6 410,-12 410,-12 410,-56 410,-56 410,-62 404,-68 398,-68"/>
<text text-anchor="start" x="331" y="-52.8" font-family="Helvetica,sans-Serif" font-size="14.00" fill="#000000">gini = 0.0</text>
<text text-anchor="start" x="321" y="-37.8" font-family="Helvetica,sans-Serif" font-size="14.00" fill="#000000">samples = 1</text>
<text text-anchor="start" x="319" y="-22.8" font-family="Helvetica,sans-Serif" font-size="14.00" fill="#000000">value = [1, 0]</text>
<text text-anchor="start" x="331.5" y="-7.8" font-family="Helvetica,sans-Serif" font-size="14.00" fill="#000000">class = 1</text>
</g>
<!-- 9&#45;&gt;11 -->
<g id="edge11" class="edge">
<title>9&#45;&gt;11</title>
<path fill="none" stroke="#000000" d="M323.4694,-103.9815C328.0895,-95.2504 332.9736,-86.0202 337.626,-77.2281"/>
<polygon fill="#000000" stroke="#000000" points="340.7859,-78.7395 342.3694,-68.2637 334.5987,-75.4655 340.7859,-78.7395"/>
</g>
<!-- 16 -->
<g id="node17" class="node">
<title>16</title>
<path fill="#399de5" stroke="#000000" d="M580,-536.5C580,-536.5 505,-536.5 505,-536.5 499,-536.5 493,-530.5 493,-524.5 493,-524.5 493,-480.5 493,-480.5 493,-474.5 499,-468.5 505,-468.5 505,-468.5 580,-468.5 580,-468.5 586,-468.5 592,-474.5 592,-480.5 592,-480.5 592,-524.5 592,-524.5 592,-530.5 586,-536.5 580,-536.5"/>
<text text-anchor="start" x="513" y="-521.3" font-family="Helvetica,sans-Serif" font-size="14.00" fill="#000000">gini = 0.0</text>
<text text-anchor="start" x="503" y="-506.3" font-family="Helvetica,sans-Serif" font-size="14.00" fill="#000000">samples = 9</text>
<text text-anchor="start" x="501" y="-491.3" font-family="Helvetica,sans-Serif" font-size="14.00" fill="#000000">value = [0, 9]</text>
<text text-anchor="start" x="513.5" y="-476.3" font-family="Helvetica,sans-Serif" font-size="14.00" fill="#000000">class = 2</text>
</g>
<!-- 15&#45;&gt;16 -->
<g id="edge16" class="edge">
<title>15&#45;&gt;16</title>
<path fill="none" stroke="#000000" d="M543.8005,-579.8796C543.6212,-569.2134 543.4278,-557.7021 543.2462,-546.9015"/>
<polygon fill="#000000" stroke="#000000" points="546.7444,-546.7547 543.0767,-536.8149 539.7454,-546.8724 546.7444,-546.7547"/>
</g>
<!-- 17 -->
<g id="node18" class="node">
<title>17</title>
<path fill="#e58139" stroke="#000000" d="M697,-536.5C697,-536.5 622,-536.5 622,-536.5 616,-536.5 610,-530.5 610,-524.5 610,-524.5 610,-480.5 610,-480.5 610,-474.5 616,-468.5 622,-468.5 622,-468.5 697,-468.5 697,-468.5 703,-468.5 709,-474.5 709,-480.5 709,-480.5 709,-524.5 709,-524.5 709,-530.5 703,-536.5 697,-536.5"/>
<text text-anchor="start" x="630" y="-521.3" font-family="Helvetica,sans-Serif" font-size="14.00" fill="#000000">gini = 0.0</text>
<text text-anchor="start" x="620" y="-506.3" font-family="Helvetica,sans-Serif" font-size="14.00" fill="#000000">samples = 7</text>
<text text-anchor="start" x="618" y="-491.3" font-family="Helvetica,sans-Serif" font-size="14.00" fill="#000000">value = [7, 0]</text>
<text text-anchor="start" x="630.5" y="-476.3" font-family="Helvetica,sans-Serif" font-size="14.00" fill="#000000">class = 1</text>
</g>
<!-- 15&#45;&gt;17 -->
<g id="edge17" class="edge">
<title>15&#45;&gt;17</title>
<path fill="none" stroke="#000000" d="M584.7214,-579.8796C595.8792,-568.3337 607.9939,-555.7976 619.1586,-544.2446"/>
<polygon fill="#000000" stroke="#000000" points="621.9061,-546.4381 626.3385,-536.8149 616.8725,-541.5736 621.9061,-546.4381"/>
</g>
<!-- 19 -->
<g id="node20" class="node">
<title>19</title>
<path fill="#e58139" stroke="#000000" d="M711,-655.5C711,-655.5 636,-655.5 636,-655.5 630,-655.5 624,-649.5 624,-643.5 624,-643.5 624,-599.5 624,-599.5 624,-593.5 630,-587.5 636,-587.5 636,-587.5 711,-587.5 711,-587.5 717,-587.5 723,-593.5 723,-599.5 723,-599.5 723,-643.5 723,-643.5 723,-649.5 717,-655.5 711,-655.5"/>
<text text-anchor="start" x="644" y="-640.3" font-family="Helvetica,sans-Serif" font-size="14.00" fill="#000000">gini = 0.0</text>
<text text-anchor="start" x="634" y="-625.3" font-family="Helvetica,sans-Serif" font-size="14.00" fill="#000000">samples = 2</text>
<text text-anchor="start" x="632" y="-610.3" font-family="Helvetica,sans-Serif" font-size="14.00" fill="#000000">value = [2, 0]</text>
<text text-anchor="start" x="644.5" y="-595.3" font-family="Helvetica,sans-Serif" font-size="14.00" fill="#000000">class = 1</text>
</g>
<!-- 18&#45;&gt;19 -->
<g id="edge19" class="edge">
<title>18&#45;&gt;19</title>
<path fill="none" stroke="#000000" d="M676.101,-698.8796C675.7425,-688.2134 675.3555,-676.7021 674.9925,-665.9015"/>
<polygon fill="#000000" stroke="#000000" points="678.4875,-665.6917 674.6534,-655.8149 671.4915,-665.9269 678.4875,-665.6917"/>
</g>
<!-- 20 -->
<g id="node21" class="node">
<title>20</title>
<path fill="#57ace9" stroke="#000000" d="M836,-663C836,-663 753,-663 753,-663 747,-663 741,-657 741,-651 741,-651 741,-592 741,-592 741,-586 747,-580 753,-580 753,-580 836,-580 836,-580 842,-580 848,-586 848,-592 848,-592 848,-651 848,-651 848,-657 842,-663 836,-663"/>
<text text-anchor="start" x="751.5" y="-647.8" font-family="Helvetica,sans-Serif" font-size="14.00" fill="#000000">BMI ≤ 33.777</text>
<text text-anchor="start" x="756.5" y="-632.8" font-family="Helvetica,sans-Serif" font-size="14.00" fill="#000000">gini = 0.231</text>
<text text-anchor="start" x="750.5" y="-617.8" font-family="Helvetica,sans-Serif" font-size="14.00" fill="#000000">samples = 30</text>
<text text-anchor="start" x="749" y="-602.8" font-family="Helvetica,sans-Serif" font-size="14.00" fill="#000000">value = [4, 26]</text>
<text text-anchor="start" x="765.5" y="-587.8" font-family="Helvetica,sans-Serif" font-size="14.00" fill="#000000">class = 2</text>
</g>
<!-- 18&#45;&gt;20 -->
<g id="edge20" class="edge">
<title>18&#45;&gt;20</title>
<path fill="none" stroke="#000000" d="M718.4209,-698.8796C727.453,-689.6931 737.1013,-679.8798 746.3888,-670.4336"/>
<polygon fill="#000000" stroke="#000000" points="748.8893,-672.8827 753.4044,-663.2981 743.8977,-667.975 748.8893,-672.8827"/>
</g>
<!-- 21 -->
<g id="node22" class="node">
<title>21</title>
<path fill="#42a1e6" stroke="#000000" d="M840,-544C840,-544 745,-544 745,-544 739,-544 733,-538 733,-532 733,-532 733,-473 733,-473 733,-467 739,-461 745,-461 745,-461 840,-461 840,-461 846,-461 852,-467 852,-473 852,-473 852,-532 852,-532 852,-538 846,-544 840,-544"/>
<text text-anchor="start" x="741" y="-528.8" font-family="Helvetica,sans-Serif" font-size="14.00" fill="#000000">MCP.1 ≤ 67.966</text>
<text text-anchor="start" x="759" y="-513.8" font-family="Helvetica,sans-Serif" font-size="14.00" fill="#000000">gini = 0.08</text>
<text text-anchor="start" x="748.5" y="-498.8" font-family="Helvetica,sans-Serif" font-size="14.00" fill="#000000">samples = 24</text>
<text text-anchor="start" x="747" y="-483.8" font-family="Helvetica,sans-Serif" font-size="14.00" fill="#000000">value = [1, 23]</text>
<text text-anchor="start" x="763.5" y="-468.8" font-family="Helvetica,sans-Serif" font-size="14.00" fill="#000000">class = 2</text>
</g>
<!-- 20&#45;&gt;21 -->
<g id="edge21" class="edge">
<title>20&#45;&gt;21</title>
<path fill="none" stroke="#000000" d="M793.8005,-579.8796C793.6628,-571.6838 793.5166,-562.9891 793.374,-554.5013"/>
<polygon fill="#000000" stroke="#000000" points="796.8701,-554.2378 793.2025,-544.2981 789.8711,-554.3555 796.8701,-554.2378"/>
</g>
<!-- 24 -->
<g id="node25" class="node">
<title>24</title>
<path fill="#ffffff" stroke="#000000" d="M980.5,-544C980.5,-544 882.5,-544 882.5,-544 876.5,-544 870.5,-538 870.5,-532 870.5,-532 870.5,-473 870.5,-473 870.5,-467 876.5,-461 882.5,-461 882.5,-461 980.5,-461 980.5,-461 986.5,-461 992.5,-467 992.5,-473 992.5,-473 992.5,-532 992.5,-532 992.5,-538 986.5,-544 980.5,-544"/>
<text text-anchor="start" x="878.5" y="-528.8" font-family="Helvetica,sans-Serif" font-size="14.00" fill="#000000">Glucose ≤ 112.5</text>
<text text-anchor="start" x="902" y="-513.8" font-family="Helvetica,sans-Serif" font-size="14.00" fill="#000000">gini = 0.5</text>
<text text-anchor="start" x="892" y="-498.8" font-family="Helvetica,sans-Serif" font-size="14.00" fill="#000000">samples = 6</text>
<text text-anchor="start" x="890" y="-483.8" font-family="Helvetica,sans-Serif" font-size="14.00" fill="#000000">value = [3, 3]</text>
<text text-anchor="start" x="902.5" y="-468.8" font-family="Helvetica,sans-Serif" font-size="14.00" fill="#000000">class = 1</text>
</g>
<!-- 20&#45;&gt;24 -->
<g id="edge24" class="edge">
<title>20&#45;&gt;24</title>
<path fill="none" stroke="#000000" d="M842.416,-579.8796C853.1993,-570.513 864.7329,-560.4948 875.8039,-550.8784"/>
<polygon fill="#000000" stroke="#000000" points="878.1251,-553.4982 883.3795,-544.2981 873.5347,-548.2134 878.1251,-553.4982"/>
</g>
<!-- 22 -->
<g id="node23" class="node">
<title>22</title>
<path fill="#e58139" stroke="#000000" d="M713,-417.5C713,-417.5 638,-417.5 638,-417.5 632,-417.5 626,-411.5 626,-405.5 626,-405.5 626,-361.5 626,-361.5 626,-355.5 632,-349.5 638,-349.5 638,-349.5 713,-349.5 713,-349.5 719,-349.5 725,-355.5 725,-361.5 725,-361.5 725,-405.5 725,-405.5 725,-411.5 719,-417.5 713,-417.5"/>
<text text-anchor="start" x="646" y="-402.3" font-family="Helvetica,sans-Serif" font-size="14.00" fill="#000000">gini = 0.0</text>
<text text-anchor="start" x="636" y="-387.3" font-family="Helvetica,sans-Serif" font-size="14.00" fill="#000000">samples = 1</text>
<text text-anchor="start" x="634" y="-372.3" font-family="Helvetica,sans-Serif" font-size="14.00" fill="#000000">value = [1, 0]</text>
<text text-anchor="start" x="646.5" y="-357.3" font-family="Helvetica,sans-Serif" font-size="14.00" fill="#000000">class = 1</text>
</g>
<!-- 21&#45;&gt;22 -->
<g id="edge22" class="edge">
<title>21&#45;&gt;22</title>
<path fill="none" stroke="#000000" d="M751.5791,-460.8796C740.2272,-449.3337 727.9018,-436.7976 716.543,-425.2446"/>
<polygon fill="#000000" stroke="#000000" points="718.7449,-422.4919 709.2382,-417.8149 713.7534,-427.3995 718.7449,-422.4919"/>
</g>
<!-- 23 -->
<g id="node24" class="node">
<title>23</title>
<path fill="#399de5" stroke="#000000" d="M838,-417.5C838,-417.5 755,-417.5 755,-417.5 749,-417.5 743,-411.5 743,-405.5 743,-405.5 743,-361.5 743,-361.5 743,-355.5 749,-349.5 755,-349.5 755,-349.5 838,-349.5 838,-349.5 844,-349.5 850,-355.5 850,-361.5 850,-361.5 850,-405.5 850,-405.5 850,-411.5 844,-417.5 838,-417.5"/>
<text text-anchor="start" x="767" y="-402.3" font-family="Helvetica,sans-Serif" font-size="14.00" fill="#000000">gini = 0.0</text>
<text text-anchor="start" x="752.5" y="-387.3" font-family="Helvetica,sans-Serif" font-size="14.00" fill="#000000">samples = 23</text>
<text text-anchor="start" x="751" y="-372.3" font-family="Helvetica,sans-Serif" font-size="14.00" fill="#000000">value = [0, 23]</text>
<text text-anchor="start" x="767.5" y="-357.3" font-family="Helvetica,sans-Serif" font-size="14.00" fill="#000000">class = 2</text>
</g>
<!-- 21&#45;&gt;23 -->
<g id="edge23" class="edge">
<title>21&#45;&gt;23</title>
<path fill="none" stroke="#000000" d="M793.899,-460.8796C794.2575,-450.2134 794.6445,-438.7021 795.0075,-427.9015"/>
<polygon fill="#000000" stroke="#000000" points="798.5085,-427.9269 795.3466,-417.8149 791.5125,-427.6917 798.5085,-427.9269"/>
</g>
<!-- 25 -->
<g id="node26" class="node">
<title>25</title>
<path fill="#e58139" stroke="#000000" d="M964,-417.5C964,-417.5 889,-417.5 889,-417.5 883,-417.5 877,-411.5 877,-405.5 877,-405.5 877,-361.5 877,-361.5 877,-355.5 883,-349.5 889,-349.5 889,-349.5 964,-349.5 964,-349.5 970,-349.5 976,-355.5 976,-361.5 976,-361.5 976,-405.5 976,-405.5 976,-411.5 970,-417.5 964,-417.5"/>
<text text-anchor="start" x="897" y="-402.3" font-family="Helvetica,sans-Serif" font-size="14.00" fill="#000000">gini = 0.0</text>
<text text-anchor="start" x="887" y="-387.3" font-family="Helvetica,sans-Serif" font-size="14.00" fill="#000000">samples = 3</text>
<text text-anchor="start" x="885" y="-372.3" font-family="Helvetica,sans-Serif" font-size="14.00" fill="#000000">value = [3, 0]</text>
<text text-anchor="start" x="897.5" y="-357.3" font-family="Helvetica,sans-Serif" font-size="14.00" fill="#000000">class = 1</text>
</g>
<!-- 24&#45;&gt;25 -->
<g id="edge25" class="edge">
<title>24&#45;&gt;25</title>
<path fill="none" stroke="#000000" d="M929.7512,-460.8796C929.3031,-450.2134 928.8194,-438.7021 928.3656,-427.9015"/>
<polygon fill="#000000" stroke="#000000" points="931.8586,-427.6592 927.9418,-417.8149 924.8648,-427.9531 931.8586,-427.6592"/>
</g>
<!-- 26 -->
<g id="node27" class="node">
<title>26</title>
<path fill="#399de5" stroke="#000000" d="M1081,-417.5C1081,-417.5 1006,-417.5 1006,-417.5 1000,-417.5 994,-411.5 994,-405.5 994,-405.5 994,-361.5 994,-361.5 994,-355.5 1000,-349.5 1006,-349.5 1006,-349.5 1081,-349.5 1081,-349.5 1087,-349.5 1093,-355.5 1093,-361.5 1093,-361.5 1093,-405.5 1093,-405.5 1093,-411.5 1087,-417.5 1081,-417.5"/>
<text text-anchor="start" x="1014" y="-402.3" font-family="Helvetica,sans-Serif" font-size="14.00" fill="#000000">gini = 0.0</text>
<text text-anchor="start" x="1004" y="-387.3" font-family="Helvetica,sans-Serif" font-size="14.00" fill="#000000">samples = 3</text>
<text text-anchor="start" x="1002" y="-372.3" font-family="Helvetica,sans-Serif" font-size="14.00" fill="#000000">value = [0, 3]</text>
<text text-anchor="start" x="1014.5" y="-357.3" font-family="Helvetica,sans-Serif" font-size="14.00" fill="#000000">class = 2</text>
</g>
<!-- 24&#45;&gt;26 -->
<g id="edge26" class="edge">
<title>24&#45;&gt;26</title>
<path fill="none" stroke="#000000" d="M970.6722,-460.8796C981.5389,-449.3337 993.3376,-436.7976 1004.2109,-425.2446"/>
<polygon fill="#000000" stroke="#000000" points="1006.8986,-427.4958 1011.2036,-417.8149 1001.8012,-422.6982 1006.8986,-427.4958"/>
</g>
</g>
</svg>
