<?xml version="1.0" encoding="UTF-8" standalone="no"?>
<!DOCTYPE svg PUBLIC "-//W3C//DTD SVG 1.1//EN"
 "http://www.w3.org/Graphics/SVG/1.1/DTD/svg11.dtd">
<!-- Generated by graphviz version 2.40.1 (20161225.0304)
 -->
<!-- Title: Tree Pages: 1 -->
<svg width="1108pt" height="909pt"
 viewBox="0.00 0.00 1108.00 909.00" xmlns="http://www.w3.org/2000/svg" xmlns:xlink="http://www.w3.org/1999/xlink">
<g id="graph0" class="graph" transform="scale(1 1) rotate(0) translate(4 905)">
<title>Tree</title>
<polygon fill="#ffffff" stroke="transparent" points="-4,4 -4,-905 1104,-905 1104,4 -4,4"/>
<!-- 0 -->
<g id="node1" class="node">
<title>0</title>
<path fill="#fafdfe" stroke="#000000" d="M663.5,-901C663.5,-901 571.5,-901 571.5,-901 565.5,-901 559.5,-895 559.5,-889 559.5,-889 559.5,-830 559.5,-830 559.5,-824 565.5,-818 571.5,-818 571.5,-818 663.5,-818 663.5,-818 669.5,-818 675.5,-824 675.5,-830 675.5,-830 675.5,-889 675.5,-889 675.5,-895 669.5,-901 663.5,-901"/>
<text text-anchor="start" x="568.5" y="-885.8" font-family="Helvetica,sans-Serif" font-size="14.00" fill="#000000">Glucose ≤ 96.5</text>
<text text-anchor="start" x="588" y="-870.8" font-family="Helvetica,sans-Serif" font-size="14.00" fill="#000000">gini = 0.5</text>
<text text-anchor="start" x="573.5" y="-855.8" font-family="Helvetica,sans-Serif" font-size="14.00" fill="#000000">samples = 81</text>
<text text-anchor="start" x="567.5" y="-840.8" font-family="Helvetica,sans-Serif" font-size="14.00" fill="#000000">value = [40, 41]</text>
<text text-anchor="start" x="588.5" y="-825.8" font-family="Helvetica,sans-Serif" font-size="14.00" fill="#000000">class = 2</text>
</g>
<!-- 1 -->
<g id="node2" class="node">
<title>1</title>
<path fill="#f0b990" stroke="#000000" d="M601.5,-782C601.5,-782 497.5,-782 497.5,-782 491.5,-782 485.5,-776 485.5,-770 485.5,-770 485.5,-711 485.5,-711 485.5,-705 491.5,-699 497.5,-699 497.5,-699 601.5,-699 601.5,-699 607.5,-699 613.5,-705 613.5,-711 613.5,-711 613.5,-770 613.5,-770 613.5,-776 607.5,-782 601.5,-782"/>
<text text-anchor="start" x="493.5" y="-766.8" font-family="Helvetica,sans-Serif" font-size="14.00" fill="#000000">Resistin ≤ 13.248</text>
<text text-anchor="start" x="511.5" y="-751.8" font-family="Helvetica,sans-Serif" font-size="14.00" fill="#000000">gini = 0.425</text>
<text text-anchor="start" x="505.5" y="-736.8" font-family="Helvetica,sans-Serif" font-size="14.00" fill="#000000">samples = 49</text>
<text text-anchor="start" x="499.5" y="-721.8" font-family="Helvetica,sans-Serif" font-size="14.00" fill="#000000">value = [34, 15]</text>
<text text-anchor="start" x="520.5" y="-706.8" font-family="Helvetica,sans-Serif" font-size="14.00" fill="#000000">class = 1</text>
</g>
<!-- 0&#45;&gt;1 -->
<g id="edge1" class="edge">
<title>0&#45;&gt;1</title>
<path fill="none" stroke="#000000" d="M593.7169,-817.8796C588.7763,-809.2335 583.5184,-800.0322 578.4167,-791.1042"/>
<polygon fill="#000000" stroke="#000000" points="581.3849,-789.244 573.3846,-782.2981 575.3072,-792.717 581.3849,-789.244"/>
<text text-anchor="middle" x="566.8067" y="-802.7172" font-family="Helvetica,sans-Serif" font-size="14.00" fill="#000000">True</text>
</g>
<!-- 18 -->
<g id="node19" class="node">
<title>18</title>
<path fill="#67b4eb" stroke="#000000" d="M727.5,-782C727.5,-782 643.5,-782 643.5,-782 637.5,-782 631.5,-776 631.5,-770 631.5,-770 631.5,-711 631.5,-711 631.5,-705 637.5,-699 643.5,-699 643.5,-699 727.5,-699 727.5,-699 733.5,-699 739.5,-705 739.5,-711 739.5,-711 739.5,-770 739.5,-770 739.5,-776 733.5,-782 727.5,-782"/>
<text text-anchor="start" x="639.5" y="-766.8" font-family="Helvetica,sans-Serif" font-size="14.00" fill="#000000">Leptin ≤ 6.059</text>
<text text-anchor="start" x="647.5" y="-751.8" font-family="Helvetica,sans-Serif" font-size="14.00" fill="#000000">gini = 0.305</text>
<text text-anchor="start" x="641.5" y="-736.8" font-family="Helvetica,sans-Serif" font-size="14.00" fill="#000000">samples = 32</text>
<text text-anchor="start" x="640" y="-721.8" font-family="Helvetica,sans-Serif" font-size="14.00" fill="#000000">value = [6, 26]</text>
<text text-anchor="start" x="656.5" y="-706.8" font-family="Helvetica,sans-Serif" font-size="14.00" fill="#000000">class = 2</text>
</g>
<!-- 0&#45;&gt;18 -->
<g id="edge18" class="edge">
<title>0&#45;&gt;18</title>
<path fill="none" stroke="#000000" d="M641.2831,-817.8796C646.2237,-809.2335 651.4816,-800.0322 656.5833,-791.1042"/>
<polygon fill="#000000" stroke="#000000" points="659.6928,-792.717 661.6154,-782.2981 653.6151,-789.244 659.6928,-792.717"/>
<text text-anchor="middle" x="668.1933" y="-802.7172" font-family="Helvetica,sans-Serif" font-size="14.00" fill="#000000">False</text>
</g>
<!-- 2 -->
<g id="node3" class="node">
<title>2</title>
<path fill="#eb9d65" stroke="#000000" d="M470,-663C470,-663 375,-663 375,-663 369,-663 363,-657 363,-651 363,-651 363,-592 363,-592 363,-586 369,-580 375,-580 375,-580 470,-580 470,-580 476,-580 482,-586 482,-592 482,-592 482,-651 482,-651 482,-657 476,-663 470,-663"/>
<text text-anchor="start" x="371" y="-647.8" font-family="Helvetica,sans-Serif" font-size="14.00" fill="#000000">Insulin ≤ 15.352</text>
<text text-anchor="start" x="384.5" y="-632.8" font-family="Helvetica,sans-Serif" font-size="14.00" fill="#000000">gini = 0.298</text>
<text text-anchor="start" x="378.5" y="-617.8" font-family="Helvetica,sans-Serif" font-size="14.00" fill="#000000">samples = 33</text>
<text text-anchor="start" x="377" y="-602.8" font-family="Helvetica,sans-Serif" font-size="14.00" fill="#000000">value = [27, 6]</text>
<text text-anchor="start" x="393.5" y="-587.8" font-family="Helvetica,sans-Serif" font-size="14.00" fill="#000000">class = 1</text>
</g>
<!-- 1&#45;&gt;2 -->
<g id="edge2" class="edge">
<title>1&#45;&gt;2</title>
<path fill="none" stroke="#000000" d="M505.0816,-698.8796C495.1814,-689.6031 484.5991,-679.6874 474.4269,-670.1559"/>
<polygon fill="#000000" stroke="#000000" points="476.7984,-667.5816 467.108,-663.2981 472.0121,-672.6896 476.7984,-667.5816"/>
</g>
<!-- 15 -->
<g id="node16" class="node">
<title>15</title>
<path fill="#d3e9f9" stroke="#000000" d="M592.5,-663C592.5,-663 512.5,-663 512.5,-663 506.5,-663 500.5,-657 500.5,-651 500.5,-651 500.5,-592 500.5,-592 500.5,-586 506.5,-580 512.5,-580 512.5,-580 592.5,-580 592.5,-580 598.5,-580 604.5,-586 604.5,-592 604.5,-592 604.5,-651 604.5,-651 604.5,-657 598.5,-663 592.5,-663"/>
<text text-anchor="start" x="509.5" y="-647.8" font-family="Helvetica,sans-Serif" font-size="14.00" fill="#000000">BMI ≤ 29.972</text>
<text text-anchor="start" x="514.5" y="-632.8" font-family="Helvetica,sans-Serif" font-size="14.00" fill="#000000">gini = 0.492</text>
<text text-anchor="start" x="508.5" y="-617.8" font-family="Helvetica,sans-Serif" font-size="14.00" fill="#000000">samples = 16</text>
<text text-anchor="start" x="511" y="-602.8" font-family="Helvetica,sans-Serif" font-size="14.00" fill="#000000">value = [7, 9]</text>
<text text-anchor="start" x="523.5" y="-587.8" font-family="Helvetica,sans-Serif" font-size="14.00" fill="#000000">class = 2</text>
</g>
<!-- 1&#45;&gt;15 -->
<g id="edge15" class="edge">
<title>1&#45;&gt;15</title>
<path fill="none" stroke="#000000" d="M550.5493,-698.8796C550.7559,-690.6838 550.9751,-681.9891 551.189,-673.5013"/>
<polygon fill="#000000" stroke="#000000" points="554.693,-673.3831 551.4463,-663.2981 547.6953,-673.2067 554.693,-673.3831"/>
</g>
<!-- 3 -->
<g id="node4" class="node">
<title>3</title>
<path fill="#e99456" stroke="#000000" d="M346.5,-544C346.5,-544 262.5,-544 262.5,-544 256.5,-544 250.5,-538 250.5,-532 250.5,-532 250.5,-473 250.5,-473 250.5,-467 256.5,-461 262.5,-461 262.5,-461 346.5,-461 346.5,-461 352.5,-461 358.5,-467 358.5,-473 358.5,-473 358.5,-532 358.5,-532 358.5,-538 352.5,-544 346.5,-544"/>
<text text-anchor="start" x="258.5" y="-528.8" font-family="Helvetica,sans-Serif" font-size="14.00" fill="#000000">Leptin ≤ 47.33</text>
<text text-anchor="start" x="266.5" y="-513.8" font-family="Helvetica,sans-Serif" font-size="14.00" fill="#000000">gini = 0.225</text>
<text text-anchor="start" x="260.5" y="-498.8" font-family="Helvetica,sans-Serif" font-size="14.00" fill="#000000">samples = 31</text>
<text text-anchor="start" x="259" y="-483.8" font-family="Helvetica,sans-Serif" font-size="14.00" fill="#000000">value = [27, 4]</text>
<text text-anchor="start" x="275.5" y="-468.8" font-family="Helvetica,sans-Serif" font-size="14.00" fill="#000000">class = 1</text>
</g>
<!-- 2&#45;&gt;3 -->
<g id="edge3" class="edge">
<title>2&#45;&gt;3</title>
<path fill="none" stroke="#000000" d="M381.2293,-579.8796C372.1201,-570.6931 362.3892,-560.8798 353.0224,-551.4336"/>
<polygon fill="#000000" stroke="#000000" points="355.4733,-548.9345 345.9468,-544.2981 350.5027,-553.8634 355.4733,-548.9345"/>
</g>
<!-- 14 -->
<g id="node15" class="node">
<title>14</title>
<path fill="#399de5" stroke="#000000" d="M464,-536.5C464,-536.5 389,-536.5 389,-536.5 383,-536.5 377,-530.5 377,-524.5 377,-524.5 377,-480.5 377,-480.5 377,-474.5 383,-468.5 389,-468.5 389,-468.5 464,-468.5 464,-468.5 470,-468.5 476,-474.5 476,-480.5 476,-480.5 476,-524.5 476,-524.5 476,-530.5 470,-536.5 464,-536.5"/>
<text text-anchor="start" x="397" y="-521.3" font-family="Helvetica,sans-Serif" font-size="14.00" fill="#000000">gini = 0.0</text>
<text text-anchor="start" x="387" y="-506.3" font-family="Helvetica,sans-Serif" font-size="14.00" fill="#000000">samples = 2</text>
<text text-anchor="start" x="385" y="-491.3" font-family="Helvetica,sans-Serif" font-size="14.00" fill="#000000">value = [0, 2]</text>
<text text-anchor="start" x="397.5" y="-476.3" font-family="Helvetica,sans-Serif" font-size="14.00" fill="#000000">class = 2</text>
</g>
<!-- 2&#45;&gt;14 -->
<g id="edge14" class="edge">
<title>2&#45;&gt;14</title>
<path fill="none" stroke="#000000" d="M423.899,-579.8796C424.2575,-569.2134 424.6445,-557.7021 425.0075,-546.9015"/>
<polygon fill="#000000" stroke="#000000" points="428.5085,-546.9269 425.3466,-536.8149 421.5125,-546.6917 428.5085,-546.9269"/>
</g>
<!-- 4 -->
<g id="node5" class="node">
<title>4</title>
<path fill="#e88f4f" stroke="#000000" d="M290.5,-425C290.5,-425 186.5,-425 186.5,-425 180.5,-425 174.5,-419 174.5,-413 174.5,-413 174.5,-354 174.5,-354 174.5,-348 180.5,-342 186.5,-342 186.5,-342 290.5,-342 290.5,-342 296.5,-342 302.5,-348 302.5,-354 302.5,-354 302.5,-413 302.5,-413 302.5,-419 296.5,-425 290.5,-425"/>
<text text-anchor="start" x="182.5" y="-409.8" font-family="Helvetica,sans-Serif" font-size="14.00" fill="#000000">MCP.1 ≤ 209.469</text>
<text text-anchor="start" x="205" y="-394.8" font-family="Helvetica,sans-Serif" font-size="14.00" fill="#000000">gini = 0.18</text>
<text text-anchor="start" x="194.5" y="-379.8" font-family="Helvetica,sans-Serif" font-size="14.00" fill="#000000">samples = 30</text>
<text text-anchor="start" x="193" y="-364.8" font-family="Helvetica,sans-Serif" font-size="14.00" fill="#000000">value = [27, 3]</text>
<text text-anchor="start" x="209.5" y="-349.8" font-family="Helvetica,sans-Serif" font-size="14.00" fill="#000000">class = 1</text>
</g>
<!-- 3&#45;&gt;4 -->
<g id="edge4" class="edge">
<title>3&#45;&gt;4</title>
<path fill="none" stroke="#000000" d="M281.4164,-460.8796C276.6211,-452.2335 271.5178,-443.0322 266.5662,-434.1042"/>
<polygon fill="#000000" stroke="#000000" points="269.5931,-432.3455 261.6821,-425.2981 263.4716,-435.7407 269.5931,-432.3455"/>
</g>
<!-- 13 -->
<g id="node14" class="node">
<title>13</title>
<path fill="#399de5" stroke="#000000" d="M408,-417.5C408,-417.5 333,-417.5 333,-417.5 327,-417.5 321,-411.5 321,-405.5 321,-405.5 321,-361.5 321,-361.5 321,-355.5 327,-349.5 333,-349.5 333,-349.5 408,-349.5 408,-349.5 414,-349.5 420,-355.5 420,-361.5 420,-361.5 420,-405.5 420,-405.5 420,-411.5 414,-417.5 408,-417.5"/>
<text text-anchor="start" x="341" y="-402.3" font-family="Helvetica,sans-Serif" font-size="14.00" fill="#000000">gini = 0.0</text>
<text text-anchor="start" x="331" y="-387.3" font-family="Helvetica,sans-Serif" font-size="14.00" fill="#000000">samples = 1</text>
<text text-anchor="start" x="329" y="-372.3" font-family="Helvetica,sans-Serif" font-size="14.00" fill="#000000">value = [0, 1]</text>
<text text-anchor="start" x="341.5" y="-357.3" font-family="Helvetica,sans-Serif" font-size="14.00" fill="#000000">class = 2</text>
</g>
<!-- 3&#45;&gt;13 -->
<g id="edge13" class="edge">
<title>3&#45;&gt;13</title>
<path fill="none" stroke="#000000" d="M327.5836,-460.8796C333.7433,-449.7735 340.4111,-437.7513 346.6129,-426.5691"/>
<polygon fill="#000000" stroke="#000000" points="349.6787,-428.2576 351.4682,-417.8149 343.5572,-424.8624 349.6787,-428.2576"/>
</g>
<!-- 5 -->
<g id="node6" class="node">
<title>5</title>
<path fill="#f2c09c" stroke="#000000" d="M218,-306C218,-306 97,-306 97,-306 91,-306 85,-300 85,-294 85,-294 85,-235 85,-235 85,-229 91,-223 97,-223 97,-223 218,-223 218,-223 224,-223 230,-229 230,-235 230,-235 230,-294 230,-294 230,-300 224,-306 218,-306"/>
<text text-anchor="start" x="93" y="-290.8" font-family="Helvetica,sans-Serif" font-size="14.00" fill="#000000">Adiponectin ≤ 17.31</text>
<text text-anchor="start" x="119.5" y="-275.8" font-family="Helvetica,sans-Serif" font-size="14.00" fill="#000000">gini = 0.444</text>
<text text-anchor="start" x="118" y="-260.8" font-family="Helvetica,sans-Serif" font-size="14.00" fill="#000000">samples = 6</text>
<text text-anchor="start" x="116" y="-245.8" font-family="Helvetica,sans-Serif" font-size="14.00" fill="#000000">value = [4, 2]</text>
<text text-anchor="start" x="128.5" y="-230.8" font-family="Helvetica,sans-Serif" font-size="14.00" fill="#000000">class = 1</text>
</g>
<!-- 4&#45;&gt;5 -->
<g id="edge5" class="edge">
<title>4&#45;&gt;5</title>
<path fill="none" stroke="#000000" d="M210.1701,-341.8796C204.2237,-333.1434 197.8914,-323.8404 191.755,-314.8253"/>
<polygon fill="#000000" stroke="#000000" points="194.4711,-312.5953 185.9508,-306.2981 188.6844,-316.5342 194.4711,-312.5953"/>
</g>
<!-- 8 -->
<g id="node9" class="node">
<title>8</title>
<path fill="#e68642" stroke="#000000" d="M381,-306C381,-306 260,-306 260,-306 254,-306 248,-300 248,-294 248,-294 248,-235 248,-235 248,-229 254,-223 260,-223 260,-223 381,-223 381,-223 387,-223 393,-229 393,-235 393,-235 393,-294 393,-294 393,-300 387,-306 381,-306"/>
<text text-anchor="start" x="256" y="-290.8" font-family="Helvetica,sans-Serif" font-size="14.00" fill="#000000">Adiponectin ≤ 3.986</text>
<text text-anchor="start" x="287" y="-275.8" font-family="Helvetica,sans-Serif" font-size="14.00" fill="#000000">gini = 0.08</text>
<text text-anchor="start" x="276.5" y="-260.8" font-family="Helvetica,sans-Serif" font-size="14.00" fill="#000000">samples = 24</text>
<text text-anchor="start" x="275" y="-245.8" font-family="Helvetica,sans-Serif" font-size="14.00" fill="#000000">value = [23, 1]</text>
<text text-anchor="start" x="291.5" y="-230.8" font-family="Helvetica,sans-Serif" font-size="14.00" fill="#000000">class = 1</text>
</g>
<!-- 4&#45;&gt;8 -->
<g id="edge8" class="edge">
<title>4&#45;&gt;8</title>
<path fill="none" stroke="#000000" d="M267.1796,-341.8796C273.2615,-333.0534 279.7422,-323.6485 286.0141,-314.5466"/>
<polygon fill="#000000" stroke="#000000" points="288.9059,-316.5184 291.698,-306.2981 283.1418,-312.5465 288.9059,-316.5184"/>
</g>
<!-- 6 -->
<g id="node7" class="node">
<title>6</title>
<path fill="#399de5" stroke="#000000" d="M87,-179.5C87,-179.5 12,-179.5 12,-179.5 6,-179.5 0,-173.5 0,-167.5 0,-167.5 0,-123.5 0,-123.5 0,-117.5 6,-111.5 12,-111.5 12,-111.5 87,-111.5 87,-111.5 93,-111.5 99,-117.5 99,-123.5 99,-123.5 99,-167.5 99,-167.5 99,-173.5 93,-179.5 87,-179.5"/>
<text text-anchor="start" x="20" y="-164.3" font-family="Helvetica,sans-Serif" font-size="14.00" fill="#000000">gini = 0.0</text>
<text text-anchor="start" x="10" y="-149.3" font-family="Helvetica,sans-Serif" font-size="14.00" fill="#000000">samples = 2</text>
<text text-anchor="start" x="8" y="-134.3" font-family="Helvetica,sans-Serif" font-size="14.00" fill="#000000">value = [0, 2]</text>
<text text-anchor="start" x="20.5" y="-119.3" font-family="Helvetica,sans-Serif" font-size="14.00" fill="#000000">class = 2</text>
</g>
<!-- 5&#45;&gt;6 -->
<g id="edge6" class="edge">
<title>5&#45;&gt;6</title>
<path fill="none" stroke="#000000" d="M119.7268,-222.8796C109.2482,-211.3337 97.8709,-198.7976 87.3859,-187.2446"/>
<polygon fill="#000000" stroke="#000000" points="89.9553,-184.8678 80.643,-179.8149 84.7718,-189.5722 89.9553,-184.8678"/>
</g>
<!-- 7 -->
<g id="node8" class="node">
<title>7</title>
<path fill="#e58139" stroke="#000000" d="M204,-179.5C204,-179.5 129,-179.5 129,-179.5 123,-179.5 117,-173.5 117,-167.5 117,-167.5 117,-123.5 117,-123.5 117,-117.5 123,-111.5 129,-111.5 129,-111.5 204,-111.5 204,-111.5 210,-111.5 216,-117.5 216,-123.5 216,-123.5 216,-167.5 216,-167.5 216,-173.5 210,-179.5 204,-179.5"/>
<text text-anchor="start" x="137" y="-164.3" font-family="Helvetica,sans-Serif" font-size="14.00" fill="#000000">gini = 0.0</text>
<text text-anchor="start" x="127" y="-149.3" font-family="Helvetica,sans-Serif" font-size="14.00" fill="#000000">samples = 4</text>
<text text-anchor="start" x="125" y="-134.3" font-family="Helvetica,sans-Serif" font-size="14.00" fill="#000000">value = [4, 0]</text>
<text text-anchor="start" x="137.5" y="-119.3" font-family="Helvetica,sans-Serif" font-size="14.00" fill="#000000">class = 1</text>
</g>
<!-- 5&#45;&gt;7 -->
<g id="edge7" class="edge">
<title>5&#45;&gt;7</title>
<path fill="none" stroke="#000000" d="M160.6478,-222.8796C161.4545,-212.2134 162.3251,-200.7021 163.1419,-189.9015"/>
<polygon fill="#000000" stroke="#000000" points="166.6405,-190.0504 163.9048,-179.8149 159.6605,-189.5225 166.6405,-190.0504"/>
</g>
<!-- 9 -->
<g id="node10" class="node">
<title>9</title>
<path fill="#ffffff" stroke="#000000" d="M359.5,-187C359.5,-187 263.5,-187 263.5,-187 257.5,-187 251.5,-181 251.5,-175 251.5,-175 251.5,-116 251.5,-116 251.5,-110 257.5,-104 263.5,-104 263.5,-104 359.5,-104 359.5,-104 365.5,-104 371.5,-110 371.5,-116 371.5,-116 371.5,-175 371.5,-175 371.5,-181 365.5,-187 359.5,-187"/>
<text text-anchor="start" x="259.5" y="-171.8" font-family="Helvetica,sans-Serif" font-size="14.00" fill="#000000">Resistin ≤ 10.36</text>
<text text-anchor="start" x="282" y="-156.8" font-family="Helvetica,sans-Serif" font-size="14.00" fill="#000000">gini = 0.5</text>
<text text-anchor="start" x="272" y="-141.8" font-family="Helvetica,sans-Serif" font-size="14.00" fill="#000000">samples = 2</text>
<text text-anchor="start" x="270" y="-126.8" font-family="Helvetica,sans-Serif" font-size="14.00" fill="#000000">value = [1, 1]</text>
<text text-anchor="start" x="282.5" y="-111.8" font-family="Helvetica,sans-Serif" font-size="14.00" fill="#000000">class = 1</text>
</g>
<!-- 8&#45;&gt;9 -->
<g id="edge9" class="edge">
<title>8&#45;&gt;9</title>
<path fill="none" stroke="#000000" d="M317.3522,-222.8796C316.7324,-214.6838 316.0748,-205.9891 315.4329,-197.5013"/>
<polygon fill="#000000" stroke="#000000" points="318.9055,-197.0056 314.6612,-187.2981 311.9254,-197.5336 318.9055,-197.0056"/>
</g>
<!-- 12 -->
<g id="node13" class="node">
<title>12</title>
<path fill="#e58139" stroke="#000000" d="M485,-179.5C485,-179.5 402,-179.5 402,-179.5 396,-179.5 390,-173.5 390,-167.5 390,-167.5 390,-123.5 390,-123.5 390,-117.5 396,-111.5 402,-111.5 402,-111.5 485,-111.5 485,-111.5 491,-111.5 497,-117.5 497,-123.5 497,-123.5 497,-167.5 497,-167.5 497,-173.5 491,-179.5 485,-179.5"/>
<text text-anchor="start" x="414" y="-164.3" font-family="Helvetica,sans-Serif" font-size="14.00" fill="#000000">gini = 0.0</text>
<text text-anchor="start" x="399.5" y="-149.3" font-family="Helvetica,sans-Serif" font-size="14.00" fill="#000000">samples = 22</text>
<text text-anchor="start" x="398" y="-134.3" font-family="Helvetica,sans-Serif" font-size="14.00" fill="#000000">value = [22, 0]</text>
<text text-anchor="start" x="414.5" y="-119.3" font-family="Helvetica,sans-Serif" font-size="14.00" fill="#000000">class = 1</text>
</g>
<!-- 8&#45;&gt;12 -->
<g id="edge12" class="edge">
<title>8&#45;&gt;12</title>
<path fill="none" stroke="#000000" d="M363.5194,-222.8796C375.5671,-211.2237 388.6578,-198.5587 400.6931,-186.9148"/>
<polygon fill="#000000" stroke="#000000" points="403.2783,-189.2837 408.0316,-179.8149 398.411,-184.2528 403.2783,-189.2837"/>
</g>
<!-- 10 -->
<g id="node11" class="node">
<title>10</title>
<path fill="#399de5" stroke="#000000" d="M291,-68C291,-68 216,-68 216,-68 210,-68 204,-62 204,-56 204,-56 204,-12 204,-12 204,-6 210,0 216,0 216,0 291,0 291,0 297,0 303,-6 303,-12 303,-12 303,-56 303,-56 303,-62 297,-68 291,-68"/>
<text text-anchor="start" x="224" y="-52.8" font-family="Helvetica,sans-Serif" font-size="14.00" fill="#000000">gini = 0.0</text>
<text text-anchor="start" x="214" y="-37.8" font-family="Helvetica,sans-Serif" font-size="14.00" fill="#000000">samples = 1</text>
<text text-anchor="start" x="212" y="-22.8" font-family="Helvetica,sans-Serif" font-size="14.00" fill="#000000">value = [0, 1]</text>
<text text-anchor="start" x="224.5" y="-7.8" font-family="Helvetica,sans-Serif" font-size="14.00" fill="#000000">class = 2</text>
</g>
<!-- 9&#45;&gt;10 -->
<g id="edge10" class="edge">
<title>9&#45;&gt;10</title>
<path fill="none" stroke="#000000" d="M289.9029,-103.9815C285.3612,-95.2504 280.5598,-86.0202 275.9863,-77.2281"/>
<polygon fill="#000000" stroke="#000000" points="279.0431,-75.52 271.3233,-68.2637 272.8331,-78.7504 279.0431,-75.52"/>
</g>
<!-- 11 -->
<g id="node12" class="node">
<title>11</title>
<path fill="#e58139" stroke="#000000" d="M408,-68C408,-68 333,-68 333,-68 327,-68 321,-62 321,-56 321,-56 321,-12 321,-12 321,-6 327,0 333,0 333,0 408,0 408,0 414,0 420,-6 420,-12 420,-12 420,-56 420,-56 420,-62 414,-68 408,-68"/>
<text text-anchor="start" x="341" y="-52.8" font-family="Helvetica,sans-Serif" font-size="14.00" fill="#000000">gini = 0.0</text>
<text text-anchor="start" x="331" y="-37.8" font-family="Helvetica,sans-Serif" font-size="14.00" fill="#000000">samples = 1</text>
<text text-anchor="start" x="329" y="-22.8" font-family="Helvetica,sans-Serif" font-size="14.00" fill="#000000">value = [1, 0]</text>
<text text-anchor="start" x="341.5" y="-7.8" font-family="Helvetica,sans-Serif" font-size="14.00" fill="#000000">class = 1</text>
</g>
<!-- 9&#45;&gt;11 -->
<g id="edge11" class="edge">
<title>9&#45;&gt;11</title>
<path fill="none" stroke="#000000" d="M333.4694,-103.9815C338.0895,-95.2504 342.9736,-86.0202 347.626,-77.2281"/>
<polygon fill="#000000" stroke="#000000" points="350.7859,-78.7395 352.3694,-68.2637 344.5987,-75.4655 350.7859,-78.7395"/>
</g>
<!-- 16 -->
<g id="node17" class="node">
<title>16</title>
<path fill="#399de5" stroke="#000000" d="M587,-536.5C587,-536.5 512,-536.5 512,-536.5 506,-536.5 500,-530.5 500,-524.5 500,-524.5 500,-480.5 500,-480.5 500,-474.5 506,-468.5 512,-468.5 512,-468.5 587,-468.5 587,-468.5 593,-468.5 599,-474.5 599,-480.5 599,-480.5 599,-524.5 599,-524.5 599,-530.5 593,-536.5 587,-536.5"/>
<text text-anchor="start" x="520" y="-521.3" font-family="Helvetica,sans-Serif" font-size="14.00" fill="#000000">gini = 0.0</text>
<text text-anchor="start" x="510" y="-506.3" font-family="Helvetica,sans-Serif" font-size="14.00" fill="#000000">samples = 9</text>
<text text-anchor="start" x="508" y="-491.3" font-family="Helvetica,sans-Serif" font-size="14.00" fill="#000000">value = [0, 9]</text>
<text text-anchor="start" x="520.5" y="-476.3" font-family="Helvetica,sans-Serif" font-size="14.00" fill="#000000">class = 2</text>
</g>
<!-- 15&#45;&gt;16 -->
<g id="edge16" class="edge">
<title>15&#45;&gt;16</title>
<path fill="none" stroke="#000000" d="M551.4507,-579.8796C551.1818,-569.2134 550.8916,-557.7021 550.6194,-546.9015"/>
<polygon fill="#000000" stroke="#000000" points="554.1161,-546.7235 550.3651,-536.8149 547.1183,-546.9 554.1161,-546.7235"/>
</g>
<!-- 17 -->
<g id="node18" class="node">
<title>17</title>
<path fill="#e58139" stroke="#000000" d="M704,-536.5C704,-536.5 629,-536.5 629,-536.5 623,-536.5 617,-530.5 617,-524.5 617,-524.5 617,-480.5 617,-480.5 617,-474.5 623,-468.5 629,-468.5 629,-468.5 704,-468.5 704,-468.5 710,-468.5 716,-474.5 716,-480.5 716,-480.5 716,-524.5 716,-524.5 716,-530.5 710,-536.5 704,-536.5"/>
<text text-anchor="start" x="637" y="-521.3" font-family="Helvetica,sans-Serif" font-size="14.00" fill="#000000">gini = 0.0</text>
<text text-anchor="start" x="627" y="-506.3" font-family="Helvetica,sans-Serif" font-size="14.00" fill="#000000">samples = 7</text>
<text text-anchor="start" x="625" y="-491.3" font-family="Helvetica,sans-Serif" font-size="14.00" fill="#000000">value = [7, 0]</text>
<text text-anchor="start" x="637.5" y="-476.3" font-family="Helvetica,sans-Serif" font-size="14.00" fill="#000000">class = 1</text>
</g>
<!-- 15&#45;&gt;17 -->
<g id="edge17" class="edge">
<title>15&#45;&gt;17</title>
<path fill="none" stroke="#000000" d="M592.3717,-579.8796C603.4324,-568.3337 615.4418,-555.7976 626.5094,-544.2446"/>
<polygon fill="#000000" stroke="#000000" points="629.2365,-546.4573 633.6269,-536.8149 624.1817,-541.6149 629.2365,-546.4573"/>
</g>
<!-- 19 -->
<g id="node20" class="node">
<title>19</title>
<path fill="#e58139" stroke="#000000" d="M718,-655.5C718,-655.5 643,-655.5 643,-655.5 637,-655.5 631,-649.5 631,-643.5 631,-643.5 631,-599.5 631,-599.5 631,-593.5 637,-587.5 643,-587.5 643,-587.5 718,-587.5 718,-587.5 724,-587.5 730,-593.5 730,-599.5 730,-599.5 730,-643.5 730,-643.5 730,-649.5 724,-655.5 718,-655.5"/>
<text text-anchor="start" x="651" y="-640.3" font-family="Helvetica,sans-Serif" font-size="14.00" fill="#000000">gini = 0.0</text>
<text text-anchor="start" x="641" y="-625.3" font-family="Helvetica,sans-Serif" font-size="14.00" fill="#000000">samples = 2</text>
<text text-anchor="start" x="639" y="-610.3" font-family="Helvetica,sans-Serif" font-size="14.00" fill="#000000">value = [2, 0]</text>
<text text-anchor="start" x="651.5" y="-595.3" font-family="Helvetica,sans-Serif" font-size="14.00" fill="#000000">class = 1</text>
</g>
<!-- 18&#45;&gt;19 -->
<g id="edge19" class="edge">
<title>18&#45;&gt;19</title>
<path fill="none" stroke="#000000" d="M683.7512,-698.8796C683.3031,-688.2134 682.8194,-676.7021 682.3656,-665.9015"/>
<polygon fill="#000000" stroke="#000000" points="685.8586,-665.6592 681.9418,-655.8149 678.8648,-665.9531 685.8586,-665.6592"/>
</g>
<!-- 20 -->
<g id="node21" class="node">
<title>20</title>
<path fill="#57ace9" stroke="#000000" d="M843,-663C843,-663 760,-663 760,-663 754,-663 748,-657 748,-651 748,-651 748,-592 748,-592 748,-586 754,-580 760,-580 760,-580 843,-580 843,-580 849,-580 855,-586 855,-592 855,-592 855,-651 855,-651 855,-657 849,-663 843,-663"/>
<text text-anchor="start" x="758.5" y="-647.8" font-family="Helvetica,sans-Serif" font-size="14.00" fill="#000000">BMI ≤ 33.777</text>
<text text-anchor="start" x="763.5" y="-632.8" font-family="Helvetica,sans-Serif" font-size="14.00" fill="#000000">gini = 0.231</text>
<text text-anchor="start" x="757.5" y="-617.8" font-family="Helvetica,sans-Serif" font-size="14.00" fill="#000000">samples = 30</text>
<text text-anchor="start" x="756" y="-602.8" font-family="Helvetica,sans-Serif" font-size="14.00" fill="#000000">value = [4, 26]</text>
<text text-anchor="start" x="772.5" y="-587.8" font-family="Helvetica,sans-Serif" font-size="14.00" fill="#000000">class = 2</text>
</g>
<!-- 18&#45;&gt;20 -->
<g id="edge20" class="edge">
<title>18&#45;&gt;20</title>
<path fill="none" stroke="#000000" d="M726.0712,-698.8796C734.9382,-689.7832 744.4044,-680.0722 753.5291,-670.7116"/>
<polygon fill="#000000" stroke="#000000" points="756.2817,-672.9019 760.7557,-663.2981 751.2691,-668.0158 756.2817,-672.9019"/>
</g>
<!-- 21 -->
<g id="node22" class="node">
<title>21</title>
<path fill="#42a1e6" stroke="#000000" d="M847,-544C847,-544 752,-544 752,-544 746,-544 740,-538 740,-532 740,-532 740,-473 740,-473 740,-467 746,-461 752,-461 752,-461 847,-461 847,-461 853,-461 859,-467 859,-473 859,-473 859,-532 859,-532 859,-538 853,-544 847,-544"/>
<text text-anchor="start" x="748" y="-528.8" font-family="Helvetica,sans-Serif" font-size="14.00" fill="#000000">MCP.1 ≤ 67.966</text>
<text text-anchor="start" x="766" y="-513.8" font-family="Helvetica,sans-Serif" font-size="14.00" fill="#000000">gini = 0.08</text>
<text text-anchor="start" x="755.5" y="-498.8" font-family="Helvetica,sans-Serif" font-size="14.00" fill="#000000">samples = 24</text>
<text text-anchor="start" x="754" y="-483.8" font-family="Helvetica,sans-Serif" font-size="14.00" fill="#000000">value = [1, 23]</text>
<text text-anchor="start" x="770.5" y="-468.8" font-family="Helvetica,sans-Serif" font-size="14.00" fill="#000000">class = 2</text>
</g>
<!-- 20&#45;&gt;21 -->
<g id="edge21" class="edge">
<title>20&#45;&gt;21</title>
<path fill="none" stroke="#000000" d="M800.8005,-579.8796C800.6628,-571.6838 800.5166,-562.9891 800.374,-554.5013"/>
<polygon fill="#000000" stroke="#000000" points="803.8701,-554.2378 800.2025,-544.2981 796.8711,-554.3555 803.8701,-554.2378"/>
</g>
<!-- 24 -->
<g id="node25" class="node">
<title>24</title>
<path fill="#ffffff" stroke="#000000" d="M987.5,-544C987.5,-544 889.5,-544 889.5,-544 883.5,-544 877.5,-538 877.5,-532 877.5,-532 877.5,-473 877.5,-473 877.5,-467 883.5,-461 889.5,-461 889.5,-461 987.5,-461 987.5,-461 993.5,-461 999.5,-467 999.5,-473 999.5,-473 999.5,-532 999.5,-532 999.5,-538 993.5,-544 987.5,-544"/>
<text text-anchor="start" x="885.5" y="-528.8" font-family="Helvetica,sans-Serif" font-size="14.00" fill="#000000">Glucose ≤ 112.5</text>
<text text-anchor="start" x="909" y="-513.8" font-family="Helvetica,sans-Serif" font-size="14.00" fill="#000000">gini = 0.5</text>
<text text-anchor="start" x="899" y="-498.8" font-family="Helvetica,sans-Serif" font-size="14.00" fill="#000000">samples = 6</text>
<text text-anchor="start" x="897" y="-483.8" font-family="Helvetica,sans-Serif" font-size="14.00" fill="#000000">value = [3, 3]</text>
<text text-anchor="start" x="909.5" y="-468.8" font-family="Helvetica,sans-Serif" font-size="14.00" fill="#000000">class = 1</text>
</g>
<!-- 20&#45;&gt;24 -->
<g id="edge24" class="edge">
<title>20&#45;&gt;24</title>
<path fill="none" stroke="#000000" d="M849.416,-579.8796C860.1993,-570.513 871.7329,-560.4948 882.8039,-550.8784"/>
<polygon fill="#000000" stroke="#000000" points="885.1251,-553.4982 890.3795,-544.2981 880.5347,-548.2134 885.1251,-553.4982"/>
</g>
<!-- 22 -->
<g id="node23" class="node">
<title>22</title>
<path fill="#e58139" stroke="#000000" d="M720,-417.5C720,-417.5 645,-417.5 645,-417.5 639,-417.5 633,-411.5 633,-405.5 633,-405.5 633,-361.5 633,-361.5 633,-355.5 639,-349.5 645,-349.5 645,-349.5 720,-349.5 720,-349.5 726,-349.5 732,-355.5 732,-361.5 732,-361.5 732,-405.5 732,-405.5 732,-411.5 726,-417.5 720,-417.5"/>
<text text-anchor="start" x="653" y="-402.3" font-family="Helvetica,sans-Serif" font-size="14.00" fill="#000000">gini = 0.0</text>
<text text-anchor="start" x="643" y="-387.3" font-family="Helvetica,sans-Serif" font-size="14.00" fill="#000000">samples = 1</text>
<text text-anchor="start" x="641" y="-372.3" font-family="Helvetica,sans-Serif" font-size="14.00" fill="#000000">value = [1, 0]</text>
<text text-anchor="start" x="653.5" y="-357.3" font-family="Helvetica,sans-Serif" font-size="14.00" fill="#000000">class = 1</text>
</g>
<!-- 21&#45;&gt;22 -->
<g id="edge22" class="edge">
<title>21&#45;&gt;22</title>
<path fill="none" stroke="#000000" d="M758.5791,-460.8796C747.2272,-449.3337 734.9018,-436.7976 723.543,-425.2446"/>
<polygon fill="#000000" stroke="#000000" points="725.7449,-422.4919 716.2382,-417.8149 720.7534,-427.3995 725.7449,-422.4919"/>
</g>
<!-- 23 -->
<g id="node24" class="node">
<title>23</title>
<path fill="#399de5" stroke="#000000" d="M845,-417.5C845,-417.5 762,-417.5 762,-417.5 756,-417.5 750,-411.5 750,-405.5 750,-405.5 750,-361.5 750,-361.5 750,-355.5 756,-349.5 762,-349.5 762,-349.5 845,-349.5 845,-349.5 851,-349.5 857,-355.5 857,-361.5 857,-361.5 857,-405.5 857,-405.5 857,-411.5 851,-417.5 845,-417.5"/>
<text text-anchor="start" x="774" y="-402.3" font-family="Helvetica,sans-Serif" font-size="14.00" fill="#000000">gini = 0.0</text>
<text text-anchor="start" x="759.5" y="-387.3" font-family="Helvetica,sans-Serif" font-size="14.00" fill="#000000">samples = 23</text>
<text text-anchor="start" x="758" y="-372.3" font-family="Helvetica,sans-Serif" font-size="14.00" fill="#000000">value = [0, 23]</text>
<text text-anchor="start" x="774.5" y="-357.3" font-family="Helvetica,sans-Serif" font-size="14.00" fill="#000000">class = 2</text>
</g>
<!-- 21&#45;&gt;23 -->
<g id="edge23" class="edge">
<title>21&#45;&gt;23</title>
<path fill="none" stroke="#000000" d="M800.899,-460.8796C801.2575,-450.2134 801.6445,-438.7021 802.0075,-427.9015"/>
<polygon fill="#000000" stroke="#000000" points="805.5085,-427.9269 802.3466,-417.8149 798.5125,-427.6917 805.5085,-427.9269"/>
</g>
<!-- 25 -->
<g id="node26" class="node">
<title>25</title>
<path fill="#e58139" stroke="#000000" d="M971,-417.5C971,-417.5 896,-417.5 896,-417.5 890,-417.5 884,-411.5 884,-405.5 884,-405.5 884,-361.5 884,-361.5 884,-355.5 890,-349.5 896,-349.5 896,-349.5 971,-349.5 971,-349.5 977,-349.5 983,-355.5 983,-361.5 983,-361.5 983,-405.5 983,-405.5 983,-411.5 977,-417.5 971,-417.5"/>
<text text-anchor="start" x="904" y="-402.3" font-family="Helvetica,sans-Serif" font-size="14.00" fill="#000000">gini = 0.0</text>
<text text-anchor="start" x="894" y="-387.3" font-family="Helvetica,sans-Serif" font-size="14.00" fill="#000000">samples = 3</text>
<text text-anchor="start" x="892" y="-372.3" font-family="Helvetica,sans-Serif" font-size="14.00" fill="#000000">value = [3, 0]</text>
<text text-anchor="start" x="904.5" y="-357.3" font-family="Helvetica,sans-Serif" font-size="14.00" fill="#000000">class = 1</text>
</g>
<!-- 24&#45;&gt;25 -->
<g id="edge25" class="edge">
<title>24&#45;&gt;25</title>
<path fill="none" stroke="#000000" d="M936.7512,-460.8796C936.3031,-450.2134 935.8194,-438.7021 935.3656,-427.9015"/>
<polygon fill="#000000" stroke="#000000" points="938.8586,-427.6592 934.9418,-417.8149 931.8648,-427.9531 938.8586,-427.6592"/>
</g>
<!-- 26 -->
<g id="node27" class="node">
<title>26</title>
<path fill="#399de5" stroke="#000000" d="M1088,-417.5C1088,-417.5 1013,-417.5 1013,-417.5 1007,-417.5 1001,-411.5 1001,-405.5 1001,-405.5 1001,-361.5 1001,-361.5 1001,-355.5 1007,-349.5 1013,-349.5 1013,-349.5 1088,-349.5 1088,-349.5 1094,-349.5 1100,-355.5 1100,-361.5 1100,-361.5 1100,-405.5 1100,-405.5 1100,-411.5 1094,-417.5 1088,-417.5"/>
<text text-anchor="start" x="1021" y="-402.3" font-family="Helvetica,sans-Serif" font-size="14.00" fill="#000000">gini = 0.0</text>
<text text-anchor="start" x="1011" y="-387.3" font-family="Helvetica,sans-Serif" font-size="14.00" fill="#000000">samples = 3</text>
<text text-anchor="start" x="1009" y="-372.3" font-family="Helvetica,sans-Serif" font-size="14.00" fill="#000000">value = [0, 3]</text>
<text text-anchor="start" x="1021.5" y="-357.3" font-family="Helvetica,sans-Serif" font-size="14.00" fill="#000000">class = 2</text>
</g>
<!-- 24&#45;&gt;26 -->
<g id="edge26" class="edge">
<title>24&#45;&gt;26</title>
<path fill="none" stroke="#000000" d="M977.6722,-460.8796C988.5389,-449.3337 1000.3376,-436.7976 1011.2109,-425.2446"/>
<polygon fill="#000000" stroke="#000000" points="1013.8986,-427.4958 1018.2036,-417.8149 1008.8012,-422.6982 1013.8986,-427.4958"/>
</g>
</g>
</svg>
