<?xml version="1.0" encoding="UTF-8" standalone="no"?>
<!DOCTYPE svg PUBLIC "-//W3C//DTD SVG 1.1//EN"
 "http://www.w3.org/Graphics/SVG/1.1/DTD/svg11.dtd">
<!-- Generated by graphviz version 2.40.1 (20161225.0304)
 -->
<!-- Title: Tree Pages: 1 -->
<svg width="1114pt" height="1147pt"
 viewBox="0.00 0.00 1114.00 1147.00" xmlns="http://www.w3.org/2000/svg" xmlns:xlink="http://www.w3.org/1999/xlink">
<g id="graph0" class="graph" transform="scale(1 1) rotate(0) translate(4 1143)">
<title>Tree</title>
<polygon fill="#ffffff" stroke="transparent" points="-4,4 -4,-1143 1110,-1143 1110,4 -4,4"/>
<!-- 0 -->
<g id="node1" class="node">
<title>0</title>
<path fill="#fafdfe" stroke="#000000" d="M744.5,-1139C744.5,-1139 652.5,-1139 652.5,-1139 646.5,-1139 640.5,-1133 640.5,-1127 640.5,-1127 640.5,-1068 640.5,-1068 640.5,-1062 646.5,-1056 652.5,-1056 652.5,-1056 744.5,-1056 744.5,-1056 750.5,-1056 756.5,-1062 756.5,-1068 756.5,-1068 756.5,-1127 756.5,-1127 756.5,-1133 750.5,-1139 744.5,-1139"/>
<text text-anchor="start" x="649.5" y="-1123.8" font-family="Helvetica,sans-Serif" font-size="14.00" fill="#000000">Glucose ≤ 96.5</text>
<text text-anchor="start" x="656" y="-1108.8" font-family="Helvetica,sans-Serif" font-size="14.00" fill="#000000">entropy = 1.0</text>
<text text-anchor="start" x="654.5" y="-1093.8" font-family="Helvetica,sans-Serif" font-size="14.00" fill="#000000">samples = 81</text>
<text text-anchor="start" x="648.5" y="-1078.8" font-family="Helvetica,sans-Serif" font-size="14.00" fill="#000000">value = [40, 41]</text>
<text text-anchor="start" x="669.5" y="-1063.8" font-family="Helvetica,sans-Serif" font-size="14.00" fill="#000000">class = 2</text>
</g>
<!-- 1 -->
<g id="node2" class="node">
<title>1</title>
<path fill="#f0b990" stroke="#000000" d="M678,-1020C678,-1020 583,-1020 583,-1020 577,-1020 571,-1014 571,-1008 571,-1008 571,-949 571,-949 571,-943 577,-937 583,-937 583,-937 678,-937 678,-937 684,-937 690,-943 690,-949 690,-949 690,-1008 690,-1008 690,-1014 684,-1020 678,-1020"/>
<text text-anchor="start" x="579" y="-1004.8" font-family="Helvetica,sans-Serif" font-size="14.00" fill="#000000">Insulin ≤ 14.359</text>
<text text-anchor="start" x="579.5" y="-989.8" font-family="Helvetica,sans-Serif" font-size="14.00" fill="#000000">entropy = 0.889</text>
<text text-anchor="start" x="586.5" y="-974.8" font-family="Helvetica,sans-Serif" font-size="14.00" fill="#000000">samples = 49</text>
<text text-anchor="start" x="580.5" y="-959.8" font-family="Helvetica,sans-Serif" font-size="14.00" fill="#000000">value = [34, 15]</text>
<text text-anchor="start" x="601.5" y="-944.8" font-family="Helvetica,sans-Serif" font-size="14.00" fill="#000000">class = 1</text>
</g>
<!-- 0&#45;&gt;1 -->
<g id="edge1" class="edge">
<title>0&#45;&gt;1</title>
<path fill="none" stroke="#000000" d="M674.7169,-1055.8796C669.7763,-1047.2335 664.5184,-1038.0322 659.4167,-1029.1042"/>
<polygon fill="#000000" stroke="#000000" points="662.3849,-1027.244 654.3846,-1020.2981 656.3072,-1030.717 662.3849,-1027.244"/>
<text text-anchor="middle" x="647.8067" y="-1040.7172" font-family="Helvetica,sans-Serif" font-size="14.00" fill="#000000">True</text>
</g>
<!-- 26 -->
<g id="node27" class="node">
<title>26</title>
<path fill="#67b4eb" stroke="#000000" d="M814.5,-1020C814.5,-1020 720.5,-1020 720.5,-1020 714.5,-1020 708.5,-1014 708.5,-1008 708.5,-1008 708.5,-949 708.5,-949 708.5,-943 714.5,-937 720.5,-937 720.5,-937 814.5,-937 814.5,-937 820.5,-937 826.5,-943 826.5,-949 826.5,-949 826.5,-1008 826.5,-1008 826.5,-1014 820.5,-1020 814.5,-1020"/>
<text text-anchor="start" x="721.5" y="-1004.8" font-family="Helvetica,sans-Serif" font-size="14.00" fill="#000000">Leptin ≤ 6.059</text>
<text text-anchor="start" x="716.5" y="-989.8" font-family="Helvetica,sans-Serif" font-size="14.00" fill="#000000">entropy = 0.696</text>
<text text-anchor="start" x="723.5" y="-974.8" font-family="Helvetica,sans-Serif" font-size="14.00" fill="#000000">samples = 32</text>
<text text-anchor="start" x="722" y="-959.8" font-family="Helvetica,sans-Serif" font-size="14.00" fill="#000000">value = [6, 26]</text>
<text text-anchor="start" x="738.5" y="-944.8" font-family="Helvetica,sans-Serif" font-size="14.00" fill="#000000">class = 2</text>
</g>
<!-- 0&#45;&gt;26 -->
<g id="edge26" class="edge">
<title>0&#45;&gt;26</title>
<path fill="none" stroke="#000000" d="M722.6329,-1055.8796C727.6461,-1047.2335 732.9813,-1038.0322 738.1581,-1029.1042"/>
<polygon fill="#000000" stroke="#000000" points="741.2758,-1030.7047 743.2641,-1020.2981 735.2202,-1027.1934 741.2758,-1030.7047"/>
<text text-anchor="middle" x="749.6897" y="-1040.7582" font-family="Helvetica,sans-Serif" font-size="14.00" fill="#000000">False</text>
</g>
<!-- 2 -->
<g id="node3" class="node">
<title>2</title>
<path fill="#eead7f" stroke="#000000" d="M549.5,-901C549.5,-901 455.5,-901 455.5,-901 449.5,-901 443.5,-895 443.5,-889 443.5,-889 443.5,-830 443.5,-830 443.5,-824 449.5,-818 455.5,-818 455.5,-818 549.5,-818 549.5,-818 555.5,-818 561.5,-824 561.5,-830 561.5,-830 561.5,-889 561.5,-889 561.5,-895 555.5,-901 549.5,-901"/>
<text text-anchor="start" x="454.5" y="-885.8" font-family="Helvetica,sans-Serif" font-size="14.00" fill="#000000">Resistin ≤ 7.74</text>
<text text-anchor="start" x="451.5" y="-870.8" font-family="Helvetica,sans-Serif" font-size="14.00" fill="#000000">entropy = 0.828</text>
<text text-anchor="start" x="458.5" y="-855.8" font-family="Helvetica,sans-Serif" font-size="14.00" fill="#000000">samples = 46</text>
<text text-anchor="start" x="452.5" y="-840.8" font-family="Helvetica,sans-Serif" font-size="14.00" fill="#000000">value = [34, 12]</text>
<text text-anchor="start" x="473.5" y="-825.8" font-family="Helvetica,sans-Serif" font-size="14.00" fill="#000000">class = 1</text>
</g>
<!-- 1&#45;&gt;2 -->
<g id="edge2" class="edge">
<title>1&#45;&gt;2</title>
<path fill="none" stroke="#000000" d="M585.7318,-936.8796C575.7537,-927.6031 565.0881,-917.6874 554.8358,-908.1559"/>
<polygon fill="#000000" stroke="#000000" points="557.1663,-905.5436 547.4593,-901.2981 552.4,-910.6704 557.1663,-905.5436"/>
</g>
<!-- 25 -->
<g id="node26" class="node">
<title>25</title>
<path fill="#399de5" stroke="#000000" d="M669,-893.5C669,-893.5 592,-893.5 592,-893.5 586,-893.5 580,-887.5 580,-881.5 580,-881.5 580,-837.5 580,-837.5 580,-831.5 586,-825.5 592,-825.5 592,-825.5 669,-825.5 669,-825.5 675,-825.5 681,-831.5 681,-837.5 681,-837.5 681,-881.5 681,-881.5 681,-887.5 675,-893.5 669,-893.5"/>
<text text-anchor="start" x="588" y="-878.3" font-family="Helvetica,sans-Serif" font-size="14.00" fill="#000000">entropy = 0.0</text>
<text text-anchor="start" x="591" y="-863.3" font-family="Helvetica,sans-Serif" font-size="14.00" fill="#000000">samples = 3</text>
<text text-anchor="start" x="589" y="-848.3" font-family="Helvetica,sans-Serif" font-size="14.00" fill="#000000">value = [0, 3]</text>
<text text-anchor="start" x="601.5" y="-833.3" font-family="Helvetica,sans-Serif" font-size="14.00" fill="#000000">class = 2</text>
</g>
<!-- 1&#45;&gt;25 -->
<g id="edge25" class="edge">
<title>1&#45;&gt;25</title>
<path fill="none" stroke="#000000" d="M630.5,-936.8796C630.5,-926.2134 630.5,-914.7021 630.5,-903.9015"/>
<polygon fill="#000000" stroke="#000000" points="634.0001,-903.8149 630.5,-893.8149 627.0001,-903.815 634.0001,-903.8149"/>
</g>
<!-- 3 -->
<g id="node4" class="node">
<title>3</title>
<path fill="#e58139" stroke="#000000" d="M411,-774.5C411,-774.5 328,-774.5 328,-774.5 322,-774.5 316,-768.5 316,-762.5 316,-762.5 316,-718.5 316,-718.5 316,-712.5 322,-706.5 328,-706.5 328,-706.5 411,-706.5 411,-706.5 417,-706.5 423,-712.5 423,-718.5 423,-718.5 423,-762.5 423,-762.5 423,-768.5 417,-774.5 411,-774.5"/>
<text text-anchor="start" x="327" y="-759.3" font-family="Helvetica,sans-Serif" font-size="14.00" fill="#000000">entropy = 0.0</text>
<text text-anchor="start" x="325.5" y="-744.3" font-family="Helvetica,sans-Serif" font-size="14.00" fill="#000000">samples = 12</text>
<text text-anchor="start" x="324" y="-729.3" font-family="Helvetica,sans-Serif" font-size="14.00" fill="#000000">value = [12, 0]</text>
<text text-anchor="start" x="340.5" y="-714.3" font-family="Helvetica,sans-Serif" font-size="14.00" fill="#000000">class = 1</text>
</g>
<!-- 2&#45;&gt;3 -->
<g id="edge3" class="edge">
<title>2&#45;&gt;3</title>
<path fill="none" stroke="#000000" d="M455.9831,-817.8796C442.833,-806.1138 428.5337,-793.3197 415.4191,-781.5855"/>
<polygon fill="#000000" stroke="#000000" points="417.6382,-778.8746 407.852,-774.8149 412.9706,-784.0913 417.6382,-778.8746"/>
</g>
<!-- 4 -->
<g id="node5" class="node">
<title>4</title>
<path fill="#f3c6a5" stroke="#000000" d="M557.5,-782C557.5,-782 453.5,-782 453.5,-782 447.5,-782 441.5,-776 441.5,-770 441.5,-770 441.5,-711 441.5,-711 441.5,-705 447.5,-699 453.5,-699 453.5,-699 557.5,-699 557.5,-699 563.5,-699 569.5,-705 569.5,-711 569.5,-711 569.5,-770 569.5,-770 569.5,-776 563.5,-782 557.5,-782"/>
<text text-anchor="start" x="449.5" y="-766.8" font-family="Helvetica,sans-Serif" font-size="14.00" fill="#000000">MCP.1 ≤ 339.218</text>
<text text-anchor="start" x="454.5" y="-751.8" font-family="Helvetica,sans-Serif" font-size="14.00" fill="#000000">entropy = 0.937</text>
<text text-anchor="start" x="461.5" y="-736.8" font-family="Helvetica,sans-Serif" font-size="14.00" fill="#000000">samples = 34</text>
<text text-anchor="start" x="455.5" y="-721.8" font-family="Helvetica,sans-Serif" font-size="14.00" fill="#000000">value = [22, 12]</text>
<text text-anchor="start" x="476.5" y="-706.8" font-family="Helvetica,sans-Serif" font-size="14.00" fill="#000000">class = 1</text>
</g>
<!-- 2&#45;&gt;4 -->
<g id="edge4" class="edge">
<title>2&#45;&gt;4</title>
<path fill="none" stroke="#000000" d="M503.5493,-817.8796C503.7559,-809.6838 503.9751,-800.9891 504.189,-792.5013"/>
<polygon fill="#000000" stroke="#000000" points="507.693,-792.3831 504.4463,-782.2981 500.6953,-792.2067 507.693,-792.3831"/>
</g>
<!-- 5 -->
<g id="node6" class="node">
<title>5</title>
<path fill="#8ec7f0" stroke="#000000" d="M417.5,-663C417.5,-663 313.5,-663 313.5,-663 307.5,-663 301.5,-657 301.5,-651 301.5,-651 301.5,-592 301.5,-592 301.5,-586 307.5,-580 313.5,-580 313.5,-580 417.5,-580 417.5,-580 423.5,-580 429.5,-586 429.5,-592 429.5,-592 429.5,-651 429.5,-651 429.5,-657 423.5,-663 417.5,-663"/>
<text text-anchor="start" x="309.5" y="-647.8" font-family="Helvetica,sans-Serif" font-size="14.00" fill="#000000">Resistin ≤ 12.674</text>
<text text-anchor="start" x="314.5" y="-632.8" font-family="Helvetica,sans-Serif" font-size="14.00" fill="#000000">entropy = 0.881</text>
<text text-anchor="start" x="321.5" y="-617.8" font-family="Helvetica,sans-Serif" font-size="14.00" fill="#000000">samples = 10</text>
<text text-anchor="start" x="324" y="-602.8" font-family="Helvetica,sans-Serif" font-size="14.00" fill="#000000">value = [3, 7]</text>
<text text-anchor="start" x="336.5" y="-587.8" font-family="Helvetica,sans-Serif" font-size="14.00" fill="#000000">class = 2</text>
</g>
<!-- 4&#45;&gt;5 -->
<g id="edge5" class="edge">
<title>4&#45;&gt;5</title>
<path fill="none" stroke="#000000" d="M456.5348,-698.8796C445.5153,-689.513 433.7291,-679.4948 422.4158,-669.8784"/>
<polygon fill="#000000" stroke="#000000" points="424.5604,-667.1078 414.6742,-663.2981 420.0268,-672.4414 424.5604,-667.1078"/>
</g>
<!-- 12 -->
<g id="node13" class="node">
<title>12</title>
<path fill="#eca26d" stroke="#000000" d="M553.5,-663C553.5,-663 459.5,-663 459.5,-663 453.5,-663 447.5,-657 447.5,-651 447.5,-651 447.5,-592 447.5,-592 447.5,-586 453.5,-580 459.5,-580 459.5,-580 553.5,-580 553.5,-580 559.5,-580 565.5,-586 565.5,-592 565.5,-592 565.5,-651 565.5,-651 565.5,-657 559.5,-663 553.5,-663"/>
<text text-anchor="start" x="459.5" y="-647.8" font-family="Helvetica,sans-Serif" font-size="14.00" fill="#000000">Insulin ≤ 3.119</text>
<text text-anchor="start" x="455.5" y="-632.8" font-family="Helvetica,sans-Serif" font-size="14.00" fill="#000000">entropy = 0.738</text>
<text text-anchor="start" x="462.5" y="-617.8" font-family="Helvetica,sans-Serif" font-size="14.00" fill="#000000">samples = 24</text>
<text text-anchor="start" x="461" y="-602.8" font-family="Helvetica,sans-Serif" font-size="14.00" fill="#000000">value = [19, 5]</text>
<text text-anchor="start" x="477.5" y="-587.8" font-family="Helvetica,sans-Serif" font-size="14.00" fill="#000000">class = 1</text>
</g>
<!-- 4&#45;&gt;12 -->
<g id="edge12" class="edge">
<title>4&#45;&gt;12</title>
<path fill="none" stroke="#000000" d="M505.8498,-698.8796C505.9186,-690.6838 505.9917,-681.9891 506.063,-673.5013"/>
<polygon fill="#000000" stroke="#000000" points="509.5645,-673.3272 506.1488,-663.2981 502.5648,-673.2683 509.5645,-673.3272"/>
</g>
<!-- 6 -->
<g id="node7" class="node">
<title>6</title>
<path fill="#ffffff" stroke="#000000" d="M285.5,-544C285.5,-544 195.5,-544 195.5,-544 189.5,-544 183.5,-538 183.5,-532 183.5,-532 183.5,-473 183.5,-473 183.5,-467 189.5,-461 195.5,-461 195.5,-461 285.5,-461 285.5,-461 291.5,-461 297.5,-467 297.5,-473 297.5,-473 297.5,-532 297.5,-532 297.5,-538 291.5,-544 285.5,-544"/>
<text text-anchor="start" x="191.5" y="-528.8" font-family="Helvetica,sans-Serif" font-size="14.00" fill="#000000">Glucose ≤ 92.5</text>
<text text-anchor="start" x="198" y="-513.8" font-family="Helvetica,sans-Serif" font-size="14.00" fill="#000000">entropy = 1.0</text>
<text text-anchor="start" x="201" y="-498.8" font-family="Helvetica,sans-Serif" font-size="14.00" fill="#000000">samples = 6</text>
<text text-anchor="start" x="199" y="-483.8" font-family="Helvetica,sans-Serif" font-size="14.00" fill="#000000">value = [3, 3]</text>
<text text-anchor="start" x="211.5" y="-468.8" font-family="Helvetica,sans-Serif" font-size="14.00" fill="#000000">class = 1</text>
</g>
<!-- 5&#45;&gt;6 -->
<g id="edge6" class="edge">
<title>5&#45;&gt;6</title>
<path fill="none" stroke="#000000" d="M321.7811,-579.8796C312.1314,-570.6931 301.8234,-560.8798 291.9009,-551.4336"/>
<polygon fill="#000000" stroke="#000000" points="294.0616,-548.6582 284.4055,-544.2981 289.235,-553.7282 294.0616,-548.6582"/>
</g>
<!-- 11 -->
<g id="node12" class="node">
<title>11</title>
<path fill="#399de5" stroke="#000000" d="M405,-536.5C405,-536.5 328,-536.5 328,-536.5 322,-536.5 316,-530.5 316,-524.5 316,-524.5 316,-480.5 316,-480.5 316,-474.5 322,-468.5 328,-468.5 328,-468.5 405,-468.5 405,-468.5 411,-468.5 417,-474.5 417,-480.5 417,-480.5 417,-524.5 417,-524.5 417,-530.5 411,-536.5 405,-536.5"/>
<text text-anchor="start" x="324" y="-521.3" font-family="Helvetica,sans-Serif" font-size="14.00" fill="#000000">entropy = 0.0</text>
<text text-anchor="start" x="327" y="-506.3" font-family="Helvetica,sans-Serif" font-size="14.00" fill="#000000">samples = 4</text>
<text text-anchor="start" x="325" y="-491.3" font-family="Helvetica,sans-Serif" font-size="14.00" fill="#000000">value = [0, 4]</text>
<text text-anchor="start" x="337.5" y="-476.3" font-family="Helvetica,sans-Serif" font-size="14.00" fill="#000000">class = 2</text>
</g>
<!-- 5&#45;&gt;11 -->
<g id="edge11" class="edge">
<title>5&#45;&gt;11</title>
<path fill="none" stroke="#000000" d="M365.8498,-579.8796C365.9394,-569.2134 366.0361,-557.7021 366.1269,-546.9015"/>
<polygon fill="#000000" stroke="#000000" points="369.6274,-546.844 366.2116,-536.8149 362.6276,-546.7851 369.6274,-546.844"/>
</g>
<!-- 7 -->
<g id="node8" class="node">
<title>7</title>
<path fill="#7bbeee" stroke="#000000" d="M170,-425C170,-425 49,-425 49,-425 43,-425 37,-419 37,-413 37,-413 37,-354 37,-354 37,-348 43,-342 49,-342 49,-342 170,-342 170,-342 176,-342 182,-348 182,-354 182,-354 182,-413 182,-413 182,-419 176,-425 170,-425"/>
<text text-anchor="start" x="45" y="-409.8" font-family="Helvetica,sans-Serif" font-size="14.00" fill="#000000">Adiponectin ≤ 17.31</text>
<text text-anchor="start" x="58.5" y="-394.8" font-family="Helvetica,sans-Serif" font-size="14.00" fill="#000000">entropy = 0.811</text>
<text text-anchor="start" x="70" y="-379.8" font-family="Helvetica,sans-Serif" font-size="14.00" fill="#000000">samples = 4</text>
<text text-anchor="start" x="68" y="-364.8" font-family="Helvetica,sans-Serif" font-size="14.00" fill="#000000">value = [1, 3]</text>
<text text-anchor="start" x="80.5" y="-349.8" font-family="Helvetica,sans-Serif" font-size="14.00" fill="#000000">class = 2</text>
</g>
<!-- 6&#45;&gt;7 -->
<g id="edge7" class="edge">
<title>6&#45;&gt;7</title>
<path fill="none" stroke="#000000" d="M194.6826,-460.8796C184.4706,-451.6031 173.555,-441.6874 163.0624,-432.1559"/>
<polygon fill="#000000" stroke="#000000" points="165.2684,-429.4313 155.513,-425.2981 160.5616,-434.6127 165.2684,-429.4313"/>
</g>
<!-- 10 -->
<g id="node11" class="node">
<title>10</title>
<path fill="#e58139" stroke="#000000" d="M289,-417.5C289,-417.5 212,-417.5 212,-417.5 206,-417.5 200,-411.5 200,-405.5 200,-405.5 200,-361.5 200,-361.5 200,-355.5 206,-349.5 212,-349.5 212,-349.5 289,-349.5 289,-349.5 295,-349.5 301,-355.5 301,-361.5 301,-361.5 301,-405.5 301,-405.5 301,-411.5 295,-417.5 289,-417.5"/>
<text text-anchor="start" x="208" y="-402.3" font-family="Helvetica,sans-Serif" font-size="14.00" fill="#000000">entropy = 0.0</text>
<text text-anchor="start" x="211" y="-387.3" font-family="Helvetica,sans-Serif" font-size="14.00" fill="#000000">samples = 2</text>
<text text-anchor="start" x="209" y="-372.3" font-family="Helvetica,sans-Serif" font-size="14.00" fill="#000000">value = [2, 0]</text>
<text text-anchor="start" x="221.5" y="-357.3" font-family="Helvetica,sans-Serif" font-size="14.00" fill="#000000">class = 1</text>
</g>
<!-- 6&#45;&gt;10 -->
<g id="edge10" class="edge">
<title>6&#45;&gt;10</title>
<path fill="none" stroke="#000000" d="M243.9975,-460.8796C244.8938,-450.2134 245.8612,-438.7021 246.7688,-427.9015"/>
<polygon fill="#000000" stroke="#000000" points="250.2666,-428.0729 247.6164,-417.8149 243.2912,-427.4867 250.2666,-428.0729"/>
</g>
<!-- 8 -->
<g id="node9" class="node">
<title>8</title>
<path fill="#399de5" stroke="#000000" d="M89,-298.5C89,-298.5 12,-298.5 12,-298.5 6,-298.5 0,-292.5 0,-286.5 0,-286.5 0,-242.5 0,-242.5 0,-236.5 6,-230.5 12,-230.5 12,-230.5 89,-230.5 89,-230.5 95,-230.5 101,-236.5 101,-242.5 101,-242.5 101,-286.5 101,-286.5 101,-292.5 95,-298.5 89,-298.5"/>
<text text-anchor="start" x="8" y="-283.3" font-family="Helvetica,sans-Serif" font-size="14.00" fill="#000000">entropy = 0.0</text>
<text text-anchor="start" x="11" y="-268.3" font-family="Helvetica,sans-Serif" font-size="14.00" fill="#000000">samples = 3</text>
<text text-anchor="start" x="9" y="-253.3" font-family="Helvetica,sans-Serif" font-size="14.00" fill="#000000">value = [0, 3]</text>
<text text-anchor="start" x="21.5" y="-238.3" font-family="Helvetica,sans-Serif" font-size="14.00" fill="#000000">class = 2</text>
</g>
<!-- 7&#45;&gt;8 -->
<g id="edge8" class="edge">
<title>7&#45;&gt;8</title>
<path fill="none" stroke="#000000" d="M88.8647,-341.8796C83.4128,-330.8835 77.5157,-318.9893 72.0184,-307.9015"/>
<polygon fill="#000000" stroke="#000000" points="75.0911,-306.2195 67.5133,-298.8149 68.8196,-309.3289 75.0911,-306.2195"/>
</g>
<!-- 9 -->
<g id="node10" class="node">
<title>9</title>
<path fill="#e58139" stroke="#000000" d="M208,-298.5C208,-298.5 131,-298.5 131,-298.5 125,-298.5 119,-292.5 119,-286.5 119,-286.5 119,-242.5 119,-242.5 119,-236.5 125,-230.5 131,-230.5 131,-230.5 208,-230.5 208,-230.5 214,-230.5 220,-236.5 220,-242.5 220,-242.5 220,-286.5 220,-286.5 220,-292.5 214,-298.5 208,-298.5"/>
<text text-anchor="start" x="127" y="-283.3" font-family="Helvetica,sans-Serif" font-size="14.00" fill="#000000">entropy = 0.0</text>
<text text-anchor="start" x="130" y="-268.3" font-family="Helvetica,sans-Serif" font-size="14.00" fill="#000000">samples = 1</text>
<text text-anchor="start" x="128" y="-253.3" font-family="Helvetica,sans-Serif" font-size="14.00" fill="#000000">value = [1, 0]</text>
<text text-anchor="start" x="140.5" y="-238.3" font-family="Helvetica,sans-Serif" font-size="14.00" fill="#000000">class = 1</text>
</g>
<!-- 7&#45;&gt;9 -->
<g id="edge9" class="edge">
<title>7&#45;&gt;9</title>
<path fill="none" stroke="#000000" d="M130.4851,-341.8796C136.0293,-330.8835 142.0264,-318.9893 147.6169,-307.9015"/>
<polygon fill="#000000" stroke="#000000" points="150.8214,-309.3199 152.1984,-298.8149 144.5709,-306.1684 150.8214,-309.3199"/>
</g>
<!-- 13 -->
<g id="node14" class="node">
<title>13</title>
<path fill="#7bbeee" stroke="#000000" d="M552.5,-544C552.5,-544 448.5,-544 448.5,-544 442.5,-544 436.5,-538 436.5,-532 436.5,-532 436.5,-473 436.5,-473 436.5,-467 442.5,-461 448.5,-461 448.5,-461 552.5,-461 552.5,-461 558.5,-461 564.5,-467 564.5,-473 564.5,-473 564.5,-532 564.5,-532 564.5,-538 558.5,-544 552.5,-544"/>
<text text-anchor="start" x="444.5" y="-528.8" font-family="Helvetica,sans-Serif" font-size="14.00" fill="#000000">MCP.1 ≤ 494.758</text>
<text text-anchor="start" x="449.5" y="-513.8" font-family="Helvetica,sans-Serif" font-size="14.00" fill="#000000">entropy = 0.811</text>
<text text-anchor="start" x="461" y="-498.8" font-family="Helvetica,sans-Serif" font-size="14.00" fill="#000000">samples = 4</text>
<text text-anchor="start" x="459" y="-483.8" font-family="Helvetica,sans-Serif" font-size="14.00" fill="#000000">value = [1, 3]</text>
<text text-anchor="start" x="471.5" y="-468.8" font-family="Helvetica,sans-Serif" font-size="14.00" fill="#000000">class = 2</text>
</g>
<!-- 12&#45;&gt;13 -->
<g id="edge13" class="edge">
<title>12&#45;&gt;13</title>
<path fill="none" stroke="#000000" d="M504.4015,-579.8796C503.9883,-571.6838 503.5499,-562.9891 503.1219,-554.5013"/>
<polygon fill="#000000" stroke="#000000" points="506.6067,-554.1091 502.6075,-544.2981 499.6156,-554.4617 506.6067,-554.1091"/>
</g>
<!-- 16 -->
<g id="node17" class="node">
<title>16</title>
<path fill="#e88f4f" stroke="#000000" d="M716,-544C716,-544 595,-544 595,-544 589,-544 583,-538 583,-532 583,-532 583,-473 583,-473 583,-467 589,-461 595,-461 595,-461 716,-461 716,-461 722,-461 728,-467 728,-473 728,-473 728,-532 728,-532 728,-538 722,-544 716,-544"/>
<text text-anchor="start" x="591" y="-528.8" font-family="Helvetica,sans-Serif" font-size="14.00" fill="#000000">Adiponectin ≤ 6.806</text>
<text text-anchor="start" x="604.5" y="-513.8" font-family="Helvetica,sans-Serif" font-size="14.00" fill="#000000">entropy = 0.469</text>
<text text-anchor="start" x="611.5" y="-498.8" font-family="Helvetica,sans-Serif" font-size="14.00" fill="#000000">samples = 20</text>
<text text-anchor="start" x="610" y="-483.8" font-family="Helvetica,sans-Serif" font-size="14.00" fill="#000000">value = [18, 2]</text>
<text text-anchor="start" x="626.5" y="-468.8" font-family="Helvetica,sans-Serif" font-size="14.00" fill="#000000">class = 1</text>
</g>
<!-- 12&#45;&gt;16 -->
<g id="edge16" class="edge">
<title>12&#45;&gt;16</title>
<path fill="none" stroke="#000000" d="M558.613,-579.8796C570.5225,-570.368 583.2734,-560.1843 595.4844,-550.432"/>
<polygon fill="#000000" stroke="#000000" points="597.7868,-553.0724 603.4165,-544.0969 593.4184,-547.6027 597.7868,-553.0724"/>
</g>
<!-- 14 -->
<g id="node15" class="node">
<title>14</title>
<path fill="#e58139" stroke="#000000" d="M432,-417.5C432,-417.5 355,-417.5 355,-417.5 349,-417.5 343,-411.5 343,-405.5 343,-405.5 343,-361.5 343,-361.5 343,-355.5 349,-349.5 355,-349.5 355,-349.5 432,-349.5 432,-349.5 438,-349.5 444,-355.5 444,-361.5 444,-361.5 444,-405.5 444,-405.5 444,-411.5 438,-417.5 432,-417.5"/>
<text text-anchor="start" x="351" y="-402.3" font-family="Helvetica,sans-Serif" font-size="14.00" fill="#000000">entropy = 0.0</text>
<text text-anchor="start" x="354" y="-387.3" font-family="Helvetica,sans-Serif" font-size="14.00" fill="#000000">samples = 1</text>
<text text-anchor="start" x="352" y="-372.3" font-family="Helvetica,sans-Serif" font-size="14.00" fill="#000000">value = [1, 0]</text>
<text text-anchor="start" x="364.5" y="-357.3" font-family="Helvetica,sans-Serif" font-size="14.00" fill="#000000">class = 1</text>
</g>
<!-- 13&#45;&gt;14 -->
<g id="edge14" class="edge">
<title>13&#45;&gt;14</title>
<path fill="none" stroke="#000000" d="M463.0766,-460.8796C452.7939,-449.4436 441.6377,-437.0363 431.3321,-425.575"/>
<polygon fill="#000000" stroke="#000000" points="433.6435,-422.9108 424.3546,-417.8149 428.4382,-427.5912 433.6435,-422.9108"/>
</g>
<!-- 15 -->
<g id="node16" class="node">
<title>15</title>
<path fill="#399de5" stroke="#000000" d="M551,-417.5C551,-417.5 474,-417.5 474,-417.5 468,-417.5 462,-411.5 462,-405.5 462,-405.5 462,-361.5 462,-361.5 462,-355.5 468,-349.5 474,-349.5 474,-349.5 551,-349.5 551,-349.5 557,-349.5 563,-355.5 563,-361.5 563,-361.5 563,-405.5 563,-405.5 563,-411.5 557,-417.5 551,-417.5"/>
<text text-anchor="start" x="470" y="-402.3" font-family="Helvetica,sans-Serif" font-size="14.00" fill="#000000">entropy = 0.0</text>
<text text-anchor="start" x="473" y="-387.3" font-family="Helvetica,sans-Serif" font-size="14.00" fill="#000000">samples = 3</text>
<text text-anchor="start" x="471" y="-372.3" font-family="Helvetica,sans-Serif" font-size="14.00" fill="#000000">value = [0, 3]</text>
<text text-anchor="start" x="483.5" y="-357.3" font-family="Helvetica,sans-Serif" font-size="14.00" fill="#000000">class = 2</text>
</g>
<!-- 13&#45;&gt;15 -->
<g id="edge15" class="edge">
<title>13&#45;&gt;15</title>
<path fill="none" stroke="#000000" d="M504.697,-460.8796C505.7726,-450.2134 506.9334,-438.7021 508.0225,-427.9015"/>
<polygon fill="#000000" stroke="#000000" points="511.5186,-428.1157 509.0397,-417.8149 504.5539,-427.4133 511.5186,-428.1157"/>
</g>
<!-- 17 -->
<g id="node18" class="node">
<title>17</title>
<path fill="#eca572" stroke="#000000" d="M699.5,-425C699.5,-425 605.5,-425 605.5,-425 599.5,-425 593.5,-419 593.5,-413 593.5,-413 593.5,-354 593.5,-354 593.5,-348 599.5,-342 605.5,-342 605.5,-342 699.5,-342 699.5,-342 705.5,-342 711.5,-348 711.5,-354 711.5,-354 711.5,-413 711.5,-413 711.5,-419 705.5,-425 699.5,-425"/>
<text text-anchor="start" x="603.5" y="-409.8" font-family="Helvetica,sans-Serif" font-size="14.00" fill="#000000">Glucose ≤ 85.0</text>
<text text-anchor="start" x="601.5" y="-394.8" font-family="Helvetica,sans-Serif" font-size="14.00" fill="#000000">entropy = 0.764</text>
<text text-anchor="start" x="613" y="-379.8" font-family="Helvetica,sans-Serif" font-size="14.00" fill="#000000">samples = 9</text>
<text text-anchor="start" x="611" y="-364.8" font-family="Helvetica,sans-Serif" font-size="14.00" fill="#000000">value = [7, 2]</text>
<text text-anchor="start" x="623.5" y="-349.8" font-family="Helvetica,sans-Serif" font-size="14.00" fill="#000000">class = 1</text>
</g>
<!-- 16&#45;&gt;17 -->
<g id="edge17" class="edge">
<title>16&#45;&gt;17</title>
<path fill="none" stroke="#000000" d="M654.4507,-460.8796C654.2441,-452.6838 654.0249,-443.9891 653.811,-435.5013"/>
<polygon fill="#000000" stroke="#000000" points="657.3047,-435.2067 653.5537,-425.2981 650.307,-435.3831 657.3047,-435.2067"/>
</g>
<!-- 24 -->
<g id="node25" class="node">
<title>24</title>
<path fill="#e58139" stroke="#000000" d="M825,-417.5C825,-417.5 742,-417.5 742,-417.5 736,-417.5 730,-411.5 730,-405.5 730,-405.5 730,-361.5 730,-361.5 730,-355.5 736,-349.5 742,-349.5 742,-349.5 825,-349.5 825,-349.5 831,-349.5 837,-355.5 837,-361.5 837,-361.5 837,-405.5 837,-405.5 837,-411.5 831,-417.5 825,-417.5"/>
<text text-anchor="start" x="741" y="-402.3" font-family="Helvetica,sans-Serif" font-size="14.00" fill="#000000">entropy = 0.0</text>
<text text-anchor="start" x="739.5" y="-387.3" font-family="Helvetica,sans-Serif" font-size="14.00" fill="#000000">samples = 11</text>
<text text-anchor="start" x="738" y="-372.3" font-family="Helvetica,sans-Serif" font-size="14.00" fill="#000000">value = [11, 0]</text>
<text text-anchor="start" x="754.5" y="-357.3" font-family="Helvetica,sans-Serif" font-size="14.00" fill="#000000">class = 1</text>
</g>
<!-- 16&#45;&gt;24 -->
<g id="edge24" class="edge">
<title>16&#45;&gt;24</title>
<path fill="none" stroke="#000000" d="M700.2682,-460.8796C712.8056,-449.2237 726.4284,-436.5587 738.953,-424.9148"/>
<polygon fill="#000000" stroke="#000000" points="741.6491,-427.1872 746.5898,-417.8149 736.8828,-422.0605 741.6491,-427.1872"/>
</g>
<!-- 18 -->
<g id="node19" class="node">
<title>18</title>
<path fill="#e58139" stroke="#000000" d="M624,-298.5C624,-298.5 547,-298.5 547,-298.5 541,-298.5 535,-292.5 535,-286.5 535,-286.5 535,-242.5 535,-242.5 535,-236.5 541,-230.5 547,-230.5 547,-230.5 624,-230.5 624,-230.5 630,-230.5 636,-236.5 636,-242.5 636,-242.5 636,-286.5 636,-286.5 636,-292.5 630,-298.5 624,-298.5"/>
<text text-anchor="start" x="543" y="-283.3" font-family="Helvetica,sans-Serif" font-size="14.00" fill="#000000">entropy = 0.0</text>
<text text-anchor="start" x="546" y="-268.3" font-family="Helvetica,sans-Serif" font-size="14.00" fill="#000000">samples = 5</text>
<text text-anchor="start" x="544" y="-253.3" font-family="Helvetica,sans-Serif" font-size="14.00" fill="#000000">value = [5, 0]</text>
<text text-anchor="start" x="556.5" y="-238.3" font-family="Helvetica,sans-Serif" font-size="14.00" fill="#000000">class = 1</text>
</g>
<!-- 17&#45;&gt;18 -->
<g id="edge18" class="edge">
<title>17&#45;&gt;18</title>
<path fill="none" stroke="#000000" d="M629.0667,-341.8796C622.8137,-330.7735 616.0448,-318.7513 609.749,-307.5691"/>
<polygon fill="#000000" stroke="#000000" points="612.7761,-305.8116 604.8202,-298.8149 606.6765,-309.2459 612.7761,-305.8116"/>
</g>
<!-- 19 -->
<g id="node20" class="node">
<title>19</title>
<path fill="#ffffff" stroke="#000000" d="M770.5,-306C770.5,-306 666.5,-306 666.5,-306 660.5,-306 654.5,-300 654.5,-294 654.5,-294 654.5,-235 654.5,-235 654.5,-229 660.5,-223 666.5,-223 666.5,-223 770.5,-223 770.5,-223 776.5,-223 782.5,-229 782.5,-235 782.5,-235 782.5,-294 782.5,-294 782.5,-300 776.5,-306 770.5,-306"/>
<text text-anchor="start" x="662.5" y="-290.8" font-family="Helvetica,sans-Serif" font-size="14.00" fill="#000000">MCP.1 ≤ 604.867</text>
<text text-anchor="start" x="676" y="-275.8" font-family="Helvetica,sans-Serif" font-size="14.00" fill="#000000">entropy = 1.0</text>
<text text-anchor="start" x="679" y="-260.8" font-family="Helvetica,sans-Serif" font-size="14.00" fill="#000000">samples = 4</text>
<text text-anchor="start" x="677" y="-245.8" font-family="Helvetica,sans-Serif" font-size="14.00" fill="#000000">value = [2, 2]</text>
<text text-anchor="start" x="689.5" y="-230.8" font-family="Helvetica,sans-Serif" font-size="14.00" fill="#000000">class = 1</text>
</g>
<!-- 17&#45;&gt;19 -->
<g id="edge19" class="edge">
<title>17&#45;&gt;19</title>
<path fill="none" stroke="#000000" d="M675.5836,-341.8796C680.3789,-333.2335 685.4822,-324.0322 690.4338,-315.1042"/>
<polygon fill="#000000" stroke="#000000" points="693.5284,-316.7407 695.3179,-306.2981 687.4069,-313.3455 693.5284,-316.7407"/>
</g>
<!-- 20 -->
<g id="node21" class="node">
<title>20</title>
<path fill="#e58139" stroke="#000000" d="M693,-179.5C693,-179.5 616,-179.5 616,-179.5 610,-179.5 604,-173.5 604,-167.5 604,-167.5 604,-123.5 604,-123.5 604,-117.5 610,-111.5 616,-111.5 616,-111.5 693,-111.5 693,-111.5 699,-111.5 705,-117.5 705,-123.5 705,-123.5 705,-167.5 705,-167.5 705,-173.5 699,-179.5 693,-179.5"/>
<text text-anchor="start" x="612" y="-164.3" font-family="Helvetica,sans-Serif" font-size="14.00" fill="#000000">entropy = 0.0</text>
<text text-anchor="start" x="615" y="-149.3" font-family="Helvetica,sans-Serif" font-size="14.00" fill="#000000">samples = 1</text>
<text text-anchor="start" x="613" y="-134.3" font-family="Helvetica,sans-Serif" font-size="14.00" fill="#000000">value = [1, 0]</text>
<text text-anchor="start" x="625.5" y="-119.3" font-family="Helvetica,sans-Serif" font-size="14.00" fill="#000000">class = 1</text>
</g>
<!-- 19&#45;&gt;20 -->
<g id="edge20" class="edge">
<title>19&#45;&gt;20</title>
<path fill="none" stroke="#000000" d="M696.1159,-222.8796C690.202,-211.8835 683.8051,-199.9893 677.842,-188.9015"/>
<polygon fill="#000000" stroke="#000000" points="680.7742,-186.9642 672.9551,-179.8149 674.6092,-190.2799 680.7742,-186.9642"/>
</g>
<!-- 21 -->
<g id="node22" class="node">
<title>21</title>
<path fill="#9ccef2" stroke="#000000" d="M829.5,-187C829.5,-187 735.5,-187 735.5,-187 729.5,-187 723.5,-181 723.5,-175 723.5,-175 723.5,-116 723.5,-116 723.5,-110 729.5,-104 735.5,-104 735.5,-104 829.5,-104 829.5,-104 835.5,-104 841.5,-110 841.5,-116 841.5,-116 841.5,-175 841.5,-175 841.5,-181 835.5,-187 829.5,-187"/>
<text text-anchor="start" x="739.5" y="-171.8" font-family="Helvetica,sans-Serif" font-size="14.00" fill="#000000">BMI ≤ 22.665</text>
<text text-anchor="start" x="731.5" y="-156.8" font-family="Helvetica,sans-Serif" font-size="14.00" fill="#000000">entropy = 0.918</text>
<text text-anchor="start" x="743" y="-141.8" font-family="Helvetica,sans-Serif" font-size="14.00" fill="#000000">samples = 3</text>
<text text-anchor="start" x="741" y="-126.8" font-family="Helvetica,sans-Serif" font-size="14.00" fill="#000000">value = [1, 2]</text>
<text text-anchor="start" x="753.5" y="-111.8" font-family="Helvetica,sans-Serif" font-size="14.00" fill="#000000">class = 2</text>
</g>
<!-- 19&#45;&gt;21 -->
<g id="edge21" class="edge">
<title>19&#45;&gt;21</title>
<path fill="none" stroke="#000000" d="M740.8841,-222.8796C745.4856,-214.3236 750.3796,-205.2238 755.1342,-196.3833"/>
<polygon fill="#000000" stroke="#000000" points="758.3662,-197.763 760.0204,-187.2981 752.2012,-194.4473 758.3662,-197.763"/>
</g>
<!-- 22 -->
<g id="node23" class="node">
<title>22</title>
<path fill="#e58139" stroke="#000000" d="M762,-68C762,-68 685,-68 685,-68 679,-68 673,-62 673,-56 673,-56 673,-12 673,-12 673,-6 679,0 685,0 685,0 762,0 762,0 768,0 774,-6 774,-12 774,-12 774,-56 774,-56 774,-62 768,-68 762,-68"/>
<text text-anchor="start" x="681" y="-52.8" font-family="Helvetica,sans-Serif" font-size="14.00" fill="#000000">entropy = 0.0</text>
<text text-anchor="start" x="684" y="-37.8" font-family="Helvetica,sans-Serif" font-size="14.00" fill="#000000">samples = 1</text>
<text text-anchor="start" x="682" y="-22.8" font-family="Helvetica,sans-Serif" font-size="14.00" fill="#000000">value = [1, 0]</text>
<text text-anchor="start" x="694.5" y="-7.8" font-family="Helvetica,sans-Serif" font-size="14.00" fill="#000000">class = 1</text>
</g>
<!-- 21&#45;&gt;22 -->
<g id="edge22" class="edge">
<title>21&#45;&gt;22</title>
<path fill="none" stroke="#000000" d="M760.5306,-103.9815C755.9105,-95.2504 751.0264,-86.0202 746.374,-77.2281"/>
<polygon fill="#000000" stroke="#000000" points="749.4013,-75.4655 741.6306,-68.2637 743.2141,-78.7395 749.4013,-75.4655"/>
</g>
<!-- 23 -->
<g id="node24" class="node">
<title>23</title>
<path fill="#399de5" stroke="#000000" d="M881,-68C881,-68 804,-68 804,-68 798,-68 792,-62 792,-56 792,-56 792,-12 792,-12 792,-6 798,0 804,0 804,0 881,0 881,0 887,0 893,-6 893,-12 893,-12 893,-56 893,-56 893,-62 887,-68 881,-68"/>
<text text-anchor="start" x="800" y="-52.8" font-family="Helvetica,sans-Serif" font-size="14.00" fill="#000000">entropy = 0.0</text>
<text text-anchor="start" x="803" y="-37.8" font-family="Helvetica,sans-Serif" font-size="14.00" fill="#000000">samples = 2</text>
<text text-anchor="start" x="801" y="-22.8" font-family="Helvetica,sans-Serif" font-size="14.00" fill="#000000">value = [0, 2]</text>
<text text-anchor="start" x="813.5" y="-7.8" font-family="Helvetica,sans-Serif" font-size="14.00" fill="#000000">class = 2</text>
</g>
<!-- 21&#45;&gt;23 -->
<g id="edge23" class="edge">
<title>21&#45;&gt;23</title>
<path fill="none" stroke="#000000" d="M804.8418,-103.9815C809.5402,-95.2504 814.5071,-86.0202 819.2383,-77.2281"/>
<polygon fill="#000000" stroke="#000000" points="822.4056,-78.7282 824.0621,-68.2637 816.2414,-75.4111 822.4056,-78.7282"/>
</g>
<!-- 27 -->
<g id="node28" class="node">
<title>27</title>
<path fill="#e58139" stroke="#000000" d="M806,-893.5C806,-893.5 729,-893.5 729,-893.5 723,-893.5 717,-887.5 717,-881.5 717,-881.5 717,-837.5 717,-837.5 717,-831.5 723,-825.5 729,-825.5 729,-825.5 806,-825.5 806,-825.5 812,-825.5 818,-831.5 818,-837.5 818,-837.5 818,-881.5 818,-881.5 818,-887.5 812,-893.5 806,-893.5"/>
<text text-anchor="start" x="725" y="-878.3" font-family="Helvetica,sans-Serif" font-size="14.00" fill="#000000">entropy = 0.0</text>
<text text-anchor="start" x="728" y="-863.3" font-family="Helvetica,sans-Serif" font-size="14.00" fill="#000000">samples = 2</text>
<text text-anchor="start" x="726" y="-848.3" font-family="Helvetica,sans-Serif" font-size="14.00" fill="#000000">value = [2, 0]</text>
<text text-anchor="start" x="738.5" y="-833.3" font-family="Helvetica,sans-Serif" font-size="14.00" fill="#000000">class = 1</text>
</g>
<!-- 26&#45;&gt;27 -->
<g id="edge27" class="edge">
<title>26&#45;&gt;27</title>
<path fill="none" stroke="#000000" d="M767.5,-936.8796C767.5,-926.2134 767.5,-914.7021 767.5,-903.9015"/>
<polygon fill="#000000" stroke="#000000" points="771.0001,-903.8149 767.5,-893.8149 764.0001,-903.815 771.0001,-903.8149"/>
</g>
<!-- 28 -->
<g id="node29" class="node">
<title>28</title>
<path fill="#57ace9" stroke="#000000" d="M969,-901C969,-901 848,-901 848,-901 842,-901 836,-895 836,-889 836,-889 836,-830 836,-830 836,-824 842,-818 848,-818 848,-818 969,-818 969,-818 975,-818 981,-824 981,-830 981,-830 981,-889 981,-889 981,-895 975,-901 969,-901"/>
<text text-anchor="start" x="844" y="-885.8" font-family="Helvetica,sans-Serif" font-size="14.00" fill="#000000">Adiponectin ≤ 7.721</text>
<text text-anchor="start" x="857.5" y="-870.8" font-family="Helvetica,sans-Serif" font-size="14.00" fill="#000000">entropy = 0.567</text>
<text text-anchor="start" x="864.5" y="-855.8" font-family="Helvetica,sans-Serif" font-size="14.00" fill="#000000">samples = 30</text>
<text text-anchor="start" x="863" y="-840.8" font-family="Helvetica,sans-Serif" font-size="14.00" fill="#000000">value = [4, 26]</text>
<text text-anchor="start" x="879.5" y="-825.8" font-family="Helvetica,sans-Serif" font-size="14.00" fill="#000000">class = 2</text>
</g>
<!-- 26&#45;&gt;28 -->
<g id="edge28" class="edge">
<title>26&#45;&gt;28</title>
<path fill="none" stroke="#000000" d="M816.815,-936.8796C827.9132,-927.513 839.7835,-917.4948 851.1777,-907.8784"/>
<polygon fill="#000000" stroke="#000000" points="853.5899,-910.4225 858.9746,-901.2981 849.075,-905.0731 853.5899,-910.4225"/>
</g>
<!-- 29 -->
<g id="node30" class="node">
<title>29</title>
<path fill="#91c9f1" stroke="#000000" d="M969,-782C969,-782 848,-782 848,-782 842,-782 836,-776 836,-770 836,-770 836,-711 836,-711 836,-705 842,-699 848,-699 848,-699 969,-699 969,-699 975,-699 981,-705 981,-711 981,-711 981,-770 981,-770 981,-776 975,-782 969,-782"/>
<text text-anchor="start" x="844" y="-766.8" font-family="Helvetica,sans-Serif" font-size="14.00" fill="#000000">Adiponectin ≤ 6.746</text>
<text text-anchor="start" x="861.5" y="-751.8" font-family="Helvetica,sans-Serif" font-size="14.00" fill="#000000">entropy = 0.89</text>
<text text-anchor="start" x="864.5" y="-736.8" font-family="Helvetica,sans-Serif" font-size="14.00" fill="#000000">samples = 13</text>
<text text-anchor="start" x="867" y="-721.8" font-family="Helvetica,sans-Serif" font-size="14.00" fill="#000000">value = [4, 9]</text>
<text text-anchor="start" x="879.5" y="-706.8" font-family="Helvetica,sans-Serif" font-size="14.00" fill="#000000">class = 2</text>
</g>
<!-- 28&#45;&gt;29 -->
<g id="edge29" class="edge">
<title>28&#45;&gt;29</title>
<path fill="none" stroke="#000000" d="M908.5,-817.8796C908.5,-809.6838 908.5,-800.9891 908.5,-792.5013"/>
<polygon fill="#000000" stroke="#000000" points="912.0001,-792.298 908.5,-782.2981 905.0001,-792.2981 912.0001,-792.298"/>
</g>
<!-- 36 -->
<g id="node37" class="node">
<title>36</title>
<path fill="#399de5" stroke="#000000" d="M1094,-774.5C1094,-774.5 1011,-774.5 1011,-774.5 1005,-774.5 999,-768.5 999,-762.5 999,-762.5 999,-718.5 999,-718.5 999,-712.5 1005,-706.5 1011,-706.5 1011,-706.5 1094,-706.5 1094,-706.5 1100,-706.5 1106,-712.5 1106,-718.5 1106,-718.5 1106,-762.5 1106,-762.5 1106,-768.5 1100,-774.5 1094,-774.5"/>
<text text-anchor="start" x="1010" y="-759.3" font-family="Helvetica,sans-Serif" font-size="14.00" fill="#000000">entropy = 0.0</text>
<text text-anchor="start" x="1008.5" y="-744.3" font-family="Helvetica,sans-Serif" font-size="14.00" fill="#000000">samples = 17</text>
<text text-anchor="start" x="1007" y="-729.3" font-family="Helvetica,sans-Serif" font-size="14.00" fill="#000000">value = [0, 17]</text>
<text text-anchor="start" x="1023.5" y="-714.3" font-family="Helvetica,sans-Serif" font-size="14.00" fill="#000000">class = 2</text>
</g>
<!-- 28&#45;&gt;36 -->
<g id="edge36" class="edge">
<title>28&#45;&gt;36</title>
<path fill="none" stroke="#000000" d="M958.8642,-817.8796C973.2349,-806.0038 988.8733,-793.0804 1003.1808,-781.2568"/>
<polygon fill="#000000" stroke="#000000" points="1005.4971,-783.8831 1010.976,-774.8149 1001.038,-778.4872 1005.4971,-783.8831"/>
</g>
<!-- 30 -->
<g id="node31" class="node">
<title>30</title>
<path fill="#65b3eb" stroke="#000000" d="M958.5,-663C958.5,-663 854.5,-663 854.5,-663 848.5,-663 842.5,-657 842.5,-651 842.5,-651 842.5,-592 842.5,-592 842.5,-586 848.5,-580 854.5,-580 854.5,-580 958.5,-580 958.5,-580 964.5,-580 970.5,-586 970.5,-592 970.5,-592 970.5,-651 970.5,-651 970.5,-657 964.5,-663 958.5,-663"/>
<text text-anchor="start" x="850.5" y="-647.8" font-family="Helvetica,sans-Serif" font-size="14.00" fill="#000000">Resistin ≤ 13.741</text>
<text text-anchor="start" x="855.5" y="-632.8" font-family="Helvetica,sans-Serif" font-size="14.00" fill="#000000">entropy = 0.684</text>
<text text-anchor="start" x="862.5" y="-617.8" font-family="Helvetica,sans-Serif" font-size="14.00" fill="#000000">samples = 11</text>
<text text-anchor="start" x="865" y="-602.8" font-family="Helvetica,sans-Serif" font-size="14.00" fill="#000000">value = [2, 9]</text>
<text text-anchor="start" x="877.5" y="-587.8" font-family="Helvetica,sans-Serif" font-size="14.00" fill="#000000">class = 2</text>
</g>
<!-- 29&#45;&gt;30 -->
<g id="edge30" class="edge">
<title>29&#45;&gt;30</title>
<path fill="none" stroke="#000000" d="M907.8005,-698.8796C907.6628,-690.6838 907.5166,-681.9891 907.374,-673.5013"/>
<polygon fill="#000000" stroke="#000000" points="910.8701,-673.2378 907.2025,-663.2981 903.8711,-673.3555 910.8701,-673.2378"/>
</g>
<!-- 35 -->
<g id="node36" class="node">
<title>35</title>
<path fill="#e58139" stroke="#000000" d="M1078,-655.5C1078,-655.5 1001,-655.5 1001,-655.5 995,-655.5 989,-649.5 989,-643.5 989,-643.5 989,-599.5 989,-599.5 989,-593.5 995,-587.5 1001,-587.5 1001,-587.5 1078,-587.5 1078,-587.5 1084,-587.5 1090,-593.5 1090,-599.5 1090,-599.5 1090,-643.5 1090,-643.5 1090,-649.5 1084,-655.5 1078,-655.5"/>
<text text-anchor="start" x="997" y="-640.3" font-family="Helvetica,sans-Serif" font-size="14.00" fill="#000000">entropy = 0.0</text>
<text text-anchor="start" x="1000" y="-625.3" font-family="Helvetica,sans-Serif" font-size="14.00" fill="#000000">samples = 2</text>
<text text-anchor="start" x="998" y="-610.3" font-family="Helvetica,sans-Serif" font-size="14.00" fill="#000000">value = [2, 0]</text>
<text text-anchor="start" x="1010.5" y="-595.3" font-family="Helvetica,sans-Serif" font-size="14.00" fill="#000000">class = 1</text>
</g>
<!-- 29&#45;&gt;35 -->
<g id="edge35" class="edge">
<title>29&#45;&gt;35</title>
<path fill="none" stroke="#000000" d="M954.3174,-698.8796C967.2697,-687.1138 981.354,-674.3197 994.2714,-662.5855"/>
<polygon fill="#000000" stroke="#000000" points="996.6761,-665.1296 1001.7247,-655.8149 991.9694,-659.9482 996.6761,-665.1296"/>
</g>
<!-- 31 -->
<g id="node32" class="node">
<title>31</title>
<path fill="#ffffff" stroke="#000000" d="M953.5,-544C953.5,-544 857.5,-544 857.5,-544 851.5,-544 845.5,-538 845.5,-532 845.5,-532 845.5,-473 845.5,-473 845.5,-467 851.5,-461 857.5,-461 857.5,-461 953.5,-461 953.5,-461 959.5,-461 965.5,-467 965.5,-473 965.5,-473 965.5,-532 965.5,-532 965.5,-538 959.5,-544 953.5,-544"/>
<text text-anchor="start" x="853.5" y="-528.8" font-family="Helvetica,sans-Serif" font-size="14.00" fill="#000000">Resistin ≤ 8.349</text>
<text text-anchor="start" x="863" y="-513.8" font-family="Helvetica,sans-Serif" font-size="14.00" fill="#000000">entropy = 1.0</text>
<text text-anchor="start" x="866" y="-498.8" font-family="Helvetica,sans-Serif" font-size="14.00" fill="#000000">samples = 4</text>
<text text-anchor="start" x="864" y="-483.8" font-family="Helvetica,sans-Serif" font-size="14.00" fill="#000000">value = [2, 2]</text>
<text text-anchor="start" x="876.5" y="-468.8" font-family="Helvetica,sans-Serif" font-size="14.00" fill="#000000">class = 1</text>
</g>
<!-- 30&#45;&gt;31 -->
<g id="edge31" class="edge">
<title>30&#45;&gt;31</title>
<path fill="none" stroke="#000000" d="M906.1502,-579.8796C906.0814,-571.6838 906.0083,-562.9891 905.937,-554.5013"/>
<polygon fill="#000000" stroke="#000000" points="909.4352,-554.2683 905.8512,-544.2981 902.4355,-554.3272 909.4352,-554.2683"/>
</g>
<!-- 34 -->
<g id="node35" class="node">
<title>34</title>
<path fill="#399de5" stroke="#000000" d="M1073,-536.5C1073,-536.5 996,-536.5 996,-536.5 990,-536.5 984,-530.5 984,-524.5 984,-524.5 984,-480.5 984,-480.5 984,-474.5 990,-468.5 996,-468.5 996,-468.5 1073,-468.5 1073,-468.5 1079,-468.5 1085,-474.5 1085,-480.5 1085,-480.5 1085,-524.5 1085,-524.5 1085,-530.5 1079,-536.5 1073,-536.5"/>
<text text-anchor="start" x="992" y="-521.3" font-family="Helvetica,sans-Serif" font-size="14.00" fill="#000000">entropy = 0.0</text>
<text text-anchor="start" x="995" y="-506.3" font-family="Helvetica,sans-Serif" font-size="14.00" fill="#000000">samples = 7</text>
<text text-anchor="start" x="993" y="-491.3" font-family="Helvetica,sans-Serif" font-size="14.00" fill="#000000">value = [0, 7]</text>
<text text-anchor="start" x="1005.5" y="-476.3" font-family="Helvetica,sans-Serif" font-size="14.00" fill="#000000">class = 2</text>
</g>
<!-- 30&#45;&gt;34 -->
<g id="edge34" class="edge">
<title>30&#45;&gt;34</title>
<path fill="none" stroke="#000000" d="M951.2682,-579.8796C963.8056,-568.2237 977.4284,-555.5587 989.953,-543.9148"/>
<polygon fill="#000000" stroke="#000000" points="992.6491,-546.1872 997.5898,-536.8149 987.8828,-541.0605 992.6491,-546.1872"/>
</g>
<!-- 32 -->
<g id="node33" class="node">
<title>32</title>
<path fill="#399de5" stroke="#000000" d="M944,-417.5C944,-417.5 867,-417.5 867,-417.5 861,-417.5 855,-411.5 855,-405.5 855,-405.5 855,-361.5 855,-361.5 855,-355.5 861,-349.5 867,-349.5 867,-349.5 944,-349.5 944,-349.5 950,-349.5 956,-355.5 956,-361.5 956,-361.5 956,-405.5 956,-405.5 956,-411.5 950,-417.5 944,-417.5"/>
<text text-anchor="start" x="863" y="-402.3" font-family="Helvetica,sans-Serif" font-size="14.00" fill="#000000">entropy = 0.0</text>
<text text-anchor="start" x="866" y="-387.3" font-family="Helvetica,sans-Serif" font-size="14.00" fill="#000000">samples = 2</text>
<text text-anchor="start" x="864" y="-372.3" font-family="Helvetica,sans-Serif" font-size="14.00" fill="#000000">value = [0, 2]</text>
<text text-anchor="start" x="876.5" y="-357.3" font-family="Helvetica,sans-Serif" font-size="14.00" fill="#000000">class = 2</text>
</g>
<!-- 31&#45;&gt;32 -->
<g id="edge32" class="edge">
<title>31&#45;&gt;32</title>
<path fill="none" stroke="#000000" d="M905.5,-460.8796C905.5,-450.2134 905.5,-438.7021 905.5,-427.9015"/>
<polygon fill="#000000" stroke="#000000" points="909.0001,-427.8149 905.5,-417.8149 902.0001,-427.815 909.0001,-427.8149"/>
</g>
<!-- 33 -->
<g id="node34" class="node">
<title>33</title>
<path fill="#e58139" stroke="#000000" d="M1063,-417.5C1063,-417.5 986,-417.5 986,-417.5 980,-417.5 974,-411.5 974,-405.5 974,-405.5 974,-361.5 974,-361.5 974,-355.5 980,-349.5 986,-349.5 986,-349.5 1063,-349.5 1063,-349.5 1069,-349.5 1075,-355.5 1075,-361.5 1075,-361.5 1075,-405.5 1075,-405.5 1075,-411.5 1069,-417.5 1063,-417.5"/>
<text text-anchor="start" x="982" y="-402.3" font-family="Helvetica,sans-Serif" font-size="14.00" fill="#000000">entropy = 0.0</text>
<text text-anchor="start" x="985" y="-387.3" font-family="Helvetica,sans-Serif" font-size="14.00" fill="#000000">samples = 2</text>
<text text-anchor="start" x="983" y="-372.3" font-family="Helvetica,sans-Serif" font-size="14.00" fill="#000000">value = [2, 0]</text>
<text text-anchor="start" x="995.5" y="-357.3" font-family="Helvetica,sans-Serif" font-size="14.00" fill="#000000">class = 1</text>
</g>
<!-- 31&#45;&gt;33 -->
<g id="edge33" class="edge">
<title>31&#45;&gt;33</title>
<path fill="none" stroke="#000000" d="M947.1204,-460.8796C958.7763,-449.2237 971.4413,-436.5587 983.0852,-424.9148"/>
<polygon fill="#000000" stroke="#000000" points="985.5889,-427.3609 990.1851,-417.8149 980.6391,-422.4111 985.5889,-427.3609"/>
</g>
</g>
</svg>
