<?xml version="1.0" encoding="UTF-8" standalone="no"?>
<!DOCTYPE svg PUBLIC "-//W3C//DTD SVG 1.1//EN"
 "http://www.w3.org/Graphics/SVG/1.1/DTD/svg11.dtd">
<!-- Generated by graphviz version 2.40.1 (20161225.0304)
 -->
<!-- Title: Tree Pages: 1 -->
<svg width="1104pt" height="909pt"
 viewBox="0.00 0.00 1104.00 909.00" xmlns="http://www.w3.org/2000/svg" xmlns:xlink="http://www.w3.org/1999/xlink">
<g id="graph0" class="graph" transform="scale(1 1) rotate(0) translate(4 905)">
<title>Tree</title>
<polygon fill="#ffffff" stroke="transparent" points="-4,4 -4,-905 1100,-905 1100,4 -4,4"/>
<!-- 0 -->
<g id="node1" class="node">
<title>0</title>
<path fill="#fafdfe" stroke="#000000" d="M659.5,-901C659.5,-901 567.5,-901 567.5,-901 561.5,-901 555.5,-895 555.5,-889 555.5,-889 555.5,-830 555.5,-830 555.5,-824 561.5,-818 567.5,-818 567.5,-818 659.5,-818 659.5,-818 665.5,-818 671.5,-824 671.5,-830 671.5,-830 671.5,-889 671.5,-889 671.5,-895 665.5,-901 659.5,-901"/>
<text text-anchor="start" x="564.5" y="-885.8" font-family="Helvetica,sans-Serif" font-size="14.00" fill="#000000">Glucose ≤ 96.5</text>
<text text-anchor="start" x="584" y="-870.8" font-family="Helvetica,sans-Serif" font-size="14.00" fill="#000000">gini = 0.5</text>
<text text-anchor="start" x="569.5" y="-855.8" font-family="Helvetica,sans-Serif" font-size="14.00" fill="#000000">samples = 81</text>
<text text-anchor="start" x="563.5" y="-840.8" font-family="Helvetica,sans-Serif" font-size="14.00" fill="#000000">value = [40, 41]</text>
<text text-anchor="start" x="584.5" y="-825.8" font-family="Helvetica,sans-Serif" font-size="14.00" fill="#000000">class = 2</text>
</g>
<!-- 1 -->
<g id="node2" class="node">
<title>1</title>
<path fill="#f0b990" stroke="#000000" d="M597.5,-782C597.5,-782 493.5,-782 493.5,-782 487.5,-782 481.5,-776 481.5,-770 481.5,-770 481.5,-711 481.5,-711 481.5,-705 487.5,-699 493.5,-699 493.5,-699 597.5,-699 597.5,-699 603.5,-699 609.5,-705 609.5,-711 609.5,-711 609.5,-770 609.5,-770 609.5,-776 603.5,-782 597.5,-782"/>
<text text-anchor="start" x="489.5" y="-766.8" font-family="Helvetica,sans-Serif" font-size="14.00" fill="#000000">Resistin ≤ 13.248</text>
<text text-anchor="start" x="507.5" y="-751.8" font-family="Helvetica,sans-Serif" font-size="14.00" fill="#000000">gini = 0.425</text>
<text text-anchor="start" x="501.5" y="-736.8" font-family="Helvetica,sans-Serif" font-size="14.00" fill="#000000">samples = 49</text>
<text text-anchor="start" x="495.5" y="-721.8" font-family="Helvetica,sans-Serif" font-size="14.00" fill="#000000">value = [34, 15]</text>
<text text-anchor="start" x="516.5" y="-706.8" font-family="Helvetica,sans-Serif" font-size="14.00" fill="#000000">class = 1</text>
</g>
<!-- 0&#45;&gt;1 -->
<g id="edge1" class="edge">
<title>0&#45;&gt;1</title>
<path fill="none" stroke="#000000" d="M589.7169,-817.8796C584.7763,-809.2335 579.5184,-800.0322 574.4167,-791.1042"/>
<polygon fill="#000000" stroke="#000000" points="577.3849,-789.244 569.3846,-782.2981 571.3072,-792.717 577.3849,-789.244"/>
<text text-anchor="middle" x="562.8067" y="-802.7172" font-family="Helvetica,sans-Serif" font-size="14.00" fill="#000000">True</text>
</g>
<!-- 18 -->
<g id="node19" class="node">
<title>18</title>
<path fill="#67b4eb" stroke="#000000" d="M723.5,-782C723.5,-782 639.5,-782 639.5,-782 633.5,-782 627.5,-776 627.5,-770 627.5,-770 627.5,-711 627.5,-711 627.5,-705 633.5,-699 639.5,-699 639.5,-699 723.5,-699 723.5,-699 729.5,-699 735.5,-705 735.5,-711 735.5,-711 735.5,-770 735.5,-770 735.5,-776 729.5,-782 723.5,-782"/>
<text text-anchor="start" x="635.5" y="-766.8" font-family="Helvetica,sans-Serif" font-size="14.00" fill="#000000">Leptin ≤ 6.059</text>
<text text-anchor="start" x="643.5" y="-751.8" font-family="Helvetica,sans-Serif" font-size="14.00" fill="#000000">gini = 0.305</text>
<text text-anchor="start" x="637.5" y="-736.8" font-family="Helvetica,sans-Serif" font-size="14.00" fill="#000000">samples = 32</text>
<text text-anchor="start" x="636" y="-721.8" font-family="Helvetica,sans-Serif" font-size="14.00" fill="#000000">value = [6, 26]</text>
<text text-anchor="start" x="652.5" y="-706.8" font-family="Helvetica,sans-Serif" font-size="14.00" fill="#000000">class = 2</text>
</g>
<!-- 0&#45;&gt;18 -->
<g id="edge18" class="edge">
<title>0&#45;&gt;18</title>
<path fill="none" stroke="#000000" d="M637.2831,-817.8796C642.2237,-809.2335 647.4816,-800.0322 652.5833,-791.1042"/>
<polygon fill="#000000" stroke="#000000" points="655.6928,-792.717 657.6154,-782.2981 649.6151,-789.244 655.6928,-792.717"/>
<text text-anchor="middle" x="664.1933" y="-802.7172" font-family="Helvetica,sans-Serif" font-size="14.00" fill="#000000">False</text>
</g>
<!-- 2 -->
<g id="node3" class="node">
<title>2</title>
<path fill="#eb9d65" stroke="#000000" d="M466,-663C466,-663 379,-663 379,-663 373,-663 367,-657 367,-651 367,-651 367,-592 367,-592 367,-586 373,-580 379,-580 379,-580 466,-580 466,-580 472,-580 478,-586 478,-592 478,-592 478,-651 478,-651 478,-657 472,-663 466,-663"/>
<text text-anchor="start" x="375" y="-647.8" font-family="Helvetica,sans-Serif" font-size="14.00" fill="#000000">HOMA ≤ 3.519</text>
<text text-anchor="start" x="384.5" y="-632.8" font-family="Helvetica,sans-Serif" font-size="14.00" fill="#000000">gini = 0.298</text>
<text text-anchor="start" x="378.5" y="-617.8" font-family="Helvetica,sans-Serif" font-size="14.00" fill="#000000">samples = 33</text>
<text text-anchor="start" x="377" y="-602.8" font-family="Helvetica,sans-Serif" font-size="14.00" fill="#000000">value = [27, 6]</text>
<text text-anchor="start" x="393.5" y="-587.8" font-family="Helvetica,sans-Serif" font-size="14.00" fill="#000000">class = 1</text>
</g>
<!-- 1&#45;&gt;2 -->
<g id="edge2" class="edge">
<title>1&#45;&gt;2</title>
<path fill="none" stroke="#000000" d="M502.4806,-698.8796C492.9853,-689.6931 482.8422,-679.8798 473.0785,-670.4336"/>
<polygon fill="#000000" stroke="#000000" points="475.3237,-667.7359 465.703,-663.2981 470.4564,-672.7668 475.3237,-667.7359"/>
</g>
<!-- 15 -->
<g id="node16" class="node">
<title>15</title>
<path fill="#d3e9f9" stroke="#000000" d="M588.5,-663C588.5,-663 508.5,-663 508.5,-663 502.5,-663 496.5,-657 496.5,-651 496.5,-651 496.5,-592 496.5,-592 496.5,-586 502.5,-580 508.5,-580 508.5,-580 588.5,-580 588.5,-580 594.5,-580 600.5,-586 600.5,-592 600.5,-592 600.5,-651 600.5,-651 600.5,-657 594.5,-663 588.5,-663"/>
<text text-anchor="start" x="505.5" y="-647.8" font-family="Helvetica,sans-Serif" font-size="14.00" fill="#000000">BMI ≤ 29.972</text>
<text text-anchor="start" x="510.5" y="-632.8" font-family="Helvetica,sans-Serif" font-size="14.00" fill="#000000">gini = 0.492</text>
<text text-anchor="start" x="504.5" y="-617.8" font-family="Helvetica,sans-Serif" font-size="14.00" fill="#000000">samples = 16</text>
<text text-anchor="start" x="507" y="-602.8" font-family="Helvetica,sans-Serif" font-size="14.00" fill="#000000">value = [7, 9]</text>
<text text-anchor="start" x="519.5" y="-587.8" font-family="Helvetica,sans-Serif" font-size="14.00" fill="#000000">class = 2</text>
</g>
<!-- 1&#45;&gt;15 -->
<g id="edge15" class="edge">
<title>1&#45;&gt;15</title>
<path fill="none" stroke="#000000" d="M546.5493,-698.8796C546.7559,-690.6838 546.9751,-681.9891 547.189,-673.5013"/>
<polygon fill="#000000" stroke="#000000" points="550.693,-673.3831 547.4463,-663.2981 543.6953,-673.2067 550.693,-673.3831"/>
</g>
<!-- 3 -->
<g id="node4" class="node">
<title>3</title>
<path fill="#e99456" stroke="#000000" d="M345.5,-544C345.5,-544 261.5,-544 261.5,-544 255.5,-544 249.5,-538 249.5,-532 249.5,-532 249.5,-473 249.5,-473 249.5,-467 255.5,-461 261.5,-461 261.5,-461 345.5,-461 345.5,-461 351.5,-461 357.5,-467 357.5,-473 357.5,-473 357.5,-532 357.5,-532 357.5,-538 351.5,-544 345.5,-544"/>
<text text-anchor="start" x="257.5" y="-528.8" font-family="Helvetica,sans-Serif" font-size="14.00" fill="#000000">Leptin ≤ 47.33</text>
<text text-anchor="start" x="265.5" y="-513.8" font-family="Helvetica,sans-Serif" font-size="14.00" fill="#000000">gini = 0.225</text>
<text text-anchor="start" x="259.5" y="-498.8" font-family="Helvetica,sans-Serif" font-size="14.00" fill="#000000">samples = 31</text>
<text text-anchor="start" x="258" y="-483.8" font-family="Helvetica,sans-Serif" font-size="14.00" fill="#000000">value = [27, 4]</text>
<text text-anchor="start" x="274.5" y="-468.8" font-family="Helvetica,sans-Serif" font-size="14.00" fill="#000000">class = 1</text>
</g>
<!-- 2&#45;&gt;3 -->
<g id="edge3" class="edge">
<title>2&#45;&gt;3</title>
<path fill="none" stroke="#000000" d="M380.8796,-579.8796C371.6931,-570.6931 361.8798,-560.8798 352.4336,-551.4336"/>
<polygon fill="#000000" stroke="#000000" points="354.8441,-548.8943 345.2981,-544.2981 349.8943,-553.8441 354.8441,-548.8943"/>
</g>
<!-- 14 -->
<g id="node15" class="node">
<title>14</title>
<path fill="#399de5" stroke="#000000" d="M463,-536.5C463,-536.5 388,-536.5 388,-536.5 382,-536.5 376,-530.5 376,-524.5 376,-524.5 376,-480.5 376,-480.5 376,-474.5 382,-468.5 388,-468.5 388,-468.5 463,-468.5 463,-468.5 469,-468.5 475,-474.5 475,-480.5 475,-480.5 475,-524.5 475,-524.5 475,-530.5 469,-536.5 463,-536.5"/>
<text text-anchor="start" x="396" y="-521.3" font-family="Helvetica,sans-Serif" font-size="14.00" fill="#000000">gini = 0.0</text>
<text text-anchor="start" x="386" y="-506.3" font-family="Helvetica,sans-Serif" font-size="14.00" fill="#000000">samples = 2</text>
<text text-anchor="start" x="384" y="-491.3" font-family="Helvetica,sans-Serif" font-size="14.00" fill="#000000">value = [0, 2]</text>
<text text-anchor="start" x="396.5" y="-476.3" font-family="Helvetica,sans-Serif" font-size="14.00" fill="#000000">class = 2</text>
</g>
<!-- 2&#45;&gt;14 -->
<g id="edge14" class="edge">
<title>2&#45;&gt;14</title>
<path fill="none" stroke="#000000" d="M423.5493,-579.8796C423.8182,-569.2134 424.1084,-557.7021 424.3806,-546.9015"/>
<polygon fill="#000000" stroke="#000000" points="427.8817,-546.9 424.6349,-536.8149 420.8839,-546.7235 427.8817,-546.9"/>
</g>
<!-- 4 -->
<g id="node5" class="node">
<title>4</title>
<path fill="#e88f4f" stroke="#000000" d="M289.5,-425C289.5,-425 185.5,-425 185.5,-425 179.5,-425 173.5,-419 173.5,-413 173.5,-413 173.5,-354 173.5,-354 173.5,-348 179.5,-342 185.5,-342 185.5,-342 289.5,-342 289.5,-342 295.5,-342 301.5,-348 301.5,-354 301.5,-354 301.5,-413 301.5,-413 301.5,-419 295.5,-425 289.5,-425"/>
<text text-anchor="start" x="181.5" y="-409.8" font-family="Helvetica,sans-Serif" font-size="14.00" fill="#000000">MCP.1 ≤ 209.469</text>
<text text-anchor="start" x="204" y="-394.8" font-family="Helvetica,sans-Serif" font-size="14.00" fill="#000000">gini = 0.18</text>
<text text-anchor="start" x="193.5" y="-379.8" font-family="Helvetica,sans-Serif" font-size="14.00" fill="#000000">samples = 30</text>
<text text-anchor="start" x="192" y="-364.8" font-family="Helvetica,sans-Serif" font-size="14.00" fill="#000000">value = [27, 3]</text>
<text text-anchor="start" x="208.5" y="-349.8" font-family="Helvetica,sans-Serif" font-size="14.00" fill="#000000">class = 1</text>
</g>
<!-- 3&#45;&gt;4 -->
<g id="edge4" class="edge">
<title>3&#45;&gt;4</title>
<path fill="none" stroke="#000000" d="M280.4164,-460.8796C275.6211,-452.2335 270.5178,-443.0322 265.5662,-434.1042"/>
<polygon fill="#000000" stroke="#000000" points="268.5931,-432.3455 260.6821,-425.2981 262.4716,-435.7407 268.5931,-432.3455"/>
</g>
<!-- 13 -->
<g id="node14" class="node">
<title>13</title>
<path fill="#399de5" stroke="#000000" d="M407,-417.5C407,-417.5 332,-417.5 332,-417.5 326,-417.5 320,-411.5 320,-405.5 320,-405.5 320,-361.5 320,-361.5 320,-355.5 326,-349.5 332,-349.5 332,-349.5 407,-349.5 407,-349.5 413,-349.5 419,-355.5 419,-361.5 419,-361.5 419,-405.5 419,-405.5 419,-411.5 413,-417.5 407,-417.5"/>
<text text-anchor="start" x="340" y="-402.3" font-family="Helvetica,sans-Serif" font-size="14.00" fill="#000000">gini = 0.0</text>
<text text-anchor="start" x="330" y="-387.3" font-family="Helvetica,sans-Serif" font-size="14.00" fill="#000000">samples = 1</text>
<text text-anchor="start" x="328" y="-372.3" font-family="Helvetica,sans-Serif" font-size="14.00" fill="#000000">value = [0, 1]</text>
<text text-anchor="start" x="340.5" y="-357.3" font-family="Helvetica,sans-Serif" font-size="14.00" fill="#000000">class = 2</text>
</g>
<!-- 3&#45;&gt;13 -->
<g id="edge13" class="edge">
<title>3&#45;&gt;13</title>
<path fill="none" stroke="#000000" d="M326.5836,-460.8796C332.7433,-449.7735 339.4111,-437.7513 345.6129,-426.5691"/>
<polygon fill="#000000" stroke="#000000" points="348.6787,-428.2576 350.4682,-417.8149 342.5572,-424.8624 348.6787,-428.2576"/>
</g>
<!-- 5 -->
<g id="node6" class="node">
<title>5</title>
<path fill="#f2c09c" stroke="#000000" d="M217,-306C217,-306 96,-306 96,-306 90,-306 84,-300 84,-294 84,-294 84,-235 84,-235 84,-229 90,-223 96,-223 96,-223 217,-223 217,-223 223,-223 229,-229 229,-235 229,-235 229,-294 229,-294 229,-300 223,-306 217,-306"/>
<text text-anchor="start" x="92" y="-290.8" font-family="Helvetica,sans-Serif" font-size="14.00" fill="#000000">Adiponectin ≤ 17.31</text>
<text text-anchor="start" x="118.5" y="-275.8" font-family="Helvetica,sans-Serif" font-size="14.00" fill="#000000">gini = 0.444</text>
<text text-anchor="start" x="117" y="-260.8" font-family="Helvetica,sans-Serif" font-size="14.00" fill="#000000">samples = 6</text>
<text text-anchor="start" x="115" y="-245.8" font-family="Helvetica,sans-Serif" font-size="14.00" fill="#000000">value = [4, 2]</text>
<text text-anchor="start" x="127.5" y="-230.8" font-family="Helvetica,sans-Serif" font-size="14.00" fill="#000000">class = 1</text>
</g>
<!-- 4&#45;&gt;5 -->
<g id="edge5" class="edge">
<title>4&#45;&gt;5</title>
<path fill="none" stroke="#000000" d="M209.1701,-341.8796C203.2237,-333.1434 196.8914,-323.8404 190.755,-314.8253"/>
<polygon fill="#000000" stroke="#000000" points="193.4711,-312.5953 184.9508,-306.2981 187.6844,-316.5342 193.4711,-312.5953"/>
</g>
<!-- 8 -->
<g id="node9" class="node">
<title>8</title>
<path fill="#e68642" stroke="#000000" d="M380,-306C380,-306 259,-306 259,-306 253,-306 247,-300 247,-294 247,-294 247,-235 247,-235 247,-229 253,-223 259,-223 259,-223 380,-223 380,-223 386,-223 392,-229 392,-235 392,-235 392,-294 392,-294 392,-300 386,-306 380,-306"/>
<text text-anchor="start" x="255" y="-290.8" font-family="Helvetica,sans-Serif" font-size="14.00" fill="#000000">Adiponectin ≤ 3.986</text>
<text text-anchor="start" x="286" y="-275.8" font-family="Helvetica,sans-Serif" font-size="14.00" fill="#000000">gini = 0.08</text>
<text text-anchor="start" x="275.5" y="-260.8" font-family="Helvetica,sans-Serif" font-size="14.00" fill="#000000">samples = 24</text>
<text text-anchor="start" x="274" y="-245.8" font-family="Helvetica,sans-Serif" font-size="14.00" fill="#000000">value = [23, 1]</text>
<text text-anchor="start" x="290.5" y="-230.8" font-family="Helvetica,sans-Serif" font-size="14.00" fill="#000000">class = 1</text>
</g>
<!-- 4&#45;&gt;8 -->
<g id="edge8" class="edge">
<title>4&#45;&gt;8</title>
<path fill="none" stroke="#000000" d="M266.1796,-341.8796C272.2615,-333.0534 278.7422,-323.6485 285.0141,-314.5466"/>
<polygon fill="#000000" stroke="#000000" points="287.9059,-316.5184 290.698,-306.2981 282.1418,-312.5465 287.9059,-316.5184"/>
</g>
<!-- 6 -->
<g id="node7" class="node">
<title>6</title>
<path fill="#399de5" stroke="#000000" d="M87,-179.5C87,-179.5 12,-179.5 12,-179.5 6,-179.5 0,-173.5 0,-167.5 0,-167.5 0,-123.5 0,-123.5 0,-117.5 6,-111.5 12,-111.5 12,-111.5 87,-111.5 87,-111.5 93,-111.5 99,-117.5 99,-123.5 99,-123.5 99,-167.5 99,-167.5 99,-173.5 93,-179.5 87,-179.5"/>
<text text-anchor="start" x="20" y="-164.3" font-family="Helvetica,sans-Serif" font-size="14.00" fill="#000000">gini = 0.0</text>
<text text-anchor="start" x="10" y="-149.3" font-family="Helvetica,sans-Serif" font-size="14.00" fill="#000000">samples = 2</text>
<text text-anchor="start" x="8" y="-134.3" font-family="Helvetica,sans-Serif" font-size="14.00" fill="#000000">value = [0, 2]</text>
<text text-anchor="start" x="20.5" y="-119.3" font-family="Helvetica,sans-Serif" font-size="14.00" fill="#000000">class = 2</text>
</g>
<!-- 5&#45;&gt;6 -->
<g id="edge6" class="edge">
<title>5&#45;&gt;6</title>
<path fill="none" stroke="#000000" d="M119.0766,-222.8796C108.7939,-211.4436 97.6377,-199.0363 87.3321,-187.575"/>
<polygon fill="#000000" stroke="#000000" points="89.6435,-184.9108 80.3546,-179.8149 84.4382,-189.5912 89.6435,-184.9108"/>
</g>
<!-- 7 -->
<g id="node8" class="node">
<title>7</title>
<path fill="#e58139" stroke="#000000" d="M204,-179.5C204,-179.5 129,-179.5 129,-179.5 123,-179.5 117,-173.5 117,-167.5 117,-167.5 117,-123.5 117,-123.5 117,-117.5 123,-111.5 129,-111.5 129,-111.5 204,-111.5 204,-111.5 210,-111.5 216,-117.5 216,-123.5 216,-123.5 216,-167.5 216,-167.5 216,-173.5 210,-179.5 204,-179.5"/>
<text text-anchor="start" x="137" y="-164.3" font-family="Helvetica,sans-Serif" font-size="14.00" fill="#000000">gini = 0.0</text>
<text text-anchor="start" x="127" y="-149.3" font-family="Helvetica,sans-Serif" font-size="14.00" fill="#000000">samples = 4</text>
<text text-anchor="start" x="125" y="-134.3" font-family="Helvetica,sans-Serif" font-size="14.00" fill="#000000">value = [4, 0]</text>
<text text-anchor="start" x="137.5" y="-119.3" font-family="Helvetica,sans-Serif" font-size="14.00" fill="#000000">class = 1</text>
</g>
<!-- 5&#45;&gt;7 -->
<g id="edge7" class="edge">
<title>5&#45;&gt;7</title>
<path fill="none" stroke="#000000" d="M159.9975,-222.8796C160.8938,-212.2134 161.8612,-200.7021 162.7688,-189.9015"/>
<polygon fill="#000000" stroke="#000000" points="166.2666,-190.0729 163.6164,-179.8149 159.2912,-189.4867 166.2666,-190.0729"/>
</g>
<!-- 9 -->
<g id="node10" class="node">
<title>9</title>
<path fill="#ffffff" stroke="#000000" d="M353,-187C353,-187 266,-187 266,-187 260,-187 254,-181 254,-175 254,-175 254,-116 254,-116 254,-110 260,-104 266,-104 266,-104 353,-104 353,-104 359,-104 365,-110 365,-116 365,-116 365,-175 365,-175 365,-181 359,-187 353,-187"/>
<text text-anchor="start" x="262" y="-171.8" font-family="Helvetica,sans-Serif" font-size="14.00" fill="#000000">HOMA ≤ 0.762</text>
<text text-anchor="start" x="280" y="-156.8" font-family="Helvetica,sans-Serif" font-size="14.00" fill="#000000">gini = 0.5</text>
<text text-anchor="start" x="270" y="-141.8" font-family="Helvetica,sans-Serif" font-size="14.00" fill="#000000">samples = 2</text>
<text text-anchor="start" x="268" y="-126.8" font-family="Helvetica,sans-Serif" font-size="14.00" fill="#000000">value = [1, 1]</text>
<text text-anchor="start" x="280.5" y="-111.8" font-family="Helvetica,sans-Serif" font-size="14.00" fill="#000000">class = 1</text>
</g>
<!-- 8&#45;&gt;9 -->
<g id="edge9" class="edge">
<title>8&#45;&gt;9</title>
<path fill="none" stroke="#000000" d="M316.0025,-222.8796C315.3138,-214.6838 314.5831,-205.9891 313.8699,-197.5013"/>
<polygon fill="#000000" stroke="#000000" points="317.3376,-196.9698 313.0124,-187.2981 310.3622,-197.5561 317.3376,-196.9698"/>
</g>
<!-- 12 -->
<g id="node13" class="node">
<title>12</title>
<path fill="#e58139" stroke="#000000" d="M478,-179.5C478,-179.5 395,-179.5 395,-179.5 389,-179.5 383,-173.5 383,-167.5 383,-167.5 383,-123.5 383,-123.5 383,-117.5 389,-111.5 395,-111.5 395,-111.5 478,-111.5 478,-111.5 484,-111.5 490,-117.5 490,-123.5 490,-123.5 490,-167.5 490,-167.5 490,-173.5 484,-179.5 478,-179.5"/>
<text text-anchor="start" x="407" y="-164.3" font-family="Helvetica,sans-Serif" font-size="14.00" fill="#000000">gini = 0.0</text>
<text text-anchor="start" x="392.5" y="-149.3" font-family="Helvetica,sans-Serif" font-size="14.00" fill="#000000">samples = 22</text>
<text text-anchor="start" x="391" y="-134.3" font-family="Helvetica,sans-Serif" font-size="14.00" fill="#000000">value = [22, 0]</text>
<text text-anchor="start" x="407.5" y="-119.3" font-family="Helvetica,sans-Serif" font-size="14.00" fill="#000000">class = 1</text>
</g>
<!-- 8&#45;&gt;12 -->
<g id="edge12" class="edge">
<title>8&#45;&gt;12</title>
<path fill="none" stroke="#000000" d="M360.4209,-222.8796C371.7728,-211.3337 384.0982,-198.7976 395.457,-187.2446"/>
<polygon fill="#000000" stroke="#000000" points="398.2466,-189.3995 402.7618,-179.8149 393.2551,-184.4919 398.2466,-189.3995"/>
</g>
<!-- 10 -->
<g id="node11" class="node">
<title>10</title>
<path fill="#e58139" stroke="#000000" d="M289,-68C289,-68 214,-68 214,-68 208,-68 202,-62 202,-56 202,-56 202,-12 202,-12 202,-6 208,0 214,0 214,0 289,0 289,0 295,0 301,-6 301,-12 301,-12 301,-56 301,-56 301,-62 295,-68 289,-68"/>
<text text-anchor="start" x="222" y="-52.8" font-family="Helvetica,sans-Serif" font-size="14.00" fill="#000000">gini = 0.0</text>
<text text-anchor="start" x="212" y="-37.8" font-family="Helvetica,sans-Serif" font-size="14.00" fill="#000000">samples = 1</text>
<text text-anchor="start" x="210" y="-22.8" font-family="Helvetica,sans-Serif" font-size="14.00" fill="#000000">value = [1, 0]</text>
<text text-anchor="start" x="222.5" y="-7.8" font-family="Helvetica,sans-Serif" font-size="14.00" fill="#000000">class = 1</text>
</g>
<!-- 9&#45;&gt;10 -->
<g id="edge10" class="edge">
<title>9&#45;&gt;10</title>
<path fill="none" stroke="#000000" d="M287.9029,-103.9815C283.3612,-95.2504 278.5598,-86.0202 273.9863,-77.2281"/>
<polygon fill="#000000" stroke="#000000" points="277.0431,-75.52 269.3233,-68.2637 270.8331,-78.7504 277.0431,-75.52"/>
</g>
<!-- 11 -->
<g id="node12" class="node">
<title>11</title>
<path fill="#399de5" stroke="#000000" d="M406,-68C406,-68 331,-68 331,-68 325,-68 319,-62 319,-56 319,-56 319,-12 319,-12 319,-6 325,0 331,0 331,0 406,0 406,0 412,0 418,-6 418,-12 418,-12 418,-56 418,-56 418,-62 412,-68 406,-68"/>
<text text-anchor="start" x="339" y="-52.8" font-family="Helvetica,sans-Serif" font-size="14.00" fill="#000000">gini = 0.0</text>
<text text-anchor="start" x="329" y="-37.8" font-family="Helvetica,sans-Serif" font-size="14.00" fill="#000000">samples = 1</text>
<text text-anchor="start" x="327" y="-22.8" font-family="Helvetica,sans-Serif" font-size="14.00" fill="#000000">value = [0, 1]</text>
<text text-anchor="start" x="339.5" y="-7.8" font-family="Helvetica,sans-Serif" font-size="14.00" fill="#000000">class = 2</text>
</g>
<!-- 9&#45;&gt;11 -->
<g id="edge11" class="edge">
<title>9&#45;&gt;11</title>
<path fill="none" stroke="#000000" d="M331.4694,-103.9815C336.0895,-95.2504 340.9736,-86.0202 345.626,-77.2281"/>
<polygon fill="#000000" stroke="#000000" points="348.7859,-78.7395 350.3694,-68.2637 342.5987,-75.4655 348.7859,-78.7395"/>
</g>
<!-- 16 -->
<g id="node17" class="node">
<title>16</title>
<path fill="#399de5" stroke="#000000" d="M584,-536.5C584,-536.5 509,-536.5 509,-536.5 503,-536.5 497,-530.5 497,-524.5 497,-524.5 497,-480.5 497,-480.5 497,-474.5 503,-468.5 509,-468.5 509,-468.5 584,-468.5 584,-468.5 590,-468.5 596,-474.5 596,-480.5 596,-480.5 596,-524.5 596,-524.5 596,-530.5 590,-536.5 584,-536.5"/>
<text text-anchor="start" x="517" y="-521.3" font-family="Helvetica,sans-Serif" font-size="14.00" fill="#000000">gini = 0.0</text>
<text text-anchor="start" x="507" y="-506.3" font-family="Helvetica,sans-Serif" font-size="14.00" fill="#000000">samples = 9</text>
<text text-anchor="start" x="505" y="-491.3" font-family="Helvetica,sans-Serif" font-size="14.00" fill="#000000">value = [0, 9]</text>
<text text-anchor="start" x="517.5" y="-476.3" font-family="Helvetica,sans-Serif" font-size="14.00" fill="#000000">class = 2</text>
</g>
<!-- 15&#45;&gt;16 -->
<g id="edge16" class="edge">
<title>15&#45;&gt;16</title>
<path fill="none" stroke="#000000" d="M547.8005,-579.8796C547.6212,-569.2134 547.4278,-557.7021 547.2462,-546.9015"/>
<polygon fill="#000000" stroke="#000000" points="550.7444,-546.7547 547.0767,-536.8149 543.7454,-546.8724 550.7444,-546.7547"/>
</g>
<!-- 17 -->
<g id="node18" class="node">
<title>17</title>
<path fill="#e58139" stroke="#000000" d="M701,-536.5C701,-536.5 626,-536.5 626,-536.5 620,-536.5 614,-530.5 614,-524.5 614,-524.5 614,-480.5 614,-480.5 614,-474.5 620,-468.5 626,-468.5 626,-468.5 701,-468.5 701,-468.5 707,-468.5 713,-474.5 713,-480.5 713,-480.5 713,-524.5 713,-524.5 713,-530.5 707,-536.5 701,-536.5"/>
<text text-anchor="start" x="634" y="-521.3" font-family="Helvetica,sans-Serif" font-size="14.00" fill="#000000">gini = 0.0</text>
<text text-anchor="start" x="624" y="-506.3" font-family="Helvetica,sans-Serif" font-size="14.00" fill="#000000">samples = 7</text>
<text text-anchor="start" x="622" y="-491.3" font-family="Helvetica,sans-Serif" font-size="14.00" fill="#000000">value = [7, 0]</text>
<text text-anchor="start" x="634.5" y="-476.3" font-family="Helvetica,sans-Serif" font-size="14.00" fill="#000000">class = 1</text>
</g>
<!-- 15&#45;&gt;17 -->
<g id="edge17" class="edge">
<title>15&#45;&gt;17</title>
<path fill="none" stroke="#000000" d="M588.7214,-579.8796C599.8792,-568.3337 611.9939,-555.7976 623.1586,-544.2446"/>
<polygon fill="#000000" stroke="#000000" points="625.9061,-546.4381 630.3385,-536.8149 620.8725,-541.5736 625.9061,-546.4381"/>
</g>
<!-- 19 -->
<g id="node20" class="node">
<title>19</title>
<path fill="#e58139" stroke="#000000" d="M715,-655.5C715,-655.5 640,-655.5 640,-655.5 634,-655.5 628,-649.5 628,-643.5 628,-643.5 628,-599.5 628,-599.5 628,-593.5 634,-587.5 640,-587.5 640,-587.5 715,-587.5 715,-587.5 721,-587.5 727,-593.5 727,-599.5 727,-599.5 727,-643.5 727,-643.5 727,-649.5 721,-655.5 715,-655.5"/>
<text text-anchor="start" x="648" y="-640.3" font-family="Helvetica,sans-Serif" font-size="14.00" fill="#000000">gini = 0.0</text>
<text text-anchor="start" x="638" y="-625.3" font-family="Helvetica,sans-Serif" font-size="14.00" fill="#000000">samples = 2</text>
<text text-anchor="start" x="636" y="-610.3" font-family="Helvetica,sans-Serif" font-size="14.00" fill="#000000">value = [2, 0]</text>
<text text-anchor="start" x="648.5" y="-595.3" font-family="Helvetica,sans-Serif" font-size="14.00" fill="#000000">class = 1</text>
</g>
<!-- 18&#45;&gt;19 -->
<g id="edge19" class="edge">
<title>18&#45;&gt;19</title>
<path fill="none" stroke="#000000" d="M680.101,-698.8796C679.7425,-688.2134 679.3555,-676.7021 678.9925,-665.9015"/>
<polygon fill="#000000" stroke="#000000" points="682.4875,-665.6917 678.6534,-655.8149 675.4915,-665.9269 682.4875,-665.6917"/>
</g>
<!-- 20 -->
<g id="node21" class="node">
<title>20</title>
<path fill="#57ace9" stroke="#000000" d="M840,-663C840,-663 757,-663 757,-663 751,-663 745,-657 745,-651 745,-651 745,-592 745,-592 745,-586 751,-580 757,-580 757,-580 840,-580 840,-580 846,-580 852,-586 852,-592 852,-592 852,-651 852,-651 852,-657 846,-663 840,-663"/>
<text text-anchor="start" x="755.5" y="-647.8" font-family="Helvetica,sans-Serif" font-size="14.00" fill="#000000">BMI ≤ 33.777</text>
<text text-anchor="start" x="760.5" y="-632.8" font-family="Helvetica,sans-Serif" font-size="14.00" fill="#000000">gini = 0.231</text>
<text text-anchor="start" x="754.5" y="-617.8" font-family="Helvetica,sans-Serif" font-size="14.00" fill="#000000">samples = 30</text>
<text text-anchor="start" x="753" y="-602.8" font-family="Helvetica,sans-Serif" font-size="14.00" fill="#000000">value = [4, 26]</text>
<text text-anchor="start" x="769.5" y="-587.8" font-family="Helvetica,sans-Serif" font-size="14.00" fill="#000000">class = 2</text>
</g>
<!-- 18&#45;&gt;20 -->
<g id="edge20" class="edge">
<title>18&#45;&gt;20</title>
<path fill="none" stroke="#000000" d="M722.4209,-698.8796C731.453,-689.6931 741.1013,-679.8798 750.3888,-670.4336"/>
<polygon fill="#000000" stroke="#000000" points="752.8893,-672.8827 757.4044,-663.2981 747.8977,-667.975 752.8893,-672.8827"/>
</g>
<!-- 21 -->
<g id="node22" class="node">
<title>21</title>
<path fill="#42a1e6" stroke="#000000" d="M844,-544C844,-544 749,-544 749,-544 743,-544 737,-538 737,-532 737,-532 737,-473 737,-473 737,-467 743,-461 749,-461 749,-461 844,-461 844,-461 850,-461 856,-467 856,-473 856,-473 856,-532 856,-532 856,-538 850,-544 844,-544"/>
<text text-anchor="start" x="745" y="-528.8" font-family="Helvetica,sans-Serif" font-size="14.00" fill="#000000">MCP.1 ≤ 67.966</text>
<text text-anchor="start" x="763" y="-513.8" font-family="Helvetica,sans-Serif" font-size="14.00" fill="#000000">gini = 0.08</text>
<text text-anchor="start" x="752.5" y="-498.8" font-family="Helvetica,sans-Serif" font-size="14.00" fill="#000000">samples = 24</text>
<text text-anchor="start" x="751" y="-483.8" font-family="Helvetica,sans-Serif" font-size="14.00" fill="#000000">value = [1, 23]</text>
<text text-anchor="start" x="767.5" y="-468.8" font-family="Helvetica,sans-Serif" font-size="14.00" fill="#000000">class = 2</text>
</g>
<!-- 20&#45;&gt;21 -->
<g id="edge21" class="edge">
<title>20&#45;&gt;21</title>
<path fill="none" stroke="#000000" d="M797.8005,-579.8796C797.6628,-571.6838 797.5166,-562.9891 797.374,-554.5013"/>
<polygon fill="#000000" stroke="#000000" points="800.8701,-554.2378 797.2025,-544.2981 793.8711,-554.3555 800.8701,-554.2378"/>
</g>
<!-- 24 -->
<g id="node25" class="node">
<title>24</title>
<path fill="#ffffff" stroke="#000000" d="M982.5,-544C982.5,-544 886.5,-544 886.5,-544 880.5,-544 874.5,-538 874.5,-532 874.5,-532 874.5,-473 874.5,-473 874.5,-467 880.5,-461 886.5,-461 886.5,-461 982.5,-461 982.5,-461 988.5,-461 994.5,-467 994.5,-473 994.5,-473 994.5,-532 994.5,-532 994.5,-538 988.5,-544 982.5,-544"/>
<text text-anchor="start" x="882.5" y="-528.8" font-family="Helvetica,sans-Serif" font-size="14.00" fill="#000000">Resistin ≤ 9.338</text>
<text text-anchor="start" x="905" y="-513.8" font-family="Helvetica,sans-Serif" font-size="14.00" fill="#000000">gini = 0.5</text>
<text text-anchor="start" x="895" y="-498.8" font-family="Helvetica,sans-Serif" font-size="14.00" fill="#000000">samples = 6</text>
<text text-anchor="start" x="893" y="-483.8" font-family="Helvetica,sans-Serif" font-size="14.00" fill="#000000">value = [3, 3]</text>
<text text-anchor="start" x="905.5" y="-468.8" font-family="Helvetica,sans-Serif" font-size="14.00" fill="#000000">class = 1</text>
</g>
<!-- 20&#45;&gt;24 -->
<g id="edge24" class="edge">
<title>20&#45;&gt;24</title>
<path fill="none" stroke="#000000" d="M846.0662,-579.8796C856.6679,-570.6031 868.0002,-560.6874 878.8933,-551.1559"/>
<polygon fill="#000000" stroke="#000000" points="881.5098,-553.5172 886.7308,-544.2981 876.9002,-548.2491 881.5098,-553.5172"/>
</g>
<!-- 22 -->
<g id="node23" class="node">
<title>22</title>
<path fill="#e58139" stroke="#000000" d="M717,-417.5C717,-417.5 642,-417.5 642,-417.5 636,-417.5 630,-411.5 630,-405.5 630,-405.5 630,-361.5 630,-361.5 630,-355.5 636,-349.5 642,-349.5 642,-349.5 717,-349.5 717,-349.5 723,-349.5 729,-355.5 729,-361.5 729,-361.5 729,-405.5 729,-405.5 729,-411.5 723,-417.5 717,-417.5"/>
<text text-anchor="start" x="650" y="-402.3" font-family="Helvetica,sans-Serif" font-size="14.00" fill="#000000">gini = 0.0</text>
<text text-anchor="start" x="640" y="-387.3" font-family="Helvetica,sans-Serif" font-size="14.00" fill="#000000">samples = 1</text>
<text text-anchor="start" x="638" y="-372.3" font-family="Helvetica,sans-Serif" font-size="14.00" fill="#000000">value = [1, 0]</text>
<text text-anchor="start" x="650.5" y="-357.3" font-family="Helvetica,sans-Serif" font-size="14.00" fill="#000000">class = 1</text>
</g>
<!-- 21&#45;&gt;22 -->
<g id="edge22" class="edge">
<title>21&#45;&gt;22</title>
<path fill="none" stroke="#000000" d="M755.5791,-460.8796C744.2272,-449.3337 731.9018,-436.7976 720.543,-425.2446"/>
<polygon fill="#000000" stroke="#000000" points="722.7449,-422.4919 713.2382,-417.8149 717.7534,-427.3995 722.7449,-422.4919"/>
</g>
<!-- 23 -->
<g id="node24" class="node">
<title>23</title>
<path fill="#399de5" stroke="#000000" d="M842,-417.5C842,-417.5 759,-417.5 759,-417.5 753,-417.5 747,-411.5 747,-405.5 747,-405.5 747,-361.5 747,-361.5 747,-355.5 753,-349.5 759,-349.5 759,-349.5 842,-349.5 842,-349.5 848,-349.5 854,-355.5 854,-361.5 854,-361.5 854,-405.5 854,-405.5 854,-411.5 848,-417.5 842,-417.5"/>
<text text-anchor="start" x="771" y="-402.3" font-family="Helvetica,sans-Serif" font-size="14.00" fill="#000000">gini = 0.0</text>
<text text-anchor="start" x="756.5" y="-387.3" font-family="Helvetica,sans-Serif" font-size="14.00" fill="#000000">samples = 23</text>
<text text-anchor="start" x="755" y="-372.3" font-family="Helvetica,sans-Serif" font-size="14.00" fill="#000000">value = [0, 23]</text>
<text text-anchor="start" x="771.5" y="-357.3" font-family="Helvetica,sans-Serif" font-size="14.00" fill="#000000">class = 2</text>
</g>
<!-- 21&#45;&gt;23 -->
<g id="edge23" class="edge">
<title>21&#45;&gt;23</title>
<path fill="none" stroke="#000000" d="M797.899,-460.8796C798.2575,-450.2134 798.6445,-438.7021 799.0075,-427.9015"/>
<polygon fill="#000000" stroke="#000000" points="802.5085,-427.9269 799.3466,-417.8149 795.5125,-427.6917 802.5085,-427.9269"/>
</g>
<!-- 25 -->
<g id="node26" class="node">
<title>25</title>
<path fill="#399de5" stroke="#000000" d="M967,-417.5C967,-417.5 892,-417.5 892,-417.5 886,-417.5 880,-411.5 880,-405.5 880,-405.5 880,-361.5 880,-361.5 880,-355.5 886,-349.5 892,-349.5 892,-349.5 967,-349.5 967,-349.5 973,-349.5 979,-355.5 979,-361.5 979,-361.5 979,-405.5 979,-405.5 979,-411.5 973,-417.5 967,-417.5"/>
<text text-anchor="start" x="900" y="-402.3" font-family="Helvetica,sans-Serif" font-size="14.00" fill="#000000">gini = 0.0</text>
<text text-anchor="start" x="890" y="-387.3" font-family="Helvetica,sans-Serif" font-size="14.00" fill="#000000">samples = 3</text>
<text text-anchor="start" x="888" y="-372.3" font-family="Helvetica,sans-Serif" font-size="14.00" fill="#000000">value = [0, 3]</text>
<text text-anchor="start" x="900.5" y="-357.3" font-family="Helvetica,sans-Serif" font-size="14.00" fill="#000000">class = 2</text>
</g>
<!-- 24&#45;&gt;25 -->
<g id="edge25" class="edge">
<title>24&#45;&gt;25</title>
<path fill="none" stroke="#000000" d="M932.7512,-460.8796C932.3031,-450.2134 931.8194,-438.7021 931.3656,-427.9015"/>
<polygon fill="#000000" stroke="#000000" points="934.8586,-427.6592 930.9418,-417.8149 927.8648,-427.9531 934.8586,-427.6592"/>
</g>
<!-- 26 -->
<g id="node27" class="node">
<title>26</title>
<path fill="#e58139" stroke="#000000" d="M1084,-417.5C1084,-417.5 1009,-417.5 1009,-417.5 1003,-417.5 997,-411.5 997,-405.5 997,-405.5 997,-361.5 997,-361.5 997,-355.5 1003,-349.5 1009,-349.5 1009,-349.5 1084,-349.5 1084,-349.5 1090,-349.5 1096,-355.5 1096,-361.5 1096,-361.5 1096,-405.5 1096,-405.5 1096,-411.5 1090,-417.5 1084,-417.5"/>
<text text-anchor="start" x="1017" y="-402.3" font-family="Helvetica,sans-Serif" font-size="14.00" fill="#000000">gini = 0.0</text>
<text text-anchor="start" x="1007" y="-387.3" font-family="Helvetica,sans-Serif" font-size="14.00" fill="#000000">samples = 3</text>
<text text-anchor="start" x="1005" y="-372.3" font-family="Helvetica,sans-Serif" font-size="14.00" fill="#000000">value = [3, 0]</text>
<text text-anchor="start" x="1017.5" y="-357.3" font-family="Helvetica,sans-Serif" font-size="14.00" fill="#000000">class = 1</text>
</g>
<!-- 24&#45;&gt;26 -->
<g id="edge26" class="edge">
<title>24&#45;&gt;26</title>
<path fill="none" stroke="#000000" d="M973.6722,-460.8796C984.5389,-449.3337 996.3376,-436.7976 1007.2109,-425.2446"/>
<polygon fill="#000000" stroke="#000000" points="1009.8986,-427.4958 1014.2036,-417.8149 1004.8012,-422.6982 1009.8986,-427.4958"/>
</g>
</g>
</svg>
