<?xml version="1.0" encoding="UTF-8" standalone="no"?>
<!DOCTYPE svg PUBLIC "-//W3C//DTD SVG 1.1//EN"
 "http://www.w3.org/Graphics/SVG/1.1/DTD/svg11.dtd">
<!-- Generated by graphviz version 2.40.1 (20161225.0304)
 -->
<!-- Title: Tree Pages: 1 -->
<svg width="1110pt" height="909pt"
 viewBox="0.00 0.00 1110.00 909.00" xmlns="http://www.w3.org/2000/svg" xmlns:xlink="http://www.w3.org/1999/xlink">
<g id="graph0" class="graph" transform="scale(1 1) rotate(0) translate(4 905)">
<title>Tree</title>
<polygon fill="#ffffff" stroke="transparent" points="-4,4 -4,-905 1106,-905 1106,4 -4,4"/>
<!-- 0 -->
<g id="node1" class="node">
<title>0</title>
<path fill="#fafdfe" stroke="#000000" d="M666.5,-901C666.5,-901 574.5,-901 574.5,-901 568.5,-901 562.5,-895 562.5,-889 562.5,-889 562.5,-830 562.5,-830 562.5,-824 568.5,-818 574.5,-818 574.5,-818 666.5,-818 666.5,-818 672.5,-818 678.5,-824 678.5,-830 678.5,-830 678.5,-889 678.5,-889 678.5,-895 672.5,-901 666.5,-901"/>
<text text-anchor="start" x="571.5" y="-885.8" font-family="Helvetica,sans-Serif" font-size="14.00" fill="#000000">Glucose ≤ 96.5</text>
<text text-anchor="start" x="591" y="-870.8" font-family="Helvetica,sans-Serif" font-size="14.00" fill="#000000">gini = 0.5</text>
<text text-anchor="start" x="576.5" y="-855.8" font-family="Helvetica,sans-Serif" font-size="14.00" fill="#000000">samples = 81</text>
<text text-anchor="start" x="570.5" y="-840.8" font-family="Helvetica,sans-Serif" font-size="14.00" fill="#000000">value = [40, 41]</text>
<text text-anchor="start" x="591.5" y="-825.8" font-family="Helvetica,sans-Serif" font-size="14.00" fill="#000000">class = 2</text>
</g>
<!-- 1 -->
<g id="node2" class="node">
<title>1</title>
<path fill="#f0b990" stroke="#000000" d="M604.5,-782C604.5,-782 500.5,-782 500.5,-782 494.5,-782 488.5,-776 488.5,-770 488.5,-770 488.5,-711 488.5,-711 488.5,-705 494.5,-699 500.5,-699 500.5,-699 604.5,-699 604.5,-699 610.5,-699 616.5,-705 616.5,-711 616.5,-711 616.5,-770 616.5,-770 616.5,-776 610.5,-782 604.5,-782"/>
<text text-anchor="start" x="496.5" y="-766.8" font-family="Helvetica,sans-Serif" font-size="14.00" fill="#000000">Resistin ≤ 13.248</text>
<text text-anchor="start" x="514.5" y="-751.8" font-family="Helvetica,sans-Serif" font-size="14.00" fill="#000000">gini = 0.425</text>
<text text-anchor="start" x="508.5" y="-736.8" font-family="Helvetica,sans-Serif" font-size="14.00" fill="#000000">samples = 49</text>
<text text-anchor="start" x="502.5" y="-721.8" font-family="Helvetica,sans-Serif" font-size="14.00" fill="#000000">value = [34, 15]</text>
<text text-anchor="start" x="523.5" y="-706.8" font-family="Helvetica,sans-Serif" font-size="14.00" fill="#000000">class = 1</text>
</g>
<!-- 0&#45;&gt;1 -->
<g id="edge1" class="edge">
<title>0&#45;&gt;1</title>
<path fill="none" stroke="#000000" d="M596.7169,-817.8796C591.7763,-809.2335 586.5184,-800.0322 581.4167,-791.1042"/>
<polygon fill="#000000" stroke="#000000" points="584.3849,-789.244 576.3846,-782.2981 578.3072,-792.717 584.3849,-789.244"/>
<text text-anchor="middle" x="569.8067" y="-802.7172" font-family="Helvetica,sans-Serif" font-size="14.00" fill="#000000">True</text>
</g>
<!-- 18 -->
<g id="node19" class="node">
<title>18</title>
<path fill="#67b4eb" stroke="#000000" d="M730.5,-782C730.5,-782 646.5,-782 646.5,-782 640.5,-782 634.5,-776 634.5,-770 634.5,-770 634.5,-711 634.5,-711 634.5,-705 640.5,-699 646.5,-699 646.5,-699 730.5,-699 730.5,-699 736.5,-699 742.5,-705 742.5,-711 742.5,-711 742.5,-770 742.5,-770 742.5,-776 736.5,-782 730.5,-782"/>
<text text-anchor="start" x="642.5" y="-766.8" font-family="Helvetica,sans-Serif" font-size="14.00" fill="#000000">Leptin ≤ 6.059</text>
<text text-anchor="start" x="650.5" y="-751.8" font-family="Helvetica,sans-Serif" font-size="14.00" fill="#000000">gini = 0.305</text>
<text text-anchor="start" x="644.5" y="-736.8" font-family="Helvetica,sans-Serif" font-size="14.00" fill="#000000">samples = 32</text>
<text text-anchor="start" x="643" y="-721.8" font-family="Helvetica,sans-Serif" font-size="14.00" fill="#000000">value = [6, 26]</text>
<text text-anchor="start" x="659.5" y="-706.8" font-family="Helvetica,sans-Serif" font-size="14.00" fill="#000000">class = 2</text>
</g>
<!-- 0&#45;&gt;18 -->
<g id="edge18" class="edge">
<title>0&#45;&gt;18</title>
<path fill="none" stroke="#000000" d="M644.2831,-817.8796C649.2237,-809.2335 654.4816,-800.0322 659.5833,-791.1042"/>
<polygon fill="#000000" stroke="#000000" points="662.6928,-792.717 664.6154,-782.2981 656.6151,-789.244 662.6928,-792.717"/>
<text text-anchor="middle" x="671.1933" y="-802.7172" font-family="Helvetica,sans-Serif" font-size="14.00" fill="#000000">False</text>
</g>
<!-- 2 -->
<g id="node3" class="node">
<title>2</title>
<path fill="#eb9d65" stroke="#000000" d="M473,-663C473,-663 378,-663 378,-663 372,-663 366,-657 366,-651 366,-651 366,-592 366,-592 366,-586 372,-580 378,-580 378,-580 473,-580 473,-580 479,-580 485,-586 485,-592 485,-592 485,-651 485,-651 485,-657 479,-663 473,-663"/>
<text text-anchor="start" x="374" y="-647.8" font-family="Helvetica,sans-Serif" font-size="14.00" fill="#000000">Insulin ≤ 15.352</text>
<text text-anchor="start" x="387.5" y="-632.8" font-family="Helvetica,sans-Serif" font-size="14.00" fill="#000000">gini = 0.298</text>
<text text-anchor="start" x="381.5" y="-617.8" font-family="Helvetica,sans-Serif" font-size="14.00" fill="#000000">samples = 33</text>
<text text-anchor="start" x="380" y="-602.8" font-family="Helvetica,sans-Serif" font-size="14.00" fill="#000000">value = [27, 6]</text>
<text text-anchor="start" x="396.5" y="-587.8" font-family="Helvetica,sans-Serif" font-size="14.00" fill="#000000">class = 1</text>
</g>
<!-- 1&#45;&gt;2 -->
<g id="edge2" class="edge">
<title>1&#45;&gt;2</title>
<path fill="none" stroke="#000000" d="M508.0816,-698.8796C498.1814,-689.6031 487.5991,-679.6874 477.4269,-670.1559"/>
<polygon fill="#000000" stroke="#000000" points="479.7984,-667.5816 470.108,-663.2981 475.0121,-672.6896 479.7984,-667.5816"/>
</g>
<!-- 15 -->
<g id="node16" class="node">
<title>15</title>
<path fill="#d3e9f9" stroke="#000000" d="M595.5,-663C595.5,-663 515.5,-663 515.5,-663 509.5,-663 503.5,-657 503.5,-651 503.5,-651 503.5,-592 503.5,-592 503.5,-586 509.5,-580 515.5,-580 515.5,-580 595.5,-580 595.5,-580 601.5,-580 607.5,-586 607.5,-592 607.5,-592 607.5,-651 607.5,-651 607.5,-657 601.5,-663 595.5,-663"/>
<text text-anchor="start" x="512.5" y="-647.8" font-family="Helvetica,sans-Serif" font-size="14.00" fill="#000000">BMI ≤ 29.972</text>
<text text-anchor="start" x="517.5" y="-632.8" font-family="Helvetica,sans-Serif" font-size="14.00" fill="#000000">gini = 0.492</text>
<text text-anchor="start" x="511.5" y="-617.8" font-family="Helvetica,sans-Serif" font-size="14.00" fill="#000000">samples = 16</text>
<text text-anchor="start" x="514" y="-602.8" font-family="Helvetica,sans-Serif" font-size="14.00" fill="#000000">value = [7, 9]</text>
<text text-anchor="start" x="526.5" y="-587.8" font-family="Helvetica,sans-Serif" font-size="14.00" fill="#000000">class = 2</text>
</g>
<!-- 1&#45;&gt;15 -->
<g id="edge15" class="edge">
<title>1&#45;&gt;15</title>
<path fill="none" stroke="#000000" d="M553.5493,-698.8796C553.7559,-690.6838 553.9751,-681.9891 554.189,-673.5013"/>
<polygon fill="#000000" stroke="#000000" points="557.693,-673.3831 554.4463,-663.2981 550.6953,-673.2067 557.693,-673.3831"/>
</g>
<!-- 3 -->
<g id="node4" class="node">
<title>3</title>
<path fill="#e99456" stroke="#000000" d="M349.5,-544C349.5,-544 265.5,-544 265.5,-544 259.5,-544 253.5,-538 253.5,-532 253.5,-532 253.5,-473 253.5,-473 253.5,-467 259.5,-461 265.5,-461 265.5,-461 349.5,-461 349.5,-461 355.5,-461 361.5,-467 361.5,-473 361.5,-473 361.5,-532 361.5,-532 361.5,-538 355.5,-544 349.5,-544"/>
<text text-anchor="start" x="261.5" y="-528.8" font-family="Helvetica,sans-Serif" font-size="14.00" fill="#000000">Leptin ≤ 47.33</text>
<text text-anchor="start" x="269.5" y="-513.8" font-family="Helvetica,sans-Serif" font-size="14.00" fill="#000000">gini = 0.225</text>
<text text-anchor="start" x="263.5" y="-498.8" font-family="Helvetica,sans-Serif" font-size="14.00" fill="#000000">samples = 31</text>
<text text-anchor="start" x="262" y="-483.8" font-family="Helvetica,sans-Serif" font-size="14.00" fill="#000000">value = [27, 4]</text>
<text text-anchor="start" x="278.5" y="-468.8" font-family="Helvetica,sans-Serif" font-size="14.00" fill="#000000">class = 1</text>
</g>
<!-- 2&#45;&gt;3 -->
<g id="edge3" class="edge">
<title>2&#45;&gt;3</title>
<path fill="none" stroke="#000000" d="M384.2293,-579.8796C375.1201,-570.6931 365.3892,-560.8798 356.0224,-551.4336"/>
<polygon fill="#000000" stroke="#000000" points="358.4733,-548.9345 348.9468,-544.2981 353.5027,-553.8634 358.4733,-548.9345"/>
</g>
<!-- 14 -->
<g id="node15" class="node">
<title>14</title>
<path fill="#399de5" stroke="#000000" d="M467,-536.5C467,-536.5 392,-536.5 392,-536.5 386,-536.5 380,-530.5 380,-524.5 380,-524.5 380,-480.5 380,-480.5 380,-474.5 386,-468.5 392,-468.5 392,-468.5 467,-468.5 467,-468.5 473,-468.5 479,-474.5 479,-480.5 479,-480.5 479,-524.5 479,-524.5 479,-530.5 473,-536.5 467,-536.5"/>
<text text-anchor="start" x="400" y="-521.3" font-family="Helvetica,sans-Serif" font-size="14.00" fill="#000000">gini = 0.0</text>
<text text-anchor="start" x="390" y="-506.3" font-family="Helvetica,sans-Serif" font-size="14.00" fill="#000000">samples = 2</text>
<text text-anchor="start" x="388" y="-491.3" font-family="Helvetica,sans-Serif" font-size="14.00" fill="#000000">value = [0, 2]</text>
<text text-anchor="start" x="400.5" y="-476.3" font-family="Helvetica,sans-Serif" font-size="14.00" fill="#000000">class = 2</text>
</g>
<!-- 2&#45;&gt;14 -->
<g id="edge14" class="edge">
<title>2&#45;&gt;14</title>
<path fill="none" stroke="#000000" d="M426.899,-579.8796C427.2575,-569.2134 427.6445,-557.7021 428.0075,-546.9015"/>
<polygon fill="#000000" stroke="#000000" points="431.5085,-546.9269 428.3466,-536.8149 424.5125,-546.6917 431.5085,-546.9269"/>
</g>
<!-- 4 -->
<g id="node5" class="node">
<title>4</title>
<path fill="#e88f4f" stroke="#000000" d="M293.5,-425C293.5,-425 189.5,-425 189.5,-425 183.5,-425 177.5,-419 177.5,-413 177.5,-413 177.5,-354 177.5,-354 177.5,-348 183.5,-342 189.5,-342 189.5,-342 293.5,-342 293.5,-342 299.5,-342 305.5,-348 305.5,-354 305.5,-354 305.5,-413 305.5,-413 305.5,-419 299.5,-425 293.5,-425"/>
<text text-anchor="start" x="185.5" y="-409.8" font-family="Helvetica,sans-Serif" font-size="14.00" fill="#000000">MCP.1 ≤ 209.469</text>
<text text-anchor="start" x="208" y="-394.8" font-family="Helvetica,sans-Serif" font-size="14.00" fill="#000000">gini = 0.18</text>
<text text-anchor="start" x="197.5" y="-379.8" font-family="Helvetica,sans-Serif" font-size="14.00" fill="#000000">samples = 30</text>
<text text-anchor="start" x="196" y="-364.8" font-family="Helvetica,sans-Serif" font-size="14.00" fill="#000000">value = [27, 3]</text>
<text text-anchor="start" x="212.5" y="-349.8" font-family="Helvetica,sans-Serif" font-size="14.00" fill="#000000">class = 1</text>
</g>
<!-- 3&#45;&gt;4 -->
<g id="edge4" class="edge">
<title>3&#45;&gt;4</title>
<path fill="none" stroke="#000000" d="M284.4164,-460.8796C279.6211,-452.2335 274.5178,-443.0322 269.5662,-434.1042"/>
<polygon fill="#000000" stroke="#000000" points="272.5931,-432.3455 264.6821,-425.2981 266.4716,-435.7407 272.5931,-432.3455"/>
</g>
<!-- 13 -->
<g id="node14" class="node">
<title>13</title>
<path fill="#399de5" stroke="#000000" d="M411,-417.5C411,-417.5 336,-417.5 336,-417.5 330,-417.5 324,-411.5 324,-405.5 324,-405.5 324,-361.5 324,-361.5 324,-355.5 330,-349.5 336,-349.5 336,-349.5 411,-349.5 411,-349.5 417,-349.5 423,-355.5 423,-361.5 423,-361.5 423,-405.5 423,-405.5 423,-411.5 417,-417.5 411,-417.5"/>
<text text-anchor="start" x="344" y="-402.3" font-family="Helvetica,sans-Serif" font-size="14.00" fill="#000000">gini = 0.0</text>
<text text-anchor="start" x="334" y="-387.3" font-family="Helvetica,sans-Serif" font-size="14.00" fill="#000000">samples = 1</text>
<text text-anchor="start" x="332" y="-372.3" font-family="Helvetica,sans-Serif" font-size="14.00" fill="#000000">value = [0, 1]</text>
<text text-anchor="start" x="344.5" y="-357.3" font-family="Helvetica,sans-Serif" font-size="14.00" fill="#000000">class = 2</text>
</g>
<!-- 3&#45;&gt;13 -->
<g id="edge13" class="edge">
<title>3&#45;&gt;13</title>
<path fill="none" stroke="#000000" d="M330.5836,-460.8796C336.7433,-449.7735 343.4111,-437.7513 349.6129,-426.5691"/>
<polygon fill="#000000" stroke="#000000" points="352.6787,-428.2576 354.4682,-417.8149 346.5572,-424.8624 352.6787,-428.2576"/>
</g>
<!-- 5 -->
<g id="node6" class="node">
<title>5</title>
<path fill="#f2c09c" stroke="#000000" d="M221,-306C221,-306 100,-306 100,-306 94,-306 88,-300 88,-294 88,-294 88,-235 88,-235 88,-229 94,-223 100,-223 100,-223 221,-223 221,-223 227,-223 233,-229 233,-235 233,-235 233,-294 233,-294 233,-300 227,-306 221,-306"/>
<text text-anchor="start" x="96" y="-290.8" font-family="Helvetica,sans-Serif" font-size="14.00" fill="#000000">Adiponectin ≤ 17.31</text>
<text text-anchor="start" x="122.5" y="-275.8" font-family="Helvetica,sans-Serif" font-size="14.00" fill="#000000">gini = 0.444</text>
<text text-anchor="start" x="121" y="-260.8" font-family="Helvetica,sans-Serif" font-size="14.00" fill="#000000">samples = 6</text>
<text text-anchor="start" x="119" y="-245.8" font-family="Helvetica,sans-Serif" font-size="14.00" fill="#000000">value = [4, 2]</text>
<text text-anchor="start" x="131.5" y="-230.8" font-family="Helvetica,sans-Serif" font-size="14.00" fill="#000000">class = 1</text>
</g>
<!-- 4&#45;&gt;5 -->
<g id="edge5" class="edge">
<title>4&#45;&gt;5</title>
<path fill="none" stroke="#000000" d="M213.1701,-341.8796C207.2237,-333.1434 200.8914,-323.8404 194.755,-314.8253"/>
<polygon fill="#000000" stroke="#000000" points="197.4711,-312.5953 188.9508,-306.2981 191.6844,-316.5342 197.4711,-312.5953"/>
</g>
<!-- 8 -->
<g id="node9" class="node">
<title>8</title>
<path fill="#e68642" stroke="#000000" d="M384,-306C384,-306 263,-306 263,-306 257,-306 251,-300 251,-294 251,-294 251,-235 251,-235 251,-229 257,-223 263,-223 263,-223 384,-223 384,-223 390,-223 396,-229 396,-235 396,-235 396,-294 396,-294 396,-300 390,-306 384,-306"/>
<text text-anchor="start" x="259" y="-290.8" font-family="Helvetica,sans-Serif" font-size="14.00" fill="#000000">Adiponectin ≤ 3.986</text>
<text text-anchor="start" x="290" y="-275.8" font-family="Helvetica,sans-Serif" font-size="14.00" fill="#000000">gini = 0.08</text>
<text text-anchor="start" x="279.5" y="-260.8" font-family="Helvetica,sans-Serif" font-size="14.00" fill="#000000">samples = 24</text>
<text text-anchor="start" x="278" y="-245.8" font-family="Helvetica,sans-Serif" font-size="14.00" fill="#000000">value = [23, 1]</text>
<text text-anchor="start" x="294.5" y="-230.8" font-family="Helvetica,sans-Serif" font-size="14.00" fill="#000000">class = 1</text>
</g>
<!-- 4&#45;&gt;8 -->
<g id="edge8" class="edge">
<title>4&#45;&gt;8</title>
<path fill="none" stroke="#000000" d="M270.1796,-341.8796C276.2615,-333.0534 282.7422,-323.6485 289.0141,-314.5466"/>
<polygon fill="#000000" stroke="#000000" points="291.9059,-316.5184 294.698,-306.2981 286.1418,-312.5465 291.9059,-316.5184"/>
</g>
<!-- 6 -->
<g id="node7" class="node">
<title>6</title>
<path fill="#399de5" stroke="#000000" d="M87,-179.5C87,-179.5 12,-179.5 12,-179.5 6,-179.5 0,-173.5 0,-167.5 0,-167.5 0,-123.5 0,-123.5 0,-117.5 6,-111.5 12,-111.5 12,-111.5 87,-111.5 87,-111.5 93,-111.5 99,-117.5 99,-123.5 99,-123.5 99,-167.5 99,-167.5 99,-173.5 93,-179.5 87,-179.5"/>
<text text-anchor="start" x="20" y="-164.3" font-family="Helvetica,sans-Serif" font-size="14.00" fill="#000000">gini = 0.0</text>
<text text-anchor="start" x="10" y="-149.3" font-family="Helvetica,sans-Serif" font-size="14.00" fill="#000000">samples = 2</text>
<text text-anchor="start" x="8" y="-134.3" font-family="Helvetica,sans-Serif" font-size="14.00" fill="#000000">value = [0, 2]</text>
<text text-anchor="start" x="20.5" y="-119.3" font-family="Helvetica,sans-Serif" font-size="14.00" fill="#000000">class = 2</text>
</g>
<!-- 5&#45;&gt;6 -->
<g id="edge6" class="edge">
<title>5&#45;&gt;6</title>
<path fill="none" stroke="#000000" d="M121.6776,-222.8796C110.9079,-211.3337 99.2146,-198.7976 88.4383,-187.2446"/>
<polygon fill="#000000" stroke="#000000" points="90.8885,-184.7402 81.508,-179.8149 85.7697,-189.5149 90.8885,-184.7402"/>
</g>
<!-- 7 -->
<g id="node8" class="node">
<title>7</title>
<path fill="#e58139" stroke="#000000" d="M204,-179.5C204,-179.5 129,-179.5 129,-179.5 123,-179.5 117,-173.5 117,-167.5 117,-167.5 117,-123.5 117,-123.5 117,-117.5 123,-111.5 129,-111.5 129,-111.5 204,-111.5 204,-111.5 210,-111.5 216,-117.5 216,-123.5 216,-123.5 216,-167.5 216,-167.5 216,-173.5 210,-179.5 204,-179.5"/>
<text text-anchor="start" x="137" y="-164.3" font-family="Helvetica,sans-Serif" font-size="14.00" fill="#000000">gini = 0.0</text>
<text text-anchor="start" x="127" y="-149.3" font-family="Helvetica,sans-Serif" font-size="14.00" fill="#000000">samples = 4</text>
<text text-anchor="start" x="125" y="-134.3" font-family="Helvetica,sans-Serif" font-size="14.00" fill="#000000">value = [4, 0]</text>
<text text-anchor="start" x="137.5" y="-119.3" font-family="Helvetica,sans-Serif" font-size="14.00" fill="#000000">class = 1</text>
</g>
<!-- 5&#45;&gt;7 -->
<g id="edge7" class="edge">
<title>5&#45;&gt;7</title>
<path fill="none" stroke="#000000" d="M162.5985,-222.8796C163.1363,-212.2134 163.7167,-200.7021 164.2613,-189.9015"/>
<polygon fill="#000000" stroke="#000000" points="167.7617,-189.9785 164.7698,-179.8149 160.7706,-189.626 167.7617,-189.9785"/>
</g>
<!-- 9 -->
<g id="node10" class="node">
<title>9</title>
<path fill="#ffffff" stroke="#000000" d="M378,-187C378,-187 257,-187 257,-187 251,-187 245,-181 245,-175 245,-175 245,-116 245,-116 245,-110 251,-104 257,-104 257,-104 378,-104 378,-104 384,-104 390,-110 390,-116 390,-116 390,-175 390,-175 390,-181 384,-187 378,-187"/>
<text text-anchor="start" x="253" y="-171.8" font-family="Helvetica,sans-Serif" font-size="14.00" fill="#000000">Adiponectin ≤ 3.449</text>
<text text-anchor="start" x="288" y="-156.8" font-family="Helvetica,sans-Serif" font-size="14.00" fill="#000000">gini = 0.5</text>
<text text-anchor="start" x="278" y="-141.8" font-family="Helvetica,sans-Serif" font-size="14.00" fill="#000000">samples = 2</text>
<text text-anchor="start" x="276" y="-126.8" font-family="Helvetica,sans-Serif" font-size="14.00" fill="#000000">value = [1, 1]</text>
<text text-anchor="start" x="288.5" y="-111.8" font-family="Helvetica,sans-Serif" font-size="14.00" fill="#000000">class = 1</text>
</g>
<!-- 8&#45;&gt;9 -->
<g id="edge9" class="edge">
<title>8&#45;&gt;9</title>
<path fill="none" stroke="#000000" d="M321.4015,-222.8796C320.9883,-214.6838 320.5499,-205.9891 320.1219,-197.5013"/>
<polygon fill="#000000" stroke="#000000" points="323.6067,-197.1091 319.6075,-187.2981 316.6156,-197.4617 323.6067,-197.1091"/>
</g>
<!-- 12 -->
<g id="node13" class="node">
<title>12</title>
<path fill="#e58139" stroke="#000000" d="M503,-179.5C503,-179.5 420,-179.5 420,-179.5 414,-179.5 408,-173.5 408,-167.5 408,-167.5 408,-123.5 408,-123.5 408,-117.5 414,-111.5 420,-111.5 420,-111.5 503,-111.5 503,-111.5 509,-111.5 515,-117.5 515,-123.5 515,-123.5 515,-167.5 515,-167.5 515,-173.5 509,-179.5 503,-179.5"/>
<text text-anchor="start" x="432" y="-164.3" font-family="Helvetica,sans-Serif" font-size="14.00" fill="#000000">gini = 0.0</text>
<text text-anchor="start" x="417.5" y="-149.3" font-family="Helvetica,sans-Serif" font-size="14.00" fill="#000000">samples = 22</text>
<text text-anchor="start" x="416" y="-134.3" font-family="Helvetica,sans-Serif" font-size="14.00" fill="#000000">value = [22, 0]</text>
<text text-anchor="start" x="432.5" y="-119.3" font-family="Helvetica,sans-Serif" font-size="14.00" fill="#000000">class = 1</text>
</g>
<!-- 8&#45;&gt;12 -->
<g id="edge12" class="edge">
<title>8&#45;&gt;12</title>
<path fill="none" stroke="#000000" d="M371.7657,-222.8796C385.4101,-211.1138 400.2469,-198.3197 413.8546,-186.5855"/>
<polygon fill="#000000" stroke="#000000" points="416.4187,-188.9961 421.7062,-179.8149 411.8473,-183.6948 416.4187,-188.9961"/>
</g>
<!-- 10 -->
<g id="node11" class="node">
<title>10</title>
<path fill="#e58139" stroke="#000000" d="M296,-68C296,-68 221,-68 221,-68 215,-68 209,-62 209,-56 209,-56 209,-12 209,-12 209,-6 215,0 221,0 221,0 296,0 296,0 302,0 308,-6 308,-12 308,-12 308,-56 308,-56 308,-62 302,-68 296,-68"/>
<text text-anchor="start" x="229" y="-52.8" font-family="Helvetica,sans-Serif" font-size="14.00" fill="#000000">gini = 0.0</text>
<text text-anchor="start" x="219" y="-37.8" font-family="Helvetica,sans-Serif" font-size="14.00" fill="#000000">samples = 1</text>
<text text-anchor="start" x="217" y="-22.8" font-family="Helvetica,sans-Serif" font-size="14.00" fill="#000000">value = [1, 0]</text>
<text text-anchor="start" x="229.5" y="-7.8" font-family="Helvetica,sans-Serif" font-size="14.00" fill="#000000">class = 1</text>
</g>
<!-- 9&#45;&gt;10 -->
<g id="edge10" class="edge">
<title>9&#45;&gt;10</title>
<path fill="none" stroke="#000000" d="M295.5306,-103.9815C290.9105,-95.2504 286.0264,-86.0202 281.374,-77.2281"/>
<polygon fill="#000000" stroke="#000000" points="284.4013,-75.4655 276.6306,-68.2637 278.2141,-78.7395 284.4013,-75.4655"/>
</g>
<!-- 11 -->
<g id="node12" class="node">
<title>11</title>
<path fill="#399de5" stroke="#000000" d="M413,-68C413,-68 338,-68 338,-68 332,-68 326,-62 326,-56 326,-56 326,-12 326,-12 326,-6 332,0 338,0 338,0 413,0 413,0 419,0 425,-6 425,-12 425,-12 425,-56 425,-56 425,-62 419,-68 413,-68"/>
<text text-anchor="start" x="346" y="-52.8" font-family="Helvetica,sans-Serif" font-size="14.00" fill="#000000">gini = 0.0</text>
<text text-anchor="start" x="336" y="-37.8" font-family="Helvetica,sans-Serif" font-size="14.00" fill="#000000">samples = 1</text>
<text text-anchor="start" x="334" y="-22.8" font-family="Helvetica,sans-Serif" font-size="14.00" fill="#000000">value = [0, 1]</text>
<text text-anchor="start" x="346.5" y="-7.8" font-family="Helvetica,sans-Serif" font-size="14.00" fill="#000000">class = 2</text>
</g>
<!-- 9&#45;&gt;11 -->
<g id="edge11" class="edge">
<title>9&#45;&gt;11</title>
<path fill="none" stroke="#000000" d="M339.0971,-103.9815C343.6388,-95.2504 348.4402,-86.0202 353.0137,-77.2281"/>
<polygon fill="#000000" stroke="#000000" points="356.1669,-78.7504 357.6767,-68.2637 349.9569,-75.52 356.1669,-78.7504"/>
</g>
<!-- 16 -->
<g id="node17" class="node">
<title>16</title>
<path fill="#399de5" stroke="#000000" d="M590,-536.5C590,-536.5 515,-536.5 515,-536.5 509,-536.5 503,-530.5 503,-524.5 503,-524.5 503,-480.5 503,-480.5 503,-474.5 509,-468.5 515,-468.5 515,-468.5 590,-468.5 590,-468.5 596,-468.5 602,-474.5 602,-480.5 602,-480.5 602,-524.5 602,-524.5 602,-530.5 596,-536.5 590,-536.5"/>
<text text-anchor="start" x="523" y="-521.3" font-family="Helvetica,sans-Serif" font-size="14.00" fill="#000000">gini = 0.0</text>
<text text-anchor="start" x="513" y="-506.3" font-family="Helvetica,sans-Serif" font-size="14.00" fill="#000000">samples = 9</text>
<text text-anchor="start" x="511" y="-491.3" font-family="Helvetica,sans-Serif" font-size="14.00" fill="#000000">value = [0, 9]</text>
<text text-anchor="start" x="523.5" y="-476.3" font-family="Helvetica,sans-Serif" font-size="14.00" fill="#000000">class = 2</text>
</g>
<!-- 15&#45;&gt;16 -->
<g id="edge16" class="edge">
<title>15&#45;&gt;16</title>
<path fill="none" stroke="#000000" d="M554.4507,-579.8796C554.1818,-569.2134 553.8916,-557.7021 553.6194,-546.9015"/>
<polygon fill="#000000" stroke="#000000" points="557.1161,-546.7235 553.3651,-536.8149 550.1183,-546.9 557.1161,-546.7235"/>
</g>
<!-- 17 -->
<g id="node18" class="node">
<title>17</title>
<path fill="#e58139" stroke="#000000" d="M707,-536.5C707,-536.5 632,-536.5 632,-536.5 626,-536.5 620,-530.5 620,-524.5 620,-524.5 620,-480.5 620,-480.5 620,-474.5 626,-468.5 632,-468.5 632,-468.5 707,-468.5 707,-468.5 713,-468.5 719,-474.5 719,-480.5 719,-480.5 719,-524.5 719,-524.5 719,-530.5 713,-536.5 707,-536.5"/>
<text text-anchor="start" x="640" y="-521.3" font-family="Helvetica,sans-Serif" font-size="14.00" fill="#000000">gini = 0.0</text>
<text text-anchor="start" x="630" y="-506.3" font-family="Helvetica,sans-Serif" font-size="14.00" fill="#000000">samples = 7</text>
<text text-anchor="start" x="628" y="-491.3" font-family="Helvetica,sans-Serif" font-size="14.00" fill="#000000">value = [7, 0]</text>
<text text-anchor="start" x="640.5" y="-476.3" font-family="Helvetica,sans-Serif" font-size="14.00" fill="#000000">class = 1</text>
</g>
<!-- 15&#45;&gt;17 -->
<g id="edge17" class="edge">
<title>15&#45;&gt;17</title>
<path fill="none" stroke="#000000" d="M595.3717,-579.8796C606.4324,-568.3337 618.4418,-555.7976 629.5094,-544.2446"/>
<polygon fill="#000000" stroke="#000000" points="632.2365,-546.4573 636.6269,-536.8149 627.1817,-541.6149 632.2365,-546.4573"/>
</g>
<!-- 19 -->
<g id="node20" class="node">
<title>19</title>
<path fill="#e58139" stroke="#000000" d="M721,-655.5C721,-655.5 646,-655.5 646,-655.5 640,-655.5 634,-649.5 634,-643.5 634,-643.5 634,-599.5 634,-599.5 634,-593.5 640,-587.5 646,-587.5 646,-587.5 721,-587.5 721,-587.5 727,-587.5 733,-593.5 733,-599.5 733,-599.5 733,-643.5 733,-643.5 733,-649.5 727,-655.5 721,-655.5"/>
<text text-anchor="start" x="654" y="-640.3" font-family="Helvetica,sans-Serif" font-size="14.00" fill="#000000">gini = 0.0</text>
<text text-anchor="start" x="644" y="-625.3" font-family="Helvetica,sans-Serif" font-size="14.00" fill="#000000">samples = 2</text>
<text text-anchor="start" x="642" y="-610.3" font-family="Helvetica,sans-Serif" font-size="14.00" fill="#000000">value = [2, 0]</text>
<text text-anchor="start" x="654.5" y="-595.3" font-family="Helvetica,sans-Serif" font-size="14.00" fill="#000000">class = 1</text>
</g>
<!-- 18&#45;&gt;19 -->
<g id="edge19" class="edge">
<title>18&#45;&gt;19</title>
<path fill="none" stroke="#000000" d="M686.7512,-698.8796C686.3031,-688.2134 685.8194,-676.7021 685.3656,-665.9015"/>
<polygon fill="#000000" stroke="#000000" points="688.8586,-665.6592 684.9418,-655.8149 681.8648,-665.9531 688.8586,-665.6592"/>
</g>
<!-- 20 -->
<g id="node21" class="node">
<title>20</title>
<path fill="#57ace9" stroke="#000000" d="M846,-663C846,-663 763,-663 763,-663 757,-663 751,-657 751,-651 751,-651 751,-592 751,-592 751,-586 757,-580 763,-580 763,-580 846,-580 846,-580 852,-580 858,-586 858,-592 858,-592 858,-651 858,-651 858,-657 852,-663 846,-663"/>
<text text-anchor="start" x="761.5" y="-647.8" font-family="Helvetica,sans-Serif" font-size="14.00" fill="#000000">BMI ≤ 33.777</text>
<text text-anchor="start" x="766.5" y="-632.8" font-family="Helvetica,sans-Serif" font-size="14.00" fill="#000000">gini = 0.231</text>
<text text-anchor="start" x="760.5" y="-617.8" font-family="Helvetica,sans-Serif" font-size="14.00" fill="#000000">samples = 30</text>
<text text-anchor="start" x="759" y="-602.8" font-family="Helvetica,sans-Serif" font-size="14.00" fill="#000000">value = [4, 26]</text>
<text text-anchor="start" x="775.5" y="-587.8" font-family="Helvetica,sans-Serif" font-size="14.00" fill="#000000">class = 2</text>
</g>
<!-- 18&#45;&gt;20 -->
<g id="edge20" class="edge">
<title>18&#45;&gt;20</title>
<path fill="none" stroke="#000000" d="M729.0712,-698.8796C737.9382,-689.7832 747.4044,-680.0722 756.5291,-670.7116"/>
<polygon fill="#000000" stroke="#000000" points="759.2817,-672.9019 763.7557,-663.2981 754.2691,-668.0158 759.2817,-672.9019"/>
</g>
<!-- 21 -->
<g id="node22" class="node">
<title>21</title>
<path fill="#42a1e6" stroke="#000000" d="M850,-544C850,-544 755,-544 755,-544 749,-544 743,-538 743,-532 743,-532 743,-473 743,-473 743,-467 749,-461 755,-461 755,-461 850,-461 850,-461 856,-461 862,-467 862,-473 862,-473 862,-532 862,-532 862,-538 856,-544 850,-544"/>
<text text-anchor="start" x="751" y="-528.8" font-family="Helvetica,sans-Serif" font-size="14.00" fill="#000000">MCP.1 ≤ 67.966</text>
<text text-anchor="start" x="769" y="-513.8" font-family="Helvetica,sans-Serif" font-size="14.00" fill="#000000">gini = 0.08</text>
<text text-anchor="start" x="758.5" y="-498.8" font-family="Helvetica,sans-Serif" font-size="14.00" fill="#000000">samples = 24</text>
<text text-anchor="start" x="757" y="-483.8" font-family="Helvetica,sans-Serif" font-size="14.00" fill="#000000">value = [1, 23]</text>
<text text-anchor="start" x="773.5" y="-468.8" font-family="Helvetica,sans-Serif" font-size="14.00" fill="#000000">class = 2</text>
</g>
<!-- 20&#45;&gt;21 -->
<g id="edge21" class="edge">
<title>20&#45;&gt;21</title>
<path fill="none" stroke="#000000" d="M803.8005,-579.8796C803.6628,-571.6838 803.5166,-562.9891 803.374,-554.5013"/>
<polygon fill="#000000" stroke="#000000" points="806.8701,-554.2378 803.2025,-544.2981 799.8711,-554.3555 806.8701,-554.2378"/>
</g>
<!-- 24 -->
<g id="node25" class="node">
<title>24</title>
<path fill="#ffffff" stroke="#000000" d="M988.5,-544C988.5,-544 892.5,-544 892.5,-544 886.5,-544 880.5,-538 880.5,-532 880.5,-532 880.5,-473 880.5,-473 880.5,-467 886.5,-461 892.5,-461 892.5,-461 988.5,-461 988.5,-461 994.5,-461 1000.5,-467 1000.5,-473 1000.5,-473 1000.5,-532 1000.5,-532 1000.5,-538 994.5,-544 988.5,-544"/>
<text text-anchor="start" x="888.5" y="-528.8" font-family="Helvetica,sans-Serif" font-size="14.00" fill="#000000">Resistin ≤ 9.338</text>
<text text-anchor="start" x="911" y="-513.8" font-family="Helvetica,sans-Serif" font-size="14.00" fill="#000000">gini = 0.5</text>
<text text-anchor="start" x="901" y="-498.8" font-family="Helvetica,sans-Serif" font-size="14.00" fill="#000000">samples = 6</text>
<text text-anchor="start" x="899" y="-483.8" font-family="Helvetica,sans-Serif" font-size="14.00" fill="#000000">value = [3, 3]</text>
<text text-anchor="start" x="911.5" y="-468.8" font-family="Helvetica,sans-Serif" font-size="14.00" fill="#000000">class = 1</text>
</g>
<!-- 20&#45;&gt;24 -->
<g id="edge24" class="edge">
<title>20&#45;&gt;24</title>
<path fill="none" stroke="#000000" d="M852.0662,-579.8796C862.6679,-570.6031 874.0002,-560.6874 884.8933,-551.1559"/>
<polygon fill="#000000" stroke="#000000" points="887.5098,-553.5172 892.7308,-544.2981 882.9002,-548.2491 887.5098,-553.5172"/>
</g>
<!-- 22 -->
<g id="node23" class="node">
<title>22</title>
<path fill="#e58139" stroke="#000000" d="M723,-417.5C723,-417.5 648,-417.5 648,-417.5 642,-417.5 636,-411.5 636,-405.5 636,-405.5 636,-361.5 636,-361.5 636,-355.5 642,-349.5 648,-349.5 648,-349.5 723,-349.5 723,-349.5 729,-349.5 735,-355.5 735,-361.5 735,-361.5 735,-405.5 735,-405.5 735,-411.5 729,-417.5 723,-417.5"/>
<text text-anchor="start" x="656" y="-402.3" font-family="Helvetica,sans-Serif" font-size="14.00" fill="#000000">gini = 0.0</text>
<text text-anchor="start" x="646" y="-387.3" font-family="Helvetica,sans-Serif" font-size="14.00" fill="#000000">samples = 1</text>
<text text-anchor="start" x="644" y="-372.3" font-family="Helvetica,sans-Serif" font-size="14.00" fill="#000000">value = [1, 0]</text>
<text text-anchor="start" x="656.5" y="-357.3" font-family="Helvetica,sans-Serif" font-size="14.00" fill="#000000">class = 1</text>
</g>
<!-- 21&#45;&gt;22 -->
<g id="edge22" class="edge">
<title>21&#45;&gt;22</title>
<path fill="none" stroke="#000000" d="M761.5791,-460.8796C750.2272,-449.3337 737.9018,-436.7976 726.543,-425.2446"/>
<polygon fill="#000000" stroke="#000000" points="728.7449,-422.4919 719.2382,-417.8149 723.7534,-427.3995 728.7449,-422.4919"/>
</g>
<!-- 23 -->
<g id="node24" class="node">
<title>23</title>
<path fill="#399de5" stroke="#000000" d="M848,-417.5C848,-417.5 765,-417.5 765,-417.5 759,-417.5 753,-411.5 753,-405.5 753,-405.5 753,-361.5 753,-361.5 753,-355.5 759,-349.5 765,-349.5 765,-349.5 848,-349.5 848,-349.5 854,-349.5 860,-355.5 860,-361.5 860,-361.5 860,-405.5 860,-405.5 860,-411.5 854,-417.5 848,-417.5"/>
<text text-anchor="start" x="777" y="-402.3" font-family="Helvetica,sans-Serif" font-size="14.00" fill="#000000">gini = 0.0</text>
<text text-anchor="start" x="762.5" y="-387.3" font-family="Helvetica,sans-Serif" font-size="14.00" fill="#000000">samples = 23</text>
<text text-anchor="start" x="761" y="-372.3" font-family="Helvetica,sans-Serif" font-size="14.00" fill="#000000">value = [0, 23]</text>
<text text-anchor="start" x="777.5" y="-357.3" font-family="Helvetica,sans-Serif" font-size="14.00" fill="#000000">class = 2</text>
</g>
<!-- 21&#45;&gt;23 -->
<g id="edge23" class="edge">
<title>21&#45;&gt;23</title>
<path fill="none" stroke="#000000" d="M803.899,-460.8796C804.2575,-450.2134 804.6445,-438.7021 805.0075,-427.9015"/>
<polygon fill="#000000" stroke="#000000" points="808.5085,-427.9269 805.3466,-417.8149 801.5125,-427.6917 808.5085,-427.9269"/>
</g>
<!-- 25 -->
<g id="node26" class="node">
<title>25</title>
<path fill="#399de5" stroke="#000000" d="M973,-417.5C973,-417.5 898,-417.5 898,-417.5 892,-417.5 886,-411.5 886,-405.5 886,-405.5 886,-361.5 886,-361.5 886,-355.5 892,-349.5 898,-349.5 898,-349.5 973,-349.5 973,-349.5 979,-349.5 985,-355.5 985,-361.5 985,-361.5 985,-405.5 985,-405.5 985,-411.5 979,-417.5 973,-417.5"/>
<text text-anchor="start" x="906" y="-402.3" font-family="Helvetica,sans-Serif" font-size="14.00" fill="#000000">gini = 0.0</text>
<text text-anchor="start" x="896" y="-387.3" font-family="Helvetica,sans-Serif" font-size="14.00" fill="#000000">samples = 3</text>
<text text-anchor="start" x="894" y="-372.3" font-family="Helvetica,sans-Serif" font-size="14.00" fill="#000000">value = [0, 3]</text>
<text text-anchor="start" x="906.5" y="-357.3" font-family="Helvetica,sans-Serif" font-size="14.00" fill="#000000">class = 2</text>
</g>
<!-- 24&#45;&gt;25 -->
<g id="edge25" class="edge">
<title>24&#45;&gt;25</title>
<path fill="none" stroke="#000000" d="M938.7512,-460.8796C938.3031,-450.2134 937.8194,-438.7021 937.3656,-427.9015"/>
<polygon fill="#000000" stroke="#000000" points="940.8586,-427.6592 936.9418,-417.8149 933.8648,-427.9531 940.8586,-427.6592"/>
</g>
<!-- 26 -->
<g id="node27" class="node">
<title>26</title>
<path fill="#e58139" stroke="#000000" d="M1090,-417.5C1090,-417.5 1015,-417.5 1015,-417.5 1009,-417.5 1003,-411.5 1003,-405.5 1003,-405.5 1003,-361.5 1003,-361.5 1003,-355.5 1009,-349.5 1015,-349.5 1015,-349.5 1090,-349.5 1090,-349.5 1096,-349.5 1102,-355.5 1102,-361.5 1102,-361.5 1102,-405.5 1102,-405.5 1102,-411.5 1096,-417.5 1090,-417.5"/>
<text text-anchor="start" x="1023" y="-402.3" font-family="Helvetica,sans-Serif" font-size="14.00" fill="#000000">gini = 0.0</text>
<text text-anchor="start" x="1013" y="-387.3" font-family="Helvetica,sans-Serif" font-size="14.00" fill="#000000">samples = 3</text>
<text text-anchor="start" x="1011" y="-372.3" font-family="Helvetica,sans-Serif" font-size="14.00" fill="#000000">value = [3, 0]</text>
<text text-anchor="start" x="1023.5" y="-357.3" font-family="Helvetica,sans-Serif" font-size="14.00" fill="#000000">class = 1</text>
</g>
<!-- 24&#45;&gt;26 -->
<g id="edge26" class="edge">
<title>24&#45;&gt;26</title>
<path fill="none" stroke="#000000" d="M979.6722,-460.8796C990.5389,-449.3337 1002.3376,-436.7976 1013.2109,-425.2446"/>
<polygon fill="#000000" stroke="#000000" points="1015.8986,-427.4958 1020.2036,-417.8149 1010.8012,-422.6982 1015.8986,-427.4958"/>
</g>
</g>
</svg>
