<?xml version="1.0" encoding="UTF-8" standalone="no"?>
<!DOCTYPE svg PUBLIC "-//W3C//DTD SVG 1.1//EN"
 "http://www.w3.org/Graphics/SVG/1.1/DTD/svg11.dtd">
<!-- Generated by graphviz version 2.40.1 (20161225.0304)
 -->
<!-- Title: Tree Pages: 1 -->
<svg width="1028pt" height="1147pt"
 viewBox="0.00 0.00 1028.00 1147.00" xmlns="http://www.w3.org/2000/svg" xmlns:xlink="http://www.w3.org/1999/xlink">
<g id="graph0" class="graph" transform="scale(1 1) rotate(0) translate(4 1143)">
<title>Tree</title>
<polygon fill="#ffffff" stroke="transparent" points="-4,4 -4,-1143 1024,-1143 1024,4 -4,4"/>
<!-- 0 -->
<g id="node1" class="node">
<title>0</title>
<path fill="#fafdfe" stroke="#000000" d="M671.5,-1139C671.5,-1139 579.5,-1139 579.5,-1139 573.5,-1139 567.5,-1133 567.5,-1127 567.5,-1127 567.5,-1068 567.5,-1068 567.5,-1062 573.5,-1056 579.5,-1056 579.5,-1056 671.5,-1056 671.5,-1056 677.5,-1056 683.5,-1062 683.5,-1068 683.5,-1068 683.5,-1127 683.5,-1127 683.5,-1133 677.5,-1139 671.5,-1139"/>
<text text-anchor="start" x="576.5" y="-1123.8" font-family="Helvetica,sans-Serif" font-size="14.00" fill="#000000">Glucose ≤ 96.5</text>
<text text-anchor="start" x="583" y="-1108.8" font-family="Helvetica,sans-Serif" font-size="14.00" fill="#000000">entropy = 1.0</text>
<text text-anchor="start" x="581.5" y="-1093.8" font-family="Helvetica,sans-Serif" font-size="14.00" fill="#000000">samples = 81</text>
<text text-anchor="start" x="575.5" y="-1078.8" font-family="Helvetica,sans-Serif" font-size="14.00" fill="#000000">value = [40, 41]</text>
<text text-anchor="start" x="596.5" y="-1063.8" font-family="Helvetica,sans-Serif" font-size="14.00" fill="#000000">class = 2</text>
</g>
<!-- 1 -->
<g id="node2" class="node">
<title>1</title>
<path fill="#f0b990" stroke="#000000" d="M605,-1020C605,-1020 510,-1020 510,-1020 504,-1020 498,-1014 498,-1008 498,-1008 498,-949 498,-949 498,-943 504,-937 510,-937 510,-937 605,-937 605,-937 611,-937 617,-943 617,-949 617,-949 617,-1008 617,-1008 617,-1014 611,-1020 605,-1020"/>
<text text-anchor="start" x="506" y="-1004.8" font-family="Helvetica,sans-Serif" font-size="14.00" fill="#000000">Insulin ≤ 14.359</text>
<text text-anchor="start" x="506.5" y="-989.8" font-family="Helvetica,sans-Serif" font-size="14.00" fill="#000000">entropy = 0.889</text>
<text text-anchor="start" x="513.5" y="-974.8" font-family="Helvetica,sans-Serif" font-size="14.00" fill="#000000">samples = 49</text>
<text text-anchor="start" x="507.5" y="-959.8" font-family="Helvetica,sans-Serif" font-size="14.00" fill="#000000">value = [34, 15]</text>
<text text-anchor="start" x="528.5" y="-944.8" font-family="Helvetica,sans-Serif" font-size="14.00" fill="#000000">class = 1</text>
</g>
<!-- 0&#45;&gt;1 -->
<g id="edge1" class="edge">
<title>0&#45;&gt;1</title>
<path fill="none" stroke="#000000" d="M601.7169,-1055.8796C596.7763,-1047.2335 591.5184,-1038.0322 586.4167,-1029.1042"/>
<polygon fill="#000000" stroke="#000000" points="589.3849,-1027.244 581.3846,-1020.2981 583.3072,-1030.717 589.3849,-1027.244"/>
<text text-anchor="middle" x="574.8067" y="-1040.7172" font-family="Helvetica,sans-Serif" font-size="14.00" fill="#000000">True</text>
</g>
<!-- 26 -->
<g id="node27" class="node">
<title>26</title>
<path fill="#67b4eb" stroke="#000000" d="M741.5,-1020C741.5,-1020 647.5,-1020 647.5,-1020 641.5,-1020 635.5,-1014 635.5,-1008 635.5,-1008 635.5,-949 635.5,-949 635.5,-943 641.5,-937 647.5,-937 647.5,-937 741.5,-937 741.5,-937 747.5,-937 753.5,-943 753.5,-949 753.5,-949 753.5,-1008 753.5,-1008 753.5,-1014 747.5,-1020 741.5,-1020"/>
<text text-anchor="start" x="648.5" y="-1004.8" font-family="Helvetica,sans-Serif" font-size="14.00" fill="#000000">Leptin ≤ 6.059</text>
<text text-anchor="start" x="643.5" y="-989.8" font-family="Helvetica,sans-Serif" font-size="14.00" fill="#000000">entropy = 0.696</text>
<text text-anchor="start" x="650.5" y="-974.8" font-family="Helvetica,sans-Serif" font-size="14.00" fill="#000000">samples = 32</text>
<text text-anchor="start" x="649" y="-959.8" font-family="Helvetica,sans-Serif" font-size="14.00" fill="#000000">value = [6, 26]</text>
<text text-anchor="start" x="665.5" y="-944.8" font-family="Helvetica,sans-Serif" font-size="14.00" fill="#000000">class = 2</text>
</g>
<!-- 0&#45;&gt;26 -->
<g id="edge26" class="edge">
<title>0&#45;&gt;26</title>
<path fill="none" stroke="#000000" d="M649.6329,-1055.8796C654.6461,-1047.2335 659.9813,-1038.0322 665.1581,-1029.1042"/>
<polygon fill="#000000" stroke="#000000" points="668.2758,-1030.7047 670.2641,-1020.2981 662.2202,-1027.1934 668.2758,-1030.7047"/>
<text text-anchor="middle" x="676.6897" y="-1040.7582" font-family="Helvetica,sans-Serif" font-size="14.00" fill="#000000">False</text>
</g>
<!-- 2 -->
<g id="node3" class="node">
<title>2</title>
<path fill="#eead7f" stroke="#000000" d="M476.5,-901C476.5,-901 382.5,-901 382.5,-901 376.5,-901 370.5,-895 370.5,-889 370.5,-889 370.5,-830 370.5,-830 370.5,-824 376.5,-818 382.5,-818 382.5,-818 476.5,-818 476.5,-818 482.5,-818 488.5,-824 488.5,-830 488.5,-830 488.5,-889 488.5,-889 488.5,-895 482.5,-901 476.5,-901"/>
<text text-anchor="start" x="381.5" y="-885.8" font-family="Helvetica,sans-Serif" font-size="14.00" fill="#000000">Resistin ≤ 7.74</text>
<text text-anchor="start" x="378.5" y="-870.8" font-family="Helvetica,sans-Serif" font-size="14.00" fill="#000000">entropy = 0.828</text>
<text text-anchor="start" x="385.5" y="-855.8" font-family="Helvetica,sans-Serif" font-size="14.00" fill="#000000">samples = 46</text>
<text text-anchor="start" x="379.5" y="-840.8" font-family="Helvetica,sans-Serif" font-size="14.00" fill="#000000">value = [34, 12]</text>
<text text-anchor="start" x="400.5" y="-825.8" font-family="Helvetica,sans-Serif" font-size="14.00" fill="#000000">class = 1</text>
</g>
<!-- 1&#45;&gt;2 -->
<g id="edge2" class="edge">
<title>1&#45;&gt;2</title>
<path fill="none" stroke="#000000" d="M512.7318,-936.8796C502.7537,-927.6031 492.0881,-917.6874 481.8358,-908.1559"/>
<polygon fill="#000000" stroke="#000000" points="484.1663,-905.5436 474.4593,-901.2981 479.4,-910.6704 484.1663,-905.5436"/>
</g>
<!-- 25 -->
<g id="node26" class="node">
<title>25</title>
<path fill="#399de5" stroke="#000000" d="M596,-893.5C596,-893.5 519,-893.5 519,-893.5 513,-893.5 507,-887.5 507,-881.5 507,-881.5 507,-837.5 507,-837.5 507,-831.5 513,-825.5 519,-825.5 519,-825.5 596,-825.5 596,-825.5 602,-825.5 608,-831.5 608,-837.5 608,-837.5 608,-881.5 608,-881.5 608,-887.5 602,-893.5 596,-893.5"/>
<text text-anchor="start" x="515" y="-878.3" font-family="Helvetica,sans-Serif" font-size="14.00" fill="#000000">entropy = 0.0</text>
<text text-anchor="start" x="518" y="-863.3" font-family="Helvetica,sans-Serif" font-size="14.00" fill="#000000">samples = 3</text>
<text text-anchor="start" x="516" y="-848.3" font-family="Helvetica,sans-Serif" font-size="14.00" fill="#000000">value = [0, 3]</text>
<text text-anchor="start" x="528.5" y="-833.3" font-family="Helvetica,sans-Serif" font-size="14.00" fill="#000000">class = 2</text>
</g>
<!-- 1&#45;&gt;25 -->
<g id="edge25" class="edge">
<title>1&#45;&gt;25</title>
<path fill="none" stroke="#000000" d="M557.5,-936.8796C557.5,-926.2134 557.5,-914.7021 557.5,-903.9015"/>
<polygon fill="#000000" stroke="#000000" points="561.0001,-903.8149 557.5,-893.8149 554.0001,-903.815 561.0001,-903.8149"/>
</g>
<!-- 3 -->
<g id="node4" class="node">
<title>3</title>
<path fill="#e58139" stroke="#000000" d="M336,-774.5C336,-774.5 253,-774.5 253,-774.5 247,-774.5 241,-768.5 241,-762.5 241,-762.5 241,-718.5 241,-718.5 241,-712.5 247,-706.5 253,-706.5 253,-706.5 336,-706.5 336,-706.5 342,-706.5 348,-712.5 348,-718.5 348,-718.5 348,-762.5 348,-762.5 348,-768.5 342,-774.5 336,-774.5"/>
<text text-anchor="start" x="252" y="-759.3" font-family="Helvetica,sans-Serif" font-size="14.00" fill="#000000">entropy = 0.0</text>
<text text-anchor="start" x="250.5" y="-744.3" font-family="Helvetica,sans-Serif" font-size="14.00" fill="#000000">samples = 12</text>
<text text-anchor="start" x="249" y="-729.3" font-family="Helvetica,sans-Serif" font-size="14.00" fill="#000000">value = [12, 0]</text>
<text text-anchor="start" x="265.5" y="-714.3" font-family="Helvetica,sans-Serif" font-size="14.00" fill="#000000">class = 1</text>
</g>
<!-- 2&#45;&gt;3 -->
<g id="edge3" class="edge">
<title>2&#45;&gt;3</title>
<path fill="none" stroke="#000000" d="M382.2836,-817.8796C368.9358,-806.1138 354.4215,-793.3197 341.1096,-781.5855"/>
<polygon fill="#000000" stroke="#000000" points="343.2448,-778.8019 333.4287,-774.8149 338.616,-784.0531 343.2448,-778.8019"/>
</g>
<!-- 4 -->
<g id="node5" class="node">
<title>4</title>
<path fill="#f3c6a5" stroke="#000000" d="M482.5,-782C482.5,-782 378.5,-782 378.5,-782 372.5,-782 366.5,-776 366.5,-770 366.5,-770 366.5,-711 366.5,-711 366.5,-705 372.5,-699 378.5,-699 378.5,-699 482.5,-699 482.5,-699 488.5,-699 494.5,-705 494.5,-711 494.5,-711 494.5,-770 494.5,-770 494.5,-776 488.5,-782 482.5,-782"/>
<text text-anchor="start" x="374.5" y="-766.8" font-family="Helvetica,sans-Serif" font-size="14.00" fill="#000000">MCP.1 ≤ 339.218</text>
<text text-anchor="start" x="379.5" y="-751.8" font-family="Helvetica,sans-Serif" font-size="14.00" fill="#000000">entropy = 0.937</text>
<text text-anchor="start" x="386.5" y="-736.8" font-family="Helvetica,sans-Serif" font-size="14.00" fill="#000000">samples = 34</text>
<text text-anchor="start" x="380.5" y="-721.8" font-family="Helvetica,sans-Serif" font-size="14.00" fill="#000000">value = [22, 12]</text>
<text text-anchor="start" x="401.5" y="-706.8" font-family="Helvetica,sans-Serif" font-size="14.00" fill="#000000">class = 1</text>
</g>
<!-- 2&#45;&gt;4 -->
<g id="edge4" class="edge">
<title>2&#45;&gt;4</title>
<path fill="none" stroke="#000000" d="M429.8498,-817.8796C429.9186,-809.6838 429.9917,-800.9891 430.063,-792.5013"/>
<polygon fill="#000000" stroke="#000000" points="433.5645,-792.3272 430.1488,-782.2981 426.5648,-792.2683 433.5645,-792.3272"/>
</g>
<!-- 5 -->
<g id="node6" class="node">
<title>5</title>
<path fill="#8ec7f0" stroke="#000000" d="M343.5,-663C343.5,-663 239.5,-663 239.5,-663 233.5,-663 227.5,-657 227.5,-651 227.5,-651 227.5,-592 227.5,-592 227.5,-586 233.5,-580 239.5,-580 239.5,-580 343.5,-580 343.5,-580 349.5,-580 355.5,-586 355.5,-592 355.5,-592 355.5,-651 355.5,-651 355.5,-657 349.5,-663 343.5,-663"/>
<text text-anchor="start" x="235.5" y="-647.8" font-family="Helvetica,sans-Serif" font-size="14.00" fill="#000000">Resistin ≤ 12.674</text>
<text text-anchor="start" x="240.5" y="-632.8" font-family="Helvetica,sans-Serif" font-size="14.00" fill="#000000">entropy = 0.881</text>
<text text-anchor="start" x="247.5" y="-617.8" font-family="Helvetica,sans-Serif" font-size="14.00" fill="#000000">samples = 10</text>
<text text-anchor="start" x="250" y="-602.8" font-family="Helvetica,sans-Serif" font-size="14.00" fill="#000000">value = [3, 7]</text>
<text text-anchor="start" x="262.5" y="-587.8" font-family="Helvetica,sans-Serif" font-size="14.00" fill="#000000">class = 2</text>
</g>
<!-- 4&#45;&gt;5 -->
<g id="edge5" class="edge">
<title>4&#45;&gt;5</title>
<path fill="none" stroke="#000000" d="M381.8845,-698.8796C370.9438,-689.513 359.2418,-679.4948 348.0092,-669.8784"/>
<polygon fill="#000000" stroke="#000000" points="350.1956,-667.1428 340.323,-663.2981 345.6432,-672.4603 350.1956,-667.1428"/>
</g>
<!-- 12 -->
<g id="node13" class="node">
<title>12</title>
<path fill="#eca26d" stroke="#000000" d="M479.5,-663C479.5,-663 385.5,-663 385.5,-663 379.5,-663 373.5,-657 373.5,-651 373.5,-651 373.5,-592 373.5,-592 373.5,-586 379.5,-580 385.5,-580 385.5,-580 479.5,-580 479.5,-580 485.5,-580 491.5,-586 491.5,-592 491.5,-592 491.5,-651 491.5,-651 491.5,-657 485.5,-663 479.5,-663"/>
<text text-anchor="start" x="385.5" y="-647.8" font-family="Helvetica,sans-Serif" font-size="14.00" fill="#000000">Insulin ≤ 3.119</text>
<text text-anchor="start" x="381.5" y="-632.8" font-family="Helvetica,sans-Serif" font-size="14.00" fill="#000000">entropy = 0.738</text>
<text text-anchor="start" x="388.5" y="-617.8" font-family="Helvetica,sans-Serif" font-size="14.00" fill="#000000">samples = 24</text>
<text text-anchor="start" x="387" y="-602.8" font-family="Helvetica,sans-Serif" font-size="14.00" fill="#000000">value = [19, 5]</text>
<text text-anchor="start" x="403.5" y="-587.8" font-family="Helvetica,sans-Serif" font-size="14.00" fill="#000000">class = 1</text>
</g>
<!-- 4&#45;&gt;12 -->
<g id="edge12" class="edge">
<title>4&#45;&gt;12</title>
<path fill="none" stroke="#000000" d="M431.1995,-698.8796C431.3372,-690.6838 431.4834,-681.9891 431.626,-673.5013"/>
<polygon fill="#000000" stroke="#000000" points="435.1289,-673.3555 431.7975,-663.2981 428.1299,-673.2378 435.1289,-673.3555"/>
</g>
<!-- 6 -->
<g id="node7" class="node">
<title>6</title>
<path fill="#ffffff" stroke="#000000" d="M214.5,-544C214.5,-544 128.5,-544 128.5,-544 122.5,-544 116.5,-538 116.5,-532 116.5,-532 116.5,-473 116.5,-473 116.5,-467 122.5,-461 128.5,-461 128.5,-461 214.5,-461 214.5,-461 220.5,-461 226.5,-467 226.5,-473 226.5,-473 226.5,-532 226.5,-532 226.5,-538 220.5,-544 214.5,-544"/>
<text text-anchor="start" x="124.5" y="-528.8" font-family="Helvetica,sans-Serif" font-size="14.00" fill="#000000">Insulin ≤ 3.951</text>
<text text-anchor="start" x="129" y="-513.8" font-family="Helvetica,sans-Serif" font-size="14.00" fill="#000000">entropy = 1.0</text>
<text text-anchor="start" x="132" y="-498.8" font-family="Helvetica,sans-Serif" font-size="14.00" fill="#000000">samples = 6</text>
<text text-anchor="start" x="130" y="-483.8" font-family="Helvetica,sans-Serif" font-size="14.00" fill="#000000">value = [3, 3]</text>
<text text-anchor="start" x="142.5" y="-468.8" font-family="Helvetica,sans-Serif" font-size="14.00" fill="#000000">class = 1</text>
</g>
<!-- 5&#45;&gt;6 -->
<g id="edge6" class="edge">
<title>5&#45;&gt;6</title>
<path fill="none" stroke="#000000" d="M249.5298,-579.8796C240.2662,-570.6931 230.3704,-560.8798 220.8448,-551.4336"/>
<polygon fill="#000000" stroke="#000000" points="223.2144,-548.8543 213.6493,-544.2981 218.2854,-553.8247 223.2144,-548.8543"/>
</g>
<!-- 11 -->
<g id="node12" class="node">
<title>11</title>
<path fill="#399de5" stroke="#000000" d="M334,-536.5C334,-536.5 257,-536.5 257,-536.5 251,-536.5 245,-530.5 245,-524.5 245,-524.5 245,-480.5 245,-480.5 245,-474.5 251,-468.5 257,-468.5 257,-468.5 334,-468.5 334,-468.5 340,-468.5 346,-474.5 346,-480.5 346,-480.5 346,-524.5 346,-524.5 346,-530.5 340,-536.5 334,-536.5"/>
<text text-anchor="start" x="253" y="-521.3" font-family="Helvetica,sans-Serif" font-size="14.00" fill="#000000">entropy = 0.0</text>
<text text-anchor="start" x="256" y="-506.3" font-family="Helvetica,sans-Serif" font-size="14.00" fill="#000000">samples = 4</text>
<text text-anchor="start" x="254" y="-491.3" font-family="Helvetica,sans-Serif" font-size="14.00" fill="#000000">value = [0, 4]</text>
<text text-anchor="start" x="266.5" y="-476.3" font-family="Helvetica,sans-Serif" font-size="14.00" fill="#000000">class = 2</text>
</g>
<!-- 5&#45;&gt;11 -->
<g id="edge11" class="edge">
<title>5&#45;&gt;11</title>
<path fill="none" stroke="#000000" d="M292.899,-579.8796C293.2575,-569.2134 293.6445,-557.7021 294.0075,-546.9015"/>
<polygon fill="#000000" stroke="#000000" points="297.5085,-546.9269 294.3466,-536.8149 290.5125,-546.6917 297.5085,-546.9269"/>
</g>
<!-- 7 -->
<g id="node8" class="node">
<title>7</title>
<path fill="#399de5" stroke="#000000" d="M89,-417.5C89,-417.5 12,-417.5 12,-417.5 6,-417.5 0,-411.5 0,-405.5 0,-405.5 0,-361.5 0,-361.5 0,-355.5 6,-349.5 12,-349.5 12,-349.5 89,-349.5 89,-349.5 95,-349.5 101,-355.5 101,-361.5 101,-361.5 101,-405.5 101,-405.5 101,-411.5 95,-417.5 89,-417.5"/>
<text text-anchor="start" x="8" y="-402.3" font-family="Helvetica,sans-Serif" font-size="14.00" fill="#000000">entropy = 0.0</text>
<text text-anchor="start" x="11" y="-387.3" font-family="Helvetica,sans-Serif" font-size="14.00" fill="#000000">samples = 2</text>
<text text-anchor="start" x="9" y="-372.3" font-family="Helvetica,sans-Serif" font-size="14.00" fill="#000000">value = [0, 2]</text>
<text text-anchor="start" x="21.5" y="-357.3" font-family="Helvetica,sans-Serif" font-size="14.00" fill="#000000">class = 2</text>
</g>
<!-- 6&#45;&gt;7 -->
<g id="edge7" class="edge">
<title>6&#45;&gt;7</title>
<path fill="none" stroke="#000000" d="M129.1801,-460.8796C117.3283,-449.2237 104.4505,-436.5587 92.6109,-424.9148"/>
<polygon fill="#000000" stroke="#000000" points="94.9756,-422.3314 85.3917,-417.8149 90.0673,-427.3223 94.9756,-422.3314"/>
</g>
<!-- 8 -->
<g id="node9" class="node">
<title>8</title>
<path fill="#eeab7b" stroke="#000000" d="M225.5,-425C225.5,-425 131.5,-425 131.5,-425 125.5,-425 119.5,-419 119.5,-413 119.5,-413 119.5,-354 119.5,-354 119.5,-348 125.5,-342 131.5,-342 131.5,-342 225.5,-342 225.5,-342 231.5,-342 237.5,-348 237.5,-354 237.5,-354 237.5,-413 237.5,-413 237.5,-419 231.5,-425 225.5,-425"/>
<text text-anchor="start" x="130.5" y="-409.8" font-family="Helvetica,sans-Serif" font-size="14.00" fill="#000000">Resistin ≤ 9.12</text>
<text text-anchor="start" x="127.5" y="-394.8" font-family="Helvetica,sans-Serif" font-size="14.00" fill="#000000">entropy = 0.811</text>
<text text-anchor="start" x="139" y="-379.8" font-family="Helvetica,sans-Serif" font-size="14.00" fill="#000000">samples = 4</text>
<text text-anchor="start" x="137" y="-364.8" font-family="Helvetica,sans-Serif" font-size="14.00" fill="#000000">value = [3, 1]</text>
<text text-anchor="start" x="149.5" y="-349.8" font-family="Helvetica,sans-Serif" font-size="14.00" fill="#000000">class = 1</text>
</g>
<!-- 6&#45;&gt;8 -->
<g id="edge8" class="edge">
<title>6&#45;&gt;8</title>
<path fill="none" stroke="#000000" d="M173.9483,-460.8796C174.4304,-452.6838 174.9418,-443.9891 175.4411,-435.5013"/>
<polygon fill="#000000" stroke="#000000" points="178.9479,-435.4864 176.0413,-425.2981 171.96,-435.0753 178.9479,-435.4864"/>
</g>
<!-- 9 -->
<g id="node10" class="node">
<title>9</title>
<path fill="#399de5" stroke="#000000" d="M157,-298.5C157,-298.5 80,-298.5 80,-298.5 74,-298.5 68,-292.5 68,-286.5 68,-286.5 68,-242.5 68,-242.5 68,-236.5 74,-230.5 80,-230.5 80,-230.5 157,-230.5 157,-230.5 163,-230.5 169,-236.5 169,-242.5 169,-242.5 169,-286.5 169,-286.5 169,-292.5 163,-298.5 157,-298.5"/>
<text text-anchor="start" x="76" y="-283.3" font-family="Helvetica,sans-Serif" font-size="14.00" fill="#000000">entropy = 0.0</text>
<text text-anchor="start" x="79" y="-268.3" font-family="Helvetica,sans-Serif" font-size="14.00" fill="#000000">samples = 1</text>
<text text-anchor="start" x="77" y="-253.3" font-family="Helvetica,sans-Serif" font-size="14.00" fill="#000000">value = [0, 1]</text>
<text text-anchor="start" x="89.5" y="-238.3" font-family="Helvetica,sans-Serif" font-size="14.00" fill="#000000">class = 2</text>
</g>
<!-- 8&#45;&gt;9 -->
<g id="edge9" class="edge">
<title>8&#45;&gt;9</title>
<path fill="none" stroke="#000000" d="M157.5149,-341.8796C151.9707,-330.8835 145.9736,-318.9893 140.3831,-307.9015"/>
<polygon fill="#000000" stroke="#000000" points="143.4291,-306.1684 135.8016,-298.8149 137.1786,-309.3199 143.4291,-306.1684"/>
</g>
<!-- 10 -->
<g id="node11" class="node">
<title>10</title>
<path fill="#e58139" stroke="#000000" d="M276,-298.5C276,-298.5 199,-298.5 199,-298.5 193,-298.5 187,-292.5 187,-286.5 187,-286.5 187,-242.5 187,-242.5 187,-236.5 193,-230.5 199,-230.5 199,-230.5 276,-230.5 276,-230.5 282,-230.5 288,-236.5 288,-242.5 288,-242.5 288,-286.5 288,-286.5 288,-292.5 282,-298.5 276,-298.5"/>
<text text-anchor="start" x="195" y="-283.3" font-family="Helvetica,sans-Serif" font-size="14.00" fill="#000000">entropy = 0.0</text>
<text text-anchor="start" x="198" y="-268.3" font-family="Helvetica,sans-Serif" font-size="14.00" fill="#000000">samples = 3</text>
<text text-anchor="start" x="196" y="-253.3" font-family="Helvetica,sans-Serif" font-size="14.00" fill="#000000">value = [3, 0]</text>
<text text-anchor="start" x="208.5" y="-238.3" font-family="Helvetica,sans-Serif" font-size="14.00" fill="#000000">class = 1</text>
</g>
<!-- 8&#45;&gt;10 -->
<g id="edge10" class="edge">
<title>8&#45;&gt;10</title>
<path fill="none" stroke="#000000" d="M199.1353,-341.8796C204.5872,-330.8835 210.4843,-318.9893 215.9816,-307.9015"/>
<polygon fill="#000000" stroke="#000000" points="219.1804,-309.3289 220.4867,-298.8149 212.9089,-306.2195 219.1804,-309.3289"/>
</g>
<!-- 13 -->
<g id="node14" class="node">
<title>13</title>
<path fill="#7bbeee" stroke="#000000" d="M476.5,-544C476.5,-544 382.5,-544 382.5,-544 376.5,-544 370.5,-538 370.5,-532 370.5,-532 370.5,-473 370.5,-473 370.5,-467 376.5,-461 382.5,-461 382.5,-461 476.5,-461 476.5,-461 482.5,-461 488.5,-467 488.5,-473 488.5,-473 488.5,-532 488.5,-532 488.5,-538 482.5,-544 476.5,-544"/>
<text text-anchor="start" x="382" y="-528.8" font-family="Helvetica,sans-Serif" font-size="14.00" fill="#000000">HOMA ≤ 0.488</text>
<text text-anchor="start" x="378.5" y="-513.8" font-family="Helvetica,sans-Serif" font-size="14.00" fill="#000000">entropy = 0.811</text>
<text text-anchor="start" x="390" y="-498.8" font-family="Helvetica,sans-Serif" font-size="14.00" fill="#000000">samples = 4</text>
<text text-anchor="start" x="388" y="-483.8" font-family="Helvetica,sans-Serif" font-size="14.00" fill="#000000">value = [1, 3]</text>
<text text-anchor="start" x="400.5" y="-468.8" font-family="Helvetica,sans-Serif" font-size="14.00" fill="#000000">class = 2</text>
</g>
<!-- 12&#45;&gt;13 -->
<g id="edge13" class="edge">
<title>12&#45;&gt;13</title>
<path fill="none" stroke="#000000" d="M431.4507,-579.8796C431.2441,-571.6838 431.0249,-562.9891 430.811,-554.5013"/>
<polygon fill="#000000" stroke="#000000" points="434.3047,-554.2067 430.5537,-544.2981 427.307,-554.3831 434.3047,-554.2067"/>
</g>
<!-- 16 -->
<g id="node17" class="node">
<title>16</title>
<path fill="#e88f4f" stroke="#000000" d="M640,-544C640,-544 519,-544 519,-544 513,-544 507,-538 507,-532 507,-532 507,-473 507,-473 507,-467 513,-461 519,-461 519,-461 640,-461 640,-461 646,-461 652,-467 652,-473 652,-473 652,-532 652,-532 652,-538 646,-544 640,-544"/>
<text text-anchor="start" x="515" y="-528.8" font-family="Helvetica,sans-Serif" font-size="14.00" fill="#000000">Adiponectin ≤ 6.806</text>
<text text-anchor="start" x="528.5" y="-513.8" font-family="Helvetica,sans-Serif" font-size="14.00" fill="#000000">entropy = 0.469</text>
<text text-anchor="start" x="535.5" y="-498.8" font-family="Helvetica,sans-Serif" font-size="14.00" fill="#000000">samples = 20</text>
<text text-anchor="start" x="534" y="-483.8" font-family="Helvetica,sans-Serif" font-size="14.00" fill="#000000">value = [18, 2]</text>
<text text-anchor="start" x="550.5" y="-468.8" font-family="Helvetica,sans-Serif" font-size="14.00" fill="#000000">class = 1</text>
</g>
<!-- 12&#45;&gt;16 -->
<g id="edge16" class="edge">
<title>12&#45;&gt;16</title>
<path fill="none" stroke="#000000" d="M483.9135,-579.8796C495.5952,-570.4229 508.0975,-560.302 520.081,-550.6011"/>
<polygon fill="#000000" stroke="#000000" points="522.2968,-553.3105 527.8671,-544.2981 517.8924,-547.8697 522.2968,-553.3105"/>
</g>
<!-- 14 -->
<g id="node15" class="node">
<title>14</title>
<path fill="#e58139" stroke="#000000" d="M358,-417.5C358,-417.5 281,-417.5 281,-417.5 275,-417.5 269,-411.5 269,-405.5 269,-405.5 269,-361.5 269,-361.5 269,-355.5 275,-349.5 281,-349.5 281,-349.5 358,-349.5 358,-349.5 364,-349.5 370,-355.5 370,-361.5 370,-361.5 370,-405.5 370,-405.5 370,-411.5 364,-417.5 358,-417.5"/>
<text text-anchor="start" x="277" y="-402.3" font-family="Helvetica,sans-Serif" font-size="14.00" fill="#000000">entropy = 0.0</text>
<text text-anchor="start" x="280" y="-387.3" font-family="Helvetica,sans-Serif" font-size="14.00" fill="#000000">samples = 1</text>
<text text-anchor="start" x="278" y="-372.3" font-family="Helvetica,sans-Serif" font-size="14.00" fill="#000000">value = [1, 0]</text>
<text text-anchor="start" x="290.5" y="-357.3" font-family="Helvetica,sans-Serif" font-size="14.00" fill="#000000">class = 1</text>
</g>
<!-- 13&#45;&gt;14 -->
<g id="edge14" class="edge">
<title>13&#45;&gt;14</title>
<path fill="none" stroke="#000000" d="M391.0273,-460.8796C380.3547,-449.3337 368.7667,-436.7976 358.0875,-425.2446"/>
<polygon fill="#000000" stroke="#000000" points="360.5778,-422.7825 351.2197,-417.8149 355.4375,-427.534 360.5778,-422.7825"/>
</g>
<!-- 15 -->
<g id="node16" class="node">
<title>15</title>
<path fill="#399de5" stroke="#000000" d="M477,-417.5C477,-417.5 400,-417.5 400,-417.5 394,-417.5 388,-411.5 388,-405.5 388,-405.5 388,-361.5 388,-361.5 388,-355.5 394,-349.5 400,-349.5 400,-349.5 477,-349.5 477,-349.5 483,-349.5 489,-355.5 489,-361.5 489,-361.5 489,-405.5 489,-405.5 489,-411.5 483,-417.5 477,-417.5"/>
<text text-anchor="start" x="396" y="-402.3" font-family="Helvetica,sans-Serif" font-size="14.00" fill="#000000">entropy = 0.0</text>
<text text-anchor="start" x="399" y="-387.3" font-family="Helvetica,sans-Serif" font-size="14.00" fill="#000000">samples = 3</text>
<text text-anchor="start" x="397" y="-372.3" font-family="Helvetica,sans-Serif" font-size="14.00" fill="#000000">value = [0, 3]</text>
<text text-anchor="start" x="409.5" y="-357.3" font-family="Helvetica,sans-Serif" font-size="14.00" fill="#000000">class = 2</text>
</g>
<!-- 13&#45;&gt;15 -->
<g id="edge15" class="edge">
<title>13&#45;&gt;15</title>
<path fill="none" stroke="#000000" d="M432.6478,-460.8796C433.4545,-450.2134 434.3251,-438.7021 435.1419,-427.9015"/>
<polygon fill="#000000" stroke="#000000" points="438.6405,-428.0504 435.9048,-417.8149 431.6605,-427.5225 438.6405,-428.0504"/>
</g>
<!-- 17 -->
<g id="node18" class="node">
<title>17</title>
<path fill="#eca572" stroke="#000000" d="M620.5,-425C620.5,-425 526.5,-425 526.5,-425 520.5,-425 514.5,-419 514.5,-413 514.5,-413 514.5,-354 514.5,-354 514.5,-348 520.5,-342 526.5,-342 526.5,-342 620.5,-342 620.5,-342 626.5,-342 632.5,-348 632.5,-354 632.5,-354 632.5,-413 632.5,-413 632.5,-419 626.5,-425 620.5,-425"/>
<text text-anchor="start" x="524.5" y="-409.8" font-family="Helvetica,sans-Serif" font-size="14.00" fill="#000000">Glucose ≤ 85.0</text>
<text text-anchor="start" x="522.5" y="-394.8" font-family="Helvetica,sans-Serif" font-size="14.00" fill="#000000">entropy = 0.764</text>
<text text-anchor="start" x="534" y="-379.8" font-family="Helvetica,sans-Serif" font-size="14.00" fill="#000000">samples = 9</text>
<text text-anchor="start" x="532" y="-364.8" font-family="Helvetica,sans-Serif" font-size="14.00" fill="#000000">value = [7, 2]</text>
<text text-anchor="start" x="544.5" y="-349.8" font-family="Helvetica,sans-Serif" font-size="14.00" fill="#000000">class = 1</text>
</g>
<!-- 16&#45;&gt;17 -->
<g id="edge17" class="edge">
<title>16&#45;&gt;17</title>
<path fill="none" stroke="#000000" d="M577.4015,-460.8796C576.9883,-452.6838 576.5499,-443.9891 576.1219,-435.5013"/>
<polygon fill="#000000" stroke="#000000" points="579.6067,-435.1091 575.6075,-425.2981 572.6156,-435.4617 579.6067,-435.1091"/>
</g>
<!-- 24 -->
<g id="node25" class="node">
<title>24</title>
<path fill="#e58139" stroke="#000000" d="M746,-417.5C746,-417.5 663,-417.5 663,-417.5 657,-417.5 651,-411.5 651,-405.5 651,-405.5 651,-361.5 651,-361.5 651,-355.5 657,-349.5 663,-349.5 663,-349.5 746,-349.5 746,-349.5 752,-349.5 758,-355.5 758,-361.5 758,-361.5 758,-405.5 758,-405.5 758,-411.5 752,-417.5 746,-417.5"/>
<text text-anchor="start" x="662" y="-402.3" font-family="Helvetica,sans-Serif" font-size="14.00" fill="#000000">entropy = 0.0</text>
<text text-anchor="start" x="660.5" y="-387.3" font-family="Helvetica,sans-Serif" font-size="14.00" fill="#000000">samples = 11</text>
<text text-anchor="start" x="659" y="-372.3" font-family="Helvetica,sans-Serif" font-size="14.00" fill="#000000">value = [11, 0]</text>
<text text-anchor="start" x="675.5" y="-357.3" font-family="Helvetica,sans-Serif" font-size="14.00" fill="#000000">class = 1</text>
</g>
<!-- 16&#45;&gt;24 -->
<g id="edge24" class="edge">
<title>16&#45;&gt;24</title>
<path fill="none" stroke="#000000" d="M623.2189,-460.8796C635.4625,-449.2237 648.7661,-436.5587 660.9971,-424.9148"/>
<polygon fill="#000000" stroke="#000000" points="663.6254,-427.245 668.4549,-417.8149 658.7988,-422.1751 663.6254,-427.245"/>
</g>
<!-- 18 -->
<g id="node19" class="node">
<title>18</title>
<path fill="#e58139" stroke="#000000" d="M547,-298.5C547,-298.5 470,-298.5 470,-298.5 464,-298.5 458,-292.5 458,-286.5 458,-286.5 458,-242.5 458,-242.5 458,-236.5 464,-230.5 470,-230.5 470,-230.5 547,-230.5 547,-230.5 553,-230.5 559,-236.5 559,-242.5 559,-242.5 559,-286.5 559,-286.5 559,-292.5 553,-298.5 547,-298.5"/>
<text text-anchor="start" x="466" y="-283.3" font-family="Helvetica,sans-Serif" font-size="14.00" fill="#000000">entropy = 0.0</text>
<text text-anchor="start" x="469" y="-268.3" font-family="Helvetica,sans-Serif" font-size="14.00" fill="#000000">samples = 5</text>
<text text-anchor="start" x="467" y="-253.3" font-family="Helvetica,sans-Serif" font-size="14.00" fill="#000000">value = [5, 0]</text>
<text text-anchor="start" x="479.5" y="-238.3" font-family="Helvetica,sans-Serif" font-size="14.00" fill="#000000">class = 1</text>
</g>
<!-- 17&#45;&gt;18 -->
<g id="edge18" class="edge">
<title>17&#45;&gt;18</title>
<path fill="none" stroke="#000000" d="M550.7662,-341.8796C544.7599,-330.8835 538.263,-318.9893 532.2067,-307.9015"/>
<polygon fill="#000000" stroke="#000000" points="535.1088,-305.9133 527.2435,-298.8149 528.9655,-309.2689 535.1088,-305.9133"/>
</g>
<!-- 19 -->
<g id="node20" class="node">
<title>19</title>
<path fill="#ffffff" stroke="#000000" d="M685.5,-306C685.5,-306 589.5,-306 589.5,-306 583.5,-306 577.5,-300 577.5,-294 577.5,-294 577.5,-235 577.5,-235 577.5,-229 583.5,-223 589.5,-223 589.5,-223 685.5,-223 685.5,-223 691.5,-223 697.5,-229 697.5,-235 697.5,-235 697.5,-294 697.5,-294 697.5,-300 691.5,-306 685.5,-306"/>
<text text-anchor="start" x="585.5" y="-290.8" font-family="Helvetica,sans-Serif" font-size="14.00" fill="#000000">Resistin ≤ 10.46</text>
<text text-anchor="start" x="595" y="-275.8" font-family="Helvetica,sans-Serif" font-size="14.00" fill="#000000">entropy = 1.0</text>
<text text-anchor="start" x="598" y="-260.8" font-family="Helvetica,sans-Serif" font-size="14.00" fill="#000000">samples = 4</text>
<text text-anchor="start" x="596" y="-245.8" font-family="Helvetica,sans-Serif" font-size="14.00" fill="#000000">value = [2, 2]</text>
<text text-anchor="start" x="608.5" y="-230.8" font-family="Helvetica,sans-Serif" font-size="14.00" fill="#000000">class = 1</text>
</g>
<!-- 17&#45;&gt;19 -->
<g id="edge19" class="edge">
<title>17&#45;&gt;19</title>
<path fill="none" stroke="#000000" d="M595.8841,-341.8796C600.4856,-333.3236 605.3796,-324.2238 610.1342,-315.3833"/>
<polygon fill="#000000" stroke="#000000" points="613.3662,-316.763 615.0204,-306.2981 607.2012,-313.4473 613.3662,-316.763"/>
</g>
<!-- 20 -->
<g id="node21" class="node">
<title>20</title>
<path fill="#399de5" stroke="#000000" d="M606,-179.5C606,-179.5 529,-179.5 529,-179.5 523,-179.5 517,-173.5 517,-167.5 517,-167.5 517,-123.5 517,-123.5 517,-117.5 523,-111.5 529,-111.5 529,-111.5 606,-111.5 606,-111.5 612,-111.5 618,-117.5 618,-123.5 618,-123.5 618,-167.5 618,-167.5 618,-173.5 612,-179.5 606,-179.5"/>
<text text-anchor="start" x="525" y="-164.3" font-family="Helvetica,sans-Serif" font-size="14.00" fill="#000000">entropy = 0.0</text>
<text text-anchor="start" x="528" y="-149.3" font-family="Helvetica,sans-Serif" font-size="14.00" fill="#000000">samples = 1</text>
<text text-anchor="start" x="526" y="-134.3" font-family="Helvetica,sans-Serif" font-size="14.00" fill="#000000">value = [0, 1]</text>
<text text-anchor="start" x="538.5" y="-119.3" font-family="Helvetica,sans-Serif" font-size="14.00" fill="#000000">class = 2</text>
</g>
<!-- 19&#45;&gt;20 -->
<g id="edge20" class="edge">
<title>19&#45;&gt;20</title>
<path fill="none" stroke="#000000" d="M613.0174,-222.8796C606.4844,-211.7735 599.4125,-199.7513 592.8348,-188.5691"/>
<polygon fill="#000000" stroke="#000000" points="595.7723,-186.6597 587.6853,-179.8149 589.7387,-190.2089 595.7723,-186.6597"/>
</g>
<!-- 21 -->
<g id="node22" class="node">
<title>21</title>
<path fill="#f2c09c" stroke="#000000" d="M769,-187C769,-187 648,-187 648,-187 642,-187 636,-181 636,-175 636,-175 636,-116 636,-116 636,-110 642,-104 648,-104 648,-104 769,-104 769,-104 775,-104 781,-110 781,-116 781,-116 781,-175 781,-175 781,-181 775,-187 769,-187"/>
<text text-anchor="start" x="644" y="-171.8" font-family="Helvetica,sans-Serif" font-size="14.00" fill="#000000">Adiponectin ≤ 5.872</text>
<text text-anchor="start" x="657.5" y="-156.8" font-family="Helvetica,sans-Serif" font-size="14.00" fill="#000000">entropy = 0.918</text>
<text text-anchor="start" x="669" y="-141.8" font-family="Helvetica,sans-Serif" font-size="14.00" fill="#000000">samples = 3</text>
<text text-anchor="start" x="667" y="-126.8" font-family="Helvetica,sans-Serif" font-size="14.00" fill="#000000">value = [2, 1]</text>
<text text-anchor="start" x="679.5" y="-111.8" font-family="Helvetica,sans-Serif" font-size="14.00" fill="#000000">class = 1</text>
</g>
<!-- 19&#45;&gt;21 -->
<g id="edge21" class="edge">
<title>19&#45;&gt;21</title>
<path fill="none" stroke="#000000" d="M662.3324,-222.8796C667.4909,-214.2335 672.9808,-205.0322 678.3076,-196.1042"/>
<polygon fill="#000000" stroke="#000000" points="681.4436,-197.679 683.5617,-187.2981 675.4322,-194.0924 681.4436,-197.679"/>
</g>
<!-- 22 -->
<g id="node23" class="node">
<title>22</title>
<path fill="#e58139" stroke="#000000" d="M688,-68C688,-68 611,-68 611,-68 605,-68 599,-62 599,-56 599,-56 599,-12 599,-12 599,-6 605,0 611,0 611,0 688,0 688,0 694,0 700,-6 700,-12 700,-12 700,-56 700,-56 700,-62 694,-68 688,-68"/>
<text text-anchor="start" x="607" y="-52.8" font-family="Helvetica,sans-Serif" font-size="14.00" fill="#000000">entropy = 0.0</text>
<text text-anchor="start" x="610" y="-37.8" font-family="Helvetica,sans-Serif" font-size="14.00" fill="#000000">samples = 2</text>
<text text-anchor="start" x="608" y="-22.8" font-family="Helvetica,sans-Serif" font-size="14.00" fill="#000000">value = [2, 0]</text>
<text text-anchor="start" x="620.5" y="-7.8" font-family="Helvetica,sans-Serif" font-size="14.00" fill="#000000">class = 1</text>
</g>
<!-- 21&#45;&gt;22 -->
<g id="edge22" class="edge">
<title>21&#45;&gt;22</title>
<path fill="none" stroke="#000000" d="M686.5306,-103.9815C681.9105,-95.2504 677.0264,-86.0202 672.374,-77.2281"/>
<polygon fill="#000000" stroke="#000000" points="675.4013,-75.4655 667.6306,-68.2637 669.2141,-78.7395 675.4013,-75.4655"/>
</g>
<!-- 23 -->
<g id="node24" class="node">
<title>23</title>
<path fill="#399de5" stroke="#000000" d="M807,-68C807,-68 730,-68 730,-68 724,-68 718,-62 718,-56 718,-56 718,-12 718,-12 718,-6 724,0 730,0 730,0 807,0 807,0 813,0 819,-6 819,-12 819,-12 819,-56 819,-56 819,-62 813,-68 807,-68"/>
<text text-anchor="start" x="726" y="-52.8" font-family="Helvetica,sans-Serif" font-size="14.00" fill="#000000">entropy = 0.0</text>
<text text-anchor="start" x="729" y="-37.8" font-family="Helvetica,sans-Serif" font-size="14.00" fill="#000000">samples = 1</text>
<text text-anchor="start" x="727" y="-22.8" font-family="Helvetica,sans-Serif" font-size="14.00" fill="#000000">value = [0, 1]</text>
<text text-anchor="start" x="739.5" y="-7.8" font-family="Helvetica,sans-Serif" font-size="14.00" fill="#000000">class = 2</text>
</g>
<!-- 21&#45;&gt;23 -->
<g id="edge23" class="edge">
<title>21&#45;&gt;23</title>
<path fill="none" stroke="#000000" d="M730.8418,-103.9815C735.5402,-95.2504 740.5071,-86.0202 745.2383,-77.2281"/>
<polygon fill="#000000" stroke="#000000" points="748.4056,-78.7282 750.0621,-68.2637 742.2414,-75.4111 748.4056,-78.7282"/>
</g>
<!-- 27 -->
<g id="node28" class="node">
<title>27</title>
<path fill="#e58139" stroke="#000000" d="M733,-893.5C733,-893.5 656,-893.5 656,-893.5 650,-893.5 644,-887.5 644,-881.5 644,-881.5 644,-837.5 644,-837.5 644,-831.5 650,-825.5 656,-825.5 656,-825.5 733,-825.5 733,-825.5 739,-825.5 745,-831.5 745,-837.5 745,-837.5 745,-881.5 745,-881.5 745,-887.5 739,-893.5 733,-893.5"/>
<text text-anchor="start" x="652" y="-878.3" font-family="Helvetica,sans-Serif" font-size="14.00" fill="#000000">entropy = 0.0</text>
<text text-anchor="start" x="655" y="-863.3" font-family="Helvetica,sans-Serif" font-size="14.00" fill="#000000">samples = 2</text>
<text text-anchor="start" x="653" y="-848.3" font-family="Helvetica,sans-Serif" font-size="14.00" fill="#000000">value = [2, 0]</text>
<text text-anchor="start" x="665.5" y="-833.3" font-family="Helvetica,sans-Serif" font-size="14.00" fill="#000000">class = 1</text>
</g>
<!-- 26&#45;&gt;27 -->
<g id="edge27" class="edge">
<title>26&#45;&gt;27</title>
<path fill="none" stroke="#000000" d="M694.5,-936.8796C694.5,-926.2134 694.5,-914.7021 694.5,-903.9015"/>
<polygon fill="#000000" stroke="#000000" points="698.0001,-903.8149 694.5,-893.8149 691.0001,-903.815 698.0001,-903.8149"/>
</g>
<!-- 28 -->
<g id="node29" class="node">
<title>28</title>
<path fill="#57ace9" stroke="#000000" d="M896,-901C896,-901 775,-901 775,-901 769,-901 763,-895 763,-889 763,-889 763,-830 763,-830 763,-824 769,-818 775,-818 775,-818 896,-818 896,-818 902,-818 908,-824 908,-830 908,-830 908,-889 908,-889 908,-895 902,-901 896,-901"/>
<text text-anchor="start" x="771" y="-885.8" font-family="Helvetica,sans-Serif" font-size="14.00" fill="#000000">Adiponectin ≤ 7.721</text>
<text text-anchor="start" x="784.5" y="-870.8" font-family="Helvetica,sans-Serif" font-size="14.00" fill="#000000">entropy = 0.567</text>
<text text-anchor="start" x="791.5" y="-855.8" font-family="Helvetica,sans-Serif" font-size="14.00" fill="#000000">samples = 30</text>
<text text-anchor="start" x="790" y="-840.8" font-family="Helvetica,sans-Serif" font-size="14.00" fill="#000000">value = [4, 26]</text>
<text text-anchor="start" x="806.5" y="-825.8" font-family="Helvetica,sans-Serif" font-size="14.00" fill="#000000">class = 2</text>
</g>
<!-- 26&#45;&gt;28 -->
<g id="edge28" class="edge">
<title>26&#45;&gt;28</title>
<path fill="none" stroke="#000000" d="M743.815,-936.8796C754.9132,-927.513 766.7835,-917.4948 778.1777,-907.8784"/>
<polygon fill="#000000" stroke="#000000" points="780.5899,-910.4225 785.9746,-901.2981 776.075,-905.0731 780.5899,-910.4225"/>
</g>
<!-- 29 -->
<g id="node30" class="node">
<title>29</title>
<path fill="#91c9f1" stroke="#000000" d="M881.5,-782C881.5,-782 789.5,-782 789.5,-782 783.5,-782 777.5,-776 777.5,-770 777.5,-770 777.5,-711 777.5,-711 777.5,-705 783.5,-699 789.5,-699 789.5,-699 881.5,-699 881.5,-699 887.5,-699 893.5,-705 893.5,-711 893.5,-711 893.5,-770 893.5,-770 893.5,-776 887.5,-782 881.5,-782"/>
<text text-anchor="start" x="785.5" y="-766.8" font-family="Helvetica,sans-Serif" font-size="14.00" fill="#000000">Leptin ≤ 64.103</text>
<text text-anchor="start" x="788.5" y="-751.8" font-family="Helvetica,sans-Serif" font-size="14.00" fill="#000000">entropy = 0.89</text>
<text text-anchor="start" x="791.5" y="-736.8" font-family="Helvetica,sans-Serif" font-size="14.00" fill="#000000">samples = 13</text>
<text text-anchor="start" x="794" y="-721.8" font-family="Helvetica,sans-Serif" font-size="14.00" fill="#000000">value = [4, 9]</text>
<text text-anchor="start" x="806.5" y="-706.8" font-family="Helvetica,sans-Serif" font-size="14.00" fill="#000000">class = 2</text>
</g>
<!-- 28&#45;&gt;29 -->
<g id="edge29" class="edge">
<title>28&#45;&gt;29</title>
<path fill="none" stroke="#000000" d="M835.5,-817.8796C835.5,-809.6838 835.5,-800.9891 835.5,-792.5013"/>
<polygon fill="#000000" stroke="#000000" points="839.0001,-792.298 835.5,-782.2981 832.0001,-792.2981 839.0001,-792.298"/>
</g>
<!-- 36 -->
<g id="node37" class="node">
<title>36</title>
<path fill="#399de5" stroke="#000000" d="M1007,-774.5C1007,-774.5 924,-774.5 924,-774.5 918,-774.5 912,-768.5 912,-762.5 912,-762.5 912,-718.5 912,-718.5 912,-712.5 918,-706.5 924,-706.5 924,-706.5 1007,-706.5 1007,-706.5 1013,-706.5 1019,-712.5 1019,-718.5 1019,-718.5 1019,-762.5 1019,-762.5 1019,-768.5 1013,-774.5 1007,-774.5"/>
<text text-anchor="start" x="923" y="-759.3" font-family="Helvetica,sans-Serif" font-size="14.00" fill="#000000">entropy = 0.0</text>
<text text-anchor="start" x="921.5" y="-744.3" font-family="Helvetica,sans-Serif" font-size="14.00" fill="#000000">samples = 17</text>
<text text-anchor="start" x="920" y="-729.3" font-family="Helvetica,sans-Serif" font-size="14.00" fill="#000000">value = [0, 17]</text>
<text text-anchor="start" x="936.5" y="-714.3" font-family="Helvetica,sans-Serif" font-size="14.00" fill="#000000">class = 2</text>
</g>
<!-- 28&#45;&gt;36 -->
<g id="edge36" class="edge">
<title>28&#45;&gt;36</title>
<path fill="none" stroke="#000000" d="M880.9677,-817.8796C893.8211,-806.1138 907.7979,-793.3197 920.6166,-781.5855"/>
<polygon fill="#000000" stroke="#000000" points="923.0001,-784.1488 928.0131,-774.8149 918.2736,-778.9854 923.0001,-784.1488"/>
</g>
<!-- 30 -->
<g id="node31" class="node">
<title>30</title>
<path fill="#65b3eb" stroke="#000000" d="M882.5,-663C882.5,-663 778.5,-663 778.5,-663 772.5,-663 766.5,-657 766.5,-651 766.5,-651 766.5,-592 766.5,-592 766.5,-586 772.5,-580 778.5,-580 778.5,-580 882.5,-580 882.5,-580 888.5,-580 894.5,-586 894.5,-592 894.5,-592 894.5,-651 894.5,-651 894.5,-657 888.5,-663 882.5,-663"/>
<text text-anchor="start" x="774.5" y="-647.8" font-family="Helvetica,sans-Serif" font-size="14.00" fill="#000000">Resistin ≤ 13.741</text>
<text text-anchor="start" x="779.5" y="-632.8" font-family="Helvetica,sans-Serif" font-size="14.00" fill="#000000">entropy = 0.684</text>
<text text-anchor="start" x="786.5" y="-617.8" font-family="Helvetica,sans-Serif" font-size="14.00" fill="#000000">samples = 11</text>
<text text-anchor="start" x="789" y="-602.8" font-family="Helvetica,sans-Serif" font-size="14.00" fill="#000000">value = [2, 9]</text>
<text text-anchor="start" x="801.5" y="-587.8" font-family="Helvetica,sans-Serif" font-size="14.00" fill="#000000">class = 2</text>
</g>
<!-- 29&#45;&gt;30 -->
<g id="edge30" class="edge">
<title>29&#45;&gt;30</title>
<path fill="none" stroke="#000000" d="M833.7512,-698.8796C833.4069,-690.6838 833.0416,-681.9891 832.6849,-673.5013"/>
<polygon fill="#000000" stroke="#000000" points="836.173,-673.1423 832.2562,-663.2981 829.1792,-673.4362 836.173,-673.1423"/>
</g>
<!-- 35 -->
<g id="node36" class="node">
<title>35</title>
<path fill="#e58139" stroke="#000000" d="M1002,-655.5C1002,-655.5 925,-655.5 925,-655.5 919,-655.5 913,-649.5 913,-643.5 913,-643.5 913,-599.5 913,-599.5 913,-593.5 919,-587.5 925,-587.5 925,-587.5 1002,-587.5 1002,-587.5 1008,-587.5 1014,-593.5 1014,-599.5 1014,-599.5 1014,-643.5 1014,-643.5 1014,-649.5 1008,-655.5 1002,-655.5"/>
<text text-anchor="start" x="921" y="-640.3" font-family="Helvetica,sans-Serif" font-size="14.00" fill="#000000">entropy = 0.0</text>
<text text-anchor="start" x="924" y="-625.3" font-family="Helvetica,sans-Serif" font-size="14.00" fill="#000000">samples = 2</text>
<text text-anchor="start" x="922" y="-610.3" font-family="Helvetica,sans-Serif" font-size="14.00" fill="#000000">value = [2, 0]</text>
<text text-anchor="start" x="934.5" y="-595.3" font-family="Helvetica,sans-Serif" font-size="14.00" fill="#000000">class = 1</text>
</g>
<!-- 29&#45;&gt;35 -->
<g id="edge35" class="edge">
<title>29&#45;&gt;35</title>
<path fill="none" stroke="#000000" d="M880.2682,-698.8796C892.8056,-687.2237 906.4284,-674.5587 918.953,-662.9148"/>
<polygon fill="#000000" stroke="#000000" points="921.6491,-665.1872 926.5898,-655.8149 916.8828,-660.0605 921.6491,-665.1872"/>
</g>
<!-- 31 -->
<g id="node32" class="node">
<title>31</title>
<path fill="#ffffff" stroke="#000000" d="M889,-544C889,-544 768,-544 768,-544 762,-544 756,-538 756,-532 756,-532 756,-473 756,-473 756,-467 762,-461 768,-461 768,-461 889,-461 889,-461 895,-461 901,-467 901,-473 901,-473 901,-532 901,-532 901,-538 895,-544 889,-544"/>
<text text-anchor="start" x="764" y="-528.8" font-family="Helvetica,sans-Serif" font-size="14.00" fill="#000000">Adiponectin ≤ 4.449</text>
<text text-anchor="start" x="786" y="-513.8" font-family="Helvetica,sans-Serif" font-size="14.00" fill="#000000">entropy = 1.0</text>
<text text-anchor="start" x="789" y="-498.8" font-family="Helvetica,sans-Serif" font-size="14.00" fill="#000000">samples = 4</text>
<text text-anchor="start" x="787" y="-483.8" font-family="Helvetica,sans-Serif" font-size="14.00" fill="#000000">value = [2, 2]</text>
<text text-anchor="start" x="799.5" y="-468.8" font-family="Helvetica,sans-Serif" font-size="14.00" fill="#000000">class = 1</text>
</g>
<!-- 30&#45;&gt;31 -->
<g id="edge31" class="edge">
<title>30&#45;&gt;31</title>
<path fill="none" stroke="#000000" d="M829.8005,-579.8796C829.6628,-571.6838 829.5166,-562.9891 829.374,-554.5013"/>
<polygon fill="#000000" stroke="#000000" points="832.8701,-554.2378 829.2025,-544.2981 825.8711,-554.3555 832.8701,-554.2378"/>
</g>
<!-- 34 -->
<g id="node35" class="node">
<title>34</title>
<path fill="#399de5" stroke="#000000" d="M1008,-536.5C1008,-536.5 931,-536.5 931,-536.5 925,-536.5 919,-530.5 919,-524.5 919,-524.5 919,-480.5 919,-480.5 919,-474.5 925,-468.5 931,-468.5 931,-468.5 1008,-468.5 1008,-468.5 1014,-468.5 1020,-474.5 1020,-480.5 1020,-480.5 1020,-524.5 1020,-524.5 1020,-530.5 1014,-536.5 1008,-536.5"/>
<text text-anchor="start" x="927" y="-521.3" font-family="Helvetica,sans-Serif" font-size="14.00" fill="#000000">entropy = 0.0</text>
<text text-anchor="start" x="930" y="-506.3" font-family="Helvetica,sans-Serif" font-size="14.00" fill="#000000">samples = 7</text>
<text text-anchor="start" x="928" y="-491.3" font-family="Helvetica,sans-Serif" font-size="14.00" fill="#000000">value = [0, 7]</text>
<text text-anchor="start" x="940.5" y="-476.3" font-family="Helvetica,sans-Serif" font-size="14.00" fill="#000000">class = 2</text>
</g>
<!-- 30&#45;&gt;34 -->
<g id="edge34" class="edge">
<title>30&#45;&gt;34</title>
<path fill="none" stroke="#000000" d="M879.1155,-579.8796C892.8587,-568.1138 907.8031,-555.3197 921.5093,-543.5855"/>
<polygon fill="#000000" stroke="#000000" points="924.0976,-545.9771 929.4178,-536.8149 919.5452,-540.6596 924.0976,-545.9771"/>
</g>
<!-- 32 -->
<g id="node33" class="node">
<title>32</title>
<path fill="#399de5" stroke="#000000" d="M866,-417.5C866,-417.5 789,-417.5 789,-417.5 783,-417.5 777,-411.5 777,-405.5 777,-405.5 777,-361.5 777,-361.5 777,-355.5 783,-349.5 789,-349.5 789,-349.5 866,-349.5 866,-349.5 872,-349.5 878,-355.5 878,-361.5 878,-361.5 878,-405.5 878,-405.5 878,-411.5 872,-417.5 866,-417.5"/>
<text text-anchor="start" x="785" y="-402.3" font-family="Helvetica,sans-Serif" font-size="14.00" fill="#000000">entropy = 0.0</text>
<text text-anchor="start" x="788" y="-387.3" font-family="Helvetica,sans-Serif" font-size="14.00" fill="#000000">samples = 2</text>
<text text-anchor="start" x="786" y="-372.3" font-family="Helvetica,sans-Serif" font-size="14.00" fill="#000000">value = [0, 2]</text>
<text text-anchor="start" x="798.5" y="-357.3" font-family="Helvetica,sans-Serif" font-size="14.00" fill="#000000">class = 2</text>
</g>
<!-- 31&#45;&gt;32 -->
<g id="edge32" class="edge">
<title>31&#45;&gt;32</title>
<path fill="none" stroke="#000000" d="M828.1502,-460.8796C828.0606,-450.2134 827.9639,-438.7021 827.8731,-427.9015"/>
<polygon fill="#000000" stroke="#000000" points="831.3724,-427.7851 827.7884,-417.8149 824.3726,-427.844 831.3724,-427.7851"/>
</g>
<!-- 33 -->
<g id="node34" class="node">
<title>33</title>
<path fill="#e58139" stroke="#000000" d="M985,-417.5C985,-417.5 908,-417.5 908,-417.5 902,-417.5 896,-411.5 896,-405.5 896,-405.5 896,-361.5 896,-361.5 896,-355.5 902,-349.5 908,-349.5 908,-349.5 985,-349.5 985,-349.5 991,-349.5 997,-355.5 997,-361.5 997,-361.5 997,-405.5 997,-405.5 997,-411.5 991,-417.5 985,-417.5"/>
<text text-anchor="start" x="904" y="-402.3" font-family="Helvetica,sans-Serif" font-size="14.00" fill="#000000">entropy = 0.0</text>
<text text-anchor="start" x="907" y="-387.3" font-family="Helvetica,sans-Serif" font-size="14.00" fill="#000000">samples = 2</text>
<text text-anchor="start" x="905" y="-372.3" font-family="Helvetica,sans-Serif" font-size="14.00" fill="#000000">value = [2, 0]</text>
<text text-anchor="start" x="917.5" y="-357.3" font-family="Helvetica,sans-Serif" font-size="14.00" fill="#000000">class = 1</text>
</g>
<!-- 31&#45;&gt;33 -->
<g id="edge33" class="edge">
<title>31&#45;&gt;33</title>
<path fill="none" stroke="#000000" d="M869.7707,-460.8796C881.2195,-449.3337 893.6503,-436.7976 905.1062,-425.2446"/>
<polygon fill="#000000" stroke="#000000" points="907.9175,-427.3802 912.4734,-417.8149 902.9469,-422.4514 907.9175,-427.3802"/>
</g>
</g>
</svg>
