<?xml version="1.0" encoding="UTF-8" standalone="no"?>
<!DOCTYPE svg PUBLIC "-//W3C//DTD SVG 1.1//EN"
 "http://www.w3.org/Graphics/SVG/1.1/DTD/svg11.dtd">
<!-- Generated by graphviz version 2.40.1 (20161225.0304)
 -->
<!-- Title: Tree Pages: 1 -->
<svg width="1102pt" height="909pt"
 viewBox="0.00 0.00 1102.00 909.00" xmlns="http://www.w3.org/2000/svg" xmlns:xlink="http://www.w3.org/1999/xlink">
<g id="graph0" class="graph" transform="scale(1 1) rotate(0) translate(4 905)">
<title>Tree</title>
<polygon fill="#ffffff" stroke="transparent" points="-4,4 -4,-905 1098,-905 1098,4 -4,4"/>
<!-- 0 -->
<g id="node1" class="node">
<title>0</title>
<path fill="#fafdfe" stroke="#000000" d="M657.5,-901C657.5,-901 565.5,-901 565.5,-901 559.5,-901 553.5,-895 553.5,-889 553.5,-889 553.5,-830 553.5,-830 553.5,-824 559.5,-818 565.5,-818 565.5,-818 657.5,-818 657.5,-818 663.5,-818 669.5,-824 669.5,-830 669.5,-830 669.5,-889 669.5,-889 669.5,-895 663.5,-901 657.5,-901"/>
<text text-anchor="start" x="562.5" y="-885.8" font-family="Helvetica,sans-Serif" font-size="14.00" fill="#000000">Glucose ≤ 96.5</text>
<text text-anchor="start" x="582" y="-870.8" font-family="Helvetica,sans-Serif" font-size="14.00" fill="#000000">gini = 0.5</text>
<text text-anchor="start" x="567.5" y="-855.8" font-family="Helvetica,sans-Serif" font-size="14.00" fill="#000000">samples = 81</text>
<text text-anchor="start" x="561.5" y="-840.8" font-family="Helvetica,sans-Serif" font-size="14.00" fill="#000000">value = [40, 41]</text>
<text text-anchor="start" x="582.5" y="-825.8" font-family="Helvetica,sans-Serif" font-size="14.00" fill="#000000">class = 2</text>
</g>
<!-- 1 -->
<g id="node2" class="node">
<title>1</title>
<path fill="#f0b990" stroke="#000000" d="M595.5,-782C595.5,-782 491.5,-782 491.5,-782 485.5,-782 479.5,-776 479.5,-770 479.5,-770 479.5,-711 479.5,-711 479.5,-705 485.5,-699 491.5,-699 491.5,-699 595.5,-699 595.5,-699 601.5,-699 607.5,-705 607.5,-711 607.5,-711 607.5,-770 607.5,-770 607.5,-776 601.5,-782 595.5,-782"/>
<text text-anchor="start" x="487.5" y="-766.8" font-family="Helvetica,sans-Serif" font-size="14.00" fill="#000000">Resistin ≤ 13.248</text>
<text text-anchor="start" x="505.5" y="-751.8" font-family="Helvetica,sans-Serif" font-size="14.00" fill="#000000">gini = 0.425</text>
<text text-anchor="start" x="499.5" y="-736.8" font-family="Helvetica,sans-Serif" font-size="14.00" fill="#000000">samples = 49</text>
<text text-anchor="start" x="493.5" y="-721.8" font-family="Helvetica,sans-Serif" font-size="14.00" fill="#000000">value = [34, 15]</text>
<text text-anchor="start" x="514.5" y="-706.8" font-family="Helvetica,sans-Serif" font-size="14.00" fill="#000000">class = 1</text>
</g>
<!-- 0&#45;&gt;1 -->
<g id="edge1" class="edge">
<title>0&#45;&gt;1</title>
<path fill="none" stroke="#000000" d="M587.7169,-817.8796C582.7763,-809.2335 577.5184,-800.0322 572.4167,-791.1042"/>
<polygon fill="#000000" stroke="#000000" points="575.3849,-789.244 567.3846,-782.2981 569.3072,-792.717 575.3849,-789.244"/>
<text text-anchor="middle" x="560.8067" y="-802.7172" font-family="Helvetica,sans-Serif" font-size="14.00" fill="#000000">True</text>
</g>
<!-- 18 -->
<g id="node19" class="node">
<title>18</title>
<path fill="#67b4eb" stroke="#000000" d="M721.5,-782C721.5,-782 637.5,-782 637.5,-782 631.5,-782 625.5,-776 625.5,-770 625.5,-770 625.5,-711 625.5,-711 625.5,-705 631.5,-699 637.5,-699 637.5,-699 721.5,-699 721.5,-699 727.5,-699 733.5,-705 733.5,-711 733.5,-711 733.5,-770 733.5,-770 733.5,-776 727.5,-782 721.5,-782"/>
<text text-anchor="start" x="633.5" y="-766.8" font-family="Helvetica,sans-Serif" font-size="14.00" fill="#000000">Leptin ≤ 6.059</text>
<text text-anchor="start" x="641.5" y="-751.8" font-family="Helvetica,sans-Serif" font-size="14.00" fill="#000000">gini = 0.305</text>
<text text-anchor="start" x="635.5" y="-736.8" font-family="Helvetica,sans-Serif" font-size="14.00" fill="#000000">samples = 32</text>
<text text-anchor="start" x="634" y="-721.8" font-family="Helvetica,sans-Serif" font-size="14.00" fill="#000000">value = [6, 26]</text>
<text text-anchor="start" x="650.5" y="-706.8" font-family="Helvetica,sans-Serif" font-size="14.00" fill="#000000">class = 2</text>
</g>
<!-- 0&#45;&gt;18 -->
<g id="edge18" class="edge">
<title>0&#45;&gt;18</title>
<path fill="none" stroke="#000000" d="M635.2831,-817.8796C640.2237,-809.2335 645.4816,-800.0322 650.5833,-791.1042"/>
<polygon fill="#000000" stroke="#000000" points="653.6928,-792.717 655.6154,-782.2981 647.6151,-789.244 653.6928,-792.717"/>
<text text-anchor="middle" x="662.1933" y="-802.7172" font-family="Helvetica,sans-Serif" font-size="14.00" fill="#000000">False</text>
</g>
<!-- 2 -->
<g id="node3" class="node">
<title>2</title>
<path fill="#eb9d65" stroke="#000000" d="M464,-663C464,-663 377,-663 377,-663 371,-663 365,-657 365,-651 365,-651 365,-592 365,-592 365,-586 371,-580 377,-580 377,-580 464,-580 464,-580 470,-580 476,-586 476,-592 476,-592 476,-651 476,-651 476,-657 470,-663 464,-663"/>
<text text-anchor="start" x="373" y="-647.8" font-family="Helvetica,sans-Serif" font-size="14.00" fill="#000000">HOMA ≤ 3.519</text>
<text text-anchor="start" x="382.5" y="-632.8" font-family="Helvetica,sans-Serif" font-size="14.00" fill="#000000">gini = 0.298</text>
<text text-anchor="start" x="376.5" y="-617.8" font-family="Helvetica,sans-Serif" font-size="14.00" fill="#000000">samples = 33</text>
<text text-anchor="start" x="375" y="-602.8" font-family="Helvetica,sans-Serif" font-size="14.00" fill="#000000">value = [27, 6]</text>
<text text-anchor="start" x="391.5" y="-587.8" font-family="Helvetica,sans-Serif" font-size="14.00" fill="#000000">class = 1</text>
</g>
<!-- 1&#45;&gt;2 -->
<g id="edge2" class="edge">
<title>1&#45;&gt;2</title>
<path fill="none" stroke="#000000" d="M500.4806,-698.8796C490.9853,-689.6931 480.8422,-679.8798 471.0785,-670.4336"/>
<polygon fill="#000000" stroke="#000000" points="473.3237,-667.7359 463.703,-663.2981 468.4564,-672.7668 473.3237,-667.7359"/>
</g>
<!-- 15 -->
<g id="node16" class="node">
<title>15</title>
<path fill="#d3e9f9" stroke="#000000" d="M586.5,-663C586.5,-663 506.5,-663 506.5,-663 500.5,-663 494.5,-657 494.5,-651 494.5,-651 494.5,-592 494.5,-592 494.5,-586 500.5,-580 506.5,-580 506.5,-580 586.5,-580 586.5,-580 592.5,-580 598.5,-586 598.5,-592 598.5,-592 598.5,-651 598.5,-651 598.5,-657 592.5,-663 586.5,-663"/>
<text text-anchor="start" x="503.5" y="-647.8" font-family="Helvetica,sans-Serif" font-size="14.00" fill="#000000">BMI ≤ 29.972</text>
<text text-anchor="start" x="508.5" y="-632.8" font-family="Helvetica,sans-Serif" font-size="14.00" fill="#000000">gini = 0.492</text>
<text text-anchor="start" x="502.5" y="-617.8" font-family="Helvetica,sans-Serif" font-size="14.00" fill="#000000">samples = 16</text>
<text text-anchor="start" x="505" y="-602.8" font-family="Helvetica,sans-Serif" font-size="14.00" fill="#000000">value = [7, 9]</text>
<text text-anchor="start" x="517.5" y="-587.8" font-family="Helvetica,sans-Serif" font-size="14.00" fill="#000000">class = 2</text>
</g>
<!-- 1&#45;&gt;15 -->
<g id="edge15" class="edge">
<title>1&#45;&gt;15</title>
<path fill="none" stroke="#000000" d="M544.5493,-698.8796C544.7559,-690.6838 544.9751,-681.9891 545.189,-673.5013"/>
<polygon fill="#000000" stroke="#000000" points="548.693,-673.3831 545.4463,-663.2981 541.6953,-673.2067 548.693,-673.3831"/>
</g>
<!-- 3 -->
<g id="node4" class="node">
<title>3</title>
<path fill="#e99456" stroke="#000000" d="M343.5,-544C343.5,-544 259.5,-544 259.5,-544 253.5,-544 247.5,-538 247.5,-532 247.5,-532 247.5,-473 247.5,-473 247.5,-467 253.5,-461 259.5,-461 259.5,-461 343.5,-461 343.5,-461 349.5,-461 355.5,-467 355.5,-473 355.5,-473 355.5,-532 355.5,-532 355.5,-538 349.5,-544 343.5,-544"/>
<text text-anchor="start" x="255.5" y="-528.8" font-family="Helvetica,sans-Serif" font-size="14.00" fill="#000000">Leptin ≤ 47.33</text>
<text text-anchor="start" x="263.5" y="-513.8" font-family="Helvetica,sans-Serif" font-size="14.00" fill="#000000">gini = 0.225</text>
<text text-anchor="start" x="257.5" y="-498.8" font-family="Helvetica,sans-Serif" font-size="14.00" fill="#000000">samples = 31</text>
<text text-anchor="start" x="256" y="-483.8" font-family="Helvetica,sans-Serif" font-size="14.00" fill="#000000">value = [27, 4]</text>
<text text-anchor="start" x="272.5" y="-468.8" font-family="Helvetica,sans-Serif" font-size="14.00" fill="#000000">class = 1</text>
</g>
<!-- 2&#45;&gt;3 -->
<g id="edge3" class="edge">
<title>2&#45;&gt;3</title>
<path fill="none" stroke="#000000" d="M378.8796,-579.8796C369.6931,-570.6931 359.8798,-560.8798 350.4336,-551.4336"/>
<polygon fill="#000000" stroke="#000000" points="352.8441,-548.8943 343.2981,-544.2981 347.8943,-553.8441 352.8441,-548.8943"/>
</g>
<!-- 14 -->
<g id="node15" class="node">
<title>14</title>
<path fill="#399de5" stroke="#000000" d="M461,-536.5C461,-536.5 386,-536.5 386,-536.5 380,-536.5 374,-530.5 374,-524.5 374,-524.5 374,-480.5 374,-480.5 374,-474.5 380,-468.5 386,-468.5 386,-468.5 461,-468.5 461,-468.5 467,-468.5 473,-474.5 473,-480.5 473,-480.5 473,-524.5 473,-524.5 473,-530.5 467,-536.5 461,-536.5"/>
<text text-anchor="start" x="394" y="-521.3" font-family="Helvetica,sans-Serif" font-size="14.00" fill="#000000">gini = 0.0</text>
<text text-anchor="start" x="384" y="-506.3" font-family="Helvetica,sans-Serif" font-size="14.00" fill="#000000">samples = 2</text>
<text text-anchor="start" x="382" y="-491.3" font-family="Helvetica,sans-Serif" font-size="14.00" fill="#000000">value = [0, 2]</text>
<text text-anchor="start" x="394.5" y="-476.3" font-family="Helvetica,sans-Serif" font-size="14.00" fill="#000000">class = 2</text>
</g>
<!-- 2&#45;&gt;14 -->
<g id="edge14" class="edge">
<title>2&#45;&gt;14</title>
<path fill="none" stroke="#000000" d="M421.5493,-579.8796C421.8182,-569.2134 422.1084,-557.7021 422.3806,-546.9015"/>
<polygon fill="#000000" stroke="#000000" points="425.8817,-546.9 422.6349,-536.8149 418.8839,-546.7235 425.8817,-546.9"/>
</g>
<!-- 4 -->
<g id="node5" class="node">
<title>4</title>
<path fill="#e88f4f" stroke="#000000" d="M287.5,-425C287.5,-425 183.5,-425 183.5,-425 177.5,-425 171.5,-419 171.5,-413 171.5,-413 171.5,-354 171.5,-354 171.5,-348 177.5,-342 183.5,-342 183.5,-342 287.5,-342 287.5,-342 293.5,-342 299.5,-348 299.5,-354 299.5,-354 299.5,-413 299.5,-413 299.5,-419 293.5,-425 287.5,-425"/>
<text text-anchor="start" x="179.5" y="-409.8" font-family="Helvetica,sans-Serif" font-size="14.00" fill="#000000">MCP.1 ≤ 209.469</text>
<text text-anchor="start" x="202" y="-394.8" font-family="Helvetica,sans-Serif" font-size="14.00" fill="#000000">gini = 0.18</text>
<text text-anchor="start" x="191.5" y="-379.8" font-family="Helvetica,sans-Serif" font-size="14.00" fill="#000000">samples = 30</text>
<text text-anchor="start" x="190" y="-364.8" font-family="Helvetica,sans-Serif" font-size="14.00" fill="#000000">value = [27, 3]</text>
<text text-anchor="start" x="206.5" y="-349.8" font-family="Helvetica,sans-Serif" font-size="14.00" fill="#000000">class = 1</text>
</g>
<!-- 3&#45;&gt;4 -->
<g id="edge4" class="edge">
<title>3&#45;&gt;4</title>
<path fill="none" stroke="#000000" d="M278.4164,-460.8796C273.6211,-452.2335 268.5178,-443.0322 263.5662,-434.1042"/>
<polygon fill="#000000" stroke="#000000" points="266.5931,-432.3455 258.6821,-425.2981 260.4716,-435.7407 266.5931,-432.3455"/>
</g>
<!-- 13 -->
<g id="node14" class="node">
<title>13</title>
<path fill="#399de5" stroke="#000000" d="M405,-417.5C405,-417.5 330,-417.5 330,-417.5 324,-417.5 318,-411.5 318,-405.5 318,-405.5 318,-361.5 318,-361.5 318,-355.5 324,-349.5 330,-349.5 330,-349.5 405,-349.5 405,-349.5 411,-349.5 417,-355.5 417,-361.5 417,-361.5 417,-405.5 417,-405.5 417,-411.5 411,-417.5 405,-417.5"/>
<text text-anchor="start" x="338" y="-402.3" font-family="Helvetica,sans-Serif" font-size="14.00" fill="#000000">gini = 0.0</text>
<text text-anchor="start" x="328" y="-387.3" font-family="Helvetica,sans-Serif" font-size="14.00" fill="#000000">samples = 1</text>
<text text-anchor="start" x="326" y="-372.3" font-family="Helvetica,sans-Serif" font-size="14.00" fill="#000000">value = [0, 1]</text>
<text text-anchor="start" x="338.5" y="-357.3" font-family="Helvetica,sans-Serif" font-size="14.00" fill="#000000">class = 2</text>
</g>
<!-- 3&#45;&gt;13 -->
<g id="edge13" class="edge">
<title>3&#45;&gt;13</title>
<path fill="none" stroke="#000000" d="M324.5836,-460.8796C330.7433,-449.7735 337.4111,-437.7513 343.6129,-426.5691"/>
<polygon fill="#000000" stroke="#000000" points="346.6787,-428.2576 348.4682,-417.8149 340.5572,-424.8624 346.6787,-428.2576"/>
</g>
<!-- 5 -->
<g id="node6" class="node">
<title>5</title>
<path fill="#f2c09c" stroke="#000000" d="M210.5,-306C210.5,-306 106.5,-306 106.5,-306 100.5,-306 94.5,-300 94.5,-294 94.5,-294 94.5,-235 94.5,-235 94.5,-229 100.5,-223 106.5,-223 106.5,-223 210.5,-223 210.5,-223 216.5,-223 222.5,-229 222.5,-235 222.5,-235 222.5,-294 222.5,-294 222.5,-300 216.5,-306 210.5,-306"/>
<text text-anchor="start" x="102.5" y="-290.8" font-family="Helvetica,sans-Serif" font-size="14.00" fill="#000000">MCP.1 ≤ 192.795</text>
<text text-anchor="start" x="120.5" y="-275.8" font-family="Helvetica,sans-Serif" font-size="14.00" fill="#000000">gini = 0.444</text>
<text text-anchor="start" x="119" y="-260.8" font-family="Helvetica,sans-Serif" font-size="14.00" fill="#000000">samples = 6</text>
<text text-anchor="start" x="117" y="-245.8" font-family="Helvetica,sans-Serif" font-size="14.00" fill="#000000">value = [4, 2]</text>
<text text-anchor="start" x="129.5" y="-230.8" font-family="Helvetica,sans-Serif" font-size="14.00" fill="#000000">class = 1</text>
</g>
<!-- 4&#45;&gt;5 -->
<g id="edge5" class="edge">
<title>4&#45;&gt;5</title>
<path fill="none" stroke="#000000" d="M208.5691,-341.8796C202.9163,-333.1434 196.8967,-323.8404 191.0634,-314.8253"/>
<polygon fill="#000000" stroke="#000000" points="193.9169,-312.7924 185.5458,-306.2981 188.0399,-316.5952 193.9169,-312.7924"/>
</g>
<!-- 8 -->
<g id="node9" class="node">
<title>8</title>
<path fill="#e68642" stroke="#000000" d="M374,-306C374,-306 253,-306 253,-306 247,-306 241,-300 241,-294 241,-294 241,-235 241,-235 241,-229 247,-223 253,-223 253,-223 374,-223 374,-223 380,-223 386,-229 386,-235 386,-235 386,-294 386,-294 386,-300 380,-306 374,-306"/>
<text text-anchor="start" x="249" y="-290.8" font-family="Helvetica,sans-Serif" font-size="14.00" fill="#000000">Adiponectin ≤ 3.986</text>
<text text-anchor="start" x="280" y="-275.8" font-family="Helvetica,sans-Serif" font-size="14.00" fill="#000000">gini = 0.08</text>
<text text-anchor="start" x="269.5" y="-260.8" font-family="Helvetica,sans-Serif" font-size="14.00" fill="#000000">samples = 24</text>
<text text-anchor="start" x="268" y="-245.8" font-family="Helvetica,sans-Serif" font-size="14.00" fill="#000000">value = [23, 1]</text>
<text text-anchor="start" x="284.5" y="-230.8" font-family="Helvetica,sans-Serif" font-size="14.00" fill="#000000">class = 1</text>
</g>
<!-- 4&#45;&gt;8 -->
<g id="edge8" class="edge">
<title>4&#45;&gt;8</title>
<path fill="none" stroke="#000000" d="M262.7806,-341.8796C268.5068,-333.1434 274.6046,-323.8404 280.5137,-314.8253"/>
<polygon fill="#000000" stroke="#000000" points="283.5482,-316.5803 286.1029,-306.2981 277.6937,-312.7429 283.5482,-316.5803"/>
</g>
<!-- 6 -->
<g id="node7" class="node">
<title>6</title>
<path fill="#e58139" stroke="#000000" d="M87,-179.5C87,-179.5 12,-179.5 12,-179.5 6,-179.5 0,-173.5 0,-167.5 0,-167.5 0,-123.5 0,-123.5 0,-117.5 6,-111.5 12,-111.5 12,-111.5 87,-111.5 87,-111.5 93,-111.5 99,-117.5 99,-123.5 99,-123.5 99,-167.5 99,-167.5 99,-173.5 93,-179.5 87,-179.5"/>
<text text-anchor="start" x="20" y="-164.3" font-family="Helvetica,sans-Serif" font-size="14.00" fill="#000000">gini = 0.0</text>
<text text-anchor="start" x="10" y="-149.3" font-family="Helvetica,sans-Serif" font-size="14.00" fill="#000000">samples = 4</text>
<text text-anchor="start" x="8" y="-134.3" font-family="Helvetica,sans-Serif" font-size="14.00" fill="#000000">value = [4, 0]</text>
<text text-anchor="start" x="20.5" y="-119.3" font-family="Helvetica,sans-Serif" font-size="14.00" fill="#000000">class = 1</text>
</g>
<!-- 5&#45;&gt;6 -->
<g id="edge6" class="edge">
<title>5&#45;&gt;6</title>
<path fill="none" stroke="#000000" d="M120.3771,-222.8796C109.8014,-211.3337 98.3188,-198.7976 87.7367,-187.2446"/>
<polygon fill="#000000" stroke="#000000" points="90.2667,-184.825 80.9313,-179.8149 85.1049,-189.5531 90.2667,-184.825"/>
</g>
<!-- 7 -->
<g id="node8" class="node">
<title>7</title>
<path fill="#399de5" stroke="#000000" d="M204,-179.5C204,-179.5 129,-179.5 129,-179.5 123,-179.5 117,-173.5 117,-167.5 117,-167.5 117,-123.5 117,-123.5 117,-117.5 123,-111.5 129,-111.5 129,-111.5 204,-111.5 204,-111.5 210,-111.5 216,-117.5 216,-123.5 216,-123.5 216,-167.5 216,-167.5 216,-173.5 210,-179.5 204,-179.5"/>
<text text-anchor="start" x="137" y="-164.3" font-family="Helvetica,sans-Serif" font-size="14.00" fill="#000000">gini = 0.0</text>
<text text-anchor="start" x="127" y="-149.3" font-family="Helvetica,sans-Serif" font-size="14.00" fill="#000000">samples = 2</text>
<text text-anchor="start" x="125" y="-134.3" font-family="Helvetica,sans-Serif" font-size="14.00" fill="#000000">value = [0, 2]</text>
<text text-anchor="start" x="137.5" y="-119.3" font-family="Helvetica,sans-Serif" font-size="14.00" fill="#000000">class = 2</text>
</g>
<!-- 5&#45;&gt;7 -->
<g id="edge7" class="edge">
<title>5&#45;&gt;7</title>
<path fill="none" stroke="#000000" d="M161.298,-222.8796C162.0151,-212.2134 162.7889,-200.7021 163.515,-189.9015"/>
<polygon fill="#000000" stroke="#000000" points="167.0144,-190.0272 164.1931,-179.8149 160.0301,-189.5576 167.0144,-190.0272"/>
</g>
<!-- 9 -->
<g id="node10" class="node">
<title>9</title>
<path fill="#ffffff" stroke="#000000" d="M349,-187C349,-187 262,-187 262,-187 256,-187 250,-181 250,-175 250,-175 250,-116 250,-116 250,-110 256,-104 262,-104 262,-104 349,-104 349,-104 355,-104 361,-110 361,-116 361,-116 361,-175 361,-175 361,-181 355,-187 349,-187"/>
<text text-anchor="start" x="258" y="-171.8" font-family="Helvetica,sans-Serif" font-size="14.00" fill="#000000">HOMA ≤ 0.762</text>
<text text-anchor="start" x="276" y="-156.8" font-family="Helvetica,sans-Serif" font-size="14.00" fill="#000000">gini = 0.5</text>
<text text-anchor="start" x="266" y="-141.8" font-family="Helvetica,sans-Serif" font-size="14.00" fill="#000000">samples = 2</text>
<text text-anchor="start" x="264" y="-126.8" font-family="Helvetica,sans-Serif" font-size="14.00" fill="#000000">value = [1, 1]</text>
<text text-anchor="start" x="276.5" y="-111.8" font-family="Helvetica,sans-Serif" font-size="14.00" fill="#000000">class = 1</text>
</g>
<!-- 8&#45;&gt;9 -->
<g id="edge9" class="edge">
<title>8&#45;&gt;9</title>
<path fill="none" stroke="#000000" d="M310.702,-222.8796C310.151,-214.6838 309.5665,-205.9891 308.9959,-197.5013"/>
<polygon fill="#000000" stroke="#000000" points="312.4729,-197.0408 308.31,-187.2981 305.4887,-197.5103 312.4729,-197.0408"/>
</g>
<!-- 12 -->
<g id="node13" class="node">
<title>12</title>
<path fill="#e58139" stroke="#000000" d="M474,-179.5C474,-179.5 391,-179.5 391,-179.5 385,-179.5 379,-173.5 379,-167.5 379,-167.5 379,-123.5 379,-123.5 379,-117.5 385,-111.5 391,-111.5 391,-111.5 474,-111.5 474,-111.5 480,-111.5 486,-117.5 486,-123.5 486,-123.5 486,-167.5 486,-167.5 486,-173.5 480,-179.5 474,-179.5"/>
<text text-anchor="start" x="403" y="-164.3" font-family="Helvetica,sans-Serif" font-size="14.00" fill="#000000">gini = 0.0</text>
<text text-anchor="start" x="388.5" y="-149.3" font-family="Helvetica,sans-Serif" font-size="14.00" fill="#000000">samples = 22</text>
<text text-anchor="start" x="387" y="-134.3" font-family="Helvetica,sans-Serif" font-size="14.00" fill="#000000">value = [22, 0]</text>
<text text-anchor="start" x="403.5" y="-119.3" font-family="Helvetica,sans-Serif" font-size="14.00" fill="#000000">class = 1</text>
</g>
<!-- 8&#45;&gt;12 -->
<g id="edge12" class="edge">
<title>8&#45;&gt;12</title>
<path fill="none" stroke="#000000" d="M355.1204,-222.8796C366.7763,-211.2237 379.4413,-198.5587 391.0852,-186.9148"/>
<polygon fill="#000000" stroke="#000000" points="393.5889,-189.3609 398.1851,-179.8149 388.6391,-184.4111 393.5889,-189.3609"/>
</g>
<!-- 10 -->
<g id="node11" class="node">
<title>10</title>
<path fill="#e58139" stroke="#000000" d="M285,-68C285,-68 210,-68 210,-68 204,-68 198,-62 198,-56 198,-56 198,-12 198,-12 198,-6 204,0 210,0 210,0 285,0 285,0 291,0 297,-6 297,-12 297,-12 297,-56 297,-56 297,-62 291,-68 285,-68"/>
<text text-anchor="start" x="218" y="-52.8" font-family="Helvetica,sans-Serif" font-size="14.00" fill="#000000">gini = 0.0</text>
<text text-anchor="start" x="208" y="-37.8" font-family="Helvetica,sans-Serif" font-size="14.00" fill="#000000">samples = 1</text>
<text text-anchor="start" x="206" y="-22.8" font-family="Helvetica,sans-Serif" font-size="14.00" fill="#000000">value = [1, 0]</text>
<text text-anchor="start" x="218.5" y="-7.8" font-family="Helvetica,sans-Serif" font-size="14.00" fill="#000000">class = 1</text>
</g>
<!-- 9&#45;&gt;10 -->
<g id="edge10" class="edge">
<title>9&#45;&gt;10</title>
<path fill="none" stroke="#000000" d="M283.9029,-103.9815C279.3612,-95.2504 274.5598,-86.0202 269.9863,-77.2281"/>
<polygon fill="#000000" stroke="#000000" points="273.0431,-75.52 265.3233,-68.2637 266.8331,-78.7504 273.0431,-75.52"/>
</g>
<!-- 11 -->
<g id="node12" class="node">
<title>11</title>
<path fill="#399de5" stroke="#000000" d="M402,-68C402,-68 327,-68 327,-68 321,-68 315,-62 315,-56 315,-56 315,-12 315,-12 315,-6 321,0 327,0 327,0 402,0 402,0 408,0 414,-6 414,-12 414,-12 414,-56 414,-56 414,-62 408,-68 402,-68"/>
<text text-anchor="start" x="335" y="-52.8" font-family="Helvetica,sans-Serif" font-size="14.00" fill="#000000">gini = 0.0</text>
<text text-anchor="start" x="325" y="-37.8" font-family="Helvetica,sans-Serif" font-size="14.00" fill="#000000">samples = 1</text>
<text text-anchor="start" x="323" y="-22.8" font-family="Helvetica,sans-Serif" font-size="14.00" fill="#000000">value = [0, 1]</text>
<text text-anchor="start" x="335.5" y="-7.8" font-family="Helvetica,sans-Serif" font-size="14.00" fill="#000000">class = 2</text>
</g>
<!-- 9&#45;&gt;11 -->
<g id="edge11" class="edge">
<title>9&#45;&gt;11</title>
<path fill="none" stroke="#000000" d="M327.4694,-103.9815C332.0895,-95.2504 336.9736,-86.0202 341.626,-77.2281"/>
<polygon fill="#000000" stroke="#000000" points="344.7859,-78.7395 346.3694,-68.2637 338.5987,-75.4655 344.7859,-78.7395"/>
</g>
<!-- 16 -->
<g id="node17" class="node">
<title>16</title>
<path fill="#399de5" stroke="#000000" d="M582,-536.5C582,-536.5 507,-536.5 507,-536.5 501,-536.5 495,-530.5 495,-524.5 495,-524.5 495,-480.5 495,-480.5 495,-474.5 501,-468.5 507,-468.5 507,-468.5 582,-468.5 582,-468.5 588,-468.5 594,-474.5 594,-480.5 594,-480.5 594,-524.5 594,-524.5 594,-530.5 588,-536.5 582,-536.5"/>
<text text-anchor="start" x="515" y="-521.3" font-family="Helvetica,sans-Serif" font-size="14.00" fill="#000000">gini = 0.0</text>
<text text-anchor="start" x="505" y="-506.3" font-family="Helvetica,sans-Serif" font-size="14.00" fill="#000000">samples = 9</text>
<text text-anchor="start" x="503" y="-491.3" font-family="Helvetica,sans-Serif" font-size="14.00" fill="#000000">value = [0, 9]</text>
<text text-anchor="start" x="515.5" y="-476.3" font-family="Helvetica,sans-Serif" font-size="14.00" fill="#000000">class = 2</text>
</g>
<!-- 15&#45;&gt;16 -->
<g id="edge16" class="edge">
<title>15&#45;&gt;16</title>
<path fill="none" stroke="#000000" d="M545.8005,-579.8796C545.6212,-569.2134 545.4278,-557.7021 545.2462,-546.9015"/>
<polygon fill="#000000" stroke="#000000" points="548.7444,-546.7547 545.0767,-536.8149 541.7454,-546.8724 548.7444,-546.7547"/>
</g>
<!-- 17 -->
<g id="node18" class="node">
<title>17</title>
<path fill="#e58139" stroke="#000000" d="M699,-536.5C699,-536.5 624,-536.5 624,-536.5 618,-536.5 612,-530.5 612,-524.5 612,-524.5 612,-480.5 612,-480.5 612,-474.5 618,-468.5 624,-468.5 624,-468.5 699,-468.5 699,-468.5 705,-468.5 711,-474.5 711,-480.5 711,-480.5 711,-524.5 711,-524.5 711,-530.5 705,-536.5 699,-536.5"/>
<text text-anchor="start" x="632" y="-521.3" font-family="Helvetica,sans-Serif" font-size="14.00" fill="#000000">gini = 0.0</text>
<text text-anchor="start" x="622" y="-506.3" font-family="Helvetica,sans-Serif" font-size="14.00" fill="#000000">samples = 7</text>
<text text-anchor="start" x="620" y="-491.3" font-family="Helvetica,sans-Serif" font-size="14.00" fill="#000000">value = [7, 0]</text>
<text text-anchor="start" x="632.5" y="-476.3" font-family="Helvetica,sans-Serif" font-size="14.00" fill="#000000">class = 1</text>
</g>
<!-- 15&#45;&gt;17 -->
<g id="edge17" class="edge">
<title>15&#45;&gt;17</title>
<path fill="none" stroke="#000000" d="M586.7214,-579.8796C597.8792,-568.3337 609.9939,-555.7976 621.1586,-544.2446"/>
<polygon fill="#000000" stroke="#000000" points="623.9061,-546.4381 628.3385,-536.8149 618.8725,-541.5736 623.9061,-546.4381"/>
</g>
<!-- 19 -->
<g id="node20" class="node">
<title>19</title>
<path fill="#e58139" stroke="#000000" d="M713,-655.5C713,-655.5 638,-655.5 638,-655.5 632,-655.5 626,-649.5 626,-643.5 626,-643.5 626,-599.5 626,-599.5 626,-593.5 632,-587.5 638,-587.5 638,-587.5 713,-587.5 713,-587.5 719,-587.5 725,-593.5 725,-599.5 725,-599.5 725,-643.5 725,-643.5 725,-649.5 719,-655.5 713,-655.5"/>
<text text-anchor="start" x="646" y="-640.3" font-family="Helvetica,sans-Serif" font-size="14.00" fill="#000000">gini = 0.0</text>
<text text-anchor="start" x="636" y="-625.3" font-family="Helvetica,sans-Serif" font-size="14.00" fill="#000000">samples = 2</text>
<text text-anchor="start" x="634" y="-610.3" font-family="Helvetica,sans-Serif" font-size="14.00" fill="#000000">value = [2, 0]</text>
<text text-anchor="start" x="646.5" y="-595.3" font-family="Helvetica,sans-Serif" font-size="14.00" fill="#000000">class = 1</text>
</g>
<!-- 18&#45;&gt;19 -->
<g id="edge19" class="edge">
<title>18&#45;&gt;19</title>
<path fill="none" stroke="#000000" d="M678.101,-698.8796C677.7425,-688.2134 677.3555,-676.7021 676.9925,-665.9015"/>
<polygon fill="#000000" stroke="#000000" points="680.4875,-665.6917 676.6534,-655.8149 673.4915,-665.9269 680.4875,-665.6917"/>
</g>
<!-- 20 -->
<g id="node21" class="node">
<title>20</title>
<path fill="#57ace9" stroke="#000000" d="M838,-663C838,-663 755,-663 755,-663 749,-663 743,-657 743,-651 743,-651 743,-592 743,-592 743,-586 749,-580 755,-580 755,-580 838,-580 838,-580 844,-580 850,-586 850,-592 850,-592 850,-651 850,-651 850,-657 844,-663 838,-663"/>
<text text-anchor="start" x="753.5" y="-647.8" font-family="Helvetica,sans-Serif" font-size="14.00" fill="#000000">BMI ≤ 33.777</text>
<text text-anchor="start" x="758.5" y="-632.8" font-family="Helvetica,sans-Serif" font-size="14.00" fill="#000000">gini = 0.231</text>
<text text-anchor="start" x="752.5" y="-617.8" font-family="Helvetica,sans-Serif" font-size="14.00" fill="#000000">samples = 30</text>
<text text-anchor="start" x="751" y="-602.8" font-family="Helvetica,sans-Serif" font-size="14.00" fill="#000000">value = [4, 26]</text>
<text text-anchor="start" x="767.5" y="-587.8" font-family="Helvetica,sans-Serif" font-size="14.00" fill="#000000">class = 2</text>
</g>
<!-- 18&#45;&gt;20 -->
<g id="edge20" class="edge">
<title>18&#45;&gt;20</title>
<path fill="none" stroke="#000000" d="M720.4209,-698.8796C729.453,-689.6931 739.1013,-679.8798 748.3888,-670.4336"/>
<polygon fill="#000000" stroke="#000000" points="750.8893,-672.8827 755.4044,-663.2981 745.8977,-667.975 750.8893,-672.8827"/>
</g>
<!-- 21 -->
<g id="node22" class="node">
<title>21</title>
<path fill="#42a1e6" stroke="#000000" d="M842,-544C842,-544 747,-544 747,-544 741,-544 735,-538 735,-532 735,-532 735,-473 735,-473 735,-467 741,-461 747,-461 747,-461 842,-461 842,-461 848,-461 854,-467 854,-473 854,-473 854,-532 854,-532 854,-538 848,-544 842,-544"/>
<text text-anchor="start" x="743" y="-528.8" font-family="Helvetica,sans-Serif" font-size="14.00" fill="#000000">MCP.1 ≤ 67.966</text>
<text text-anchor="start" x="761" y="-513.8" font-family="Helvetica,sans-Serif" font-size="14.00" fill="#000000">gini = 0.08</text>
<text text-anchor="start" x="750.5" y="-498.8" font-family="Helvetica,sans-Serif" font-size="14.00" fill="#000000">samples = 24</text>
<text text-anchor="start" x="749" y="-483.8" font-family="Helvetica,sans-Serif" font-size="14.00" fill="#000000">value = [1, 23]</text>
<text text-anchor="start" x="765.5" y="-468.8" font-family="Helvetica,sans-Serif" font-size="14.00" fill="#000000">class = 2</text>
</g>
<!-- 20&#45;&gt;21 -->
<g id="edge21" class="edge">
<title>20&#45;&gt;21</title>
<path fill="none" stroke="#000000" d="M795.8005,-579.8796C795.6628,-571.6838 795.5166,-562.9891 795.374,-554.5013"/>
<polygon fill="#000000" stroke="#000000" points="798.8701,-554.2378 795.2025,-544.2981 791.8711,-554.3555 798.8701,-554.2378"/>
</g>
<!-- 24 -->
<g id="node25" class="node">
<title>24</title>
<path fill="#ffffff" stroke="#000000" d="M980.5,-544C980.5,-544 884.5,-544 884.5,-544 878.5,-544 872.5,-538 872.5,-532 872.5,-532 872.5,-473 872.5,-473 872.5,-467 878.5,-461 884.5,-461 884.5,-461 980.5,-461 980.5,-461 986.5,-461 992.5,-467 992.5,-473 992.5,-473 992.5,-532 992.5,-532 992.5,-538 986.5,-544 980.5,-544"/>
<text text-anchor="start" x="880.5" y="-528.8" font-family="Helvetica,sans-Serif" font-size="14.00" fill="#000000">Resistin ≤ 9.338</text>
<text text-anchor="start" x="903" y="-513.8" font-family="Helvetica,sans-Serif" font-size="14.00" fill="#000000">gini = 0.5</text>
<text text-anchor="start" x="893" y="-498.8" font-family="Helvetica,sans-Serif" font-size="14.00" fill="#000000">samples = 6</text>
<text text-anchor="start" x="891" y="-483.8" font-family="Helvetica,sans-Serif" font-size="14.00" fill="#000000">value = [3, 3]</text>
<text text-anchor="start" x="903.5" y="-468.8" font-family="Helvetica,sans-Serif" font-size="14.00" fill="#000000">class = 1</text>
</g>
<!-- 20&#45;&gt;24 -->
<g id="edge24" class="edge">
<title>20&#45;&gt;24</title>
<path fill="none" stroke="#000000" d="M844.0662,-579.8796C854.6679,-570.6031 866.0002,-560.6874 876.8933,-551.1559"/>
<polygon fill="#000000" stroke="#000000" points="879.5098,-553.5172 884.7308,-544.2981 874.9002,-548.2491 879.5098,-553.5172"/>
</g>
<!-- 22 -->
<g id="node23" class="node">
<title>22</title>
<path fill="#e58139" stroke="#000000" d="M715,-417.5C715,-417.5 640,-417.5 640,-417.5 634,-417.5 628,-411.5 628,-405.5 628,-405.5 628,-361.5 628,-361.5 628,-355.5 634,-349.5 640,-349.5 640,-349.5 715,-349.5 715,-349.5 721,-349.5 727,-355.5 727,-361.5 727,-361.5 727,-405.5 727,-405.5 727,-411.5 721,-417.5 715,-417.5"/>
<text text-anchor="start" x="648" y="-402.3" font-family="Helvetica,sans-Serif" font-size="14.00" fill="#000000">gini = 0.0</text>
<text text-anchor="start" x="638" y="-387.3" font-family="Helvetica,sans-Serif" font-size="14.00" fill="#000000">samples = 1</text>
<text text-anchor="start" x="636" y="-372.3" font-family="Helvetica,sans-Serif" font-size="14.00" fill="#000000">value = [1, 0]</text>
<text text-anchor="start" x="648.5" y="-357.3" font-family="Helvetica,sans-Serif" font-size="14.00" fill="#000000">class = 1</text>
</g>
<!-- 21&#45;&gt;22 -->
<g id="edge22" class="edge">
<title>21&#45;&gt;22</title>
<path fill="none" stroke="#000000" d="M753.5791,-460.8796C742.2272,-449.3337 729.9018,-436.7976 718.543,-425.2446"/>
<polygon fill="#000000" stroke="#000000" points="720.7449,-422.4919 711.2382,-417.8149 715.7534,-427.3995 720.7449,-422.4919"/>
</g>
<!-- 23 -->
<g id="node24" class="node">
<title>23</title>
<path fill="#399de5" stroke="#000000" d="M840,-417.5C840,-417.5 757,-417.5 757,-417.5 751,-417.5 745,-411.5 745,-405.5 745,-405.5 745,-361.5 745,-361.5 745,-355.5 751,-349.5 757,-349.5 757,-349.5 840,-349.5 840,-349.5 846,-349.5 852,-355.5 852,-361.5 852,-361.5 852,-405.5 852,-405.5 852,-411.5 846,-417.5 840,-417.5"/>
<text text-anchor="start" x="769" y="-402.3" font-family="Helvetica,sans-Serif" font-size="14.00" fill="#000000">gini = 0.0</text>
<text text-anchor="start" x="754.5" y="-387.3" font-family="Helvetica,sans-Serif" font-size="14.00" fill="#000000">samples = 23</text>
<text text-anchor="start" x="753" y="-372.3" font-family="Helvetica,sans-Serif" font-size="14.00" fill="#000000">value = [0, 23]</text>
<text text-anchor="start" x="769.5" y="-357.3" font-family="Helvetica,sans-Serif" font-size="14.00" fill="#000000">class = 2</text>
</g>
<!-- 21&#45;&gt;23 -->
<g id="edge23" class="edge">
<title>21&#45;&gt;23</title>
<path fill="none" stroke="#000000" d="M795.899,-460.8796C796.2575,-450.2134 796.6445,-438.7021 797.0075,-427.9015"/>
<polygon fill="#000000" stroke="#000000" points="800.5085,-427.9269 797.3466,-417.8149 793.5125,-427.6917 800.5085,-427.9269"/>
</g>
<!-- 25 -->
<g id="node26" class="node">
<title>25</title>
<path fill="#399de5" stroke="#000000" d="M965,-417.5C965,-417.5 890,-417.5 890,-417.5 884,-417.5 878,-411.5 878,-405.5 878,-405.5 878,-361.5 878,-361.5 878,-355.5 884,-349.5 890,-349.5 890,-349.5 965,-349.5 965,-349.5 971,-349.5 977,-355.5 977,-361.5 977,-361.5 977,-405.5 977,-405.5 977,-411.5 971,-417.5 965,-417.5"/>
<text text-anchor="start" x="898" y="-402.3" font-family="Helvetica,sans-Serif" font-size="14.00" fill="#000000">gini = 0.0</text>
<text text-anchor="start" x="888" y="-387.3" font-family="Helvetica,sans-Serif" font-size="14.00" fill="#000000">samples = 3</text>
<text text-anchor="start" x="886" y="-372.3" font-family="Helvetica,sans-Serif" font-size="14.00" fill="#000000">value = [0, 3]</text>
<text text-anchor="start" x="898.5" y="-357.3" font-family="Helvetica,sans-Serif" font-size="14.00" fill="#000000">class = 2</text>
</g>
<!-- 24&#45;&gt;25 -->
<g id="edge25" class="edge">
<title>24&#45;&gt;25</title>
<path fill="none" stroke="#000000" d="M930.7512,-460.8796C930.3031,-450.2134 929.8194,-438.7021 929.3656,-427.9015"/>
<polygon fill="#000000" stroke="#000000" points="932.8586,-427.6592 928.9418,-417.8149 925.8648,-427.9531 932.8586,-427.6592"/>
</g>
<!-- 26 -->
<g id="node27" class="node">
<title>26</title>
<path fill="#e58139" stroke="#000000" d="M1082,-417.5C1082,-417.5 1007,-417.5 1007,-417.5 1001,-417.5 995,-411.5 995,-405.5 995,-405.5 995,-361.5 995,-361.5 995,-355.5 1001,-349.5 1007,-349.5 1007,-349.5 1082,-349.5 1082,-349.5 1088,-349.5 1094,-355.5 1094,-361.5 1094,-361.5 1094,-405.5 1094,-405.5 1094,-411.5 1088,-417.5 1082,-417.5"/>
<text text-anchor="start" x="1015" y="-402.3" font-family="Helvetica,sans-Serif" font-size="14.00" fill="#000000">gini = 0.0</text>
<text text-anchor="start" x="1005" y="-387.3" font-family="Helvetica,sans-Serif" font-size="14.00" fill="#000000">samples = 3</text>
<text text-anchor="start" x="1003" y="-372.3" font-family="Helvetica,sans-Serif" font-size="14.00" fill="#000000">value = [3, 0]</text>
<text text-anchor="start" x="1015.5" y="-357.3" font-family="Helvetica,sans-Serif" font-size="14.00" fill="#000000">class = 1</text>
</g>
<!-- 24&#45;&gt;26 -->
<g id="edge26" class="edge">
<title>24&#45;&gt;26</title>
<path fill="none" stroke="#000000" d="M971.6722,-460.8796C982.5389,-449.3337 994.3376,-436.7976 1005.2109,-425.2446"/>
<polygon fill="#000000" stroke="#000000" points="1007.8986,-427.4958 1012.2036,-417.8149 1002.8012,-422.6982 1007.8986,-427.4958"/>
</g>
</g>
</svg>
