<?xml version="1.0" encoding="UTF-8" standalone="no"?>
<!DOCTYPE svg PUBLIC "-//W3C//DTD SVG 1.1//EN"
 "http://www.w3.org/Graphics/SVG/1.1/DTD/svg11.dtd">
<!-- Generated by graphviz version 2.40.1 (20161225.0304)
 -->
<!-- Title: Tree Pages: 1 -->
<svg width="1103pt" height="1147pt"
 viewBox="0.00 0.00 1103.00 1147.00" xmlns="http://www.w3.org/2000/svg" xmlns:xlink="http://www.w3.org/1999/xlink">
<g id="graph0" class="graph" transform="scale(1 1) rotate(0) translate(4 1143)">
<title>Tree</title>
<polygon fill="#ffffff" stroke="transparent" points="-4,4 -4,-1143 1099,-1143 1099,4 -4,4"/>
<!-- 0 -->
<g id="node1" class="node">
<title>0</title>
<path fill="#fafdfe" stroke="#000000" d="M733.5,-1139C733.5,-1139 641.5,-1139 641.5,-1139 635.5,-1139 629.5,-1133 629.5,-1127 629.5,-1127 629.5,-1068 629.5,-1068 629.5,-1062 635.5,-1056 641.5,-1056 641.5,-1056 733.5,-1056 733.5,-1056 739.5,-1056 745.5,-1062 745.5,-1068 745.5,-1068 745.5,-1127 745.5,-1127 745.5,-1133 739.5,-1139 733.5,-1139"/>
<text text-anchor="start" x="638.5" y="-1123.8" font-family="Helvetica,sans-Serif" font-size="14.00" fill="#000000">Glucose ≤ 96.5</text>
<text text-anchor="start" x="645" y="-1108.8" font-family="Helvetica,sans-Serif" font-size="14.00" fill="#000000">entropy = 1.0</text>
<text text-anchor="start" x="643.5" y="-1093.8" font-family="Helvetica,sans-Serif" font-size="14.00" fill="#000000">samples = 81</text>
<text text-anchor="start" x="637.5" y="-1078.8" font-family="Helvetica,sans-Serif" font-size="14.00" fill="#000000">value = [40, 41]</text>
<text text-anchor="start" x="658.5" y="-1063.8" font-family="Helvetica,sans-Serif" font-size="14.00" fill="#000000">class = 2</text>
</g>
<!-- 1 -->
<g id="node2" class="node">
<title>1</title>
<path fill="#f0b990" stroke="#000000" d="M667,-1020C667,-1020 572,-1020 572,-1020 566,-1020 560,-1014 560,-1008 560,-1008 560,-949 560,-949 560,-943 566,-937 572,-937 572,-937 667,-937 667,-937 673,-937 679,-943 679,-949 679,-949 679,-1008 679,-1008 679,-1014 673,-1020 667,-1020"/>
<text text-anchor="start" x="568" y="-1004.8" font-family="Helvetica,sans-Serif" font-size="14.00" fill="#000000">Insulin ≤ 14.359</text>
<text text-anchor="start" x="568.5" y="-989.8" font-family="Helvetica,sans-Serif" font-size="14.00" fill="#000000">entropy = 0.889</text>
<text text-anchor="start" x="575.5" y="-974.8" font-family="Helvetica,sans-Serif" font-size="14.00" fill="#000000">samples = 49</text>
<text text-anchor="start" x="569.5" y="-959.8" font-family="Helvetica,sans-Serif" font-size="14.00" fill="#000000">value = [34, 15]</text>
<text text-anchor="start" x="590.5" y="-944.8" font-family="Helvetica,sans-Serif" font-size="14.00" fill="#000000">class = 1</text>
</g>
<!-- 0&#45;&gt;1 -->
<g id="edge1" class="edge">
<title>0&#45;&gt;1</title>
<path fill="none" stroke="#000000" d="M663.7169,-1055.8796C658.7763,-1047.2335 653.5184,-1038.0322 648.4167,-1029.1042"/>
<polygon fill="#000000" stroke="#000000" points="651.3849,-1027.244 643.3846,-1020.2981 645.3072,-1030.717 651.3849,-1027.244"/>
<text text-anchor="middle" x="636.8067" y="-1040.7172" font-family="Helvetica,sans-Serif" font-size="14.00" fill="#000000">True</text>
</g>
<!-- 26 -->
<g id="node27" class="node">
<title>26</title>
<path fill="#67b4eb" stroke="#000000" d="M803.5,-1020C803.5,-1020 709.5,-1020 709.5,-1020 703.5,-1020 697.5,-1014 697.5,-1008 697.5,-1008 697.5,-949 697.5,-949 697.5,-943 703.5,-937 709.5,-937 709.5,-937 803.5,-937 803.5,-937 809.5,-937 815.5,-943 815.5,-949 815.5,-949 815.5,-1008 815.5,-1008 815.5,-1014 809.5,-1020 803.5,-1020"/>
<text text-anchor="start" x="710.5" y="-1004.8" font-family="Helvetica,sans-Serif" font-size="14.00" fill="#000000">Leptin ≤ 6.059</text>
<text text-anchor="start" x="705.5" y="-989.8" font-family="Helvetica,sans-Serif" font-size="14.00" fill="#000000">entropy = 0.696</text>
<text text-anchor="start" x="712.5" y="-974.8" font-family="Helvetica,sans-Serif" font-size="14.00" fill="#000000">samples = 32</text>
<text text-anchor="start" x="711" y="-959.8" font-family="Helvetica,sans-Serif" font-size="14.00" fill="#000000">value = [6, 26]</text>
<text text-anchor="start" x="727.5" y="-944.8" font-family="Helvetica,sans-Serif" font-size="14.00" fill="#000000">class = 2</text>
</g>
<!-- 0&#45;&gt;26 -->
<g id="edge26" class="edge">
<title>0&#45;&gt;26</title>
<path fill="none" stroke="#000000" d="M711.6329,-1055.8796C716.6461,-1047.2335 721.9813,-1038.0322 727.1581,-1029.1042"/>
<polygon fill="#000000" stroke="#000000" points="730.2758,-1030.7047 732.2641,-1020.2981 724.2202,-1027.1934 730.2758,-1030.7047"/>
<text text-anchor="middle" x="738.6897" y="-1040.7582" font-family="Helvetica,sans-Serif" font-size="14.00" fill="#000000">False</text>
</g>
<!-- 2 -->
<g id="node3" class="node">
<title>2</title>
<path fill="#eead7f" stroke="#000000" d="M538.5,-901C538.5,-901 444.5,-901 444.5,-901 438.5,-901 432.5,-895 432.5,-889 432.5,-889 432.5,-830 432.5,-830 432.5,-824 438.5,-818 444.5,-818 444.5,-818 538.5,-818 538.5,-818 544.5,-818 550.5,-824 550.5,-830 550.5,-830 550.5,-889 550.5,-889 550.5,-895 544.5,-901 538.5,-901"/>
<text text-anchor="start" x="443.5" y="-885.8" font-family="Helvetica,sans-Serif" font-size="14.00" fill="#000000">Resistin ≤ 7.74</text>
<text text-anchor="start" x="440.5" y="-870.8" font-family="Helvetica,sans-Serif" font-size="14.00" fill="#000000">entropy = 0.828</text>
<text text-anchor="start" x="447.5" y="-855.8" font-family="Helvetica,sans-Serif" font-size="14.00" fill="#000000">samples = 46</text>
<text text-anchor="start" x="441.5" y="-840.8" font-family="Helvetica,sans-Serif" font-size="14.00" fill="#000000">value = [34, 12]</text>
<text text-anchor="start" x="462.5" y="-825.8" font-family="Helvetica,sans-Serif" font-size="14.00" fill="#000000">class = 1</text>
</g>
<!-- 1&#45;&gt;2 -->
<g id="edge2" class="edge">
<title>1&#45;&gt;2</title>
<path fill="none" stroke="#000000" d="M574.7318,-936.8796C564.7537,-927.6031 554.0881,-917.6874 543.8358,-908.1559"/>
<polygon fill="#000000" stroke="#000000" points="546.1663,-905.5436 536.4593,-901.2981 541.4,-910.6704 546.1663,-905.5436"/>
</g>
<!-- 25 -->
<g id="node26" class="node">
<title>25</title>
<path fill="#399de5" stroke="#000000" d="M658,-893.5C658,-893.5 581,-893.5 581,-893.5 575,-893.5 569,-887.5 569,-881.5 569,-881.5 569,-837.5 569,-837.5 569,-831.5 575,-825.5 581,-825.5 581,-825.5 658,-825.5 658,-825.5 664,-825.5 670,-831.5 670,-837.5 670,-837.5 670,-881.5 670,-881.5 670,-887.5 664,-893.5 658,-893.5"/>
<text text-anchor="start" x="577" y="-878.3" font-family="Helvetica,sans-Serif" font-size="14.00" fill="#000000">entropy = 0.0</text>
<text text-anchor="start" x="580" y="-863.3" font-family="Helvetica,sans-Serif" font-size="14.00" fill="#000000">samples = 3</text>
<text text-anchor="start" x="578" y="-848.3" font-family="Helvetica,sans-Serif" font-size="14.00" fill="#000000">value = [0, 3]</text>
<text text-anchor="start" x="590.5" y="-833.3" font-family="Helvetica,sans-Serif" font-size="14.00" fill="#000000">class = 2</text>
</g>
<!-- 1&#45;&gt;25 -->
<g id="edge25" class="edge">
<title>1&#45;&gt;25</title>
<path fill="none" stroke="#000000" d="M619.5,-936.8796C619.5,-926.2134 619.5,-914.7021 619.5,-903.9015"/>
<polygon fill="#000000" stroke="#000000" points="623.0001,-903.8149 619.5,-893.8149 616.0001,-903.815 623.0001,-903.8149"/>
</g>
<!-- 3 -->
<g id="node4" class="node">
<title>3</title>
<path fill="#e58139" stroke="#000000" d="M398,-774.5C398,-774.5 315,-774.5 315,-774.5 309,-774.5 303,-768.5 303,-762.5 303,-762.5 303,-718.5 303,-718.5 303,-712.5 309,-706.5 315,-706.5 315,-706.5 398,-706.5 398,-706.5 404,-706.5 410,-712.5 410,-718.5 410,-718.5 410,-762.5 410,-762.5 410,-768.5 404,-774.5 398,-774.5"/>
<text text-anchor="start" x="314" y="-759.3" font-family="Helvetica,sans-Serif" font-size="14.00" fill="#000000">entropy = 0.0</text>
<text text-anchor="start" x="312.5" y="-744.3" font-family="Helvetica,sans-Serif" font-size="14.00" fill="#000000">samples = 12</text>
<text text-anchor="start" x="311" y="-729.3" font-family="Helvetica,sans-Serif" font-size="14.00" fill="#000000">value = [12, 0]</text>
<text text-anchor="start" x="327.5" y="-714.3" font-family="Helvetica,sans-Serif" font-size="14.00" fill="#000000">class = 1</text>
</g>
<!-- 2&#45;&gt;3 -->
<g id="edge3" class="edge">
<title>2&#45;&gt;3</title>
<path fill="none" stroke="#000000" d="M444.2836,-817.8796C430.9358,-806.1138 416.4215,-793.3197 403.1096,-781.5855"/>
<polygon fill="#000000" stroke="#000000" points="405.2448,-778.8019 395.4287,-774.8149 400.616,-784.0531 405.2448,-778.8019"/>
</g>
<!-- 4 -->
<g id="node5" class="node">
<title>4</title>
<path fill="#f3c6a5" stroke="#000000" d="M544.5,-782C544.5,-782 440.5,-782 440.5,-782 434.5,-782 428.5,-776 428.5,-770 428.5,-770 428.5,-711 428.5,-711 428.5,-705 434.5,-699 440.5,-699 440.5,-699 544.5,-699 544.5,-699 550.5,-699 556.5,-705 556.5,-711 556.5,-711 556.5,-770 556.5,-770 556.5,-776 550.5,-782 544.5,-782"/>
<text text-anchor="start" x="436.5" y="-766.8" font-family="Helvetica,sans-Serif" font-size="14.00" fill="#000000">MCP.1 ≤ 339.218</text>
<text text-anchor="start" x="441.5" y="-751.8" font-family="Helvetica,sans-Serif" font-size="14.00" fill="#000000">entropy = 0.937</text>
<text text-anchor="start" x="448.5" y="-736.8" font-family="Helvetica,sans-Serif" font-size="14.00" fill="#000000">samples = 34</text>
<text text-anchor="start" x="442.5" y="-721.8" font-family="Helvetica,sans-Serif" font-size="14.00" fill="#000000">value = [22, 12]</text>
<text text-anchor="start" x="463.5" y="-706.8" font-family="Helvetica,sans-Serif" font-size="14.00" fill="#000000">class = 1</text>
</g>
<!-- 2&#45;&gt;4 -->
<g id="edge4" class="edge">
<title>2&#45;&gt;4</title>
<path fill="none" stroke="#000000" d="M491.8498,-817.8796C491.9186,-809.6838 491.9917,-800.9891 492.063,-792.5013"/>
<polygon fill="#000000" stroke="#000000" points="495.5645,-792.3272 492.1488,-782.2981 488.5648,-792.2683 495.5645,-792.3272"/>
</g>
<!-- 5 -->
<g id="node6" class="node">
<title>5</title>
<path fill="#8ec7f0" stroke="#000000" d="M405.5,-663C405.5,-663 301.5,-663 301.5,-663 295.5,-663 289.5,-657 289.5,-651 289.5,-651 289.5,-592 289.5,-592 289.5,-586 295.5,-580 301.5,-580 301.5,-580 405.5,-580 405.5,-580 411.5,-580 417.5,-586 417.5,-592 417.5,-592 417.5,-651 417.5,-651 417.5,-657 411.5,-663 405.5,-663"/>
<text text-anchor="start" x="297.5" y="-647.8" font-family="Helvetica,sans-Serif" font-size="14.00" fill="#000000">Resistin ≤ 12.674</text>
<text text-anchor="start" x="302.5" y="-632.8" font-family="Helvetica,sans-Serif" font-size="14.00" fill="#000000">entropy = 0.881</text>
<text text-anchor="start" x="309.5" y="-617.8" font-family="Helvetica,sans-Serif" font-size="14.00" fill="#000000">samples = 10</text>
<text text-anchor="start" x="312" y="-602.8" font-family="Helvetica,sans-Serif" font-size="14.00" fill="#000000">value = [3, 7]</text>
<text text-anchor="start" x="324.5" y="-587.8" font-family="Helvetica,sans-Serif" font-size="14.00" fill="#000000">class = 2</text>
</g>
<!-- 4&#45;&gt;5 -->
<g id="edge5" class="edge">
<title>4&#45;&gt;5</title>
<path fill="none" stroke="#000000" d="M443.8845,-698.8796C432.9438,-689.513 421.2418,-679.4948 410.0092,-669.8784"/>
<polygon fill="#000000" stroke="#000000" points="412.1956,-667.1428 402.323,-663.2981 407.6432,-672.4603 412.1956,-667.1428"/>
</g>
<!-- 12 -->
<g id="node13" class="node">
<title>12</title>
<path fill="#eca26d" stroke="#000000" d="M541.5,-663C541.5,-663 447.5,-663 447.5,-663 441.5,-663 435.5,-657 435.5,-651 435.5,-651 435.5,-592 435.5,-592 435.5,-586 441.5,-580 447.5,-580 447.5,-580 541.5,-580 541.5,-580 547.5,-580 553.5,-586 553.5,-592 553.5,-592 553.5,-651 553.5,-651 553.5,-657 547.5,-663 541.5,-663"/>
<text text-anchor="start" x="447.5" y="-647.8" font-family="Helvetica,sans-Serif" font-size="14.00" fill="#000000">Insulin ≤ 3.119</text>
<text text-anchor="start" x="443.5" y="-632.8" font-family="Helvetica,sans-Serif" font-size="14.00" fill="#000000">entropy = 0.738</text>
<text text-anchor="start" x="450.5" y="-617.8" font-family="Helvetica,sans-Serif" font-size="14.00" fill="#000000">samples = 24</text>
<text text-anchor="start" x="449" y="-602.8" font-family="Helvetica,sans-Serif" font-size="14.00" fill="#000000">value = [19, 5]</text>
<text text-anchor="start" x="465.5" y="-587.8" font-family="Helvetica,sans-Serif" font-size="14.00" fill="#000000">class = 1</text>
</g>
<!-- 4&#45;&gt;12 -->
<g id="edge12" class="edge">
<title>4&#45;&gt;12</title>
<path fill="none" stroke="#000000" d="M493.1995,-698.8796C493.3372,-690.6838 493.4834,-681.9891 493.626,-673.5013"/>
<polygon fill="#000000" stroke="#000000" points="497.1289,-673.3555 493.7975,-663.2981 490.1299,-673.2378 497.1289,-673.3555"/>
</g>
<!-- 6 -->
<g id="node7" class="node">
<title>6</title>
<path fill="#ffffff" stroke="#000000" d="M276.5,-544C276.5,-544 186.5,-544 186.5,-544 180.5,-544 174.5,-538 174.5,-532 174.5,-532 174.5,-473 174.5,-473 174.5,-467 180.5,-461 186.5,-461 186.5,-461 276.5,-461 276.5,-461 282.5,-461 288.5,-467 288.5,-473 288.5,-473 288.5,-532 288.5,-532 288.5,-538 282.5,-544 276.5,-544"/>
<text text-anchor="start" x="182.5" y="-528.8" font-family="Helvetica,sans-Serif" font-size="14.00" fill="#000000">Glucose ≤ 92.5</text>
<text text-anchor="start" x="189" y="-513.8" font-family="Helvetica,sans-Serif" font-size="14.00" fill="#000000">entropy = 1.0</text>
<text text-anchor="start" x="192" y="-498.8" font-family="Helvetica,sans-Serif" font-size="14.00" fill="#000000">samples = 6</text>
<text text-anchor="start" x="190" y="-483.8" font-family="Helvetica,sans-Serif" font-size="14.00" fill="#000000">value = [3, 3]</text>
<text text-anchor="start" x="202.5" y="-468.8" font-family="Helvetica,sans-Serif" font-size="14.00" fill="#000000">class = 1</text>
</g>
<!-- 5&#45;&gt;6 -->
<g id="edge6" class="edge">
<title>5&#45;&gt;6</title>
<path fill="none" stroke="#000000" d="M310.8303,-579.8796C301.4123,-570.6931 291.3516,-560.8798 281.6672,-551.4336"/>
<polygon fill="#000000" stroke="#000000" points="283.9543,-548.7751 274.3518,-544.2981 279.0665,-553.7861 283.9543,-548.7751"/>
</g>
<!-- 11 -->
<g id="node12" class="node">
<title>11</title>
<path fill="#399de5" stroke="#000000" d="M396,-536.5C396,-536.5 319,-536.5 319,-536.5 313,-536.5 307,-530.5 307,-524.5 307,-524.5 307,-480.5 307,-480.5 307,-474.5 313,-468.5 319,-468.5 319,-468.5 396,-468.5 396,-468.5 402,-468.5 408,-474.5 408,-480.5 408,-480.5 408,-524.5 408,-524.5 408,-530.5 402,-536.5 396,-536.5"/>
<text text-anchor="start" x="315" y="-521.3" font-family="Helvetica,sans-Serif" font-size="14.00" fill="#000000">entropy = 0.0</text>
<text text-anchor="start" x="318" y="-506.3" font-family="Helvetica,sans-Serif" font-size="14.00" fill="#000000">samples = 4</text>
<text text-anchor="start" x="316" y="-491.3" font-family="Helvetica,sans-Serif" font-size="14.00" fill="#000000">value = [0, 4]</text>
<text text-anchor="start" x="328.5" y="-476.3" font-family="Helvetica,sans-Serif" font-size="14.00" fill="#000000">class = 2</text>
</g>
<!-- 5&#45;&gt;11 -->
<g id="edge11" class="edge">
<title>5&#45;&gt;11</title>
<path fill="none" stroke="#000000" d="M354.899,-579.8796C355.2575,-569.2134 355.6445,-557.7021 356.0075,-546.9015"/>
<polygon fill="#000000" stroke="#000000" points="359.5085,-546.9269 356.3466,-536.8149 352.5125,-546.6917 359.5085,-546.9269"/>
</g>
<!-- 7 -->
<g id="node8" class="node">
<title>7</title>
<path fill="#7bbeee" stroke="#000000" d="M156.5,-425C156.5,-425 62.5,-425 62.5,-425 56.5,-425 50.5,-419 50.5,-413 50.5,-413 50.5,-354 50.5,-354 50.5,-348 56.5,-342 62.5,-342 62.5,-342 156.5,-342 156.5,-342 162.5,-342 168.5,-348 168.5,-354 168.5,-354 168.5,-413 168.5,-413 168.5,-419 162.5,-425 156.5,-425"/>
<text text-anchor="start" x="60.5" y="-409.8" font-family="Helvetica,sans-Serif" font-size="14.00" fill="#000000">Glucose ≤ 83.5</text>
<text text-anchor="start" x="58.5" y="-394.8" font-family="Helvetica,sans-Serif" font-size="14.00" fill="#000000">entropy = 0.811</text>
<text text-anchor="start" x="70" y="-379.8" font-family="Helvetica,sans-Serif" font-size="14.00" fill="#000000">samples = 4</text>
<text text-anchor="start" x="68" y="-364.8" font-family="Helvetica,sans-Serif" font-size="14.00" fill="#000000">value = [1, 3]</text>
<text text-anchor="start" x="80.5" y="-349.8" font-family="Helvetica,sans-Serif" font-size="14.00" fill="#000000">class = 2</text>
</g>
<!-- 6&#45;&gt;7 -->
<g id="edge7" class="edge">
<title>6&#45;&gt;7</title>
<path fill="none" stroke="#000000" d="M188.8303,-460.8796C179.4123,-451.6931 169.3516,-441.8798 159.6672,-432.4336"/>
<polygon fill="#000000" stroke="#000000" points="161.9543,-429.7751 152.3518,-425.2981 157.0665,-434.7861 161.9543,-429.7751"/>
</g>
<!-- 10 -->
<g id="node11" class="node">
<title>10</title>
<path fill="#e58139" stroke="#000000" d="M276,-417.5C276,-417.5 199,-417.5 199,-417.5 193,-417.5 187,-411.5 187,-405.5 187,-405.5 187,-361.5 187,-361.5 187,-355.5 193,-349.5 199,-349.5 199,-349.5 276,-349.5 276,-349.5 282,-349.5 288,-355.5 288,-361.5 288,-361.5 288,-405.5 288,-405.5 288,-411.5 282,-417.5 276,-417.5"/>
<text text-anchor="start" x="195" y="-402.3" font-family="Helvetica,sans-Serif" font-size="14.00" fill="#000000">entropy = 0.0</text>
<text text-anchor="start" x="198" y="-387.3" font-family="Helvetica,sans-Serif" font-size="14.00" fill="#000000">samples = 2</text>
<text text-anchor="start" x="196" y="-372.3" font-family="Helvetica,sans-Serif" font-size="14.00" fill="#000000">value = [2, 0]</text>
<text text-anchor="start" x="208.5" y="-357.3" font-family="Helvetica,sans-Serif" font-size="14.00" fill="#000000">class = 1</text>
</g>
<!-- 6&#45;&gt;10 -->
<g id="edge10" class="edge">
<title>6&#45;&gt;10</title>
<path fill="none" stroke="#000000" d="M233.5985,-460.8796C234.1363,-450.2134 234.7167,-438.7021 235.2613,-427.9015"/>
<polygon fill="#000000" stroke="#000000" points="238.7617,-427.9785 235.7698,-417.8149 231.7706,-427.626 238.7617,-427.9785"/>
</g>
<!-- 8 -->
<g id="node9" class="node">
<title>8</title>
<path fill="#e58139" stroke="#000000" d="M89,-298.5C89,-298.5 12,-298.5 12,-298.5 6,-298.5 0,-292.5 0,-286.5 0,-286.5 0,-242.5 0,-242.5 0,-236.5 6,-230.5 12,-230.5 12,-230.5 89,-230.5 89,-230.5 95,-230.5 101,-236.5 101,-242.5 101,-242.5 101,-286.5 101,-286.5 101,-292.5 95,-298.5 89,-298.5"/>
<text text-anchor="start" x="8" y="-283.3" font-family="Helvetica,sans-Serif" font-size="14.00" fill="#000000">entropy = 0.0</text>
<text text-anchor="start" x="11" y="-268.3" font-family="Helvetica,sans-Serif" font-size="14.00" fill="#000000">samples = 1</text>
<text text-anchor="start" x="9" y="-253.3" font-family="Helvetica,sans-Serif" font-size="14.00" fill="#000000">value = [1, 0]</text>
<text text-anchor="start" x="21.5" y="-238.3" font-family="Helvetica,sans-Serif" font-size="14.00" fill="#000000">class = 1</text>
</g>
<!-- 7&#45;&gt;8 -->
<g id="edge8" class="edge">
<title>7&#45;&gt;8</title>
<path fill="none" stroke="#000000" d="M88.8647,-341.8796C83.4128,-330.8835 77.5157,-318.9893 72.0184,-307.9015"/>
<polygon fill="#000000" stroke="#000000" points="75.0911,-306.2195 67.5133,-298.8149 68.8196,-309.3289 75.0911,-306.2195"/>
</g>
<!-- 9 -->
<g id="node10" class="node">
<title>9</title>
<path fill="#399de5" stroke="#000000" d="M208,-298.5C208,-298.5 131,-298.5 131,-298.5 125,-298.5 119,-292.5 119,-286.5 119,-286.5 119,-242.5 119,-242.5 119,-236.5 125,-230.5 131,-230.5 131,-230.5 208,-230.5 208,-230.5 214,-230.5 220,-236.5 220,-242.5 220,-242.5 220,-286.5 220,-286.5 220,-292.5 214,-298.5 208,-298.5"/>
<text text-anchor="start" x="127" y="-283.3" font-family="Helvetica,sans-Serif" font-size="14.00" fill="#000000">entropy = 0.0</text>
<text text-anchor="start" x="130" y="-268.3" font-family="Helvetica,sans-Serif" font-size="14.00" fill="#000000">samples = 3</text>
<text text-anchor="start" x="128" y="-253.3" font-family="Helvetica,sans-Serif" font-size="14.00" fill="#000000">value = [0, 3]</text>
<text text-anchor="start" x="140.5" y="-238.3" font-family="Helvetica,sans-Serif" font-size="14.00" fill="#000000">class = 2</text>
</g>
<!-- 7&#45;&gt;9 -->
<g id="edge9" class="edge">
<title>7&#45;&gt;9</title>
<path fill="none" stroke="#000000" d="M130.4851,-341.8796C136.0293,-330.8835 142.0264,-318.9893 147.6169,-307.9015"/>
<polygon fill="#000000" stroke="#000000" points="150.8214,-309.3199 152.1984,-298.8149 144.5709,-306.1684 150.8214,-309.3199"/>
</g>
<!-- 13 -->
<g id="node14" class="node">
<title>13</title>
<path fill="#7bbeee" stroke="#000000" d="M538.5,-544C538.5,-544 444.5,-544 444.5,-544 438.5,-544 432.5,-538 432.5,-532 432.5,-532 432.5,-473 432.5,-473 432.5,-467 438.5,-461 444.5,-461 444.5,-461 538.5,-461 538.5,-461 544.5,-461 550.5,-467 550.5,-473 550.5,-473 550.5,-532 550.5,-532 550.5,-538 544.5,-544 538.5,-544"/>
<text text-anchor="start" x="442.5" y="-528.8" font-family="Helvetica,sans-Serif" font-size="14.00" fill="#000000">Glucose ≤ 74.0</text>
<text text-anchor="start" x="440.5" y="-513.8" font-family="Helvetica,sans-Serif" font-size="14.00" fill="#000000">entropy = 0.811</text>
<text text-anchor="start" x="452" y="-498.8" font-family="Helvetica,sans-Serif" font-size="14.00" fill="#000000">samples = 4</text>
<text text-anchor="start" x="450" y="-483.8" font-family="Helvetica,sans-Serif" font-size="14.00" fill="#000000">value = [1, 3]</text>
<text text-anchor="start" x="462.5" y="-468.8" font-family="Helvetica,sans-Serif" font-size="14.00" fill="#000000">class = 2</text>
</g>
<!-- 12&#45;&gt;13 -->
<g id="edge13" class="edge">
<title>12&#45;&gt;13</title>
<path fill="none" stroke="#000000" d="M493.4507,-579.8796C493.2441,-571.6838 493.0249,-562.9891 492.811,-554.5013"/>
<polygon fill="#000000" stroke="#000000" points="496.3047,-554.2067 492.5537,-544.2981 489.307,-554.3831 496.3047,-554.2067"/>
</g>
<!-- 16 -->
<g id="node17" class="node">
<title>16</title>
<path fill="#e88f4f" stroke="#000000" d="M702,-544C702,-544 581,-544 581,-544 575,-544 569,-538 569,-532 569,-532 569,-473 569,-473 569,-467 575,-461 581,-461 581,-461 702,-461 702,-461 708,-461 714,-467 714,-473 714,-473 714,-532 714,-532 714,-538 708,-544 702,-544"/>
<text text-anchor="start" x="577" y="-528.8" font-family="Helvetica,sans-Serif" font-size="14.00" fill="#000000">Adiponectin ≤ 6.806</text>
<text text-anchor="start" x="590.5" y="-513.8" font-family="Helvetica,sans-Serif" font-size="14.00" fill="#000000">entropy = 0.469</text>
<text text-anchor="start" x="597.5" y="-498.8" font-family="Helvetica,sans-Serif" font-size="14.00" fill="#000000">samples = 20</text>
<text text-anchor="start" x="596" y="-483.8" font-family="Helvetica,sans-Serif" font-size="14.00" fill="#000000">value = [18, 2]</text>
<text text-anchor="start" x="612.5" y="-468.8" font-family="Helvetica,sans-Serif" font-size="14.00" fill="#000000">class = 1</text>
</g>
<!-- 12&#45;&gt;16 -->
<g id="edge16" class="edge">
<title>12&#45;&gt;16</title>
<path fill="none" stroke="#000000" d="M545.9135,-579.8796C557.5952,-570.4229 570.0975,-560.302 582.081,-550.6011"/>
<polygon fill="#000000" stroke="#000000" points="584.2968,-553.3105 589.8671,-544.2981 579.8924,-547.8697 584.2968,-553.3105"/>
</g>
<!-- 14 -->
<g id="node15" class="node">
<title>14</title>
<path fill="#e58139" stroke="#000000" d="M417,-417.5C417,-417.5 340,-417.5 340,-417.5 334,-417.5 328,-411.5 328,-405.5 328,-405.5 328,-361.5 328,-361.5 328,-355.5 334,-349.5 340,-349.5 340,-349.5 417,-349.5 417,-349.5 423,-349.5 429,-355.5 429,-361.5 429,-361.5 429,-405.5 429,-405.5 429,-411.5 423,-417.5 417,-417.5"/>
<text text-anchor="start" x="336" y="-402.3" font-family="Helvetica,sans-Serif" font-size="14.00" fill="#000000">entropy = 0.0</text>
<text text-anchor="start" x="339" y="-387.3" font-family="Helvetica,sans-Serif" font-size="14.00" fill="#000000">samples = 1</text>
<text text-anchor="start" x="337" y="-372.3" font-family="Helvetica,sans-Serif" font-size="14.00" fill="#000000">value = [1, 0]</text>
<text text-anchor="start" x="349.5" y="-357.3" font-family="Helvetica,sans-Serif" font-size="14.00" fill="#000000">class = 1</text>
</g>
<!-- 13&#45;&gt;14 -->
<g id="edge14" class="edge">
<title>13&#45;&gt;14</title>
<path fill="none" stroke="#000000" d="M451.9781,-460.8796C441.0143,-449.3337 429.1103,-436.7976 418.1399,-425.2446"/>
<polygon fill="#000000" stroke="#000000" points="420.5087,-422.6564 411.0848,-417.8149 415.4327,-427.4766 420.5087,-422.6564"/>
</g>
<!-- 15 -->
<g id="node16" class="node">
<title>15</title>
<path fill="#399de5" stroke="#000000" d="M536,-417.5C536,-417.5 459,-417.5 459,-417.5 453,-417.5 447,-411.5 447,-405.5 447,-405.5 447,-361.5 447,-361.5 447,-355.5 453,-349.5 459,-349.5 459,-349.5 536,-349.5 536,-349.5 542,-349.5 548,-355.5 548,-361.5 548,-361.5 548,-405.5 548,-405.5 548,-411.5 542,-417.5 536,-417.5"/>
<text text-anchor="start" x="455" y="-402.3" font-family="Helvetica,sans-Serif" font-size="14.00" fill="#000000">entropy = 0.0</text>
<text text-anchor="start" x="458" y="-387.3" font-family="Helvetica,sans-Serif" font-size="14.00" fill="#000000">samples = 3</text>
<text text-anchor="start" x="456" y="-372.3" font-family="Helvetica,sans-Serif" font-size="14.00" fill="#000000">value = [0, 3]</text>
<text text-anchor="start" x="468.5" y="-357.3" font-family="Helvetica,sans-Serif" font-size="14.00" fill="#000000">class = 2</text>
</g>
<!-- 13&#45;&gt;15 -->
<g id="edge15" class="edge">
<title>13&#45;&gt;15</title>
<path fill="none" stroke="#000000" d="M493.5985,-460.8796C494.1363,-450.2134 494.7167,-438.7021 495.2613,-427.9015"/>
<polygon fill="#000000" stroke="#000000" points="498.7617,-427.9785 495.7698,-417.8149 491.7706,-427.626 498.7617,-427.9785"/>
</g>
<!-- 17 -->
<g id="node18" class="node">
<title>17</title>
<path fill="#eca572" stroke="#000000" d="M683.5,-425C683.5,-425 589.5,-425 589.5,-425 583.5,-425 577.5,-419 577.5,-413 577.5,-413 577.5,-354 577.5,-354 577.5,-348 583.5,-342 589.5,-342 589.5,-342 683.5,-342 683.5,-342 689.5,-342 695.5,-348 695.5,-354 695.5,-354 695.5,-413 695.5,-413 695.5,-419 689.5,-425 683.5,-425"/>
<text text-anchor="start" x="587.5" y="-409.8" font-family="Helvetica,sans-Serif" font-size="14.00" fill="#000000">Glucose ≤ 85.0</text>
<text text-anchor="start" x="585.5" y="-394.8" font-family="Helvetica,sans-Serif" font-size="14.00" fill="#000000">entropy = 0.764</text>
<text text-anchor="start" x="597" y="-379.8" font-family="Helvetica,sans-Serif" font-size="14.00" fill="#000000">samples = 9</text>
<text text-anchor="start" x="595" y="-364.8" font-family="Helvetica,sans-Serif" font-size="14.00" fill="#000000">value = [7, 2]</text>
<text text-anchor="start" x="607.5" y="-349.8" font-family="Helvetica,sans-Serif" font-size="14.00" fill="#000000">class = 1</text>
</g>
<!-- 16&#45;&gt;17 -->
<g id="edge17" class="edge">
<title>16&#45;&gt;17</title>
<path fill="none" stroke="#000000" d="M639.7512,-460.8796C639.4069,-452.6838 639.0416,-443.9891 638.6849,-435.5013"/>
<polygon fill="#000000" stroke="#000000" points="642.173,-435.1423 638.2562,-425.2981 635.1792,-435.4362 642.173,-435.1423"/>
</g>
<!-- 24 -->
<g id="node25" class="node">
<title>24</title>
<path fill="#e58139" stroke="#000000" d="M809,-417.5C809,-417.5 726,-417.5 726,-417.5 720,-417.5 714,-411.5 714,-405.5 714,-405.5 714,-361.5 714,-361.5 714,-355.5 720,-349.5 726,-349.5 726,-349.5 809,-349.5 809,-349.5 815,-349.5 821,-355.5 821,-361.5 821,-361.5 821,-405.5 821,-405.5 821,-411.5 815,-417.5 809,-417.5"/>
<text text-anchor="start" x="725" y="-402.3" font-family="Helvetica,sans-Serif" font-size="14.00" fill="#000000">entropy = 0.0</text>
<text text-anchor="start" x="723.5" y="-387.3" font-family="Helvetica,sans-Serif" font-size="14.00" fill="#000000">samples = 11</text>
<text text-anchor="start" x="722" y="-372.3" font-family="Helvetica,sans-Serif" font-size="14.00" fill="#000000">value = [11, 0]</text>
<text text-anchor="start" x="738.5" y="-357.3" font-family="Helvetica,sans-Serif" font-size="14.00" fill="#000000">class = 1</text>
</g>
<!-- 16&#45;&gt;24 -->
<g id="edge24" class="edge">
<title>16&#45;&gt;24</title>
<path fill="none" stroke="#000000" d="M685.5687,-460.8796C697.9102,-449.2237 711.3202,-436.5587 723.649,-424.9148"/>
<polygon fill="#000000" stroke="#000000" points="726.2996,-427.2258 731.1665,-417.8149 721.4932,-422.1366 726.2996,-427.2258"/>
</g>
<!-- 18 -->
<g id="node19" class="node">
<title>18</title>
<path fill="#e58139" stroke="#000000" d="M604,-298.5C604,-298.5 527,-298.5 527,-298.5 521,-298.5 515,-292.5 515,-286.5 515,-286.5 515,-242.5 515,-242.5 515,-236.5 521,-230.5 527,-230.5 527,-230.5 604,-230.5 604,-230.5 610,-230.5 616,-236.5 616,-242.5 616,-242.5 616,-286.5 616,-286.5 616,-292.5 610,-298.5 604,-298.5"/>
<text text-anchor="start" x="523" y="-283.3" font-family="Helvetica,sans-Serif" font-size="14.00" fill="#000000">entropy = 0.0</text>
<text text-anchor="start" x="526" y="-268.3" font-family="Helvetica,sans-Serif" font-size="14.00" fill="#000000">samples = 5</text>
<text text-anchor="start" x="524" y="-253.3" font-family="Helvetica,sans-Serif" font-size="14.00" fill="#000000">value = [5, 0]</text>
<text text-anchor="start" x="536.5" y="-238.3" font-family="Helvetica,sans-Serif" font-size="14.00" fill="#000000">class = 1</text>
</g>
<!-- 17&#45;&gt;18 -->
<g id="edge18" class="edge">
<title>17&#45;&gt;18</title>
<path fill="none" stroke="#000000" d="M611.6676,-341.8796C605.0413,-330.7735 597.8684,-318.7513 591.1967,-307.5691"/>
<polygon fill="#000000" stroke="#000000" points="594.1031,-305.6093 585.9736,-298.8149 588.0917,-309.1959 594.1031,-305.6093"/>
</g>
<!-- 19 -->
<g id="node20" class="node">
<title>19</title>
<path fill="#ffffff" stroke="#000000" d="M767,-306C767,-306 646,-306 646,-306 640,-306 634,-300 634,-294 634,-294 634,-235 634,-235 634,-229 640,-223 646,-223 646,-223 767,-223 767,-223 773,-223 779,-229 779,-235 779,-235 779,-294 779,-294 779,-300 773,-306 767,-306"/>
<text text-anchor="start" x="642" y="-290.8" font-family="Helvetica,sans-Serif" font-size="14.00" fill="#000000">Adiponectin ≤ 4.262</text>
<text text-anchor="start" x="664" y="-275.8" font-family="Helvetica,sans-Serif" font-size="14.00" fill="#000000">entropy = 1.0</text>
<text text-anchor="start" x="667" y="-260.8" font-family="Helvetica,sans-Serif" font-size="14.00" fill="#000000">samples = 4</text>
<text text-anchor="start" x="665" y="-245.8" font-family="Helvetica,sans-Serif" font-size="14.00" fill="#000000">value = [2, 2]</text>
<text text-anchor="start" x="677.5" y="-230.8" font-family="Helvetica,sans-Serif" font-size="14.00" fill="#000000">class = 1</text>
</g>
<!-- 17&#45;&gt;19 -->
<g id="edge19" class="edge">
<title>17&#45;&gt;19</title>
<path fill="none" stroke="#000000" d="M660.9826,-341.8796C666.0685,-333.2335 671.4811,-324.0322 676.7328,-315.1042"/>
<polygon fill="#000000" stroke="#000000" points="679.8594,-316.692 681.9129,-306.2981 673.8259,-313.1428 679.8594,-316.692"/>
</g>
<!-- 20 -->
<g id="node21" class="node">
<title>20</title>
<path fill="#399de5" stroke="#000000" d="M674,-179.5C674,-179.5 597,-179.5 597,-179.5 591,-179.5 585,-173.5 585,-167.5 585,-167.5 585,-123.5 585,-123.5 585,-117.5 591,-111.5 597,-111.5 597,-111.5 674,-111.5 674,-111.5 680,-111.5 686,-117.5 686,-123.5 686,-123.5 686,-167.5 686,-167.5 686,-173.5 680,-179.5 674,-179.5"/>
<text text-anchor="start" x="593" y="-164.3" font-family="Helvetica,sans-Serif" font-size="14.00" fill="#000000">entropy = 0.0</text>
<text text-anchor="start" x="596" y="-149.3" font-family="Helvetica,sans-Serif" font-size="14.00" fill="#000000">samples = 1</text>
<text text-anchor="start" x="594" y="-134.3" font-family="Helvetica,sans-Serif" font-size="14.00" fill="#000000">value = [0, 1]</text>
<text text-anchor="start" x="606.5" y="-119.3" font-family="Helvetica,sans-Serif" font-size="14.00" fill="#000000">class = 2</text>
</g>
<!-- 19&#45;&gt;20 -->
<g id="edge20" class="edge">
<title>19&#45;&gt;20</title>
<path fill="none" stroke="#000000" d="M681.6676,-222.8796C675.0413,-211.7735 667.8684,-199.7513 661.1967,-188.5691"/>
<polygon fill="#000000" stroke="#000000" points="664.1031,-186.6093 655.9736,-179.8149 658.0917,-190.1959 664.1031,-186.6093"/>
</g>
<!-- 21 -->
<g id="node22" class="node">
<title>21</title>
<path fill="#f2c09c" stroke="#000000" d="M837,-187C837,-187 716,-187 716,-187 710,-187 704,-181 704,-175 704,-175 704,-116 704,-116 704,-110 710,-104 716,-104 716,-104 837,-104 837,-104 843,-104 849,-110 849,-116 849,-116 849,-175 849,-175 849,-181 843,-187 837,-187"/>
<text text-anchor="start" x="712" y="-171.8" font-family="Helvetica,sans-Serif" font-size="14.00" fill="#000000">Adiponectin ≤ 5.872</text>
<text text-anchor="start" x="725.5" y="-156.8" font-family="Helvetica,sans-Serif" font-size="14.00" fill="#000000">entropy = 0.918</text>
<text text-anchor="start" x="737" y="-141.8" font-family="Helvetica,sans-Serif" font-size="14.00" fill="#000000">samples = 3</text>
<text text-anchor="start" x="735" y="-126.8" font-family="Helvetica,sans-Serif" font-size="14.00" fill="#000000">value = [2, 1]</text>
<text text-anchor="start" x="747.5" y="-111.8" font-family="Helvetica,sans-Serif" font-size="14.00" fill="#000000">class = 1</text>
</g>
<!-- 19&#45;&gt;21 -->
<g id="edge21" class="edge">
<title>19&#45;&gt;21</title>
<path fill="none" stroke="#000000" d="M730.9826,-222.8796C736.0685,-214.2335 741.4811,-205.0322 746.7328,-196.1042"/>
<polygon fill="#000000" stroke="#000000" points="749.8594,-197.692 751.9129,-187.2981 743.8259,-194.1428 749.8594,-197.692"/>
</g>
<!-- 22 -->
<g id="node23" class="node">
<title>22</title>
<path fill="#e58139" stroke="#000000" d="M756,-68C756,-68 679,-68 679,-68 673,-68 667,-62 667,-56 667,-56 667,-12 667,-12 667,-6 673,0 679,0 679,0 756,0 756,0 762,0 768,-6 768,-12 768,-12 768,-56 768,-56 768,-62 762,-68 756,-68"/>
<text text-anchor="start" x="675" y="-52.8" font-family="Helvetica,sans-Serif" font-size="14.00" fill="#000000">entropy = 0.0</text>
<text text-anchor="start" x="678" y="-37.8" font-family="Helvetica,sans-Serif" font-size="14.00" fill="#000000">samples = 2</text>
<text text-anchor="start" x="676" y="-22.8" font-family="Helvetica,sans-Serif" font-size="14.00" fill="#000000">value = [2, 0]</text>
<text text-anchor="start" x="688.5" y="-7.8" font-family="Helvetica,sans-Serif" font-size="14.00" fill="#000000">class = 1</text>
</g>
<!-- 21&#45;&gt;22 -->
<g id="edge22" class="edge">
<title>21&#45;&gt;22</title>
<path fill="none" stroke="#000000" d="M754.5306,-103.9815C749.9105,-95.2504 745.0264,-86.0202 740.374,-77.2281"/>
<polygon fill="#000000" stroke="#000000" points="743.4013,-75.4655 735.6306,-68.2637 737.2141,-78.7395 743.4013,-75.4655"/>
</g>
<!-- 23 -->
<g id="node24" class="node">
<title>23</title>
<path fill="#399de5" stroke="#000000" d="M875,-68C875,-68 798,-68 798,-68 792,-68 786,-62 786,-56 786,-56 786,-12 786,-12 786,-6 792,0 798,0 798,0 875,0 875,0 881,0 887,-6 887,-12 887,-12 887,-56 887,-56 887,-62 881,-68 875,-68"/>
<text text-anchor="start" x="794" y="-52.8" font-family="Helvetica,sans-Serif" font-size="14.00" fill="#000000">entropy = 0.0</text>
<text text-anchor="start" x="797" y="-37.8" font-family="Helvetica,sans-Serif" font-size="14.00" fill="#000000">samples = 1</text>
<text text-anchor="start" x="795" y="-22.8" font-family="Helvetica,sans-Serif" font-size="14.00" fill="#000000">value = [0, 1]</text>
<text text-anchor="start" x="807.5" y="-7.8" font-family="Helvetica,sans-Serif" font-size="14.00" fill="#000000">class = 2</text>
</g>
<!-- 21&#45;&gt;23 -->
<g id="edge23" class="edge">
<title>21&#45;&gt;23</title>
<path fill="none" stroke="#000000" d="M798.8418,-103.9815C803.5402,-95.2504 808.5071,-86.0202 813.2383,-77.2281"/>
<polygon fill="#000000" stroke="#000000" points="816.4056,-78.7282 818.0621,-68.2637 810.2414,-75.4111 816.4056,-78.7282"/>
</g>
<!-- 27 -->
<g id="node28" class="node">
<title>27</title>
<path fill="#e58139" stroke="#000000" d="M795,-893.5C795,-893.5 718,-893.5 718,-893.5 712,-893.5 706,-887.5 706,-881.5 706,-881.5 706,-837.5 706,-837.5 706,-831.5 712,-825.5 718,-825.5 718,-825.5 795,-825.5 795,-825.5 801,-825.5 807,-831.5 807,-837.5 807,-837.5 807,-881.5 807,-881.5 807,-887.5 801,-893.5 795,-893.5"/>
<text text-anchor="start" x="714" y="-878.3" font-family="Helvetica,sans-Serif" font-size="14.00" fill="#000000">entropy = 0.0</text>
<text text-anchor="start" x="717" y="-863.3" font-family="Helvetica,sans-Serif" font-size="14.00" fill="#000000">samples = 2</text>
<text text-anchor="start" x="715" y="-848.3" font-family="Helvetica,sans-Serif" font-size="14.00" fill="#000000">value = [2, 0]</text>
<text text-anchor="start" x="727.5" y="-833.3" font-family="Helvetica,sans-Serif" font-size="14.00" fill="#000000">class = 1</text>
</g>
<!-- 26&#45;&gt;27 -->
<g id="edge27" class="edge">
<title>26&#45;&gt;27</title>
<path fill="none" stroke="#000000" d="M756.5,-936.8796C756.5,-926.2134 756.5,-914.7021 756.5,-903.9015"/>
<polygon fill="#000000" stroke="#000000" points="760.0001,-903.8149 756.5,-893.8149 753.0001,-903.815 760.0001,-903.8149"/>
</g>
<!-- 28 -->
<g id="node29" class="node">
<title>28</title>
<path fill="#57ace9" stroke="#000000" d="M958,-901C958,-901 837,-901 837,-901 831,-901 825,-895 825,-889 825,-889 825,-830 825,-830 825,-824 831,-818 837,-818 837,-818 958,-818 958,-818 964,-818 970,-824 970,-830 970,-830 970,-889 970,-889 970,-895 964,-901 958,-901"/>
<text text-anchor="start" x="833" y="-885.8" font-family="Helvetica,sans-Serif" font-size="14.00" fill="#000000">Adiponectin ≤ 7.721</text>
<text text-anchor="start" x="846.5" y="-870.8" font-family="Helvetica,sans-Serif" font-size="14.00" fill="#000000">entropy = 0.567</text>
<text text-anchor="start" x="853.5" y="-855.8" font-family="Helvetica,sans-Serif" font-size="14.00" fill="#000000">samples = 30</text>
<text text-anchor="start" x="852" y="-840.8" font-family="Helvetica,sans-Serif" font-size="14.00" fill="#000000">value = [4, 26]</text>
<text text-anchor="start" x="868.5" y="-825.8" font-family="Helvetica,sans-Serif" font-size="14.00" fill="#000000">class = 2</text>
</g>
<!-- 26&#45;&gt;28 -->
<g id="edge28" class="edge">
<title>26&#45;&gt;28</title>
<path fill="none" stroke="#000000" d="M805.815,-936.8796C816.9132,-927.513 828.7835,-917.4948 840.1777,-907.8784"/>
<polygon fill="#000000" stroke="#000000" points="842.5899,-910.4225 847.9746,-901.2981 838.075,-905.0731 842.5899,-910.4225"/>
</g>
<!-- 29 -->
<g id="node30" class="node">
<title>29</title>
<path fill="#91c9f1" stroke="#000000" d="M958,-782C958,-782 837,-782 837,-782 831,-782 825,-776 825,-770 825,-770 825,-711 825,-711 825,-705 831,-699 837,-699 837,-699 958,-699 958,-699 964,-699 970,-705 970,-711 970,-711 970,-770 970,-770 970,-776 964,-782 958,-782"/>
<text text-anchor="start" x="833" y="-766.8" font-family="Helvetica,sans-Serif" font-size="14.00" fill="#000000">Adiponectin ≤ 6.746</text>
<text text-anchor="start" x="850.5" y="-751.8" font-family="Helvetica,sans-Serif" font-size="14.00" fill="#000000">entropy = 0.89</text>
<text text-anchor="start" x="853.5" y="-736.8" font-family="Helvetica,sans-Serif" font-size="14.00" fill="#000000">samples = 13</text>
<text text-anchor="start" x="856" y="-721.8" font-family="Helvetica,sans-Serif" font-size="14.00" fill="#000000">value = [4, 9]</text>
<text text-anchor="start" x="868.5" y="-706.8" font-family="Helvetica,sans-Serif" font-size="14.00" fill="#000000">class = 2</text>
</g>
<!-- 28&#45;&gt;29 -->
<g id="edge29" class="edge">
<title>28&#45;&gt;29</title>
<path fill="none" stroke="#000000" d="M897.5,-817.8796C897.5,-809.6838 897.5,-800.9891 897.5,-792.5013"/>
<polygon fill="#000000" stroke="#000000" points="901.0001,-792.298 897.5,-782.2981 894.0001,-792.2981 901.0001,-792.298"/>
</g>
<!-- 36 -->
<g id="node37" class="node">
<title>36</title>
<path fill="#399de5" stroke="#000000" d="M1083,-774.5C1083,-774.5 1000,-774.5 1000,-774.5 994,-774.5 988,-768.5 988,-762.5 988,-762.5 988,-718.5 988,-718.5 988,-712.5 994,-706.5 1000,-706.5 1000,-706.5 1083,-706.5 1083,-706.5 1089,-706.5 1095,-712.5 1095,-718.5 1095,-718.5 1095,-762.5 1095,-762.5 1095,-768.5 1089,-774.5 1083,-774.5"/>
<text text-anchor="start" x="999" y="-759.3" font-family="Helvetica,sans-Serif" font-size="14.00" fill="#000000">entropy = 0.0</text>
<text text-anchor="start" x="997.5" y="-744.3" font-family="Helvetica,sans-Serif" font-size="14.00" fill="#000000">samples = 17</text>
<text text-anchor="start" x="996" y="-729.3" font-family="Helvetica,sans-Serif" font-size="14.00" fill="#000000">value = [0, 17]</text>
<text text-anchor="start" x="1012.5" y="-714.3" font-family="Helvetica,sans-Serif" font-size="14.00" fill="#000000">class = 2</text>
</g>
<!-- 28&#45;&gt;36 -->
<g id="edge36" class="edge">
<title>28&#45;&gt;36</title>
<path fill="none" stroke="#000000" d="M947.8642,-817.8796C962.2349,-806.0038 977.8733,-793.0804 992.1808,-781.2568"/>
<polygon fill="#000000" stroke="#000000" points="994.4971,-783.8831 999.976,-774.8149 990.038,-778.4872 994.4971,-783.8831"/>
</g>
<!-- 30 -->
<g id="node31" class="node">
<title>30</title>
<path fill="#65b3eb" stroke="#000000" d="M945.5,-663C945.5,-663 841.5,-663 841.5,-663 835.5,-663 829.5,-657 829.5,-651 829.5,-651 829.5,-592 829.5,-592 829.5,-586 835.5,-580 841.5,-580 841.5,-580 945.5,-580 945.5,-580 951.5,-580 957.5,-586 957.5,-592 957.5,-592 957.5,-651 957.5,-651 957.5,-657 951.5,-663 945.5,-663"/>
<text text-anchor="start" x="837.5" y="-647.8" font-family="Helvetica,sans-Serif" font-size="14.00" fill="#000000">Resistin ≤ 13.741</text>
<text text-anchor="start" x="842.5" y="-632.8" font-family="Helvetica,sans-Serif" font-size="14.00" fill="#000000">entropy = 0.684</text>
<text text-anchor="start" x="849.5" y="-617.8" font-family="Helvetica,sans-Serif" font-size="14.00" fill="#000000">samples = 11</text>
<text text-anchor="start" x="852" y="-602.8" font-family="Helvetica,sans-Serif" font-size="14.00" fill="#000000">value = [2, 9]</text>
<text text-anchor="start" x="864.5" y="-587.8" font-family="Helvetica,sans-Serif" font-size="14.00" fill="#000000">class = 2</text>
</g>
<!-- 29&#45;&gt;30 -->
<g id="edge30" class="edge">
<title>29&#45;&gt;30</title>
<path fill="none" stroke="#000000" d="M896.101,-698.8796C895.8255,-690.6838 895.5332,-681.9891 895.2479,-673.5013"/>
<polygon fill="#000000" stroke="#000000" points="898.739,-673.1748 894.905,-663.2981 891.743,-673.41 898.739,-673.1748"/>
</g>
<!-- 35 -->
<g id="node36" class="node">
<title>35</title>
<path fill="#e58139" stroke="#000000" d="M1065,-655.5C1065,-655.5 988,-655.5 988,-655.5 982,-655.5 976,-649.5 976,-643.5 976,-643.5 976,-599.5 976,-599.5 976,-593.5 982,-587.5 988,-587.5 988,-587.5 1065,-587.5 1065,-587.5 1071,-587.5 1077,-593.5 1077,-599.5 1077,-599.5 1077,-643.5 1077,-643.5 1077,-649.5 1071,-655.5 1065,-655.5"/>
<text text-anchor="start" x="984" y="-640.3" font-family="Helvetica,sans-Serif" font-size="14.00" fill="#000000">entropy = 0.0</text>
<text text-anchor="start" x="987" y="-625.3" font-family="Helvetica,sans-Serif" font-size="14.00" fill="#000000">samples = 2</text>
<text text-anchor="start" x="985" y="-610.3" font-family="Helvetica,sans-Serif" font-size="14.00" fill="#000000">value = [2, 0]</text>
<text text-anchor="start" x="997.5" y="-595.3" font-family="Helvetica,sans-Serif" font-size="14.00" fill="#000000">class = 1</text>
</g>
<!-- 29&#45;&gt;35 -->
<g id="edge35" class="edge">
<title>29&#45;&gt;35</title>
<path fill="none" stroke="#000000" d="M942.6179,-698.8796C955.2533,-687.2237 968.9826,-674.5587 981.605,-662.9148"/>
<polygon fill="#000000" stroke="#000000" points="984.3244,-665.168 989.3015,-655.8149 979.578,-660.0228 984.3244,-665.168"/>
</g>
<!-- 31 -->
<g id="node32" class="node">
<title>31</title>
<path fill="#ffffff" stroke="#000000" d="M939.5,-544C939.5,-544 843.5,-544 843.5,-544 837.5,-544 831.5,-538 831.5,-532 831.5,-532 831.5,-473 831.5,-473 831.5,-467 837.5,-461 843.5,-461 843.5,-461 939.5,-461 939.5,-461 945.5,-461 951.5,-467 951.5,-473 951.5,-473 951.5,-532 951.5,-532 951.5,-538 945.5,-544 939.5,-544"/>
<text text-anchor="start" x="839.5" y="-528.8" font-family="Helvetica,sans-Serif" font-size="14.00" fill="#000000">Resistin ≤ 8.349</text>
<text text-anchor="start" x="849" y="-513.8" font-family="Helvetica,sans-Serif" font-size="14.00" fill="#000000">entropy = 1.0</text>
<text text-anchor="start" x="852" y="-498.8" font-family="Helvetica,sans-Serif" font-size="14.00" fill="#000000">samples = 4</text>
<text text-anchor="start" x="850" y="-483.8" font-family="Helvetica,sans-Serif" font-size="14.00" fill="#000000">value = [2, 2]</text>
<text text-anchor="start" x="862.5" y="-468.8" font-family="Helvetica,sans-Serif" font-size="14.00" fill="#000000">class = 1</text>
</g>
<!-- 30&#45;&gt;31 -->
<g id="edge31" class="edge">
<title>30&#45;&gt;31</title>
<path fill="none" stroke="#000000" d="M892.8005,-579.8796C892.6628,-571.6838 892.5166,-562.9891 892.374,-554.5013"/>
<polygon fill="#000000" stroke="#000000" points="895.8701,-554.2378 892.2025,-544.2981 888.8711,-554.3555 895.8701,-554.2378"/>
</g>
<!-- 34 -->
<g id="node35" class="node">
<title>34</title>
<path fill="#399de5" stroke="#000000" d="M1059,-536.5C1059,-536.5 982,-536.5 982,-536.5 976,-536.5 970,-530.5 970,-524.5 970,-524.5 970,-480.5 970,-480.5 970,-474.5 976,-468.5 982,-468.5 982,-468.5 1059,-468.5 1059,-468.5 1065,-468.5 1071,-474.5 1071,-480.5 1071,-480.5 1071,-524.5 1071,-524.5 1071,-530.5 1065,-536.5 1059,-536.5"/>
<text text-anchor="start" x="978" y="-521.3" font-family="Helvetica,sans-Serif" font-size="14.00" fill="#000000">entropy = 0.0</text>
<text text-anchor="start" x="981" y="-506.3" font-family="Helvetica,sans-Serif" font-size="14.00" fill="#000000">samples = 7</text>
<text text-anchor="start" x="979" y="-491.3" font-family="Helvetica,sans-Serif" font-size="14.00" fill="#000000">value = [0, 7]</text>
<text text-anchor="start" x="991.5" y="-476.3" font-family="Helvetica,sans-Serif" font-size="14.00" fill="#000000">class = 2</text>
</g>
<!-- 30&#45;&gt;34 -->
<g id="edge34" class="edge">
<title>30&#45;&gt;34</title>
<path fill="none" stroke="#000000" d="M937.9184,-579.8796C950.3579,-568.2237 963.8743,-555.5587 976.301,-543.9148"/>
<polygon fill="#000000" stroke="#000000" points="978.9741,-546.2065 983.8782,-536.8149 974.1879,-541.0985 978.9741,-546.2065"/>
</g>
<!-- 32 -->
<g id="node33" class="node">
<title>32</title>
<path fill="#399de5" stroke="#000000" d="M929,-417.5C929,-417.5 852,-417.5 852,-417.5 846,-417.5 840,-411.5 840,-405.5 840,-405.5 840,-361.5 840,-361.5 840,-355.5 846,-349.5 852,-349.5 852,-349.5 929,-349.5 929,-349.5 935,-349.5 941,-355.5 941,-361.5 941,-361.5 941,-405.5 941,-405.5 941,-411.5 935,-417.5 929,-417.5"/>
<text text-anchor="start" x="848" y="-402.3" font-family="Helvetica,sans-Serif" font-size="14.00" fill="#000000">entropy = 0.0</text>
<text text-anchor="start" x="851" y="-387.3" font-family="Helvetica,sans-Serif" font-size="14.00" fill="#000000">samples = 2</text>
<text text-anchor="start" x="849" y="-372.3" font-family="Helvetica,sans-Serif" font-size="14.00" fill="#000000">value = [0, 2]</text>
<text text-anchor="start" x="861.5" y="-357.3" font-family="Helvetica,sans-Serif" font-size="14.00" fill="#000000">class = 2</text>
</g>
<!-- 31&#45;&gt;32 -->
<g id="edge32" class="edge">
<title>31&#45;&gt;32</title>
<path fill="none" stroke="#000000" d="M891.1502,-460.8796C891.0606,-450.2134 890.9639,-438.7021 890.8731,-427.9015"/>
<polygon fill="#000000" stroke="#000000" points="894.3724,-427.7851 890.7884,-417.8149 887.3726,-427.844 894.3724,-427.7851"/>
</g>
<!-- 33 -->
<g id="node34" class="node">
<title>33</title>
<path fill="#e58139" stroke="#000000" d="M1048,-417.5C1048,-417.5 971,-417.5 971,-417.5 965,-417.5 959,-411.5 959,-405.5 959,-405.5 959,-361.5 959,-361.5 959,-355.5 965,-349.5 971,-349.5 971,-349.5 1048,-349.5 1048,-349.5 1054,-349.5 1060,-355.5 1060,-361.5 1060,-361.5 1060,-405.5 1060,-405.5 1060,-411.5 1054,-417.5 1048,-417.5"/>
<text text-anchor="start" x="967" y="-402.3" font-family="Helvetica,sans-Serif" font-size="14.00" fill="#000000">entropy = 0.0</text>
<text text-anchor="start" x="970" y="-387.3" font-family="Helvetica,sans-Serif" font-size="14.00" fill="#000000">samples = 2</text>
<text text-anchor="start" x="968" y="-372.3" font-family="Helvetica,sans-Serif" font-size="14.00" fill="#000000">value = [2, 0]</text>
<text text-anchor="start" x="980.5" y="-357.3" font-family="Helvetica,sans-Serif" font-size="14.00" fill="#000000">class = 1</text>
</g>
<!-- 31&#45;&gt;33 -->
<g id="edge33" class="edge">
<title>31&#45;&gt;33</title>
<path fill="none" stroke="#000000" d="M932.7707,-460.8796C944.2195,-449.3337 956.6503,-436.7976 968.1062,-425.2446"/>
<polygon fill="#000000" stroke="#000000" points="970.9175,-427.3802 975.4734,-417.8149 965.9469,-422.4514 970.9175,-427.3802"/>
</g>
</g>
</svg>
