<?xml version="1.0" encoding="UTF-8" standalone="no"?>
<!DOCTYPE svg PUBLIC "-//W3C//DTD SVG 1.1//EN"
 "http://www.w3.org/Graphics/SVG/1.1/DTD/svg11.dtd">
<!-- Generated by graphviz version 2.40.1 (20161225.0304)
 -->
<!-- Title: Tree Pages: 1 -->
<svg width="1105pt" height="909pt"
 viewBox="0.00 0.00 1105.00 909.00" xmlns="http://www.w3.org/2000/svg" xmlns:xlink="http://www.w3.org/1999/xlink">
<g id="graph0" class="graph" transform="scale(1 1) rotate(0) translate(4 905)">
<title>Tree</title>
<polygon fill="#ffffff" stroke="transparent" points="-4,4 -4,-905 1101,-905 1101,4 -4,4"/>
<!-- 0 -->
<g id="node1" class="node">
<title>0</title>
<path fill="#fafdfe" stroke="#000000" d="M661.5,-901C661.5,-901 569.5,-901 569.5,-901 563.5,-901 557.5,-895 557.5,-889 557.5,-889 557.5,-830 557.5,-830 557.5,-824 563.5,-818 569.5,-818 569.5,-818 661.5,-818 661.5,-818 667.5,-818 673.5,-824 673.5,-830 673.5,-830 673.5,-889 673.5,-889 673.5,-895 667.5,-901 661.5,-901"/>
<text text-anchor="start" x="566.5" y="-885.8" font-family="Helvetica,sans-Serif" font-size="14.00" fill="#000000">Glucose ≤ 96.5</text>
<text text-anchor="start" x="586" y="-870.8" font-family="Helvetica,sans-Serif" font-size="14.00" fill="#000000">gini = 0.5</text>
<text text-anchor="start" x="571.5" y="-855.8" font-family="Helvetica,sans-Serif" font-size="14.00" fill="#000000">samples = 81</text>
<text text-anchor="start" x="565.5" y="-840.8" font-family="Helvetica,sans-Serif" font-size="14.00" fill="#000000">value = [40, 41]</text>
<text text-anchor="start" x="586.5" y="-825.8" font-family="Helvetica,sans-Serif" font-size="14.00" fill="#000000">class = 2</text>
</g>
<!-- 1 -->
<g id="node2" class="node">
<title>1</title>
<path fill="#f0b990" stroke="#000000" d="M599.5,-782C599.5,-782 495.5,-782 495.5,-782 489.5,-782 483.5,-776 483.5,-770 483.5,-770 483.5,-711 483.5,-711 483.5,-705 489.5,-699 495.5,-699 495.5,-699 599.5,-699 599.5,-699 605.5,-699 611.5,-705 611.5,-711 611.5,-711 611.5,-770 611.5,-770 611.5,-776 605.5,-782 599.5,-782"/>
<text text-anchor="start" x="491.5" y="-766.8" font-family="Helvetica,sans-Serif" font-size="14.00" fill="#000000">Resistin ≤ 13.248</text>
<text text-anchor="start" x="509.5" y="-751.8" font-family="Helvetica,sans-Serif" font-size="14.00" fill="#000000">gini = 0.425</text>
<text text-anchor="start" x="503.5" y="-736.8" font-family="Helvetica,sans-Serif" font-size="14.00" fill="#000000">samples = 49</text>
<text text-anchor="start" x="497.5" y="-721.8" font-family="Helvetica,sans-Serif" font-size="14.00" fill="#000000">value = [34, 15]</text>
<text text-anchor="start" x="518.5" y="-706.8" font-family="Helvetica,sans-Serif" font-size="14.00" fill="#000000">class = 1</text>
</g>
<!-- 0&#45;&gt;1 -->
<g id="edge1" class="edge">
<title>0&#45;&gt;1</title>
<path fill="none" stroke="#000000" d="M591.7169,-817.8796C586.7763,-809.2335 581.5184,-800.0322 576.4167,-791.1042"/>
<polygon fill="#000000" stroke="#000000" points="579.3849,-789.244 571.3846,-782.2981 573.3072,-792.717 579.3849,-789.244"/>
<text text-anchor="middle" x="564.8067" y="-802.7172" font-family="Helvetica,sans-Serif" font-size="14.00" fill="#000000">True</text>
</g>
<!-- 18 -->
<g id="node19" class="node">
<title>18</title>
<path fill="#67b4eb" stroke="#000000" d="M725.5,-782C725.5,-782 641.5,-782 641.5,-782 635.5,-782 629.5,-776 629.5,-770 629.5,-770 629.5,-711 629.5,-711 629.5,-705 635.5,-699 641.5,-699 641.5,-699 725.5,-699 725.5,-699 731.5,-699 737.5,-705 737.5,-711 737.5,-711 737.5,-770 737.5,-770 737.5,-776 731.5,-782 725.5,-782"/>
<text text-anchor="start" x="637.5" y="-766.8" font-family="Helvetica,sans-Serif" font-size="14.00" fill="#000000">Leptin ≤ 6.059</text>
<text text-anchor="start" x="645.5" y="-751.8" font-family="Helvetica,sans-Serif" font-size="14.00" fill="#000000">gini = 0.305</text>
<text text-anchor="start" x="639.5" y="-736.8" font-family="Helvetica,sans-Serif" font-size="14.00" fill="#000000">samples = 32</text>
<text text-anchor="start" x="638" y="-721.8" font-family="Helvetica,sans-Serif" font-size="14.00" fill="#000000">value = [6, 26]</text>
<text text-anchor="start" x="654.5" y="-706.8" font-family="Helvetica,sans-Serif" font-size="14.00" fill="#000000">class = 2</text>
</g>
<!-- 0&#45;&gt;18 -->
<g id="edge18" class="edge">
<title>0&#45;&gt;18</title>
<path fill="none" stroke="#000000" d="M639.2831,-817.8796C644.2237,-809.2335 649.4816,-800.0322 654.5833,-791.1042"/>
<polygon fill="#000000" stroke="#000000" points="657.6928,-792.717 659.6154,-782.2981 651.6151,-789.244 657.6928,-792.717"/>
<text text-anchor="middle" x="666.1933" y="-802.7172" font-family="Helvetica,sans-Serif" font-size="14.00" fill="#000000">False</text>
</g>
<!-- 2 -->
<g id="node3" class="node">
<title>2</title>
<path fill="#eb9d65" stroke="#000000" d="M468,-663C468,-663 373,-663 373,-663 367,-663 361,-657 361,-651 361,-651 361,-592 361,-592 361,-586 367,-580 373,-580 373,-580 468,-580 468,-580 474,-580 480,-586 480,-592 480,-592 480,-651 480,-651 480,-657 474,-663 468,-663"/>
<text text-anchor="start" x="369" y="-647.8" font-family="Helvetica,sans-Serif" font-size="14.00" fill="#000000">Insulin ≤ 15.352</text>
<text text-anchor="start" x="382.5" y="-632.8" font-family="Helvetica,sans-Serif" font-size="14.00" fill="#000000">gini = 0.298</text>
<text text-anchor="start" x="376.5" y="-617.8" font-family="Helvetica,sans-Serif" font-size="14.00" fill="#000000">samples = 33</text>
<text text-anchor="start" x="375" y="-602.8" font-family="Helvetica,sans-Serif" font-size="14.00" fill="#000000">value = [27, 6]</text>
<text text-anchor="start" x="391.5" y="-587.8" font-family="Helvetica,sans-Serif" font-size="14.00" fill="#000000">class = 1</text>
</g>
<!-- 1&#45;&gt;2 -->
<g id="edge2" class="edge">
<title>1&#45;&gt;2</title>
<path fill="none" stroke="#000000" d="M503.0816,-698.8796C493.1814,-689.6031 482.5991,-679.6874 472.4269,-670.1559"/>
<polygon fill="#000000" stroke="#000000" points="474.7984,-667.5816 465.108,-663.2981 470.0121,-672.6896 474.7984,-667.5816"/>
</g>
<!-- 15 -->
<g id="node16" class="node">
<title>15</title>
<path fill="#d3e9f9" stroke="#000000" d="M590.5,-663C590.5,-663 510.5,-663 510.5,-663 504.5,-663 498.5,-657 498.5,-651 498.5,-651 498.5,-592 498.5,-592 498.5,-586 504.5,-580 510.5,-580 510.5,-580 590.5,-580 590.5,-580 596.5,-580 602.5,-586 602.5,-592 602.5,-592 602.5,-651 602.5,-651 602.5,-657 596.5,-663 590.5,-663"/>
<text text-anchor="start" x="507.5" y="-647.8" font-family="Helvetica,sans-Serif" font-size="14.00" fill="#000000">BMI ≤ 29.972</text>
<text text-anchor="start" x="512.5" y="-632.8" font-family="Helvetica,sans-Serif" font-size="14.00" fill="#000000">gini = 0.492</text>
<text text-anchor="start" x="506.5" y="-617.8" font-family="Helvetica,sans-Serif" font-size="14.00" fill="#000000">samples = 16</text>
<text text-anchor="start" x="509" y="-602.8" font-family="Helvetica,sans-Serif" font-size="14.00" fill="#000000">value = [7, 9]</text>
<text text-anchor="start" x="521.5" y="-587.8" font-family="Helvetica,sans-Serif" font-size="14.00" fill="#000000">class = 2</text>
</g>
<!-- 1&#45;&gt;15 -->
<g id="edge15" class="edge">
<title>1&#45;&gt;15</title>
<path fill="none" stroke="#000000" d="M548.5493,-698.8796C548.7559,-690.6838 548.9751,-681.9891 549.189,-673.5013"/>
<polygon fill="#000000" stroke="#000000" points="552.693,-673.3831 549.4463,-663.2981 545.6953,-673.2067 552.693,-673.3831"/>
</g>
<!-- 3 -->
<g id="node4" class="node">
<title>3</title>
<path fill="#e99456" stroke="#000000" d="M344.5,-544C344.5,-544 260.5,-544 260.5,-544 254.5,-544 248.5,-538 248.5,-532 248.5,-532 248.5,-473 248.5,-473 248.5,-467 254.5,-461 260.5,-461 260.5,-461 344.5,-461 344.5,-461 350.5,-461 356.5,-467 356.5,-473 356.5,-473 356.5,-532 356.5,-532 356.5,-538 350.5,-544 344.5,-544"/>
<text text-anchor="start" x="256.5" y="-528.8" font-family="Helvetica,sans-Serif" font-size="14.00" fill="#000000">Leptin ≤ 47.33</text>
<text text-anchor="start" x="264.5" y="-513.8" font-family="Helvetica,sans-Serif" font-size="14.00" fill="#000000">gini = 0.225</text>
<text text-anchor="start" x="258.5" y="-498.8" font-family="Helvetica,sans-Serif" font-size="14.00" fill="#000000">samples = 31</text>
<text text-anchor="start" x="257" y="-483.8" font-family="Helvetica,sans-Serif" font-size="14.00" fill="#000000">value = [27, 4]</text>
<text text-anchor="start" x="273.5" y="-468.8" font-family="Helvetica,sans-Serif" font-size="14.00" fill="#000000">class = 1</text>
</g>
<!-- 2&#45;&gt;3 -->
<g id="edge3" class="edge">
<title>2&#45;&gt;3</title>
<path fill="none" stroke="#000000" d="M379.2293,-579.8796C370.1201,-570.6931 360.3892,-560.8798 351.0224,-551.4336"/>
<polygon fill="#000000" stroke="#000000" points="353.4733,-548.9345 343.9468,-544.2981 348.5027,-553.8634 353.4733,-548.9345"/>
</g>
<!-- 14 -->
<g id="node15" class="node">
<title>14</title>
<path fill="#399de5" stroke="#000000" d="M462,-536.5C462,-536.5 387,-536.5 387,-536.5 381,-536.5 375,-530.5 375,-524.5 375,-524.5 375,-480.5 375,-480.5 375,-474.5 381,-468.5 387,-468.5 387,-468.5 462,-468.5 462,-468.5 468,-468.5 474,-474.5 474,-480.5 474,-480.5 474,-524.5 474,-524.5 474,-530.5 468,-536.5 462,-536.5"/>
<text text-anchor="start" x="395" y="-521.3" font-family="Helvetica,sans-Serif" font-size="14.00" fill="#000000">gini = 0.0</text>
<text text-anchor="start" x="385" y="-506.3" font-family="Helvetica,sans-Serif" font-size="14.00" fill="#000000">samples = 2</text>
<text text-anchor="start" x="383" y="-491.3" font-family="Helvetica,sans-Serif" font-size="14.00" fill="#000000">value = [0, 2]</text>
<text text-anchor="start" x="395.5" y="-476.3" font-family="Helvetica,sans-Serif" font-size="14.00" fill="#000000">class = 2</text>
</g>
<!-- 2&#45;&gt;14 -->
<g id="edge14" class="edge">
<title>2&#45;&gt;14</title>
<path fill="none" stroke="#000000" d="M421.899,-579.8796C422.2575,-569.2134 422.6445,-557.7021 423.0075,-546.9015"/>
<polygon fill="#000000" stroke="#000000" points="426.5085,-546.9269 423.3466,-536.8149 419.5125,-546.6917 426.5085,-546.9269"/>
</g>
<!-- 4 -->
<g id="node5" class="node">
<title>4</title>
<path fill="#e88f4f" stroke="#000000" d="M288.5,-425C288.5,-425 184.5,-425 184.5,-425 178.5,-425 172.5,-419 172.5,-413 172.5,-413 172.5,-354 172.5,-354 172.5,-348 178.5,-342 184.5,-342 184.5,-342 288.5,-342 288.5,-342 294.5,-342 300.5,-348 300.5,-354 300.5,-354 300.5,-413 300.5,-413 300.5,-419 294.5,-425 288.5,-425"/>
<text text-anchor="start" x="180.5" y="-409.8" font-family="Helvetica,sans-Serif" font-size="14.00" fill="#000000">MCP.1 ≤ 209.469</text>
<text text-anchor="start" x="203" y="-394.8" font-family="Helvetica,sans-Serif" font-size="14.00" fill="#000000">gini = 0.18</text>
<text text-anchor="start" x="192.5" y="-379.8" font-family="Helvetica,sans-Serif" font-size="14.00" fill="#000000">samples = 30</text>
<text text-anchor="start" x="191" y="-364.8" font-family="Helvetica,sans-Serif" font-size="14.00" fill="#000000">value = [27, 3]</text>
<text text-anchor="start" x="207.5" y="-349.8" font-family="Helvetica,sans-Serif" font-size="14.00" fill="#000000">class = 1</text>
</g>
<!-- 3&#45;&gt;4 -->
<g id="edge4" class="edge">
<title>3&#45;&gt;4</title>
<path fill="none" stroke="#000000" d="M279.4164,-460.8796C274.6211,-452.2335 269.5178,-443.0322 264.5662,-434.1042"/>
<polygon fill="#000000" stroke="#000000" points="267.5931,-432.3455 259.6821,-425.2981 261.4716,-435.7407 267.5931,-432.3455"/>
</g>
<!-- 13 -->
<g id="node14" class="node">
<title>13</title>
<path fill="#399de5" stroke="#000000" d="M406,-417.5C406,-417.5 331,-417.5 331,-417.5 325,-417.5 319,-411.5 319,-405.5 319,-405.5 319,-361.5 319,-361.5 319,-355.5 325,-349.5 331,-349.5 331,-349.5 406,-349.5 406,-349.5 412,-349.5 418,-355.5 418,-361.5 418,-361.5 418,-405.5 418,-405.5 418,-411.5 412,-417.5 406,-417.5"/>
<text text-anchor="start" x="339" y="-402.3" font-family="Helvetica,sans-Serif" font-size="14.00" fill="#000000">gini = 0.0</text>
<text text-anchor="start" x="329" y="-387.3" font-family="Helvetica,sans-Serif" font-size="14.00" fill="#000000">samples = 1</text>
<text text-anchor="start" x="327" y="-372.3" font-family="Helvetica,sans-Serif" font-size="14.00" fill="#000000">value = [0, 1]</text>
<text text-anchor="start" x="339.5" y="-357.3" font-family="Helvetica,sans-Serif" font-size="14.00" fill="#000000">class = 2</text>
</g>
<!-- 3&#45;&gt;13 -->
<g id="edge13" class="edge">
<title>3&#45;&gt;13</title>
<path fill="none" stroke="#000000" d="M325.5836,-460.8796C331.7433,-449.7735 338.4111,-437.7513 344.6129,-426.5691"/>
<polygon fill="#000000" stroke="#000000" points="347.6787,-428.2576 349.4682,-417.8149 341.5572,-424.8624 347.6787,-428.2576"/>
</g>
<!-- 5 -->
<g id="node6" class="node">
<title>5</title>
<path fill="#f2c09c" stroke="#000000" d="M211.5,-306C211.5,-306 107.5,-306 107.5,-306 101.5,-306 95.5,-300 95.5,-294 95.5,-294 95.5,-235 95.5,-235 95.5,-229 101.5,-223 107.5,-223 107.5,-223 211.5,-223 211.5,-223 217.5,-223 223.5,-229 223.5,-235 223.5,-235 223.5,-294 223.5,-294 223.5,-300 217.5,-306 211.5,-306"/>
<text text-anchor="start" x="103.5" y="-290.8" font-family="Helvetica,sans-Serif" font-size="14.00" fill="#000000">MCP.1 ≤ 192.795</text>
<text text-anchor="start" x="121.5" y="-275.8" font-family="Helvetica,sans-Serif" font-size="14.00" fill="#000000">gini = 0.444</text>
<text text-anchor="start" x="120" y="-260.8" font-family="Helvetica,sans-Serif" font-size="14.00" fill="#000000">samples = 6</text>
<text text-anchor="start" x="118" y="-245.8" font-family="Helvetica,sans-Serif" font-size="14.00" fill="#000000">value = [4, 2]</text>
<text text-anchor="start" x="130.5" y="-230.8" font-family="Helvetica,sans-Serif" font-size="14.00" fill="#000000">class = 1</text>
</g>
<!-- 4&#45;&gt;5 -->
<g id="edge5" class="edge">
<title>4&#45;&gt;5</title>
<path fill="none" stroke="#000000" d="M209.5691,-341.8796C203.9163,-333.1434 197.8967,-323.8404 192.0634,-314.8253"/>
<polygon fill="#000000" stroke="#000000" points="194.9169,-312.7924 186.5458,-306.2981 189.0399,-316.5952 194.9169,-312.7924"/>
</g>
<!-- 8 -->
<g id="node9" class="node">
<title>8</title>
<path fill="#e68642" stroke="#000000" d="M375,-306C375,-306 254,-306 254,-306 248,-306 242,-300 242,-294 242,-294 242,-235 242,-235 242,-229 248,-223 254,-223 254,-223 375,-223 375,-223 381,-223 387,-229 387,-235 387,-235 387,-294 387,-294 387,-300 381,-306 375,-306"/>
<text text-anchor="start" x="250" y="-290.8" font-family="Helvetica,sans-Serif" font-size="14.00" fill="#000000">Adiponectin ≤ 3.986</text>
<text text-anchor="start" x="281" y="-275.8" font-family="Helvetica,sans-Serif" font-size="14.00" fill="#000000">gini = 0.08</text>
<text text-anchor="start" x="270.5" y="-260.8" font-family="Helvetica,sans-Serif" font-size="14.00" fill="#000000">samples = 24</text>
<text text-anchor="start" x="269" y="-245.8" font-family="Helvetica,sans-Serif" font-size="14.00" fill="#000000">value = [23, 1]</text>
<text text-anchor="start" x="285.5" y="-230.8" font-family="Helvetica,sans-Serif" font-size="14.00" fill="#000000">class = 1</text>
</g>
<!-- 4&#45;&gt;8 -->
<g id="edge8" class="edge">
<title>4&#45;&gt;8</title>
<path fill="none" stroke="#000000" d="M263.7806,-341.8796C269.5068,-333.1434 275.6046,-323.8404 281.5137,-314.8253"/>
<polygon fill="#000000" stroke="#000000" points="284.5482,-316.5803 287.1029,-306.2981 278.6937,-312.7429 284.5482,-316.5803"/>
</g>
<!-- 6 -->
<g id="node7" class="node">
<title>6</title>
<path fill="#e58139" stroke="#000000" d="M87,-179.5C87,-179.5 12,-179.5 12,-179.5 6,-179.5 0,-173.5 0,-167.5 0,-167.5 0,-123.5 0,-123.5 0,-117.5 6,-111.5 12,-111.5 12,-111.5 87,-111.5 87,-111.5 93,-111.5 99,-117.5 99,-123.5 99,-123.5 99,-167.5 99,-167.5 99,-173.5 93,-179.5 87,-179.5"/>
<text text-anchor="start" x="20" y="-164.3" font-family="Helvetica,sans-Serif" font-size="14.00" fill="#000000">gini = 0.0</text>
<text text-anchor="start" x="10" y="-149.3" font-family="Helvetica,sans-Serif" font-size="14.00" fill="#000000">samples = 4</text>
<text text-anchor="start" x="8" y="-134.3" font-family="Helvetica,sans-Serif" font-size="14.00" fill="#000000">value = [4, 0]</text>
<text text-anchor="start" x="20.5" y="-119.3" font-family="Helvetica,sans-Serif" font-size="14.00" fill="#000000">class = 1</text>
</g>
<!-- 5&#45;&gt;6 -->
<g id="edge6" class="edge">
<title>5&#45;&gt;6</title>
<path fill="none" stroke="#000000" d="M121.0273,-222.8796C110.3547,-211.3337 98.7667,-198.7976 88.0875,-187.2446"/>
<polygon fill="#000000" stroke="#000000" points="90.5778,-184.7825 81.2197,-179.8149 85.4375,-189.534 90.5778,-184.7825"/>
</g>
<!-- 7 -->
<g id="node8" class="node">
<title>7</title>
<path fill="#399de5" stroke="#000000" d="M204,-179.5C204,-179.5 129,-179.5 129,-179.5 123,-179.5 117,-173.5 117,-167.5 117,-167.5 117,-123.5 117,-123.5 117,-117.5 123,-111.5 129,-111.5 129,-111.5 204,-111.5 204,-111.5 210,-111.5 216,-117.5 216,-123.5 216,-123.5 216,-167.5 216,-167.5 216,-173.5 210,-179.5 204,-179.5"/>
<text text-anchor="start" x="137" y="-164.3" font-family="Helvetica,sans-Serif" font-size="14.00" fill="#000000">gini = 0.0</text>
<text text-anchor="start" x="127" y="-149.3" font-family="Helvetica,sans-Serif" font-size="14.00" fill="#000000">samples = 2</text>
<text text-anchor="start" x="125" y="-134.3" font-family="Helvetica,sans-Serif" font-size="14.00" fill="#000000">value = [0, 2]</text>
<text text-anchor="start" x="137.5" y="-119.3" font-family="Helvetica,sans-Serif" font-size="14.00" fill="#000000">class = 2</text>
</g>
<!-- 5&#45;&gt;7 -->
<g id="edge7" class="edge">
<title>5&#45;&gt;7</title>
<path fill="none" stroke="#000000" d="M161.9483,-222.8796C162.5757,-212.2134 163.2528,-200.7021 163.8881,-189.9015"/>
<polygon fill="#000000" stroke="#000000" points="167.3881,-190.0032 164.4815,-179.8149 160.4002,-189.5921 167.3881,-190.0032"/>
</g>
<!-- 9 -->
<g id="node10" class="node">
<title>9</title>
<path fill="#ffffff" stroke="#000000" d="M355.5,-187C355.5,-187 259.5,-187 259.5,-187 253.5,-187 247.5,-181 247.5,-175 247.5,-175 247.5,-116 247.5,-116 247.5,-110 253.5,-104 259.5,-104 259.5,-104 355.5,-104 355.5,-104 361.5,-104 367.5,-110 367.5,-116 367.5,-116 367.5,-175 367.5,-175 367.5,-181 361.5,-187 355.5,-187"/>
<text text-anchor="start" x="255.5" y="-171.8" font-family="Helvetica,sans-Serif" font-size="14.00" fill="#000000">Resistin ≤ 10.36</text>
<text text-anchor="start" x="278" y="-156.8" font-family="Helvetica,sans-Serif" font-size="14.00" fill="#000000">gini = 0.5</text>
<text text-anchor="start" x="268" y="-141.8" font-family="Helvetica,sans-Serif" font-size="14.00" fill="#000000">samples = 2</text>
<text text-anchor="start" x="266" y="-126.8" font-family="Helvetica,sans-Serif" font-size="14.00" fill="#000000">value = [1, 1]</text>
<text text-anchor="start" x="278.5" y="-111.8" font-family="Helvetica,sans-Serif" font-size="14.00" fill="#000000">class = 1</text>
</g>
<!-- 8&#45;&gt;9 -->
<g id="edge9" class="edge">
<title>8&#45;&gt;9</title>
<path fill="none" stroke="#000000" d="M312.0517,-222.8796C311.5696,-214.6838 311.0582,-205.9891 310.5589,-197.5013"/>
<polygon fill="#000000" stroke="#000000" points="314.04,-197.0753 309.9587,-187.2981 307.0521,-197.4864 314.04,-197.0753"/>
</g>
<!-- 12 -->
<g id="node13" class="node">
<title>12</title>
<path fill="#e58139" stroke="#000000" d="M481,-179.5C481,-179.5 398,-179.5 398,-179.5 392,-179.5 386,-173.5 386,-167.5 386,-167.5 386,-123.5 386,-123.5 386,-117.5 392,-111.5 398,-111.5 398,-111.5 481,-111.5 481,-111.5 487,-111.5 493,-117.5 493,-123.5 493,-123.5 493,-167.5 493,-167.5 493,-173.5 487,-179.5 481,-179.5"/>
<text text-anchor="start" x="410" y="-164.3" font-family="Helvetica,sans-Serif" font-size="14.00" fill="#000000">gini = 0.0</text>
<text text-anchor="start" x="395.5" y="-149.3" font-family="Helvetica,sans-Serif" font-size="14.00" fill="#000000">samples = 22</text>
<text text-anchor="start" x="394" y="-134.3" font-family="Helvetica,sans-Serif" font-size="14.00" fill="#000000">value = [22, 0]</text>
<text text-anchor="start" x="410.5" y="-119.3" font-family="Helvetica,sans-Serif" font-size="14.00" fill="#000000">class = 1</text>
</g>
<!-- 8&#45;&gt;12 -->
<g id="edge12" class="edge">
<title>8&#45;&gt;12</title>
<path fill="none" stroke="#000000" d="M358.2189,-222.8796C370.4625,-211.2237 383.7661,-198.5587 395.9971,-186.9148"/>
<polygon fill="#000000" stroke="#000000" points="398.6254,-189.245 403.4549,-179.8149 393.7988,-184.1751 398.6254,-189.245"/>
</g>
<!-- 10 -->
<g id="node11" class="node">
<title>10</title>
<path fill="#399de5" stroke="#000000" d="M287,-68C287,-68 212,-68 212,-68 206,-68 200,-62 200,-56 200,-56 200,-12 200,-12 200,-6 206,0 212,0 212,0 287,0 287,0 293,0 299,-6 299,-12 299,-12 299,-56 299,-56 299,-62 293,-68 287,-68"/>
<text text-anchor="start" x="220" y="-52.8" font-family="Helvetica,sans-Serif" font-size="14.00" fill="#000000">gini = 0.0</text>
<text text-anchor="start" x="210" y="-37.8" font-family="Helvetica,sans-Serif" font-size="14.00" fill="#000000">samples = 1</text>
<text text-anchor="start" x="208" y="-22.8" font-family="Helvetica,sans-Serif" font-size="14.00" fill="#000000">value = [0, 1]</text>
<text text-anchor="start" x="220.5" y="-7.8" font-family="Helvetica,sans-Serif" font-size="14.00" fill="#000000">class = 2</text>
</g>
<!-- 9&#45;&gt;10 -->
<g id="edge10" class="edge">
<title>9&#45;&gt;10</title>
<path fill="none" stroke="#000000" d="M285.9029,-103.9815C281.3612,-95.2504 276.5598,-86.0202 271.9863,-77.2281"/>
<polygon fill="#000000" stroke="#000000" points="275.0431,-75.52 267.3233,-68.2637 268.8331,-78.7504 275.0431,-75.52"/>
</g>
<!-- 11 -->
<g id="node12" class="node">
<title>11</title>
<path fill="#e58139" stroke="#000000" d="M404,-68C404,-68 329,-68 329,-68 323,-68 317,-62 317,-56 317,-56 317,-12 317,-12 317,-6 323,0 329,0 329,0 404,0 404,0 410,0 416,-6 416,-12 416,-12 416,-56 416,-56 416,-62 410,-68 404,-68"/>
<text text-anchor="start" x="337" y="-52.8" font-family="Helvetica,sans-Serif" font-size="14.00" fill="#000000">gini = 0.0</text>
<text text-anchor="start" x="327" y="-37.8" font-family="Helvetica,sans-Serif" font-size="14.00" fill="#000000">samples = 1</text>
<text text-anchor="start" x="325" y="-22.8" font-family="Helvetica,sans-Serif" font-size="14.00" fill="#000000">value = [1, 0]</text>
<text text-anchor="start" x="337.5" y="-7.8" font-family="Helvetica,sans-Serif" font-size="14.00" fill="#000000">class = 1</text>
</g>
<!-- 9&#45;&gt;11 -->
<g id="edge11" class="edge">
<title>9&#45;&gt;11</title>
<path fill="none" stroke="#000000" d="M329.4694,-103.9815C334.0895,-95.2504 338.9736,-86.0202 343.626,-77.2281"/>
<polygon fill="#000000" stroke="#000000" points="346.7859,-78.7395 348.3694,-68.2637 340.5987,-75.4655 346.7859,-78.7395"/>
</g>
<!-- 16 -->
<g id="node17" class="node">
<title>16</title>
<path fill="#399de5" stroke="#000000" d="M585,-536.5C585,-536.5 510,-536.5 510,-536.5 504,-536.5 498,-530.5 498,-524.5 498,-524.5 498,-480.5 498,-480.5 498,-474.5 504,-468.5 510,-468.5 510,-468.5 585,-468.5 585,-468.5 591,-468.5 597,-474.5 597,-480.5 597,-480.5 597,-524.5 597,-524.5 597,-530.5 591,-536.5 585,-536.5"/>
<text text-anchor="start" x="518" y="-521.3" font-family="Helvetica,sans-Serif" font-size="14.00" fill="#000000">gini = 0.0</text>
<text text-anchor="start" x="508" y="-506.3" font-family="Helvetica,sans-Serif" font-size="14.00" fill="#000000">samples = 9</text>
<text text-anchor="start" x="506" y="-491.3" font-family="Helvetica,sans-Serif" font-size="14.00" fill="#000000">value = [0, 9]</text>
<text text-anchor="start" x="518.5" y="-476.3" font-family="Helvetica,sans-Serif" font-size="14.00" fill="#000000">class = 2</text>
</g>
<!-- 15&#45;&gt;16 -->
<g id="edge16" class="edge">
<title>15&#45;&gt;16</title>
<path fill="none" stroke="#000000" d="M549.4507,-579.8796C549.1818,-569.2134 548.8916,-557.7021 548.6194,-546.9015"/>
<polygon fill="#000000" stroke="#000000" points="552.1161,-546.7235 548.3651,-536.8149 545.1183,-546.9 552.1161,-546.7235"/>
</g>
<!-- 17 -->
<g id="node18" class="node">
<title>17</title>
<path fill="#e58139" stroke="#000000" d="M702,-536.5C702,-536.5 627,-536.5 627,-536.5 621,-536.5 615,-530.5 615,-524.5 615,-524.5 615,-480.5 615,-480.5 615,-474.5 621,-468.5 627,-468.5 627,-468.5 702,-468.5 702,-468.5 708,-468.5 714,-474.5 714,-480.5 714,-480.5 714,-524.5 714,-524.5 714,-530.5 708,-536.5 702,-536.5"/>
<text text-anchor="start" x="635" y="-521.3" font-family="Helvetica,sans-Serif" font-size="14.00" fill="#000000">gini = 0.0</text>
<text text-anchor="start" x="625" y="-506.3" font-family="Helvetica,sans-Serif" font-size="14.00" fill="#000000">samples = 7</text>
<text text-anchor="start" x="623" y="-491.3" font-family="Helvetica,sans-Serif" font-size="14.00" fill="#000000">value = [7, 0]</text>
<text text-anchor="start" x="635.5" y="-476.3" font-family="Helvetica,sans-Serif" font-size="14.00" fill="#000000">class = 1</text>
</g>
<!-- 15&#45;&gt;17 -->
<g id="edge17" class="edge">
<title>15&#45;&gt;17</title>
<path fill="none" stroke="#000000" d="M590.3717,-579.8796C601.4324,-568.3337 613.4418,-555.7976 624.5094,-544.2446"/>
<polygon fill="#000000" stroke="#000000" points="627.2365,-546.4573 631.6269,-536.8149 622.1817,-541.6149 627.2365,-546.4573"/>
</g>
<!-- 19 -->
<g id="node20" class="node">
<title>19</title>
<path fill="#e58139" stroke="#000000" d="M716,-655.5C716,-655.5 641,-655.5 641,-655.5 635,-655.5 629,-649.5 629,-643.5 629,-643.5 629,-599.5 629,-599.5 629,-593.5 635,-587.5 641,-587.5 641,-587.5 716,-587.5 716,-587.5 722,-587.5 728,-593.5 728,-599.5 728,-599.5 728,-643.5 728,-643.5 728,-649.5 722,-655.5 716,-655.5"/>
<text text-anchor="start" x="649" y="-640.3" font-family="Helvetica,sans-Serif" font-size="14.00" fill="#000000">gini = 0.0</text>
<text text-anchor="start" x="639" y="-625.3" font-family="Helvetica,sans-Serif" font-size="14.00" fill="#000000">samples = 2</text>
<text text-anchor="start" x="637" y="-610.3" font-family="Helvetica,sans-Serif" font-size="14.00" fill="#000000">value = [2, 0]</text>
<text text-anchor="start" x="649.5" y="-595.3" font-family="Helvetica,sans-Serif" font-size="14.00" fill="#000000">class = 1</text>
</g>
<!-- 18&#45;&gt;19 -->
<g id="edge19" class="edge">
<title>18&#45;&gt;19</title>
<path fill="none" stroke="#000000" d="M681.7512,-698.8796C681.3031,-688.2134 680.8194,-676.7021 680.3656,-665.9015"/>
<polygon fill="#000000" stroke="#000000" points="683.8586,-665.6592 679.9418,-655.8149 676.8648,-665.9531 683.8586,-665.6592"/>
</g>
<!-- 20 -->
<g id="node21" class="node">
<title>20</title>
<path fill="#57ace9" stroke="#000000" d="M841,-663C841,-663 758,-663 758,-663 752,-663 746,-657 746,-651 746,-651 746,-592 746,-592 746,-586 752,-580 758,-580 758,-580 841,-580 841,-580 847,-580 853,-586 853,-592 853,-592 853,-651 853,-651 853,-657 847,-663 841,-663"/>
<text text-anchor="start" x="756.5" y="-647.8" font-family="Helvetica,sans-Serif" font-size="14.00" fill="#000000">BMI ≤ 33.777</text>
<text text-anchor="start" x="761.5" y="-632.8" font-family="Helvetica,sans-Serif" font-size="14.00" fill="#000000">gini = 0.231</text>
<text text-anchor="start" x="755.5" y="-617.8" font-family="Helvetica,sans-Serif" font-size="14.00" fill="#000000">samples = 30</text>
<text text-anchor="start" x="754" y="-602.8" font-family="Helvetica,sans-Serif" font-size="14.00" fill="#000000">value = [4, 26]</text>
<text text-anchor="start" x="770.5" y="-587.8" font-family="Helvetica,sans-Serif" font-size="14.00" fill="#000000">class = 2</text>
</g>
<!-- 18&#45;&gt;20 -->
<g id="edge20" class="edge">
<title>18&#45;&gt;20</title>
<path fill="none" stroke="#000000" d="M724.0712,-698.8796C732.9382,-689.7832 742.4044,-680.0722 751.5291,-670.7116"/>
<polygon fill="#000000" stroke="#000000" points="754.2817,-672.9019 758.7557,-663.2981 749.2691,-668.0158 754.2817,-672.9019"/>
</g>
<!-- 21 -->
<g id="node22" class="node">
<title>21</title>
<path fill="#42a1e6" stroke="#000000" d="M845,-544C845,-544 750,-544 750,-544 744,-544 738,-538 738,-532 738,-532 738,-473 738,-473 738,-467 744,-461 750,-461 750,-461 845,-461 845,-461 851,-461 857,-467 857,-473 857,-473 857,-532 857,-532 857,-538 851,-544 845,-544"/>
<text text-anchor="start" x="746" y="-528.8" font-family="Helvetica,sans-Serif" font-size="14.00" fill="#000000">MCP.1 ≤ 67.966</text>
<text text-anchor="start" x="764" y="-513.8" font-family="Helvetica,sans-Serif" font-size="14.00" fill="#000000">gini = 0.08</text>
<text text-anchor="start" x="753.5" y="-498.8" font-family="Helvetica,sans-Serif" font-size="14.00" fill="#000000">samples = 24</text>
<text text-anchor="start" x="752" y="-483.8" font-family="Helvetica,sans-Serif" font-size="14.00" fill="#000000">value = [1, 23]</text>
<text text-anchor="start" x="768.5" y="-468.8" font-family="Helvetica,sans-Serif" font-size="14.00" fill="#000000">class = 2</text>
</g>
<!-- 20&#45;&gt;21 -->
<g id="edge21" class="edge">
<title>20&#45;&gt;21</title>
<path fill="none" stroke="#000000" d="M798.8005,-579.8796C798.6628,-571.6838 798.5166,-562.9891 798.374,-554.5013"/>
<polygon fill="#000000" stroke="#000000" points="801.8701,-554.2378 798.2025,-544.2981 794.8711,-554.3555 801.8701,-554.2378"/>
</g>
<!-- 24 -->
<g id="node25" class="node">
<title>24</title>
<path fill="#ffffff" stroke="#000000" d="M983.5,-544C983.5,-544 887.5,-544 887.5,-544 881.5,-544 875.5,-538 875.5,-532 875.5,-532 875.5,-473 875.5,-473 875.5,-467 881.5,-461 887.5,-461 887.5,-461 983.5,-461 983.5,-461 989.5,-461 995.5,-467 995.5,-473 995.5,-473 995.5,-532 995.5,-532 995.5,-538 989.5,-544 983.5,-544"/>
<text text-anchor="start" x="883.5" y="-528.8" font-family="Helvetica,sans-Serif" font-size="14.00" fill="#000000">Resistin ≤ 9.338</text>
<text text-anchor="start" x="906" y="-513.8" font-family="Helvetica,sans-Serif" font-size="14.00" fill="#000000">gini = 0.5</text>
<text text-anchor="start" x="896" y="-498.8" font-family="Helvetica,sans-Serif" font-size="14.00" fill="#000000">samples = 6</text>
<text text-anchor="start" x="894" y="-483.8" font-family="Helvetica,sans-Serif" font-size="14.00" fill="#000000">value = [3, 3]</text>
<text text-anchor="start" x="906.5" y="-468.8" font-family="Helvetica,sans-Serif" font-size="14.00" fill="#000000">class = 1</text>
</g>
<!-- 20&#45;&gt;24 -->
<g id="edge24" class="edge">
<title>20&#45;&gt;24</title>
<path fill="none" stroke="#000000" d="M847.0662,-579.8796C857.6679,-570.6031 869.0002,-560.6874 879.8933,-551.1559"/>
<polygon fill="#000000" stroke="#000000" points="882.5098,-553.5172 887.7308,-544.2981 877.9002,-548.2491 882.5098,-553.5172"/>
</g>
<!-- 22 -->
<g id="node23" class="node">
<title>22</title>
<path fill="#e58139" stroke="#000000" d="M718,-417.5C718,-417.5 643,-417.5 643,-417.5 637,-417.5 631,-411.5 631,-405.5 631,-405.5 631,-361.5 631,-361.5 631,-355.5 637,-349.5 643,-349.5 643,-349.5 718,-349.5 718,-349.5 724,-349.5 730,-355.5 730,-361.5 730,-361.5 730,-405.5 730,-405.5 730,-411.5 724,-417.5 718,-417.5"/>
<text text-anchor="start" x="651" y="-402.3" font-family="Helvetica,sans-Serif" font-size="14.00" fill="#000000">gini = 0.0</text>
<text text-anchor="start" x="641" y="-387.3" font-family="Helvetica,sans-Serif" font-size="14.00" fill="#000000">samples = 1</text>
<text text-anchor="start" x="639" y="-372.3" font-family="Helvetica,sans-Serif" font-size="14.00" fill="#000000">value = [1, 0]</text>
<text text-anchor="start" x="651.5" y="-357.3" font-family="Helvetica,sans-Serif" font-size="14.00" fill="#000000">class = 1</text>
</g>
<!-- 21&#45;&gt;22 -->
<g id="edge22" class="edge">
<title>21&#45;&gt;22</title>
<path fill="none" stroke="#000000" d="M756.5791,-460.8796C745.2272,-449.3337 732.9018,-436.7976 721.543,-425.2446"/>
<polygon fill="#000000" stroke="#000000" points="723.7449,-422.4919 714.2382,-417.8149 718.7534,-427.3995 723.7449,-422.4919"/>
</g>
<!-- 23 -->
<g id="node24" class="node">
<title>23</title>
<path fill="#399de5" stroke="#000000" d="M843,-417.5C843,-417.5 760,-417.5 760,-417.5 754,-417.5 748,-411.5 748,-405.5 748,-405.5 748,-361.5 748,-361.5 748,-355.5 754,-349.5 760,-349.5 760,-349.5 843,-349.5 843,-349.5 849,-349.5 855,-355.5 855,-361.5 855,-361.5 855,-405.5 855,-405.5 855,-411.5 849,-417.5 843,-417.5"/>
<text text-anchor="start" x="772" y="-402.3" font-family="Helvetica,sans-Serif" font-size="14.00" fill="#000000">gini = 0.0</text>
<text text-anchor="start" x="757.5" y="-387.3" font-family="Helvetica,sans-Serif" font-size="14.00" fill="#000000">samples = 23</text>
<text text-anchor="start" x="756" y="-372.3" font-family="Helvetica,sans-Serif" font-size="14.00" fill="#000000">value = [0, 23]</text>
<text text-anchor="start" x="772.5" y="-357.3" font-family="Helvetica,sans-Serif" font-size="14.00" fill="#000000">class = 2</text>
</g>
<!-- 21&#45;&gt;23 -->
<g id="edge23" class="edge">
<title>21&#45;&gt;23</title>
<path fill="none" stroke="#000000" d="M798.899,-460.8796C799.2575,-450.2134 799.6445,-438.7021 800.0075,-427.9015"/>
<polygon fill="#000000" stroke="#000000" points="803.5085,-427.9269 800.3466,-417.8149 796.5125,-427.6917 803.5085,-427.9269"/>
</g>
<!-- 25 -->
<g id="node26" class="node">
<title>25</title>
<path fill="#399de5" stroke="#000000" d="M968,-417.5C968,-417.5 893,-417.5 893,-417.5 887,-417.5 881,-411.5 881,-405.5 881,-405.5 881,-361.5 881,-361.5 881,-355.5 887,-349.5 893,-349.5 893,-349.5 968,-349.5 968,-349.5 974,-349.5 980,-355.5 980,-361.5 980,-361.5 980,-405.5 980,-405.5 980,-411.5 974,-417.5 968,-417.5"/>
<text text-anchor="start" x="901" y="-402.3" font-family="Helvetica,sans-Serif" font-size="14.00" fill="#000000">gini = 0.0</text>
<text text-anchor="start" x="891" y="-387.3" font-family="Helvetica,sans-Serif" font-size="14.00" fill="#000000">samples = 3</text>
<text text-anchor="start" x="889" y="-372.3" font-family="Helvetica,sans-Serif" font-size="14.00" fill="#000000">value = [0, 3]</text>
<text text-anchor="start" x="901.5" y="-357.3" font-family="Helvetica,sans-Serif" font-size="14.00" fill="#000000">class = 2</text>
</g>
<!-- 24&#45;&gt;25 -->
<g id="edge25" class="edge">
<title>24&#45;&gt;25</title>
<path fill="none" stroke="#000000" d="M933.7512,-460.8796C933.3031,-450.2134 932.8194,-438.7021 932.3656,-427.9015"/>
<polygon fill="#000000" stroke="#000000" points="935.8586,-427.6592 931.9418,-417.8149 928.8648,-427.9531 935.8586,-427.6592"/>
</g>
<!-- 26 -->
<g id="node27" class="node">
<title>26</title>
<path fill="#e58139" stroke="#000000" d="M1085,-417.5C1085,-417.5 1010,-417.5 1010,-417.5 1004,-417.5 998,-411.5 998,-405.5 998,-405.5 998,-361.5 998,-361.5 998,-355.5 1004,-349.5 1010,-349.5 1010,-349.5 1085,-349.5 1085,-349.5 1091,-349.5 1097,-355.5 1097,-361.5 1097,-361.5 1097,-405.5 1097,-405.5 1097,-411.5 1091,-417.5 1085,-417.5"/>
<text text-anchor="start" x="1018" y="-402.3" font-family="Helvetica,sans-Serif" font-size="14.00" fill="#000000">gini = 0.0</text>
<text text-anchor="start" x="1008" y="-387.3" font-family="Helvetica,sans-Serif" font-size="14.00" fill="#000000">samples = 3</text>
<text text-anchor="start" x="1006" y="-372.3" font-family="Helvetica,sans-Serif" font-size="14.00" fill="#000000">value = [3, 0]</text>
<text text-anchor="start" x="1018.5" y="-357.3" font-family="Helvetica,sans-Serif" font-size="14.00" fill="#000000">class = 1</text>
</g>
<!-- 24&#45;&gt;26 -->
<g id="edge26" class="edge">
<title>24&#45;&gt;26</title>
<path fill="none" stroke="#000000" d="M974.6722,-460.8796C985.5389,-449.3337 997.3376,-436.7976 1008.2109,-425.2446"/>
<polygon fill="#000000" stroke="#000000" points="1010.8986,-427.4958 1015.2036,-417.8149 1005.8012,-422.6982 1010.8986,-427.4958"/>
</g>
</g>
</svg>
