<?xml version="1.0" encoding="UTF-8" standalone="no"?>
<!DOCTYPE svg PUBLIC "-//W3C//DTD SVG 1.1//EN"
 "http://www.w3.org/Graphics/SVG/1.1/DTD/svg11.dtd">
<!-- Generated by graphviz version 2.40.1 (20161225.0304)
 -->
<!-- Title: Tree Pages: 1 -->
<svg width="1106pt" height="909pt"
 viewBox="0.00 0.00 1106.00 909.00" xmlns="http://www.w3.org/2000/svg" xmlns:xlink="http://www.w3.org/1999/xlink">
<g id="graph0" class="graph" transform="scale(1 1) rotate(0) translate(4 905)">
<title>Tree</title>
<polygon fill="#ffffff" stroke="transparent" points="-4,4 -4,-905 1102,-905 1102,4 -4,4"/>
<!-- 0 -->
<g id="node1" class="node">
<title>0</title>
<path fill="#fafdfe" stroke="#000000" d="M661.5,-901C661.5,-901 569.5,-901 569.5,-901 563.5,-901 557.5,-895 557.5,-889 557.5,-889 557.5,-830 557.5,-830 557.5,-824 563.5,-818 569.5,-818 569.5,-818 661.5,-818 661.5,-818 667.5,-818 673.5,-824 673.5,-830 673.5,-830 673.5,-889 673.5,-889 673.5,-895 667.5,-901 661.5,-901"/>
<text text-anchor="start" x="566.5" y="-885.8" font-family="Helvetica,sans-Serif" font-size="14.00" fill="#000000">Glucose ≤ 96.5</text>
<text text-anchor="start" x="586" y="-870.8" font-family="Helvetica,sans-Serif" font-size="14.00" fill="#000000">gini = 0.5</text>
<text text-anchor="start" x="571.5" y="-855.8" font-family="Helvetica,sans-Serif" font-size="14.00" fill="#000000">samples = 81</text>
<text text-anchor="start" x="565.5" y="-840.8" font-family="Helvetica,sans-Serif" font-size="14.00" fill="#000000">value = [40, 41]</text>
<text text-anchor="start" x="586.5" y="-825.8" font-family="Helvetica,sans-Serif" font-size="14.00" fill="#000000">class = 2</text>
</g>
<!-- 1 -->
<g id="node2" class="node">
<title>1</title>
<path fill="#f0b990" stroke="#000000" d="M599.5,-782C599.5,-782 495.5,-782 495.5,-782 489.5,-782 483.5,-776 483.5,-770 483.5,-770 483.5,-711 483.5,-711 483.5,-705 489.5,-699 495.5,-699 495.5,-699 599.5,-699 599.5,-699 605.5,-699 611.5,-705 611.5,-711 611.5,-711 611.5,-770 611.5,-770 611.5,-776 605.5,-782 599.5,-782"/>
<text text-anchor="start" x="491.5" y="-766.8" font-family="Helvetica,sans-Serif" font-size="14.00" fill="#000000">Resistin ≤ 13.248</text>
<text text-anchor="start" x="509.5" y="-751.8" font-family="Helvetica,sans-Serif" font-size="14.00" fill="#000000">gini = 0.425</text>
<text text-anchor="start" x="503.5" y="-736.8" font-family="Helvetica,sans-Serif" font-size="14.00" fill="#000000">samples = 49</text>
<text text-anchor="start" x="497.5" y="-721.8" font-family="Helvetica,sans-Serif" font-size="14.00" fill="#000000">value = [34, 15]</text>
<text text-anchor="start" x="518.5" y="-706.8" font-family="Helvetica,sans-Serif" font-size="14.00" fill="#000000">class = 1</text>
</g>
<!-- 0&#45;&gt;1 -->
<g id="edge1" class="edge">
<title>0&#45;&gt;1</title>
<path fill="none" stroke="#000000" d="M591.7169,-817.8796C586.7763,-809.2335 581.5184,-800.0322 576.4167,-791.1042"/>
<polygon fill="#000000" stroke="#000000" points="579.3849,-789.244 571.3846,-782.2981 573.3072,-792.717 579.3849,-789.244"/>
<text text-anchor="middle" x="564.8067" y="-802.7172" font-family="Helvetica,sans-Serif" font-size="14.00" fill="#000000">True</text>
</g>
<!-- 18 -->
<g id="node19" class="node">
<title>18</title>
<path fill="#67b4eb" stroke="#000000" d="M725.5,-782C725.5,-782 641.5,-782 641.5,-782 635.5,-782 629.5,-776 629.5,-770 629.5,-770 629.5,-711 629.5,-711 629.5,-705 635.5,-699 641.5,-699 641.5,-699 725.5,-699 725.5,-699 731.5,-699 737.5,-705 737.5,-711 737.5,-711 737.5,-770 737.5,-770 737.5,-776 731.5,-782 725.5,-782"/>
<text text-anchor="start" x="637.5" y="-766.8" font-family="Helvetica,sans-Serif" font-size="14.00" fill="#000000">Leptin ≤ 6.059</text>
<text text-anchor="start" x="645.5" y="-751.8" font-family="Helvetica,sans-Serif" font-size="14.00" fill="#000000">gini = 0.305</text>
<text text-anchor="start" x="639.5" y="-736.8" font-family="Helvetica,sans-Serif" font-size="14.00" fill="#000000">samples = 32</text>
<text text-anchor="start" x="638" y="-721.8" font-family="Helvetica,sans-Serif" font-size="14.00" fill="#000000">value = [6, 26]</text>
<text text-anchor="start" x="654.5" y="-706.8" font-family="Helvetica,sans-Serif" font-size="14.00" fill="#000000">class = 2</text>
</g>
<!-- 0&#45;&gt;18 -->
<g id="edge18" class="edge">
<title>0&#45;&gt;18</title>
<path fill="none" stroke="#000000" d="M639.2831,-817.8796C644.2237,-809.2335 649.4816,-800.0322 654.5833,-791.1042"/>
<polygon fill="#000000" stroke="#000000" points="657.6928,-792.717 659.6154,-782.2981 651.6151,-789.244 657.6928,-792.717"/>
<text text-anchor="middle" x="666.1933" y="-802.7172" font-family="Helvetica,sans-Serif" font-size="14.00" fill="#000000">False</text>
</g>
<!-- 2 -->
<g id="node3" class="node">
<title>2</title>
<path fill="#eb9d65" stroke="#000000" d="M468,-663C468,-663 381,-663 381,-663 375,-663 369,-657 369,-651 369,-651 369,-592 369,-592 369,-586 375,-580 381,-580 381,-580 468,-580 468,-580 474,-580 480,-586 480,-592 480,-592 480,-651 480,-651 480,-657 474,-663 468,-663"/>
<text text-anchor="start" x="377" y="-647.8" font-family="Helvetica,sans-Serif" font-size="14.00" fill="#000000">HOMA ≤ 3.519</text>
<text text-anchor="start" x="386.5" y="-632.8" font-family="Helvetica,sans-Serif" font-size="14.00" fill="#000000">gini = 0.298</text>
<text text-anchor="start" x="380.5" y="-617.8" font-family="Helvetica,sans-Serif" font-size="14.00" fill="#000000">samples = 33</text>
<text text-anchor="start" x="379" y="-602.8" font-family="Helvetica,sans-Serif" font-size="14.00" fill="#000000">value = [27, 6]</text>
<text text-anchor="start" x="395.5" y="-587.8" font-family="Helvetica,sans-Serif" font-size="14.00" fill="#000000">class = 1</text>
</g>
<!-- 1&#45;&gt;2 -->
<g id="edge2" class="edge">
<title>1&#45;&gt;2</title>
<path fill="none" stroke="#000000" d="M504.4806,-698.8796C494.9853,-689.6931 484.8422,-679.8798 475.0785,-670.4336"/>
<polygon fill="#000000" stroke="#000000" points="477.3237,-667.7359 467.703,-663.2981 472.4564,-672.7668 477.3237,-667.7359"/>
</g>
<!-- 15 -->
<g id="node16" class="node">
<title>15</title>
<path fill="#d3e9f9" stroke="#000000" d="M590.5,-663C590.5,-663 510.5,-663 510.5,-663 504.5,-663 498.5,-657 498.5,-651 498.5,-651 498.5,-592 498.5,-592 498.5,-586 504.5,-580 510.5,-580 510.5,-580 590.5,-580 590.5,-580 596.5,-580 602.5,-586 602.5,-592 602.5,-592 602.5,-651 602.5,-651 602.5,-657 596.5,-663 590.5,-663"/>
<text text-anchor="start" x="507.5" y="-647.8" font-family="Helvetica,sans-Serif" font-size="14.00" fill="#000000">BMI ≤ 29.972</text>
<text text-anchor="start" x="512.5" y="-632.8" font-family="Helvetica,sans-Serif" font-size="14.00" fill="#000000">gini = 0.492</text>
<text text-anchor="start" x="506.5" y="-617.8" font-family="Helvetica,sans-Serif" font-size="14.00" fill="#000000">samples = 16</text>
<text text-anchor="start" x="509" y="-602.8" font-family="Helvetica,sans-Serif" font-size="14.00" fill="#000000">value = [7, 9]</text>
<text text-anchor="start" x="521.5" y="-587.8" font-family="Helvetica,sans-Serif" font-size="14.00" fill="#000000">class = 2</text>
</g>
<!-- 1&#45;&gt;15 -->
<g id="edge15" class="edge">
<title>1&#45;&gt;15</title>
<path fill="none" stroke="#000000" d="M548.5493,-698.8796C548.7559,-690.6838 548.9751,-681.9891 549.189,-673.5013"/>
<polygon fill="#000000" stroke="#000000" points="552.693,-673.3831 549.4463,-663.2981 545.6953,-673.2067 552.693,-673.3831"/>
</g>
<!-- 3 -->
<g id="node4" class="node">
<title>3</title>
<path fill="#e99456" stroke="#000000" d="M347.5,-544C347.5,-544 263.5,-544 263.5,-544 257.5,-544 251.5,-538 251.5,-532 251.5,-532 251.5,-473 251.5,-473 251.5,-467 257.5,-461 263.5,-461 263.5,-461 347.5,-461 347.5,-461 353.5,-461 359.5,-467 359.5,-473 359.5,-473 359.5,-532 359.5,-532 359.5,-538 353.5,-544 347.5,-544"/>
<text text-anchor="start" x="259.5" y="-528.8" font-family="Helvetica,sans-Serif" font-size="14.00" fill="#000000">Leptin ≤ 47.33</text>
<text text-anchor="start" x="267.5" y="-513.8" font-family="Helvetica,sans-Serif" font-size="14.00" fill="#000000">gini = 0.225</text>
<text text-anchor="start" x="261.5" y="-498.8" font-family="Helvetica,sans-Serif" font-size="14.00" fill="#000000">samples = 31</text>
<text text-anchor="start" x="260" y="-483.8" font-family="Helvetica,sans-Serif" font-size="14.00" fill="#000000">value = [27, 4]</text>
<text text-anchor="start" x="276.5" y="-468.8" font-family="Helvetica,sans-Serif" font-size="14.00" fill="#000000">class = 1</text>
</g>
<!-- 2&#45;&gt;3 -->
<g id="edge3" class="edge">
<title>2&#45;&gt;3</title>
<path fill="none" stroke="#000000" d="M382.8796,-579.8796C373.6931,-570.6931 363.8798,-560.8798 354.4336,-551.4336"/>
<polygon fill="#000000" stroke="#000000" points="356.8441,-548.8943 347.2981,-544.2981 351.8943,-553.8441 356.8441,-548.8943"/>
</g>
<!-- 14 -->
<g id="node15" class="node">
<title>14</title>
<path fill="#399de5" stroke="#000000" d="M465,-536.5C465,-536.5 390,-536.5 390,-536.5 384,-536.5 378,-530.5 378,-524.5 378,-524.5 378,-480.5 378,-480.5 378,-474.5 384,-468.5 390,-468.5 390,-468.5 465,-468.5 465,-468.5 471,-468.5 477,-474.5 477,-480.5 477,-480.5 477,-524.5 477,-524.5 477,-530.5 471,-536.5 465,-536.5"/>
<text text-anchor="start" x="398" y="-521.3" font-family="Helvetica,sans-Serif" font-size="14.00" fill="#000000">gini = 0.0</text>
<text text-anchor="start" x="388" y="-506.3" font-family="Helvetica,sans-Serif" font-size="14.00" fill="#000000">samples = 2</text>
<text text-anchor="start" x="386" y="-491.3" font-family="Helvetica,sans-Serif" font-size="14.00" fill="#000000">value = [0, 2]</text>
<text text-anchor="start" x="398.5" y="-476.3" font-family="Helvetica,sans-Serif" font-size="14.00" fill="#000000">class = 2</text>
</g>
<!-- 2&#45;&gt;14 -->
<g id="edge14" class="edge">
<title>2&#45;&gt;14</title>
<path fill="none" stroke="#000000" d="M425.5493,-579.8796C425.8182,-569.2134 426.1084,-557.7021 426.3806,-546.9015"/>
<polygon fill="#000000" stroke="#000000" points="429.8817,-546.9 426.6349,-536.8149 422.8839,-546.7235 429.8817,-546.9"/>
</g>
<!-- 4 -->
<g id="node5" class="node">
<title>4</title>
<path fill="#e88f4f" stroke="#000000" d="M291.5,-425C291.5,-425 187.5,-425 187.5,-425 181.5,-425 175.5,-419 175.5,-413 175.5,-413 175.5,-354 175.5,-354 175.5,-348 181.5,-342 187.5,-342 187.5,-342 291.5,-342 291.5,-342 297.5,-342 303.5,-348 303.5,-354 303.5,-354 303.5,-413 303.5,-413 303.5,-419 297.5,-425 291.5,-425"/>
<text text-anchor="start" x="183.5" y="-409.8" font-family="Helvetica,sans-Serif" font-size="14.00" fill="#000000">MCP.1 ≤ 209.469</text>
<text text-anchor="start" x="206" y="-394.8" font-family="Helvetica,sans-Serif" font-size="14.00" fill="#000000">gini = 0.18</text>
<text text-anchor="start" x="195.5" y="-379.8" font-family="Helvetica,sans-Serif" font-size="14.00" fill="#000000">samples = 30</text>
<text text-anchor="start" x="194" y="-364.8" font-family="Helvetica,sans-Serif" font-size="14.00" fill="#000000">value = [27, 3]</text>
<text text-anchor="start" x="210.5" y="-349.8" font-family="Helvetica,sans-Serif" font-size="14.00" fill="#000000">class = 1</text>
</g>
<!-- 3&#45;&gt;4 -->
<g id="edge4" class="edge">
<title>3&#45;&gt;4</title>
<path fill="none" stroke="#000000" d="M282.4164,-460.8796C277.6211,-452.2335 272.5178,-443.0322 267.5662,-434.1042"/>
<polygon fill="#000000" stroke="#000000" points="270.5931,-432.3455 262.6821,-425.2981 264.4716,-435.7407 270.5931,-432.3455"/>
</g>
<!-- 13 -->
<g id="node14" class="node">
<title>13</title>
<path fill="#399de5" stroke="#000000" d="M409,-417.5C409,-417.5 334,-417.5 334,-417.5 328,-417.5 322,-411.5 322,-405.5 322,-405.5 322,-361.5 322,-361.5 322,-355.5 328,-349.5 334,-349.5 334,-349.5 409,-349.5 409,-349.5 415,-349.5 421,-355.5 421,-361.5 421,-361.5 421,-405.5 421,-405.5 421,-411.5 415,-417.5 409,-417.5"/>
<text text-anchor="start" x="342" y="-402.3" font-family="Helvetica,sans-Serif" font-size="14.00" fill="#000000">gini = 0.0</text>
<text text-anchor="start" x="332" y="-387.3" font-family="Helvetica,sans-Serif" font-size="14.00" fill="#000000">samples = 1</text>
<text text-anchor="start" x="330" y="-372.3" font-family="Helvetica,sans-Serif" font-size="14.00" fill="#000000">value = [0, 1]</text>
<text text-anchor="start" x="342.5" y="-357.3" font-family="Helvetica,sans-Serif" font-size="14.00" fill="#000000">class = 2</text>
</g>
<!-- 3&#45;&gt;13 -->
<g id="edge13" class="edge">
<title>3&#45;&gt;13</title>
<path fill="none" stroke="#000000" d="M328.5836,-460.8796C334.7433,-449.7735 341.4111,-437.7513 347.6129,-426.5691"/>
<polygon fill="#000000" stroke="#000000" points="350.6787,-428.2576 352.4682,-417.8149 344.5572,-424.8624 350.6787,-428.2576"/>
</g>
<!-- 5 -->
<g id="node6" class="node">
<title>5</title>
<path fill="#f2c09c" stroke="#000000" d="M214.5,-306C214.5,-306 110.5,-306 110.5,-306 104.5,-306 98.5,-300 98.5,-294 98.5,-294 98.5,-235 98.5,-235 98.5,-229 104.5,-223 110.5,-223 110.5,-223 214.5,-223 214.5,-223 220.5,-223 226.5,-229 226.5,-235 226.5,-235 226.5,-294 226.5,-294 226.5,-300 220.5,-306 214.5,-306"/>
<text text-anchor="start" x="106.5" y="-290.8" font-family="Helvetica,sans-Serif" font-size="14.00" fill="#000000">MCP.1 ≤ 192.795</text>
<text text-anchor="start" x="124.5" y="-275.8" font-family="Helvetica,sans-Serif" font-size="14.00" fill="#000000">gini = 0.444</text>
<text text-anchor="start" x="123" y="-260.8" font-family="Helvetica,sans-Serif" font-size="14.00" fill="#000000">samples = 6</text>
<text text-anchor="start" x="121" y="-245.8" font-family="Helvetica,sans-Serif" font-size="14.00" fill="#000000">value = [4, 2]</text>
<text text-anchor="start" x="133.5" y="-230.8" font-family="Helvetica,sans-Serif" font-size="14.00" fill="#000000">class = 1</text>
</g>
<!-- 4&#45;&gt;5 -->
<g id="edge5" class="edge">
<title>4&#45;&gt;5</title>
<path fill="none" stroke="#000000" d="M212.5691,-341.8796C206.9163,-333.1434 200.8967,-323.8404 195.0634,-314.8253"/>
<polygon fill="#000000" stroke="#000000" points="197.9169,-312.7924 189.5458,-306.2981 192.0399,-316.5952 197.9169,-312.7924"/>
</g>
<!-- 8 -->
<g id="node9" class="node">
<title>8</title>
<path fill="#e68642" stroke="#000000" d="M378,-306C378,-306 257,-306 257,-306 251,-306 245,-300 245,-294 245,-294 245,-235 245,-235 245,-229 251,-223 257,-223 257,-223 378,-223 378,-223 384,-223 390,-229 390,-235 390,-235 390,-294 390,-294 390,-300 384,-306 378,-306"/>
<text text-anchor="start" x="253" y="-290.8" font-family="Helvetica,sans-Serif" font-size="14.00" fill="#000000">Adiponectin ≤ 3.986</text>
<text text-anchor="start" x="284" y="-275.8" font-family="Helvetica,sans-Serif" font-size="14.00" fill="#000000">gini = 0.08</text>
<text text-anchor="start" x="273.5" y="-260.8" font-family="Helvetica,sans-Serif" font-size="14.00" fill="#000000">samples = 24</text>
<text text-anchor="start" x="272" y="-245.8" font-family="Helvetica,sans-Serif" font-size="14.00" fill="#000000">value = [23, 1]</text>
<text text-anchor="start" x="288.5" y="-230.8" font-family="Helvetica,sans-Serif" font-size="14.00" fill="#000000">class = 1</text>
</g>
<!-- 4&#45;&gt;8 -->
<g id="edge8" class="edge">
<title>4&#45;&gt;8</title>
<path fill="none" stroke="#000000" d="M266.7806,-341.8796C272.5068,-333.1434 278.6046,-323.8404 284.5137,-314.8253"/>
<polygon fill="#000000" stroke="#000000" points="287.5482,-316.5803 290.1029,-306.2981 281.6937,-312.7429 287.5482,-316.5803"/>
</g>
<!-- 6 -->
<g id="node7" class="node">
<title>6</title>
<path fill="#e58139" stroke="#000000" d="M87,-179.5C87,-179.5 12,-179.5 12,-179.5 6,-179.5 0,-173.5 0,-167.5 0,-167.5 0,-123.5 0,-123.5 0,-117.5 6,-111.5 12,-111.5 12,-111.5 87,-111.5 87,-111.5 93,-111.5 99,-117.5 99,-123.5 99,-123.5 99,-167.5 99,-167.5 99,-173.5 93,-179.5 87,-179.5"/>
<text text-anchor="start" x="20" y="-164.3" font-family="Helvetica,sans-Serif" font-size="14.00" fill="#000000">gini = 0.0</text>
<text text-anchor="start" x="10" y="-149.3" font-family="Helvetica,sans-Serif" font-size="14.00" fill="#000000">samples = 4</text>
<text text-anchor="start" x="8" y="-134.3" font-family="Helvetica,sans-Serif" font-size="14.00" fill="#000000">value = [4, 0]</text>
<text text-anchor="start" x="20.5" y="-119.3" font-family="Helvetica,sans-Serif" font-size="14.00" fill="#000000">class = 1</text>
</g>
<!-- 5&#45;&gt;6 -->
<g id="edge6" class="edge">
<title>5&#45;&gt;6</title>
<path fill="none" stroke="#000000" d="M122.9781,-222.8796C112.0143,-211.3337 100.1103,-198.7976 89.1399,-187.2446"/>
<polygon fill="#000000" stroke="#000000" points="91.5087,-184.6564 82.0848,-179.8149 86.4327,-189.4766 91.5087,-184.6564"/>
</g>
<!-- 7 -->
<g id="node8" class="node">
<title>7</title>
<path fill="#399de5" stroke="#000000" d="M204,-179.5C204,-179.5 129,-179.5 129,-179.5 123,-179.5 117,-173.5 117,-167.5 117,-167.5 117,-123.5 117,-123.5 117,-117.5 123,-111.5 129,-111.5 129,-111.5 204,-111.5 204,-111.5 210,-111.5 216,-117.5 216,-123.5 216,-123.5 216,-167.5 216,-167.5 216,-173.5 210,-179.5 204,-179.5"/>
<text text-anchor="start" x="137" y="-164.3" font-family="Helvetica,sans-Serif" font-size="14.00" fill="#000000">gini = 0.0</text>
<text text-anchor="start" x="127" y="-149.3" font-family="Helvetica,sans-Serif" font-size="14.00" fill="#000000">samples = 2</text>
<text text-anchor="start" x="125" y="-134.3" font-family="Helvetica,sans-Serif" font-size="14.00" fill="#000000">value = [0, 2]</text>
<text text-anchor="start" x="137.5" y="-119.3" font-family="Helvetica,sans-Serif" font-size="14.00" fill="#000000">class = 2</text>
</g>
<!-- 5&#45;&gt;7 -->
<g id="edge7" class="edge">
<title>5&#45;&gt;7</title>
<path fill="none" stroke="#000000" d="M163.899,-222.8796C164.2575,-212.2134 164.6445,-200.7021 165.0075,-189.9015"/>
<polygon fill="#000000" stroke="#000000" points="168.5085,-189.9269 165.3466,-179.8149 161.5125,-189.6917 168.5085,-189.9269"/>
</g>
<!-- 9 -->
<g id="node10" class="node">
<title>9</title>
<path fill="#ffffff" stroke="#000000" d="M374,-187C374,-187 253,-187 253,-187 247,-187 241,-181 241,-175 241,-175 241,-116 241,-116 241,-110 247,-104 253,-104 253,-104 374,-104 374,-104 380,-104 386,-110 386,-116 386,-116 386,-175 386,-175 386,-181 380,-187 374,-187"/>
<text text-anchor="start" x="249" y="-171.8" font-family="Helvetica,sans-Serif" font-size="14.00" fill="#000000">Adiponectin ≤ 3.449</text>
<text text-anchor="start" x="284" y="-156.8" font-family="Helvetica,sans-Serif" font-size="14.00" fill="#000000">gini = 0.5</text>
<text text-anchor="start" x="274" y="-141.8" font-family="Helvetica,sans-Serif" font-size="14.00" fill="#000000">samples = 2</text>
<text text-anchor="start" x="272" y="-126.8" font-family="Helvetica,sans-Serif" font-size="14.00" fill="#000000">value = [1, 1]</text>
<text text-anchor="start" x="284.5" y="-111.8" font-family="Helvetica,sans-Serif" font-size="14.00" fill="#000000">class = 1</text>
</g>
<!-- 8&#45;&gt;9 -->
<g id="edge9" class="edge">
<title>8&#45;&gt;9</title>
<path fill="none" stroke="#000000" d="M316.101,-222.8796C315.8255,-214.6838 315.5332,-205.9891 315.2479,-197.5013"/>
<polygon fill="#000000" stroke="#000000" points="318.739,-197.1748 314.905,-187.2981 311.743,-197.41 318.739,-197.1748"/>
</g>
<!-- 12 -->
<g id="node13" class="node">
<title>12</title>
<path fill="#e58139" stroke="#000000" d="M499,-179.5C499,-179.5 416,-179.5 416,-179.5 410,-179.5 404,-173.5 404,-167.5 404,-167.5 404,-123.5 404,-123.5 404,-117.5 410,-111.5 416,-111.5 416,-111.5 499,-111.5 499,-111.5 505,-111.5 511,-117.5 511,-123.5 511,-123.5 511,-167.5 511,-167.5 511,-173.5 505,-179.5 499,-179.5"/>
<text text-anchor="start" x="428" y="-164.3" font-family="Helvetica,sans-Serif" font-size="14.00" fill="#000000">gini = 0.0</text>
<text text-anchor="start" x="413.5" y="-149.3" font-family="Helvetica,sans-Serif" font-size="14.00" fill="#000000">samples = 22</text>
<text text-anchor="start" x="412" y="-134.3" font-family="Helvetica,sans-Serif" font-size="14.00" fill="#000000">value = [22, 0]</text>
<text text-anchor="start" x="428.5" y="-119.3" font-family="Helvetica,sans-Serif" font-size="14.00" fill="#000000">class = 1</text>
</g>
<!-- 8&#45;&gt;12 -->
<g id="edge12" class="edge">
<title>8&#45;&gt;12</title>
<path fill="none" stroke="#000000" d="M366.4652,-222.8796C380.3073,-211.1138 395.3592,-198.3197 409.1641,-186.5855"/>
<polygon fill="#000000" stroke="#000000" points="411.7769,-188.9582 417.1295,-179.8149 407.2433,-183.6247 411.7769,-188.9582"/>
</g>
<!-- 10 -->
<g id="node11" class="node">
<title>10</title>
<path fill="#e58139" stroke="#000000" d="M292,-68C292,-68 217,-68 217,-68 211,-68 205,-62 205,-56 205,-56 205,-12 205,-12 205,-6 211,0 217,0 217,0 292,0 292,0 298,0 304,-6 304,-12 304,-12 304,-56 304,-56 304,-62 298,-68 292,-68"/>
<text text-anchor="start" x="225" y="-52.8" font-family="Helvetica,sans-Serif" font-size="14.00" fill="#000000">gini = 0.0</text>
<text text-anchor="start" x="215" y="-37.8" font-family="Helvetica,sans-Serif" font-size="14.00" fill="#000000">samples = 1</text>
<text text-anchor="start" x="213" y="-22.8" font-family="Helvetica,sans-Serif" font-size="14.00" fill="#000000">value = [1, 0]</text>
<text text-anchor="start" x="225.5" y="-7.8" font-family="Helvetica,sans-Serif" font-size="14.00" fill="#000000">class = 1</text>
</g>
<!-- 9&#45;&gt;10 -->
<g id="edge10" class="edge">
<title>9&#45;&gt;10</title>
<path fill="none" stroke="#000000" d="M291.5306,-103.9815C286.9105,-95.2504 282.0264,-86.0202 277.374,-77.2281"/>
<polygon fill="#000000" stroke="#000000" points="280.4013,-75.4655 272.6306,-68.2637 274.2141,-78.7395 280.4013,-75.4655"/>
</g>
<!-- 11 -->
<g id="node12" class="node">
<title>11</title>
<path fill="#399de5" stroke="#000000" d="M409,-68C409,-68 334,-68 334,-68 328,-68 322,-62 322,-56 322,-56 322,-12 322,-12 322,-6 328,0 334,0 334,0 409,0 409,0 415,0 421,-6 421,-12 421,-12 421,-56 421,-56 421,-62 415,-68 409,-68"/>
<text text-anchor="start" x="342" y="-52.8" font-family="Helvetica,sans-Serif" font-size="14.00" fill="#000000">gini = 0.0</text>
<text text-anchor="start" x="332" y="-37.8" font-family="Helvetica,sans-Serif" font-size="14.00" fill="#000000">samples = 1</text>
<text text-anchor="start" x="330" y="-22.8" font-family="Helvetica,sans-Serif" font-size="14.00" fill="#000000">value = [0, 1]</text>
<text text-anchor="start" x="342.5" y="-7.8" font-family="Helvetica,sans-Serif" font-size="14.00" fill="#000000">class = 2</text>
</g>
<!-- 9&#45;&gt;11 -->
<g id="edge11" class="edge">
<title>9&#45;&gt;11</title>
<path fill="none" stroke="#000000" d="M335.0971,-103.9815C339.6388,-95.2504 344.4402,-86.0202 349.0137,-77.2281"/>
<polygon fill="#000000" stroke="#000000" points="352.1669,-78.7504 353.6767,-68.2637 345.9569,-75.52 352.1669,-78.7504"/>
</g>
<!-- 16 -->
<g id="node17" class="node">
<title>16</title>
<path fill="#399de5" stroke="#000000" d="M586,-536.5C586,-536.5 511,-536.5 511,-536.5 505,-536.5 499,-530.5 499,-524.5 499,-524.5 499,-480.5 499,-480.5 499,-474.5 505,-468.5 511,-468.5 511,-468.5 586,-468.5 586,-468.5 592,-468.5 598,-474.5 598,-480.5 598,-480.5 598,-524.5 598,-524.5 598,-530.5 592,-536.5 586,-536.5"/>
<text text-anchor="start" x="519" y="-521.3" font-family="Helvetica,sans-Serif" font-size="14.00" fill="#000000">gini = 0.0</text>
<text text-anchor="start" x="509" y="-506.3" font-family="Helvetica,sans-Serif" font-size="14.00" fill="#000000">samples = 9</text>
<text text-anchor="start" x="507" y="-491.3" font-family="Helvetica,sans-Serif" font-size="14.00" fill="#000000">value = [0, 9]</text>
<text text-anchor="start" x="519.5" y="-476.3" font-family="Helvetica,sans-Serif" font-size="14.00" fill="#000000">class = 2</text>
</g>
<!-- 15&#45;&gt;16 -->
<g id="edge16" class="edge">
<title>15&#45;&gt;16</title>
<path fill="none" stroke="#000000" d="M549.8005,-579.8796C549.6212,-569.2134 549.4278,-557.7021 549.2462,-546.9015"/>
<polygon fill="#000000" stroke="#000000" points="552.7444,-546.7547 549.0767,-536.8149 545.7454,-546.8724 552.7444,-546.7547"/>
</g>
<!-- 17 -->
<g id="node18" class="node">
<title>17</title>
<path fill="#e58139" stroke="#000000" d="M703,-536.5C703,-536.5 628,-536.5 628,-536.5 622,-536.5 616,-530.5 616,-524.5 616,-524.5 616,-480.5 616,-480.5 616,-474.5 622,-468.5 628,-468.5 628,-468.5 703,-468.5 703,-468.5 709,-468.5 715,-474.5 715,-480.5 715,-480.5 715,-524.5 715,-524.5 715,-530.5 709,-536.5 703,-536.5"/>
<text text-anchor="start" x="636" y="-521.3" font-family="Helvetica,sans-Serif" font-size="14.00" fill="#000000">gini = 0.0</text>
<text text-anchor="start" x="626" y="-506.3" font-family="Helvetica,sans-Serif" font-size="14.00" fill="#000000">samples = 7</text>
<text text-anchor="start" x="624" y="-491.3" font-family="Helvetica,sans-Serif" font-size="14.00" fill="#000000">value = [7, 0]</text>
<text text-anchor="start" x="636.5" y="-476.3" font-family="Helvetica,sans-Serif" font-size="14.00" fill="#000000">class = 1</text>
</g>
<!-- 15&#45;&gt;17 -->
<g id="edge17" class="edge">
<title>15&#45;&gt;17</title>
<path fill="none" stroke="#000000" d="M590.7214,-579.8796C601.8792,-568.3337 613.9939,-555.7976 625.1586,-544.2446"/>
<polygon fill="#000000" stroke="#000000" points="627.9061,-546.4381 632.3385,-536.8149 622.8725,-541.5736 627.9061,-546.4381"/>
</g>
<!-- 19 -->
<g id="node20" class="node">
<title>19</title>
<path fill="#e58139" stroke="#000000" d="M717,-655.5C717,-655.5 642,-655.5 642,-655.5 636,-655.5 630,-649.5 630,-643.5 630,-643.5 630,-599.5 630,-599.5 630,-593.5 636,-587.5 642,-587.5 642,-587.5 717,-587.5 717,-587.5 723,-587.5 729,-593.5 729,-599.5 729,-599.5 729,-643.5 729,-643.5 729,-649.5 723,-655.5 717,-655.5"/>
<text text-anchor="start" x="650" y="-640.3" font-family="Helvetica,sans-Serif" font-size="14.00" fill="#000000">gini = 0.0</text>
<text text-anchor="start" x="640" y="-625.3" font-family="Helvetica,sans-Serif" font-size="14.00" fill="#000000">samples = 2</text>
<text text-anchor="start" x="638" y="-610.3" font-family="Helvetica,sans-Serif" font-size="14.00" fill="#000000">value = [2, 0]</text>
<text text-anchor="start" x="650.5" y="-595.3" font-family="Helvetica,sans-Serif" font-size="14.00" fill="#000000">class = 1</text>
</g>
<!-- 18&#45;&gt;19 -->
<g id="edge19" class="edge">
<title>18&#45;&gt;19</title>
<path fill="none" stroke="#000000" d="M682.101,-698.8796C681.7425,-688.2134 681.3555,-676.7021 680.9925,-665.9015"/>
<polygon fill="#000000" stroke="#000000" points="684.4875,-665.6917 680.6534,-655.8149 677.4915,-665.9269 684.4875,-665.6917"/>
</g>
<!-- 20 -->
<g id="node21" class="node">
<title>20</title>
<path fill="#57ace9" stroke="#000000" d="M842,-663C842,-663 759,-663 759,-663 753,-663 747,-657 747,-651 747,-651 747,-592 747,-592 747,-586 753,-580 759,-580 759,-580 842,-580 842,-580 848,-580 854,-586 854,-592 854,-592 854,-651 854,-651 854,-657 848,-663 842,-663"/>
<text text-anchor="start" x="757.5" y="-647.8" font-family="Helvetica,sans-Serif" font-size="14.00" fill="#000000">BMI ≤ 33.777</text>
<text text-anchor="start" x="762.5" y="-632.8" font-family="Helvetica,sans-Serif" font-size="14.00" fill="#000000">gini = 0.231</text>
<text text-anchor="start" x="756.5" y="-617.8" font-family="Helvetica,sans-Serif" font-size="14.00" fill="#000000">samples = 30</text>
<text text-anchor="start" x="755" y="-602.8" font-family="Helvetica,sans-Serif" font-size="14.00" fill="#000000">value = [4, 26]</text>
<text text-anchor="start" x="771.5" y="-587.8" font-family="Helvetica,sans-Serif" font-size="14.00" fill="#000000">class = 2</text>
</g>
<!-- 18&#45;&gt;20 -->
<g id="edge20" class="edge">
<title>18&#45;&gt;20</title>
<path fill="none" stroke="#000000" d="M724.4209,-698.8796C733.453,-689.6931 743.1013,-679.8798 752.3888,-670.4336"/>
<polygon fill="#000000" stroke="#000000" points="754.8893,-672.8827 759.4044,-663.2981 749.8977,-667.975 754.8893,-672.8827"/>
</g>
<!-- 21 -->
<g id="node22" class="node">
<title>21</title>
<path fill="#42a1e6" stroke="#000000" d="M846,-544C846,-544 751,-544 751,-544 745,-544 739,-538 739,-532 739,-532 739,-473 739,-473 739,-467 745,-461 751,-461 751,-461 846,-461 846,-461 852,-461 858,-467 858,-473 858,-473 858,-532 858,-532 858,-538 852,-544 846,-544"/>
<text text-anchor="start" x="747" y="-528.8" font-family="Helvetica,sans-Serif" font-size="14.00" fill="#000000">MCP.1 ≤ 67.966</text>
<text text-anchor="start" x="765" y="-513.8" font-family="Helvetica,sans-Serif" font-size="14.00" fill="#000000">gini = 0.08</text>
<text text-anchor="start" x="754.5" y="-498.8" font-family="Helvetica,sans-Serif" font-size="14.00" fill="#000000">samples = 24</text>
<text text-anchor="start" x="753" y="-483.8" font-family="Helvetica,sans-Serif" font-size="14.00" fill="#000000">value = [1, 23]</text>
<text text-anchor="start" x="769.5" y="-468.8" font-family="Helvetica,sans-Serif" font-size="14.00" fill="#000000">class = 2</text>
</g>
<!-- 20&#45;&gt;21 -->
<g id="edge21" class="edge">
<title>20&#45;&gt;21</title>
<path fill="none" stroke="#000000" d="M799.8005,-579.8796C799.6628,-571.6838 799.5166,-562.9891 799.374,-554.5013"/>
<polygon fill="#000000" stroke="#000000" points="802.8701,-554.2378 799.2025,-544.2981 795.8711,-554.3555 802.8701,-554.2378"/>
</g>
<!-- 24 -->
<g id="node25" class="node">
<title>24</title>
<path fill="#ffffff" stroke="#000000" d="M984.5,-544C984.5,-544 888.5,-544 888.5,-544 882.5,-544 876.5,-538 876.5,-532 876.5,-532 876.5,-473 876.5,-473 876.5,-467 882.5,-461 888.5,-461 888.5,-461 984.5,-461 984.5,-461 990.5,-461 996.5,-467 996.5,-473 996.5,-473 996.5,-532 996.5,-532 996.5,-538 990.5,-544 984.5,-544"/>
<text text-anchor="start" x="884.5" y="-528.8" font-family="Helvetica,sans-Serif" font-size="14.00" fill="#000000">Resistin ≤ 9.338</text>
<text text-anchor="start" x="907" y="-513.8" font-family="Helvetica,sans-Serif" font-size="14.00" fill="#000000">gini = 0.5</text>
<text text-anchor="start" x="897" y="-498.8" font-family="Helvetica,sans-Serif" font-size="14.00" fill="#000000">samples = 6</text>
<text text-anchor="start" x="895" y="-483.8" font-family="Helvetica,sans-Serif" font-size="14.00" fill="#000000">value = [3, 3]</text>
<text text-anchor="start" x="907.5" y="-468.8" font-family="Helvetica,sans-Serif" font-size="14.00" fill="#000000">class = 1</text>
</g>
<!-- 20&#45;&gt;24 -->
<g id="edge24" class="edge">
<title>20&#45;&gt;24</title>
<path fill="none" stroke="#000000" d="M848.0662,-579.8796C858.6679,-570.6031 870.0002,-560.6874 880.8933,-551.1559"/>
<polygon fill="#000000" stroke="#000000" points="883.5098,-553.5172 888.7308,-544.2981 878.9002,-548.2491 883.5098,-553.5172"/>
</g>
<!-- 22 -->
<g id="node23" class="node">
<title>22</title>
<path fill="#e58139" stroke="#000000" d="M719,-417.5C719,-417.5 644,-417.5 644,-417.5 638,-417.5 632,-411.5 632,-405.5 632,-405.5 632,-361.5 632,-361.5 632,-355.5 638,-349.5 644,-349.5 644,-349.5 719,-349.5 719,-349.5 725,-349.5 731,-355.5 731,-361.5 731,-361.5 731,-405.5 731,-405.5 731,-411.5 725,-417.5 719,-417.5"/>
<text text-anchor="start" x="652" y="-402.3" font-family="Helvetica,sans-Serif" font-size="14.00" fill="#000000">gini = 0.0</text>
<text text-anchor="start" x="642" y="-387.3" font-family="Helvetica,sans-Serif" font-size="14.00" fill="#000000">samples = 1</text>
<text text-anchor="start" x="640" y="-372.3" font-family="Helvetica,sans-Serif" font-size="14.00" fill="#000000">value = [1, 0]</text>
<text text-anchor="start" x="652.5" y="-357.3" font-family="Helvetica,sans-Serif" font-size="14.00" fill="#000000">class = 1</text>
</g>
<!-- 21&#45;&gt;22 -->
<g id="edge22" class="edge">
<title>21&#45;&gt;22</title>
<path fill="none" stroke="#000000" d="M757.5791,-460.8796C746.2272,-449.3337 733.9018,-436.7976 722.543,-425.2446"/>
<polygon fill="#000000" stroke="#000000" points="724.7449,-422.4919 715.2382,-417.8149 719.7534,-427.3995 724.7449,-422.4919"/>
</g>
<!-- 23 -->
<g id="node24" class="node">
<title>23</title>
<path fill="#399de5" stroke="#000000" d="M844,-417.5C844,-417.5 761,-417.5 761,-417.5 755,-417.5 749,-411.5 749,-405.5 749,-405.5 749,-361.5 749,-361.5 749,-355.5 755,-349.5 761,-349.5 761,-349.5 844,-349.5 844,-349.5 850,-349.5 856,-355.5 856,-361.5 856,-361.5 856,-405.5 856,-405.5 856,-411.5 850,-417.5 844,-417.5"/>
<text text-anchor="start" x="773" y="-402.3" font-family="Helvetica,sans-Serif" font-size="14.00" fill="#000000">gini = 0.0</text>
<text text-anchor="start" x="758.5" y="-387.3" font-family="Helvetica,sans-Serif" font-size="14.00" fill="#000000">samples = 23</text>
<text text-anchor="start" x="757" y="-372.3" font-family="Helvetica,sans-Serif" font-size="14.00" fill="#000000">value = [0, 23]</text>
<text text-anchor="start" x="773.5" y="-357.3" font-family="Helvetica,sans-Serif" font-size="14.00" fill="#000000">class = 2</text>
</g>
<!-- 21&#45;&gt;23 -->
<g id="edge23" class="edge">
<title>21&#45;&gt;23</title>
<path fill="none" stroke="#000000" d="M799.899,-460.8796C800.2575,-450.2134 800.6445,-438.7021 801.0075,-427.9015"/>
<polygon fill="#000000" stroke="#000000" points="804.5085,-427.9269 801.3466,-417.8149 797.5125,-427.6917 804.5085,-427.9269"/>
</g>
<!-- 25 -->
<g id="node26" class="node">
<title>25</title>
<path fill="#399de5" stroke="#000000" d="M969,-417.5C969,-417.5 894,-417.5 894,-417.5 888,-417.5 882,-411.5 882,-405.5 882,-405.5 882,-361.5 882,-361.5 882,-355.5 888,-349.5 894,-349.5 894,-349.5 969,-349.5 969,-349.5 975,-349.5 981,-355.5 981,-361.5 981,-361.5 981,-405.5 981,-405.5 981,-411.5 975,-417.5 969,-417.5"/>
<text text-anchor="start" x="902" y="-402.3" font-family="Helvetica,sans-Serif" font-size="14.00" fill="#000000">gini = 0.0</text>
<text text-anchor="start" x="892" y="-387.3" font-family="Helvetica,sans-Serif" font-size="14.00" fill="#000000">samples = 3</text>
<text text-anchor="start" x="890" y="-372.3" font-family="Helvetica,sans-Serif" font-size="14.00" fill="#000000">value = [0, 3]</text>
<text text-anchor="start" x="902.5" y="-357.3" font-family="Helvetica,sans-Serif" font-size="14.00" fill="#000000">class = 2</text>
</g>
<!-- 24&#45;&gt;25 -->
<g id="edge25" class="edge">
<title>24&#45;&gt;25</title>
<path fill="none" stroke="#000000" d="M934.7512,-460.8796C934.3031,-450.2134 933.8194,-438.7021 933.3656,-427.9015"/>
<polygon fill="#000000" stroke="#000000" points="936.8586,-427.6592 932.9418,-417.8149 929.8648,-427.9531 936.8586,-427.6592"/>
</g>
<!-- 26 -->
<g id="node27" class="node">
<title>26</title>
<path fill="#e58139" stroke="#000000" d="M1086,-417.5C1086,-417.5 1011,-417.5 1011,-417.5 1005,-417.5 999,-411.5 999,-405.5 999,-405.5 999,-361.5 999,-361.5 999,-355.5 1005,-349.5 1011,-349.5 1011,-349.5 1086,-349.5 1086,-349.5 1092,-349.5 1098,-355.5 1098,-361.5 1098,-361.5 1098,-405.5 1098,-405.5 1098,-411.5 1092,-417.5 1086,-417.5"/>
<text text-anchor="start" x="1019" y="-402.3" font-family="Helvetica,sans-Serif" font-size="14.00" fill="#000000">gini = 0.0</text>
<text text-anchor="start" x="1009" y="-387.3" font-family="Helvetica,sans-Serif" font-size="14.00" fill="#000000">samples = 3</text>
<text text-anchor="start" x="1007" y="-372.3" font-family="Helvetica,sans-Serif" font-size="14.00" fill="#000000">value = [3, 0]</text>
<text text-anchor="start" x="1019.5" y="-357.3" font-family="Helvetica,sans-Serif" font-size="14.00" fill="#000000">class = 1</text>
</g>
<!-- 24&#45;&gt;26 -->
<g id="edge26" class="edge">
<title>24&#45;&gt;26</title>
<path fill="none" stroke="#000000" d="M975.6722,-460.8796C986.5389,-449.3337 998.3376,-436.7976 1009.2109,-425.2446"/>
<polygon fill="#000000" stroke="#000000" points="1011.8986,-427.4958 1016.2036,-417.8149 1006.8012,-422.6982 1011.8986,-427.4958"/>
</g>
</g>
</svg>
