<?xml version="1.0" encoding="UTF-8" standalone="no"?>
<!DOCTYPE svg PUBLIC "-//W3C//DTD SVG 1.1//EN"
 "http://www.w3.org/Graphics/SVG/1.1/DTD/svg11.dtd">
<!-- Generated by graphviz version 2.40.1 (20161225.0304)
 -->
<!-- Title: Tree Pages: 1 -->
<svg width="1105pt" height="909pt"
 viewBox="0.00 0.00 1105.00 909.00" xmlns="http://www.w3.org/2000/svg" xmlns:xlink="http://www.w3.org/1999/xlink">
<g id="graph0" class="graph" transform="scale(1 1) rotate(0) translate(4 905)">
<title>Tree</title>
<polygon fill="#ffffff" stroke="transparent" points="-4,4 -4,-905 1101,-905 1101,4 -4,4"/>
<!-- 0 -->
<g id="node1" class="node">
<title>0</title>
<path fill="#fafdfe" stroke="#000000" d="M660.5,-901C660.5,-901 568.5,-901 568.5,-901 562.5,-901 556.5,-895 556.5,-889 556.5,-889 556.5,-830 556.5,-830 556.5,-824 562.5,-818 568.5,-818 568.5,-818 660.5,-818 660.5,-818 666.5,-818 672.5,-824 672.5,-830 672.5,-830 672.5,-889 672.5,-889 672.5,-895 666.5,-901 660.5,-901"/>
<text text-anchor="start" x="565.5" y="-885.8" font-family="Helvetica,sans-Serif" font-size="14.00" fill="#000000">Glucose ≤ 96.5</text>
<text text-anchor="start" x="585" y="-870.8" font-family="Helvetica,sans-Serif" font-size="14.00" fill="#000000">gini = 0.5</text>
<text text-anchor="start" x="570.5" y="-855.8" font-family="Helvetica,sans-Serif" font-size="14.00" fill="#000000">samples = 81</text>
<text text-anchor="start" x="564.5" y="-840.8" font-family="Helvetica,sans-Serif" font-size="14.00" fill="#000000">value = [40, 41]</text>
<text text-anchor="start" x="585.5" y="-825.8" font-family="Helvetica,sans-Serif" font-size="14.00" fill="#000000">class = 2</text>
</g>
<!-- 1 -->
<g id="node2" class="node">
<title>1</title>
<path fill="#f0b990" stroke="#000000" d="M598.5,-782C598.5,-782 494.5,-782 494.5,-782 488.5,-782 482.5,-776 482.5,-770 482.5,-770 482.5,-711 482.5,-711 482.5,-705 488.5,-699 494.5,-699 494.5,-699 598.5,-699 598.5,-699 604.5,-699 610.5,-705 610.5,-711 610.5,-711 610.5,-770 610.5,-770 610.5,-776 604.5,-782 598.5,-782"/>
<text text-anchor="start" x="490.5" y="-766.8" font-family="Helvetica,sans-Serif" font-size="14.00" fill="#000000">Resistin ≤ 13.248</text>
<text text-anchor="start" x="508.5" y="-751.8" font-family="Helvetica,sans-Serif" font-size="14.00" fill="#000000">gini = 0.425</text>
<text text-anchor="start" x="502.5" y="-736.8" font-family="Helvetica,sans-Serif" font-size="14.00" fill="#000000">samples = 49</text>
<text text-anchor="start" x="496.5" y="-721.8" font-family="Helvetica,sans-Serif" font-size="14.00" fill="#000000">value = [34, 15]</text>
<text text-anchor="start" x="517.5" y="-706.8" font-family="Helvetica,sans-Serif" font-size="14.00" fill="#000000">class = 1</text>
</g>
<!-- 0&#45;&gt;1 -->
<g id="edge1" class="edge">
<title>0&#45;&gt;1</title>
<path fill="none" stroke="#000000" d="M590.7169,-817.8796C585.7763,-809.2335 580.5184,-800.0322 575.4167,-791.1042"/>
<polygon fill="#000000" stroke="#000000" points="578.3849,-789.244 570.3846,-782.2981 572.3072,-792.717 578.3849,-789.244"/>
<text text-anchor="middle" x="563.8067" y="-802.7172" font-family="Helvetica,sans-Serif" font-size="14.00" fill="#000000">True</text>
</g>
<!-- 18 -->
<g id="node19" class="node">
<title>18</title>
<path fill="#67b4eb" stroke="#000000" d="M724.5,-782C724.5,-782 640.5,-782 640.5,-782 634.5,-782 628.5,-776 628.5,-770 628.5,-770 628.5,-711 628.5,-711 628.5,-705 634.5,-699 640.5,-699 640.5,-699 724.5,-699 724.5,-699 730.5,-699 736.5,-705 736.5,-711 736.5,-711 736.5,-770 736.5,-770 736.5,-776 730.5,-782 724.5,-782"/>
<text text-anchor="start" x="636.5" y="-766.8" font-family="Helvetica,sans-Serif" font-size="14.00" fill="#000000">Leptin ≤ 6.059</text>
<text text-anchor="start" x="644.5" y="-751.8" font-family="Helvetica,sans-Serif" font-size="14.00" fill="#000000">gini = 0.305</text>
<text text-anchor="start" x="638.5" y="-736.8" font-family="Helvetica,sans-Serif" font-size="14.00" fill="#000000">samples = 32</text>
<text text-anchor="start" x="637" y="-721.8" font-family="Helvetica,sans-Serif" font-size="14.00" fill="#000000">value = [6, 26]</text>
<text text-anchor="start" x="653.5" y="-706.8" font-family="Helvetica,sans-Serif" font-size="14.00" fill="#000000">class = 2</text>
</g>
<!-- 0&#45;&gt;18 -->
<g id="edge18" class="edge">
<title>0&#45;&gt;18</title>
<path fill="none" stroke="#000000" d="M638.2831,-817.8796C643.2237,-809.2335 648.4816,-800.0322 653.5833,-791.1042"/>
<polygon fill="#000000" stroke="#000000" points="656.6928,-792.717 658.6154,-782.2981 650.6151,-789.244 656.6928,-792.717"/>
<text text-anchor="middle" x="665.1933" y="-802.7172" font-family="Helvetica,sans-Serif" font-size="14.00" fill="#000000">False</text>
</g>
<!-- 2 -->
<g id="node3" class="node">
<title>2</title>
<path fill="#eb9d65" stroke="#000000" d="M467,-663C467,-663 380,-663 380,-663 374,-663 368,-657 368,-651 368,-651 368,-592 368,-592 368,-586 374,-580 380,-580 380,-580 467,-580 467,-580 473,-580 479,-586 479,-592 479,-592 479,-651 479,-651 479,-657 473,-663 467,-663"/>
<text text-anchor="start" x="376" y="-647.8" font-family="Helvetica,sans-Serif" font-size="14.00" fill="#000000">HOMA ≤ 3.519</text>
<text text-anchor="start" x="385.5" y="-632.8" font-family="Helvetica,sans-Serif" font-size="14.00" fill="#000000">gini = 0.298</text>
<text text-anchor="start" x="379.5" y="-617.8" font-family="Helvetica,sans-Serif" font-size="14.00" fill="#000000">samples = 33</text>
<text text-anchor="start" x="378" y="-602.8" font-family="Helvetica,sans-Serif" font-size="14.00" fill="#000000">value = [27, 6]</text>
<text text-anchor="start" x="394.5" y="-587.8" font-family="Helvetica,sans-Serif" font-size="14.00" fill="#000000">class = 1</text>
</g>
<!-- 1&#45;&gt;2 -->
<g id="edge2" class="edge">
<title>1&#45;&gt;2</title>
<path fill="none" stroke="#000000" d="M503.4806,-698.8796C493.9853,-689.6931 483.8422,-679.8798 474.0785,-670.4336"/>
<polygon fill="#000000" stroke="#000000" points="476.3237,-667.7359 466.703,-663.2981 471.4564,-672.7668 476.3237,-667.7359"/>
</g>
<!-- 15 -->
<g id="node16" class="node">
<title>15</title>
<path fill="#d3e9f9" stroke="#000000" d="M589.5,-663C589.5,-663 509.5,-663 509.5,-663 503.5,-663 497.5,-657 497.5,-651 497.5,-651 497.5,-592 497.5,-592 497.5,-586 503.5,-580 509.5,-580 509.5,-580 589.5,-580 589.5,-580 595.5,-580 601.5,-586 601.5,-592 601.5,-592 601.5,-651 601.5,-651 601.5,-657 595.5,-663 589.5,-663"/>
<text text-anchor="start" x="506.5" y="-647.8" font-family="Helvetica,sans-Serif" font-size="14.00" fill="#000000">BMI ≤ 29.972</text>
<text text-anchor="start" x="511.5" y="-632.8" font-family="Helvetica,sans-Serif" font-size="14.00" fill="#000000">gini = 0.492</text>
<text text-anchor="start" x="505.5" y="-617.8" font-family="Helvetica,sans-Serif" font-size="14.00" fill="#000000">samples = 16</text>
<text text-anchor="start" x="508" y="-602.8" font-family="Helvetica,sans-Serif" font-size="14.00" fill="#000000">value = [7, 9]</text>
<text text-anchor="start" x="520.5" y="-587.8" font-family="Helvetica,sans-Serif" font-size="14.00" fill="#000000">class = 2</text>
</g>
<!-- 1&#45;&gt;15 -->
<g id="edge15" class="edge">
<title>1&#45;&gt;15</title>
<path fill="none" stroke="#000000" d="M547.5493,-698.8796C547.7559,-690.6838 547.9751,-681.9891 548.189,-673.5013"/>
<polygon fill="#000000" stroke="#000000" points="551.693,-673.3831 548.4463,-663.2981 544.6953,-673.2067 551.693,-673.3831"/>
</g>
<!-- 3 -->
<g id="node4" class="node">
<title>3</title>
<path fill="#e99456" stroke="#000000" d="M346.5,-544C346.5,-544 262.5,-544 262.5,-544 256.5,-544 250.5,-538 250.5,-532 250.5,-532 250.5,-473 250.5,-473 250.5,-467 256.5,-461 262.5,-461 262.5,-461 346.5,-461 346.5,-461 352.5,-461 358.5,-467 358.5,-473 358.5,-473 358.5,-532 358.5,-532 358.5,-538 352.5,-544 346.5,-544"/>
<text text-anchor="start" x="258.5" y="-528.8" font-family="Helvetica,sans-Serif" font-size="14.00" fill="#000000">Leptin ≤ 47.33</text>
<text text-anchor="start" x="266.5" y="-513.8" font-family="Helvetica,sans-Serif" font-size="14.00" fill="#000000">gini = 0.225</text>
<text text-anchor="start" x="260.5" y="-498.8" font-family="Helvetica,sans-Serif" font-size="14.00" fill="#000000">samples = 31</text>
<text text-anchor="start" x="259" y="-483.8" font-family="Helvetica,sans-Serif" font-size="14.00" fill="#000000">value = [27, 4]</text>
<text text-anchor="start" x="275.5" y="-468.8" font-family="Helvetica,sans-Serif" font-size="14.00" fill="#000000">class = 1</text>
</g>
<!-- 2&#45;&gt;3 -->
<g id="edge3" class="edge">
<title>2&#45;&gt;3</title>
<path fill="none" stroke="#000000" d="M381.8796,-579.8796C372.6931,-570.6931 362.8798,-560.8798 353.4336,-551.4336"/>
<polygon fill="#000000" stroke="#000000" points="355.8441,-548.8943 346.2981,-544.2981 350.8943,-553.8441 355.8441,-548.8943"/>
</g>
<!-- 14 -->
<g id="node15" class="node">
<title>14</title>
<path fill="#399de5" stroke="#000000" d="M464,-536.5C464,-536.5 389,-536.5 389,-536.5 383,-536.5 377,-530.5 377,-524.5 377,-524.5 377,-480.5 377,-480.5 377,-474.5 383,-468.5 389,-468.5 389,-468.5 464,-468.5 464,-468.5 470,-468.5 476,-474.5 476,-480.5 476,-480.5 476,-524.5 476,-524.5 476,-530.5 470,-536.5 464,-536.5"/>
<text text-anchor="start" x="397" y="-521.3" font-family="Helvetica,sans-Serif" font-size="14.00" fill="#000000">gini = 0.0</text>
<text text-anchor="start" x="387" y="-506.3" font-family="Helvetica,sans-Serif" font-size="14.00" fill="#000000">samples = 2</text>
<text text-anchor="start" x="385" y="-491.3" font-family="Helvetica,sans-Serif" font-size="14.00" fill="#000000">value = [0, 2]</text>
<text text-anchor="start" x="397.5" y="-476.3" font-family="Helvetica,sans-Serif" font-size="14.00" fill="#000000">class = 2</text>
</g>
<!-- 2&#45;&gt;14 -->
<g id="edge14" class="edge">
<title>2&#45;&gt;14</title>
<path fill="none" stroke="#000000" d="M424.5493,-579.8796C424.8182,-569.2134 425.1084,-557.7021 425.3806,-546.9015"/>
<polygon fill="#000000" stroke="#000000" points="428.8817,-546.9 425.6349,-536.8149 421.8839,-546.7235 428.8817,-546.9"/>
</g>
<!-- 4 -->
<g id="node5" class="node">
<title>4</title>
<path fill="#e88f4f" stroke="#000000" d="M290.5,-425C290.5,-425 186.5,-425 186.5,-425 180.5,-425 174.5,-419 174.5,-413 174.5,-413 174.5,-354 174.5,-354 174.5,-348 180.5,-342 186.5,-342 186.5,-342 290.5,-342 290.5,-342 296.5,-342 302.5,-348 302.5,-354 302.5,-354 302.5,-413 302.5,-413 302.5,-419 296.5,-425 290.5,-425"/>
<text text-anchor="start" x="182.5" y="-409.8" font-family="Helvetica,sans-Serif" font-size="14.00" fill="#000000">MCP.1 ≤ 209.469</text>
<text text-anchor="start" x="205" y="-394.8" font-family="Helvetica,sans-Serif" font-size="14.00" fill="#000000">gini = 0.18</text>
<text text-anchor="start" x="194.5" y="-379.8" font-family="Helvetica,sans-Serif" font-size="14.00" fill="#000000">samples = 30</text>
<text text-anchor="start" x="193" y="-364.8" font-family="Helvetica,sans-Serif" font-size="14.00" fill="#000000">value = [27, 3]</text>
<text text-anchor="start" x="209.5" y="-349.8" font-family="Helvetica,sans-Serif" font-size="14.00" fill="#000000">class = 1</text>
</g>
<!-- 3&#45;&gt;4 -->
<g id="edge4" class="edge">
<title>3&#45;&gt;4</title>
<path fill="none" stroke="#000000" d="M281.4164,-460.8796C276.6211,-452.2335 271.5178,-443.0322 266.5662,-434.1042"/>
<polygon fill="#000000" stroke="#000000" points="269.5931,-432.3455 261.6821,-425.2981 263.4716,-435.7407 269.5931,-432.3455"/>
</g>
<!-- 13 -->
<g id="node14" class="node">
<title>13</title>
<path fill="#399de5" stroke="#000000" d="M408,-417.5C408,-417.5 333,-417.5 333,-417.5 327,-417.5 321,-411.5 321,-405.5 321,-405.5 321,-361.5 321,-361.5 321,-355.5 327,-349.5 333,-349.5 333,-349.5 408,-349.5 408,-349.5 414,-349.5 420,-355.5 420,-361.5 420,-361.5 420,-405.5 420,-405.5 420,-411.5 414,-417.5 408,-417.5"/>
<text text-anchor="start" x="341" y="-402.3" font-family="Helvetica,sans-Serif" font-size="14.00" fill="#000000">gini = 0.0</text>
<text text-anchor="start" x="331" y="-387.3" font-family="Helvetica,sans-Serif" font-size="14.00" fill="#000000">samples = 1</text>
<text text-anchor="start" x="329" y="-372.3" font-family="Helvetica,sans-Serif" font-size="14.00" fill="#000000">value = [0, 1]</text>
<text text-anchor="start" x="341.5" y="-357.3" font-family="Helvetica,sans-Serif" font-size="14.00" fill="#000000">class = 2</text>
</g>
<!-- 3&#45;&gt;13 -->
<g id="edge13" class="edge">
<title>3&#45;&gt;13</title>
<path fill="none" stroke="#000000" d="M327.5836,-460.8796C333.7433,-449.7735 340.4111,-437.7513 346.6129,-426.5691"/>
<polygon fill="#000000" stroke="#000000" points="349.6787,-428.2576 351.4682,-417.8149 343.5572,-424.8624 349.6787,-428.2576"/>
</g>
<!-- 5 -->
<g id="node6" class="node">
<title>5</title>
<path fill="#f2c09c" stroke="#000000" d="M218,-306C218,-306 97,-306 97,-306 91,-306 85,-300 85,-294 85,-294 85,-235 85,-235 85,-229 91,-223 97,-223 97,-223 218,-223 218,-223 224,-223 230,-229 230,-235 230,-235 230,-294 230,-294 230,-300 224,-306 218,-306"/>
<text text-anchor="start" x="93" y="-290.8" font-family="Helvetica,sans-Serif" font-size="14.00" fill="#000000">Adiponectin ≤ 17.31</text>
<text text-anchor="start" x="119.5" y="-275.8" font-family="Helvetica,sans-Serif" font-size="14.00" fill="#000000">gini = 0.444</text>
<text text-anchor="start" x="118" y="-260.8" font-family="Helvetica,sans-Serif" font-size="14.00" fill="#000000">samples = 6</text>
<text text-anchor="start" x="116" y="-245.8" font-family="Helvetica,sans-Serif" font-size="14.00" fill="#000000">value = [4, 2]</text>
<text text-anchor="start" x="128.5" y="-230.8" font-family="Helvetica,sans-Serif" font-size="14.00" fill="#000000">class = 1</text>
</g>
<!-- 4&#45;&gt;5 -->
<g id="edge5" class="edge">
<title>4&#45;&gt;5</title>
<path fill="none" stroke="#000000" d="M210.1701,-341.8796C204.2237,-333.1434 197.8914,-323.8404 191.755,-314.8253"/>
<polygon fill="#000000" stroke="#000000" points="194.4711,-312.5953 185.9508,-306.2981 188.6844,-316.5342 194.4711,-312.5953"/>
</g>
<!-- 8 -->
<g id="node9" class="node">
<title>8</title>
<path fill="#e68642" stroke="#000000" d="M381,-306C381,-306 260,-306 260,-306 254,-306 248,-300 248,-294 248,-294 248,-235 248,-235 248,-229 254,-223 260,-223 260,-223 381,-223 381,-223 387,-223 393,-229 393,-235 393,-235 393,-294 393,-294 393,-300 387,-306 381,-306"/>
<text text-anchor="start" x="256" y="-290.8" font-family="Helvetica,sans-Serif" font-size="14.00" fill="#000000">Adiponectin ≤ 3.986</text>
<text text-anchor="start" x="287" y="-275.8" font-family="Helvetica,sans-Serif" font-size="14.00" fill="#000000">gini = 0.08</text>
<text text-anchor="start" x="276.5" y="-260.8" font-family="Helvetica,sans-Serif" font-size="14.00" fill="#000000">samples = 24</text>
<text text-anchor="start" x="275" y="-245.8" font-family="Helvetica,sans-Serif" font-size="14.00" fill="#000000">value = [23, 1]</text>
<text text-anchor="start" x="291.5" y="-230.8" font-family="Helvetica,sans-Serif" font-size="14.00" fill="#000000">class = 1</text>
</g>
<!-- 4&#45;&gt;8 -->
<g id="edge8" class="edge">
<title>4&#45;&gt;8</title>
<path fill="none" stroke="#000000" d="M267.1796,-341.8796C273.2615,-333.0534 279.7422,-323.6485 286.0141,-314.5466"/>
<polygon fill="#000000" stroke="#000000" points="288.9059,-316.5184 291.698,-306.2981 283.1418,-312.5465 288.9059,-316.5184"/>
</g>
<!-- 6 -->
<g id="node7" class="node">
<title>6</title>
<path fill="#399de5" stroke="#000000" d="M87,-179.5C87,-179.5 12,-179.5 12,-179.5 6,-179.5 0,-173.5 0,-167.5 0,-167.5 0,-123.5 0,-123.5 0,-117.5 6,-111.5 12,-111.5 12,-111.5 87,-111.5 87,-111.5 93,-111.5 99,-117.5 99,-123.5 99,-123.5 99,-167.5 99,-167.5 99,-173.5 93,-179.5 87,-179.5"/>
<text text-anchor="start" x="20" y="-164.3" font-family="Helvetica,sans-Serif" font-size="14.00" fill="#000000">gini = 0.0</text>
<text text-anchor="start" x="10" y="-149.3" font-family="Helvetica,sans-Serif" font-size="14.00" fill="#000000">samples = 2</text>
<text text-anchor="start" x="8" y="-134.3" font-family="Helvetica,sans-Serif" font-size="14.00" fill="#000000">value = [0, 2]</text>
<text text-anchor="start" x="20.5" y="-119.3" font-family="Helvetica,sans-Serif" font-size="14.00" fill="#000000">class = 2</text>
</g>
<!-- 5&#45;&gt;6 -->
<g id="edge6" class="edge">
<title>5&#45;&gt;6</title>
<path fill="none" stroke="#000000" d="M119.7268,-222.8796C109.2482,-211.3337 97.8709,-198.7976 87.3859,-187.2446"/>
<polygon fill="#000000" stroke="#000000" points="89.9553,-184.8678 80.643,-179.8149 84.7718,-189.5722 89.9553,-184.8678"/>
</g>
<!-- 7 -->
<g id="node8" class="node">
<title>7</title>
<path fill="#e58139" stroke="#000000" d="M204,-179.5C204,-179.5 129,-179.5 129,-179.5 123,-179.5 117,-173.5 117,-167.5 117,-167.5 117,-123.5 117,-123.5 117,-117.5 123,-111.5 129,-111.5 129,-111.5 204,-111.5 204,-111.5 210,-111.5 216,-117.5 216,-123.5 216,-123.5 216,-167.5 216,-167.5 216,-173.5 210,-179.5 204,-179.5"/>
<text text-anchor="start" x="137" y="-164.3" font-family="Helvetica,sans-Serif" font-size="14.00" fill="#000000">gini = 0.0</text>
<text text-anchor="start" x="127" y="-149.3" font-family="Helvetica,sans-Serif" font-size="14.00" fill="#000000">samples = 4</text>
<text text-anchor="start" x="125" y="-134.3" font-family="Helvetica,sans-Serif" font-size="14.00" fill="#000000">value = [4, 0]</text>
<text text-anchor="start" x="137.5" y="-119.3" font-family="Helvetica,sans-Serif" font-size="14.00" fill="#000000">class = 1</text>
</g>
<!-- 5&#45;&gt;7 -->
<g id="edge7" class="edge">
<title>5&#45;&gt;7</title>
<path fill="none" stroke="#000000" d="M160.6478,-222.8796C161.4545,-212.2134 162.3251,-200.7021 163.1419,-189.9015"/>
<polygon fill="#000000" stroke="#000000" points="166.6405,-190.0504 163.9048,-179.8149 159.6605,-189.5225 166.6405,-190.0504"/>
</g>
<!-- 9 -->
<g id="node10" class="node">
<title>9</title>
<path fill="#ffffff" stroke="#000000" d="M359.5,-187C359.5,-187 263.5,-187 263.5,-187 257.5,-187 251.5,-181 251.5,-175 251.5,-175 251.5,-116 251.5,-116 251.5,-110 257.5,-104 263.5,-104 263.5,-104 359.5,-104 359.5,-104 365.5,-104 371.5,-110 371.5,-116 371.5,-116 371.5,-175 371.5,-175 371.5,-181 365.5,-187 359.5,-187"/>
<text text-anchor="start" x="259.5" y="-171.8" font-family="Helvetica,sans-Serif" font-size="14.00" fill="#000000">Resistin ≤ 10.36</text>
<text text-anchor="start" x="282" y="-156.8" font-family="Helvetica,sans-Serif" font-size="14.00" fill="#000000">gini = 0.5</text>
<text text-anchor="start" x="272" y="-141.8" font-family="Helvetica,sans-Serif" font-size="14.00" fill="#000000">samples = 2</text>
<text text-anchor="start" x="270" y="-126.8" font-family="Helvetica,sans-Serif" font-size="14.00" fill="#000000">value = [1, 1]</text>
<text text-anchor="start" x="282.5" y="-111.8" font-family="Helvetica,sans-Serif" font-size="14.00" fill="#000000">class = 1</text>
</g>
<!-- 8&#45;&gt;9 -->
<g id="edge9" class="edge">
<title>8&#45;&gt;9</title>
<path fill="none" stroke="#000000" d="M317.3522,-222.8796C316.7324,-214.6838 316.0748,-205.9891 315.4329,-197.5013"/>
<polygon fill="#000000" stroke="#000000" points="318.9055,-197.0056 314.6612,-187.2981 311.9254,-197.5336 318.9055,-197.0056"/>
</g>
<!-- 12 -->
<g id="node13" class="node">
<title>12</title>
<path fill="#e58139" stroke="#000000" d="M485,-179.5C485,-179.5 402,-179.5 402,-179.5 396,-179.5 390,-173.5 390,-167.5 390,-167.5 390,-123.5 390,-123.5 390,-117.5 396,-111.5 402,-111.5 402,-111.5 485,-111.5 485,-111.5 491,-111.5 497,-117.5 497,-123.5 497,-123.5 497,-167.5 497,-167.5 497,-173.5 491,-179.5 485,-179.5"/>
<text text-anchor="start" x="414" y="-164.3" font-family="Helvetica,sans-Serif" font-size="14.00" fill="#000000">gini = 0.0</text>
<text text-anchor="start" x="399.5" y="-149.3" font-family="Helvetica,sans-Serif" font-size="14.00" fill="#000000">samples = 22</text>
<text text-anchor="start" x="398" y="-134.3" font-family="Helvetica,sans-Serif" font-size="14.00" fill="#000000">value = [22, 0]</text>
<text text-anchor="start" x="414.5" y="-119.3" font-family="Helvetica,sans-Serif" font-size="14.00" fill="#000000">class = 1</text>
</g>
<!-- 8&#45;&gt;12 -->
<g id="edge12" class="edge">
<title>8&#45;&gt;12</title>
<path fill="none" stroke="#000000" d="M363.5194,-222.8796C375.5671,-211.2237 388.6578,-198.5587 400.6931,-186.9148"/>
<polygon fill="#000000" stroke="#000000" points="403.2783,-189.2837 408.0316,-179.8149 398.411,-184.2528 403.2783,-189.2837"/>
</g>
<!-- 10 -->
<g id="node11" class="node">
<title>10</title>
<path fill="#399de5" stroke="#000000" d="M290,-68C290,-68 215,-68 215,-68 209,-68 203,-62 203,-56 203,-56 203,-12 203,-12 203,-6 209,0 215,0 215,0 290,0 290,0 296,0 302,-6 302,-12 302,-12 302,-56 302,-56 302,-62 296,-68 290,-68"/>
<text text-anchor="start" x="223" y="-52.8" font-family="Helvetica,sans-Serif" font-size="14.00" fill="#000000">gini = 0.0</text>
<text text-anchor="start" x="213" y="-37.8" font-family="Helvetica,sans-Serif" font-size="14.00" fill="#000000">samples = 1</text>
<text text-anchor="start" x="211" y="-22.8" font-family="Helvetica,sans-Serif" font-size="14.00" fill="#000000">value = [0, 1]</text>
<text text-anchor="start" x="223.5" y="-7.8" font-family="Helvetica,sans-Serif" font-size="14.00" fill="#000000">class = 2</text>
</g>
<!-- 9&#45;&gt;10 -->
<g id="edge10" class="edge">
<title>9&#45;&gt;10</title>
<path fill="none" stroke="#000000" d="M289.5306,-103.9815C284.9105,-95.2504 280.0264,-86.0202 275.374,-77.2281"/>
<polygon fill="#000000" stroke="#000000" points="278.4013,-75.4655 270.6306,-68.2637 272.2141,-78.7395 278.4013,-75.4655"/>
</g>
<!-- 11 -->
<g id="node12" class="node">
<title>11</title>
<path fill="#e58139" stroke="#000000" d="M407,-68C407,-68 332,-68 332,-68 326,-68 320,-62 320,-56 320,-56 320,-12 320,-12 320,-6 326,0 332,0 332,0 407,0 407,0 413,0 419,-6 419,-12 419,-12 419,-56 419,-56 419,-62 413,-68 407,-68"/>
<text text-anchor="start" x="340" y="-52.8" font-family="Helvetica,sans-Serif" font-size="14.00" fill="#000000">gini = 0.0</text>
<text text-anchor="start" x="330" y="-37.8" font-family="Helvetica,sans-Serif" font-size="14.00" fill="#000000">samples = 1</text>
<text text-anchor="start" x="328" y="-22.8" font-family="Helvetica,sans-Serif" font-size="14.00" fill="#000000">value = [1, 0]</text>
<text text-anchor="start" x="340.5" y="-7.8" font-family="Helvetica,sans-Serif" font-size="14.00" fill="#000000">class = 1</text>
</g>
<!-- 9&#45;&gt;11 -->
<g id="edge11" class="edge">
<title>9&#45;&gt;11</title>
<path fill="none" stroke="#000000" d="M333.0971,-103.9815C337.6388,-95.2504 342.4402,-86.0202 347.0137,-77.2281"/>
<polygon fill="#000000" stroke="#000000" points="350.1669,-78.7504 351.6767,-68.2637 343.9569,-75.52 350.1669,-78.7504"/>
</g>
<!-- 16 -->
<g id="node17" class="node">
<title>16</title>
<path fill="#399de5" stroke="#000000" d="M585,-536.5C585,-536.5 510,-536.5 510,-536.5 504,-536.5 498,-530.5 498,-524.5 498,-524.5 498,-480.5 498,-480.5 498,-474.5 504,-468.5 510,-468.5 510,-468.5 585,-468.5 585,-468.5 591,-468.5 597,-474.5 597,-480.5 597,-480.5 597,-524.5 597,-524.5 597,-530.5 591,-536.5 585,-536.5"/>
<text text-anchor="start" x="518" y="-521.3" font-family="Helvetica,sans-Serif" font-size="14.00" fill="#000000">gini = 0.0</text>
<text text-anchor="start" x="508" y="-506.3" font-family="Helvetica,sans-Serif" font-size="14.00" fill="#000000">samples = 9</text>
<text text-anchor="start" x="506" y="-491.3" font-family="Helvetica,sans-Serif" font-size="14.00" fill="#000000">value = [0, 9]</text>
<text text-anchor="start" x="518.5" y="-476.3" font-family="Helvetica,sans-Serif" font-size="14.00" fill="#000000">class = 2</text>
</g>
<!-- 15&#45;&gt;16 -->
<g id="edge16" class="edge">
<title>15&#45;&gt;16</title>
<path fill="none" stroke="#000000" d="M548.8005,-579.8796C548.6212,-569.2134 548.4278,-557.7021 548.2462,-546.9015"/>
<polygon fill="#000000" stroke="#000000" points="551.7444,-546.7547 548.0767,-536.8149 544.7454,-546.8724 551.7444,-546.7547"/>
</g>
<!-- 17 -->
<g id="node18" class="node">
<title>17</title>
<path fill="#e58139" stroke="#000000" d="M702,-536.5C702,-536.5 627,-536.5 627,-536.5 621,-536.5 615,-530.5 615,-524.5 615,-524.5 615,-480.5 615,-480.5 615,-474.5 621,-468.5 627,-468.5 627,-468.5 702,-468.5 702,-468.5 708,-468.5 714,-474.5 714,-480.5 714,-480.5 714,-524.5 714,-524.5 714,-530.5 708,-536.5 702,-536.5"/>
<text text-anchor="start" x="635" y="-521.3" font-family="Helvetica,sans-Serif" font-size="14.00" fill="#000000">gini = 0.0</text>
<text text-anchor="start" x="625" y="-506.3" font-family="Helvetica,sans-Serif" font-size="14.00" fill="#000000">samples = 7</text>
<text text-anchor="start" x="623" y="-491.3" font-family="Helvetica,sans-Serif" font-size="14.00" fill="#000000">value = [7, 0]</text>
<text text-anchor="start" x="635.5" y="-476.3" font-family="Helvetica,sans-Serif" font-size="14.00" fill="#000000">class = 1</text>
</g>
<!-- 15&#45;&gt;17 -->
<g id="edge17" class="edge">
<title>15&#45;&gt;17</title>
<path fill="none" stroke="#000000" d="M589.7214,-579.8796C600.8792,-568.3337 612.9939,-555.7976 624.1586,-544.2446"/>
<polygon fill="#000000" stroke="#000000" points="626.9061,-546.4381 631.3385,-536.8149 621.8725,-541.5736 626.9061,-546.4381"/>
</g>
<!-- 19 -->
<g id="node20" class="node">
<title>19</title>
<path fill="#e58139" stroke="#000000" d="M716,-655.5C716,-655.5 641,-655.5 641,-655.5 635,-655.5 629,-649.5 629,-643.5 629,-643.5 629,-599.5 629,-599.5 629,-593.5 635,-587.5 641,-587.5 641,-587.5 716,-587.5 716,-587.5 722,-587.5 728,-593.5 728,-599.5 728,-599.5 728,-643.5 728,-643.5 728,-649.5 722,-655.5 716,-655.5"/>
<text text-anchor="start" x="649" y="-640.3" font-family="Helvetica,sans-Serif" font-size="14.00" fill="#000000">gini = 0.0</text>
<text text-anchor="start" x="639" y="-625.3" font-family="Helvetica,sans-Serif" font-size="14.00" fill="#000000">samples = 2</text>
<text text-anchor="start" x="637" y="-610.3" font-family="Helvetica,sans-Serif" font-size="14.00" fill="#000000">value = [2, 0]</text>
<text text-anchor="start" x="649.5" y="-595.3" font-family="Helvetica,sans-Serif" font-size="14.00" fill="#000000">class = 1</text>
</g>
<!-- 18&#45;&gt;19 -->
<g id="edge19" class="edge">
<title>18&#45;&gt;19</title>
<path fill="none" stroke="#000000" d="M681.101,-698.8796C680.7425,-688.2134 680.3555,-676.7021 679.9925,-665.9015"/>
<polygon fill="#000000" stroke="#000000" points="683.4875,-665.6917 679.6534,-655.8149 676.4915,-665.9269 683.4875,-665.6917"/>
</g>
<!-- 20 -->
<g id="node21" class="node">
<title>20</title>
<path fill="#57ace9" stroke="#000000" d="M841,-663C841,-663 758,-663 758,-663 752,-663 746,-657 746,-651 746,-651 746,-592 746,-592 746,-586 752,-580 758,-580 758,-580 841,-580 841,-580 847,-580 853,-586 853,-592 853,-592 853,-651 853,-651 853,-657 847,-663 841,-663"/>
<text text-anchor="start" x="756.5" y="-647.8" font-family="Helvetica,sans-Serif" font-size="14.00" fill="#000000">BMI ≤ 33.777</text>
<text text-anchor="start" x="761.5" y="-632.8" font-family="Helvetica,sans-Serif" font-size="14.00" fill="#000000">gini = 0.231</text>
<text text-anchor="start" x="755.5" y="-617.8" font-family="Helvetica,sans-Serif" font-size="14.00" fill="#000000">samples = 30</text>
<text text-anchor="start" x="754" y="-602.8" font-family="Helvetica,sans-Serif" font-size="14.00" fill="#000000">value = [4, 26]</text>
<text text-anchor="start" x="770.5" y="-587.8" font-family="Helvetica,sans-Serif" font-size="14.00" fill="#000000">class = 2</text>
</g>
<!-- 18&#45;&gt;20 -->
<g id="edge20" class="edge">
<title>18&#45;&gt;20</title>
<path fill="none" stroke="#000000" d="M723.4209,-698.8796C732.453,-689.6931 742.1013,-679.8798 751.3888,-670.4336"/>
<polygon fill="#000000" stroke="#000000" points="753.8893,-672.8827 758.4044,-663.2981 748.8977,-667.975 753.8893,-672.8827"/>
</g>
<!-- 21 -->
<g id="node22" class="node">
<title>21</title>
<path fill="#42a1e6" stroke="#000000" d="M845,-544C845,-544 750,-544 750,-544 744,-544 738,-538 738,-532 738,-532 738,-473 738,-473 738,-467 744,-461 750,-461 750,-461 845,-461 845,-461 851,-461 857,-467 857,-473 857,-473 857,-532 857,-532 857,-538 851,-544 845,-544"/>
<text text-anchor="start" x="746" y="-528.8" font-family="Helvetica,sans-Serif" font-size="14.00" fill="#000000">MCP.1 ≤ 67.966</text>
<text text-anchor="start" x="764" y="-513.8" font-family="Helvetica,sans-Serif" font-size="14.00" fill="#000000">gini = 0.08</text>
<text text-anchor="start" x="753.5" y="-498.8" font-family="Helvetica,sans-Serif" font-size="14.00" fill="#000000">samples = 24</text>
<text text-anchor="start" x="752" y="-483.8" font-family="Helvetica,sans-Serif" font-size="14.00" fill="#000000">value = [1, 23]</text>
<text text-anchor="start" x="768.5" y="-468.8" font-family="Helvetica,sans-Serif" font-size="14.00" fill="#000000">class = 2</text>
</g>
<!-- 20&#45;&gt;21 -->
<g id="edge21" class="edge">
<title>20&#45;&gt;21</title>
<path fill="none" stroke="#000000" d="M798.8005,-579.8796C798.6628,-571.6838 798.5166,-562.9891 798.374,-554.5013"/>
<polygon fill="#000000" stroke="#000000" points="801.8701,-554.2378 798.2025,-544.2981 794.8711,-554.3555 801.8701,-554.2378"/>
</g>
<!-- 24 -->
<g id="node25" class="node">
<title>24</title>
<path fill="#ffffff" stroke="#000000" d="M983.5,-544C983.5,-544 887.5,-544 887.5,-544 881.5,-544 875.5,-538 875.5,-532 875.5,-532 875.5,-473 875.5,-473 875.5,-467 881.5,-461 887.5,-461 887.5,-461 983.5,-461 983.5,-461 989.5,-461 995.5,-467 995.5,-473 995.5,-473 995.5,-532 995.5,-532 995.5,-538 989.5,-544 983.5,-544"/>
<text text-anchor="start" x="883.5" y="-528.8" font-family="Helvetica,sans-Serif" font-size="14.00" fill="#000000">Resistin ≤ 9.338</text>
<text text-anchor="start" x="906" y="-513.8" font-family="Helvetica,sans-Serif" font-size="14.00" fill="#000000">gini = 0.5</text>
<text text-anchor="start" x="896" y="-498.8" font-family="Helvetica,sans-Serif" font-size="14.00" fill="#000000">samples = 6</text>
<text text-anchor="start" x="894" y="-483.8" font-family="Helvetica,sans-Serif" font-size="14.00" fill="#000000">value = [3, 3]</text>
<text text-anchor="start" x="906.5" y="-468.8" font-family="Helvetica,sans-Serif" font-size="14.00" fill="#000000">class = 1</text>
</g>
<!-- 20&#45;&gt;24 -->
<g id="edge24" class="edge">
<title>20&#45;&gt;24</title>
<path fill="none" stroke="#000000" d="M847.0662,-579.8796C857.6679,-570.6031 869.0002,-560.6874 879.8933,-551.1559"/>
<polygon fill="#000000" stroke="#000000" points="882.5098,-553.5172 887.7308,-544.2981 877.9002,-548.2491 882.5098,-553.5172"/>
</g>
<!-- 22 -->
<g id="node23" class="node">
<title>22</title>
<path fill="#e58139" stroke="#000000" d="M718,-417.5C718,-417.5 643,-417.5 643,-417.5 637,-417.5 631,-411.5 631,-405.5 631,-405.5 631,-361.5 631,-361.5 631,-355.5 637,-349.5 643,-349.5 643,-349.5 718,-349.5 718,-349.5 724,-349.5 730,-355.5 730,-361.5 730,-361.5 730,-405.5 730,-405.5 730,-411.5 724,-417.5 718,-417.5"/>
<text text-anchor="start" x="651" y="-402.3" font-family="Helvetica,sans-Serif" font-size="14.00" fill="#000000">gini = 0.0</text>
<text text-anchor="start" x="641" y="-387.3" font-family="Helvetica,sans-Serif" font-size="14.00" fill="#000000">samples = 1</text>
<text text-anchor="start" x="639" y="-372.3" font-family="Helvetica,sans-Serif" font-size="14.00" fill="#000000">value = [1, 0]</text>
<text text-anchor="start" x="651.5" y="-357.3" font-family="Helvetica,sans-Serif" font-size="14.00" fill="#000000">class = 1</text>
</g>
<!-- 21&#45;&gt;22 -->
<g id="edge22" class="edge">
<title>21&#45;&gt;22</title>
<path fill="none" stroke="#000000" d="M756.5791,-460.8796C745.2272,-449.3337 732.9018,-436.7976 721.543,-425.2446"/>
<polygon fill="#000000" stroke="#000000" points="723.7449,-422.4919 714.2382,-417.8149 718.7534,-427.3995 723.7449,-422.4919"/>
</g>
<!-- 23 -->
<g id="node24" class="node">
<title>23</title>
<path fill="#399de5" stroke="#000000" d="M843,-417.5C843,-417.5 760,-417.5 760,-417.5 754,-417.5 748,-411.5 748,-405.5 748,-405.5 748,-361.5 748,-361.5 748,-355.5 754,-349.5 760,-349.5 760,-349.5 843,-349.5 843,-349.5 849,-349.5 855,-355.5 855,-361.5 855,-361.5 855,-405.5 855,-405.5 855,-411.5 849,-417.5 843,-417.5"/>
<text text-anchor="start" x="772" y="-402.3" font-family="Helvetica,sans-Serif" font-size="14.00" fill="#000000">gini = 0.0</text>
<text text-anchor="start" x="757.5" y="-387.3" font-family="Helvetica,sans-Serif" font-size="14.00" fill="#000000">samples = 23</text>
<text text-anchor="start" x="756" y="-372.3" font-family="Helvetica,sans-Serif" font-size="14.00" fill="#000000">value = [0, 23]</text>
<text text-anchor="start" x="772.5" y="-357.3" font-family="Helvetica,sans-Serif" font-size="14.00" fill="#000000">class = 2</text>
</g>
<!-- 21&#45;&gt;23 -->
<g id="edge23" class="edge">
<title>21&#45;&gt;23</title>
<path fill="none" stroke="#000000" d="M798.899,-460.8796C799.2575,-450.2134 799.6445,-438.7021 800.0075,-427.9015"/>
<polygon fill="#000000" stroke="#000000" points="803.5085,-427.9269 800.3466,-417.8149 796.5125,-427.6917 803.5085,-427.9269"/>
</g>
<!-- 25 -->
<g id="node26" class="node">
<title>25</title>
<path fill="#399de5" stroke="#000000" d="M968,-417.5C968,-417.5 893,-417.5 893,-417.5 887,-417.5 881,-411.5 881,-405.5 881,-405.5 881,-361.5 881,-361.5 881,-355.5 887,-349.5 893,-349.5 893,-349.5 968,-349.5 968,-349.5 974,-349.5 980,-355.5 980,-361.5 980,-361.5 980,-405.5 980,-405.5 980,-411.5 974,-417.5 968,-417.5"/>
<text text-anchor="start" x="901" y="-402.3" font-family="Helvetica,sans-Serif" font-size="14.00" fill="#000000">gini = 0.0</text>
<text text-anchor="start" x="891" y="-387.3" font-family="Helvetica,sans-Serif" font-size="14.00" fill="#000000">samples = 3</text>
<text text-anchor="start" x="889" y="-372.3" font-family="Helvetica,sans-Serif" font-size="14.00" fill="#000000">value = [0, 3]</text>
<text text-anchor="start" x="901.5" y="-357.3" font-family="Helvetica,sans-Serif" font-size="14.00" fill="#000000">class = 2</text>
</g>
<!-- 24&#45;&gt;25 -->
<g id="edge25" class="edge">
<title>24&#45;&gt;25</title>
<path fill="none" stroke="#000000" d="M933.7512,-460.8796C933.3031,-450.2134 932.8194,-438.7021 932.3656,-427.9015"/>
<polygon fill="#000000" stroke="#000000" points="935.8586,-427.6592 931.9418,-417.8149 928.8648,-427.9531 935.8586,-427.6592"/>
</g>
<!-- 26 -->
<g id="node27" class="node">
<title>26</title>
<path fill="#e58139" stroke="#000000" d="M1085,-417.5C1085,-417.5 1010,-417.5 1010,-417.5 1004,-417.5 998,-411.5 998,-405.5 998,-405.5 998,-361.5 998,-361.5 998,-355.5 1004,-349.5 1010,-349.5 1010,-349.5 1085,-349.5 1085,-349.5 1091,-349.5 1097,-355.5 1097,-361.5 1097,-361.5 1097,-405.5 1097,-405.5 1097,-411.5 1091,-417.5 1085,-417.5"/>
<text text-anchor="start" x="1018" y="-402.3" font-family="Helvetica,sans-Serif" font-size="14.00" fill="#000000">gini = 0.0</text>
<text text-anchor="start" x="1008" y="-387.3" font-family="Helvetica,sans-Serif" font-size="14.00" fill="#000000">samples = 3</text>
<text text-anchor="start" x="1006" y="-372.3" font-family="Helvetica,sans-Serif" font-size="14.00" fill="#000000">value = [3, 0]</text>
<text text-anchor="start" x="1018.5" y="-357.3" font-family="Helvetica,sans-Serif" font-size="14.00" fill="#000000">class = 1</text>
</g>
<!-- 24&#45;&gt;26 -->
<g id="edge26" class="edge">
<title>24&#45;&gt;26</title>
<path fill="none" stroke="#000000" d="M974.6722,-460.8796C985.5389,-449.3337 997.3376,-436.7976 1008.2109,-425.2446"/>
<polygon fill="#000000" stroke="#000000" points="1010.8986,-427.4958 1015.2036,-417.8149 1005.8012,-422.6982 1010.8986,-427.4958"/>
</g>
</g>
</svg>
